<?xml version="1.0" standalone="no"?>
<!DOCTYPE svg PUBLIC "-//W3C//DTD SVG 20010904//EN"
 "http://www.w3.org/TR/2001/REC-SVG-20010904/DTD/svg10.dtd">
<svg version="1.0" xmlns="http://www.w3.org/2000/svg"
 width="586.000000pt" height="586.000000pt" viewBox="0 0 586.000000 586.000000"
 preserveAspectRatio="xMidYMid meet">
<metadata>
Created by potrace 1.14, written by Peter Selinger 2001-2017
</metadata>
<g transform="translate(0.000000,586.000000) scale(0.100000,-0.100000)"
fill="#000000" stroke="none">
<path d="M3405 5570 c-16 -4 -53 -8 -82 -9 -29 0 -74 -5 -100 -11 -26 -5 -88
-12 -138 -14 -79 -4 -311 -20 -460 -31 -27 -2 -366 -6 -752 -9 -476 -3 -721
-9 -760 -17 -32 -6 -78 -14 -103 -18 -50 -8 -109 -26 -155 -47 -16 -8 -50 -20
-75 -27 -25 -8 -69 -30 -98 -50 -28 -21 -57 -37 -63 -37 -23 0 -237 -229 -264
-282 -15 -29 -33 -64 -41 -78 -82 -152 -119 -377 -109 -665 3 -93 8 -233 10
-310 8 -237 5 -1049 -5 -1255 -9 -195 -32 -516 -50 -705 -5 -55 -16 -192 -24
-305 -9 -113 -20 -232 -26 -265 -13 -79 -13 -339 1 -389 6 -21 14 -59 19 -85
8 -48 22 -90 51 -156 10 -22 23 -51 29 -65 5 -14 19 -38 30 -55 11 -16 23 -37
27 -45 14 -31 72 -104 135 -168 91 -93 295 -222 350 -222 10 0 18 -4 18 -10 0
-5 26 -17 57 -26 32 -9 65 -20 73 -25 8 -4 60 -15 115 -24 55 -9 109 -21 120
-26 42 -18 412 -49 575 -48 530 3 1035 -1 1240 -10 255 -12 299 -15 1005 -71
138 -11 482 -11 555 0 102 15 264 62 318 92 18 10 39 18 47 18 8 0 15 5 15 10
0 6 6 10 13 10 18 0 67 24 67 33 0 4 7 7 15 7 9 0 21 5 28 11 7 5 41 29 77 52
67 43 75 50 148 120 41 40 131 162 179 244 33 56 113 221 113 233 0 5 5 10 10
10 6 0 10 5 10 12 0 6 13 39 29 72 60 126 89 192 102 231 7 22 17 44 21 50 4
5 8 17 8 28 0 13 -14 4 -49 -36 -28 -30 -77 -68 -110 -86 l-61 -32 1 918 c0
505 2 914 4 908 2 -5 60 -289 129 -630 68 -341 127 -629 130 -640 3 -11 3 16
1 60 -6 120 -23 294 -30 305 -5 9 -12 67 -35 305 -5 50 -11 104 -14 120 -5 25
-12 122 -31 430 -10 167 -29 910 -25 985 4 69 0 258 -8 425 -7 123 -18 212
-41 324 -29 142 -38 173 -76 256 -8 17 -26 59 -40 94 -14 36 -29 67 -33 70 -4
4 -15 23 -26 43 -10 20 -28 47 -40 60 -21 22 -66 86 -66 92 0 13 -194 216
-207 216 -4 1 -19 14 -33 30 -29 36 -55 40 -46 8 11 -39 30 -168 25 -172 -2
-2 -47 7 -99 20 -54 14 -151 28 -230 34 -74 5 -603 10 -1175 11 l-1040 1 160
33 c88 19 324 68 525 109 222 45 345 74 315 74 -27 0 -63 -4 -80 -8z m-2167
-165 c-6 -6 -201 -25 -206 -20 -2 2 16 8 40 13 46 11 175 16 166 7z m3824
-213 c99 -49 171 -119 216 -211 l37 -76 3 -2070 c2 -1877 1 -2074 -14 -2124
-48 -168 -194 -291 -367 -310 -39 -5 -976 -7 -2082 -5 -2245 3 -2056 -4 -2175
75 -66 45 -125 115 -162 194 l-23 50 -5 2040 c-3 1122 -2 2068 2 2102 9 77 54
169 116 235 54 58 111 93 190 119 55 17 146 18 2127 16 l2070 -2 67 -33z
m-4718 -499 c-4 -27 -10 -84 -14 -128 l-7 -80 -2 89 c-1 76 13 166 26 166 2 0
1 -21 -3 -47z m-25 -3208 c2 -335 15 -593 35 -688 l14 -67 -40 23 c-93 52
-177 178 -198 298 -12 71 -18 29 112 819 l63 385 6 -240 c4 -132 7 -370 8
-530z m4381 -1316 c-19 -16 -63 -44 -98 -61 -103 -51 -157 -50 -537 13 -178
29 -322 55 -319 58 3 4 225 8 492 11 268 3 489 6 492 7 3 1 -11 -11 -30 -28z"/>
<path d="M2800 4249 c-226 -21 -483 -28 -714 -19 -132 5 -262 12 -288 16 l-48
6 0 -54 0 -54 88 -11 c159 -21 251 -64 288 -135 47 -90 47 -93 51 -995 5 -937
0 -1069 -41 -1158 -41 -89 -129 -131 -318 -150 l-68 -7 0 -45 0 -46 140 8
c184 9 968 9 1138 0 l132 -8 0 44 0 44 -121 17 c-188 26 -258 70 -297 185 -13
41 -16 119 -20 506 -2 251 -2 457 1 457 2 0 29 -9 60 -19 141 -49 386 -75 564
-60 377 32 662 232 739 519 20 76 23 254 6 343 -36 183 -150 347 -314 455
-193 125 -390 173 -708 171 -102 -1 -223 -5 -270 -10z m386 -150 c172 -32 296
-156 350 -354 24 -88 30 -310 10 -403 -44 -210 -177 -358 -362 -406 -116 -30
-296 -17 -421 31 l-43 16 0 532 0 532 44 17 c109 42 300 58 422 35z"/>
</g>
</svg>
