<?xml version="1.0" encoding="utf-8"?>
<!-- Generator: Adobe Illustrator 22.1.0, SVG Export Plug-In . SVG Version: 6.00 Build 0)  -->
<svg version="1.1" id="Layer_6" xmlns="http://www.w3.org/2000/svg" xmlns:xlink="http://www.w3.org/1999/xlink" x="0px" y="0px"
	 viewBox="0 0 1527.1 1502.4" style="enable-background:new 0 0 1527.1 1502.4;" xml:space="preserve">
<style type="text/css">
	.st0{fill:#FFFFFF;}
	.st1{fill:#E84B6C;}
	.st2{fill:#FFFFFF;stroke:#000000;stroke-width:4.0981;stroke-miterlimit:10;}
	.st3{fill:#FFFFFF;stroke:#FFFFFF;stroke-width:0.9641;stroke-miterlimit:10;}
	.st4{fill:none;stroke:#000000;stroke-width:3.2785;stroke-miterlimit:10;}
	.st5{fill:none;}
	.st6{fill:none;stroke:#000000;stroke-width:5.7374;stroke-miterlimit:10;}
</style>
<polygon id="XMLID_2570_" class="st0" points="739.9,526.1 736.8,439.8 727.5,429.7 727.5,423.6 731.4,405.7 747.1,394.2 
	753.2,384.6 767.4,381.4 806.5,397.7 819.3,415.8 827,528.8 804.9,545.7 763.4,551.6 743.6,538.8 "/>
<path id="XMLID_2569_" class="st0" d="M825.2,338.2l-28.6,26.2h-14.9v-9.8l21.8-25.3l31.8-23l41.2-11.3c0,0,80.7,24.3,82.2,23.7
	c1.5-0.7,66.6,28.1,66.6,28.1l3.9,13.2l-2.3,38.4l-6,17l-54.7,4.7l-35.1-11.5l-14.3,17.3l23,8.9l3,10.9l-11.7,8.8l-38.8-6
	l-19.5-13.7l2.9-16.4l-8.3-7.6l-3.7-17.3l-8.7-1.8l-10.8-11.9l1.4-10.3l-8.7-5.7l-3.4-12.2l-1.5-13.3L825.2,338.2L825.2,338.2z"/>
<polygon id="XMLID_2568_" class="st0" points="644.3,314.3 622.2,318.7 617.9,336.2 628.5,350.5 650.7,361.4 663.9,369.4 
	673.3,384.6 666.5,398.4 655.2,404.1 635.6,408.5 622.2,410.7 622.2,420 625.1,425.8 625.8,431.1 631.9,418.3 649.9,414.9 
	676.7,416.8 688.4,404.1 699.7,374.7 697.1,347.5 682.7,321.8 663.9,314.3 "/>
<polygon id="XMLID_2567_" class="st0" points="617.9,434.7 600.9,443.9 588.4,445.6 551.9,438.2 536.5,410.7 512,395.3 487.9,402.4 
	475.8,422.1 466.4,448.9 435.5,454.4 423.4,473.6 418.1,502.8 427.4,545.7 440.7,551.6 470.5,562.7 541.8,567.7 529.2,583 
	530.8,597.1 546.3,601.1 578.3,589.4 592.9,573.5 588.4,553.7 593.1,536.3 591.1,524.1 595.3,512.9 595.7,498.4 606,487.8 
	622.2,504.4 650.7,507.7 671.4,487.8 680.1,461.2 676.7,447.7 660.1,438.3 "/>
<polygon id="XMLID_2566_" class="st0" points="1241.4,978.5 1188.8,1015.9 1146.8,1013.8 1124.9,1013.8 1110.3,1024.6 1103.3,1047 
	1111,1066.7 1099.7,1087.6 1096.2,1111.7 1106,1140.5 1101,1147.2 1101.4,1174.5 1115.5,1196.9 1157.9,1224.5 1217,1226 
	1241.4,1206.3 1252.9,1192.9 1262.7,1200.5 1272.8,1186.7 1272.8,1176.4 1281.5,1181 1286.6,1186 1300,1167.1 1321,1075.9 
	1336.3,1053.3 1323.9,1015.1 1293.7,991.9 "/>
<polygon id="XMLID_2565_" class="st0" points="1006.1,978.5 998.4,940.2 971.2,917.5 947,919.1 894.6,927.6 855.8,934.4 812,976.9 
	785.8,1006.3 720.6,1005.4 713.2,964.9 684.2,917.5 657.8,903.1 520.4,906.8 493.7,966.4 488.3,987.1 437.7,986.2 434.1,967.8 
	426,958.5 425.6,934.9 410.1,927.4 378.8,909 333,917.2 284.2,931.3 255.4,976.9 248.3,1036.9 252.1,1049.7 272.9,1060.1 
	335.4,1080.5 378.8,1076.6 410.1,1138.5 446.4,1186.7 564.8,1187 887.2,1186.7 981.3,1184.1 1057.5,1137.3 1086.1,1100.7 
	1092.5,1069 1092.5,1047.4 1069.8,1028.3 1015.6,1015.1 998.6,990.6 "/>
<polygon id="XMLID_2564_" class="st1" points="714.1,434.7 732.9,387.4 749.4,368.4 776.9,361.6 810.9,374.5 832.5,398.4 
	844.2,428.3 827,434.7 813.8,402.4 791,387.1 771.3,384.6 758.3,384.6 747.1,394.2 732.9,402.4 "/>
<path id="XMLID_2563_" class="st2" d="M608.2,333.9c0,8.4,0.7,20.2-7.7,20.2c-8.4,0-22.6-11.8-22.6-20.2c0-8.4,6.8-15.1,15.1-15.1
	S608.2,325.5,608.2,333.9z"/>
<path id="XMLID_2562_" d="M1151.8,1159.4c9.1-14.6,18.3-28.7,26.6-32.5l-8.9-2.1L1151.8,1159.4z"/>
<g id="XMLID_2559_">
	<path id="XMLID_2475_" d="M614.5,457.3c0,0,0.7,0.3,1.8,0.9c0.6,0.3,1.3,0.7,2.1,1c0.8,0.4,1.7,0.8,2.7,1.2c1,0.4,2.1,0.9,3.3,1.3
		c1.1,0.5,2.4,0.8,3.7,1.2c1.3,0.3,2.6,0.7,4,0.9c0.7,0.1,1.4,0.3,2.1,0.4l2.1,0.3c0.7,0.1,1.4,0.1,2.1,0.2l1,0.1l1,0
		c0.7,0,1.4,0,2.1,0c0.7,0,1.4-0.1,2-0.1c0.7,0,1.3-0.2,1.9-0.2c0.6-0.1,1.3-0.1,1.9-0.3c1.2-0.2,2.4-0.4,3.4-0.7
		c1.1-0.2,2-0.5,2.9-0.8c0.9-0.3,1.6-0.5,2.2-0.7c1.2-0.4,1.9-0.7,1.9-0.7s-0.6,0.5-1.6,1.3c-0.5,0.4-1.2,0.9-2,1.3
		c-0.4,0.2-0.8,0.5-1.3,0.7c-0.5,0.2-1,0.5-1.5,0.7c-0.5,0.2-1.1,0.5-1.6,0.7c-0.6,0.2-1.2,0.4-1.8,0.6c-1.2,0.4-2.6,0.7-4,1
		c-1.4,0.2-2.9,0.5-4.4,0.5c-0.8,0-1.5,0.1-2.3,0c-0.8-0.1-1.5,0-2.3-0.1l-2.3-0.3c-0.8-0.1-1.5-0.3-2.2-0.5
		c-0.7-0.1-1.5-0.4-2.2-0.6c-0.7-0.2-1.4-0.4-2.1-0.7c-1.3-0.5-2.6-1.1-3.8-1.7c-0.6-0.3-1.2-0.6-1.7-0.9c-0.5-0.3-1-0.7-1.5-1
		c-1-0.6-1.8-1.3-2.5-1.8c-0.7-0.6-1.3-1.1-1.8-1.6C615,457.9,614.5,457.3,614.5,457.3z"/>
</g>
<g id="XMLID_2556_">
	<path id="XMLID_2473_" d="M894.9,349c0,0-0.1,0.4-0.4,1c-0.3,0.6-0.6,1.5-1.2,2.4c-1,2-2.7,4.4-4.5,6.6c-1.8,2.2-3.9,4.3-5.6,5.7
		c-0.8,0.7-1.6,1.3-2.2,1.6c-0.5,0.4-0.9,0.6-0.9,0.6s0.1-0.4,0.4-1c0.3-0.6,0.6-1.5,1.2-2.4c1-2,2.7-4.4,4.5-6.6
		c1.8-2.2,3.9-4.3,5.6-5.7c0.8-0.7,1.6-1.3,2.2-1.6C894.6,349.2,894.9,349,894.9,349z"/>
</g>
<polygon id="XMLID_2555_" class="st1" points="844.8,998.5 863.7,975.4 885.5,966.4 890.8,969.7 876.9,1004.2 844.4,1004.2 "/>
<polygon id="XMLID_2372_" points="314.1,911.9 316.8,880.2 316.8,869.8 333,861.7 372.6,865.1 410.1,877.4 406.5,944.8 386.9,959.6 
	329.9,967.8 321.1,959.8 323.3,953 349.7,943.2 378.8,933.5 385.9,922.7 393.7,915 384.8,913.5 362.1,913.5 323.3,918.5 "/>
<polygon id="XMLID_2371_" points="732.9,438.6 734.5,487.1 724.9,489.6 704.9,480.1 702.2,456.2 704.9,444.3 728.4,435.3 "/>
<polygon id="XMLID_2370_" points="819.3,435.3 822.9,487.1 834.7,485.2 848.1,478.2 851.1,464.7 851.1,447.7 840.3,434.7 "/>
<polyline id="XMLID_2369_" points="832,430.3 827,417 816.2,402.4 798.6,387.1 783.4,384.6 781.6,387.1 800.4,398.4 816.2,420 
	819.3,429.7 833.5,427.8 "/>
<path id="XMLID_2368_" class="st1" d="M650.5,898.1l-60.9-196.8l-112.6,63.3l-75.1,102l19,41.2l93.2-4.2l-22.3,29l-4,49.9l6.4,12.5
	l-55-1.4l-5.1-25.7l-5.5-11.4l-3.6-24l-14.8-5v-50c-55.6-11.3-74.4-24.8-96.1-7c-5.2,4.3,1.1,36.6,0,44.1l-40.4,24.3l-8.9-5.4
	l75.7-144l109.7-173.2l31.8-28.9l18.5-13.6l37.6-9.9l-4,13.8l-9.2,10.1l9.2,9.3l27.6,4.1l22-13.9l9.3-23.4l-5.2-17.6L599,536
	l1.7-14.7l102.2-4.9l6.6-29.3h25l3.2,50.1l30.5,8.4l20.1,2.6l34.5-18.3v-42.8l26.6-2l1.6,41.7l57.2-10.3l84.6,7l197.2-58.9l-15-10.3
	l-133.6-46.2l-20.2,2.6l8.4-12.4l5.3-38l-5.3-20.8l210.1,47.8l70.6,32.6l7.3,36.2l-14.2,33.4l-58.4,34.5l-81,34.3l-89.6,28.9
	l64.8,78.8l47.6,2.2l206.3,88.9l53.4,48.6l15.9,40.7l-13.4,44.4l-105.7,162.4l-18-25l-21.3-34.3l-38.6-7.9l-23.7-2.4l63.7-51.9
	l42.1-50.7v-37.8l-18.3-22.8l-51.8-21.5l-38.9-14l-15.1-2.2l29.4,37.7l30.2,57.3l7.3,23.8l-15.2,13l-11.8,19.8l-87.9,28.1l-121.1,16
	l-55.1,6.6l6.8-32.3l-18.5-30.4l-12.2-8.1l164.4-44.7l13.3-13.3l2.2-22.4l-55.6-81.4l-135.3-25.9l-12,186.7L862.7,929l-37,28.8
	l-44.2,48.5l-55.5-3.2l-5.4-35.3l-18.4-33.8L650.5,898.1z"/>
<path id="XMLID_2367_" class="st1" d="M470.5,612.8l-231.6-50.1l189-15.8l-9.6-22.9l5.1-52.6l8.9-17.1
	c-122.9,9.6-232.8,24.2-326.7,45.1l-28.2,32.3L71,555.5l15.4,32.2l42.6,25.1l64.7,31l134,34.2l81.2,7.8L470.5,612.8z"/>
<polygon id="XMLID_2366_" class="st1" points="418.6,674.4 272.9,755.5 201.6,800.6 108.4,847.9 85.6,881 85.6,924.3 136.1,987.6 
	204.1,1020.1 247,1047.4 239.7,1019.3 252.1,989.3 268.2,960 218.6,915.9 302.5,861.7 "/>
<g>
	<path class="st3" d="M692.3,682.6l61.1-23.9v10.1l-30.1,11.1l-19.1,7.1v0.6l19.1,7.1l30.1,11.1v10.1L692.3,692V682.6z"/>
	<path class="st3" d="M797.7,633.4h8.5l-37.9,124h-8.7L797.7,633.4z"/>
	<path class="st3" d="M874.1,692L813,715.9v-10.1l30.1-11.1l19.1-7.1V687l-19.1-7.1L813,668.7v-10.1l61.1,23.9V692z"/>
</g>
<g>
	<path class="st3" d="M692.3,682.6l61.1-23.9v10.1l-30.1,11.1l-19.1,7.1v0.6l19.1,7.1l30.1,11.1v10.1L692.3,692V682.6z"/>
	<path class="st3" d="M797.7,633.4h8.5l-37.9,124h-8.7L797.7,633.4z"/>
	<path class="st3" d="M874.1,692L813,715.9v-10.1l30.1-11.1l19.1-7.1V687l-19.1-7.1L813,668.7v-10.1l61.1,23.9V692z"/>
</g>
<g id="XMLID_2364_">
	<path class="st3" d="M692.3,682.6l61.1-23.9v10.1l-30.1,11.1l-19.1,7.1v0.6l19.1,7.1l30.1,11.1v10.1L692.3,692V682.6z"/>
	<path class="st3" d="M797.7,633.4h8.5l-37.9,124h-8.7L797.7,633.4z"/>
	<path class="st3" d="M874.1,692L813,715.9v-10.1l30.1-11.1l19.1-7.1V687l-19.1-7.1L813,668.7v-10.1l61.1,23.9V692z"/>
</g>
<path id="XMLID_2274_" d="M372.3,1082.3c-0.7,0-1.3-0.1-1.7,0.1c-5.1,2-10.4,2.2-15.8,2c-7.1-0.2-14.2-0.2-21.2-0.8
	c-5.1-0.5-10.2-1.7-15.3-2.7c-14.4-3-28.3-7.8-41.6-14.1c-8.6-4.1-17.3-7.8-26.3-10.8c-1.6-0.5-3.2-1.3-4.7-2.2
	c-28-16.1-56.3-31.7-83.7-48.8c-11.6-7.2-22.9-14.8-33.8-23.1c-6.7-5.1-13.3-10.5-18.9-16.9c-12.6-14.2-23.3-29.6-29.1-47.9
	c-5.1-16.2-3.1-31.4,6.4-45.5c1.1-1.6,2.1-3.2,3.3-4.6c8.6-10.9,18.5-20.4,30.7-27.4c25.6-14.7,51.1-29.6,76.6-44.4
	c3.7-2.2,7.4-4.4,11.1-6.6c18.1-10.9,36.4-21.3,55.1-30.9c9.6-4.9,18.5-10.7,27.6-16.4c28.9-18.2,59.2-33.5,90.6-46.6
	c1.9-0.8,3.8-1.6,5.7-2.5c0.5-0.3,0.9-0.8,1.8-1.6c-1.1-0.3-1.7-0.6-2.4-0.6c-11.8-1.4-23.7-2.4-35.5-4.1c-13.8-2-27.6-4.4-41.4-6.9
	c-32.5-6-64.3-14.4-96.2-22.9c-20.4-5.5-40.3-12.2-59.6-20.8c-15.2-6.7-29.8-14.6-43.4-24.2c-11.3-7.9-20.8-17.7-28.6-29
	c-5.6-8-9.5-16.8-11.2-26.5c-1.2-6.5-1.2-13.1,0.5-19.5c0.4-1.5,0.8-3,1.5-4.4c4.4-8.4,9.3-16.6,16.5-23c4.7-4.2,9.9-7.4,16.1-9.1
	c5.3-1.4,10.4-3.7,15.7-5.1c11.5-3,23.1-5.8,34.8-8.3c21.8-4.5,43.6-8.9,65.5-13c9.7-1.8,19.4-3.1,29.2-4.5
	c8.9-1.3,17.8-2.4,26.7-3.5c7.2-0.9,14.4-1.8,21.6-2.6c13-1.4,26.1-2.8,39.1-4.1c18.4-1.9,36.7-4.2,55.1-5.7
	c21.9-1.8,43.7-3.7,65.6-3.9c1.2,0,2.4-0.1,3.6-0.2c0.3,0,0.6-0.3,1.1-0.5c1.2-1.5,1.2-3.4,1.6-5.2c2-9.7,4.9-19,9.3-27.9
	c2.3-4.5,5.2-8.5,8.7-12.2c11.6-12.1,30.3-12.6,42.9-4.6c1.7,1.1,3.4,2.3,5,3.7c8.7,7.6,15.7,16.4,20.5,27c0.4,0.8,0.7,1.6,1,2.4
	c0.6,1.8,2,2.7,3.9,3c1.5,0.2,3.1,0.6,4.6,0.9c6.5,1.3,12.7,3.3,18.6,6.3c1.4,0.7,2.8,1.4,4.4,0.9c4.3-1.2,8.5-0.8,13.1,0.2
	c7.2-7.9,16.7-10.4,27-11.2c-0.2-0.4-0.3-0.8-0.5-0.9c-5.9-3.2-6.5-8.6-5.6-14.3c0.9-5.8,4.4-9.7,10.3-10.9c4.1-0.8,8.2-1.3,12.3-2
	c4.1-0.6,8.2-1.2,12.3-1.9c8.5-1.4,12.3-7.5,15.2-14.7c0.6-1.5,0.4-3.1-0.3-4.5c-1.7-3.2-3.3-6.5-5.2-9.5c-1.9-2.9-4.7-5-8.1-6.2
	c-1.9-0.7-3.9-1.5-5.8-2.2c-6.5-2.4-12.7-5.4-18.6-9c-3.7-2.2-7.1-5-10-8.2c-1.8-1.9-3.3-4.1-3.7-6.7c-0.6-3.6-1.3-7.2-1.3-10.8
	c0.1-7.3,4.1-12.3,10.5-15.4c3-1.4,6.2-2,9.5-2.1c4.7-0.2,9.3-0.7,14-0.7c5.3,0,10.7,0.3,16,0.9c4.3,0.5,8.3,2.3,11.9,4.9
	c5.2,3.8,10,8,14,13c1.7,2.1,3.2,4.5,4.4,7c3,6.2,5.1,12.8,6.8,19.5c0.9,3.4,1.1,6.8,0.8,10.3c-1.3,14.7-5.8,28.4-14.1,40.7
	c-0.6,0.9-1.2,1.7-1.8,2.5c-4.9,7.4-12.2,10.4-20.7,11c-2.4,0.2-4.8-0.4-7.2-0.8c-6.3-1.3-12.7-1.5-19-0.1c-1.5,0.4-3,0.8-4.4,1.4
	c-4.8,1.8-5.8,3.5-6.2,9.3c4.2,0.4,8.5,0.8,12.7,1.2c8.1,0.8,16.1,2.3,23.7,5.1c2.7,1,5.4,2.3,7.9,3.7c1.8,1,3.4,2.3,4.9,3.8
	c2.9,3.1,4.8,6.6,4.5,11.2c-0.4,8.3-1.8,16.5-5.1,24.2c-1.5,3.3-10.6,17.2-13.1,19.8c-0.9,1-2,2-3,2.9c-8.3,7.8-18.3,10.1-29.3,8.3
	c-4.6-0.8-9-2.3-13.3-4.3c-4.3-2-8-4.8-11.1-8.3c-1.1-1.2-1.9-2.9-4-3.4c-1.6,1.4-3.2,2.8-4.8,4.1c0.8,16,0,12.8-2.8,22
	c1.3,1,2.6,0.2,3.9,0c6.5-1.1,12.9-2.5,19.4-3.4c8.2-1.1,16.4-2.1,24.7-2.6c8.4-0.5,16.9-0.8,25.4-0.5c9.5,0.2,18.9,1.1,28.4,1.7
	c1.3,0.1,2.7,0,4.3,0c0.2-1.3,0.5-2.5,0.5-3.6c0.1-9,0.2-18,0.3-26.9c0-2.3-0.5-4.4-1.6-6.4c-2.1-4.2-3.4-8.6-4.1-13.3
	c-0.6-4.6-0.1-9,1-13.3c1.3-5.2,3.8-9.6,8.3-12.7c2-1.4,3-3.1,3.6-5.4c5.3-19,13.5-36.5,24.6-52.8c6.6-9.7,15.4-15.7,26.4-18.7
	c3.1-0.9,6.5-1,9.7-1.3c2-0.2,4.1-0.2,6.3-0.2c0.5-1.3,1.1-2.4,1.2-3.6c0.5-4.6,2.5-8.6,5.5-12.1c9.1-10.6,18.2-21.2,28.8-30.4
	c0.8-0.7,1.6-1.3,2.4-1.9c15.2-10.3,31.7-17.6,50.1-19.9c11.8-1.5,23.4-0.3,35,2.3c19.8,4.3,39,10.5,57.9,17.5
	c10,3.7,20.2,7.1,30,11.4c6.3,2.8,12.6,5.8,18.3,9.6c2.6,1.8,5.5,3,8.6,3.3c14.2,1.6,28.4,3.9,42.5,6.4c16.1,2.9,32.3,5.6,48.4,8.6
	c25.8,4.8,51.3,10.9,76.7,17.6c20.7,5.5,41.4,10.7,62.1,16.4c14.2,3.9,27.9,9.1,40.9,16c7.7,4.1,14.8,8.9,21.3,14.7
	c6,5.3,11,11.4,14.7,18.6c2.6,5.2,4.1,10.6,3.5,16.5c-0.4,3.6-1.4,7.1-2.8,10.5c-2.7,6.6-6.7,12.5-11.3,17.9c-4,4.8-8.5,9.1-13.3,13
	c-7.5,6.1-15.5,11.6-23.8,16.6c-17.5,10.5-35.7,19.7-54.3,28c-11.2,5-22.7,9.2-34.2,13.5c-32.5,12.1-65.6,22.6-98.7,33.1
	c-2.3,0.7-4.5,1.5-6.6,2.2c-0.6,1.6,0.3,2.3,1,3c3.3,3.5,6.7,7,10,10.5c14.8,15.5,28.3,32.1,41.6,48.9c0.6,0.8,1.3,1.6,1.9,2.4
	c1.5,2.3,3.7,3.4,6.3,4.1c12.4,3.1,24.7,6.3,37.1,9.7c18.8,5.2,37.3,11.6,55.5,18.4c25.6,9.5,51,19.3,76.1,30
	c17.9,7.7,35.7,15.9,52.8,25.2c14.7,8,29.1,16.7,42.9,26.2c13.7,9.5,26.1,20.4,36.1,33.9c9.4,12.6,15.6,26.8,19.4,42
	c1.3,5.2,1.2,10.6,1,16c-0.1,3.4-1.3,6.4-2.6,9.4c-4.4,9.7-8.7,19.6-13.6,29.1c-11.5,22.3-23.6,44.2-37.5,65.1
	c-9.9,15-20.2,29.7-30.6,44.3c-13.2,18.4-26.8,36.5-40.2,54.7c-1.6,2.2-3.4,4.4-5.2,6.4c-1.7,2-2.7,4.3-3.3,6.9
	c-4,16.1-7.9,32.2-12.2,48.2c-3.7,13.7-8.9,26.9-14.9,39.7c-3.3,7.1-7.3,13.7-12.1,19.9c-1.3,1.6-2.7,3.2-4.1,4.6
	c-1.9,1.9-4.1,2.4-6.6,1.1c-0.9-0.5-1.8-0.9-3-1.5c-0.7,1.7-1.3,3.1-1.9,4.5c-1.1,2.5-2.1,5.1-3.5,7.5c-1.1,1.9-2.7,3.6-4.3,5.1
	c-2.2,2-4.8,2.6-7.7,1.3c-1.6-0.7-3.2-1.4-4.8-2.1c-1.8,0.8-2,2.7-2.6,4.2c-1.7,4.1-4,7.6-8.1,10c-1.1-0.1-2.2-0.2-3.6-0.3
	c-1.4,1.2-2.9,2.4-4.2,3.8c-7.4,7.6-16.7,11.5-27,13.3c-11.8,2.1-23.7,1.8-35.6,0.3c-15.5-1.9-29.8-7.4-43.4-14.6
	c-11.7-6.1-21.1-15-28.7-25.7c-7.5-10.5-10.6-22.2-9.6-35.2c0.5-6.6,1.7-13,4.6-19c1.2-2.5,1.2-4.9,0.1-7.4
	c-2.4-5.8-3.8-11.8-4.7-18c-1-7.2-0.1-14.1,1.8-21c2-6.9,5.4-13,10.4-18.3c2.2-2.4,4.4-4.8,6.8-7.3c-1-3.8-3-7-4.6-10.4
	c-5.5-11.9-5-23.3,2-34.5c5.9-9.4,14.3-14.1,25.4-14.2c7.6-0.1,15.2,0.6,22.7,1.4c6.7,0.7,13.4,1.6,20,2.6c2.2,0.3,4-0.4,5.8-1.5
	c9.4-5.4,18.9-10.8,28.4-16.1c9.9-5.6,19.9-11,30.5-15.3c1.4-0.6,2.8-1.4,3.9-2.4c18.7-16.1,37.7-31.9,55.2-49.4
	c8.7-8.7,17.5-17.2,25.3-26.7c4.3-5.2,8.2-10.7,12.1-16.2c2.8-4,4.9-8.3,6.5-12.9c2.1-5.8,1.8-11.6-0.5-17.2
	c-5.3-12.5-13.5-22.8-24.6-30.7c-5.9-4.2-12.2-7.9-18.8-10.9c-20.5-9.3-41.5-17.1-63.3-22.8c-1.2-0.3-2.3-0.4-3.5-0.6
	c-0.1,0-0.3,0.2-0.7,0.4c0.6,1,1.1,2,1.7,3c7.4,11.5,14.8,22.9,22.2,34.4c1,1.6,2.1,3.2,3,4.9c1.5,2.8,3.3,5.2,5.7,7.3
	c1.5,1.4,2.9,2.9,4.2,4.6c9.6,13.1,16.6,27.5,20.2,43.3c2.4,10.4,0.8,20.1-5.6,29c-4.4,6.1-9.6,11.3-15.8,15.5
	c-10.9,7.5-22.6,13.2-35,17.7c-15.6,5.6-31.7,9.7-47.9,13.3c-22.3,4.9-44.5,9.7-66.9,14.2c-15.7,3.1-31.6,5.6-47.5,7.9
	c-14.4,2-28.8,3.1-43.2,4.7c-5.3,0.6-10.7,0.9-16,1.4c-1.2,0.1-2.3,0.5-3.9,0.9c0.6,1,1,1.8,1.5,2.3c4,3.9,7.3,8.3,9.6,13.4
	c1.1,2.3,2.7,3.4,5.1,3.9c5.4,1.2,10.8,2.5,16.1,3.8c5.6,1.3,10.9,3.3,16,5.8c6.7,3.2,13.5,6.1,20.3,9.1c4.9,2.2,9.6,4.7,13.8,8.1
	c3.3,2.7,4.8,6.1,5.3,10.2c0.8,7.6,0.3,15.2-0.4,22.8c-0.6,6.4-1.8,12.6-2.6,19c-0.3,2.5-1.2,4.5-3.2,6.2c-1.5,1.3-2.7,3.2-3.6,5
	c-7.3,13.9-17.3,25.8-28.6,36.5c-8.9,8.5-18.2,16.4-28.6,23.1c-2.5,1.6-5,3.1-7.5,4.7c-5.7,3.6-11.7,6.6-17.3,10.3
	c-8.8,5.7-18.7,8.7-29.2,9.6c-19.1,1.7-38.2,2.4-57.4,2.5c-12.8,0.1-25.5,1-38.3,1.4c-18.1,0.5-36.3,0.8-54.4-0.3
	c-5-0.3-10-0.2-15-0.5c-26.6-1.5-53.2-1.1-79.8-0.7c-12.6,0.2-25.2,1-37.8,1.5c-11.7,0.5-23.5,1.1-35.2,1.4
	c-13.5,0.4-26.9,0.8-40.4,1.1c-8.8,0.2-17.6-0.1-26.4,0c-7.8,0.1-15.5,0.3-23.3,0.6c-23.1,1-46.2,2.1-69.4,1.3
	c-2.6-0.1-5.2-0.4-7.8-0.5c-5-0.1-10-0.3-15-0.2c-8.1,0.1-15.8-1.2-22.9-5.3c-10.3-6-19.2-13.4-26.1-23.2c-2.5-3.5-5-7.1-7.4-10.7
	c-7.9-11.8-15.7-23.6-23.6-35.3c-7.2-10.6-14.1-21.3-20.4-32.4C373.8,1084.5,373,1083.4,372.3,1082.3z M939.2,397.3
	c-0.7,1-1.4,2-2.1,3c-0.1,0.1-0.1,0.3-0.2,0.4c0-0.2,0.1-0.3,0.1-0.5C938.2,399.6,938.8,398.6,939.2,397.3c0.3-0.8,0.6-1.5,1-2.2
	c1.1-0.7,2.2-1.4,3.2-2c0.5,0.3,0.7,0.3,0.7,0.4c0.1,0.3,0.4,0.7,0.3,1c-0.9,5-3.6,8.9-7.2,12.2c-1.2,1.1-2.1-0.2-3.1-0.8
	c-0.3,0.4-0.7,0.7-0.9,1.2c-0.1,0.4,0,0.9,0,1.3c0.4,0.2,0.7,0.5,1,0.6c8.3,1.8,16.5,3.5,24.8,5.3c7.4,1.6,14.9,2.6,22.6,2.5
	c6.8,0,13.4-0.8,20.1-1.6c5.3-0.7,10.6-1.7,15.8-2.5c2.1-0.3,3.4-1.3,4.4-3.1c2.7-5.3,5.1-10.6,6.2-16.4c2.4-12,2.5-24,0.5-36
	c-0.4-2.7-1.3-5.4-2-8c-0.5-1.8-1.7-3-3.6-3.3c-0.7-0.1-1.4-0.2-2.1-0.3c-11.7-2.2-22.7-5.8-32.5-12.8c-2.4-1.7-5.1-2.9-7.8-3.9
	c-12.5-4.4-25-8.9-37.5-13.4c-15-5.4-30.3-9.6-45.8-12.9c-11.6-2.5-23.2-3.2-35-1.1c-15,2.7-28.6,9-41.3,17.2
	c-1.4,0.9-2.7,2.1-4,3.2c-9.7,8.4-17.9,18.2-26.5,27.6c-0.9,1-1.8,2.1-2.4,3.4c-0.8,1.5-1.5,3.1-1.9,4.8c-0.8,3.6,0.5,5.3,4.2,5.2
	c1.1,0,2.4-0.5,3.3-1.2c1.5-1.1,2.9-2.5,4.3-3.7c6.3-5.9,12.7-11.7,19-17.6c9.9-9.3,21.6-15.4,34.8-18.6c9.8-2.4,19.7-3.5,29.8-2.6
	c0.8,0.1,1.7-0.1,2,1.1c-1.4,1.1-3.1,1.3-4.8,1.6c-9.8,2.2-19.6,4.1-29.2,7.1c-1.8,0.6-3.6,1.1-5.1,2.5c-2.1,2.1-4.3,4-6.2,6.2
	c-2.4,2.8-4.3,6-4.8,9.6c-1,6.7,2,11.7,7.2,15.6c0.7,0.6,1.8,0.7,2.9,1.1c0.9-1.4,1.5-2.6,2.3-3.7c1.5-2.1,2.7-4.4,4.5-6.3
	c6-6.5,13.1-11.7,21.1-15.6c3.1-1.5,6.4-2.5,9.9-3.1c1.6-0.3,3.1-0.4,4.5,0.5c0.8,0.5,1.5,1.1,1.2,2.1c-0.2,0.6-0.8,1.2-1.3,1.4
	c-1.8,0.6-3.7,0.8-5.5,1.5c-9.2,3.8-17.4,9.2-24.1,16.6c-3.1,3.4-5.4,7.1-6.3,11.7c-0.2,1.2-0.5,2.4-1,3.5c-1.2,3-0.7,5.8,0.8,8.5
	c2.5,4.4,6.4,7,11.6,8.2c0.7-1.6,1.3-3,1.8-4.4c1.7-4.4,3.8-8.5,7.1-11.9c3.8-4,8-7.7,12.8-10.4c2.8-1.6,5.8-3,8.9-4.1
	c1.7-0.6,3.7-0.6,5.6-0.6c0.8,0,1.6,0.6,2.3,1.1c0.7,0.4,0.6,1.8-0.1,2.3c-0.4,0.3-0.9,0.6-1.3,0.7c-6.6,1.4-11.8,5.6-17.1,9.4
	c-7,5.1-10.8,12.4-14.2,20c-0.2,0.5-0.3,1-0.3,1.5c0,3.8-0.3,7.6,1,11.3c1.3,3.8,3.4,7,7.3,9c0.7-0.8,1.2-1.5,1.7-2.2
	c1.9-2.9,3.8-5.8,5.7-8.6c5-7.4,10.9-13.8,18.2-19c2.5-1.8,5.2-3.3,8-4.8c1-0.6,2.3-0.8,3.4-0.9c1.1-0.1,2,0.5,2.4,1.5
	c0.4,1.1,0,2-0.9,2.7c-0.7,0.5-1.5,0.9-2.2,1.4c-15.2,9-24.7,22.8-32.7,37.9c-1.7,3.3-1.7,6.7,0.1,9.9c0.8,1.5,1.8,3,2.8,4.3
	c3.6,4.6,8.3,7.8,14,9.4c10.9,3.1,22,4.5,33.3,4.1c2.5-0.1,5.1-0.9,7.5-1.7c1.9-0.6,3.7-1.8,4.4-4.2c-0.6-0.9-1.1-1.8-1.7-2.5
	c-2.5-3-5.8-4.8-9.3-6.4c-4.9-2.2-9.8-4.3-14.6-6.5c-1.4-0.6-2-2-1.2-3.4c0.9-1.7,2-3.2,3-4.8c3.4-5,6.9-9.9,10.3-14.9
	c2.4-3.4,4.6-6.9,7-10.3c1.1-1.5,2.5-2.9,3.9-4.1c0.7-0.6,1.8-0.6,2.6-0.9c1.4,2.5-0.6,4.2-0.7,6.2
	C939.9,395.9,939.5,396.6,939.2,397.3z M721.6,426.4c-1.2,2.3-2,4.6-2.2,8.3c1-1.3,1.6-1.7,1.7-2.2
	C721.2,430.5,721.3,428.4,721.6,426.4c0.1-0.4,0.3-0.8,0.1-0.3C721.8,425.6,721.7,426,721.6,426.4z M787.9,387.9
	c-0.6-0.2-1.3-0.4-1.9-0.5c0,0.1,0,0.2-0.1,0.4C786.6,387.8,787.2,387.8,787.9,387.9c0.7,0.2,1.3,0.5,1.9,0.7
	c10,2.9,18,8.6,23.8,17.3c1.4,2.1,2.8,4.4,4.1,6.6c2.6,4.6,4.3,9.4,4.6,14.7c0,0.8,0.3,1.7,0.4,2.4c3.7,0,4.6-0.8,4.2-3.5
	c-0.1-0.8-0.4-1.7-0.7-2.5c-4.7-13.1-12.5-23.8-24.2-31.4C797.7,389.6,793.1,387.8,787.9,387.9z M734.9,396.2
	c1.1-0.8,2.2-1.6,3.3-2.4c2.7-1.9,5.3-3.8,8.1-5.5c1.9-1.2,3.9-2.1,5.4-3.9c1.3-1.6,3.4-2.3,5.4-2.8c3.4-0.8,6.8-1.1,10.2-0.1
	c3.2,0.9,6.3,0.7,9.6,0c11-2.5,21.2-0.3,30.4,6.2c10.8,7.6,18.1,17.8,23.1,29.8c1,2.4,1.4,5,2.1,7.4c0.3,1,0.6,1.9,0.9,3
	c2,0.2,3.8,0.9,5.7,0.1c0-0.7,0.1-1.2,0-1.7c-3.3-12.3-8.3-23.7-15.9-34c-9.1-12.5-21.6-19.6-36.5-22.5c-6.4-1.3-13-1.5-19.6-1.2
	c-7,0.3-13.2,2.7-18.3,7.4C742.7,381.6,738.5,388.7,734.9,396.2c-0.1,0.1-0.2,0.2-0.3,0.3c-0.1,0.1,0,0.2,0,0.4
	C734.7,396.7,734.8,396.4,734.9,396.2z M226.1,572.4c-2.4,0.2-4.8,0.3-7.2,0.7c-11.1,1.8-22.1,3.8-33.2,5.6
	c-1.5,0.3-3.1,0.3-4.6,0.3c-0.4,0-1.1-0.5-1.2-0.8c-0.1-0.6-0.1-1.6,0.3-1.8c1.2-0.9,2.5-1.8,4-2.2c5-1.5,9.9-3,15-4.1
	c10.1-2.1,20.3-4.1,30.5-5.8c16.8-2.8,33.7-5.8,50.6-8c14.4-1.8,28.9-2.8,43.3-3.7c10-0.6,20-0.9,30-1.4c6.6-0.3,13.1-0.6,19.6-1.1
	c15-1.3,29.9-2.7,44.9-4c2-0.2,4.1-0.2,5.9-1.4c-0.1-0.7-0.1-1.3-0.3-1.7c-4-10.4-6.1-21.2-7.5-32.2c-2.2-17.9,0.8-34.7,9.3-50.6
	c0.4-0.7,0.4-1.5,0.8-2.7c-2.5,0.1-4.6,0.1-6.6,0.3c-8.9,0.9-17.9,1.8-26.8,2.7c-14.6,1.5-29.2,3-43.8,4.5
	c-15.6,1.6-31.2,3.3-46.8,5c-7.5,0.8-15.1,1.7-22.6,2.6c-11.5,1.5-22.9,3-34.4,4.6c-8.5,1.2-17.1,2.3-25.6,3.8
	c-17.1,3.1-34.3,6.3-51.4,9.7c-15.2,3.1-30.5,6-45.5,9.8c-15.6,4-28.8,12.2-38.1,25.9c-0.4,0.6-0.8,1.2-1.2,1.7
	c-3.6,3.8-5.1,8.5-5.8,13.6c-0.7,4.8,0.1,9.3,1.1,13.8c2.2,9.8,6.9,18.3,13.2,26.1c9.4,11.7,20.7,21.2,33.6,28.9
	c22.2,13.3,45.8,23.4,70.4,31c16.8,5.2,33.9,9.5,50.9,13.9c32.9,8.6,66.2,15.5,99.8,21c14.5,2.3,29,4.3,43.6,6.2
	c3.4,0.4,6.7,1.4,10.3,0.9c1-1.5,2-2.9,2.9-4.4c10.7-16.5,21.2-33.2,32.8-49.1c1.7-2.4,3.4-4.7,4.2-7.7c0.4-1.6,1.6-3,2.6-4.4
	c1.7-2.4,3.6-4.6,5.4-7c0.6-0.8,1-1.7,1.8-2.9c-2-0.5-3.6-1.1-5.2-1.4c-18.6-3.6-37.3-7-55.9-10.6c-18.8-3.6-37.6-7.3-56.4-11.1
	c-13.7-2.8-27.4-5.7-41.2-7.7c-7.9-1.2-15.7-2.4-23.5-3.7c-6.3-1.1-12.5-2.4-18.8-3.7c-2-0.4-3.7-0.2-5.5,0.6
	c-8.9,4.1-17.9,8.2-26.8,12.3c-1.7,0.8-3.5,1.5-5.2,2.2c-0.6,0.2-1.4,0.2-2,0c-0.3-0.1-0.8-0.9-0.7-1.2c0.3-0.8,0.6-1.7,1.3-2.2
	c1.9-1.5,3.8-3,5.9-4.2C219.3,575.8,222.7,574.1,226.1,572.4l0.4-0.2L226.1,572.4z M1006.9,984.6c2-0.2,3.4-0.3,4.7-0.5
	c4.9-0.8,9.9-1.8,14.8-2.4c13-1.5,26.1-2.7,39.1-4.3c16.1-2,32.1-4.7,48-7.9c24-4.9,48-10,71.9-15.3c14.8-3.3,29.6-7,43.9-12.1
	c12.4-4.4,24.2-10,35.1-17.5c6.4-4.4,11.5-9.8,15.4-16.5c2.2-3.7,3.5-7.5,3.3-11.8c-0.2-3.3-0.4-6.6-1.1-9.7
	c-2.1-9.3-6.1-17.9-10.3-26.5c-5.1-10.6-13.1-19.5-18.9-29.7c-25.2-35.9-50.4-71.8-75.6-107.7c-19.1-27.3-38.5-54.4-59.4-80.4
	c-22.5-27.9-46.9-54-74.3-77.1c-6.2-5.2-12.5-10.3-19-15.2c-9-6.8-18.8-12.2-29.1-16.8c-9.8-4.3-20.3-5.4-30.4-8.2
	c-1.5-0.4-3.1-0.4-4.6-0.5c-5.5-0.2-11-0.5-16.5-0.5c-11.9-0.1-23.8-0.1-35.7,0c-12.4,0.1-24.9,1-37.1,3.2c-6.6,1.2-13.3,2.1-20,2
	c-1,0-2-0.2-2.9-0.2c-0.8-2.1-0.6-4-0.6-5.9c0-9.3,0-18.7,0-28c0-1.6,0.1-3.1-0.1-4.7c-0.1-0.9-0.7-1.8-1-2.7
	c-3.2,1.1-6.2,2.1-9,3.2c-3,1.2-6.5,0.2-9.7,2c0,1.6-0.1,3.1,0,4.7c0.3,4.1,0.6,8.3,1,12.4c0.5,5,1,9.9,1.6,14.9
	c0.3,2.6-0.3,4.8-2,6.7c-0.9,1-2,1.9-3.1,2.8c-7.2,5.8-15,10.4-23.5,14c-10.1,4.3-20.5,6.1-31.4,4.4c-12.4-1.9-23.5-6.6-32.5-15.7
	c-2.1-2.1-3.2-4.3-3-7.3c0.2-2.7-0.1-5.5-0.2-8.3c-0.3-6.7-0.7-13.4-1-20.2c-0.1-1,0-2.1-0.2-3.1c-0.2-1.1-0.7-2.2-1.1-3.2
	c-3.7-0.4-7.2-0.4-10.5-1.1c-3.3-0.6-6.5-1.8-9.7-2.8c-1.1,1.8-0.8,3.6-0.8,5.3c-0.1,6.6-0.2,13.1-0.2,19.7c0,1.2,0,2.4-0.1,3.6
	c-0.2,1.5-1,2.7-2.4,3c-1.8,0.5-3.7,1-5.6,0.9c-5.5-0.1-11-0.6-16.6-0.7c-14.7-0.3-29.3-0.6-44,0.6c-12.9,1-25.7,2.9-38.4,5.5
	c-1.5,0.3-2.9,0.9-4.2,1.3c-0.6,4.1-0.7,7.9-1.7,11.5c-1,3.6-2.9,7-4.6,10.8c0.3,0.8,0.7,1.9,1.1,3c4.1,9.9,3.2,24.7-9,34
	c-2.2,1.7-4.5,3.2-7,4.5c-3.9,1.9-7.8,3.6-11.8,5.2c-8.6,3.3-17.7,4.5-26.9,4.7c-3.3,0.1-6.5-0.8-9.6-1.8c-2.1-0.7-3.7-2.1-4.2-4.3
	c-1.1-5.1-1.8-10.2,0.3-15.3c1.3-3.2,3.1-6.2,5.5-8.7c0.6-0.6,1.4-1.2,0.7-2.5c-1.4,0-2.9-0.1-4.4-0.1c-6.7,0-13.5,0.2-20.2,0
	c-2.7-0.1-5,0.6-7.2,2.1c-9.2,6.4-18.3,13-26.8,20.3c-1.6,1.3-2.9,2.9-4.2,4.5c-3.1,3.9-6,8-8.9,12c-10.6,14.5-21.1,29-31.2,43.9
	c-14.3,21.2-27.8,42.9-40.7,64.9c-23,39-45.6,78.1-68.9,116.9c-13.3,22-26.2,44.3-38.1,67.1c-3.8,7.2-7.1,14.6-8.3,22.7
	c-0.6,4.3-0.7,8.5,0.3,12.6c2.4-6.2,6.6-10.5,11.6-14c2.8-2,5.8-3.7,8.9-5.3c5.2-2.7,10.8-4.6,16.5-6.2c1.1-0.3,2.1-0.9,3.5-1.4
	c-0.2-2.6-0.4-5-0.5-7.4c-0.7-9.3-1.4-18.6-2-27.9c-0.2-2.6,0.7-4.6,2.7-6.4c4.3-3.8,8.9-6.9,14.2-9.3c3.1-1.4,6.1-2.3,9.4-1.9
	c1.2,0.2,2.4,0.1,3.6,0.3c6.8,1.1,13.7,2.1,20.4,3.4c11.2,2.3,22.3,4.8,33.4,7.2c1.5,0.3,3,1,4.8,0c0.5-1,1.1-2.3,1.8-3.5
	c3.1-5.6,5.9-11.4,9.3-16.7c4.8-7.4,9.8-14.6,15.1-21.7c16.3-21.7,33.2-42.9,50.7-63.6c24.3-28.8,48-58,70.8-87.9
	c3.5-4.6,7.5-8.5,12.6-11.3c1.8-1,3.5-2.1,5.7-2.2c0.8,0,1.7-0.4,2.5-0.7c0.7-0.3,1.8,0.2,2.2-1.1c-2.4-2.6-6.4-3.8-8.1-7.9
	c3.5-0.1,5.6,2.4,8.3,3.1c0.9-2.3-1.3-4.4,0-6.6c3,1.7,3.1,1.7,4.9,4.5c8,12.4,14.6,25.5,18.7,39.7c1.1,3.6,2.1,7.3,3.3,10.9
	c4.9,15.3,9.2,30.8,13.1,46.3c6.2,24.6,12.2,49.3,18.7,73.8c5.9,22.4,12.4,44.6,18.7,66.8c0.6,2.1,1.4,4.2,2.1,6.1
	c0.9,0.3,1.4,0.5,1.9,0.5c5.7,0.6,11,2,16,5.1c5.8,3.5,11.3,7.3,16.3,11.8c10.5,9.2,19.3,19.7,26.4,31.7
	c9.7,16.2,15.5,33.5,14.5,52.6c-0.1,1.2,0.2,2.3,0.3,3.3c2,1.4,3.9,1,5.8,1c14,0,28,0,42,0c0.9,0,1.7-0.1,2.6,0
	c2.4,0.1,4.4-0.7,6-2.5c0.5-0.5,1-0.9,1.5-1.4c12.1-11.9,24.2-23.7,36.2-35.6c2.1-2.1,3.8-4.5,5.6-6.8c3-3.8,6-7.6,9.1-11.3
	c2.5-2.9,5.4-5.3,8.8-7.2c6.3-3.5,12.6-7.1,19.1-10.3c6.6-3.3,13.5-5.8,21-6.9c20-3,39.8-6.7,59.7-10.2c1.5-0.3,2.9-0.8,4.5-1.2
	c0.1-1.4,0.3-2.6,0.4-3.8c0.4-11.4,0.7-22.8,1.1-34.2c0.3-7.4,0.8-14.8,1.3-22.2c0.9-13.3,1.8-26.5,2.7-39.8
	c0.5-6.9,0.8-13.8,1.4-20.7c1.1-12.4,2.5-24.7,3.6-37.1c1.5-16.2,4.3-32.2,6.8-48.2c1.3-8.3,3.5-16.5,3.9-25c0-1,0.4-2,0.7-3
	c2.2-9.3,5.6-18.1,9.7-26.7c5.8-12,11.7-23.9,17.6-35.8c0.6-1.2,1.3-2.5,2.2-3.4c0.5-0.5,1.6-0.7,2.3-0.6c0.9,0.3,1.1,1.3,0.8,2.2
	c-0.9,2.4-2,4.8-2.9,7.2c-0.3,0.7-1.1,1.4-0.1,2.3c2.5-0.9,4.5-3.2,7.9-2.4c-0.4,0.8-0.6,1.5-1,1.8c-1.3,1.1-2.8,2-4.1,3.1
	c-2.9,2.7-5.8,5.4-8.6,8.2c-0.8,0.8-1,2-1.7,3.5c1.5,0,2.6,0.2,3.5,0c3.6-0.8,6.9,0.4,9.9,2.1c1.9,1.1,3.8,2.4,5.5,3.9
	c4.9,4.1,9.6,8.4,14.4,12.6c10.4,9.2,19.9,19.2,28.3,30.2c15.2,20.1,30.4,40.3,45.3,60.6c12.9,17.7,25.7,35.5,37.3,54.2
	c8.3,13.4,15.7,27.2,23.2,41c1.6,3,2.4,6.2,2.1,9.5c-1.1,9.9-5.5,17.7-14.7,22.3c-2,1-4.1,1.9-6.2,2.7c-10.3,4.2-21,6.7-31.8,9.1
	c-32.3,7.3-64.7,14.6-97,21.8c-9.8,2.2-19.6,4.2-29.4,6.3c-1.3,0.3-2.6,0.3-3.6,1.7c0.6,0.5,1,0.9,1.4,1.2
	c13.8,11,22.7,25.3,28.2,41.9c1.8,5.5,2.3,11.1,1,16.8C1008.3,977.5,1007.7,980.7,1006.9,984.6z M1146.8,666c1,1.7,1.5,2.8,2.1,3.7
	c3.2,4.3,6.5,8.5,9.5,12.9c21.2,30.3,42.3,60.6,63.4,90.9c2,2.9,4.2,4.6,7.7,5.5c24.4,5.9,48,14,70.9,24.2
	c8.2,3.7,16.1,7.9,23.5,13.1c14.8,10.4,24.5,24.6,30.4,41.5c0.3,1,0.5,2,0.9,3c0.5,1.6,0.4,3-0.2,4.5c-1.8,4.5-3.5,9-5.5,13.4
	c-4.4,9.8-10.6,18.6-17.7,26.7c-7.1,8-14.4,15.8-22,23.4c-17.6,17.6-35.8,34.5-56.2,48.8c-0.5,0.4-1.3,0.7-0.8,1.8
	c1.6,0,3.3-0.1,5,0c4,0.2,7.9,0.4,11.8,0.9c21.1,2.8,48.3,17.9,60.7,42.9c3.4,6.8,6.5,13.7,8.1,21.2c0.2,0.9,0.1,2.1,1.9,2.4
	c0.2-0.2,0.4-0.7,0.7-1.1c10.6-15.2,21.1-30.3,31.7-45.5c9.7-14,19.6-28,29.1-42.2c11.3-16.9,21.3-34.7,31.1-52.6
	c6.5-12,12.9-24,18.4-36.5c1-2.2,1.7-4.5,1.6-7c-0.5-10.7-0.9-21.4-5.4-31.4c-0.7-1.6-1.3-3.2-1.8-4.8c-0.5-1.5-1.1-3-1.2-4.5
	c-0.4-3.2-1.6-6-3.4-8.6c-2.4-3.6-4.8-7.2-7.5-10.6c-6.3-8-13.7-15-21.6-21.5c-7.9-6.5-16.5-11.9-25.1-17.4
	c-17.6-11.2-36-21.2-54.9-30c-24.6-11.5-49.6-21.8-75-31.3c-18.3-6.8-36.5-13.7-54.9-20.1c-16.1-5.6-32.6-10.3-49.1-14.5
	C1151.2,667,1149.4,666.6,1146.8,666z M264.2,958.3c-1.5-1.1-2.6-2.1-3.9-3c-9.5-6.6-19-13.2-28.4-19.9c-3.5-2.5-6.9-5.2-10.3-7.8
	c-3-2.3-4.8-5.4-5.9-8.9c-1.1-3.5-0.4-6.3,2.8-8.6c4-2.8,8-5.4,12.6-7.1c2.8-1.1,5.3-2.5,7.7-4.2c4.5-3,8.9-5.9,13.5-8.7
	c11.8-7.1,23.7-14.3,35.6-21.2c3.5-2.1,6.3-4.5,8.3-8.2c4.8-8.6,9.8-17.1,14.8-25.5c26.5-44.9,53-89.8,79.5-134.7
	c0.5-0.8,0.9-1.7,1.7-3.4c-1.4,0.5-2,0.7-2.5,0.9c-12,5.7-24.1,11.3-36,17.1c-4.5,2.2-8.9,4.6-13,7.4c-9.4,6.2-19,12-29,17
	c-10,5-19.7,10.6-29.8,15.6c-15.4,7.7-31,15.2-45.3,25c-1.1,0.8-2.3,1.5-3.5,2.2c-7.6,4.4-15.1,9-22.8,13.3
	c-17,9.6-33.6,19.8-49.7,30.8c-13.4,9.1-27.5,17.2-42,24.5c-1.2,0.6-2.6,1.2-3.5,2.1c-4.9,4.6-9.9,9.2-14.5,14
	c-4.7,4.9-8.5,10.5-11.2,16.7c-3.1,7.1-4.3,14.5-3.1,22.2c0.9,5.7,2.5,11.1,4.8,16.4c6.1,13.9,14.6,26.3,24.9,37.3
	c10.2,10.9,22.4,19.4,34.8,27.7c29.3,19.6,60.3,36.4,90.7,54.2c0.6,0.4,1.4,0.5,2.6,0.9c-0.2-1.4-0.3-2.2-0.6-3
	c-1.6-5.3-2.3-10.8-3.1-16.2c-1.7-11.1,0.1-21.7,4.1-32c4-10.2,9.5-19.5,16.2-28.2C261.7,961.6,262.8,960.1,264.2,958.3z
	 M994.3,1157.5c-0.5,0.5-0.8,1.1-1.4,1.4c-3.6,2.3-7.4,3.6-11.7,3.4c-6.4-0.2-12.8-0.5-19.1-0.5c-9.5,0.1-19,0.5-28.5,0.7
	c-8.6,0.2-17.3,0.3-25.9,0.2c-16.6-0.2-33.1-0.7-49.7-0.7c-18.5,0-36.9,0.7-55.4,0.4c-7.3-0.1-14.5-0.3-21.7-0.7
	c-10.7-0.5-21.4-1.3-32.1-1.5c-12.4-0.3-24.8-0.5-37.2,0.9c-7.9,0.9-15.9,0.8-23.8,1c-13.6,0.3-27.3,0.5-40.9,0.6
	c-5.4,0-10.7-0.3-16.1-0.3c-9.1,0.1-18.3,0.4-27.4,0.7c-14.1,0.5-28.3,1.5-42.4,1.7c-18.6,0.3-37.3,0.1-56,0.1
	c-1.4,0-2.8-0.1-4.1-0.2c-10.8-0.9-21.7-1.8-32.5-2.8c-3.3-0.3-6.5-0.9-9.7-1.5c-5.2-0.9-9.8-3.2-14-6.4
	c-5.5-4.2-10.6-8.9-15.1-14.1c-7.1-8.2-14.2-16.5-21-25c-8.7-10.8-15.5-22.8-20.1-36c-0.4-1.3-1.1-2.4-1.9-4.1
	c-2.7,1.5-5.6,2.1-7.7,4.5c0.8,1.4,1.4,2.6,2.2,3.8c7.3,11.1,14.6,22.2,21.9,33.3c7.4,11.2,14.9,22.4,22.4,33.6
	c2.2,3.3,4.5,6.6,6.8,9.8c5.5,7.9,12.5,14.2,20.5,19.5c4.1,2.7,8.4,5,13.3,5.2c13.1,0.8,26.2,1.2,39.3,1.8
	c13.3,0.5,26.6-0.5,39.9-0.8c3.1-0.1,6.2-0.1,9.3-0.3c18.8-0.9,37.6-1.9,56.4-2.8c10.2-0.5,20.4-0.8,30.5-1.3
	c6.9-0.3,13.8-0.6,20.7-1.2c13.8-1.1,27.6-0.6,41.4-0.3c5.7,0.1,11.4,0.5,17.1,0.4c8.5-0.1,16.9-0.6,25.4-0.7
	c25.6-0.3,51.1,0.2,76.6,1.6c12.7,0.7,25.6,0.6,38.3,0.5c16.2-0.2,32.4-0.8,48.7-1.2c14.3-0.3,28.7-0.5,43-1
	c7.1-0.2,14.1-0.9,21.2-1.4c2.4-0.2,4.8-0.5,7.2-0.8c4.6-0.7,9.1-2,13.1-4.5c5-3.1,10.1-5.9,15.2-8.9c18.7-10.7,35.5-23.9,50.4-39.5
	c6.9-7.3,12.9-15.3,19.1-23.2c3.8-4.7,6.8-9.5,6.7-15.8c0-0.2,0.1-0.3,0.1-0.5c0.8-6.7,1.8-13.3,2.3-20.1c0.4-5,0.1-10,0.1-15
	c0-3-1.3-5.2-3.7-7c-3.3-2.5-7-4.4-10.8-6c-4.8-2.1-9.7-3.8-14.2-6.2c-9.8-5.3-20.3-8.6-31.1-11c-1-0.2-2-0.6-3,0.5
	c0.9,4.8,1.8,9.7,2.7,14.5c0.1,0.5,0.4,0.9,0.7,1.4c2,1.3,4.3,1.1,6.5,1.3c2.9,0.2,5.9,0.2,8.8,0.3c2.2,0.1,4,0.8,5.1,3
	c-0.9,3.5-1.9,6.9-2.7,10.5c-0.8,3.6-2.5,7.1-2.4,11.2c1.1,0.2,1.9,0.5,2.7,0.5c3.8,0.2,7.6,0.3,11.4,0.5c1.4,0.1,2.8,0.1,4.1,0.4
	c0.5,0.1,0.8,0.8,1.3,1.3c-1.9,1.2-3.6,0.9-5.3,1c-4.1,0.1-8.3,0.3-12.4,0.4c-2.6,0-4,1.1-4.8,3.8c-1.7,6-3.9,11.8-5.4,17.8
	c-1,3.7-3.4,5.4-6.7,6.4c-1.3,0.4-2.7,0.5-4.1,0.5c-10.7,0.4-21.4,0.7-32.1,1c-4.3,0.1-8.6,0.1-12.9,0.3c-1.5,0-3.1-0.1-4.4,1.2
	c-0.1,0.4-0.4,0.9-0.4,1.4c-1,8.9-2,17.8-3,26.8c-0.1,0.9,0.2,1.9,0.3,2.8c0.8,0.3,1.3,0.5,1.8,0.5c13.6,1,27.3,1.1,40.9,0.8
	c1.2,0,2.3-0.4,3.6-0.7c0.6-1.8,1.1-3.4,1.7-5c1.3-4.1,2.5-8.3,3.7-12.4c0.3-1,0.6-2,1.1-2.9c0.5-1,1.7-1.4,2.7-1
	c0.9,0.4,1.2,1.3,0.9,2.2c-1.7,6-3.3,12-5.4,17.8c-1.1,3.2-3.7,5.3-7.4,5.6c-10.2,1-20.3,1.1-30.5,0.4c-3.6-0.3-7.2-0.2-10.9-0.1
	c-1.1,0-2.2,0.6-3.5,1c-0.5,3.1-0.8,6-1.4,8.8c-0.3,1.8-0.8,3.7-1.5,5.4c-0.1,0.4-1.2,0.8-1.8,0.7c-0.5-0.1-1.3-0.8-1.3-1.3
	c0-2.1,0.2-4.1,0.4-6.2c0.2-1.5,0.5-3.1,0.6-4.6c0-0.9-0.4-1.9-0.6-2.9c-3.6,0-6.8-0.1-10.1,0c-9.1,0.2-18.3,0.7-27.4,0.8
	c-8.3,0.1-16.6,0-24.9,0.1c-1.5,0-3.1-0.3-4.7,1c-0.2,1.8-0.5,3.9-0.8,5.9c-0.2,1.4-0.4,2.7-0.8,4c-0.1,0.4-0.8,0.8-1.2,0.8
	c-0.6-0.1-1.4-0.4-1.7-0.9c-0.4-0.5-0.4-1.3-0.4-2c0-1.9,0.2-3.8,0.2-5.7c0-1-0.4-1.9-0.7-2.9c-1.4-0.1-2.6-0.3-3.8-0.3
	c-14.2-0.3-28.3-0.6-42.5-1c-7.4-0.2-14.8-0.6-22.3-0.8c-1.5,0-3.1-0.5-4.7,0.9c-0.1,0.8-0.3,1.8-0.3,2.8c-0.1,1.9,0,3.8,0,5.7
	c0,0.9-0.4,1.7-1.5,1.8c-1,0.1-1.8-0.6-2-1.9c-0.1-1.4-0.1-2.8-0.2-4.1c-0.2-1.7,0.4-3.5-1.1-5.1c-0.7-0.1-1.5-0.3-2.3-0.4
	c-8.8-0.3-17.6-0.7-26.4-0.9c-5.9-0.2-11.7-0.2-17.6-0.4c-7.4-0.2-14.8-0.5-22.3-0.7c-1.3,0-2.6,0.3-3.8,0.4c-0.8,2.5-0.1,4.5,0,6.5
	c0.2,2.2,0.3,4.5,0.3,6.7c0,0.5-0.7,1.2-1.2,1.4c-0.9,0.3-1.7,0-2.1-0.9c-0.3-0.6-0.5-1.3-0.6-2c-0.3-2.1-0.5-4.1-0.7-6.2
	c-0.2-1.9-0.1-3.8-1.4-5.4c-4.9-1.2-33-1.9-63.6-1.5c-1.5,0-3.1-0.4-4.6,0.9c0,0.9-0.1,1.9,0,2.9c0.4,2.4,1,4.7,1.4,7.1
	c0.2,1.2,0.4,2.4,0.2,3.6c-0.1,0.6-1,1.5-1.6,1.6c-0.7,0.1-1.7-0.4-2.1-0.9c-0.5-0.6-0.6-1.6-0.8-2.4c-0.7-3.2-1.2-6.4-2-9.6
	c-0.2-1-0.8-1.8-1.2-2.9c-16.2-0.6-32.2,0.6-48.3,0.7c-0.6,0-1.3,0.3-2.1,0.5c0.7,4.5,3.9,7.9,4.4,12.2c-3.1,1.2-3.8,1.1-4.8-0.8
	c-1.3-2.6-2.5-5.3-3.7-8c-0.6-1.2-1.3-2.4-2-3.5c-1.3-0.1-2.3-0.2-3.3-0.2c-24.8,1-49.7,1.9-74.5,2.9c-0.3,0-0.6,0.3-1.1,0.5
	c0.3,4.8,3.6,8.8,3.9,13.7c-0.6,0.2-1.2,0.5-1.6,0.4c-0.7-0.3-1.7-0.8-2-1.4c-1.2-2.3-2.1-4.7-3.2-7.1c-0.9-2-1.9-4-2.8-5.9
	c-1.2-0.1-2-0.4-2.9-0.3c-11,0.1-22.1,0.3-33.1,0.4c-0.2,0-0.3,0.1-0.5,0.2c-0.1,0.1-0.2,0.3-0.4,0.5c-0.1,2.8,2.9,4.9,2.5,7.8
	c-1.6,0.9-2.6,0.5-3.4-0.6c-0.6-0.8-1-1.8-1.5-2.7c-1-1.8-1.5-3.9-3.7-5.5c-1.5,0-3.4,0-5.3,0c-3.8,0-7.6-0.1-11.4-0.2
	c-2.7,0-5.1-0.9-7.2-2.4c-0.3-0.2-0.4-0.8-0.8-1.5c1.6,0,2.9,0,4.3,0c5.2,0,10.3,0,15.5-0.1c0.9,0,1.9-0.5,2.8-0.7
	c-1.2-4.4-9-19.9-11.9-23.8c-2.7-0.5-5.4-0.1-8.1,0.1c-10,1-19.9,2-30,1.7c-1.4,0-2.8,0-4.1-0.4c-1.1-0.3-2.3-1-1.5-3
	c4.5-0.1,9.1-0.1,13.7-0.4c4.5-0.3,9-0.5,13.4-1.3c4.5-0.8,9.3,0.3,13.5-2c-1.3-4.4-10-20.9-13.1-25c-0.8-0.1-1.9-0.2-2.9-0.2
	c-5,0.2-10,0.4-15,0.6c-8.5,0.3-16.9,0.5-25.4,0.7c-0.9,0-2.1,0.2-2.5-1.1c0.6-1.4,1.9-1.3,3-1.4c5-0.4,10-0.8,15-1.2
	c7.6-0.6,15.1-1.3,22.7-1.9c0.8-0.1,1.5-0.4,2.7-0.7c-2.3-5.5-5.1-10.2-7.4-15.2s-4.3-10.1-7.4-14.8c-3.1,0-5.9,0-8.9,0
	c0.3-1.9,0.5-2.2,1.3-2.4c1.8-0.4,3.7-0.8,5.5-1.2c0-1.1-0.2-2,0.1-2.8c0.2-0.5,0.8-1.1,1.3-1.3c0.3-0.1,1.1,0.1,1.3,0.5
	c0.9,1,1.6,2.2,2.4,3.2c7.8-0.6,15.4-1.3,22.9-1.9c4.3-0.3,8.6-0.5,12.9-0.9c1.1-0.1,2.2-0.6,3.3-0.9c-0.9-4.8-4.5-8.2-5.1-12.7
	c2.7-0.9,3.3-0.9,4.1,0.5c1.3,2.2,2.4,4.6,3.7,6.8c1,1.8,1.6,3.8,3.6,5.3c0.6,0,1.5,0.1,2.3,0c7.6-0.7,15.1-1.4,22.7-2.2
	c0.5,0,0.9-0.5,1.3-0.7c0.5-3.8-0.1-10.6-1.2-15.4c-1.3-1.1-2.9-0.8-4.5-0.8c-13.8-0.4-27.6-0.7-41.4-1.1
	c-7.9-0.2-15.9-0.5-23.8-0.7c-1,0-1.9,0.4-3,0.6c-0.1,1.3-0.2,2.3-0.2,3.3c0,9.4-3.9,16.6-11.9,21.6c-0.7,0.5-1.4,1-2.2,1.3
	c-2.3,1-3.3,2.8-3.8,5.1c-1.3,5.6-3.7,10.7-7.4,15.2c-3,3.6-6.2,7-9.9,9.8c-1.4,1-2.7,2.1-3.8,3.1c0,0.9-0.2,1.4-0.1,1.9
	c0.4,1.3,0.7,2.7,1.2,3.9c4.5,11.5,10.4,22.2,18.4,31.7c7.8,9.3,15.8,18.3,23.8,27.4c4,4.5,8.6,8.5,13.4,12.2
	c3.5,2.7,7.3,4.5,11.7,5.1c3.8,0.5,7.5,1,11.3,1.5c11.8,1.3,23.7,2.7,35.6,2.6c5.2,0,10.4,0,15.5,0.1c5.3,0.1,10.7,0,16,0
	c10.7,0.1,21.4-0.1,32.1-0.2c3.5,0,6.9-0.2,10.4-0.3c9.8-0.4,19.7-1.1,29.5-1.3c10.5-0.3,21.1-0.3,31.6-0.2
	c21.2,0.2,42.5,0.5,63.7,0.8c1.9,0,3.8,0,5.7-0.1c7.6-0.5,15.1-1.3,22.7-1.6c13.8-0.4,27.6-0.3,41.4,0.4c17.4,0.9,34.9,0.9,52.3,0.5
	c13.1-0.3,26.2-0.5,39.4-0.4c18.1,0.2,36.3,0.7,54.4,1.1c8.5,0.2,16.9,0.1,25.4,0.2c10.4,0.1,20.7,0.3,31.1,0.6
	c3.8,0.1,7.6,0.4,11.4-0.3C991.4,1156.7,992.9,1156.2,994.3,1157.5z M993,523.6c2.1,1.1,3.1,1.6,4.2,2.1c5.4,2.6,11,5,16.3,7.9
	c10.6,5.8,20.4,13,29.5,20.9c9.7,8.3,19.1,16.9,28.7,25.4c0.9,0.8,1.9,1.5,2.9,2.3c5.8-2,11.5-4,17.2-6
	c26.7-9.3,53.5-18.5,80.2-27.9c21.3-7.5,42.5-15.5,62.7-25.7c12.5-6.3,24.9-12.7,36.9-19.9c8.1-4.9,15.9-10.4,23.2-16.5
	c5.4-4.6,10.4-9.6,14.5-15.5c2.2-3.1,4.1-6.4,5.8-9.8c4-7.8,3.6-15.6-0.9-23.2c-3.3-5.5-7.4-10.4-12.3-14.6
	c-7.3-6.4-15.5-11.6-24.2-15.8c-10.5-5-21.2-9.2-32.4-12.3c-17.3-4.7-34.7-9.2-52-13.8c-34.4-9.1-68.8-17.8-103.9-23.8
	c-17.7-3-35.3-6.4-53-9.6c-1.1-0.2-2.3,0-3.7,0c0.9,4.3,1.8,8.3,2.4,12.3c0.5,3.9,0.8,7.9,0.9,11.9c0.1,4.1,0.2,8.3-0.1,12.4
	c-0.3,3.9-1.1,7.9-1.7,11.8c-0.7,4-2.9,7.6-3.6,11.9c4.1,0.9,7.8,0,11-0.1c2,0.9,3.5,1.9,5.1,2.2c10.9,2,21.5,5.1,32.1,8.1
	c22.1,6.2,44.1,12.6,66.6,17.5c3.7,0.8,7.3,2.1,10.8,3.6c7.8,3.2,15.6,6.4,23.6,9.4c6,2.2,10.8,5.4,12.9,11.7c0,0.1,0.3,0.2,0.6,0.5
	c0.6-0.1,1.5-0.1,2.3-0.3c3.5-1,7-2,10.4-3.1c5.1-1.5,10.3-3,15.4-4.5c0.9-0.2,2-0.9,3,0.6c-0.8,0.6-1.5,1.3-2.3,1.8
	c-3.6,2.1-7.2,4.1-10.8,6.1c-4.2,2.4-8.6,4.4-13.2,5.9c-19.1,6-37.9,12.8-57.4,17.6c-8.9,2.2-17.7,4.7-26.6,6.8
	c-38.6,9.3-77,19.3-115.2,30C997.2,522.3,995.8,522.7,993,523.6z M642.2,897.4c-0.6-2.2-1-3.9-1.4-5.5c-6.3-22.1-13-44-18.9-66.2
	c-6.9-25.8-13.2-51.8-19.8-77.8c-2.9-11.5-6-23-9.1-34.5c-0.3-1.3-0.4-2.8-2.2-3.6c-1.3,0.6-2.9,1.2-4.4,2.1
	c-32.2,17.5-64.3,35-96.5,52.4c-2.2,1.2-4,2.6-5.6,4.6c-2.9,3.6-6,7.2-8.9,10.7c-17.5,21.2-34.7,42.6-50.6,65
	c-5.4,7.6-10.5,15.4-14.4,23.9c-0.6,1.3-1.8,2.6-1.2,4.3c4.4,2.3,4.4,2.4,5.9,7.1c0.8,2.4,0.6,4.8,0.4,7.2
	c-0.3,3.4-0.8,6.8-0.2,10.3c3.2,2.2,6.8,2.7,10.3,3.3c8.4,1.4,16.9,1,25.3,0.7c10.7-0.3,21.4-1,32.1-1.4c16-0.6,32.1-1,48.2-1.4
	c4.3-0.1,8.6-0.1,12.9-0.3c19.8-0.9,39.7-2,59.5-1.8c9.7,0.1,19.3,0.5,29,0.8C635.5,897.4,638.5,897.4,642.2,897.4z M956.3,908.5
	c1.8,0.9,3.3,0.6,4.8,0.3c13.9-2.8,27.8-5.5,41.6-8.5c28.8-6.4,57.6-12.9,86.3-19.5c11.4-2.6,22.9-5.3,34.2-8.1
	c6.7-1.7,13.2-4,19.5-6.9c7.7-3.5,11.3-12.6,10.3-19.8c-0.7-5.2-2.5-10-5.4-14.4c-4.8-7.4-9.6-14.8-14.5-22.1
	c-10.9-16.2-22-32.2-32.9-48.4c-1.8-2.6-4-4-7-4.6c-14.2-2.8-28.4-5.8-42.6-8.7c-20.1-4.1-40.2-8.1-60.4-12.2
	c-5.2-1.1-10.5-2.1-15.7-3.1c-1.8-0.3-3.7-0.9-5.7,0.3c-0.4,2.7-1,5.4-1.3,8.1c-1.6,15.6-3.1,31.2-4.6,46.9
	c-0.5,5.3-0.8,10.7-1.1,16c-0.9,12.2-1.8,24.4-2.6,36.7c-0.6,8.4-0.9,16.9-1.4,25.3c-0.4,6.4-0.8,12.7-1.2,19.1
	c-0.3,6.7-0.6,13.4-0.8,20.2C955.8,906.2,956.1,907.4,956.3,908.5z M798.6,364.9c2.2,1,3.6,1.6,4.9,2.3c7.5,3.6,14.7,7.8,20.3,14
	c5.8,6.4,10.6,13.6,14.6,21.3c4.5,8.7,7.3,17.9,9.5,27.3c0.8,3.4,1.8,6.6,3.7,9.6c1.2,2,2.1,4.4,2.7,6.7c2.3,7.7,2.7,15.7,1.4,23.6
	c-1,5.8-1.5,11.6-0.9,17.5c0.3,2.9,0.2,5.9,0.2,8.8c0,7.4-0.1,14.9-0.1,22.3c0,1.9-0.4,3.8,0.8,5.8c1.1-0.2,2.2-0.3,3.3-0.6
	c2.5-0.7,5-1.5,7.5-2.1c13.6-3.5,27.6-4.4,41.6-4.8c10.9-0.3,21.8-0.1,32.6-0.3c10.1-0.1,20,1,29.9,2.6c4.7,0.7,9.2,0.6,13.8-0.8
	c33.9-10.1,68.1-19.4,102.4-27.8c26.1-6.4,52.3-13,78.1-20.5c6-1.7,11.7-4.2,17.1-7.3c0.7-0.4,1.2-1,1.7-1.5
	c-0.7-2.1-2.3-2.9-3.8-3.7c-9.4-5.6-19.4-9.8-30.1-12.2c-6.9-1.5-13.9-2.9-20.7-4.7c-17.7-4.7-35.3-9.6-52.9-14.4
	c-13.3-3.6-26.5-7.7-40.1-10.2c-2.3-0.4-4.4-0.3-6.5,0.5c-6.3,2.5-12.8,4-19.3,5.7c-0.8,0.2-1.7,0.5-2.5,0.4
	c-5.7-0.5-11.4,0.7-17,1.3c-10.6,1.1-21,0.3-31.4-2.2c-9.1-2.1-18.1-4.6-27.1-6.8c-1.1-0.3-2.3-0.4-3.7-0.6
	c-2.1,2.9-4.2,5.8-6.5,8.9c1.5,0.7,2.7,1.3,3.9,1.9c3.8,1.7,7.6,3.4,11.2,5.3c3.7,2,6.7,4.8,8.9,8.5c2.3,3.9,1.7,7.6-1.4,10.9
	c-2.2,2.3-4.8,3.9-7.8,4.9c-5,1.6-10.1,2.4-15.3,1.9c-5.8-0.6-11.7-1.1-17.5-2.1c-4.6-0.8-9.1-2.1-13.5-3.6
	c-6.9-2.4-12.3-7-16.3-13.1c-3.5-5.3-5.2-10.9-3-17.2c0.3-0.8,0.2-1.6,0.4-2.5c-7.6-4-11-10.4-11.6-18.6c-0.1-0.8-0.4-1.6-0.6-2.3
	c-2.9-1.4-5.6-2.5-8.1-4.1c-6.7-4.2-10.9-10-10.3-18.4c0.1-1.2,0-2.4,0-3.4c-1.7-1.2-3.2-2.1-4.5-3.1c-7.9-5.9-13.1-16.6-6.9-27.4
	c0.3-0.6,1.2-1.3,0.1-2.4C819.2,346.3,809.7,355.8,798.6,364.9z M529.7,971.5c-0.2,1.4,0,2.4-0.4,3c-1,1.6-2.1,3.1-3.3,4.6
	c-3.2,4.3-5.9,9-7.5,14.1c-1.3,3.9-2.6,7.9-4.1,11.7c-0.9,2.2-1.8,4.5-2.5,6.8c-1.2,3.9-1.5,7.7-0.3,11.7c0.8,2.6,1.3,5.4,1.8,8.1
	c1.5,8,3,15.9,5.2,23.8c2.7,9.8,6.1,19.4,11.2,28.3c1.5,2.7,3.4,5.2,5.2,7.7c2.3,3.1,5.4,4.1,9.1,3.4c2.8-0.5,4-1.5,4-4.4
	c0-1.9-0.3-3.8-0.8-5.6c-1.1-4-2.4-7.9-3.5-11.9c-0.6-2.3-0.9-4.8-3.4-6.1c-0.5-0.3-0.8-1.1-1.1-1.7c-2.1-4.5-4.3-9-6.2-13.7
	c-2.7-6.5-5.1-13.3-5.8-20.4c-0.8-7.8,0.2-15.5,1.1-23.2c0-0.3,0.1-0.7,0.3-1c2.1-3,3.1-6.5,4.3-9.9c1.2-3.6,6.1-6,9.8-4
	c1.8,1,3.5,2.1,5.2,3.3c1.1,0.8,2,2.1,3.1,2.6c1.7,0.8,2.2,2.1,2.5,3.6c1,4.7,1.9,9.5,2.4,14.3c1.1,11.9,2.5,23.7,3.7,35.5
	c0.9,9.1,1.5,18.2,2.4,27.3c0.6,5.7,1.6,11.3,3.2,16.8c0.4,1.5,1,2.9,1.6,4.3c0.5,1,1.7,1.4,2.6,0.8c1.1-0.7,2.2-1.6,3.2-2.6
	c0.7-0.7,1.2-1.7,1.9-2.4c2.3-2.4,3.9-5.3,4.9-8.4c1.5-5,3.1-9.9,2.8-15.2c-0.1-0.9,0-1.7,0.2-2.6c1.4-6.7,0.8-13.4,0.5-20.1
	c-0.3-6.6-0.7-13.1-1-19.7c-0.2-7.1-0.3-14.2-0.5-21.2c-0.1-5-0.2-10-0.2-15c0.1-4.4,1.5-8.4,4.3-12c2.4-3.2,5.5-4.6,9.5-3.7
	c3.5,0.8,7,1.7,10.6,2.5c2.7,0.6,4.7,2,6,4.5c2.5,4.7,5.3,9.3,7.6,14.1c8.2,16.8,12.8,34.5,14.3,53.2c0.5,6.5,1.2,13.1,2.1,19.6
	c0.4,2.9,1.4,5.7,2.3,8.5c0.7,2,2.2,3.5,4.2,4.3c4.7,2.1,10.8,0.2,12.4-6.4c0.5-2.2,0.8-4.4,0.8-6.7c-0.1-8.8-0.3-17.6-0.6-26.4
	c-0.4-9.5-2.2-18.8-4.9-28c-0.8-2.8-1.7-5.6-3.6-7.9c-1-1.2-1.9-2.6-1.5-4.3c0.5-1.9-0.2-3.4-0.8-5c-2.8-6.7-5.6-13.4-8.5-20
	c-1.4-3.2-2.8-6.3-4.2-9.5c-1.6-3.7-2.7-7.5-3-11.5c-0.3-3.9,0.4-7.7,3.7-10.3c2.8-2.2,5.9-3.1,9.7-2.4c6.7,1.3,12.9,3.9,18.7,7.3
	c7.3,4.3,14.5,8.8,21.1,14.1c1.3,1.1,2.8,2,4.3,2.8c3.7,2,6.1,5.1,7.6,8.9c1.6,4.1,2.2,8.4,1.7,12.7c-0.4,3.6-0.8,7.2-1.5,10.8
	c-2.7,13.7-5.6,27.4-10.5,40.6c-1,2.7-1.9,5.6-2.4,8.4c-0.5,2.7-0.7,5.5-0.9,8.2c-0.1,1.6,0.4,3.1,1.8,4.1c2.1,1.6,4.1,1.5,6.5-0.7
	c6.4-6.1,12.3-12.5,16.3-20.5c3.8-7.6,6.9-15.4,9.5-23.5c2.1-6.8,3.2-13.8,3.8-20.8c0.8-9-0.5-17.9-3.4-26.5
	c-5.8-17.7-15.6-33-28.6-46.3c-5.3-5.4-11-10.5-17.4-14.7c-5.3-3.5-11.1-5.6-17.4-6.2c-3.6-0.4-7.2-0.8-10.7-1.4
	c-3-0.5-6.2-0.7-9.3-0.6c-10.2,0.1-20.4,0.4-30.6,0.7c-6,0.1-12.1,0.1-18.1,0.4c-12.4,0.5-24.8,1.2-37.3,1.7
	c-7.1,0.3-14.1,0.7-21.2,0.7c-4,0-6.9,1.5-9.6,4.2c-8.3,8.6-14.6,18.3-18.4,29.7c-2.3,6.9-3.6,14-4.1,21.3
	c-0.5,7.6,0.2,15.2,1.9,22.6c0.5,2.2,1.1,2.8,3.1,2.8c5.9,0.1,11.7,0,17.8,0C518.4,981.3,522.7,975.6,529.7,971.5z M1289,1047.2
	c0.7,1.2,1.3,1.9,1.4,2.7c0.4,3.1,1,6.2,1,9.2c0.1,11.9-1.3,23.8-3.1,35.6c-3,20.1-6.5,40.2-8.5,60.5c-0.6,6-1,12-1.5,18.1
	c-0.2,3.1,0.7,5.7,3.2,7.8c2.1-0.7,2.9-2.5,3.9-4.1c4.9-7.2,8.9-14.8,12.2-22.8c5.6-13.8,10.6-27.7,14.3-42.1
	c3.1-12,6-24.1,9.1-36.2c0.4-1.5,0.7-3.1,1.5-4.4c2.7-4.4,5.6-8.7,8.5-13c0.6-0.9,1.2-1.7,1.8-2.5c1.5-2.1,1.9-4.2,1.1-6.8
	c-2.1-7.5-5.3-14.6-8.7-21.6c-7.4-15-19-25.7-33.6-33.4c-10.9-5.7-22.5-8.6-34.8-8.6c-6.4,0-12.7,1-19,2.3c-2.6,0.5-4.9,1.4-7.2,2.7
	c-10.6,6.5-21.3,12.9-31.9,19.3c-5.6,3.4-11.3,6.7-16.8,10.2c-21.9,14-42,30.3-60.8,48.2c-4.1,3.9-8,8.1-11.9,12.3
	c-3.4,3.6-5.5,7.9-7.1,12.5c-3,9-2.8,18-0.6,27.1c2.8,11.6,9,21.6,15.9,31.2c2.7,3.7,6.7,5.5,11,6.4c4.3,0.9,8.8-1.8,9.5-5.9
	c0.9-5.2,1.6-10.5-0.7-15.8c-2.6-5.9-3.9-12.2-5.1-18.4c-0.6-3-0.6-6.2-0.4-9.3c0.2-5,1.8-9.8,3.3-14.6c2.4-7.9,6.9-14.3,13.3-19.4
	c5.1-4.1,10.5-7.8,15.8-11.7c2.4-1.7,4.7-3.5,7.1-5.2c2.9-2.1,5.8-4.4,8.8-6.4c5.9-3.9,12.5-5.7,19.5-6.1c1.8-0.1,3.5,0.1,4.3,2.1
	c2.5,6.4,5.7,12.6,6.6,19.5c1,6.8,2.1,13.6,3.1,20.5c2,15,3.9,30.1,6,45.2c1.2,8.5,1.9,17.2,4.5,25.4c0.3,1,0.3,2,0.4,3.1
	c0.2,1.5,0.2,3.1,0.6,4.6c1.3,5.4,2.6,10.7,4.2,16c2.3,7.6,5.3,15,9.4,21.8c0.7,1.1,1.6,2.1,2.3,3c4.1-1.3,5.3-4.1,5.7-7.6
	c0.1-1,0.1-2.1,0.2-3.1c0.3-3.3,0.6-6.5,0.8-9.8c0.6-7.4,0.6-14.8-0.1-22.2c-0.6-6.4-1.2-12.7-1.5-19.1c-0.5-10.3-0.7-20.7-1.2-31.1
	c-0.3-6.2-0.6-12.4-1.3-18.6c-1.4-12.3-3.1-24.7-4.5-37c-0.7-6.3-0.9-12.7-1.3-19.1c0-0.6,0-1.4,1.1-1.4c0.3,0.4,0.7,0.8,0.8,1.3
	c1.9,5.9,4,11.8,5.6,17.8c5.4,20.5,7.4,41.4,8.4,62.5c0.5,10.7,0.8,21.4,1.2,32.1c0.1,1.7,0.3,3.4,0.4,5.2c0.4,5.7,0.9,11.4,1.1,17
	c0.1,3.4-0.3,6.9-0.6,10.3c-0.3,3.3,0.5,6.5,1.4,9.7c0.8,2.7,2.5,4.5,5.6,4.3c2.1-1.6,3-3.9,4-6.1c2.7-5.9,3.6-12.2,3.9-18.6
	c0.6-15,2.4-29.9,4.5-44.8c3-20.7,6.1-41.3,9.2-62c0.8-5.1,2-10.2,3.1-15.2C1287.5,1049.7,1288.2,1048.7,1289,1047.2z M587.8,546.2
	c3.6-4.7,4.3-9.6,3.6-14.7c-0.2-1.2-0.5-2.5-1.2-3.4c-3.6-4.6-7.3-9.3-13.4-10.7c-1.3-0.3-2.6-0.9-4-1.1c-6.1-0.9-12.3-1.9-18.4-2.6
	c-3.6-0.4-7.3-0.3-10.7,1.3c-0.5,0.2-1,0.4-1.5,0.3c-0.5,0-1.1-0.2-1.3-0.6c-0.3-0.5-0.5-1.3-0.3-1.9c0.6-1.8,2.1-2.6,3.8-3.3
	c2.7-1.1,5.6-1.7,8.6-1.8c8-0.3,15.9,0.6,23.6,2.3c3.7,0.8,7.3,2.2,10.5,4.2c1,0.6,2.1,1,3.1,1.5c0.4-0.5,0.8-0.7,0.9-1
	c3.7-7.7,2-15.1-4.7-20.3c-0.8-0.6-1.7-1.3-2.5-1.8c-6.3-3.7-13-6.4-20-8.4c-4.1-1.2-8.2-1.1-12.3-0.8c-2.6,0.2-5.2,0.2-7.3-1.7
	c0.1-0.6,0.1-1.2,0.4-1.6c1.6-2.3,3.1-4.5,4.8-6.8c1.7-2.3,3.9-3.4,6.7-3.1c1.5,0.1,3.1,0.3,4.6,0.4c0.8,0,1.6,0,2.6-0.1
	c0.1-1.5,0.3-2.7,0.4-3.8c0.4-7,2.4-13.2,7.9-18c0.6-0.6,1.3-1.2,0.8-2.4c-0.6-0.3-1.4-0.8-2.2-1c-4.9-1.5-9.9-3.2-14.9-4.5
	c-5.5-1.5-10.9-0.2-16.3,1.2c-1.4,0.4-2.8,1.4-4,2.3c-2.8,2.1-5.2,4.7-6.6,7.9c-2.7,6-7,11.1-10.1,16.9c-0.2,0.5-1,0.7-1.6,1.1
	c-1.4-2.9,1-5.3,0-8.1c-0.4-0.2-1-0.7-1.6-0.9c-1-0.3-2-0.5-3-0.6c-2.8-0.1-5.5-0.1-8.3-0.2c-1.7-0.1-3.5,0-4.6-2
	c0-4.8,0.9-9.5,2.8-14c1.9-4.5,5.1-6.3,9.9-5.4c2.5,0.5,5,1.4,7.4,2.2c1.9,0.6,3.8,1.4,5.7,2.1c1.6-1.5,2.9-2.9,4.3-4.1
	c1.6-1.3,3.2-2.6,5.1-3.6c1.7-0.9,3.6-1.2,5.3-1.9c1.9-0.7,4.1-0.2,5.7-1.4c-0.1-0.7-0.1-1.1-0.2-1.4c-4.7-9.8-11.4-18-19.7-25.1
	c-1.3-1.1-2.8-2.1-4.3-2.9c-10.7-5.9-24-4.7-32.6,3.8c-3.6,3.6-6.5,7.6-8.7,12.2c-4.7,10-7.8,20.5-9.6,31.7
	c-1.1,0.4-2.3,1.1-3.6,1.3c-3.9,0.8-7.8,1.6-11.7,2.1c-4.3,0.6-8.6,0.9-12.9,1.2c-3,0.2-5.4,1.2-7.1,3.6c-1.6,2.2-3.3,4.4-4.5,6.9
	c-5.5,11.8-7.9,24.3-7.1,37.2c0.4,7.2,1.4,14.4,2.9,21.5c1.4,6.4,2.9,12.8,4.3,19.2c2.4,0.8,4.5,1.6,6.7,2.1c4.9,1.1,9.8,1.9,14,5
	c10.2,4.3,20.7,7.6,31.6,9.7c11.7,2.3,23.6,2.9,35.6,3c9,0.1,18-0.1,26.9-0.1c1.1,0,2.5-0.4,3.2,1.3c-1.4,3-3.8,5.5-6.2,7.9
	c-1.9,1.8-3.8,3.5-5.7,5.3c-1.9,1.8-3.3,4-4.2,6.5c-1.1,3-1.2,6.1-0.3,9.2c0.7,2.3,1.7,3.1,4.1,3.1c2.1,0.1,4.2,0,6.2-0.2
	c11.8-1.2,23-4.8,33.4-10.5c2.4-1.3,4.5-3.2,6.6-5c7.2-6.2,8.7-21-0.3-29.3c-5.8-5.3-12.5-8.5-20-10.5c-6.2-1.7-12.5-2.3-19-2.5
	c-1.1,0-2.2-0.4-3.3-0.6c0.5-2.4,0.6-3,1.5-3.3c2-0.5,4-1.3,6-1.3c13.6-0.3,26.4,2.7,37.6,10.8C586,545.2,586.8,545.6,587.8,546.2z
	 M407,1043.8c-1.1,0.1-1.4,0-1.7,0.1c-1.7,0.5-3.3,1-4.9,1.5c-12.7,4.1-25.8,6.4-39.1,7.1c-1.9,0.1-3.8,0-5.6-0.5
	c-2.8-0.8-5.5-1.9-8.3-3c-0.5-0.2-0.7-0.9-1.4-1.7c1.5-0.2,2.5-0.4,3.5-0.6c11.6-1.5,23.3-2.8,34.8-5.1c8.6-1.8,17.1-4.2,25.1-8
	c3.2-1.5,6.4-3.4,9.3-5.6c4.6-3.5,6.1-8.6,6-14.2c0-0.9-0.8-1.7-1.1-2.4c-0.7,0.1-1.1,0.1-1.4,0.2c-0.6,0.3-1.2,0.6-1.8,0.9
	c-8.5,4.7-17.5,8.2-27,10.4c-7.1,1.7-14.2,3-21.5,2.1c-4.8-0.6-9.6-0.8-14.5-0.8c-2.7,0-5.5-0.4-8.2-0.8c-1-0.1-1.9-0.7-2.8-1.3
	c-0.3-0.2-0.6-0.9-0.5-1.4c0.1-0.4,0.6-0.8,1-1.1c0.2-0.2,0.7-0.2,1-0.2c7.1,0.6,14.1-0.3,21.2-0.6c6.4-0.3,12.8-0.8,19-2.2
	c13.6-3,26.6-7.2,37.3-16.8c6.5-5.9,9.3-13.2,8.7-21.7c-0.3-4.7-2.3-9-4.9-13c-0.4-0.7-1.1-1.1-2-2c-0.8,1.1-1.4,1.9-1.8,2.8
	c-2.1,4.5-5.2,8.2-9.2,11.1c-3.5,2.6-7,5-10.8,7.1c-9.5,5.1-19.4,8.9-29.8,11.8c-7.6,2.1-15.4,2.1-23.1,1.3
	c-2.5-0.3-5.1-0.5-7.5-2.7c1.2-0.6,2-1.2,3-1.4c2.5-0.5,5.1-0.8,7.7-1.2c4.3-0.6,8.6-1,12.8-1.8c13.1-2.7,25.4-7.7,37.1-14.3
	c2.8-1.6,5.4-3.7,8-5.7c3.6-2.9,5.9-6.7,7.3-11.1c2.1-6.6,1.5-13.3,0.1-19.9c-0.8-4.2-3-6.4-7.6-6.6c-0.4,1-0.9,2.1-1.4,3.1
	c-1,2.2-2,4.4-3.2,6.4c-1.2,1.9-2.9,3.4-4.3,5.2c-5.1,6.5-11.8,10.6-19.5,13.1c-13.5,4.3-27.5,6.7-41.7,7.2
	c-2.9,0.1-5.8,0.5-8.7,0.7c-1.5,0.1-3.1,0-4.6-0.3c-4.5-0.9-6.9-4.1-8.8-8.1c-2-4.3-1.6-7.9,1.3-11.5c1.7-2.2,4-3.1,6.5-3.9
	c11.4-3.5,22.8-6.9,34.1-10.5c5.8-1.8,11.5-3.8,17.1-6c2.4-0.9,4.6-2.3,6.8-3.7c1.1-0.7,2.2-1.7,2.1-3.6c-0.7-0.5-1.4-1.3-2.2-1.7
	c-5.8-2.9-11.9-4.7-18.4-4.4c-4.7,0.2-9.3,0.7-13.9,1c-12.6,0.8-25.1,1.6-37.5,4.1c-7.7,1.6-15.1,3.9-21.9,7.7
	c-3.3,1.8-6.3,4.2-9.3,6.6c-2.6,2.1-4.3,4.9-5.5,8.1c-2.4,6.3-4.8,12.6-7.2,18.8c-0.2,0.5-0.6,0.8-0.9,1.3c-1-0.1-2.1-0.2-3.1-0.2
	c-0.4,0.4-0.9,0.7-1.2,1.1c-8,11-14.4,22.7-18.7,35.6c-1.7,5.3-2.5,10.7-2.4,16.3c0.1,8.3,1.5,16.5,3.9,24.5
	c0.7,2.5,1.9,4.8,2.8,7.2c0.6,1.6,1.7,2.5,3.3,3c5.5,1.8,10.4,4.5,15.4,7.2c11.1,6,22.6,11,34.8,14.5c12.2,3.5,24.6,5.5,37.3,5.4
	c6,0,12.1-0.4,18.1-0.9c2.7-0.2,5.5-1,8-1.9c6.1-2.4,11.9-5.3,17.5-8.8c5.7-3.6,10.5-7.9,14.6-13
	C404.5,1049.6,406.1,1047.1,407,1043.8z M928.1,964.4c-0.3,1.2-0.3,2.1-0.6,2.8c-0.9,1.7-1.8,3.3-2.9,4.9c-2.8,4.3-5.7,8.6-8.6,13
	c-1.9,2.9-3.4,6-4.3,9.4c-3.5,13.7-6.9,27.5-8.2,41.6c-0.9,9.5-1.4,19-0.5,28.4c0.5,5.6,2.4,10.8,5.3,15.6c2.5,4.2,6.5,6.6,11.2,7.8
	c4.1,1.1,10.5-2.1,10.1-7.6c-0.3-4.5,0-9-0.4-13.4c-0.6-6.2-1.7-12.3-2.3-18.5c-0.8-7.4-0.5-14.8,0.8-22.1c1.7-9.3,5.8-17.7,11-25.5
	c0.7-1,1.5-1.9,2.5-2.6c2.7-2.1,5.5-4.1,8.3-6.2c1.3-1,2.7-1.3,4.4-0.9c4.7,1.1,9.4,2.4,13.5,5c7,4.4,13.8,9.1,20.6,13.7
	c0.7,0.5,1.3,1.1,1.9,1.8c2,2.1,3.9,4.4,6,6.4c2.9,2.9,4.5,6.5,5.4,10.4c1.9,8.1,3.2,16.2,4.3,24.5c0.6,5,1.4,9.9,2.3,14.8
	c0.3,1.8,1.2,3.6,2,5.3c0.4,0.9,2,1.1,2.7,0.4c0.9-0.8,1.8-1.7,2.3-2.7c1.3-3,2.8-6,3.6-9.1c3.6-14.2,3.1-28.3-1.5-42.4
	c-4-12.4-11-22.2-22.4-28.6c-5.7-3.2-11.4-6.5-17.1-9.8c-1.2-0.7-2.4-1.4-3.5-2.2c-0.4-0.4-0.8-1.4-0.6-1.8c0.4-0.6,1.2-1.4,1.9-1.4
	c1.7,0.1,3.5,0.3,5,1c5,2.2,10,4.7,15,7.1c1.2,0.6,2.4,1.1,4,1.9c0.7-3.9,1.2-7.5,2-10.9c1.4-5.9,0.7-11.6-1.4-17.3
	c-4.7-12.8-12-24.1-21.5-33.8c-2.2-2.2-4.7-4-7.3-5.8c-2.2-1.5-4.6-1.9-7.4-1.4c-5.6,1.2-11.2,1.9-16.8,3
	c-23.6,4.4-47.3,7.7-71.1,11.2c-2.9,0.4-5.9,0.7-8.5,1.9c-14.1,6.3-26.2,15.2-35.2,28.1c-3.3,4.7-6.6,9.3-8.2,14.9
	c-0.8,2.8-2.2,5.4-3.2,8.2c-1.5,4.1-3.1,8.1-4.2,12.2c-1.1,4.1-2,8.4-2.5,12.7c-1,8.8-1.2,17.5-0.2,26.4c1.1,9.6,2.5,19.2,4.4,28.7
	c0.7,3.4,2.6,5.9,5,8.3c1.4,1.4,3.1,1.4,4.8,0.7c1.7-0.7,3-1.6,3.2-3.6c0.1-1.5,0.5-3,0.9-4.5c0.8-3.5,1.4-7.1,0.7-10.7
	c-0.4-2.5-0.5-5.2-0.4-7.7c0.4-6.5,0.9-13.1,1.6-19.6c2-17.1,8.9-32.2,19-45.9c2.8-3.8,6-7.1,9.7-10c3.8-3,8.1-5.3,12.7-6.7
	c5.7-1.8,11.3-1.1,16.6,1.6c1.7,0.8,3.4,1.8,3.7,4.2c-4.5,5.5-7,12.2-9,19c-2.6,8.8-5,17.6-7.3,26.5c-2.4,9.4-3.7,19-3.4,28.7
	c0.1,5,0.4,10,1.2,15c1.1,7.7,2.7,15.3,4.2,22.9c0.4,1.8,1.1,3.7,1.9,5.3c1.4,2.8,3.7,3.6,6.5,2.1c2-1.1,3.7-2.6,5.5-3.9
	c3.1-2.3,3.6-5.3,2.7-8.8c-0.2-0.8-0.5-1.7-0.7-2.5c-2.2-7.4-2.5-14.9-2.3-22.6c0.1-2.8,0.3-5.5,0.5-8.3c0.4-8.5,1.8-16.8,3.7-25
	c1.8-7.5,4.6-14.8,6.4-22.3c2.8-11.3,9.6-20.5,17.9-28.6C924.5,965.5,925.6,964.4,928.1,964.4z M728.7,427.8
	c0.7,1.5,0.9,2.5,1.5,3.2c1.4,1.5,2.9,3,4.4,4.3c1.4,1.2,2.1,2.6,2.2,4.4c0.2,2.9,0.3,5.9,0.7,8.8c1.7,10.2,2.1,20.6,2.4,30.9
	c0.4,14.5,0.7,29,1.6,43.4c0.2,3.6,0.6,7.2,0.9,10.7c7,4,13.8,7.8,21.3,9.9c8.8,2.5,17.7,2.7,26.6,0.7c9.2-2.1,17.5-6.3,25.3-11.4
	c8.4-5.5,7.4-3.9,6.7-13.7c-0.7-11.4-1.9-22.7-2.5-34c-0.7-15.3-2.1-30.6-3.4-45.9c-0.2-2.1-0.8-3.6-2.9-4.4
	c-3.5-1.6-6.5-3.9-8.9-6.9c-0.4-0.5-1-0.8-1.5-1.2c-1.7,0.4-3.2,0.8-4.7,1.2c-5.3,1.1-10.5,1.6-15.9,1.1c-8.6-0.8-16.3-4.2-23.8-8.2
	c-5.3-2.8-10.8-5.5-16.2-8.1c-2.5-1.2-5.2-2-8-1.9c-2,0.1-4.4-0.5-5.7,1.6c-1.5,2.3,0.2,4.3,1.3,6.2c1.9,3,4.2,5.9,6.2,8.9
	c0.5,0.8,0.9,1.7,1.5,2.8C734.5,431.4,732.5,427.9,728.7,427.8z M970.2,725.6c39.3,6.5,78,14.1,116.7,21.6c0.6,0.1,1.3,0,2.3,0
	c-0.3-2.1-1.5-3.3-2.5-4.6c-11-14.8-21.9-29.7-33.1-44.4c-6.8-9-13.8-17.7-21.6-25.8c-8.4-8.7-17.5-16.6-26.7-24.5
	c-1-0.9-2.1-1.8-3.3-2.5c-4.4-2.7-8.7-2.2-12.1,1.7c-2.2,2.6-4.1,5.5-5.9,8.5c-3.7,5.9-6,12.1-6.9,19.2c-1.7,14.4-4.3,28.6-6.5,43
	C970.4,720.2,969.9,722.6,970.2,725.6z M1236.1,1212c-0.6-0.8-1-1.5-1.6-2.2c-3.2-3.7-5.8-7.8-7.7-12.2c-2.1-5.1-4.4-10.2-5.9-15.5
	c-2.1-7.3-3.7-14.7-5.3-22.1c-0.7-3.1-1.8-5.8-4-8.2c-3.8-4.2-8-8.1-12.4-11.7c-7-5.6-14.7-9.6-23.1-12.4c-4.2-1.4-5.2-1.2-8,2.3
	c-2,2.6-3.8,5.3-5.4,8.2c-6,11.1-10.6,22.9-13.6,35.1c-1.7,6.9-2.9,13.9-2.2,21c0.8,7.9,3.3,15.5,5.8,23c0.5,1.4,1.4,2.3,2.8,2.8
	c3.1,1,6.2,2,9.4,2.8c6.5,1.7,13.3,2.3,20,2.7c14.7,1.1,28.9-0.9,42.6-6.4C1231.1,1217.8,1233.7,1215.2,1236.1,1212z M487.8,570.1
	c-1.5-0.3-2.3-0.5-3.1-0.7c-9.4-1.7-18.5-4.1-27.4-7.5c-4.8-1.8-9.7-3.8-14.1-6.4c-4.3-2.5-8-4.4-13.4-3c-5.3,1.4-10.9,1.1-16.4,1.7
	c-17.7,2.1-35.4,3.6-53.1,4.6c-14.1,0.8-28.3,1.5-42.4,2.1c-14,0.6-27.9,1.9-41.8,3.5c-4.3,0.5-8.5,1.3-12.7,1.9
	c0.8,0.6,1.7,0.8,2.5,0.9c7.7,0.9,15.4,1.8,23.1,2.7c12.3,1.5,24.6,3.6,36.7,6c16.4,3.3,32.8,6.6,49.2,9.7c16.3,3.1,32.6,6,48.8,9.1
	c9.3,1.8,18.6,3.8,27.8,5.9c3.3,0.8,5.5,0.1,7.7-2.5c3.6-4.4,7.7-8.4,11.6-12.5c2.5-2.6,4.9-5.4,7.5-7.8
	C481.2,575.4,484.2,573.1,487.8,570.1z M414.4,906.8c-1.1,3.5-1.4,6.4-1.6,9.3c-0.2,3-1.6,6-0.4,9.2c2.3,1,4.5,2,6.8,2.8
	c3.4,1.2,5.3,3.6,6.4,6.9c1.8,5.3,3,10.6,3,16.2c0,1.7,0,3.4,0,5.3c6.1,3.1,8.6,8.8,10.8,14.7c1.1,2.9,1.7,6,1.7,9.1
	c0,1,0,2.1,0.1,3.1c0.1,1.2,0.8,1.9,2,2.1c0.7,0.1,1.4,0.2,2.1,0.2c7.9,0.4,15.8,0.9,23.8,1.3c4.3,0.2,8.6,0.4,12.9,0.6
	c2,0.1,4.1,0.4,6.4-0.3c-0.2-1.3-0.4-2.4-0.7-3.5c-1.3-4.3-2.3-8.7-2.5-13.2c-1-22.1,5.1-41.9,20.1-58.6c0.6-0.6,1.2-1.3,1.7-1.9
	c0.6-0.6,1.2-1.2,0.5-2.4c-1.6,0-3.3,0-5,0c-9.7,0.3-19.3,0.6-29,0.9c-3.3,0.1-6.6,0.2-9.8,0.3c-9.3,0.3-18.6,0.6-27.9,0.8
	c-5,0.1-10-0.6-14.9-1.7C418.8,907.3,416.8,907.1,414.4,906.8z M410.1,882c-3.5,3-5.5,6.5-8.2,7.6c-5.1-0.5-9.2-0.7-13.3-1.3
	c-4.1-0.6-8.2-1.4-12.2-2.2s-8.1-1.5-12.2-2.5c-4-0.9-8.2-0.9-11.9-2.8c0.3-1.7,1.4-1.7,2.4-1.6c5,0.7,9.9,1.4,14.8,2.2
	c10.4,1.8,20.7,3.6,31.2,5.5c2.3-2.4,5-4.2,6.7-7.4c-1.2-0.3-2-0.6-2.9-0.8c-20.6-4.5-40.9-9.9-61.7-13.3c-3.2-0.5-6.4-0.9-9.7-1.4
	c-2.8,1.8-5.6,3.5-8.3,5.3c-2,1.4-3.9,2.9-5.8,4.3c-2.2,1.6-3.1,3.6-2.3,6.3c0.4,1.3,0.7,2.7,0.8,4.1c0.7,6.9,1.4,13.7,2.1,20.6
	c0.2,2,0.1,4.1,1.5,5.9c0.7,0,1.4,0.2,2.1,0.1c7.4-0.7,14.8-1.6,22.2-2.1c8.9-0.7,17.9-0.9,26.9-1.6c6.3-0.5,12,0.7,16.9,4.8
	c1,0.9,2.4,1.4,3.5,2.2c4.7,3.4,5.4,7.9,1.7,12.5c-1.4,1.7-3.2,3.2-5,4.4c-2.2,1.4-4.5,2.5-6.9,3.5c-6.8,2.9-13.9,5.1-21.1,7
	c-9.5,2.6-18.9,5.4-28.4,7.9c-2.3,0.6-3.6,1.9-4.5,3.8c-0.5,0.9-0.9,1.9-1.1,2.9c-0.6,2.2,0.2,4.2,2.1,5.3c1.8,1.1,3.9,1.4,6,1.1
	c9.9-1.3,19.9-2.4,29.7-4.1c6.4-1.1,12.8-2.9,19-4.9c6.3-2,11.7-5.8,16.2-10.8c2.1-2.4,3.5-5.1,3.6-8.4c0.1-2.1,0.2-4.1,0.4-6.2
	c1.9-14,3.8-28,5.7-42.1C410.2,885.1,410.1,883.9,410.1,882z M607.1,487.1c2.3,1,3.2,2.8,4.3,4.3c5.8,7.3,13.7,10.9,22.6,12.5
	c2.4,0.4,4.8,0.6,7.2,0.5c6.1-0.3,11.3-2.8,15.8-6.9c10.6-9.5,16.7-21.4,19.3-35.2c0.6-3.1,0.2-6.2-0.8-9.2c-1-2.7-2.5-4.9-5.3-6.1
	c-3-1.3-6-2.7-9.1-3.7c-14-4.2-28.4-5.5-43-4.4c-5.9,0.5-11.5,2.4-16.1,6.4c-2.1,1.8-4.4,2.7-7.1,2.3c-3.2-0.5-6.3,0-9.2,0.9
	c-7.6,2.2-13.4,6.5-14.9,14.8c-0.5,3-0.4,6.2-0.4,9.3c0,0.8,0.3,1.9,0.8,2.4c2.3,2,4.7,3.9,8,5.6c-0.2-1.5-0.4-2.3-0.5-3.1
	c-0.2-2.4-0.7-4.8-0.6-7.2c0.1-7.8,4.6-12.7,11.1-16.1c1-0.5,2.3-0.7,3.5-0.9c2-0.4,3.8,0.4,5,2c0.4,0.5,0.8,1.5,0.6,1.8
	c-1.3,1.8-0.1,3.3,0.4,4.9c1.1,3.8,2.5,7.5,2,11.6c-0.6,5.6-1.7,10.9-5.2,15.5c-1.1,1.4-1,2.9,0,3.7c1.2,1,2.3,0.4,3.3-0.3
	C601.5,490.8,604.2,489,607.1,487.1z M1139.7,1115.4c2.9,0,5.4-0.1,8,0c2.6,0.1,5.2,0.4,7.7,0.6c2.6,0.3,5.2,0.5,7.7,0.9
	c2.6,0.4,5.1,0.9,7.6,1.5c2.5,0.6,5,1.4,7.5,2.2c2.6,0.9,5.2,1.8,7.8,2.9c2.4,1,4.7,2.1,7,3.3c2.3,1.2,4.5,2.6,6.6,4.1
	c2.1,1.5,4.1,3.2,6.2,4.7c2,1.5,3.6,3.6,6.2,4.9c0.1-0.9,0.2-1.4,0.2-1.9c-1.5-12.3-3.1-24.7-4.7-37c-1.4-11.3-2.8-22.6-4.5-33.9
	c-0.6-4.1-1.9-8-3.1-12c-0.4-1.4-0.9-3-2.7-3.9c-3.1,0.3-6.2,0.8-9,2.8c-10.5,7.6-21,15.1-31.6,22.6c-8.9,6.3-14.3,14.8-16.4,25.4
	c-0.1,0.5-0.3,1-0.4,1.5C1139.2,1107.7,1138.5,1111.2,1139.7,1115.4z M624.6,420c2.5-1.6,4.5-3.3,6.8-4.4c3.7-1.9,7.7-2.9,11.9-3.3
	c6.1-0.6,12-0.2,18,1c7.8,1.5,14.7-0.4,19.7-7.2c0.9-1.3,1.8-2.5,2.7-3.8c4.5-6.8,7.6-14.3,9.7-22.2c2.8-10.4,2.8-20.6-0.9-31
	c-3.2-9.1-8.2-16.5-15.5-22.8c-5.6-4.9-11.9-7.6-19.3-7.5c-8.3,0.2-16.6,0.6-24.8,0.9c-1.2,0.1-2.4,0.4-3.5,0.8
	c-4.7,1.7-7,5.3-7.1,10.3c-0.1,6.7,2.2,12.1,7.9,15.9c0.9,0.6,1.7,1.2,2.6,1.8c5.3,3.3,10.8,6.2,16.6,8.3c2.4,0.9,4.8,1.9,7.3,2.7
	c5.2,1.9,9.4,5.2,12.3,9.9c2.1,3.3,3.9,6.9,5.5,10.5c1.6,3.5,1.4,7.1-0.3,10.5c-1,2-2.1,3.9-3.2,5.9c-2.8,5.1-7.2,8.4-12.6,10.2
	c-3.4,1.1-7,1.7-10.6,2.3c-5.5,0.9-10.9,1.5-16.4,2.3c-2.1,0.3-4,1-5.4,2.7C624.5,415.5,624,417.4,624.6,420z M700.2,1068.1
	c-0.8,4.8-0.8,12.3,0,18.7c0.2,1.3,0.6,2.6,1,4.2c1.9,0.1,3.6,0.2,5.3,0.2c6.7,0,13.5,0,20.2,0.1c2.4,0,4.8,0.3,7.2,0.7
	c3.8,0.8,4.1,1.3,4.4,5.1c0.7,8.2,1.4,16.5,2.2,24.7c0.1,1.1,0.6,2.2,1,3.6c5.4,0.1,10.6,0.2,15.7,0.4c5.1,0.2,10.2,1.1,15.2,0.1
	c0.2-0.7,0.5-1,0.4-1.3c-1-6.7-0.7-13.4-0.7-20.1c-0.1-10.9-0.8-21.7-1.9-32.5c-0.1-1-0.5-1.9-0.8-3c-21.9-1.7-43.6-0.5-65.3-1.8
	c-0.8,0-1.7,0.1-2.6,0.2C701.1,1067.5,700.9,1067.8,700.2,1068.1z M896.1,1099.6c-2-1-3.9-0.8-5.8-0.8c-21.4,0-42.7,0-64.1,0
	c-1.4,0-2.8,0-4.1,0.2c-1.1,0.1-1.9,0.8-2.1,2c-0.1,0.7-0.2,1.4-0.2,2c-0.2,6.9-0.4,13.8-0.5,20.7c0,1.2,0.3,2.3,0.4,3.6
	c1.3,0.3,2.4,0.8,3.6,0.9c23.1,0.8,46.1,1.5,69.2,2.1c0.5,0,0.9-0.4,1.4-0.6C895.4,1123.5,896.8,1105.1,896.1,1099.6z M502.1,747.5
	c1.2-0.1,1.4-0.1,1.6-0.2c16.6-8.9,33.1-17.8,49.7-26.6c10.8-5.7,21.8-11.1,32.7-16.7c0.6-0.3,1.2-0.6,1.9-0.9
	c0.3-0.2,0.6-0.4,0.9-0.6c0.1-0.1,0.2-0.3,0.3-0.4c0.1-0.1,0.1-0.3,0.4-0.9c-1.9-6.2-3.5-12.9-6-19.3c-1.8-4.4-4.5-8.1-7.9-11.4
	c-2.7-2.5-5.5-3.1-9-1.5c-4.3,2-7.9,4.8-10.7,8.7c-3.2,4.3-6.3,8.6-9.4,13c-12.9,17.7-26.7,34.7-40.4,51.8
	C504.8,744,503.7,745.5,502.1,747.5z M899.4,1130.2c1.2,0.2,2.5,0.5,3.9,0.5c11.6,0.2,23.1,0.3,34.7,0.4c1.5,0,3.1-0.2,4.6-0.3
	c3.4-0.3,6.9-0.7,10.3-0.9c3.4-0.2,6.9-0.1,10.3-0.3c1.1-0.1,2.2-0.6,3.5-0.9c0.4-2.1,0.8-3.9,1-5.8c0.4-2.7,0.7-5.5,0.9-8.2
	c0.5-4.6,0.9-9.3,1.3-13.9c0.1-1.1-0.3-2.3-0.5-3.2c-2.2-1.1-4.1-0.7-5.9-0.6c-12.4,0.4-24.8,0.8-37.2,1.2
	c-6.6,0.2-13.1,0.2-19.7,0.3c-1.9,0-3.8-0.3-5.3,1.1C899.6,1108.4,898.5,1125.5,899.4,1130.2z M1146,1216c-0.7-1.9-1.1-3.2-1.6-4.5
	c-4-11-4.8-22.1-2.7-33.6c2.4-13,7-25.2,12.7-37.1c2.4-5,5.2-9.7,8.7-14c0.5-0.6,0.8-1.4,1.3-2.1c-4.8-1.9-10.7-2.8-19-3.1
	c-1.3,0-2.8-0.5-3.9,0.7c-0.5,1.8,0.2,3.4,0.7,5c0.9,2.6,1.9,5.2,2.6,7.8c0.6,2.3,1.3,4.7,1.4,7c0.1,3.3-0.1,6.6-0.6,9.8
	c-1.7,10.6-13.5,15.4-20.2,12.5c-3.7-1.6-7.1-3.3-10.2-6c-4.1-3.6-7.3-7.8-10.4-12.1c-0.7-0.9-1.4-1.8-2.4-3c-0.6,1.6-1,2.7-1.3,3.9
	c-1.3,4.9-1.2,9.9-1.3,14.9c-0.1,10.1,3.2,18.9,9.1,26.9c9.1,12.2,20.8,21,34.9,26.6C1144.2,1215.8,1144.7,1215.8,1146,1216z
	 M583.2,1098.3c-1.3,1.5-2.5,3-3.7,4.4c-2,2.4-4.4,4.4-7.3,5.6c-5.4,2.2-8.9,0.9-11.5-4.3c-0.7-1.5-1.4-3.1-2.1-4.6
	c-3.8-0.4-7.2-0.2-10.5,1c-3.3,1.2-6.6,1.8-10.1,0.7c-1.6-0.5-3.4-0.4-5.1-0.3c-6,0.4-12,0.9-18,1.4c-0.8,0.1-1.5,0.6-2.5,1
	c3.9,8.5,7.4,16.9,11.3,25.1c1.2,0.1,2,0.3,2.8,0.3c7.6-0.1,15.2-0.1,22.8-0.4c13.6-0.5,27.2-1.2,40.8-1.8c3.3-0.2,6.5-0.3,9.8-0.5
	c0.9-0.1,1.9-0.5,2.8-0.8c-1.2-4.8-9.3-24-11.3-26.9C588.7,1098.3,585.9,1098.3,583.2,1098.3z M666.9,1124.7
	c7.8,0.2,15.3,0,22.9,0.1c7.8,0.1,15.5,0,23.3,0.4c9,0.4,18.9,0.4,22.6-0.3c0.2-0.3,0.5-0.6,0.5-0.9c-0.6-8.1-1.3-16.2-2-24.2
	c-0.1-0.8-0.6-1.6-0.9-2.4c-2.1-0.9-4.2-0.7-6.2-0.7c-12.4-0.2-24.9-0.4-37.3-0.5c-7.1-0.1-14.2,0-21.2,0c-2,0-4.2-0.2-6.2,1.9
	C663.7,1106.7,664.7,1115.5,666.9,1124.7z M608.6,1125.5c1.8,0.1,3,0.3,4.2,0.2c15.8-0.3,31.7-0.7,47.5-1.1c0.2,0,0.3-0.1,0.5-0.2
	c0.1-0.1,0.3-0.2,0.7-0.7c-0.5-8-2.5-16-3.5-24.1c-0.1-0.8-0.6-1.6-1.1-2.6c-1.7-0.1-3.4-0.3-5.1-0.3c-6.2,0-12.4,0.1-18.6,0.2
	c-10.5,0.2-21,0.5-31.5,0.9c-1.3,0-2.8-0.2-4,1.3C600.8,1108,604.5,1116.6,608.6,1125.5z M222.4,917.6c0.8,2.3,2.4,3.3,3.9,4.4
	c4,3,8,6.1,12,9c8,5.7,16.1,11.3,24.3,16.8c0.9,0.6,1.8,1.6,3.5,0.8c-0.1-1.1-0.2-2.2-0.3-3.4c-0.4-3.9-1.2-7.9-1.1-11.8
	c0.4-10.6,2.7-20.8,8-30.2c3.4-6,6.5-12.2,9.7-18.3c0.6-1.2,1.1-2.4,1.7-3.9C278.4,882.8,229,912.1,222.4,917.6z M680.7,1025.7
	c1.5-5.4,2.6-10.3,3.4-15.2c0.3-1.6-0.2-3-1.2-4.3c-8-9.9-14.8-20.8-21.9-31.4c-4-6-8.3-11.9-12.5-17.8c-1.9-2.7-4.6-4-8-3.9
	c-5.5,0.1-6.9,1.6-5.7,6.9c0.7,3.2,1.8,6.3,3.2,9.2c4.5,9.3,9.1,18.6,12.9,28.2c0.5,1.3,1.2,2.5,2.1,3.5c3.7,4.3,7.4,8.6,11.3,12.8
	c3.8,4,8.1,7.5,12.9,10.3C678.2,1024.6,679.1,1024.9,680.7,1025.7z M775.1,406.4c-0.8,0-1.5,0.2-2.1,0c-1.6-0.6-3.2-1.2-4.8-1.9
	c-5.4-2.3-11-4.1-16.7-5.5c-1.4-0.3-3-0.8-4.5,0.5c0.4,0.8,0.5,1.7,1,2.3c2,2.3,3.9,4.9,6.3,6.8c13.7,11.3,29.4,16.2,47.2,13.5
	c0.8-0.1,1.7,0,2.6,0c1.8,1.5,3.7,3,5.6,4.5c1.8,1.4,3.4,3.5,6.4,3.3c0.2-3.5-0.4-6.7-1.9-9.5c-2.1-3.9-4.4-7.8-7-11.5
	c-5.5-7.8-13.2-12.4-22.5-14.4c-1.3-0.3-2.7-0.7-3.9-1.2c-2.4-1-4.7-2.2-7-3.4c-4.1-2-8.4-3.2-13-2.8c-1.2,0.1-2.4,0.5-3.5,0.9
	c-1.1,0.4-1.5,1.3-1.4,2.5c0.1,1.5,0.6,2.7,1.9,3.4c1.1,0.5,2.2,0.9,3.3,1.5c3.6,2.1,7.2,4.1,10.6,6.3
	C773.4,402.8,774.9,404,775.1,406.4z M1115.4,1061.5c0.5-0.1,0.6-0.1,0.8-0.2c0.2-0.1,0.3-0.1,0.5-0.2c3.2-2.9,6.3-5.9,9.5-8.8
	c2.3-2.1,4.6-4.1,7-6.1c3.2-2.7,6.3-5.3,9.5-8c3.1-2.5,6.2-5,9.3-7.4c0.8-0.6,1.6-1.3,2.5-1.9c4.5-3.2,9-6.4,13.5-9.6
	c0.4-0.3,0.8-0.6,1.2-0.9c0.1-0.1,0.2-0.3,0.3-0.4c0-0.2,0-0.3-0.1-0.8c-5.4-0.4-10.9-1-16.4-1.3c-6.2-0.4-12.4-0.6-18.6-0.8
	c-9-0.3-15.5,3.7-20,11.4c-0.3,0.6-0.7,1.2-1,1.8c-2.1,3.9-3.3,7.9-3,12.4c0.2,2.8,0.1,5.5,0.2,8.3
	C1110.9,1053.7,1112.6,1057.9,1115.4,1061.5z M449.5,1069.4c5,0.7,9.2-0.5,13.4-0.9c4.5-0.4,8.9-1,13.3-1.7
	c4.2-0.6,8.5-0.4,12.9-2.2c-4.5-9.5-8.7-18.7-13.7-27.7c-4.6-0.2-9.1,0.1-13.6,0.5c-4.5,0.4-9,0.4-13.4,1c-4.3,0.6-8.8,0-13.6,1.4
	C439.4,1050.2,444.2,1059.9,449.5,1069.4z M976,1091.7c1.5,0.2,2.7,0.5,3.9,0.5c15.4,0.1,30.7,0.1,46.1,0.2c1.2,0,2.3-0.3,3.3-0.5
	c2.5-5.3,7.2-20.6,7.6-24.6c-4-1.3-8-0.8-12-0.1c-0.6,1.1-1,2.1-1.5,3c-1.6,2.7-2.9,5.6-4.9,7.9c-4.8,5.6-12.5,4.3-15.7-2.3
	c-0.7-1.5-1.1-3.3-1.7-4.9c-0.5-1.3-1-2.5-1.5-3.7c-3.9-0.8-7.5-0.5-11.1-0.4c-3.6,0.1-7.2-0.7-10.9,0.9c-1.5,5-0.9,10.3-1.7,15.4
	C975.5,1085.6,975.2,1088.4,976,1091.7z M815.2,1099c-1-0.2-1.8-0.6-2.6-0.6c-11-0.2-22.1-0.3-33.1-0.4c-0.8,0-1.6,0.4-2.4,0.7
	c-0.4,9-0.7,17.7-1,26.5c0,0.3,0.3,0.6,0.5,0.9c5.3,1.1,33.1,2,38.1,1.1c0.2-0.4,0.6-0.9,0.6-1.3c0.2-7.9,0.3-15.8,0.4-23.8
	C815.6,1101.1,815.3,1100.1,815.2,1099z M805.2,1026.4c0-1.9,0-3.5,0-5c0.1-12.3,1.8-24.4,6.7-35.8c0.2-0.4,0.1-0.9,0.1-1.7
	c-17.4,16.2-34.6,32.1-51.7,48c-0.3,0.3-0.5,0.9-0.8,1.4c1.5,1.9,3.7,2.4,5.8,3.1c4.2,1.4,8.5,1.2,12.8,1.3
	c5.8,0.1,11.3-1.4,16.2-4.4C798,1031.1,801.4,1028.8,805.2,1026.4z M839.4,1069c-0.7,1.5-1,2.5-1.5,3.4c-2.5,5.5-6.9,7.9-12.7,8.2
	c-1.7,0.1-3.4-0.9-5.3,0.5c0,2.9-0.1,6,0,9.1c0,0.9,0.6,1.9,0.9,2.8c1.3,0.1,2.3,0.3,3.3,0.3c17.3,0,34.5,0,51.8,0
	c0.2,0,0.3-0.1,0.5-0.2c0.1-0.1,0.2-0.3,0.5-0.7c-3.3-6.5-4.5-13.8-6-21c-0.2-1-0.7-1.8-1.1-2.9
	C859.6,1068.7,849.6,1068.9,839.4,1069z M503.7,1097.4c-0.9-4.1-9.4-22.5-12.4-26.9c-0.7,0-1.5-0.2-2.4-0.1
	c-11.5,1.3-22.9,2.6-34.4,3.9c-0.6,0.1-1.1,0.5-1.7,0.8c0.2,0.8,0.3,1.3,0.5,1.8c3.8,7.1,7.6,14.3,11.4,21.4
	c0.5,0.9,1.2,1.6,1.9,2.3c11.9-0.8,23.5-1.7,35.2-2.5C502.4,1098,503.1,1097.6,503.7,1097.4z M749.8,1032.9
	c-5.5-0.1-10.7-0.4-15.8-0.2c-5.3,0.3-10.6-1-15.9,0.2c-3,6.9-6.3,13.3-10.6,19.2c-0.3,0.4-0.2,1.2-0.3,2c1.5,0,2.7,0,3.9,0
	c9.8-0.3,19.6-0.1,29.4,0.6c8.1,0.6,16.2,0.8,24.2,1.2c1.7,0.1,3.4,0.6,5-0.9c0.2-3.1,1.5-6.2,0.9-9.3c-0.6-0.4-0.9-0.6-1.2-0.7
	c-1.5-0.4-3-0.6-4.5-1C758.6,1042.4,752.9,1039.7,749.8,1032.9z M591.2,1066.4c-1.4,4.2-1.1,8.3-1.5,12.4c0,0.2,0,0.3,0.1,0.5
	c1.5,4.4,3,8.8,5.4,13c14.8,0.5,29.5-0.9,44.8-0.8c-0.7-0.7-1-1-1.4-1.3c-3.3-1.8-5.5-4.6-6.7-8.2c-1.1-3.4-2.1-6.9-3-10.4
	c-0.5-1.8-0.9-3.6-1.3-5.2C622.4,1065.6,596,1065.6,591.2,1066.4z M975.8,1034.5c1.2-8.3,2.3-15.9,3.3-23.4c-1.6-2.5-3.7-3.1-6.3-3
	c-9.1,0.3-18.2,0.4-27.3,0.6c-0.3,0-0.7,0.1-1,0c-1.8,0-2.8,0.9-3.6,2.4c-3.2,6-5.4,12.3-6.3,19c-0.1,0.9,0.2,1.9,0.4,3.1
	C948.5,1034.2,961.9,1034.7,975.8,1034.5z M589.8,1032.3c-0.8,4.2-0.5,12.9,0.8,23.4c0.2,1.5,0,3.2,1.7,4.6
	c10.1,0.5,20.6,0.1,31.1,0.3c1,0,2-0.3,3.1-0.5c0.9-4.7-0.3-9.2-0.8-13.5c-0.6-4.9-1.3-9.9-3.3-14.3
	C617.6,1031.5,594.8,1031.5,589.8,1032.3z M518.1,1128.2c-1.3-4.7-3.5-8.6-5.4-12.6c-1.9-4.2-3.4-8.6-6.2-12.3c-2.1,0-3.8-0.1-5.5,0
	c-5.7,0.3-11.4,0.7-17,1.1c-4.1,0.3-8.3,0.5-12.4,0.8c-0.8,0.1-1.8,0-2.3,1.5c1.5,3.7,3.6,7.4,5.6,11.2c2,3.9,3.6,8.2,6.2,11.6
	C487.6,1130.1,512.6,1129.3,518.1,1128.2z M934.6,1038.6c-0.2,0.9-0.5,1.4-0.5,1.9c-0.3,6.4,0.2,12.8,1.1,19.1
	c0.3,1.9,1,2.5,3.2,2.6c3.6,0.1,7.2,0,10.9,0c6.7,0,13.5,0,20.2-0.1c3.4,0,4.1-0.7,4.4-3.8c0.5-5,0.9-10,1.2-14.9
	c0.1-1.1-0.2-2.3-0.4-3.5c-0.9-0.2-1.6-0.6-2.2-0.6c-11.9-0.4-23.8-0.8-35.7-1.2C936.2,1038.1,935.6,1038.4,934.6,1038.6z
	 M972.4,1067.2c-1.1-0.2-2-0.4-2.8-0.4c-10.2,0-20.3,0.1-30.5,0.2c-0.8,0-1.6,0.4-2.5,0.6c-0.1,1.4-0.2,2.6-0.2,3.8
	c-0.1,3.1-0.1,6.2-0.3,9.3c-0.2,3.8-1,7.5-3.9,10.4c-0.2,0.2,0,0.6,0,1.1c0.4,0.1,0.9,0.4,1.4,0.4c11.4-0.1,22.7-0.2,34.1-0.4
	c1,0,1.9-0.5,2.8-0.7C971.7,1086,972.9,1071.1,972.4,1067.2z M815.1,1092.6c0.2-0.6,0.4-1.1,0.5-1.6c0.1-3.1,0.1-6.2,0.1-9.3
	c0-6.4,0-6.4-3.7-11.4c-0.3-0.4-0.7-0.7-1.1-1c-0.6-0.1-1.1-0.3-1.6-0.3c-10.7,0-21.4,0-32.1,0c-0.6,0-1.3,0.4-1.8,0.5
	c-0.5,6.1,0.8,19.3,2.3,22.8c11.8,0.3,23.7,0.6,35.5,0.9C813.9,1093.2,814.6,1092.8,815.1,1092.6z M430.1,1006.3
	c4.1-0.2,7.3-0.5,10.6-0.5c11.6-0.1,23.1-0.2,34.7-0.1c8.8,0.1,17.6,0.4,26.4,0.6c1.7,0,3.5,0.4,5.3-0.8c1.5-3.3,3.6-6.6,3.9-11
	c-1.3,0-2.3,0-3.4,0c-4.5,0.1-9,0.4-13.4,0.4c-7.6,0-15.2-0.1-22.8-0.4c-6.4-0.2-12.8-0.6-19.1-0.8c-4.4-0.1-8.9-0.9-13.1-0.2
	C436.2,997.6,433.4,1001.5,430.1,1006.3z M869.1,1062.6c0.1-0.8,0.3-1.7,0.2-2.5c-0.9-7-1.7-14-1.1-21.1c0.2-2.2-0.7-3-3.2-3
	c-7.4-0.1-14.8-0.2-22.2-0.2c-0.8,0-1.6,0.4-2.6,0.6c-1.4,7.4-1.6,14.8-2.2,22.2c-0.1,1.6,0.2,3.1,1.5,4.5c0.6,0.1,1.5,0.4,2.3,0.4
	c8.6-0.1,17.2-0.2,25.9-0.3C868,1063.3,868.5,1062.9,869.1,1062.6z M695,1067.6c-2.2-0.2-3,1.4-4.1,2.3c-4.2,3.7-9,3.1-12.9,0.7
	c-1-0.6-1.8-1.6-2.8-2.3c-0.7-0.5-1.4-1.2-2.1-1.3c-3.4-0.2-6.8-1-10.3,0.5c-0.9,4.6-2.2,9.1-2.6,13.7c-0.3,3.2,0,6.5,1.7,9.4
	c3.5,0.6,23.4,0.9,31.6,0.5c0.8,0,1.6-0.4,2.3-0.5c0.2-0.6,0.5-0.9,0.5-1.2c-0.2-6.9-0.5-13.8-0.8-20.7
	C695.4,1068.5,695.2,1068.2,695,1067.6z M716.9,442.4c0,1.9-0.1,3.8,0,5.7c0.2,3.8,0.5,7.6,0.6,11.3c0.1,7.1,0.1,14.1,0.2,21.2
	c0,1.4,0.2,2.7,0.3,3.9c3.4,1.9,5.2,2.5,8.5,2.5c2,0,4.2,0.5,6.2-1.5c0.9-15.2-1.2-30.6-0.8-46.3c-0.8-0.4-1.6-1.1-2.3-1
	C725.2,439,720.8,439.9,716.9,442.4z M887.2,970.1c-5.4-0.7-6.4-0.7-10.1,0.6c-5.5,1.9-10.1,5.1-14.1,9.4
	c-5.5,5.8-9.6,12.6-13.1,19.7c-0.3,0.6-0.3,1.3-0.4,2.1c2.9,1.2,5.6,0.6,8.3,0.6c2.9,0,5.9,0,8.8-0.1c2.7-0.1,5.5,0.3,8.4-0.7
	c1.8-5.3,3.3-10.6,5.3-15.7C882.3,980.8,884.7,975.7,887.2,970.1z M841.6,480.6c-0.4-7.5-2.1-14.7-3-22.1c-0.9-7.5-1.6-15-2.4-22.4
	c-4.6-1.5-9-0.9-13.7,2c0.1,1.1,0.2,2.3,0.4,3.4c1.7,11.6,3.2,23.3,3.7,35c0.1,1.9,0.2,3.8,0.5,5.7c0.1,0.9,0.7,1.8,1.1,2.9
	C833.1,484.9,837.3,483.4,841.6,480.6z M513.8,1063.1c-1.3-5.1-2.4-9.6-3.6-14c-1.3-4.6-1.4-9.5-3.3-13.9c-0.9-0.1-1.6-0.4-2.3-0.3
	c-7.2,0.4-14.4,0.8-21.6,1.3c-0.6,0-1.1,0.7-1.5,1c1.2,3.7,11.2,24.2,13.3,27.2C500.8,1064.9,506.9,1063.9,513.8,1063.1z
	 M770.4,1012.3c-1.3-0.2-1.8-0.4-2.3-0.4c-13.4,0-26.8,0-40.3,0c-1.2,0-2.3,0.3-3.7,0.6c-1.2,4.6-2.3,9.1-3.5,13.5
	c-0.1,0.3,0.2,0.6,0.4,1c1.5,0.6,2.9,0.8,4.4-0.9c-0.2-1.8-0.6-3.8-0.6-5.9c0-1.3,0.3-2.7,0.6-4c0.1-0.3,0.8-0.7,1.2-0.7
	c0.4,0,1,0.5,1.1,0.8c0.5,2,0.9,4,1.2,6c0.3,1.7,0.1,3.5,1.8,5.2c1.1,0.1,2.7,0.3,4.2,0.3c5,0.1,10,0.1,15,0.3c2.8,0.1,5-0.8,7-2.6
	c4-3.8,8-7.5,12.1-11.3C769.4,1013.9,769.7,1013.3,770.4,1012.3z M872.4,1010.1c-9.4,0-18.1-0.1-26.7,1c-2.7,5.4-4.8,14.8-4.2,19.3
	c2.7,1.3,5.7,0.6,8.6,0.8c3.1,0.2,6.2,0.2,9.3,0.1c2.9,0,5.8,0.6,8.9-0.6C869.6,1024.1,870.9,1017.6,872.4,1010.1z M529.4,1095.1
	c-2.5-4.3-5.3-8.4-7.6-12.8c-2.3-4.4-4.2-9-6.4-13.5c-0.8-0.1-1.5-0.4-2.1-0.3c-4.8,0.3-9.6,0.7-14.4,1.1c-0.4,0-0.9,0.5-1.6,0.9
	c1.6,4.7,3.9,9.1,6.1,13.6c2.2,4.4,3.7,9.2,6.5,13.2C516.1,1097.5,526.2,1096.3,529.4,1095.1z M805.1,1035c-3.2,2.1-6.2,4.1-9.3,5.9
	c-3,1.7-6.3,2.9-9.7,3.4c-3.5,0.5-7.1,1-10.7,1.5c-1.1,3.4-1,6.6-0.5,9.9c2.6,1.2,5.2,1.2,7.8,1.4c7.9,0.5,15.8,1.1,23.8,1.6
	c0.8,0,1.6-0.2,2.5-0.3c-1-7.5-1.9-14.7-2.9-21.8C805.9,1036.2,805.6,1035.9,805.1,1035z M616.1,1012.1c-4.4-0.7-8.9-0.3-13.3-0.3
	c-4.4,0.1-8.9-0.5-13.2,0.6c-0.9,2.6-0.6,5-0.5,7.4c0.1,2.3-0.7,4.8,1.1,7.1c9.4,0,18.8,0,28.3,0c0.6,0,1.3-0.3,2.2-0.6
	c0-0.9,0.2-1.8,0-2.5C619.5,1019.8,618.5,1015.8,616.1,1012.1z M998.5,1061.9c0.6-5.5-1.1-17.4-3-21.7c-4.9-0.2-10-0.8-15.2,0
	c-2.2,5.5-1.1,11.1-2.2,16.5c-0.3,1.5,0,3,0,4.7c1.2,0.3,2.2,0.7,3.2,0.7C986.9,1062.1,992.6,1062.4,998.5,1061.9z M536,1033.1
	c-1.2,2-0.5,3.4-0.2,4.9c1.6,6.5,4,12.8,6.7,18.9c2.5,5.5,3,5.8,9.1,4.5c0.5-0.1,0.9-0.5,1.5-0.8c0.5-4.6-0.6-9.2-1-13.8
	c-0.3-4.6-0.3-9.2-1.5-14C545.6,1032.6,540.9,1032.7,536,1033.1z M663.8,1061c2.7,0.7,5.5,0.9,8.4-0.2c0.3-1.5,0.6-2.8,0.7-4.2
	c0.7-6.6,2.2-12.9,4.6-19c0.3-0.8,0.6-1.6,0.7-2.5c0.1-1,0-1.9,0-3c-2.9-0.8-5.7-0.5-8.4-0.4c-2.7,0-5.5-0.7-7.9,0.7
	c-0.2,0.5-0.4,0.9-0.3,1.2c0.9,8.4,1.4,16.8,1.3,25.3c0,0.5,0.2,1,0.4,1.5C663.4,1060.5,663.5,1060.7,663.8,1061z M612.3,1003.5
	c-0.1-0.9-0.1-1.6-0.3-2.2c-0.8-2.1-1.7-4.1-2.6-6.2c-2.2-4.8-6-8-10.5-10.2c-5-2.4-8.2-0.8-9.8,4.6c-1.4,4.8-0.7,9.5,0.3,14.1
	c3.6,0.8,13.8,1.1,20.4,0.6C610.5,1004,611.3,1003.7,612.3,1003.5z M1026.4,1062c4.6,0.6,8.4,1,12.6,0c2.2-6.2,4.1-12.5,5.5-18.9
	c0.1-0.4-0.3-0.9-0.5-1.7c-2.5-0.5-5.1-0.4-7.7-0.3c-2.5,0-5.1-0.7-7.6,0.7C1027.9,1048.5,1027.2,1054.9,1026.4,1062z M686.1,999.9
	c0.3-1.1,0.8-2.2,0.8-3.4c0.2-2.9,0.2-5.8,0.3-8.8c0.2-4.3-1.6-7.6-4.9-10.3c-5.7-4.7-11.7-9-18.1-12.7c-0.2-0.1-0.6,0.2-1,0.3
	c7.1,11.2,14.2,22.3,21.2,33.4c0.3,0.4,0.6,0.8,0.9,1.2C685.4,999.9,685.6,999.9,686.1,999.9z M534.9,1028c4.6,0,8.9,0,13.2,0
	c0.6,0,1.3-0.4,1.8-0.6c1-4.3,0.8-9.9-0.3-13.8c-4-1-10.3-0.9-14.1,0.3C534,1018.7,533.7,1022.9,534.9,1028z M713.4,482.1
	c0.4-0.6,0.7-0.8,0.7-1.1c-0.5-11.5-0.9-23-1.4-34.4c0-0.3-0.4-0.5-0.8-1c-0.6,0.4-1.4,0.6-2,1.2c-2.3,2.2-3.6,5.1-4.2,8.1
	c-1.9,9.4,0,18.1,5.9,25.8C712,481.3,712.7,481.6,713.4,482.1z M994.9,1034.6c-0.3-4.6-1.1-9.2-3.6-13.1c-2-3.1-4.5-5.9-8.5-7.7
	c-1.2,7.1-2.3,13.8-2.3,20.5C984.9,1035.6,990.6,1035.7,994.9,1034.6z M840.5,438.2c-0.6,4.6,0.6,16.2,3.9,37.9
	c0,0.2,0.5,0.3,0.8,0.4c2-3.4,2.3-4.1,2.6-7.1c0.5-5.5,0.6-11-0.1-16.5c-0.6-4.5-1.9-8.8-4.5-12.6C842.5,439.3,842,438,840.5,438.2z
	 M589.5,461.2c-3.3,2.3-4.4,3.5-5.2,6.2c-1.9,6.3,1.2,14.5,6.9,18.4c1.8-5.8,2.4-12.8,1.3-17.7C592,465.7,591.6,463.1,589.5,461.2z
	 M698.9,1062.2c7.6,0.1,14.6,0.3,21.7,0.4c2.2,0,4.5,0,6.7,0c0.2,0,0.3,0,0.5,0c1.1-0.1,2.1-0.3,2.3-1.6c0.2-1.1-0.7-2.1-2.2-2.3
	c-0.5-0.1-1-0.1-1.5-0.1c-6.3-0.3-12.7-0.6-19-1.1C703.8,1057.3,701.1,1058.3,698.9,1062.2z M521.7,450.2c-0.5-0.5-0.6-0.9-0.9-1
	c-1.6-0.7-3.1-1.4-4.7-2c-7.1-2.7-7.8-2.3-9.7,5.4c-0.1,0.6,0.1,1.3,0.1,2.3c2.1,0.3,4.1,0.6,6.1,0.9c2.2,0.3,4.3,1,6.9,0.5
	C520.3,454.1,521,452.1,521.7,450.2z M769.5,1063.2c-0.4-2-1.4-2.2-2.4-2.3c-4.5-0.2-8.9-0.4-13.4-0.6c-5.1-0.2-10.3-0.5-15.4-0.8
	c-0.7,0-1.4,0-2.1,0c-0.9,0.1-1.8,0.6-1.6,1.6c0.2,0.7,0.9,1.5,1.6,1.7c0.9,0.3,2,0.3,3,0.3c8.6,0.1,17.2,0.2,25.8,0.3
	C766.4,1063.5,767.7,1063.3,769.5,1063.2z M554.3,1093.6c1.6,0.7,2.3,0.3,2.6-0.7c0.1-0.3,0-0.7,0-1c-0.9-7.5-1.8-15-2.7-22.4
	c-0.1-0.8-0.6-1.5-0.9-2.4c-1.2,0-2.2,0-3.2,0c-0.3,0-0.5,0.4-0.9,0.6c-0.2,3.5,1.2,6.6,2.4,9.8
	C553.4,1082.7,555.4,1087.9,554.3,1093.6z M809.1,1063.2c0-0.4,0-0.8,0-1.1c-1.3-0.1-2.7-0.2-4-0.2c-7.6,0-15.1,0-22.7-0.1
	c-1.9,0-3.8-0.1-5.7-0.1c-0.7,0-1.3,0.3-1.2,1.2c3.8,1,14.8,1.2,30.8,0.7C807.3,1063.6,808.2,1063.3,809.1,1063.2z M964.4,1001.1
	c-5.4-3.5-10-5.2-14.1-5.3c-2.5,2.8-2.5,2.8-2.3,5.3C953.1,1001.1,958.2,1001.1,964.4,1001.1z M667.4,1026.7
	c-0.3-0.7-0.3-1.1-0.5-1.3c-2.9-2.6-5.7-5.3-9.2-8.4c0.5,2.2,0.8,3.7,1.2,5.1c1.3,4.9,1.3,4.9,6.6,4.9
	C666.1,1027,666.6,1026.9,667.4,1026.7z M546.9,1004.8c-1.9-3-3.6-5.2-7-5.9c-1.1,2-2,3.8-1.7,6.3
	C540.9,1005.4,543.5,1005.6,546.9,1004.8z M903.7,1087.6c-2.2,1.4-2.6,3-1.9,5c3.8,1,4.1,1,8.4-0.1
	C907.9,1090.7,906.1,1089.1,903.7,1087.6z M588.1,1088.6c-0.3,0-0.7,0.1-1,0.1c-0.3,1.1-0.6,2.2-1,3.7c1.3-0.1,2.2-0.2,3.5-0.3
	C588.9,1090.6,588.5,1089.6,588.1,1088.6z M741.8,405.7c-0.6-1.3-0.9-2-1.3-2.7c-0.6-0.9-1.3-0.8-1.9,0.2c-0.3,0.5-0.3,1.2-0.4,1.9
	C739.3,405.4,740.3,405.5,741.8,405.7z M651.8,1090.4c0,0.3,0,0.5,0.1,0.8c1,0,2,0.1,3,0c0.7-0.1,1.1-0.6,0.5-1.7
	C654.3,1089.8,653.1,1090.1,651.8,1090.4z"/>
<path id="XMLID_2271_" d="M830.8,565.7c4.5-1.7,8.4-2.8,12.6-2.9c2.6-0.1,3.3,0.8,3.7,3.2c2.3,15.1,4.7,30.3,7.1,45.4
	c0.3,1.9,0.4,3.8,0.8,5.6c1.1,4.2-0.1,7.8-2.1,11.4c-1.1,2.1-2.9,3.4-5,4.3c-1.8,0.8-3.3,0.4-4.8-0.7c-2-1.6-2.8-3.9-3.3-6.2
	c-0.8-3.7-1.5-7.4-2.1-11.2c-1.6-10.2-3-20.4-4.5-30.6c-0.5-3.6-1.1-7.1-1.6-10.7C831.3,570.8,831.1,568.5,830.8,565.7z
	 M846.4,626.2c0.6-0.7,1.1-1,1.2-1.4c1.1-3.1,1.4-6.3,0.8-9.6c-2.1-12.6-4-25.1-6-37.7c-0.4-2.7-0.8-5.4-1.2-8.1
	c-0.1-0.3-0.8-0.8-1.2-0.7c-0.4,0-1.1,0.6-1.1,0.9c0,2.2,0.1,4.5,0.3,6.7c0.5,4.1,1.1,8.2,1.6,12.3c1.5,11.8,3,23.5,4.5,35.3
	C845.5,624.5,846,625.2,846.4,626.2z"/>
<path id="XMLID_2268_" d="M716.9,570.2c5-1.6,9.8-3.5,15.2-2c1.4,9,2.8,17.6,4.1,26.3c1.3,8,2.6,16,3.8,24c0.4,2.4,0.8,4.8,0.7,7.2
	c0,4.1-1.6,7.7-4.8,10.4c-3.9,3.3-7.4,2.2-9.5-2.3c-0.6-1.2-0.9-2.6-1.1-3.9c-2.4-12.3-4.7-24.7-6.1-37.2
	c-0.6-5.8-1.6-11.6-2.5-17.4C716.5,573.7,716,572.2,716.9,570.2z M731.4,631.3c0.9-0.6,1.3-0.8,1.4-1c1.3-2.7,1.8-5.5,1.3-8.5
	c-1.2-6.8-2.4-13.6-3.4-20.4c-1.2-8-2.2-16.1-3.4-24.1c-0.2-1.4,0.1-3.3-2-3.8c-1.1-0.2-1.4,1.3-1.1,3.9c1.3,10.1,2.5,20.2,3.9,30.3
	C729.1,615.4,730.2,623,731.4,631.3z"/>
<path id="XMLID_2267_" d="M1011.3,1149.2c0.5-1.1,0.7-1.9,1.2-2.5c3.5-5,7.6-9.4,12.2-13.3c8.9-7.6,17.1-16,24.9-24.8
	c1.7-1.9,3.5-3.8,5.3-5.7c7.7-7.7,14.7-16,21.5-24.5c1.1-1.3,2.3-2.6,3.5-3.8c0.5-0.5,1.3-0.7,1.8,0c0.3,0.3,0.5,1,0.3,1.4
	c-0.6,1.4-1.3,2.8-2.2,4c-5.1,6.7-10.1,13.5-15.6,19.9c-9.7,11.4-19.5,22.9-30.7,32.8c-5.7,5-11.7,9.7-17.6,14.4
	C1014.6,1148.2,1013.5,1149.3,1011.3,1149.2z"/>
<path id="XMLID_2266_" d="M778.4,475.3c-3.4-0.2-7.1-1.4-10.6-3.5c-0.6-0.3-1.2-0.8-1.5-1.4c-0.3-0.6-0.5-1.5-0.2-1.9
	c0.4-0.6,1.2-1.2,2-1.4c0.6-0.2,1.4,0.1,2,0.3c3.3,1,6.6,2,9.9,3c1.5,0.5,3.1,0.9,3.3,2.8C783.4,474.5,781.6,475.3,778.4,475.3z"/>
<path id="XMLID_2265_" d="M783.4,455.9c-0.2,3.5-0.7,5.8-2.4,7.7c-1,1-2.3,1.4-3.2,0.9c-1-0.7-1-1.7-0.9-2.7c0-0.2,0-0.3,0.1-0.5
	c1.4-3.5,1.4-7,0.2-10.5c-0.2-0.5,0-1,0-1.5c0.1-1,1.5-1.8,2.3-1.2c0.7,0.4,1.6,1,1.8,1.7C782.3,451.9,783,454.4,783.4,455.9z"/>
<path id="XMLID_2264_" d="M771.3,449.5c-0.4,1-0.7,1.8-1.1,2.5c-0.6,1.1-2.3,1.2-3.1,0.3c-1.6-1.9-2.2-4.2-1.8-6.6
	c0.2-1,1-1.9,2.1-1.8c0.8,0,1.8,0.4,2.1,1C770.4,446.4,770.8,448,771.3,449.5z"/>
<path id="XMLID_2263_" d="M793.6,450.2c-0.1,0.9-0.2,1.9-0.4,2.9c-0.4,1.4-2.3,1.8-3.3,0.7c-0.3-0.4-0.7-0.8-0.9-1.2
	c-0.8-2.1-0.8-4.3-0.4-6.5c0.2-1,1-1.8,2.2-1.8c1.1,0,1.9,0.7,2.2,1.8C793.4,447.4,793.4,448.7,793.6,450.2z"/>
<path id="XMLID_2260_" d="M329.9,895.8c-2.5-0.2-4.4-1.2-5.7-3.1c-0.8-1.2-1-2.5-0.6-3.9c1.5-5.3,7.8-7.2,11.9-3.7
	c0.9,0.8,1.7,1.7,2.4,2.7c1.2,1.8,0.9,3.6-0.6,5.1C335.1,894.8,332.5,895.5,329.9,895.8z M333,889.9c-1.5-2-3-2-4.7-1.1
	c-0.3,0.2-0.7,0.9-0.6,1.2c0.1,0.4,0.5,1,0.9,1.1C330.2,891.6,331.7,891.5,333,889.9z"/>
<path id="XMLID_2259_" d="M649,456.4c-9.7,0.8-18.2-0.9-26.7-2.1c-2.6-0.4-5.1-1.2-7.2-2.6c-0.8-0.6-1.7-1.3-2.3-2.1
	c-1.9-2.7-1.2-5.4,1.7-6.9c1.2-0.6,2.6-0.9,3.9-1.2c5-1,10-0.8,15-0.5c6,0.3,12.1,1,17.9,2.8c2.8,0.9,5.5,2,8.1,3.4
	c1.6,0.9,3,2.3,4.1,3.8c1.3,1.9,0.3,4.2-2,4.9c-1.1,0.3-2.4,0.5-3.6,0.5C654.5,456.4,651.3,456.4,649,456.4z"/>
<polygon id="XMLID_2440_" points="717.3,573.5 729.2,569.9 737.8,620.9 734.3,632.8 727.5,635.7 "/>
<polygon id="XMLID_2439_" points="832.5,568.6 843.8,566 852.4,612.8 845.8,629.8 839.5,616.6 "/>
<g id="XMLID_2436_">
	<path id="XMLID_2471_" d="M222.4,922.3c0,0-1.1-1.1-3-3.1c-1.9-2-4.5-4.8-7.7-8.1c-1.6-1.7-3.4-3.4-5.2-5.4
		c-1.9-1.8-3.8-3.9-5.9-5.8c-1-1-2.1-2-3.1-3c-1.1-1-2.2-2-3.3-3c-1.1-1-2.3-2-3.4-3c-1.1-1-2.3-2-3.4-3c-1.2-1-2.3-2-3.5-2.9
		c-1.2-0.9-2.4-1.9-3.5-2.8c-1.2-0.9-2.4-1.8-3.6-2.7c-1.2-0.8-2.3-1.8-3.5-2.5c-2.4-1.6-4.6-3.2-6.9-4.5c-2.2-1.4-4.4-2.6-6.4-3.7
		c-2-1.2-3.9-2.1-5.5-2.9c-0.8-0.4-1.6-0.8-2.3-1.2c-0.7-0.3-1.4-0.7-2-0.9c-2.5-1.1-3.9-1.9-3.9-1.9s1.5,0.2,4.2,0.8
		c0.7,0.1,1.4,0.3,2.2,0.5c0.8,0.2,1.7,0.5,2.6,0.7c1.8,0.6,3.9,1.1,6.1,2c1.1,0.4,2.3,0.9,3.4,1.3c1.2,0.5,2.3,1.1,3.6,1.7
		c1.2,0.6,2.5,1.1,3.7,1.8c1.3,0.7,2.5,1.4,3.8,2.1c1.3,0.7,2.5,1.6,3.8,2.4c1.3,0.8,2.6,1.6,3.8,2.6c1.2,0.9,2.5,1.9,3.8,2.8
		c1.2,1,2.4,2,3.7,3c1.2,1,2.4,2.1,3.5,3.1c1.1,1.1,2.3,2.1,3.4,3.2c2.2,2.2,4.3,4.4,6.2,6.6c2,2.2,3.7,4.4,5.4,6.5
		c1.6,2.1,3.2,4.1,4.5,6.1c1.4,1.9,2.5,3.7,3.6,5.3c1,1.6,1.9,3,2.6,4.2C221.7,920.9,222.4,922.3,222.4,922.3z"/>
</g>
<g id="XMLID_2433_">
	<path id="XMLID_2469_" d="M184.4,847.7c0,0,1,0.7,2.7,2c0.8,0.7,1.9,1.5,3,2.5c1.1,1,2.4,2.1,3.7,3.5c1.3,1.3,2.7,2.8,4,4.4
		c0.7,0.8,1.4,1.6,2.1,2.5c0.7,0.9,1.4,1.8,2.1,2.7c0.7,0.9,1.4,1.9,2,2.9c0.6,1,1.4,2,2,3.1c0.6,1.1,1.2,2.1,1.9,3.2
		c0.6,1.1,1.1,2.2,1.7,3.3c0.6,1.1,1.1,2.2,1.6,3.4c0.5,1.1,1,2.2,1.4,3.4c0.9,2.3,1.7,4.5,2.4,6.8c0.7,2.2,1.2,4.4,1.7,6.5
		c0.4,2.1,0.8,4,1.1,5.9c0.1,0.9,0.3,1.8,0.4,2.6c0.1,0.8,0.2,1.6,0.2,2.4c0.2,1.5,0.2,2.8,0.3,3.9c0.1,2.2,0,3.4,0,3.4
		s-0.5-1.2-1.1-3.2c-0.4-1-0.8-2.2-1.3-3.6c-0.5-1.4-1-3-1.6-4.7c-0.6-1.7-1.3-3.5-2-5.4c-0.8-1.9-1.5-3.9-2.4-6
		c-0.4-1-0.9-2.1-1.3-3.1c-0.5-1-0.9-2.1-1.4-3.2c-0.4-1.1-1-2.1-1.5-3.2c-0.5-1.1-1-2.1-1.5-3.2c-0.5-1.1-1-2.1-1.6-3.2
		c-0.6-1-1.1-2.1-1.7-3.1c-1.1-2-2.2-4-3.4-6c-0.6-1-1.1-1.9-1.7-2.8c-0.6-0.9-1.1-1.8-1.7-2.7c-1.1-1.8-2.2-3.4-3.1-4.9
		c-1-1.5-1.9-2.8-2.8-4.1c-0.8-1.2-1.6-2.3-2.2-3.2C185,848.7,184.4,847.7,184.4,847.7z"/>
</g>
<g id="XMLID_2430_">
	<path id="XMLID_2467_" d="M1269.6,882.3c0,0,0.1,0.2,0.2,0.6c0.1,0.4,0.3,1,0.5,1.7c0.2,0.8,0.5,1.6,0.6,2.7
		c0.1,1.1,0.3,2.3,0.3,3.7c-0.1,1.3,0,2.8-0.3,4.4c-0.1,0.8-0.3,1.6-0.5,2.4c-0.2,0.8-0.5,1.6-0.8,2.5c-0.2,0.4-0.3,0.8-0.5,1.3
		c-0.2,0.4-0.4,0.8-0.6,1.2c-0.5,0.8-0.8,1.7-1.4,2.5c-0.6,0.8-1.1,1.6-1.7,2.3l-2,2.1c-1.5,1.2-3,2.5-4.7,3.3l-1.2,0.7
		c-0.4,0.2-0.8,0.4-1.3,0.5c-0.8,0.3-1.6,0.7-2.5,1c-1.7,0.5-3.3,0.9-4.8,1.1c-1.5,0.3-3,0.4-4.3,0.4c-1.3,0.1-2.5,0-3.6-0.1
		c-1.1-0.1-2-0.2-2.8-0.4c-1.5-0.3-2.4-0.5-2.4-0.5s0.8-0.4,2.2-1c0.7-0.3,1.5-0.7,2.5-1.1c0.9-0.4,2-0.8,3.1-1.4
		c1.1-0.5,2.3-1,3.6-1.6c1.3-0.5,2.5-1.3,3.8-1.9c1.2-0.7,2.5-1.4,3.7-2.3c1.2-0.8,2.3-1.7,3.4-2.6l1.5-1.5c0.4-0.5,0.9-1.1,1.4-1.6
		c0.2-0.2,0.4-0.5,0.6-0.8l0.6-0.8l0.6-0.8c0.2-0.3,0.3-0.6,0.5-0.9c0.3-0.6,0.7-1.2,1-1.8c0.3-0.6,0.6-1.2,0.9-1.8
		c0.3-0.6,0.5-1.2,0.8-1.8c0.2-0.6,0.5-1.2,0.7-1.7c0.4-1.1,0.8-2.2,1.1-3.1c0.4-0.9,0.6-1.9,0.9-2.6c0.2-0.7,0.5-1.3,0.6-1.7
		C1269.5,882.5,1269.6,882.3,1269.6,882.3z"/>
</g>
<g id="XMLID_2427_">
	<path id="XMLID_2438_" d="M1290.3,427c0,0,0.7,0.1,1.7,0.4c0.5,0.2,1.2,0.3,2,0.6c0.7,0.3,1.6,0.6,2.5,1c0.9,0.5,1.8,1,2.8,1.6
		c0.5,0.4,0.9,0.7,1.4,1.1c0.2,0.2,0.5,0.4,0.7,0.6l0.7,0.7c0.4,0.5,0.9,0.9,1.3,1.5c0.4,0.6,0.8,1.1,1.2,1.7c0.7,1.2,1.3,2.5,1.7,4
		c0.2,0.7,0.3,1.4,0.4,2.1l0.1,1.1l0,1.1c0.1,1.4-0.2,2.7-0.4,4c-0.3,1.2-0.7,2.4-1.2,3.5c-0.4,1.1-1,2-1.5,2.9
		c-0.4,0.9-1,1.6-1.5,2.2c-0.4,0.7-0.9,1.2-1.3,1.6c-0.8,0.9-1.2,1.3-1.2,1.3s0.1-0.7,0.4-1.7c0.2-0.5,0.3-1.2,0.5-1.9
		c0.2-0.7,0.4-1.6,0.6-2.5c0.2-0.9,0.4-1.9,0.6-2.9c0.2-1,0.3-2.1,0.5-3.1c0-1.1,0.1-2.2,0-3.2l0-0.8l-0.1-0.8
		c-0.1-0.5-0.1-1.1-0.3-1.6c-0.2-1-0.7-2-1.1-3c-0.3-0.5-0.5-0.9-0.8-1.4c-0.3-0.5-0.6-0.9-0.9-1.3l-0.5-0.6l-0.5-0.6
		c-0.3-0.4-0.7-0.8-1-1.2c-0.7-0.7-1.4-1.4-2.1-2c-0.7-0.6-1.3-1.1-1.9-1.7c-0.6-0.5-1.1-0.9-1.6-1.3
		C1290.8,427.5,1290.3,427,1290.3,427z"/>
</g>
<g id="XMLID_2424_">
	<path id="XMLID_2435_" d="M99.6,520.5c0,0-0.2,0.6-0.6,1.7c-0.4,1-1,2.5-1.7,4.2c-0.3,0.9-0.7,1.8-1.1,2.8c-0.4,1-0.8,2-1.1,3.1
		c-0.4,1.1-0.7,2.2-1.1,3.3c-0.3,1.1-0.7,2.3-1,3.4c-0.3,1.1-0.6,2.3-0.8,3.5c-0.1,0.6-0.2,1.1-0.3,1.7c-0.1,0.6-0.2,1.1-0.3,1.7
		c-0.2,1.1-0.3,2.2-0.4,3.2c-0.1,1-0.2,2-0.3,2.9c-0.1,0.9-0.1,1.8-0.1,2.5c0,0.8-0.1,1.4-0.1,2c0,1.1-0.1,1.8-0.1,1.8
		s-0.3-0.6-0.8-1.6c-0.2-0.5-0.5-1.2-0.7-1.9c-0.3-0.7-0.5-1.6-0.7-2.6c-0.3-1-0.4-2-0.6-3.1c-0.1-1.1-0.2-2.3-0.2-3.6
		c0-1.2,0.1-2.5,0.3-3.8c0.2-1.3,0.4-2.6,0.8-3.9c0.3-1.3,0.8-2.5,1.2-3.7c0.2-0.6,0.5-1.2,0.8-1.8c0.2-0.6,0.5-1.1,0.8-1.7
		c0.6-1.1,1.2-2.1,1.8-3c0.6-1,1.3-1.8,1.9-2.5c0.6-0.8,1.2-1.4,1.7-2c0.5-0.6,1-1,1.4-1.4C99.1,520.9,99.6,520.5,99.6,520.5z"/>
</g>
<path id="XMLID_2423_" d="M592.9,705.2c0,0-15.7-22.1-25.9-19.3c-10.2,2.7-70.5,65.3-70.5,65.3l53.1-72.7l22.6-13.2l15.2,18.7
	L592.9,705.2z"/>
<path id="XMLID_2422_" d="M1066,714.6c0,0-52.7-41.1-66.3-40.4c-13.6,0.8-29.6,29.4-29.6,29.4l9.3-44.5l11.9-15.4l19.3-1.7
	L1066,714.6z"/>
<polyline id="XMLID_2421_" points="458.1,605.8 381.2,683.9 405.4,687 461.6,605.8 "/>
<path id="XMLID_2420_" d="M272.9,958.5c-18.5,30.6-23,62.3-18,94.8l-10.2-25.3l2.2-37.9l19.3-30.2L272.9,958.5z"/>
<path id="XMLID_2419_" d="M493.1,989.3c0-31.6,12.2-59.8,32.5-85.8l-17.9,11.2l-18.6,28.6l-1.4,39L493.1,989.3z"/>
<path id="XMLID_2418_" d="M1010.3,517.1c18.1,10.2,42.5,40.5,66.3,69l-53.1-40.3l-40.3-20L1010.3,517.1z"/>
<path id="XMLID_2417_" d="M1025,344.1c2.4,24.3-2.2,47.9-9.4,71.2l9.4-7.2l8.7-20.4l-3.6-39.8L1025,344.1z"/>
<path id="XMLID_2416_" d="M393.7,691.6l-30,14.8c3.8,17-14.6,60.8-30.7,101.7l66.3-111.7L393.7,691.6z"/>
<path id="XMLID_2415_" d="M1228.6,988.6c55.1-5.4,87.6,21,107.7,64.7l-12.4-38.2l-35.4-27.2l-37.7-5.7L1228.6,988.6z"/>
<path id="XMLID_2414_" d="M662.4,1104.6c9.5,21.5,42.5,19.5,72.1,20.8l-69,2.1L662.4,1104.6z"/>
<path id="XMLID_2413_" d="M595.5,1096.9c0,0,10.7,19.3,19.4,24.1c8.6,4.8,45.2,5.5,45.2,5.5l-52,1L595.5,1096.9z"/>
<polyline id="XMLID_2412_" class="st4" points="714.5,1079.4 757,1079.7 759.6,1112.8 "/>
<polygon id="XMLID_2411_" points="512.3,1104.6 527.3,1125.5 602.6,1127.5 522.5,1129.7 "/>
<path id="XMLID_2410_" d="M819.3,1098c0,0,1.8,23.2,4.6,25.8s70.7,9,70.7,9l-77.5-2.6L819.3,1098z"/>
<polygon id="XMLID_2409_" points="335.4,1080.5 371,1079.4 452,1187.3 701.8,1186.7 434.1,1197.6 "/>
<path id="XMLID_2408_" d="M1101.4,1120.2c0,0-31.6,27.6-31.6,48.6s40.5,44.7,40.5,44.7l54.1,15.3l-64.6-42.1l-5-29.2l7.9-19.8
	L1101.4,1120.2z"/>
<path id="XMLID_2407_" d="M651.7,956.2c-8.2,6.8-11.4,17.2-11.9,29.4l-8.2-23.8l2.8-12.8L651.7,956.2z"/>
<path id="XMLID_2406_" d="M795.6,994c8.6-1.2,13.9,1.2,13.3,10.3l8.2-27.4L795.6,994z"/>
<g id="XMLID_2403_">
	<path id="XMLID_2432_" d="M713.2,891.4c0,0,1.2-0.5,3.5-1.6c2.3-1,5.7-2.5,9.9-4.5c4.2-2,9.2-4.6,14.9-7.7c2.8-1.6,5.8-3.3,8.9-5.2
		c3.1-1.9,6.4-3.8,9.7-6c3.3-2.2,6.8-4.4,10.3-6.9c1.7-1.3,3.6-2.5,5.4-3.8c1.8-1.3,3.6-2.7,5.4-4c1.8-1.3,3.7-2.8,5.5-4.2
		c1.8-1.5,3.7-2.9,5.6-4.4c3.6-3.1,7.5-6.1,11.2-9.4c7.6-6.4,15-13.6,22.4-20.9c7.5-7.3,14.6-15.1,21.7-23.1
		c7-7.9,13.8-16.1,20.2-24.3c6.3-8.3,12.6-16.5,18.2-24.7c5.6-8.2,11-16.2,15.7-24c1.2-1.9,2.4-3.9,3.5-5.8c1.1-1.9,2.2-3.8,3.3-5.7
		c2.2-3.7,4.2-7.3,6.2-10.8c1.9-3.5,3.7-6.9,5.4-10.1c1.7-3.2,3.2-6.3,4.7-9.2c2.8-5.8,5.3-10.9,7.2-15.2c2-4.2,3.4-7.6,4.4-9.9
		c1-2.3,1.5-3.5,1.5-3.5s-0.4,1.3-1.2,3.7c-0.8,2.4-1.8,5.9-3.5,10.3c-1.5,4.4-3.6,9.7-6.1,15.8c-1.3,3-2.7,6.2-4.1,9.6
		c-1.5,3.3-3.1,6.8-4.9,10.5c-3.5,7.2-7.5,15-12.1,23c-2.2,4-4.7,8.1-7.2,12.3c-1.2,2.1-2.6,4.1-3.9,6.2c-1.3,2.1-2.6,4.2-4.1,6.3
		c-1.4,2.1-2.8,4.2-4.2,6.3c-1.4,2.1-2.9,4.2-4.4,6.3c-2.9,4.3-6.1,8.5-9.3,12.7c-6.5,8.4-13.2,16.7-20.3,24.8
		c-7.2,8-14.5,15.9-22.2,23.2c-7.6,7.4-15.4,14.4-23.2,20.8c-3.8,3.3-7.8,6.3-11.6,9.3c-2,1.4-3.9,2.9-5.8,4.3
		c-1.9,1.4-3.8,2.8-5.7,4.1c-1.9,1.3-3.8,2.6-5.6,3.9c-1.9,1.3-3.7,2.4-5.6,3.6c-3.7,2.4-7.3,4.5-10.8,6.5c-1.7,1-3.5,2-5.2,2.9
		c-1.7,0.9-3.4,1.8-5,2.7c-3.3,1.7-6.4,3.2-9.4,4.6c-5.9,2.7-11.2,5-15.6,6.6c-4.4,1.8-7.9,2.8-10.2,3.6
		C714.4,891,713.2,891.4,713.2,891.4z"/>
</g>
<g id="XMLID_2400_">
	<path id="XMLID_2429_" d="M752,931.3c0,0,2.5-1.3,6.9-3.5c1.1-0.6,2.3-1.2,3.6-1.9c1.3-0.7,2.7-1.4,4.2-2.2c3-1.6,6.3-3.5,9.9-5.6
		c3.6-2.1,7.4-4.4,11.5-6.9c4-2.6,8.2-5.3,12.5-8.2c2.1-1.5,4.3-3,6.4-4.5c2.1-1.6,4.3-3.2,6.5-4.8c4.3-3.3,8.6-6.8,12.7-10.4
		c4.2-3.6,8.2-7.3,12.1-11.1c3.9-3.8,7.5-7.7,10.9-11.5c3.4-3.9,6.6-7.7,9.4-11.5c2.8-3.8,5.4-7.4,7.6-10.9c0.6-0.9,1.1-1.7,1.6-2.6
		c0.5-0.9,1-1.7,1.5-2.5c1-1.6,1.8-3.2,2.6-4.7c0.8-1.5,1.5-2.9,2.2-4.2c0.7-1.3,1.2-2.5,1.7-3.6c1-2.2,1.8-4,2.3-5.2
		c0.5-1.2,0.8-1.9,0.8-1.9s-0.1,0.7-0.4,2c-0.3,1.3-0.7,3.2-1.4,5.5c-0.3,1.2-0.7,2.5-1.2,3.9c-0.5,1.4-1,2.9-1.6,4.5
		c-0.6,1.6-1.3,3.3-2.1,5.1c-0.4,0.9-0.8,1.8-1.2,2.7c-0.5,0.9-0.9,1.8-1.4,2.8c-0.9,1.9-2,3.8-3.1,5.8c-1.1,2-2.4,4-3.7,6
		c-2.7,4.1-5.7,8.3-9,12.4c-3.4,4.1-7,8.3-10.9,12.3c-3.9,4-8,7.9-12.3,11.6c-4.3,3.7-8.7,7.2-13.2,10.5c-4.5,3.3-9,6.4-13.5,9.1
		c-4.5,2.8-9,5.3-13.2,7.6c-2.2,1.1-4.2,2.2-6.3,3.2c-2.1,1-4,1.9-6,2.8c-3.8,1.8-7.4,3.2-10.6,4.4c-1.6,0.6-3.1,1.2-4.5,1.7
		c-1.4,0.5-2.7,0.9-3.9,1.3c-2.3,0.8-4.2,1.3-5.4,1.7C752.7,931.1,752,931.3,752,931.3z"/>
</g>
<path id="XMLID_2399_" d="M1155.4,443.4c21.9-0.8,43.8,0.7,65.9,9.8l-31.1,11.5l-10.5-15.8L1155.4,443.4z"/>
<polygon id="XMLID_2398_" points="189,576.6 448.1,616 452.4,605.8 238.9,562.7 "/>
<path id="XMLID_2397_" d="M956.2,914c31.2,12.4,43.1,37.9,43.2,71.3l7.2-14l-5.7-28.3l-19.5-21.9l-14.4-9.8L956.2,914z"/>
<path id="XMLID_2396_" d="M729.2,631.3l2.5,19.7h1.8c2.3,0,4-2,3.6-4.2l-2.8-18.8l-5.1,1.6"/>
<path id="XMLID_2395_" d="M844.7,626.7l2.5,19.7h1.8c2.3,0,4-2,3.6-4.2l-2.8-18.8l-5.1,1.6"/>
<g id="XMLID_2392_">
	<path id="XMLID_2426_" d="M708,574.7c0,0,0-0.2-0.1-0.5c-0.1-0.3-0.3-0.8-0.3-1.4c-0.1-0.7-0.1-1.5,0.1-2.4
		c0.1-0.4,0.2-0.9,0.4-1.4c0.2-0.5,0.4-1,0.7-1.5c0.5-1,1.3-2,2.2-3c1-0.9,2-1.8,3.3-2.5c1.2-0.7,2.6-1.3,4-1.8
		c1.4-0.5,2.9-0.8,4.4-1c1.5-0.2,3-0.3,4.5-0.2c1.5,0.1,2.9,0.3,4.3,0.7c1.4,0.3,2.7,0.9,3.8,1.6c1.2,0.7,2.1,1.4,2.9,2.3
		c0.4,0.4,0.7,0.9,1,1.3c0.3,0.4,0.5,0.9,0.7,1.3c0.2,0.4,0.3,0.8,0.4,1.2c0.1,0.4,0.2,0.7,0.2,1.1c0.2,0.6,0.1,1.1,0.1,1.5
		c0,0.3,0,0.5,0,0.5s-0.1-0.2-0.2-0.5c-0.1-0.3-0.3-0.8-0.6-1.3c-0.2-0.5-0.7-1.1-1.1-1.8c-0.5-0.6-1.2-1.2-2-1.8
		c-0.4-0.3-0.8-0.6-1.3-0.8c-0.4-0.3-0.9-0.5-1.5-0.7c-1-0.4-2.2-0.7-3.4-0.9c-1.2-0.2-2.5-0.3-3.8-0.3c-1.3,0-2.6,0.1-3.9,0.2
		c-1.3,0.2-2.6,0.4-3.8,0.8c-1.2,0.4-2.5,0.7-3.6,1.3c-1.1,0.5-2.1,1.1-3,1.8c-0.4,0.3-0.9,0.7-1.2,1c-0.4,0.3-0.7,0.7-1,1.1
		c-0.3,0.4-0.5,0.8-0.8,1.1c-0.2,0.4-0.4,0.8-0.6,1.1c-0.3,0.8-0.5,1.4-0.6,2c-0.2,0.6-0.2,1.1-0.2,1.4
		C708,574.5,708,574.7,708,574.7z"/>
</g>
<g id="XMLID_2389_">
	<path id="XMLID_2405_" d="M822.7,569.8c0,0,0-0.2-0.1-0.5c-0.1-0.3-0.3-0.8-0.3-1.4c-0.1-0.7-0.1-1.5,0.1-2.4
		c0.1-0.4,0.2-0.9,0.4-1.4c0.2-0.5,0.4-1,0.7-1.5c0.5-1,1.3-2,2.2-3c1-0.9,2-1.8,3.3-2.5c1.2-0.7,2.6-1.3,4-1.8
		c1.4-0.5,2.9-0.8,4.4-1c1.5-0.2,3-0.3,4.5-0.2c1.5,0.1,2.9,0.3,4.3,0.7c1.4,0.3,2.7,0.9,3.8,1.6c1.2,0.7,2.1,1.4,2.9,2.3
		c0.4,0.4,0.7,0.9,1,1.3c0.3,0.4,0.5,0.9,0.7,1.3c0.2,0.4,0.3,0.8,0.4,1.2c0.1,0.4,0.2,0.7,0.2,1.1c0.2,0.6,0.1,1.1,0.1,1.5
		c0,0.3,0,0.5,0,0.5s-0.1-0.2-0.2-0.5c-0.1-0.3-0.3-0.8-0.6-1.3c-0.2-0.5-0.7-1.1-1.1-1.8c-0.5-0.6-1.2-1.2-2-1.8
		c-0.4-0.3-0.8-0.6-1.3-0.8c-0.4-0.3-0.9-0.5-1.5-0.7c-1-0.4-2.2-0.7-3.4-0.9c-1.2-0.2-2.5-0.3-3.8-0.3c-1.3,0-2.6,0.1-3.9,0.2
		c-1.3,0.2-2.6,0.4-3.8,0.8c-1.2,0.4-2.5,0.7-3.6,1.3c-1.1,0.5-2.1,1.1-3,1.8c-0.4,0.3-0.9,0.7-1.2,1c-0.4,0.3-0.7,0.7-1,1.1
		c-0.3,0.4-0.5,0.8-0.8,1.1c-0.2,0.4-0.4,0.8-0.6,1.1c-0.3,0.8-0.5,1.4-0.6,2c-0.2,0.6-0.2,1.1-0.2,1.4
		C822.7,569.6,822.7,569.8,822.7,569.8z"/>
</g>
<path id="XMLID_2388_" d="M1151.8,1074.3c28.3-12.2,47.5-6.1,57.7,18.1l-5.7-36.6l-6.2-8.7L1151.8,1074.3z"/>
<polygon id="XMLID_2387_" points="1153,1015.9 1133.2,1046.2 1175.6,1017.8 "/>
<g id="XMLID_2384_">
	<path id="XMLID_2402_" d="M1272.8,972c0,0,0.3-0.2,0.9-0.6c0.6-0.4,1.5-1,2.8-1.6c1.3-0.6,2.9-1.2,4.8-1.7c1-0.2,2-0.5,3.1-0.7
		c1.1-0.1,2.3-0.3,3.5-0.4c2.5-0.2,5.1-0.1,7.9,0.3c2.8,0.3,5.7,1,8.7,2c2.9,0.9,5.9,2.2,8.7,3.8c2.9,1.5,5.6,3.4,8.2,5.4
		c2.6,2.1,4.9,4.4,7.1,6.8c1,1.3,2.1,2.5,3,3.8c0.5,0.6,0.9,1.3,1.4,1.9c0.4,0.7,0.8,1.3,1.2,2c0.8,1.3,1.5,2.6,2.2,3.9
		c0.6,1.3,1.2,2.6,1.8,3.9c0.5,1.3,1,2.6,1.4,3.8c0.4,1.3,0.7,2.5,1,3.6c0.2,1.2,0.5,2.3,0.7,3.4c0.1,1.1,0.3,2.1,0.4,3.1
		c0.3,1.9,0.3,3.6,0.4,5c0,1.4-0.1,2.5-0.1,3.2c0,0.7-0.1,1.1-0.1,1.1s-0.6-1.5-1.4-4.1c-0.5-1.3-1-2.8-1.7-4.5
		c-0.4-0.9-0.7-1.8-1.1-2.7c-0.4-0.9-0.9-1.9-1.4-2.9c-0.5-1-1-2-1.6-3.1c-0.6-1.1-1.2-2.1-1.8-3.2c-0.7-1.1-1.4-2.2-2.1-3.3
		c-0.8-1.1-1.5-2.2-2.3-3.3c-1.6-2.2-3.5-4.3-5.4-6.4c-2-2-4.1-4-6.4-5.8c-2.3-1.8-4.6-3.5-7-5c-2.4-1.5-4.9-2.8-7.4-3.9
		c-2.5-1.1-5-2-7.4-2.7c-2.4-0.7-4.7-1.2-6.9-1.5c-2.2-0.3-4.2-0.5-6-0.5c-1.8,0-3.4,0.1-4.7,0.2c-0.6,0.1-1.2,0.2-1.8,0.2
		c-0.5,0.1-1,0.2-1.3,0.3C1273.2,972,1272.8,972,1272.8,972z"/>
</g>
<path id="XMLID_2383_" d="M936.4,391.6c3.8,13.7,22.6,22.7,46.7,30.1l-57.7-11L936.4,391.6z"/>
<g id="XMLID_2379_">
	<line id="XMLID_2394_" class="st5" x1="24" y1="983.8" x2="142" y2="985.7"/>
	<polygon id="XMLID_2393_" points="24,983.8 142.1,981.8 142,989.7 	"/>
</g>
<g id="XMLID_2375_">
	<line id="XMLID_2390_" class="st5" x1="1395.9" y1="976.8" x2="1508" y2="980.6"/>
	<polygon id="XMLID_2386_" points="1396,972.9 1508,980.6 1395.8,980.8 	"/>
</g>
<line id="XMLID_2374_" class="st6" x1="1164.5" y1="962.7" x2="1267.1" y2="963.3"/>
</svg>
