<?xml version="1.0" encoding="utf-8"?>
<!-- Generator: Adobe Illustrator 22.1.0, SVG Export Plug-In . SVG Version: 6.00 Build 0)  -->
<svg version="1.1" id="Layer_6" xmlns="http://www.w3.org/2000/svg" xmlns:xlink="http://www.w3.org/1999/xlink" x="0px" y="0px"
	 viewBox="0 0 1527.1 1502.4" style="enable-background:new 0 0 1527.1 1502.4;" xml:space="preserve">
<style type="text/css">
	.st0{fill:#FFFFFF;}
	.st1{fill:none;stroke:#000000;stroke-width:8;stroke-miterlimit:10;}
	.st2{fill:#E84B6C;}
	.st3{fill:none;stroke:#000000;stroke-width:4;stroke-miterlimit:10;}
</style>
<polygon id="XMLID_2060_" class="st0" points="209.6,862.5 197.2,813.2 203.4,801.7 198.8,790.7 181.4,787.8 162.4,755.5 
	139.6,739.8 113.7,746.5 89.1,778.2 82.3,793.9 69.5,778.2 50.9,778.2 26.9,802.9 12,833.9 20.8,859.1 50.9,869 86.3,869 
	96.2,850.8 110,856.9 121.2,888.5 96.2,914.4 89.1,946.8 134.8,1060.3 188.9,1137.3 209.6,1142.5 232.5,1119.2 257.4,1084.9 
	392.1,911 404.7,882.9 424.8,844.1 446.6,837.3 437,829.3 415.8,828.6 410.4,818.4 402.4,813.2 382.1,802.9 382.1,795.9 
	368.2,793.9 349.1,800.1 336.1,817.6 327,801.7 320,793.9 313.1,810 314.7,839.8 338.4,878.5 346.4,896.3 267.3,864.7 243.7,841.7 
	223.4,839.8 213.9,853.2 "/>
<path id="XMLID_2057_" class="st0" d="M833,1202.2l-60.9-24.2l-54.3-0.5l16.2-143.1l29,25.3l48-20.8L925.3,955l-2.6-15.8l-10.6-7.6
	l-29.9,0.2l-58.2,17.9l-70,40.7l-12.4-11.8l-1.1-145.3l-17.7-17.5l-22.6-8.7l-39.9,21.6l-49,30.5L501.7,749.8l-38-10l-19.9,1.1
	l-44.4,162.2L363,1019.8l-79.5,107.6l52.6,37.9l31.4,17.9l48.4-17.9l37.5-29.9L630,954.4l38.2,30.1l-2.7,189.8l11.6,2.7l-1.4,51.3
	l10.2,13.3l201.9,8.5l2.8-20.1l-10,0.6L833,1202.2z M462.8,971.3l24.8-118.1l1.6-7.5l72.2,57.4L462.8,971.3z"/>
<polygon id="XMLID_2056_" class="st0" points="662.7,451.4 660.2,490.1 676.1,523.3 723,519.9 732.6,542.4 780.5,532.4 780.5,514 
	825.3,513.4 796.3,381.8 789.5,381.8 778.4,371.6 747.6,386.4 743,378.8 724.7,392.1 702.5,398.4 695.5,409.8 686.7,411.3 
	676.1,414.8 662.6,444.6 "/>
<polygon id="XMLID_2055_" class="st0" points="817.8,392.1 830.9,367.1 874,337.5 917.4,326.1 921.7,339.1 908.6,352.9 865.2,367.1 
	826.1,387.8 "/>
<polygon id="XMLID_2054_" class="st0" points="827.1,429.1 857.4,417.2 873.9,397.8 901.1,369.3 921.7,362.9 931.7,363.9 
	931.7,378.3 908.6,386 879.4,403.2 864.2,423.5 843.7,434 "/>
<polygon id="XMLID_2053_" class="st0" points="836.1,471.4 858.5,464.6 874,445.6 893.6,434 906,434 908.6,445.6 908.6,455 
	887.4,474.5 859.9,486.7 832.7,483.3 825.3,470.6 "/>
<polygon id="XMLID_2052_" class="st0" points="980,439.7 980,369.7 968.1,371.6 957.4,362.8 951.7,340.8 957.4,335.1 968.1,337.5 
	974.5,339.9 980,309.8 994.2,287.9 1017.8,276 1061.5,267.5 1074.8,270.6 1074.8,280 1098.1,282.5 1109.5,290.6 1109.5,301.2 
	1092.8,311.1 1098.1,314.4 1103.7,321.1 1084.7,329.9 1065.6,339.9 1074,347.3 1050.5,373.8 1059.1,423.4 1021.7,471.4 "/>
<path id="XMLID_2051_" class="st0" d="M1083.1,662.6L908.6,843.3l-6.3,61.9l94.8,135.9l20.2-12.9l39.8-18.4l-75.8-113.5l131.2-135.6
	l5.8,141.2l10,64.5l15.5,11.3c55.4-3.4,124.5-20.7,198.8-43.5l-13.4-21.6l-1.4-56.5l-136.3,26.8l3.6-201.7l-6-23.6l-23.8,14h-50.1
	L1083.1,662.6z"/>
<polygon id="XMLID_2050_" class="st0" points="1271.5,724.7 1284.8,750.3 1336.1,773.2 1368.7,773.2 1383,765.1 1395.3,754.8 
	1384.1,749.5 1353.4,760.1 1337.6,757.8 1388.1,743.1 1401.9,732.7 1401.9,723 1395.3,714.8 1354.3,741.5 1346.1,739.8 
	1374.6,714.8 1387.5,701.5 1377.7,689.8 1369,703.6 1337.6,723 1349.9,697.4 1356.1,671.6 1347.2,678 1329.7,694.2 1315.7,707 "/>
<polygon id="XMLID_2049_" class="st0" points="965.1,1132.7 963.9,1107.3 930.6,1127.3 925.3,1137.4 930.8,1146.7 958.1,1154.9 
	1025.7,1146.7 1130.1,1116.2 1139.7,1111.8 1130.1,1100.1 1077.7,1123.7 "/>
<polygon id="XMLID_2048_" class="st0" points="1402.5,973.7 1407.8,1009.8 1416.8,1028.2 1432.1,1028.1 1452.9,999.4 1470.8,940.6 
	1468.6,901.9 1443.8,832.8 1426.6,834.2 "/>
<g id="XMLID_2045_">
	<polygon id="XMLID_2047_" points="722.7,1149.6 1514,1154.9 722.7,1160.2 	"/>
</g>
<line id="XMLID_2044_" class="st1" x1="437" y1="1154.9" x2="659.6" y2="1154.9"/>
<g id="XMLID_2041_">
	<polygon id="XMLID_2043_" points="26.9,1154.9 313.1,1149.6 313.1,1160.2 	"/>
</g>
<polygon id="XMLID_2040_" class="st2" points="1322.1,854.7 1423.2,837.7 1442,862.6 1453.7,907.5 1453.7,934.3 1442.4,977.7 
	1410.7,973.7 1403.8,915.7 1346.1,939.3 1329.8,920.9 1327.9,887.4 "/>
<polygon id="XMLID_2039_" class="st2" points="996.2,1047.2 1010.7,1028.2 1044,1015.1 1062.3,1004.1 1107.9,1077.7 1130.1,1105.9 
	1090.2,1114.6 1039.7,1131.1 965.1,1132.7 963.9,1104.2 1033.3,1099.6 "/>
<polygon id="XMLID_2038_" class="st2" points="1020.6,466.8 976.4,437.2 956.9,454.8 935.5,498.2 905.1,623.5 893.7,667.1 
	874,664.6 778.1,527.5 732.6,542.4 778.4,619.5 827.1,697.4 856.5,725.3 897.6,733.8 919.5,730.8 943.8,697.4 981.7,585.5 
	993.3,567.4 1092.1,663.9 1104.6,666.1 1125.9,677 1191.5,661.9 1189.9,582.8 1159.1,483.3 1196.4,545.6 1227.3,643.3 1229.7,674.7 
	1265.8,730.6 1307.6,718.5 1321.9,698.1 1237.3,531.1 1205,448.6 1153.8,404.5 1103.7,404.5 1063.2,418.8 "/>
<polygon id="XMLID_2037_" points="131.2,887.2 113.7,900.2 131.3,914.3 166.1,967.4 211.5,1053.6 314.2,938.4 293.7,910.4 
	246.6,860.6 215.7,844.1 208.1,848.5 211.5,880.7 211.5,903.1 195.7,921.7 170.3,921.7 150.4,903.1 "/>
<polygon id="XMLID_2036_" points="250.6,1104.5 340.6,967.4 362.9,998.9 363,1019.8 344.9,1068.4 314.7,1093.2 280.1,1135.5 "/>
<polygon id="XMLID_2035_" class="st2" points="338.1,903.1 283.5,903.1 273.8,862.5 280.3,831.6 302.3,796.4 321.5,772.9 
	354.7,790.7 349.3,800.1 331.5,815.6 328.8,802.9 318.2,795.9 314.3,802.9 310.5,819.6 320.6,843.7 332.1,871.5 345.2,886.2 "/>
<polygon id="XMLID_2034_" class="st2" points="457.6,848.5 440.6,837.8 424.8,854.7 408.9,872.2 399.5,895.9 390.5,914.4 424,917.6 
	440.7,917.6 454.5,904.2 462.8,867.7 "/>
<path id="XMLID_2033_" d="M816.6,387.1l-10.1-8.3l-10.2,3l-10.2,16.6V434l11.1,44.4c3.9,11.8,9.3,26.7,20.6,35l15.7-4l10.2-12.9
	v-13.3l-22.1-7.9l-4.9-8.5l16.4,7.1l14.4-2.5l2-12.5l-5.7-24.9l-13.9-4.6l-17.3-1.6l18.4-5.8l10.6-3.1l-13.9-25L816.6,387.1z"/>
<circle id="XMLID_2032_" class="st2" cx="244" cy="482.1" r="20"/>
<circle id="XMLID_2031_" class="st2" cx="598.5" cy="520.8" r="18.3"/>
<ellipse id="XMLID_2030_" transform="matrix(0.1602 -0.9871 0.9871 0.1602 -156.8673 1909.946)" class="st0" cx="1044" cy="1047.2" rx="21.8" ry="21.8"/>
<circle id="XMLID_2029_" class="st0" cx="1369" cy="890.8" r="21.8"/>
<polygon id="XMLID_2028_" class="st2" points="415.8,1067.6 402.4,1095.4 431.2,1093.2 "/>
<polygon id="XMLID_2027_" class="st2" points="446.6,1000.4 446.6,1022.7 465.8,1011.6 "/>
<polygon id="XMLID_2026_" class="st2" points="515.6,1064.2 508.5,1033.5 528.1,1040.7 "/>
<polygon id="XMLID_2025_" class="st2" points="503.7,963.1 508.5,988.5 520.9,964 "/>
<polygon id="XMLID_2024_" class="st2" points="579.8,948.9 570.9,969.4 590.8,967.4 "/>
<polygon id="XMLID_2023_" class="st2" points="336.1,1090.8 352.5,1104.9 352.5,1082.9 "/>
<polygon id="XMLID_2022_" class="st2" points="406.5,1160 406.6,1137.3 421.4,1148.7 "/>
<polygon id="XMLID_2021_" class="st2" points="416.8,941.3 411.4,967.4 426.6,963.1 "/>
<polygon id="XMLID_2020_" class="st2" points="478,782.1 471.8,808.8 487,799.4 "/>
<polygon id="XMLID_2019_" class="st2" points="535,854.7 538.1,836.7 547.9,848.5 "/>
<polygon id="XMLID_2018_" class="st2" points="533.2,792.4 541.4,802.5 529,806.5 "/>
<polygon id="XMLID_2017_" class="st2" points="605,912.6 623.1,908.3 617.7,924.7 "/>
<polygon id="XMLID_2016_" class="st2" points="598.3,867.7 601.4,880.7 614.1,874.2 "/>
<polygon id="XMLID_2015_" class="st2" points="673.5,952.4 665.5,969.4 684,967.4 "/>
<polygon id="XMLID_2014_" class="st2" points="705.7,1067.6 696.5,1090.3 708.4,1088.6 "/>
<polygon id="XMLID_2013_" class="st2" points="686.7,1123.5 698.6,1137.3 684,1142.5 "/>
<polygon id="XMLID_2012_" class="st2" points="702.8,867.7 697.8,882.9 715.6,882.1 "/>
<polygon id="XMLID_2011_" class="st2" points="660.2,836.7 676.1,845.7 676.1,833.9 "/>
<circle id="XMLID_2010_" class="st2" cx="232.5" cy="671.6" r="15.5"/>
<circle id="XMLID_2009_" class="st2" cx="654.1" cy="650.9" r="15.5"/>
<path id="XMLID_2008_" class="st3" d="M1055.8,1098.2c68.6-13,125.1-33.5,165.9-63.8"/>
<path id="XMLID_2007_" class="st3" d="M1077.8,1078c66.9-20.1,120.9-46.4,158.3-80.8"/>
<path id="XMLID_2006_" class="st3" d="M47.5,1040.6c40.4-5.2,72.2-21,92.6-50.7"/>
<path id="XMLID_2005_" class="st3" d="M47.4,1015.2"/>
<path id="XMLID_2004_" class="st3" d="M50.9,1011.6c28.7-6.4,52.3-15.9,62.8-33.1"/>
<path id="XMLID_2003_" class="st3" d="M1171.9,465c40.4-5.2,72.2-21,92.6-50.7"/>
<path id="XMLID_2002_" class="st3" d="M1171.8,439.7"/>
<path id="XMLID_2001_" class="st3" d="M1160.2,446.1c28.7-6.4,52.3-15.9,62.8-33.1"/>
<g id="XMLID_1872_">
	<path id="XMLID_1945_" d="M1178.4,530c0.5,2.4,1,4.7,1.6,7.1c4.1,15.1,7.4,30.3,9.8,45.7c1.8,11.4,3.6,22.8,5.1,34.2
		c1.1,8.5,1.8,17,2.7,25.5c0.3,3.3,0.7,6.7,0.9,10c0.4,4.6,0.8,9.2,1,13.9c0.7,19.7,1.6,39.4,1.5,59.1c-0.1,17.8,0,35.7-0.3,53.5
		c-0.3,13.2-1,26.4-1.7,39.5c-0.3,6.3-0.9,12.6-1.3,18.9c0,0.6-0.1,1.1-0.1,1.7c0,12.1-0.1,24.2-1.2,36.2c0,0.5,0.2,1.1,0.2,1.5
		c0.8,1,1.8,0.8,2.6,0.7c5.9-0.8,11.8-1.4,17.7-2.4c14.7-2.4,29.3-4.8,43.9-7.5c11.7-2.2,23.3-4.7,34.9-7.2
		c23.8-5.1,47.5-10.4,71.3-15.4c11.1-2.3,22.2-4.3,33.4-6.3c5.8-1,11.8-1.7,17.6-2.7c5-0.8,9.7-2.3,14.5-3.7c2-0.6,3.9-1.1,5.9-1.6
		c2.3-0.6,4,0,5.2,2.1c0.9,1.6,1.9,3.2,2.7,4.8c7.3,15.3,13.7,30.9,18.2,47.3c3.4,12.8,5.8,25.7,6.4,39c0.6,13.7-0.8,27-4.5,40.3
		c-2.5,9.2-5.7,18-10.1,26.5c-1.5,2.8-2.6,5.7-3.5,8.8c-2.8,8.8-7.3,16.7-13.8,23.3c-2.1,2.1-4.4,4.1-7.1,5.4
		c-6,2.9-11.8,2.5-17.5-1.1c-6.4-4.1-9.6-10.2-11-17.4c-0.8-4-1.2-8.1-1.3-12.2c-0.1-14.1,0-28.2,0.7-42.4
		c0.5-9.8,0.4-19.7,0.5-29.5c0-0.3-0.2-0.7-0.4-1.1c-1.7-0.4-3.2,0.4-4.7,0.9c-8.5,2.6-17,5.3-25.6,7.9c-5.9,1.8-11.8,3.4-17.7,5.1
		c-36.2,10.7-86,22.6-117.7,29.9c-12.3,2.8-24.6,5.8-36.9,8.4c-13.6,2.9-27.4,5.3-41.2,6.9c-5.5,0.6-11.1,1-16.6-0.6
		c-1-0.3-2.2-0.2-3.3-0.2c-3,0.1-5.4-1.1-7.7-2.8c-2.5-2-4.5-4.5-6.1-7.2c-2.3-3.9-4-8-5.3-12.3c-2.6-8.5-4.4-17.3-5.7-26.1
		c-1.8-12.3-3.1-24.7-4.2-37.1c-0.5-5-0.8-10-1.1-15c-0.5-10-1-20-1.5-30.1c-0.6-12.4-1.2-24.9-1.8-37.3c-0.5-10.8-1-21.5-1.6-32.3
		c-0.1-2.4-0.3-4.8-0.5-7.2c-0.1-0.7-0.5-1.3-0.7-1.8c-0.5,0-0.7-0.1-0.8,0c-38.2,40.1-76.4,80.2-114.5,120.3
		c-0.4,0.4-0.5,1-0.7,1.4c0.3,1.8,1.4,3.1,2.3,4.5c1.3,1.8,2.6,3.6,4,5.3c12.1,14.9,23.1,30.5,34.1,46.2
		c20.9,29.8,42.5,59.2,63.7,88.8c10.5,14.7,20.8,29.5,30.9,44.4c6,8.9,11.6,18.2,17.3,27.3c0.6,0.9,1,2,1.5,3.1
		c-0.6,0.5-1.1,1.2-1.7,1.5c-22.6,10.1-45.8,18.5-70.1,23.7c-4,0.9-7.9,2-11.8,3.2c-13.3,4.2-26.9,7.4-40.5,10.1
		c-7.6,1.5-15.3,2.9-23.1,3.9c-9.8,1.2-19.6,1.8-29.5,1c-7.5-0.6-14.8-1.7-21.9-3.8c-3.8-1.1-7.4-2.4-10.8-4.4
		c-2.8-1.6-5.3-3.5-7.3-6c-3.4-4.3-4.1-9-2.1-14.1c1.2-3.2,3.1-5.9,5.4-8.4c3.7-4,8-7.1,12.8-9.8c7.2-4,15-6.5,23.1-7.7
		c6.4-1,12.9-1.6,19.4-2.4c13.3-1.6,26.6-3,39.7-5.4c0.7-0.1,1.4-0.3,2-0.5c0.5-1.5-0.5-2.3-1.1-3.1c-5.8-7.9-11.7-15.8-17.5-23.8
		c-11.7-16.1-23.4-32.2-35.1-48.3c-14.7-20.3-28.9-41-42.7-62c-0.9-1.3-1.4-3-3.4-3.7c-3.4,6.4-8.8,11-13.9,15.7
		c-14.7,13.6-30.8,25.1-47.9,35.3c-3.8,2.3-7.6,4.7-11.4,7c-6.7,4.1-13.4,8-20,12.1c-7.1,4.4-14.2,8.9-21,13.7
		c-9.2,6.4-18.9,11.8-28.8,16.9c-2.5,1.3-5.1,2.3-7.6,3.4c-3.8,1.5-7.6,1.4-11.5,0.5c-2.2-0.5-4.1-1.7-5.8-3.2
		c-1.8-1.6-3.5-3.3-5.8-4.2c-0.6-0.2-1.2-0.9-1.7-1.4c-2.9-3-6.5-4.9-9.5-7.2c-1.3,0.1-1.4,0.9-1.5,1.6c-0.2,0.9-0.3,1.8-0.3,2.8
		c-1.3,13.9-2.3,27.8-3.8,41.6c-1.7,15.9-3.6,31.8-5.5,47.6c-1.1,9-2.7,18-4,27c-0.3,2-0.7,4-0.2,6.2c0.8,0.2,1.5,0.5,2.2,0.6
		c2.8,0.3,5.5,0.7,8.3,0.8c12.5,0.8,24.7,3.2,36.8,6.1c28.1,6.8,55.1,16.7,81.3,28.7c9.5,4.4,18.6,9.3,27.2,15.2
		c3.5,2.4,7,5,9.9,8.1c1.4,1.5,2.6,3.1,3.6,4.9c1.7,3,1.4,6.1-0.2,9.1c-1.4,2.7-3.6,4.8-6.3,6.1c-2.3,1.1-4.8,2-7.3,2.6
		c-9.7,2-19.5,2.4-29.4,1.8c-3.2-0.2-6.3-0.3-9.5-0.5c-9.3-0.6-18.5-1.3-27.8-1.9c-5.4-0.4-10.7-0.9-16.1-1.2
		c-8.2-0.5-16.3-0.9-24.5-1.4c-10-0.6-20-1.2-30-1.8c-7.4-0.4-14.8-0.8-22.3-1.3c-8-0.4-16-1-23.9-1.3c-4-0.2-7.7-1.2-11.1-3.3
		c-2.6-1.7-5.1-3.7-7.6-5.7c-2.4-2-3.6-4.7-3.9-7.8c-0.6-5.6-0.7-11.1-0.5-16.7c0.3-9.3,0.6-18.6,0.8-27.9c0-1.1-0.2-2.2-0.3-3.4
		c-1.6-0.7-3.2-1.3-4.7-2c-2.3-1.1-4.6-2.4-6.9-3.5c-1.7-0.8-2.5-2.3-2.6-4c-0.3-3-0.5-5.9-0.5-8.9c0.1-13.4,0.1-26.8,0.5-40.1
		c0.3-12.6,1-25.3,1.6-37.9c0-1.1,0.1-2.2,0.2-3.3c0.5-14.7,0.8-29.4,1.4-44c0.4-9.1,1.1-18.2,1.8-27.2c0.4-5,1-10,1.7-15
		c0.2-1.8-0.1-3.2-1.7-4.4c-11-8.5-22-17.1-33-25.6c-0.4-0.3-1-0.5-1.7-0.9c-0.8,0.7-1.7,1.3-2.4,2.1c-39,40.6-78,81.3-117.1,121.8
		c-15.2,15.8-30.7,31.4-46.2,46.9c-9.9,9.9-20.4,19-31.4,27.6c-7,5.5-14.5,10.4-22.5,14.3c-9.3,4.6-19.1,6.9-29.5,7.6
		c-11.9,0.7-23.3-1.4-34.3-6c-2.9-1.2-5.8-2.5-8.6-3.9c-4.9-2.3-9.7-4.6-14.6-6.9c-7.4-3.5-14.3-7.9-21-12.6
		c-12.2-8.5-23.8-17.8-34.4-28.3c-4.7-4.7-9.5-9.5-14.2-14.2c-0.5-0.5-1.1-1-1.8-1.6c-1.1,1.2-2.1,2.3-3,3.4
		c-5.7,7.1-11.7,14-18.6,19.9c-3.2,2.8-6.6,5.4-10.1,7.8c-3.5,2.5-7.5,4.1-11.8,4.9c-7.5,1.4-14.4,0.1-20.5-4.7
		c-3.6-2.9-7.3-5.8-10.9-8.7c-1.9-1.5-3.4-3.4-4.7-5.5c-14.4-23.2-28.7-46.5-42-70.3c-12-21.4-22.7-43.5-31.5-66.4
		c-4.7-12.1-8.8-24.5-12-37.1c-1.2-4.9-2.1-9.8-2.5-14.8c-1-12.9,2.6-24.2,12-33.5c5.9-5.8,12.2-10.9,19.1-15.4
		c1.1-0.7,2.2-1.4,3.2-2.1c0.3-1.8-0.2-3.4-1-4.9c-3.3-6.9-6.6-13.7-10-20.5c-0.7-1.3-1.6-2.5-2.5-3.7c-1.2-1.6-2.9-2.2-4.9-2
		c-1.2,0.1-2.2,0.4-2.9,1.4c-0.2,0.3-0.5,0.6-0.7,0.9c-8,11.5-25.4,18.7-39.7,17.3c-4.1-0.4-8.1-0.8-12.1-1.9
		c-7.3-2-13.8-5.4-19.6-10.3c-10.3-8.7-14.9-19.7-13.6-33.1c1.2-13.5,6.1-25.6,14-36.5c3.6-5,7.9-9.4,13.1-12.8c6-4.1,12.7-6,20-5.6
		c5.1,0.3,9.9,1.6,14.2,4.3c2.2,1.4,4.3,3,6.4,4.5c0.9,0.6,1.7,1.3,2.8,2.1c0.4-0.6,0.8-1,0.9-1.5c0.2-0.9,0.4-1.8,0.5-2.7
		c1.1-9.9,5.4-18.5,11.8-26c5.7-6.8,12.7-12,20.8-15.6c13.1-5.9,26-5.2,38.5,2c6.6,3.9,12.4,8.9,17.5,14.6
		c5.6,6.3,10.3,13.2,14.4,20.5c1,1.8,2,3.6,3,5.4c1.3,0.5,2.5,0.9,3.7,1.4c10.9,4.6,15.5,15.9,11,26.7c-0.2,0.5-0.4,1-0.7,1.5
		c-1.1,1.7-1.1,3.4-0.6,5.3c1.5,5,2.9,10,4.2,15c0.8,3,1.5,6.1,2.2,9.2c0.2,0.7,0.6,1.3,0.8,1.8c1.6,0.1,2.2-0.9,3.1-1.5
		c3.1-2.1,6.6-3.5,10.2-4.3c4.3-0.9,8.5-0.5,12.7,0.6c5.8,1.6,11.2,4,16.2,7.2c4.7,3,9.2,6.2,13.8,9.4c1.2,0.8,2.4,1.7,3.5,2.4
		c1.1-0.3,1.3-0.9,1.4-1.7c1.3-18.2,7.9-34.6,17.6-49.9c6.2-9.7,13.3-18.8,20.8-27.6c3-3.6,6.2-6.9,10.5-9.3c3.5,0.9,6.9,2.2,10.2,4
		c8.9,5,18,9.7,26.9,14.7c2.7,1.5,5.4,2.4,8.5,2c1.8-0.2,3.7-0.2,5.5-0.4c6.7-0.5,11.4,2.4,14,8.6c0.5,1.2,0.9,2.4,1.4,3.7
		c2,0.5,4,0.9,6,1.4c4.2,1,7.9,3.1,11.3,5.9c2.8,2.3,5,5,6.3,8.4c0.5,1.3,1.4,2.2,2.7,2.5c1.2,0.3,2.4,0,2.9-1
		c0.6-1.4,1.2-2.7,1.7-4.1c3.3-9.5,6.5-19,9.8-28.5c4.4-13,8.8-26,13.3-39c0.8-2.5,1.8-4.9,3-7.2c4.4-8.4,12.8-12.2,22-9.9
		c4,1,7.8,2.5,11.5,4.3c8.6,4,16.7,9,24.4,14.5c12.7,9.1,24.7,19,36.4,29.4c19.4,17.1,38.5,34.5,57.2,52.3c1.3,1.3,2.7,2.5,3.9,3.5
		c1.4,0,2.1-0.7,2.8-1.3c8.8-8.1,16.6-17.1,23.4-26.9c5.6-8.1,8.8-17.2,9.5-27c0.4-6-0.7-11.8-2.6-17.5c-2.2-7-5.7-13.3-9.8-19.3
		c-5.2-7.6-11.4-14.2-18.2-20.3c-3.4-3.1-7-6.1-10.7-9c-7.7-6-16.2-10.5-25.2-14.2c-9.3-3.8-18.9-6.7-28.6-9.4
		c-20-5.7-40.4-10.1-60.9-13.6c-11.5-2-23.2-3.3-34.8-4.9c-8.1-1.1-16.2-2-24.4-2.9c-4.6-0.5-9.2-0.9-13.9-1.2
		c-7.6-0.6-15.2-1.1-22.8-1.5c-16-0.8-31.9-1.5-47.9-2.3c-13.5-0.7-27.1-1.4-40.6-2.2c-12.4-0.7-24.9-1.4-37.3-2.2
		c-9.3-0.6-18.6-1.2-27.8-2.3c-20.1-2.4-40-6.3-59.2-13c-12-4.2-23.1-10.1-32.9-18.4c-9.1-7.6-14.6-17.2-17.5-28.4
		c-3.3-12.7-2.8-25.4,0.4-38c3.9-15.1,10.7-28.9,19.9-41.4c3.5-4.8,7.3-9.4,11.2-13.9c9.7-11.6,22.2-19.1,36.8-22.9
		c7.6-2,15.3-3.2,23.1-3.6c2-0.1,4.1,0,6.3-0.6c0.6-1.3,1.2-2.6,1.8-3.9c2.7-5.7,6.7-10.2,11.8-13.9c1.3-1,2.9-1.7,4.4-2.4
		c1.9-0.7,3.8-1.3,6-0.6c1,0.3,2.2,0.2,3.3,0.3c8.4,0.8,15.3,4.3,20.2,11.3c2.6,3.7,4.7,7.6,5.6,12c0.5,2.4,1.8,3.4,4,3.9
		c11.2,2.8,22.1,6.5,32.9,10.4c20.4,7.4,40.7,15.2,60.6,24c11.7,5.2,23,11.4,33.9,18.1c21,12.8,40.7,27.3,59.6,43.1
		c8.6,7.1,17.1,14.3,25.7,21.4c21.8,18.1,44.7,34.6,68.9,49.2c24.1,14.5,49.4,26.5,76,35.8c10,3.5,20.2,6.4,30.7,7.9
		c7.8,1.1,15.5,1.4,23.3-0.5c4.8-1.2,9.1-3.3,12.9-6.4c4.3-3.6,8.1-7.7,11.1-12.4c2.8-4.3,4.2-9.1,4-14.3c-0.2-3.8-1.4-7.3-3.1-10.6
		c-2-3.8-4.6-7.2-7.5-10.3c-9.4-9.9-19.8-18.5-32.1-24.7c-7.2-3.6-14.5-6.7-22.1-9.2c-9-3-18-5.9-27.1-8.6
		c-18.7-5.6-37.3-11.5-55.6-18.1c-12.3-4.4-24.3-9.2-36-15.1c-12-6.1-22.8-14-32.7-23.1c-7.1-6.5-11.3-14.6-12.9-24.1
		c-1.3-8,0.2-15.5,4.5-22.4c4.5-7.2,10.8-12.2,19-14.6c6.8-2,13.8-3.2,20.8-3.7c9.5-0.6,19-0.6,28.4,0.1c9.4,0.8,18.8,2,28.2,3.6
		c13.4,2.4,26.7,4.6,40.2,5.9c9.2,0.9,18.5,1.5,27.8,1.3c0.9,0,1.8-0.2,2.9-0.3c0-0.9,0.2-1.6,0.1-2.3c-1.5-6.2-2-12.5-2.4-18.8
		c-0.3-4.1-0.2-8.2,0.5-12.2c0.2-1.1,0.4-2.2,0.7-3.3c0.8-2.6,2.3-4.6,4.8-5.9c1.3-0.6,2.6-1.4,3.9-2.2c0.6-2.8,1.1-5.5,1.7-8.2
		c2-9.3,7-16.7,14.6-22.4c3.2-2.4,6.4-4.5,10.7-3.6c1.1-1.2,2.1-2.3,3.1-3.4c3.6-4.1,7.9-7.4,12.8-9.7c5.4-2.5,10.8-4.9,16.9-5.3
		c0.9-0.1,1.7-0.6,2.5-1c1.1-0.7,2-1.6,3.1-2.4c6-4.7,12.8-7.5,20.3-8.4c1.1-0.1,2.2-0.3,3.3-0.4c1.7-0.1,3.3-0.5,4.7-1.5
		c0.3-0.2,0.7-0.3,1-0.5c5-2.8,10.3-4,16.1-3.8c8.8,0.4,7.4,0,13.7,4.8c0.9,0.7,1.8,1.4,2.6,2c0.1,0.1,0.3,0.1,0.8,0.3
		c1.7-0.5,3.6-1.1,5.6-1.6c2.9-0.8,5.8-1.2,8.8-0.5c2.4,0.5,4.6,1.4,6.4,3.1c0.9,0.9,1.9,1.8,2.8,2.7c3.1,3.1,3,3,5.5-0.8
		c2.5-3.9,4.9-7.9,7.7-11.6c8.3-11.2,18.8-20,30.7-27.1c11.1-6.6,23-11.3,35.5-14.5c5.8-1.5,11.7-2.1,17.7-1.8
		c3,0.2,5.9,0.7,8.7,1.9c5.5,2.3,7.6,6.9,6.2,12.7c-0.9,3.6-2.8,6.4-5.7,8.7c-2.9,2.3-6.2,4.1-9.7,5.4c-4.2,1.5-8.4,2.9-12.7,4.1
		c-5.2,1.5-10.4,2.8-15.6,4.2c-9,2.5-17.6,5.8-26.1,9.6c-10.4,4.7-19.8,11-28.2,18.8c-0.9,0.9-1.7,1.9-2.7,2.9
		c0.4,0.8,0.7,1.5,1.1,2c4.7,6.7,9.7,13.2,13.7,20.3c0.5,0.8,1.5,1.1,2.4,0.7c10.8-4.7,21.1-10.2,29.1-19.2
		c3.8-4.3,7.5-8.7,11.1-13.2c4.7-5.8,10-11,16.1-15.3c4.9-3.4,10.3-5.9,16.2-7.3c3.9-0.9,7.7-1.1,11.5,0.4c1,0.4,2.1,0.9,3,1.5
		c2.9,2,4,5.4,3.1,8.8c-0.7,2.6-2,4.8-4.1,6.4c-1.6,1.2-3.3,2.5-5.1,3.5c-6.8,3.8-13.6,7.6-20.5,11.4c-4.9,2.7-9.8,5.4-14.6,8.1
		c-3.6,2-6.9,4.4-10,7.1c-2.9,2.6-5.8,5.2-8.8,7.7c-2.5,2.2-5.1,4.4-7.6,6.5c-3.7,3.1-7.9,5.6-12.4,7.4c-1,0.4-2,0.9-2.7,1.2
		c-1,1.3-0.6,2.4-0.4,3.5c1,5.3,2.2,10.5,3.1,15.8c0.3,2,0.2,4.1,0.3,6.1c0.1,1-0.4,2.2,0.4,3.1c1.1,0.3,1.8-0.4,2.5-1
		c4.1-3.5,8.2-7,12.1-10.7c3.7-3.4,7.1-7.1,10.7-10.6c2.8-2.7,5.8-5.2,9.2-7.2c3.1-1.8,6.3-3.1,9.9-3.4c0.9-0.1,1.9-0.1,2.8,0
		c6.1,0.6,10.4,4.5,11.2,10.5c0.6,4.1,0.4,8.1-0.8,12.1c-4.3,14.6-13.4,25-27.5,31c-7.3,3.1-14.8,4.9-22.7,5.1
		c-2.6,0.1-5.2,0.1-7.8,0.1c-1.3,0-2,0.6-2.3,1.9c-0.4,1.4-0.7,2.9-1.1,4.3c-1,4.6-2.9,8.8-4.9,13c-1,2.1-2.5,3.6-4.3,5
		c-6.5,4.7-13.6,7.3-21.7,7.9c-11.1,0.8-22.2,2.2-33.3,3.4c-0.2,0-0.4,0.1-0.5,0.1c-0.7,0.1-1.3,1-0.9,1.7c1.1,2,2,4,3.3,5.8
		c13.2,19.3,26.5,38.6,39.7,58c12.3,18.1,25.1,36,38.3,53.5c4.1,5.5,8.6,10.7,13.9,15.2c1.3,1.1,2.6,2.1,3.9,3.1
		c2.7,1.9,7.2,1.6,9.8-0.6c0.4-0.3,0.7-0.9,0.9-1.4c0.3-0.9,0.6-1.8,0.8-2.7c6.2-25.8,13.6-51.4,20.5-77c4.6-17,8.8-34.2,13.1-51.3
		c3.7-14.8,7.9-29.4,13.3-43.7c2.1-5.6,4.6-11,7.5-16.1c2.5-4.4,5.4-8.4,8.6-12.3c4.6-5.5,10-9.9,16.6-12.9c0.8-0.4,1.6-0.8,2.6-1.4
		c0.1-1.2,0.2-2.2,0.3-3.3c0.1-11.7,0.2-23.4,0.4-35.1c0.1-7.6,0.5-15.2,0.7-22.8c0-0.9,0-1.9,0-2.8c0-0.7-0.7-1.4-1.4-1.4
		c-0.6,0-1.1,0-1.7,0c-7.2,0.4-12.9-2.8-17.9-7.6c-1.3-1.3-2.4-2.9-3.2-4.5c-3.5-7.2-4-14.6-1.7-22.2c0.4-1.2,0.9-2.5,1.5-3.6
		c2.7-4.8,7.4-6.3,12.4-4c1.2,0.5,2.3,1.3,3.4,1.9c0.8,0.4,1.6,0.8,2.3,1.1c1.1-0.8,0.9-1.8,1-2.7c0.9-7.4,2-14.7,4.1-21.9
		c1.3-4.5,2.9-8.8,4.8-13.1c2-4.4,4.7-8.4,7.9-12.1c4.5-5.1,9.8-9,16.2-11.5c6.1-2.4,12.4-3.9,18.8-5c8.1-1.4,16.2-2.2,24.4-2.3
		c4.6,0,9.3-0.6,13.9-0.1c4.3,0.5,8.4,1.5,12.4,3c1,0.4,2,0.9,3,1.5c1.9,1.1,3.1,2.6,3.1,4.9c0,0.7,0.1,1.4,0.1,2.4
		c1.9,0.1,3.5,0.2,5.1,0.3c8.5,0.4,15.8,3.8,22,9.6c1.2,1.1,2.3,2.4,3.2,3.8c2.1,3.5,2,7.1,0,10.6c-1.5,2.6-3.7,4.6-6.3,6.2
		c-1.2,0.8-2.5,1.5-3.7,2.1c-0.3,1.6,1,2.1,1.6,2.9c2.7,3.1,2.7,6.4,1,9.8c-2,3.9-5.3,6.7-9.1,8.7c-4.1,2.2-8.5,3.7-13.1,4.8
		c-2.2,0.5-4.3,1.1-6.4,1.8c-0.8,0.3-1.6,0.8-2.3,1.1c0,0.5-0.1,0.7-0.1,0.8c2.3,7.5,0.5,14.3-3.7,20.6c-2.8,4.2-6.1,7.9-10.3,10.9
		c-0.9,0.6-1.8,1.3-2.8,1.9c0,0.8-0.1,1.6,0,2.3c2.3,12.4,4.3,24.9,5.4,37.5c0.1,1.5,0.1,1.5,1.4,3.6c0.8-0.4,1.7-0.7,2.5-1.2
		c2.8-1.5,5.6-3,8.4-4.5c12.8-6.9,26.5-10.8,40.8-12.5c7.6-0.9,15.2-1,22.8-0.4c5.6,0.5,10.9,2.1,16.1,4.2c6.2,2.5,12,5.9,17.5,9.7
		c13.5,9.2,24.4,21.1,33.8,34.5c7.4,10.5,13.8,21.6,19.8,33c10.5,19.9,19.5,40.5,28.4,61.1c4.7,10.9,9.2,21.9,13.8,32.9
		c3.8,9.1,6.9,18.4,10.1,27.7c2.4,7.2,5.6,14.2,8.8,21.1c5.6,12.1,11.4,24.2,17.3,36.2c5.5,11.4,11.2,22.6,16.8,34
		c0.6,1.3,1.4,2.6,1.9,3.5c1.2,0.6,1.9,0.2,2.5-0.2c7.6-4.9,14-11,18.4-19.1c0.9-1.6,1.9-3.2,3-4.7c1.4-2,3.4-3.4,5.6-4.4
		c4.2-1.9,7.8-0.5,9.5,3.8c0.5,1.3,0.9,2.9,0.9,4.3c-0.1,2.6-0.3,5.2-0.9,7.7c-1.2,5.8-3.1,11.5-5.2,17c-0.2,0.6-0.8,1.3-0.2,2.2
		c1.7-0.8,2.8-2.3,4.1-3.5c3.9-3.8,8.2-7,13-9.5c1.6-0.8,3.4-1.6,5.1-2.1c3.5-1,6.7,0.4,8.6,3.6c1.4,2.5,1.9,5.1,1.2,8
		c-0.7,2.9-2.1,5.6-3.8,8c-3.5,5.1-7.3,9.8-11.9,13.9c-0.9,0.8-2.2,1.4-2.5,2.8c-0.4,0-0.9-0.1-0.9,0.6c0,0,0.4,0.1,0.4,0.1
		c0.2-0.2,0.3-0.5,0.5-0.8c1.4,0.3,2.5-0.4,3.7-1c4.3-2.2,8.6-4.5,12.9-6.7c2.2-1.1,4.4-2,6.6-2.9c1.9-0.8,4-0.9,6-0.6
		c5,0.6,8.6,5.5,7.5,10.5c-0.6,2.8-2,5.2-3.9,7.3c-2.9,3.2-6.2,5.9-9.8,8.1c-6.2,3.8-12.8,6.7-19.8,8.9c-2.6,0.8-5.3,1.6-8,2.5
		c0.5,1,1.3,0.7,1.9,0.6c3.5-0.5,7-1.1,10.4-1.8c1.8-0.3,3.6-0.9,5.4-1.2c1.8-0.3,3.7-0.6,5.5-0.6c5.3,0.1,9.2,5,8.1,10.3
		c-0.4,2-1.3,3.9-2.9,5.3c-1.6,1.3-3.2,2.7-5,3.4c-5,2-9.9,4.1-15.3,5.2c-8.4,1.7-16.9,2.2-25.5,1.3c-11-1.1-21.6-3.6-32-7.2
		c-12.3-4.2-23.3-10.6-32.7-19.6c-5.8-5.5-11.4-11.2-16.5-17.3c-3.1-3.7-5.9-7.7-8.8-11.5c-1.2-1.6-2.3-3.4-3.5-5
		c-10.9-15.1-20.3-31.1-28-48.1c-5.6-12.4-10-25.2-13.7-38.2c-5.8-20-11.5-40-17.9-59.8c-3.8-11.7-7.9-23.2-13.1-34.3
		C1180.2,532.4,1179.8,530.9,1178.4,530c-0.1-0.2-0.2-0.4-0.3-0.7C1178.2,529.6,1178.3,529.8,1178.4,530z M195.8,796.7
		c0-0.3-0.1-0.5-0.1-0.8C195.8,796.1,195.8,796.4,195.8,796.7c1.4,3.7,1.4,3.7,2.9,5c-0.3-1.2-0.5-2-0.8-2.9c-0.2-0.5-0.4-1-0.8-1.4
		C196.8,797.1,196.3,796.9,195.8,796.7z M994.3,575.8c-1.7,2-2.1,4-2.9,5.9c-6.8,17.7-13.4,35.4-20.2,53.1
		c-2.3,6.1-4.6,12.2-7.1,18.2c-8.5,20.2-18.2,39.9-27.7,59.6c-1,2-2.2,3.9-3.7,5.6c-4,4.7-8.3,8.9-13.3,12.6
		c-5.9,4.3-12.4,6.7-19.7,6.6c-6.5-0.1-12.9-1.2-19.3-2.8c-17.7-4.4-33-13.3-46.4-25.5c-9.7-8.8-18-18.7-25.5-29.4
		c-1.4-2-2.7-4.1-3.6-6.3c-0.9-2.1-2-4-3.3-5.8c-1.5-2.1-2.9-4.3-4.4-6.5c-15.7-23.1-30.3-46.8-43.5-71.4c-10-18.7-19.4-37.7-28-57
		c-0.6-1.3-0.9-2.8-2.5-3.9c-0.9,0-2-0.1-3.1,0c-6.9,0.5-13.7,0.9-20.6,1.6c-3.9,0.4-7.8,0.5-11.6,1.3c-1.8,0.4-3.7,0.2-5.6,0.2
		c-1.4,0-2.6-0.5-3.5-1.5c-2-2.2-4-4.4-5.7-6.8c-5.1-7-8.4-14.9-11.1-23c-0.5-1.6-1-3.2-1.6-4.7c-0.3-0.6-1.1-1.2-1.7-1.2
		c-1.6-0.2-3.3-0.2-5-0.2c-7.1-0.2-14.1,0-21.2-0.5c-12.4-0.9-24.8-2.6-37-4.7c-12.6-2.2-25.2-4.3-38-5.5c-11.5-1-23-1-34.5,0.5
		c-5,0.6-9.9,1.8-14.6,3.5c-7.5,2.6-15.3,12.4-15.1,21.6c0.1,4.3,0.7,8.5,2.4,12.5c1.9,4.5,4.6,8.5,8.3,11.8
		c9.2,8.4,19.2,15.8,30.4,21.5c11.3,5.7,23,10.4,34.9,14.7c18,6.4,36.3,12.2,54.6,17.8c9.4,2.9,18.8,5.8,28.1,8.9
		c9.2,3.1,18.1,6.8,26.6,11.4c13.1,7,24.3,16.3,34,27.5c3.8,4.4,6.8,9.3,8.7,14.8c2.3,6.7,2.5,13.4,0.2,20.2
		c-1.1,3.4-2.6,6.5-4.6,9.5c-3.1,4.5-6.6,8.5-10.6,12.1c-5.7,5-12.2,8.4-19.7,9.9c-8.1,1.7-16.3,1.4-24.4,0.3
		c-12.2-1.7-24-5.1-35.5-9.2c-26.5-9.5-51.8-21.5-75.9-36.1c-24.8-15-48.3-32-70.6-50.6c-8.6-7.1-17.1-14.3-25.7-21.5
		c-18-15.1-36.8-28.9-56.9-41.1c-11.6-7.1-23.5-13.5-36-19c-18.7-8.2-37.8-15.5-57-22.5c-9.8-3.5-19.6-6.9-29.7-9.5
		c-1.8-0.5-3.5-1.1-5.3-0.9c-0.3,0.2-0.5,0.2-0.6,0.4c-0.5,0.7-1.1,1.5-1.6,2.3c-3.4,5.1-8.1,8.6-13.7,11.1c-2.7,1.2-5.6,2-8.6,2.2
		c-11.9,0.7-22.4-6.6-25.9-18c-0.4-1.2-0.1-2.7-1.4-3.5c-0.4-0.1-0.7-0.3-1.1-0.3c-8.7,0.3-17.4,1.2-25.9,3.4
		c-13.4,3.4-24.7,10.1-33.4,20.9c-3.4,4.2-6.9,8.3-10.1,12.6c-10.1,14-17.4,29.4-20.1,46.6c-1.8,11.7-0.5,23,4.2,33.8
		c1.8,4.1,4.1,7.9,7.3,11.1c7.6,7.5,16.2,13.6,26.2,17.7c12.4,5.1,25.3,8.6,38.4,11.4c18.2,3.8,36.7,5.5,55.3,6.6
		c8.9,0.5,17.8,1,26.7,1.5c16.1,0.9,32.3,1.9,48.4,2.8c11.1,0.6,22.3,1,33.4,1.5c1.3,0.1,2.6,0.1,3.9,0.2c8.5,0.6,17.1,1.1,25.6,1.7
		c6.7,0.5,13.3,1,20,1.5c3.9,0.3,7.8,0.7,11.6,1.2c8.1,1,16.2,1.9,24.3,3.1c9.2,1.3,18.4,2.5,27.6,4.1c10.4,1.8,20.8,3.8,31.2,6.1
		c17.1,3.7,33.9,8.2,50.5,13.8c12.7,4.3,24.9,9.8,35.7,18c9,6.9,17.5,14.4,24.9,23.1c7,8.1,12.6,17,16.6,26.9
		c2.1,5.4,3.6,10.9,4.1,16.7c1.3,15.3-3.1,29.1-11.9,41.4c-6.7,9.4-14.3,18.1-22.7,26c-0.7,0.6-1.2,1.3-1.7,1.9
		c0.1,1.3,0.8,1.9,1.5,2.5c2.5,2.2,4.6,4.9,7.5,6.5c2.5-0.1,4.3-1.4,6.2-2.6c4.8-3.2,9.6-6.4,14.2-9.8c10.1-7.3,20.6-14,31.9-19.3
		c2.7-1.3,5.4-2.5,8-3.9c7.5-4,15.4-6.3,23.7-8c4-0.8,8.1-1.1,12.2-1c9.7,0.2,17.1,4.5,21.9,12.9c2.6,4.5,4.6,9.3,6.2,14.3
		c2.7,8.1,4.3,16.5,5.5,25c1.5,10.7,2,21.5,2.2,32.2c0.1,10.6,0,21.2-0.7,31.8c-0.7,10.4-1.1,20.8-1.7,31.2
		c-0.1,1.3-0.3,2.6-0.3,3.9c-0.3,4.6-0.5,9.3-0.8,13.9c-0.1,1.6,0.5,2.9,1.6,3.9c1.9,1.8,3.8,3.6,5.7,5.3c1.5,1.4,2.7,3,4.9,4
		c1.5-0.8,3.1-1.7,4.7-2.7c6.4-3.7,12.8-7.5,19.3-11.1c16.7-9,33.8-17.2,51.3-24.4c16.2-6.7,32.7-12.1,50.2-14.5
		c3.7-0.5,7.4-1,11.1-1.4c5.4-0.6,10.7,0.3,16,1.5c0.9,0.2,1.8,0.6,2.8-0.3c-0.4-0.9-0.7-2-1.2-3c-3.3-7.7-6.4-15.5-8.7-23.5
		c-2.3-8.1-3.6-16.4-2.5-24.8c0.6-4.8,1.5-9.5,2.3-14.3c0.2-1.5,0.7-2.9,0.8-4.4c0.4-5.9,2.2-11.3,4.7-16.5
		c2.9-6.1,6.8-11.5,10.7-16.9c4.4-6,9.3-11.6,14.8-16.6c2.5-2.3,4.9-4.6,7.2-7c17.1-18.1,34.2-36.2,51.4-54.3
		c13.8-14.6,27.8-29,42.4-42.8c15.1-14.3,30.4-28.5,46.1-42.1c1.1-1,2.1-2,3-2.9c-0.2-1.9-1.3-2.9-2.3-4.1c-1.9-2.2-3.9-4.5-5.9-6.7
		c-6.9-8-13.8-16.1-20.8-24c-17-19.1-36.2-35.7-57.2-50.3C996.2,577,995.4,576.5,994.3,575.8z M1153.6,477.7
		c1.5,1.4,2.7,2.5,3.9,3.7c5.5,5.8,10.6,12,15.1,18.6c8.2,12,15.1,24.7,20.9,38.1c4.2,9.7,7.7,19.7,10.8,29.8
		c6.1,19.7,12,39.4,17.9,59.2c5.8,19.5,13.2,38.3,23.5,55.9c5.1,8.8,10.4,17.6,15.5,26.4c0.3,0.5,0.6,1,1,1.3c0.4,0.3,1,0.6,1.5,0.6
		c0.9,0,1.8-0.2,2.7-0.4c13-3,24.8-8.8,36.1-15.7c6.7-4.1,6-3.2,2.8-9.7c-6.5-13.4-13.2-26.6-19.6-40c-5.7-11.9-11-24-14.8-36.6
		c-0.4-1.2-0.8-2.5-1.4-3.7c-3.1-6.8-5.3-13.9-7.7-20.9c-0.7-2.1-1.4-4.2-2.4-6.2c-9.3-18.6-17.8-37.6-26.4-56.5
		c-5.8-12.7-11.7-25.3-18.3-37.6c-5.7-10.7-11.8-21.1-18.8-30.9c-3.7-5.1-7.6-10.1-11.9-14.7c-9.1-9.7-19.5-17.8-31.5-23.5
		c-7-3.3-14.3-5-22.1-5c-4.7,0-9.3,0.3-13.9,0.8c-11.4,1.1-22.3,3.9-32.8,8.4c-4.8,2-9.5,4.3-14.2,6.5c-0.5,0.2-0.9,0.7-1.2,0.9
		c0,1.2,0.8,1.7,1.4,2.3c2.5,2.6,4.6,5.3,6.3,8.5c5.6,10.2,8.9,21.2,10.3,32.7c0.8,6.9,0.3,13.7-0.3,20.6c-0.3,3.3-1.2,6.6-2.3,9.7
		c-0.7,2.1-1.9,2.4-3.9,1.2c-0.8-0.5-1.5-1-2.3-1.5c-1.9-1.1-3.8-2.4-5.8-3.3c-8.8-4-17.6-7.9-26.5-11.7c-8-3.4-16.4-5.8-25-7.8
		c-1.8-0.4-3.3-0.3-4.7,0.8c-0.6,0.5-1.2,0.8-1.8,1.3c-11.3,8.2-22.5,16.5-31.7,27.2c-0.6,0.7-1.3,1.4-2.3,1.2
		c-4.1-3.5-4.1-3.5-5.6-8c-0.3-1.1-0.7-2.1-1-3.2c-1.7-5.9-2.2-12-2.8-18.1c-0.4-4.8-0.6-9.7,0.2-14.5c0.6-3.5,1.2-6.9,1.8-10.4
		c0.1-0.4-0.1-0.9-0.3-1.5c-2.4,1.3-4.1,3.1-5.7,4.8c-4.7,5-8.7,10.6-11.7,16.9c-2.1,4.5-4.1,9.2-5.8,13.9
		c-4.9,13.6-8.7,27.6-12.2,41.7c-4.9,19.3-9.6,38.6-14.8,57.7c-4.4,16.5-9.5,32.8-14.1,49.3c-2.4,8.6-5.3,17-9.2,25
		c-1.2,2.4-2.8,4.3-4.8,6c-4.4,3.7-10.9,4.1-15.5,0.7c-3.3-2.4-6.5-5-9.5-7.8c-4.4-4-8.1-8.7-11.7-13.4
		c-18.6-24.6-36.3-49.9-53.2-75.7c-5.3-8.1-10.3-16.4-15.4-24.5c-0.4-0.6-0.9-1.1-1.4-1.7c-14.4,0.5-27.3,5.4-39.4,12.3
		c0.1,2.2,1.3,3.7,2.2,5.3c3.9,7.2,7.8,14.4,11.7,21.5c10,18.3,20.5,36.2,31.9,53.6c10.8,16.5,21.9,32.7,32.8,49.1
		c3.4,5.2,7.4,9.8,11.9,13.9c2.8,2.5,5.5,5,8.5,7.2c10.4,8.1,21.8,14.2,34.5,17.6c6.1,1.6,12.3,2.8,18.7,2.9
		c5.2,0.1,9.9-1.4,14.1-4.5c1.8-1.3,3.5-2.8,5-4.4c2-2.2,3.9-4.5,5.7-6.8c4.4-5.7,8.8-11.5,13.1-17.3c0.8-1,1.4-2.2,1.8-3.4
		c5.6-14.5,11.3-29.1,16.8-43.7c6.2-16.5,12.3-33.1,19.2-49.3c2.9-6.8,6.3-13.5,9.4-20.2c2-4.3,5.1-7.7,8.2-11.2
		c1-1.1,2.3-1.2,3.6-0.5c0.3,0.2,0.6,0.4,0.9,0.6c8.4,5.2,16.4,10.9,24.1,17.1c12.5,10,24.2,20.9,35.1,32.6
		c12,12.9,23.7,26.2,33.5,41c0.7,1.1,1.5,2.3,2.5,2.9c3.7,2.2,7.2,4.4,11.6,5.1c9,1.3,18.1,2.3,27.2,2.8c7,0.4,14.1,0.5,21.1-0.5
		c11.7-1.7,22.8-5,33.7-9.4c0.8-0.3,1.6-0.9,2.6-1.4c0-1.1,0.1-2.3,0-3.3c-0.2-2.6-0.4-5.2-0.7-7.8c-0.9-9.1-1.6-18.1-2.7-27.2
		c-1.2-9.8-2.6-19.5-4.1-29.2c-1.8-12.1-3.7-24.2-6.4-36.2c-1.8-8-3.8-15.9-5.3-23.9c-2.6-13.7-6.3-27.1-11.9-40
		c-0.7-1.7-1.3-3.5-1.7-5.3c-0.4-1.5-0.9-2.8-2-3.9C1153.6,480.2,1152.9,479.5,1153.6,477.7z M1189,665.4c-1.2-0.1-2.1,0.7-3.1,1.1
		c-3.4,1.5-6.7,3.2-10.2,4.5c-8.2,3.2-16.6,5.5-25.4,6.1c-8.2,0.6-16.3,0.4-24.5-0.1c-2.6-0.2-5.2-0.6-7.8-0.8
		c-0.9-0.1-1.9-0.2-2.9,0.8c-0.1,0.6-0.3,1.4-0.5,2.3c-0.3,1.7-0.6,3.3-0.7,5c-0.3,6.8-2.8,13-4.4,19.5c-0.1,0.4-0.7,0.7-1.5,1.4
		c-0.5-5.3-0.6-10.1-0.3-14.9c0.3-5,0.8-9.9,1.2-15.2c-3.3-1.4-6.8-1.8-10.1-3.1c-3.2-1.3-6.4-2.7-9.8-4.2c-1,0.9-2.1,1.9-3.2,2.9
		c-4.9,4.8-9.8,9.7-14.8,14.4c-26,24.4-51.4,49.5-75.9,75.5c-12.4,13.1-24.8,26.2-37.2,39.2c-8.6,9-17.2,18-26.6,26.2
		c-4.5,3.9-7.9,8.3-10.7,13.4c-1.5,2.8-3,5.5-4.5,8.3c-0.7,1.3-1.3,2.7-1.7,4.1c-2.3,8.8-4.6,17.6-5.7,26.7
		c-0.8,6.9-0.6,13.7,1.3,20.5c3.4,12,7.7,23.7,14,34.5c2.8,4.8,5.7,9.6,8.7,14.3c19.8,31,40.9,61.1,62.3,91.1
		c0.5,0.7,1.2,1.4,1.9,2.2c0.8-0.9,1.4-1.6,2-2.3c2.3-2.9,5-5.6,7.9-7.8c13.6-10.5,27.7-20.1,44-25.8c0.7-0.2,1.5-0.4,1.7-1.3
		c-0.3-1.7-1.6-2.8-2.5-4.2c-6-8.5-12.1-16.9-18.1-25.4c-15.9-22.6-30.8-46-47.4-68.2c-0.8-1-1.4-2.2-2.2-3.2
		c-0.8-0.9-1.8-1.7-2.7-2.5c0.2-0.7,0.2-1.2,0.4-1.7c3.5-8.1,7.6-15.7,13.4-22.4c4.1-4.8,8.3-9.6,12.5-14.2
		c28.4-31.2,57.9-61.3,87.8-91.2c4.8-4.8,10.2-8.7,15.5-12.7c0.4-0.3,1-0.5,1.5-0.6c0.3,0,0.8,0.2,0.9,0.4c0.3,0.9,0.5,1.8,0.6,2.7
		c0.5,7.8,0.9,15.6,1.3,23.4c0.5,9.6,1,19.3,1.5,28.9c0.6,11.3,1.2,22.6,1.8,34c0.5,10.6,1,21.2,1.5,31.7c0,0.7,0.1,1.5,0.1,2.2
		c1,10.9,1.9,21.8,2.9,32.7c1,10.7,2.4,21.4,4.7,32c1.4,6.5,3.1,13,5.7,19.2c0.9,2.1,2.2,3.8,3.9,5.3c4.6,3.8,9.9,5.8,15.9,5.6
		c2-0.1,4.1-0.3,6.1-0.5c14.2-1.7,28.3-4.4,42.2-7.7c32.2-7.5,64.3-15.3,96.4-23.1c12.4-3,24.8-6.5,37.2-9.7
		c0.9-0.2,1.9-0.3,2.3-1.6c-0.9-1.6-1.9-3.4-2.8-5.2c-6.1-11-9.9-22.8-11.1-35.4c-0.8-8.3-1.3-16.7-0.1-25c0.1-0.9,0.2-1.9-0.7-2.7
		c-0.6,0-1.4,0-2.1,0.2c-7.3,1.5-14.5,3.1-21.8,4.6c-12.4,2.6-24.7,5.2-37.1,7.6c-12,2.2-24.1,4.2-36.3,6.1
		c-6.6,1-13.3,1.6-19.9,2.3c-2.4,0.3-4.8,0.3-7.2,0.3c-1.1,0-2.2-0.1-3.3-0.4c-2.5-0.6-3.6-2.5-3.4-5c0.1-1.8,0.2-3.7,0.2-5.5
		c0-5.6-0.1-11.1-0.1-16.7c0-4.1,0-8.2,0.5-12.2c0.6-4.6,0.6-9.3,0.4-13.9c-0.7-16.9-0.3-33.8-0.1-50.7c0.2-12.6,0.2-25.3,0.3-37.9
		c0-2-0.5-3.6-1.8-5.1c-3.8-4.4-6.7-9.4-9.2-14.6c-3.8-7.9-6.4-16.2-8-24.8c-0.7-4.1-0.9-8.1-0.4-12.2c0.1-0.9,0.5-1.7,0.7-2.5
		c0.8-0.3,1.3-0.4,1.8-0.6c4.4-1.4,8.8-2.8,13.2-4.3c2.3-0.8,2.6-1.2,2.4-3.7c-0.1-3.2-0.4-6.3-0.7-9.4
		C1189.6,665.9,1189.2,665.7,1189,665.4z M398.3,920.8c-0.6,1.9-1,3.3-1.4,4.8c-1.9,8.5-3.8,17-5.6,25.6c-0.7,3.3-1.5,6.5-1.9,9.8
		c-0.4,3.5-1.1,7-2.2,10.3c-3.4,10.4-7.2,20.7-11.8,30.6c-2.9,6.3-5.4,12.7-7,19.3c-2.2,9.3-5.8,18-10.4,26.3
		c-0.6,1.1-1.2,2.3-1.8,3.5c-2.6,5.2-5.7,10-9.2,14.6c-5.5,7.3-11.4,14.2-17.7,20.8c-4.3,4.6-8.8,9-13.2,13.5
		c-2.5,2.5-4.9,5.1-7.5,7.5c-7.3,6.9-14.8,13.5-23.5,18.6c-0.6,0.3-1,0.9-1.6,1.4c4.8,5.8,17.3,14.9,25.8,18.8
		c1.8-1.8,3.6-3.6,5.4-5.4c5.9-5.8,12.9-9.3,21-10.7c4.6-0.8,9.3-0.9,13.9-0.6c15.7,1.2,26.7,9.4,33.3,23.4
		c2.6,5.6,2.9,11.5,0.8,17.4c-0.3,0.8-0.5,1.7-0.7,2.5c0.4,0.3,0.5,0.5,0.7,0.5c0.7,0.1,1.5,0.2,2.2,0.2c6.8-0.4,13.1-2.5,19.2-5.3
		c7.6-3.5,14.7-8,21.3-13.2c11.3-8.8,22-18.3,32.2-28.4c19.5-19.1,38.2-39,57.2-58.7c34.8-36.1,69.3-72.5,105.1-107.7
		c0.8-0.8,1.5-1.6,2.3-2.6c-1.1-1-1.9-2-2.9-2.8c-9.7-7.9-19.3-15.8-29-23.5c-8.3-6.6-16.7-13-25.2-19.4c-1.4-1.1-2.7-2.6-5.1-2.6
		c-3.5,2.7-7.1,5.6-10.8,8.4c-3.7,2.8-7.5,5.5-11.2,8.2c-3.8,2.7-7.6,5.3-11.4,8c-3.8,2.7-7.6,5.2-11.2,8.2c0.1,0.8,0.2,1.3,0.3,1.8
		c0.2,2.2-1,3.2-2.9,2.5c-0.7-0.2-1.3-0.6-2.1-1c-1.6,1.1-3.1,2.1-4.6,3.2c-17.4,12.8-34.8,25.5-52.1,38.3
		c-20,14.9-39.8,29.9-59.7,44.9c-2.7,2-5.4,4-8.1,6c-2.1,1.5-4.4,2.7-7,3.2c-0.2,0-0.6-0.3-0.8-0.5c-0.1-0.1-0.1-0.4,0-0.5
		c0.5-0.8,1-1.6,1.7-2.2c5.1-5.4,10.1-10.9,15.2-16.3c4.2-4.5,8.8-8.5,13.8-12.2c13.4-10,26.7-20.1,40.1-30.2
		c2.8-2.1,5.7-4.2,8.5-6.3c1.3-0.9,2-2.2,2.2-3.7c0.1-0.9,0.3-1.8,0.4-2.8c0.8-9.5,2.5-18.8,4.3-28.1c3.1-15.7,6.1-31.3,9.2-47
		c0.2-1.3,0.5-2.6,0.7-3.8c0.1-0.7-0.6-1.5-1.3-1.4c-3.7,0.1-7.4,0.3-11.2,1c-0.6,1.4-1.2,2.7-1.8,4.1c-1.8,4.5-3.9,8.8-6.4,13
		c-2.6,4.3-5.7,8.3-9.6,11.5c-5.3,4.5-11.3,7-18.4,6.3c-3.3-0.3-6.7-0.3-10-0.4c-3.9-0.1-7.8-0.2-11.7-0.3
		C402.8,921.3,400.8,921,398.3,920.8z M330.7,848.8c-0.7-0.6-1.3-0.8-1.5-1.3c-2.6-5.9-3.6-12-2.4-18.5c0.6-3.1,0.9-6.2,1.3-9.4
		c0.4-3.4,0-6.7-0.7-10c-0.6-2.5-1.4-5.1-3-7.1c-0.8-1-1.8-1.9-2.8-2.6c-1.1-0.8-2.7-0.3-3.4,0.8c-1.5,2.4-2.3,5.1-2.6,7.9
		c-0.6,5.9-0.5,11.9,0.6,17.7c1.1,5.8,3,11.5,4.5,17.2c2.1,8.1,6,15.2,11.6,21.3c2.5,2.8,4.6,5.8,6.5,9c1,1.8,1.9,3.6,3,5.3
		c3,4.4,4.6,9.3,5.6,14.4c0.7,3.5,0.3,6.6-1.7,9.6c-1.1,1.5-2.1,3-3.2,4.6c-14.4,20.1-30.1,39.2-46.3,57.9
		c-27,31.2-53.7,62.6-79.2,95.1c-0.7,0.9-1.3,1.8-2.1,2.6c-2.4,2.3-4.9,4.6-7.5,6.6c-1.6,1.3-3.4,1.1-5.2-0.1
		c-0.9-0.6-1.8-1.4-2.2-2.5c-0.4-1-0.8-2.1-1.1-3.2c-7.2-22.1-15.7-43.7-25.2-64.9c-3.9-8.8-8-17.6-12.1-26.3
		c-0.8-1.7-1.7-3.4-2.1-5.1c-0.5-2.7-1.8-4.9-3.1-7.1c-1.4-2.4-2.8-4.8-4.3-7.1c-9.4-14.7-20.4-28.4-31.7-41.7
		c-2-2.4-4.3-4.6-6.5-6.9c-0.6-0.6-1.4-1.1-2.3-1.8c-5.2,4-9.8,8.2-13.4,13.5c-2.8,4.1-4.2,8.7-4.5,13.6c-0.2,2.9-0.1,5.9,0.3,8.9
		c0.6,5.2,2,10.2,3.5,15.2c10,33.4,24,65.1,40.9,95.6c6.9,12.5,14.1,24.9,21.3,37.2c7.3,12.5,14.9,24.8,22.3,37.3
		c2.2,3.6,4.9,6.5,8.6,8.5c1.5,0.8,2.9,1.7,4.4,2.3c5.6,2.5,11.2,2.4,16.7-0.3c1.8-0.9,3.6-1.9,5.2-3.2c2.5-1.9,5-3.9,7.3-6
		c6.4-5.7,12-12.2,17.3-18.9c13.2-16.6,25.6-33.8,38.1-50.9c17.5-24,34.4-48.4,50.2-73.7c2.4-3.9,5.3-7.7,8-11.4
		c4.8-6.6,9.6-13.3,14.4-19.8c3-4,5.9-8.1,9.1-12c4.5-5.4,9.2-10.7,13.9-16c2.8-3.2,5.6-6.4,8.5-9.6c4.3-4.7,7.7-10,10.5-15.7
		c4.3-8.8,8.9-17.6,12.5-26.8c2.6-6.6,6-12.8,10.1-18.5c5.3-7.4,12.1-12.5,21.3-14c0.9-0.1,1.9-0.1,2.5-1c0.4-0.6-0.2-1.5-1.8-2.5
		c-1.1-0.7-2.2-1.4-3.4-2c-5.1-2.4-10.4-3.1-15.7-1.1c-6.2,2.4-11.4,6.2-15.5,11.4c-3.7,4.7-5.2,10.2-6.2,15.9c-0.3,2-0.7,4-1.1,6
		c-0.2,1.1-0.3,2.3-1.6,2.7c-0.8,0.3-1.8-0.9-2.3-2.7c-0.3-1.1-0.6-2.2-0.7-3.3c-0.9-7.7,0.6-14.8,5.1-21.2c2.5-3.6,5.5-6.5,9.2-8.8
		c2.2-1.4,4.3-3,5.9-5c0.5-0.6,0.4-1.6-0.3-1.9c-3.3-1.5-6.7-2.3-10.3-1.8c-5.1,0.7-9.6,2.9-13,6.8c-1.8,2.1-3.5,4.3-5,6.7
		c-3.4,5.6-5.8,11.6-7.3,18c-0.4,1.8-0.8,3.6-1.2,5.4c-0.3,1.1-0.7,2.2-1.9,2.6c-0.8,0.3-2.1-1.1-2.5-2.6c-0.1-0.5-0.2-1.1-0.3-1.6
		c-0.5-3.5-0.3-7.1,0.5-10.5c1.5-6.4,4.1-12.3,7.8-17.8c1.8-2.6,3.8-5,6.2-7.1c3.7-3.2,7.8-5.7,12.8-6.1c0.2,0,0.5-0.4,0.7-0.6
		c-0.1-0.2-0.1-0.4-0.2-0.5c-8.7-7.2-20.6-6.2-28.3-0.1c-3.5,2.8-6.3,6.3-8.2,10.4c-2.8,6.1-4.9,12.4-5.6,19.2
		c-0.2,2.2-0.7,4.4-1.3,6.5c-0.2,0.6-1,1.1-1.6,1.4c-0.7,0.3-1.9-0.2-2.4-0.9c-0.9-1.2-1.6-2.6-1.6-4.1c0-3-0.3-6,0.1-8.9
		c1.1-6.8,3.1-13.4,6.6-19.4c4.6-8,11-13.9,20.2-16.5c0.9-0.2,1.7-0.7,2.5-1c-1.1-3.7-2.3-5-5-5.2c-1.5-0.1-3-0.2-4.4,0
		c-3.1,0.5-6.2,1.3-9.2,2c-0.9,0.2-1.8,0.6-2.5,1.1c-5.5,3.5-10.9,7.1-15.1,12.1c-7.5,8.8-11.6,18.9-11.7,30.6
		C331,845.2,330.8,846.8,330.7,848.8z M215.5,1048.6c1.3-1.6,2.1-2.6,2.9-3.6c3.1-4,6.1-8,9.2-11.9c18.4-23.4,37.6-46,57.1-68.5
		c7.8-9,15.4-18.1,23.1-27.2c0.9-1.1,1.7-2.3,2.7-3.6c-1.5-1.4-2.9-2.6-4.2-3.9c-1.3-1.3-2.5-2.7-3.7-4.1c-3-3.6-5.9-7.2-8.8-10.8
		c-1.4-1.7-2.8-3.4-4.3-5.1c-0.7-0.9-1.6-1.6-2.8-1.5c-1.7,0.1-2.8-0.8-3.6-2.2c-0.7-1.1-1.5-2.1-2.1-3.3c-1.6-3.2-3.9-5.9-6.3-8.4
		c-3.8-3.8-7.6-7.7-11.1-11.7c-2.6-3-5.3-5.7-8.3-8.3c-8.7-7.3-18-13.7-27.4-20.1c-1.5-1-3.2-1.9-4.9-2.6c-4.3-1.7-8.3-1-11.8,2
		c0,0.4,0,0.6,0,0.7c0.1,0.5,0.3,1.1,0.5,1.6c4.1,12,5.5,24.2,3.6,36.8c-1,6.7-3,13-6.4,18.9c-1.8,3.2-4,6.2-6.7,8.8
		c-4.2,4-9,6.4-14.8,6.9c-6.8,0.6-13.3-0.6-19.5-3.3c-5.3-2.4-10.1-5.4-14.8-8.8c-8-5.8-15.4-12.2-22.8-18.8c-1.1-1-2-2.3-3.9-2.6
		c-2.5,1.5-5.2,3.2-7.8,4.9c-0.4,0.3-0.7,0.8-1.2,1.3c0.6,1.3,1.7,2,2.6,2.9c3.8,3.8,7.9,7.4,11.4,11.5
		c17.8,20.6,33.2,42.9,45.1,67.4c0.8,1.7,1.8,3.2,2.8,4.8c1.2,2.1,2.6,4.1,3.7,6.2c6.1,11.7,12.8,23.1,20,34.1
		c4,6,7.7,12.3,10.9,18.8C214.2,1046.5,214.7,1047.2,215.5,1048.6z M1020.6,466.8c1-1,2-1.8,2.9-2.7c11.5-12,20.7-25.7,29.7-39.6
		c1-1.5,1.3-3,1-4.8c-1.3-9.4-2.6-18.8-3.9-28.1c-0.5-4-1-8.1-1.6-12.2c-0.3-2.2,0.3-3.9,1.7-5.6c5.1-6.1,9.9-12.5,14.3-19.2
		c2.9-4.6,2.9-6.7-0.3-11.1c-0.2-0.3-0.4-0.6-0.7-0.9c-1-1.2-2.2-1.9-3.7-2.3c-2.7-0.6-5.2-0.1-7.6,0.9c-1.5,0.6-3.1,1.3-4.6,1.9
		c-1.4,0.5-3-1.2-2.7-2.7c0.3-1.5,1.2-2.8,2.3-3.7c4.6-3.9,9.7-5.4,15.5-3.5c1.9,0.6,3.7,1.6,5.7,2.4c6-2.2,12.1-4.3,18.2-6.6
		c1.7-0.6,3.4-1.4,5.1-2.3c2.2-1.2,3.9-2.8,5.3-4.8c1-1.4,0.6-2.9-1-3.7c-1-0.5-2-1-3.1-1.2c-3.3-0.8-6.6-0.6-9.8,0.8
		c-2.2,0.9-4.5,1.8-6.7,2.6c-0.4,0.1-0.9-0.2-1.7-0.5c2.2-2.3,4.4-4,6.8-5.2c5.7-2.7,10.8-6.5,16.2-9.9c1.6-1,3-2.2,4.4-3.4
		c1.2-1.1,1.4-2.5,1.3-4.1c-0.1-2-1.2-3.5-2.7-4.7c-4.7-4-10.2-6.2-16.2-6.7c-6.1-0.5-12.2-0.2-18.2,1.8c-5.1,1.8-10.4,2.7-15.8,3.3
		c-3,0.3-5.9,0.6-8.8-0.4c-0.4-0.1-0.7-0.7-0.9-1.1c-0.1-0.2,0.3-0.7,0.6-0.8c1.5-0.7,3-1.5,4.6-2c3.5-1.1,7.1-2.1,10.7-3.2
		c2.9-0.8,5.7-1.5,8.6-2.4c2.5-0.8,4.9-1.6,7-3.3c0.4-0.3,0.5-1.2,0-1.4c-1.5-0.7-3-1.4-4.6-1.9c-3.4-1-6.8-2-10.4-1.5
		c-11.1,1.3-22.1,2.7-33,5.3c-6,1.4-11.9,3-17.5,5.5c-3.8,1.6-7.1,3.9-10,6.9c-3.4,3.5-6.1,7.4-8.2,11.9c-3.1,6.8-5.1,13.9-6.6,21.2
		c-0.8,3.8-1.5,7.7-2.3,11.5c-0.4,1.6-0.9,3.3-1.6,4.7c-1.3,2.6-4.4,3.6-7.1,2.4c-1.5-0.7-3-1.5-4.5-2.2c-1.2-0.5-2.4-1-3.6-1.4
		c-1.4-0.4-3.1,0.3-3.8,1.6c-0.5,1-1.1,2-1.3,3.1c-1,4.4-1.1,8.8,0.2,13.2c1.1,3.8,3.3,6.6,6.7,8.6c1.3,0.7,2.6,1.4,4,2
		c2.3,1,4.7,1.1,7,0.1c1-0.4,2.1-0.8,3.2-1.1c0.9-0.2,1.8-0.4,2.7-0.5c0.9-0.1,2,0.6,2.1,1.4c0.2,1.1,0.4,2.2,0.4,3.3
		c0.1,3.2,0.1,6.3,0.1,9.5c0,15.4,0,30.8-0.1,46.3c0,2.6-0.1,5.2-0.2,7.8c-0.1,1.8,0.7,3.1,2.2,4.2c8.3,6.3,16.2,13.1,23.8,20.1
		c2.5,2.3,5,4.5,7.5,6.6C1018.6,465.5,1019.5,466.1,1020.6,466.8z M208,879.1c0.4-5.3-0.5-10.5-1.2-15.6c-0.3-2.6-1.1-5.1-1.8-7.6
		c-0.7-2.7-1.7-5.3-2.5-8c-3.4-12.1-7-24.2-11.1-36.2c-3.6-10.4-7.8-20.5-13.3-30c-3.9-6.8-8.3-13.2-13.7-18.9
		c-4.2-4.5-8.9-8.5-14.2-11.6c-9.9-5.8-20-6.3-30.4-1.4c-7.2,3.4-13.3,8.2-18.2,14.4c-5.8,7.4-8.9,15.8-8.6,25.3
		c0.2,7.8,1,15.6,3.2,23.1c0.8,2.9,1.6,5.7,2.3,8.6c0.2,0.9,0.3,1.8,0.4,2.7c0.1,0.7-0.6,1.5-1.3,1.5c-2.4,0.1-4.8,0.1-7.2,0.3
		c-3.7,0.2-5.9,1.8-7,5.3c-2.4,7.5,0.2,12.9,7.8,15.1c5,1.4,10.1,2.6,15.2,3.3c4.2,0.6,4.2,1.1,5.8,4.2c0.4,0.8,0.8,1.7,1.2,2.5
		c5.2,10.7,11.1,21,17.6,31c1,1.6,2.1,3.1,3.6,4.2c8,6,16,12.1,24.1,18c3.8,2.7,7.9,5,12.1,6.8c3.9,1.7,8,2.8,12.4,2.9
		c6.5,0.2,11.5-2.4,15.4-7.4c4-5.3,6.7-11.2,7.9-17.6C207.7,889.1,208.4,884.1,208,879.1z M591.9,841.2c-1.1-1.1-1.9-2.1-2.9-3
		c-14.5-13.8-29.2-27.5-44.2-40.8c-9.3-8.2-18.7-16.4-28.2-24.5c-4.4-3.7-9-7.2-13.5-10.8c-0.9,0.1-1.6,0.3-2.3,0.3
		c-1.4,0-2.3-0.4-2.4-1.8c-0.2-1.9-1.4-3-2.8-3.9c-7.5-5.2-15.2-10.1-23.5-13.7c-2.7-1.2-5.5-2.1-8.4-3.2c-0.6,0.7-1.1,1.2-1.7,1.7
		c-0.9,0.9-1.9,1-3.1,0.5c-0.3-0.2-0.6-0.4-0.9-0.6c-1.5-0.8-2.3-0.7-3.5,0.3c-1.9,1.6-3,3.8-3.9,6c-2.2,5.5-4.3,11.1-6.5,16.6
		c-0.4,1-0.7,2.1-1,3c0.3,0.5,0.5,0.8,0.7,1.1c1.6,2.4,1.1,3.8-1.6,4.2c-0.5,0.1-1.1,0.1-1.7,0.1c-1.3,1.7-2.1,3.5-2.7,5.5
		c-0.9,3-1.8,6-2.7,9.1c-3.3,10.8-6.5,21.7-9.7,32.5c-0.3,1.1-0.5,2.2-0.8,3.2c-0.1,0.7,0.4,1.6,1.1,1.7c1.5,0.2,3,0.2,4.4,0.5
		c6.4,1,11.7,3.7,14.7,9.7c0.4,0.8,1,1.5,1.5,2.3c1.7,0,3.2,0.1,4.6,0c2.8-0.2,5.1,0.9,7.1,2.6c3.2,2.7,5.4,6.1,6.6,10.1
		c1.7,5.4,2.4,10.9,1.8,16.5c-0.3,3-0.7,5.9-1.1,8.8c-0.1,0.7-0.4,1.5,0.5,2.2c0.3,0.1,0.9,0.3,1.4,0.3c2.6-0.1,5.2-0.2,7.8-0.4
		c1.5-0.1,2.4-0.9,2.7-2.3c1.1-4.5,2.2-9,3.3-13.5c1.3-5,2.6-10.1,4.7-14.9c0.4-1,1-1.9,1.5-2.9c1.9,0.6,1.6,2.1,1.9,3.3
		c0.8,3.9,2.9,6.7,6.2,8.8c7,4.3,14,8.5,20.9,12.9c2.2,1.4,4.3,1.8,6.8,1.2c14.6-3.1,28.8-7.3,42.4-13.3c7.5-3.3,14.7-7.1,21.6-11.6
		C588.9,844.2,590.6,843.3,591.9,841.2z M531.5,877.8c1.3,1,2,1.7,2.7,2.2c5.1,3.4,10.2,6.9,15.3,10.2c8.9,5.7,17.6,11.8,26.1,18.1
		c13.1,9.7,26,19.8,38.6,30.2c5.9,4.8,11.7,9.8,17.6,14.5c8.1,6.5,16.5,12.7,24.6,19.2c4.6,3.7,9.4,7.2,13.4,11.8
		c0.5,0.6,1.1,1,1.7,1.4c2.1,1.6,4.2,3.1,6.3,4.6c5.6,4,11,8.3,16.7,12c8.1,5.3,16.2,10.6,23.9,16.4c0.9,0.7,1.7,1.5,3.5,1.4
		c2.1-1.2,4.8-2.6,7.2-4.2c8.7-5.7,14.7-13.5,17.9-23.4c0.9-2.9,0.4-4.8-1.8-6.8c-9.4-8.7-18.6-17.6-27.9-26.5
		c-5.4-5.1-10.7-10.3-16.1-15.4c-18.1-16.9-36.2-33.7-54.2-50.6c-14.9-14-29.8-28-44.7-42c-1-1-1.9-2.4-3.9-2.4
		c-6.4,4.8-13.4,9-20.7,12.6c-7.2,3.6-14.4,6.8-22.1,9.3C548,872.9,540.2,875.1,531.5,877.8z M735.6,964c0.4-2.5,0.8-5,0.9-7.6
		c0.2-3.7,0.4-7.4,0.6-11.1c0.6-9.6,1.3-19.3,1.7-28.9c0.3-9.3,0.3-18.6,0.3-27.9c0-12.8-0.9-25.6-3.4-38.2
		c-1.3-6.8-2.9-13.4-5.6-19.8c-1.3-3.1-2.9-6-4.6-8.9c-1.9-3.1-4.9-5-8.4-6.1c-3.6-1.1-7.3-1.1-11-0.5c-6.4,1-12.7,2.5-18.9,4.6
		c-1,0.3-2,0.8-3,1.2c-0.2,0.7-0.4,1.2-0.6,1.7c-0.9,2.2-2.2,2.9-4.3,2.3c-0.9-0.3-1.7-0.7-2.6-1.1c-1.5,0.8-3.1,1.4-4.5,2.3
		c-6.6,4.2-13.5,7.8-20.2,11.8c-2.7,1.6-5.3,3.5-7.9,5.2c-2,1.3-4,2.7-6,4c-4,2.7-8.1,5.3-12.1,8c-0.9,0.6-1.5,1.5-2.2,2.2
		c0.6,2.2,2.3,3.2,3.6,4.4c11.5,11.1,23.1,22.1,34.6,33.1c7.1,6.8,14.1,13.7,21.2,20.6c0.9,0.9,1.7,2,3.1,2.3c0.6-0.3,1.3-0.6,2-0.8
		c2-0.5,3.3,0.8,2.9,2.8c-0.2,0.9-1.1,1.6-0.5,2.8c14.4,13.6,28.9,27.5,43.4,41.3C734.4,963.8,734.8,963.8,735.6,964z M672.4,996.8
		c-0.1,0.9-0.3,2-0.3,3.1c-0.2,5.2-0.3,10.4-0.5,15.6c-0.2,6.5-0.4,13-0.5,19.5c0,1.8,0.2,3.2,2.3,3.8c1.4,0.4,1.3,2.5-0.1,3
		c-1.9,0.6-2.6,1.8-2.7,3.7c0,2.2-0.2,4.4-0.3,6.7c-0.3,10.4-0.5,20.8-1,31.2c-1,17.1-1.5,34.1-2.3,51.2c0,1.1,0,2.2-0.1,3.3
		c-0.1,1.7,0.3,2.7,2.1,3.4c1.4,0.5,1.3,2.3,0.1,3.1c-0.1,0.1-0.3,0.2-0.5,0.2c-1.6,0.3-1.9,1.5-2,2.9c-0.2,2.8-0.5,5.6-0.6,8.3
		c-0.2,3.5-0.4,7-0.5,10.6c0,1.2,0.4,2.2,1.6,2.7c4.3,2.2,8.7,4.1,13.7,4.1c2.4,0,4.8,0.4,7.2,0.7c7.8,0.8,15.6,0.6,23.1-2
		c2.3-0.8,4.6-1.5,6.5-3.2c0.1-0.9,0.3-1.8,0.4-2.7c1.1-9.8,1.6-19.6,2.8-29.4c1.5-12.9,2.6-25.9,3.8-38.8c0.4-4.4,0.9-8.9,1.3-13.3
		c0.6-6.3,1.3-12.6,1.9-18.8c0.6-6.7,1.2-13.3,1.8-20c0.3-3.3,0.7-6.6,0.3-10c-5-4-9.7-8.1-15.2-11.3c-9.2-5.3-18-11.2-26-18.1
		c-1-0.8-2-1.8-3.1-2.3c-3.8-1.7-6.9-4.3-10.3-6.6C674.5,997,673.7,996.4,672.4,996.8z M733.8,443.4c-0.6,2-0.8,3.3-1.3,4.5
		c-0.7,1.9-1.5,3.8-2.5,5.5c-1.3,2.1-3.2,3.6-5.7,4.1c-3.6,0.7-7,0.3-10.1-1.9c-1-0.8-2-1.7-2.9-2.5c-0.5-0.5-0.9-1.1-1.9-0.6
		c-0.1,0.8-0.1,1.8-0.3,2.7c-0.6,2.3-1.1,4.7-2.1,6.9c-1.8,3.9-5,5.9-9.4,5.4c-1.3-0.1-2.5-0.3-3.8-0.4c-1,1.6-1.8,3.1-2.8,4.4
		c-1.4,2-3.3,3.5-5.7,4.3c-3.9,1.3-7.3,0.3-10.6-1.8c-2.1-1.3-3.6-3.2-4.9-5.2c-2.3-3.6-3.9-7.6-4.6-11.8c-0.4-2.2-0.7-4.3-1.2-6.8
		c-0.6,0.6-1.3,0.9-1.4,1.2c-0.1,1.3,0,2.6,0.1,3.9c0.5,6.7,1.7,13.2,2.6,19.8c0.8,5.4,2,10.6,3.6,15.7c0.9,2.8,1.6,5.7,2.4,8.6
		c2.3,8.3,6.2,15.9,11.6,22.6c0.8,1,1.7,1.4,2.9,1.3c3.2-0.2,6.3-0.4,9.4-0.7c9.2-0.9,18.5-1.8,27.7-2.8c12.6-1.3,25.1-2.5,37.7-3.8
		c13.5-1.4,26.9-2.9,40.4-4.3c2.6-0.3,5.1-0.7,7.7-1.1c0.1,0,0.2-0.2,0.3-0.4c0-0.2,0-0.4,0-0.5c-0.2-0.3-0.4-0.6-0.6-0.9
		c-5.7-5.8-9.8-12.5-13.1-19.9c-3.5-8-6.4-16.2-8.8-24.6c-1.8-6.6-3.2-13.4-4.1-20.2c-1.2-9.4-1.4-18.9-1.3-28.4
		c0.1-7.3,0.8-14.4,2.6-21.5c0.2-0.7,0.6-1.4,0-2.1c-0.3,0-0.8-0.1-1,0c-6.1,3.5-12.2,7-18.3,10.6c-0.6,0.4-1.1,0.9-1.7,1.4
		c0.6,7.9-0.2,15.4-1.2,23c-0.8,5.5-2.2,10.9-4.5,16c-1,2.2-2.2,4.3-3.9,6.1c-1.9,2-4.2,3-7,2.9c-3.4-0.1-6.1-1.5-8.4-3.9
		C736.6,446.9,735.5,445.4,733.8,443.4z M1438.2,973.7c0.7-1.8,1.5-3.3,2-4.9c2.4-7.4,4.4-15,6-22.6c1.3-6.4,2.1-12.8,2.2-19.4
		c0.2-9.1,0.1-18.2-1.3-27.2c-1.7-11.1-4.2-21.9-8.8-32.1c-3.2-7.1-6.6-14.1-9.9-21.2c-0.6-1.3-1.4-2.6-2.2-3.9
		c-0.5-0.9-1.4-1.2-2.4-0.9c-3.6,0.9-7.2,2-10.8,2.8c-10.5,2.4-21,4.8-31.5,7.1c-16.5,3.7-33,7.3-49.5,10.9
		c-1.2,0.3-2.4,0.7-3.7,1.1c-0.1,0.9-0.4,1.6-0.4,2.3c0.4,8.3,0.3,16.7,1.1,25.1c1.3,13.2,5.5,25.3,12.3,36.7c2.7,4.5,2.8,4.5,8,3.1
		c15.6-4.3,31.1-8.7,46.7-13.1c2.1-0.6,4.3-1.3,6.4-1.8c1.1-0.3,2.2-0.7,3.5,0.1c2.9,4,5.2,8.6,4.9,14.1c-0.1,1.8,0.1,3.7,0.3,5.6
		c0.2,1.8,0,3.7,0.9,5.4c0.6,0.2,1.1,0.5,1.6,0.5c4.1,0.1,8.2,0.2,12.3,0.3c0.7,0,1.5,0,2.2,0c1.2,0.1,2.3,1,2.4,2
		c0.1,1-0.7,2.2-1.9,2.4c-1.8,0.3-3.7,0.5-5.5,0.5c-2,0-4.1-0.3-6.1-0.4c-1.3-0.1-2.6,0-3.9,0c-0.7,0-1.4,0.9-1.2,1.5
		c0.2,0.5,0.5,1.1,0.9,1.2c0.9,0.2,1.8,0.2,2.8,0.3c4.4,0.3,8.9,0.6,13.3,1c1.4,0.1,2.3,1,2.3,2c-0.1,1-1,2-2.2,2.1
		c-1.7,0.1-3.3,0.2-5,0.1c-3.2-0.1-6.3-0.4-9.5-0.5c-0.9,0-1.7,0.3-2.6,0.5c0,1.5,0,2.7,0,4.1c0.9,0.2,1.6,0.4,2.3,0.4
		c3.2,0.1,6.3,0.2,9.5,0.3c1.1,0,2.2,0.1,3.3,0.2c2,0.2,3.3,1.1,3.3,2.3c0,1.3-1.2,2.3-3.3,2.2c-3-0.1-5.9-0.4-8.9-0.6
		c-1.7-0.1-3.3-0.3-5-0.3c-0.8,0-1.4,0.5-1.5,1.3c-0.1,0.5-0.2,1.1-0.3,1.6c-0.5,6.5,0,6.5,5.7,6.3c0.2,0,0.4,0,0.6,0
		c6-0.2,11.9-0.1,17.7,1.2C1436,973.7,1436.8,973.6,1438.2,973.7z M1014.2,1105.8c0,1.6,0,2.7,0,3.8c0.1,3,0.2,5.9,0.2,8.9
		c0,0.9-0.2,1.9-0.7,2.6c-0.3,0.5-1.1,0.9-1.8,1.1c-0.7,0.2-1.6-0.3-1.8-1c-0.4-1-0.7-2.1-0.8-3.2c-0.2-2.6-0.1-5.2-0.2-7.8
		c-0.1-1.1-0.4-2.1-0.5-3.1c-3.8-0.1-4.3,0.4-4.3,3.4c0,2.2,0.1,4.5,0.1,6.7c0,1.3-0.1,2.6-0.3,3.9c-0.1,0.7-0.5,1.4-0.9,2
		c-0.3,0.4-1,0.7-1.4,0.6c-0.7-0.2-1.5-0.6-1.7-1.1c-0.4-0.8-0.5-1.8-0.5-2.7c0-3.2,0-6.3,0-9.5c0-1.7-0.9-2.4-2.4-2.1
		c-1.1,0.2-2.1,0.6-3.2,0.9c-0.1,1.1-0.2,2-0.3,2.9c-0.1,3,0,5.9-0.3,8.9c-0.1,1.6-0.6,3.3-1.1,4.8c-0.2,0.8-1.1,1.1-1.8,1.1
		c-0.7-0.1-1.5-0.5-1.5-1.4c-0.1-1.5-0.2-3-0.1-4.4c0.1-3.3,0.2-6.7,0.3-10c0-0.7-0.7-1.4-1.5-1.4c-0.2,0-0.4,0-0.6,0
		c-5.5,0.6-11.1,1.2-16.6,1.9c-1.1,0.1-2.2,0.3-3.2,1.5c0.8,6.2,2.1,12.5,3.3,18.9c0.1,0.3,0.4,0.6,0.8,1c2.5,0.5,5.1,0.1,7.6-0.1
		c6.8-0.5,13.7-1.1,20.5-1.7c13.7-1.1,27.4-2.5,40.9-4.5c11.9-1.8,23.7-4.3,35.4-7.5c16.5-4.5,32.3-11,48.1-17.5
		c0.5-0.2,0.9-0.6,1.2-0.9c0-0.3,0.1-0.5,0-0.6c-22.8-29.3-45-59.1-66.7-89.2c-0.3-0.4-0.8-0.7-1.2-1.1c-0.5,0-0.9-0.1-1.2,0
		c-7.8,3.4-15.7,6.7-23,11.2c-6.3,3.9-12.5,8-18.7,12.2c-4.3,2.9-8.4,6.2-12,10c-0.7,0.8-1.3,1.7-2.1,2.7c1.3,2,2.6,3.8,3.8,5.6
		c9.1,13.6,18.2,27.2,27.2,40.7c0.8,1.2,1.6,2.5,2.3,3.8c1.2,2.4,0.9,3.4-1.5,4.4c-2,0.9-4.1,1.6-6.2,2.5c-0.8,0.3-1.6,0.8-2.5,1.2
		c0.2,2,0.4,3.9,0.6,5.7c0.3,2.4,0.5,4.8,0.8,7.2c0.1,0.7,0,1.5-0.2,2.2c-0.2,0.4-0.7,0.9-1.2,1c-0.5,0.1-1.2,0-1.5-0.3
		c-0.6-0.7-1.2-1.5-1.4-2.3c-0.4-2-0.5-4-0.6-6.1c-0.2-2.2-0.2-4.4-1.4-6.6C1017.1,1105.2,1015.9,1105.5,1014.2,1105.8z
		 M787.4,976.8c-5.4,2.1-10.7,4.7-16.2,6.9c-5.7,2.3-11.4,4.5-17.1,6.7c-0.2,1-0.4,1.9-0.6,2.8c-2.6,11.8-8.8,21.1-19.1,27.6
		c-1.7,1.1-3.5,2.2-5.2,3.3c-0.4,0.3-0.7,0.8-1.2,1.4c2.3,2.1,4.4,4.1,6.6,6c2.1,1.8,4.3,3.6,6.5,5.3c2.4,1.8,4.7,3.6,7.3,5.1
		c2.5,1.5,4.4,3.9,7.4,5.2c1.2-0.6,2.4-1.1,3.5-1.7c5.6-3,11.2-5.8,16.7-9c21.5-12.5,43-25.1,64.4-37.8c8.5-5,16.9-10.1,25.1-15.5
		c5.4-3.5,10.5-7.6,15.8-11.5c1-0.8,1.8-1.8,2.8-2.7c-0.6-0.8-0.9-1.4-1.4-1.9c-2.5-2.6-4-5.8-4.8-9.3c-0.9-3.8-1.8-7.6-2.1-11.5
		c-0.1-1.1-0.4-2.1-0.6-3.4c-1.3,0.1-2.4,0.1-3.5,0.3c-6,1.4-11.9,2.9-17.7,5c-6.6,2.4-13.2,5.1-19.8,7.5c-2.7,1-3.6,2.7-3.7,5.4
		c-0.3,6,0,11.9,1.6,17.7c0.2,0.9,0.5,1.8,0.6,2.7c0.2,1.7-1.8,3.2-3.4,2.5c-0.7-0.3-1.4-0.7-1.7-1.3c-0.7-1.3-1.4-2.7-1.7-4.1
		c-1.2-4.9-1.5-9.9-1.1-14.9c0.1-1.1,0.5-2.2-0.5-3.3c-2.5,0.5-4.8,1.5-7,3.1c-0.5,7.3,0.3,14.2,3.7,20.6c0.4,0.8,0.9,1.6,1.3,2.5
		c0.4,0.8,0.1,1.9-0.6,2.5c-0.8,0.7-1.7,0.8-2.6,0.5c-1.5-0.5-2.5-1.6-3.3-2.9c-1.8-2.9-2.8-6.1-3.3-9.4c-0.4-2.9-0.6-5.9-0.9-8.9
		c-0.1-0.7-0.3-1.3-0.5-2c-3.7,0.8-4,1-4.2,3.6c-0.2,2.2-0.3,4.4-0.1,6.7c0.4,5.4,0.8,10.7,2.6,15.9c0.3,0.9-0.2,2.1-0.9,2.4
		c-0.9,0.4-1.8,0.4-2.7-0.1c-0.6-0.4-1.3-0.9-1.6-1.5c-0.7-1.3-1.3-2.7-1.7-4.1c-1.2-4.5-1.3-9.2-1.3-13.8c0-1.5,0-2.9,0-4.6
		c-2.9,0.3-5.1,1.5-7.1,3c-0.5,4.3-0.3,12.9,0.5,16.3c0.4,1.6,1,3.2,1.6,4.7c0.3,0.9,0.7,1.7,0.9,2.6c0.4,1.5-1.4,3-2.8,2.4
		c-0.8-0.3-1.7-0.8-2.3-1.4c-1.7-1.8-2.6-4.1-2.9-6.5c-0.6-3.7-0.8-7.4-0.8-11.1C788.3,979.5,788.6,978.2,787.4,976.8z
		 M768.4,1185.9c-2.6-1.3-5.6-1.5-8.4-2.3c-1.9-0.5-3.6-0.1-5.4,0.8c-3.9,1.9-7.3,4.5-9.8,8c-1.4,1.9-2.7,4-4,6
		c-0.6,0.9-1.1,1.9-1.9,2.8c-0.3,0.3-1,0.4-1.5,0.4c-0.2,0-0.6-0.4-0.7-0.7c-0.2-0.5-0.3-1.1-0.3-1.6c-0.1-2.3,0.6-4.4,1.7-6.4
		c1.7-3.1,3.9-5.8,6.6-8.3c0.9-0.8,2.3-1.3,2.5-2.9c-1.5-1-3.4-1.1-5.2-1.4c-6.4-0.9-12.9-1.5-19.2-3c-1.7-0.4-3.3-0.3-4.9,0.3
		c-1,0.4-2.1,0.8-3.1,1.2c-5.9,2.5-12,3.9-18.4,3.7c-4.1-0.1-8.2-0.4-12.2-0.7c-0.7,0-1.5,0.6-1.5,1.3c-0.3,6.3-1.3,12.5-1.3,18.9
		c0,5.4-0.4,10.8-0.6,16.1c-0.1,2,0.5,2.7,2.5,2.9c7.4,0.8,14.8,1.6,22.2,2.3c6.1,0.6,12.2,1,18.3,1.5c5,0.4,10,0.8,15,1.3
		c6.5,0.6,13,1.2,19.4,1.7c11.5,0.9,23,1.8,34.5,2.6c4.6,0.4,9.3,0.8,13.9,1.2c6.5,0.5,13,1.1,19.4,1.6c1.3,0.1,2.6,0.4,3.7-0.4
		c0.9-1.2,0.5-2.5,0.6-3.8c0-5.1,1.4-9.9,3.7-14.4c0.6-1.2,1.3-2.3,1.8-3.4c0.3-0.6,0.4-1.3,0.6-2.2c-1.5-0.7-2.8-1.5-4.1-2
		c-8.7-3.3-17.3-6.6-26-9.9c-3.1-1.2-6.3-2.2-9.5-3.3c-2-0.7-4-0.6-6,0.1c-4.6,1.5-8.3,4.1-10.6,8.4c-1.7,3.1-3.2,6.3-4.8,9.4
		c-0.3,0.6-0.7,1.4-1.2,1.8c-0.3,0.3-1,0.3-1.5,0.2c-0.3,0-0.8-0.4-0.8-0.7c-0.1-1.1-0.3-2.2-0.1-3.3c1.6-7.3,4.7-13.7,11.2-17.9
		c0.5-0.4,1.4-0.6,1-1.9c-1.2-0.4-2.6-0.8-4-1.3c-1.9-0.7-3.6-0.5-5.3,0.7c-1.7,1.2-3.4,2.3-4.9,3.6c-5,4.2-9.6,8.8-13.6,14
		c-1,1.4-2.2,1.8-3.9,1.4c-1.4-0.4-1.9-1.2-1.4-2.4c1.1-2.6,2.8-4.8,4.6-6.9c3.3-3.8,6.9-7.3,10.8-10.4
		C767,1187.9,768.2,1187.4,768.4,1185.9z M362.9,998.9c-5.8-7.5-11.5-15-17.3-22.5c-0.1-0.1-0.4-0.1-0.8-0.1c-0.5,0.7-1,1.4-1.5,2.1
		c-2.7,4.6-5.4,9.3-8.2,13.9c-10.1,16.9-21.1,33.2-32.5,49.2c-14.2,19.7-28.7,39.3-43,58.9c-0.8,1-1.4,2.1-2.2,3.3
		c0.5,0.7,0.8,1.4,1.4,1.9c6.3,5.8,12.6,11.6,18.9,17.3c0.4,0.3,1,0.4,1.4,0.6c0.4-0.2,0.8-0.3,1.1-0.6c2.9-2.6,5.8-5.2,8.7-7.9
		c15.7-14.3,30.2-29.6,43.9-45.8c6.1-7.2,11.9-14.7,16.8-22.9c5.9-9.8,10.6-20,12.2-31.4C362.3,1009.7,363.3,1004.4,362.9,998.9z
		 M89.7,855.8c-0.6-0.4-1.2-0.8-1.8-1.1c-1.8-0.9-3.8-1.5-5.5-2.6c-5.2-3.2-8.4-7.9-8.6-14.1c-0.1-2.9,0.4-5.9,1.2-8.8
		c1.5-5.3,4.7-9.2,10.1-11c0.8-0.3,1.6-0.8,2.4-1.1c-1-5.1-2.1-10-2.9-14.9c-0.3-2-1.2-3.4-2.5-4.8c-3.6-3.5-7.4-6.7-11.7-9.4
		c-8.2-5-16.5-5.1-24.8-0.1c-2.9,1.7-5.4,3.9-7.7,6.4c-7.6,8-12.4,17.5-15.2,28.1c-1.1,4.3-1.6,8.8-1.4,13.2
		c0.2,5.5,1.8,10.6,5,15.1c1.8,2.6,4.1,4.8,6.5,6.8c9.7,7.7,20.8,10.3,32.9,9.3c8.9-0.8,16.8-4.4,23.6-10.2
		C89.5,856.4,89.5,856.2,89.7,855.8z M333.8,808.6c2-2.1,3.5-3.8,5.1-5.3c1.6-1.5,3.3-2.9,5-4.4c1.7-1.4,3.8-2.2,5.5-4.1
		c-0.9-0.6-1.6-1.2-2.4-1.6c-8.1-4.6-16.1-9.2-23.7-14.5c-0.4-0.3-1-0.2-1.7-0.4c-2.1,2.6-4.2,5.2-6.2,7.8
		c-6.5,8.4-13,16.8-18.5,25.8c-6.3,10.2-11.2,20.9-14,32.6c-1.3,5.3-1.7,10.6-2.4,16c-0.3,2.8-0.4,5.5,0,8.3c0.6,4.8,1.1,9.6,2,14.3
		c0.8,4.4,2.1,8.7,3.4,12.9c1.1,3.4,3.5,4.9,7.1,5c1.7,0,3.3,0,5,0c11.7,0.1,23.4,0.7,35,2.1c0.7,0.1,1.4-0.1,2.2-0.2
		c1.8-2.4,3.7-4.8,5.4-7.2c1.2-1.6,1.6-3.2,0.3-5.1c-1.4-2-2.3-4.3-3.7-6.2c-4.2-5.9-8.1-12-11.9-18.1c-1-1.6-2-3.1-3.2-4.6
		c-2-2.5-3.5-5.2-4.6-8.2c-3.3-8.3-5.8-16.8-7.6-25.6c-1-4.9-1.4-9.9-1.3-14.9c0.1-4.1,0.9-8.1,2.4-12c0.6-1.7,1.6-3.4,2.7-4.9
		c2.4-3.2,5.6-4,9.4-2.6c2.1,0.8,4,2.1,5.3,3.9c1.4,2,2.6,4.1,3.7,6.2C332.6,804.9,333,806.4,333.8,808.6z M814.9,391.3
		c-0.4-0.5-0.7-1.2-1.2-1.6c-2.2-2-4.5-3.9-6.8-5.8c-3.2-2.6-3.9-2.9-7.7,0.1c-1,0.8-1.9,1.8-2.6,2.8c-3.6,4.7-5.3,10.2-6,16
		c-1.6,13.2-1.2,26.4,0.4,39.5c1.9,16.2,6.8,31.6,13.7,46.3c1.9,4,4.3,7.8,7.1,11.3c2.7,3.4,5.9,6.2,9.6,8.4c1.5,0.9,3,1.4,4.8,1.1
		c0.7-0.1,1.5-0.3,2.2-0.3c2.9,0,4.8-1.6,6.3-3.9c0.6-0.9,1.2-1.9,1.6-2.9c2-4.4,3.3-9.1,4.3-13.8c0.2-0.9,0.3-1.8-0.7-2.8
		c-1-0.3-2.2-0.7-3.4-1.1c-4.8-1.5-9.4-3.4-13.8-5.8c-7.5-4.2-13.3-10-16.9-17.9c-0.5-1-0.9-2.1-1.2-3.1c-0.1-0.4,0.1-1.2,0.4-1.4
		c0.4-0.3,1.1-0.3,1.5-0.1c1,0.4,2,0.9,3,1.5c2.4,1.4,4.8,2.9,7.1,4.4c3.3,2.1,6.9,3.6,10.7,4.7c4.5,1.3,9.1,1.5,13.8,0.5
		c1.9-0.4,2.8-1.5,2.8-3.6c0-1.5-0.2-3-0.3-4.4c-0.1-1.3-0.5-2.6-0.5-3.9c-0.1-6.2-1.4-12.2-2.4-18.2c-0.1-0.9-0.6-1.7-0.9-2.6
		c-1.1,0-2-0.1-3,0c-10.4,0.7-19.3-2.8-27.4-9c-0.6-0.4-1-1.1-1.4-1.6c-0.1-0.1,0.3-0.8,0.4-0.8c2,0.1,4.1,0.1,6.1,0.3
		c6.6,0.7,13-0.1,19.3-2c0.9-0.3,1.4-1.4,1.2-2.2c-0.1-0.4-0.2-0.7-0.4-1.1c-2.8-6.3-5.9-12.4-10.5-17.7c-0.3-0.4-0.9-0.5-1.4-0.7
		c-2.4,2.5-4.7,4.9-7.1,7.2c-2.6,2.6-5.4,5.1-8.1,7.7c-0.2,0.2-0.7,0-1,0c-0.1,0-0.3-0.3-0.2-0.5c0.1-0.9,0-1.9,0.3-2.7
		c1.5-5,3.6-9.7,6.1-14.3C813.3,395.2,814.7,393.6,814.9,391.3z M1277.5,731.5c0.7,1,1,1.5,1.3,1.9c2.8,2.8,5.5,5.5,8.3,8.2
		c9.1,8.9,19.8,14.9,31.8,18.9c11.5,3.8,23.3,6.2,35.4,7.2c9.7,0.8,19.3-0.3,28.7-2.6c2.1-0.5,3.7-1.7,5.1-3.2
		c0.8-0.9,1.1-1.9,1.2-3.1c0.1-1.4-0.9-2.6-2.3-2.5c-1.5,0.2-2.9,0.4-4.4,0.7c-5.8,1.5-11.6,2.6-17.5,3.3
		c-9.6,1.1-18.9,0.2-28.1-2.8c-3.2-1-6.2-2.5-8.9-4.5c-0.6-0.5-1-1.1-0.7-1.9c0.1-0.1,0.3-0.3,0.4-0.3c6.4-0.8,12.8-2.3,19.3-2.6
		c1.7-0.1,3.3-0.4,5-0.7c9.4-1.7,18.3-4.7,27-8.7c3.7-1.7,7.2-3.9,10.6-6c2.7-1.7,5-3.9,6.9-6.4c0.7-0.9,1.3-1.8,1-3.3
		c-0.6-0.1-1.3-0.4-2-0.3c-0.9,0.1-1.8,0.4-2.6,0.8c-2.8,1.4-5.6,2.8-8.4,4.3c-5.9,3.1-11.8,6.2-18.1,8.7c-3.8,1.5-7.7,2.9-11.7,3.6
		c-4.8,0.9-9.6,1.2-14.3-0.8c-0.3-0.1-0.6-0.5-0.6-0.8c-0.1-0.3,0.1-0.7,0.3-1c0.2-0.3,0.5-0.5,0.9-0.7c4.3-2.3,8-5.3,11.7-8.5
		c1.4-1.2,2.9-2.3,4.4-3.4c2.2-1.7,4.5-3.3,6.7-5c5.9-4.4,10.3-10.1,14.1-16.4c0.7-1.1,1.1-2.3,1.6-3.5c0.1-0.3,0.2-0.7,0.2-1.1
		c0.1-0.6-0.8-1.6-1.4-1.4c-0.7,0.3-1.4,0.5-2.1,0.8c-4.1,2.2-7.8,4.9-11.2,8.2c-3.7,3.6-7.4,7.3-11.3,10.7
		c-2.8,2.4-5.8,4.6-8.9,6.7c-2,1.4-4.3,2.2-6.7,2.6c-1.3,0.2-2.6,0-3.8-0.6c-1.3-0.7-1.8-2.8-0.7-3.8c0.5-0.5,1.1-1,1.7-1.4
		c3.5-2.1,5.8-5.2,7.7-8.6c5.3-9.7,8.7-20.1,11-30.8c0.3-1.2,0.6-2.5-0.2-3.7c-0.9-0.3-1.5,0.3-1.9,0.9c-1.1,1.7-2.2,3.5-3.2,5.2
		c-3.3,5.7-7.5,10.6-12.6,14.8c-1.6,1.3-3.6,2.2-4.9,3.6c-2.8,3-6.1,4.1-10,3.9c-0.3,0-0.7,0.2-1.2,0.4c-6.1,7.5-14,13-22.4,17.9
		c-4,2.3-8.2,4.3-12.8,5.4C1282.7,730.7,1280.4,731,1277.5,731.5z M485.3,885.4c-0.4,1.1-0.9,2.1-1.1,3.1c-0.5,2.5-1,5.1-1.4,7.7
		c-2.7,15.1-5.5,30.3-9.3,45.2c-1.7,6.7-1.8,13.6-3.1,20.3c0,0.2,0,0.4,0,0.6c0,0.5,0.8,1.1,1.2,0.8c1.5-1,3.1-2,4.6-3.1
		c19-13.9,38-27.8,57.7-40.8c6-4,11.9-8.2,17.8-12.4c0.9-0.6,1.9-1.1,2.2-2.7c-1.6-2.1-3.8-3.7-6.1-5.2c-3.8-2.6-7.7-5.2-11.5-7.8
		c-4.8-3.2-9.6-6.4-14.3-9.6c-1.6-1.1-3.3-1.5-5.3-1.1c-0.7,0.1-1.5,0.3-2.2,0.4c-8.9,1.6-17.9,3.2-26.9,4.1
		C486.8,884.9,486.1,885.2,485.3,885.4z M930.9,1137.6c-0.3,0.8,0.2,1.4,0.7,2c1.5,1.7,3.3,3,5.4,3.9c2.6,1.1,5.1,2.1,7.8,2.9
		c7.1,2.1,14.4,3.3,21.9,3.5c7.8,0.2,15.6,0.3,23.4-0.5c8.7-0.9,17.3-2.2,25.8-4c7.2-1.6,14.6-2.4,21.6-5.3c1.2-0.5,2.5-0.6,3.8-0.9
		c4.7-1,9.5-1.9,14.2-2.8c26.1-5.2,51.3-13.5,75.9-23.6c0.6-0.3,1.1-0.8,1.7-1.3c-1.1-2-2-3.8-3-5.6c-0.8-1.4-1.8-1.7-3.3-1.1
		c-6.5,2.8-12.9,5.8-19.4,8.5c-14.8,6.1-30,10.9-45.6,14.5c-20.3,4.7-41,7-61.7,8.8c-7.2,0.6-14.4,1-21.7,1.5
		c-9.8,0.8-19.7,0.9-29.5,0.6c-2.6-0.1-5.2-0.4-7.8-0.6c-3.3-0.3-6.6-0.6-10-0.8C931.2,1137.3,931,1137.5,930.9,1137.6z
		 M456.4,878.2c0.3-0.5,0.7-0.9,0.8-1.4c1.4-6,2.2-12.1,1.5-18.2c-0.3-2.8-0.9-5.5-2.1-8c-2.7-5.6-7.3-7.5-13.4-5.8
		c-1.2,0.3-2.4,1-3.4,1.8c-1.5,1.1-2.9,2.3-4.2,3.6c-6,6.1-9.5,13.7-11.8,21.8c-2.7,9.4-2.8,19.1-2,28.7c0.1,1.3,0.4,2.6,0.7,3.8
		c0.8,3.3,2.5,6.2,4.9,8.6c2.7,2.8,5.2,3.1,8.5,1.3c2.3-1.3,4.2-3,5.9-5c5.4-6,9-13.1,11.7-20.7c0.1-0.4-0.1-1-0.2-1.7
		c-2.3-0.1-4.6-0.1-6.8-0.2c-1.9-0.1-3.7-0.2-5.5-0.4c-1.5-0.2-2.2-1.2-2-2.8c0.1-0.9,0.2-1.8,0.5-2.7c0.4-1.1,1.2-1.9,2.5-1.9
		c2.8-0.1,5.6-0.1,8.3-0.2C452.4,878.7,454.5,879.1,456.4,878.2z M376.4,1173.8c1.6-1.8,1.4-4.1,1.9-6.2c1-4.5,0.4-8.9-1.7-13
		c-5.5-10.9-14.4-17.4-26.5-18.7c-13.4-1.5-25.3,2-35.1,11.7c-0.5,0.5-1,1.1-0.7,1.9c0.3,0.2,0.5,0.6,0.8,0.7
		c11.8,7.3,24.1,13.8,37,19.1c6,2.5,12.3,4,18.8,4.7C372.7,1174.2,374.5,1174.5,376.4,1173.8z M1430.5,839.8c0.7,1.4,1,2.2,1.5,3
		c3.7,6.4,6.9,13.1,10,19.9c7.9,16.9,11.6,34.8,12.2,53.4c0.6,15.9-1.5,31.5-6,46.8c-4.9,16.8-12,32.8-20.9,47.9
		c-1.6,2.7-3.3,5.4-5,8c-1,1.6-0.2,2.8,1.8,2.9c1.5,0.1,2.9-0.1,4.3-0.8c3-1.6,5.5-3.6,7.1-6.8c2.3-4.6,4.8-9.2,7.2-13.8
		c6.7-12.9,12.8-26,16.2-40.2c1.6-6.7,3.2-13.4,3.7-20.2c0.8-10.4,0.4-20.8-1.2-31.1c-1.4-9-3.5-17.8-6.1-26.6
		c-4.1-14.1-9.9-27.6-15-41.4c-0.3-0.7-0.6-1.3-1-2c-0.4-0.7-1.1-1-1.9-0.9C1435.1,837.8,1433.1,838.8,1430.5,839.8z M1059.4,427.8
		c-3.1,4.9-5.6,10.1-8.9,14.8c-3.4,4.9-6.7,9.8-10.3,14.5c-3.5,4.5-7.3,8.8-10.9,13.2c0.2,0.4,0.3,0.6,0.4,0.7
		c0.7,0.3,1.3,0.6,2,0.8c7.1,1.6,13.9,4,20.6,6.8c7.8,3.4,15.7,6.7,23.2,10.9c0.6,0.3,1.3,0.4,2,0.6
		C1081.2,466,1070.2,438,1059.4,427.8z M825.3,472.6c6.7,4.3,13.9,7.3,21.8,7.8c4.6,0.3,9.3,0.4,13.9,0.1c7.3-0.4,14.3-2.3,20.9-5.4
		c11.9-5.6,19.2-14.9,22.5-27.5c0.6-2.4,0.7-4.8,0.5-7.2c-0.5-4.4-3.1-6.5-7.6-6.4c-2.1,0.1-4,0.7-5.9,1.6c-3,1.5-5.7,3.5-8.1,5.8
		c-3.7,3.4-7.2,7-10.8,10.5c-4.5,4.5-9.1,8.8-14.1,12.6c-1.6,1.2-3.3,2.4-5,3.6c-7.8,5-16.3,7.1-25.5,5
		C827.1,473,826.2,472.8,825.3,472.6z M826.1,387.1c0.8-0.7,1.6-1.5,2.4-2.2c5.6-5.2,11.7-9.7,18.2-13.7c6.7-4,13.9-7.1,21.2-9.8
		c9.6-3.7,19.4-6.2,29.3-8.9c3.9-1,7.8-2.3,11.7-3.6c3.3-1.2,6.5-2.7,9.3-4.9c1.6-1.3,2.9-2.8,3.5-4.9c0.8-3.1-0.2-5.1-3.2-6.1
		c-0.7-0.2-1.4-0.3-2.2-0.5c-5.8-1.4-11.5-0.7-17.1,0.6c-17.4,4-33.4,11.2-47.6,22.2C840.7,363.9,832,374.3,826.1,387.1z
		 M680.7,1225.3c0.3,3.2,1.1,5.6,2.6,7.8c1.3,1.9,3.1,3.2,5.5,3.3c1.3,0.1,2.6,0.2,3.9,0.3c11.1,0.5,22.3,1.1,33.4,1.6
		c0.7,0,1.5,0.1,2.2,0.1c9.6,0.6,19.3,1.2,28.9,1.7c9.6,0.5,19.3,1,28.9,1.5c0.7,0,1.5,0.1,2.2,0.2c8.1,0.6,16.3,1.3,24.4,1.9
		c7.6,0.6,15.2,1.2,22.8,1.7c10.8,0.6,21.5,1.3,32.3,0.4c3.5-0.3,7-0.8,10.5-1.5c2-0.4,4-0.9,5.6-2.2c0.3-0.3,0.4-0.9,0.6-1.7
		c-1.7,0-3.2-0.1-4.6-0.1c-18.6,0.7-37.1-0.2-55.7-1.2c-7-0.4-14.1-1.2-21.1-1.8c-11.1-0.9-22.2-1.8-33.3-2.7c-5-0.4-10-0.8-15-1.2
		c-10.4-0.9-20.7-1.8-31.1-2.9c-8.9-0.9-17.7-1.9-26.6-3C692,1226.9,686.7,1226.1,680.7,1225.3z M759.4,1050.3
		c1.8,2.6,4,3.8,6.8,3.8c2.1,0.1,4.1-0.2,5.9-1.2c2-1,4-2,5.9-3.1c5.6-3.3,11.2-6.6,16.8-9.8c5.8-3.3,11.5-6.8,16.9-10.7
		c11.5-8.2,23.6-15.5,35.6-23c11.8-7.4,23.8-14.5,35.1-22.6c8.9-6.4,17.5-13.2,26.3-19.8c2.4-1.8,4.7-3.6,7.1-5.4
		c1.1-0.8,2.1-1.7,2.3-3c0.4-2,0.7-4,0.9-6c0.1-0.7-0.4-1.4-0.6-2.1c-0.2-0.5-1-0.7-1.4-0.4c-0.7,0.6-1.4,1.2-2.1,1.8
		c-6,5.6-11.8,11.3-17.9,16.8c-9.5,8.7-19.4,16.7-30.3,23.6c-7.7,4.8-15.5,9.6-23.3,14.3c-17.6,10.4-35.2,20.8-52.9,31
		c-9.5,5.5-19.1,10.8-29.4,14.7C760.7,1049.3,760.3,1049.7,759.4,1050.3z M349.1,971.1c0.4,0.6,0.7,1.3,1.2,1.9
		c6.3,7.3,12.6,14.6,18.9,21.9c0.1,0.1,0.3,0.2,0.5,0.3c0.2,0.1,0.4,0,0.6,0c0.9-0.6,0.8-1.6,1-2.4c1.9-6.4,3.8-12.8,5.5-19.2
		c1.2-4.3,2.5-8.6,3.4-12.9c2.5-11.8,4.7-23.6,7.1-35.4c0-0.1-0.2-0.3-0.2-0.5c-0.2,0-0.4,0-0.5,0.1c-12.5,14.7-24.7,29.6-36.7,44.7
		C349.5,969.9,349.4,970.5,349.1,971.1z M225.5,480.8c0.2,1.5,0.4,3.3,0.6,5.1c0.3,3.5,1.9,6.5,4.4,8.7c5.6,5.1,12.2,6.9,19.5,4.3
		c3.9-1.3,7.2-3.7,10-6.8c1.6-1.7,2.3-3.7,2.6-6c0.3-2.8-0.5-5.5-1.1-8.2c-1.4-6.4-5.3-10.5-11.2-12.7c-6.8-2.6-13-1.1-18.8,3.2
		C227.4,471.6,225.7,475.6,225.5,480.8z M979.5,498.2c2.1-1.4,3.4-3.2,5-4.7c1.8-1.6,3.5-3.3,5.4-4.8c1.7-1.5,3.4-2.9,5.1-4.3
		c1.9-1.5,3.8-3,5.7-4.5c1.8-1.4,3.6-2.6,5.4-4c1.9-1.4,4.2-2.3,6-4.2c-0.6-0.7-1-1.3-1.5-1.8c-8.9-8.2-17.8-16.3-26.7-24.4
		c-0.4-0.4-0.8-0.8-1.3-0.9c-0.4-0.1-1.2,0.1-1.4,0.4c-0.5,0.7-0.9,1.6-1.2,2.5c-3.1,8.3-4.2,16.9-3.7,25.7
		c0.4,6.5,1.1,12.9,1.7,19.4C978.2,494.4,978.5,496.2,979.5,498.2z M737.8,424c0,0.6,0.1,2.5,0.3,4.3c0.4,3.9,1.6,7.6,3.4,11.1
		c0.9,1.7,2,3.1,3.7,4.1c1,0.5,2.4,0.4,3-0.5c0.9-1.4,1.8-2.8,2.4-4.3c1.4-3.4,2.2-7.1,2.8-10.7c0.8-5.1,1-10.4,2.2-15.4
		c0.7-2.9,1.4-5.8,2.1-8.7c1.5-6.3,5.2-10.9,11.1-13.8c4.2-2,8.3-4.2,12.4-6.4c0.6-0.3,1.2-0.9,1.7-1.4c0.1-0.2,0-0.9-0.1-0.9
		c-1.3-0.6-2.7-1.2-4.1-1.6c-5.7-1.9-10.9-1-16,2.1c-6.9,4.2-12.7,9.6-17.3,16.3C740.4,405.5,737.7,413.7,737.8,424z M743,386.4
		c-5,2-8.6,4.9-12,8.1c-5.8,5.6-10.2,12.2-14,19.3c-3.7,6.9-5,14.3-4.4,22.1c0.3,3.5,1.1,6.9,2.9,10.1c0.9,1.6,2.1,3,3.9,3.9
		c1.8,0.9,3.7,0.5,4.9-1.2c0.5-0.8,0.9-1.6,1.2-2.5c0.5-1.4,0.9-2.8,1.2-4.3c0.8-3.4,1.4-6.9,2.4-10.3c0.5-1.8,0.7-3.6,0.5-5.5
		c-0.4-5,0.1-10,1.2-14.9c1.7-7.5,5.1-14.3,9.7-20.4C741.4,389.6,742.7,388.7,743,386.4z M827.1,429.1c5.3,0.7,9.4,0.5,13.5,0.1
		c2.6-0.3,5.1-0.8,7.5-2c5.9-2.9,11.4-6.2,16.2-10.7c3-2.8,6.1-5.4,9.1-8.2c5.8-5.3,12.1-9.9,19-13.6c6.9-3.7,13.8-7.3,20.6-11.1
		c4.2-2.4,8.3-4.9,12.4-7.4c1.4-0.9,2.7-1.9,3.6-3.5c1.1-1.9,0.6-3.8-1.4-4.6c-1-0.4-2.1-0.8-3.2-0.9c-2.4-0.3-4.8,0-7.2,0.7
		c-4.9,1.4-9.4,3.6-13.5,6.5c-5,3.6-9.5,7.8-13.3,12.6c-3.2,3.9-6.4,7.8-9.6,11.6c-6.5,7.9-14.4,13.9-23.4,18.6
		c-4.9,2.6-10,4.9-15.1,7.3c-1.8,0.8-3.9,1.2-5.8,1.9C833.8,427.4,830.8,427.5,827.1,429.1z M715.8,400.4c-8.9,2.6-15.2,8.1-19.3,16
		c-3.1,6-5.2,12.3-6.5,18.9c-0.6,3.3-1.1,6.6-0.8,10c0.4,5.3,3,9.5,7.2,12.6c1.4,1,3,0.6,3.6-1c1.4-3.4,2.3-7.1,4.2-10.3
		c1.2-2,1.6-4.1,1.1-6.4c-0.2-0.9-0.2-1.8-0.3-2.8c-1-8.7,0.2-17,4-25c1.4-3,3.2-5.9,4.8-8.8C714.5,402.6,715.2,401.5,715.8,400.4z
		 M883.4,1235.2c-2.8-2.7-5.3-4.5-7.9-6.3c-8.9-6-18.4-11-28.2-15.5c-7.5-3.4-6.5-3.7-9.6,3.9c-0.8,2-1.4,4.2-1.9,6.4
		c-0.8,3.2-0.7,5.4,0,9.5c0.6,0.1,1.3,0.4,2,0.5c3.3,0.3,6.6,0.6,10,0.7c7.6,0.4,15.2,0.7,22.8,1c3.7,0.2,7.4,0.2,11.1,0.3
		C881.9,1235.7,882.2,1235.5,883.4,1235.2z M1416.6,1017.2c0.7-0.9,1.4-1.6,1.8-2.4c2.2-3.9,4.4-7.8,6.5-11.7
		c3.8-7,7.2-14.2,10.3-21.6c0.4-0.9,0.8-1.7-0.1-2.9c-2.5-0.3-5.2-0.9-8-0.9c-4.6-0.2-9.3,0-13.9,0c-1.3,0-2.1,0.9-2.2,2.1
		c0,0.4-0.1,0.7-0.1,1.1c-0.3,8.4-0.1,16.7,1,25c0.4,3.1,1.2,6.2,2.9,9C1415.2,1015.7,1415.8,1016.3,1416.6,1017.2z M1310.6,697.4
		c-20.7,11.9-20.6,12.5-44.3,19.6c1.1,3,3,5.4,5.2,7.7c5.7,1.2,11.1,0.6,16.3-1.8c3.3-1.6,6.7-3.3,9.8-5.2
		c5.9-3.5,11.3-7.8,16.6-12.1c0.5-0.4,0.9-1.1,1.5-1.8C1313.8,701.6,1313.2,698.7,1310.6,697.4z M914.7,943
		c-1.3-1.5-3.1-1.9-4.9-2.4c-9.2-2.4-18.4-1.2-27.6,0.7c-1.2,0.3-1.8,1.2-1.6,2.5c0.6,5.2,1.8,10.2,3.5,15.2
		c0.8,2.5,2.3,4.6,4.8,5.9c0.6-0.3,1.2-0.4,1.6-0.8c8-6.7,15.9-13.4,23.9-20.1C914.5,943.8,914.6,943.4,914.7,943z M930.6,1133.9
		c4.3,0.4,26.3-0.1,32.4-0.7c0.7-0.1,1.4-0.4,2.1-0.5c-0.2-3.9-2.5-15.6-3.8-19c-0.4-0.1-0.7-0.3-1.1-0.2c-9.8,2-18.5,6.3-25.7,13.5
		c-1.4,1.4-2.5,3.2-3.5,4.9C930.6,1132.4,930.7,1133.2,930.6,1133.9z M1176.7,688.9c0.3,3.9,1.4,7.5,2.1,11.1
		c2,10.1,5.9,19.5,10.9,28.4c0.4,0.6,0.8,1.2,1.7,0.6c0.3-14.4-0.4-28.8-0.9-43.2c0-0.4-0.4-0.9-0.8-1.5
		C1185.3,685.7,1180.8,686.7,1176.7,688.9z M414.4,877.5c-1,1.3-1.4,1.7-1.6,2.1c-5,11.4-10.5,22.5-17.1,33.1c-0.2,0.4,0,1,0,1.6
		c8.1,0,16.1,0,24.1,0c0.3,0,0.6-0.4,1.1-0.7c-0.3-0.6-0.6-1.2-1.1-1.8c-2.8-3.4-4.2-7.4-5-11.7c-1.1-5.7-1.5-11.4-0.8-17.2
		C414.1,881.5,414.2,880.1,414.4,877.5z M744.8,552.5c1.4-0.6,2.4-1.1,3.3-1.6c10.6-6,21.8-10.1,34-11.3c0.5,0,0.9-0.5,1.3-0.7
		c-0.7-3.7-0.7-3.7-2.9-6.4c-0.4,0-0.7-0.2-1.1-0.1c-7.5,1.3-15,2.4-22.3,4.6c-5.2,1.6-10.2,3.4-15,5.9c-0.8,0.4-1.6,0.9-1.8,2.2
		C741.4,547.4,742.7,549.9,744.8,552.5z M328.8,909.4c-1.1-0.1-2.1-0.1-3.2-0.2c-7.2-0.3-14.4-0.5-21.7-0.7c-1.7-0.1-3.3-0.1-5-0.2
		c-0.4,0-0.8,0-1.1,0.2c-0.2,0.2-0.5,0.7-0.4,0.9c0.5,1,1.1,1.9,1.8,2.8c4.5,5.7,9.3,11.1,13.2,17.2c0.2,0.2,0.6,0.3,1.2,0.5
		c5.3-6.1,10.2-12.5,14.9-19.2C328.9,910.5,328.7,910,328.8,909.4z M684.7,418.9c-0.2,0-0.4,0-0.5,0.1c-4,3.2-6.8,7.4-8.3,12.2
		c-2.3,7.3-2.9,14.9-2.4,22.5c0.3,3.8,1.7,7.2,3.8,10.3c0.7,1.1,1.7,1.9,2.7,2.7c1.3,1,3.5,0.7,4.5-0.7c2.8-3.7,2.6-4.7,0.6-7.4
		c-1-1.3-1.8-2.8-2.5-4.3c-1.1-2.2-1.8-4.5-1.9-6.9c-0.3-5-0.3-10,0.9-14.9c1-3.9,2.2-7.8,3.3-11.7
		C685.2,420.2,685.4,419.5,684.7,418.9z M271.5,871.7c-7.4-6.1-14.7-11.7-22.6-16.6c-4.3-2.7-8.7-4.9-13.6-6.4
		c-2.3-0.7-4.7-1.1-7.1-0.9c-0.2,0-0.4,0.4-0.7,0.7c0.8,1.4,2.4,1.6,3.6,2.4c1.2,0.8,2.5,1.6,3.8,2.4c1.3,0.8,2.5,1.5,3.8,2.3
		c1.4,0.9,2.9,1.7,4.3,2.6c1.2,0.8,2.5,1.7,3.7,2.5s2.4,1.7,3.6,2.6c1.2,0.9,2.4,1.8,3.6,2.7c1.2,0.9,2.3,1.9,3.5,2.8
		c1.1,1,2.3,1.9,3.4,2.9c1.2,1.1,2.5,2.3,3.7,3.4c1.1,1,2.1,2.1,3.1,3.2c1,1.1,2,2.2,3,3.3c1,0.9,1.6,2.4,3.4,2.9
		C273,880,272.3,876.1,271.5,871.7z M777.3,523.6c-2.2-0.4-4.6,0-7,0.3c-4.8,0.6-9.5,1.1-14.3,1.6c-7.9,0.8-15.8,1.7-23.7,2.5
		c-1.5,0.2-2,1.1-1.3,2.2c1.5,2.4,3,4.7,4.5,7c0.5,0.8,1.1,1.5,2.4,1.6c5.9-3.5,12.3-6.2,19.1-8.1c6.9-2,14-3.3,21.1-3.2
		C778.8,525.9,778.2,524.8,777.3,523.6z M487,875.5c1,0.3,1.3,0.5,1.7,0.5c6.1-0.6,12.2-1.5,18.1-2.9c0.2,0,0.3-0.6,0.5-1.1
		c-1.5-1.1-2.9-2.1-4.4-3.2c-1.4-1-2.7-1.9-4.1-2.9c-1.5-1.1-2.9-2.3-4.4-3.4c-1.4-1.1-2.5-2.8-4.6-3
		C488.5,864.7,487.2,869.9,487,875.5z M211.5,1053.6c-5.5-8.1-10.1-16.3-15.9-23.8c-0.1,0.1-0.2,0.3-0.4,0.5c1,2.3,2,4.7,2.9,7.1
		c1,2.6,2,5.2,2.9,7.8c0.9,2.4,1.7,4.9,2.6,7.3c0.9,2.5,1.3,5.3,2.9,7.7c0.6-0.5,1.1-0.8,1.4-1.2
		C209.3,1057.5,210.6,1056,211.5,1053.6z"/>
	<path id="XMLID_1942_" d="M630,784.2c-0.2,1-0.3,1.9-0.6,2.8c-1.2,3.7-3.5,6.5-6.8,8.5c-4.9,3-11.3,1-13.3-4.4
		c-0.9-2.4-1.6-5-1.6-7.5c-0.2-7.1,6.7-12.3,13.2-10c3.9,1.4,6.8,3.7,8.3,7.6C629.6,782.1,629.7,783.2,630,784.2z M622.7,785.7
		c0-0.5,0-0.7,0-0.8c-0.3-1.7-2.3-3.5-4.3-3.9c-1.7-0.3-2.7,0.8-3.6,2.1c-0.3,0.5-0.5,1-0.8,1.5c-1.1,1.8,0.4,5.2,2.5,5.9
		c0.5,0.2,1.1,0.3,1.6,0.1C620.6,789.7,622,787.9,622.7,785.7z"/>
	<path id="XMLID_1941_" d="M143.3,643.8c-3.5-0.2-6.9-1.1-10-2.8c-2.3-1.2-4.5-2.6-6.6-4.2c-7.4-5.9-12.6-13.5-15.9-22.3
		c-0.5-1.4-0.7-2.9-0.8-4.3c-0.1-0.9,0.7-1.8,1.5-2.1c1-0.4,2.4,0,2.9,0.9c0.7,1.3,1.3,2.7,1.9,4c2.7,6,6.2,11.4,10.8,16.1
		c3.6,3.7,7.8,6.8,12.5,9.1c2,1,3.9,2.1,5.8,3.2c0.4,0.2,0.7,0.8,0.8,1.3c0.1,0.7-0.6,0.8-1.1,0.9
		C144.5,643.7,143.9,643.7,143.3,643.8z"/>
	<path id="XMLID_1940_" d="M251.6,813.2c5.1,0.5,10,1.1,14.8,2.6c1.2,0.4,2.3,1.1,3.4,1.8c0.9,0.6,1.1,2,0.7,3
		c-0.5,1.1-1.4,1.6-2.6,1.7c-0.5,0-1.1,0-1.6-0.2c-4.8-1.2-9.6-2.4-14.5-3.6c-0.9-0.2-1.8-0.6-2.6-1c-0.9-0.4-1.4-1.2-1.4-2.2
		c0-0.8,0.9-1.7,1.8-1.9C250.2,813.4,251,813.3,251.6,813.2z"/>
	<path id="XMLID_1939_" d="M286.4,783.9c-0.4-0.1-0.8,0-1.1-0.2c-0.5-0.2-1.1-0.5-1.4-0.9c-4-4.4-8-8.8-11.9-13.2
		c-0.1-0.1-0.2-0.3-0.2-0.5c0-0.7-0.1-1.5,0.1-2.1c0.2-0.8,1.6-1.2,2.4-0.9c0.9,0.3,1.8,0.6,2.5,1.2c4.1,3.5,7.9,7.3,11.3,11.5
		c0.4,0.6,0.7,1.3,0.9,2C289.2,782.3,287.7,784,286.4,783.9z"/>
	<path id="XMLID_1938_" d="M257.4,787.8c0.7,0,1.1-0.1,1.4,0c5,1.3,9.9,2.9,14.4,5.6c0.9,0.6,1.8,1.3,2.6,2.1
		c0.9,0.9,0.9,2.7,0.1,3.6c-0.7,0.8-2,1.2-3,0.8c-0.5-0.2-1-0.4-1.5-0.7c-3.8-2.3-7.9-4.1-12-5.8c-1.2-0.5-2.4-1-3.1-2.2
		c-0.4-0.7-0.6-1.4-0.2-2.1C256.5,788.6,257.1,788.2,257.4,787.8z"/>
	<path id="XMLID_1935_" d="M579.2,518.9c-0.7-5.3,2.2-9.6,6.9-12.9c4.1-3,8.6-5.1,13.8-5.5c7-0.5,12.2,2.5,15.2,8.9
		c5,10.5,0.2,23.3-10.3,28.2c-7.9,3.6-18.2,0.3-22.8-7.3C579.8,526.9,579.2,524.4,579.2,518.9z M585.3,519.8c-0.1,3.5,1,6.2,3,8.5
		c3.6,4.1,10.3,5.4,14.7,2.7c6.2-3.7,8.5-11.5,5.3-17.9c-1.8-3.7-4.4-5.1-8.6-4.5c-4.5,0.7-8.4,2.8-11.9,5.7
		C586,515.8,585.2,517.8,585.3,519.8z"/>
	<path id="XMLID_1934_" d="M729.7,677.8c-0.8-0.7-0.9-1.7-0.6-2.5c0.6-1.6,1.2-3.1,2-4.6c4-7.5,4.2-15.2,1.4-23.1
		c-1-2.8-2.4-5.4-3.6-8.1c-0.4-0.8-0.8-1.6-1.1-2.5c-0.1-0.3,0-0.9,0.2-1c0.4-0.3,1-0.6,1.4-0.5c0.7,0.1,1.4,0.5,2,0.9
		c1.8,1.4,3.1,3.2,4.2,5.1c2.5,4.6,4,9.5,4.6,14.7c0.5,4.5-0.3,8.8-2,13c-1.1,2.6-2.6,4.9-4.6,6.9
		C732.6,677.1,732.6,677.1,729.7,677.8z"/>
	<path id="XMLID_1933_" d="M1033.7,508.4c-0.1,2.4-1.7,4.3-3.6,4.9c-1.8,0.5-3.7-0.3-4.7-2c-0.6-1-0.8-2.1-0.3-3.1
		c0.4-0.8,0.8-1.6,1.4-2.4c1.5-2,3.8-2.2,5.7-0.4C1033.2,506.4,1033.7,507.5,1033.7,508.4z"/>
	<path id="XMLID_1932_" d="M1054.6,553.6c-0.9,0-2.3-1-3.3-2.7c-0.7-1.3-0.4-3,0.6-4.1c1.1-1.2,2.6-1.5,4-0.8
		c1.2,0.5,2.2,1.3,2.8,2.5C1060,550.7,1058.4,553.6,1054.6,553.6z"/>
	<path id="XMLID_1931_" d="M1087.1,589.6c0.1,1.7-1.3,3.7-3.3,4.6c-1.2,0.5-2.9,0-3.9-1.2c-0.2-0.3-0.4-0.6-0.6-0.9
		c-0.8-1.8,0.6-4.3,2.8-5.2c1.6-0.7,3.8,0.1,4.7,1.8C1087,588.9,1087,589.3,1087.1,589.6z"/>
	<path id="XMLID_1930_" d="M468.8,1043.6c0.1,1.3-1,2.5-2.3,2.7c-1.9,0.2-3.6-1.2-3.7-3.2c-0.1-1.2,1.3-2.5,2.5-2.4
		C467.1,1040.7,468.7,1042.1,468.8,1043.6z"/>
	<path id="XMLID_1929_" d="M402.3,985.7c-0.1,1.6-1.5,2.9-2.9,2.6c-1.6-0.3-3-2-2.9-3.4c0.1-1.4,1.6-2.4,3.2-2.2
		C401.3,982.9,402.4,984.3,402.3,985.7z"/>
	<path id="XMLID_1928_" d="M322.6,1116.4c0.1,1.3-0.7,2.5-2.1,2.8c-1.4,0.2-2.8-0.5-3-1.7c-0.3-1.5,0.8-2.9,2.3-3.1
		C321.2,1114.2,322.4,1115.1,322.6,1116.4z"/>
	<path id="XMLID_1927_" d="M533.2,1012.4c0.1,1.6-1,2.8-2.7,2.8c-1.4,0-2.5-1-2.4-2.4c0-1.4,0.9-2.4,2.4-2.5
		C531.9,1010.2,533.1,1011.1,533.2,1012.4z"/>
	<path id="XMLID_1926_" d="M552.5,938.3c-0.1,1.6-1.6,2.9-2.9,2.6c-1-0.2-1.8-1.3-1.8-2.5c0.1-1.4,1.1-2.6,2.3-2.7
		C551.4,935.8,552.6,937.1,552.5,938.3z"/>
	<path id="XMLID_1925_" d="M415.9,1130.9c-1.5-0.2-2.6-1.6-2.3-3.1c0.3-1.3,1.6-2.1,2.9-1.8c1.2,0.3,1.9,1.5,1.7,3
		C417.9,1130.2,416.9,1131,415.9,1130.9z"/>
	<path id="XMLID_1924_" d="M584.5,985c0,1.5-1,2.5-2.4,2.4c-1.3,0-2.4-1.2-2.4-2.5c0.1-1.4,1.1-2.4,2.5-2.5
		C583.5,982.5,584.6,983.6,584.5,985z"/>
	<path id="XMLID_1923_" d="M411.4,1044.3c0.1,1.3-0.9,2.5-2.2,2.5c-1.3,0-2.5-0.9-2.6-2.2c-0.1-1.3,0.9-2.6,2.2-2.6
		C410.1,1042.1,411.2,1043.1,411.4,1044.3z"/>
	<path id="XMLID_1922_" d="M474.1,984.2c0,1.2-0.9,2.1-2.1,2.1c-1.3,0-2.5-1.1-2.4-2.4c0.1-1.1,1.1-2.1,2.1-2.2
		C473,981.7,474.1,982.8,474.1,984.2z"/>
	<path id="XMLID_1921_" d="M369.8,1080.9c1.2,0.1,2.1,1,2.1,2c0.1,1.2-1.3,2.2-2.7,2c-1.1-0.1-1.9-1.2-1.8-2.3
		C367.6,1081.5,368.6,1080.7,369.8,1080.9z"/>
	<path id="XMLID_1920_" d="M482.4,1095.5c-0.1,1.3-1.4,2.3-2.7,2.1c-0.8-0.2-1.6-1.1-1.7-1.9c-0.1-1.3,1.1-2.5,2.4-2.4
		C481.5,1093.4,482.4,1094.5,482.4,1095.5z"/>
	<path id="XMLID_1919_" d="M439.1,939.4c-0.1,1.1-1.1,2-2.2,1.9c-1.1-0.1-2-1.2-1.9-2.2c0.1-1,1.2-2,2.2-1.9
		C438.3,937.2,439.2,938.3,439.1,939.4z"/>
	<path id="XMLID_1918_" d="M535,971.4c0.1,0.9-0.8,1.7-1.7,1.8c-1.1,0.1-2.1-0.8-2.1-2c0-1,0.7-1.8,1.6-1.8
		C534,969.4,535,970.3,535,971.4z"/>
	<path id="XMLID_1917_" d="M1029.5,358.7c0,1.5-1.1,2.8-2.9,3.7c-1.2,0.6-2.5,0.6-3.8,0.4c-0.7-0.1-1.4-0.5-1.7-1.2
		c-0.3-0.8,0.1-1.4,0.7-1.9c0.4-0.3,1-0.5,1.4-0.9c1-0.8,1.4-1.8,0.8-2.9c-1.1-2.1-2.3-4.2-3.6-6.2c-1.3-2-2.9-3.8-4.3-5.8
		c-0.8-1.2-1.5-2.5-2.2-3.8c-0.4-0.8,0-1.9,0.7-2.5c0.6-0.5,2-0.5,2.5,0.1c3.8,4.5,7.9,8.8,10.7,14
		C1029,353.7,1029.6,355.8,1029.5,358.7z"/>
	<path id="XMLID_1916_" d="M1004.3,357.2c0-0.2,0.2-1.1,0.4-2c0.1-0.5,1.3-1.2,1.8-1c0.5,0.2,1.1,0.5,1.3,0.9
		c0.5,1.4,0.9,2.8,1.2,4.3c0.8,3.7,2.9,6.3,6.5,7.7c1.2,0.5,2.4,1.1,3.5,1.7c0.3,0.1,0.6,0.7,0.5,0.9c-0.1,0.5-0.5,1-0.9,1.2
		c-1.5,0.9-3.2,0.8-4.8,0.4c-3.6-0.9-6.3-3.1-7.9-6.4C1004.7,362.7,1004.1,360.4,1004.3,357.2z"/>
	<path id="XMLID_1915_" d="M1058.7,349.8c0.9,0.5,1.6,0.9,2.1,1.3c1,0.8,0.9,2.3-0.3,2.7c-1.2,0.4-2.5,0.7-3.6,1.1
		c-0.6,1.5-1.2,2.8-1.8,4.1c-0.1,0.3-0.6,0.5-0.9,0.5c-0.3,0-0.7-0.3-0.8-0.6c-0.3-0.8-0.8-1.7-0.8-2.6c0.1-4.6,1.8-8.6,5-11.9
		c0.2-0.2,0.6-0.4,1-0.5c0.3-0.1,0.9-0.1,1,0.1c0.4,0.4,0.9,1,0.8,1.4C1060,346.8,1059.4,348.1,1058.7,349.8z"/>
	<path id="XMLID_1914_" d="M972.2,357.5c-0.3,0.3-0.6,0.8-1.1,1c-0.2,0.1-0.7,0.1-1-0.1c-0.5-0.3-0.9-0.6-1.2-1.1
		c-0.8-1.2-1.9-1.5-3.3-1.6c-1.1-0.1-1.9-1-1.4-1.9c0.7-1.4,0.9-2.7,0-4.1c-0.3-0.4-0.3-1.1-0.2-1.6c0.1-0.4,0.7-0.6,1.2-0.9
		c0.1-0.1,0.4,0.1,0.5,0.2c2.8,2.2,4.9,5,6.3,8.2C972.2,356.2,972.1,356.8,972.2,357.5z"/>
	<path id="XMLID_1913_" d="M1028.1,340.5c0,0.2,0,0.4-0.1,0.6c-0.3,0.5-0.5,1-0.9,1.3c-0.7,0.4-1.6,0.4-2-0.2
		c-1.8-2.3-3.6-4.7-5.2-7.1c-0.4-0.6-0.3-1.4,0.3-2.1c0.5-0.6,1.3-0.8,2-0.5c3.2,1.5,5.2,4,6,7.5
		C1028.2,340.2,1028.1,340.4,1028.1,340.5z"/>
	<path id="XMLID_1912_" d="M1004.2,335.1c0.5,0.1,0.9,0.1,1.2,0.3c2.4,1.6,4,3.8,4.9,6.5c0.2,0.5,0,1.1,0,1.6
		c-0.1,0.9-1.3,1.6-2.1,1.1c-0.3-0.2-0.7-0.3-0.9-0.6c-1.6-2-3.2-4.1-4.7-6.1c-0.5-0.7-0.2-1.5,0.3-2
		C1003.2,335.5,1003.8,335.3,1004.2,335.1z"/>
	<path id="XMLID_1909_" d="M140.1,820c0.9-0.2,1.4-0.4,1.9-0.4c8.7,0.1,17.4,0.1,26.1,0.2c0.4,0,0.7,0.1,1.1,0.2
		c0.6,0.1,1.1,1,1.1,1.7c-0.3,3.1-1.7,5.7-4.3,7.4c-5.2,3.4-10.9,4.6-17,3.1c-2.6-0.6-4.7-2.2-6.4-4.2
		C140.7,825.9,139.7,823.4,140.1,820z M145.1,823.6c0.5,1.1,0.6,1.6,0.9,2c1.7,1.9,3.8,2.8,6.3,3c4,0.3,7.7-0.7,10.9-3.1
		c0.2-0.1,0-0.6,0-1.2C157.5,823.8,151.6,823.2,145.1,823.6z"/>
	<path id="XMLID_1908_" d="M166.1,809.2c-0.1,4.5-2.9,6.8-6.8,6.4c-0.7-0.1-1.3-1.1-0.9-1.7c0.6-0.9,1.3-1.8,2-2.7
		c0.7-1,0.9-2.1,0.4-3.1c-1.1-1.9-2.2-3.8-3.4-5.7c-1-1.5-2.3-2.9-2.6-4.8c0-0.3,0.2-0.7,0.4-0.9c0.2-0.2,0.6-0.3,1-0.3
		c0.2,0,0.4,0.1,0.5,0.1c3.6,2.4,6.6,5.3,8.4,9.3C165.7,807.1,166,808.6,166.1,809.2z"/>
	<path id="XMLID_1907_" d="M167.3,794.9c-0.3,0.4-0.5,1-0.9,1.3c-0.7,0.4-1.4,0.3-2-0.3c-0.5-0.5-1.1-1-1.4-1.6
		c-1.7-2.8-3.4-5.7-5-8.6c-0.3-0.5-0.4-1-0.5-1.6c-0.2-0.7,1-1.8,1.8-1.6c0.5,0.1,1.1,0.2,1.5,0.6c3.1,2.8,5.2,6.2,6.5,10.1
		C167.4,793.7,167.3,794.2,167.3,794.9z"/>
	<path id="XMLID_1906_" d="M94.8,836c-0.1-1.8-1.2-2.3-1.8-3.2c-0.5-0.8-0.6-1.6-0.1-1.9c0.7-0.5,1.4-0.3,2.1,0
		c4,2.2,6.8,5.5,8.4,9.8c0.1,0.2-0.1,0.7-0.3,0.9c-0.2,0.1-0.7,0.1-0.9-0.1c-2.3-2.9-5.2-2.9-8.4-2.2c-1.2,0.3-2.5,0.4-3.8,0.4
		c-0.3,0-0.7-0.4-0.8-0.7c0-0.5,0-1.2,0.3-1.4c0.5-0.5,1.2-0.8,1.9-1C92.4,836.4,93.5,836.2,94.8,836z"/>
	<path id="XMLID_1905_" d="M136.5,789c0.3,0.1,0.8,0.1,1,0.3c0.6,0.4,1.2,0.9,1.6,1.5c1.6,2.5,3.1,5,4.5,7.5
		c0.5,0.9,0.7,2.1,0.8,3.1c0,0.4-0.4,1.1-0.8,1.3c-0.4,0.2-1.1,0.2-1.5,0c-0.5-0.2-1-0.6-1.3-1c-2-3.3-4-6.5-6-9.8
		c-0.2-0.3-0.1-0.7-0.2-1.1C134.7,790.1,135.8,788.9,136.5,789z"/>
	<path id="XMLID_1904_" d="M566.2,831.2c0,1.5-1.4,2.8-2.9,2.7c-1-0.1-1.9-1.2-1.9-2.3c0-1.3,1.1-2.3,2.6-2.3
		C565.1,829.2,566.2,830.2,566.2,831.2z"/>
	<path id="XMLID_1903_" d="M475.8,757.7c0.1,1.3-0.9,2.5-2.2,2.6c-1,0.1-2.1-0.8-2.3-1.9c-0.3-1.3,0.6-2.7,1.8-2.9
		C474.3,755.3,475.6,756.4,475.8,757.7z"/>
	<path id="XMLID_1902_" d="M510,853.2c1.1-0.1,2.1,0.8,2.3,1.9c0.2,1.4-0.7,2.7-2,2.8c-1.1,0.1-2.2-0.7-2.3-1.9
		C507.9,854.5,508.7,853.3,510,853.2z"/>
	<path id="XMLID_1901_" d="M508.6,784.1c0.1-1.1,1.2-2,2.3-2c1.1,0,2,1.1,1.9,2.2c-0.1,1.1-1.1,2.1-2.2,2
		C509.4,786.2,508.4,785.1,508.6,784.1z"/>
	<path id="XMLID_1900_" d="M529,824.3c0.1,0.9-0.6,1.8-1.5,2c-1,0.2-2.2-0.9-2.1-2c0-0.9,0.9-1.7,1.8-1.7
		C528.1,822.6,528.9,823.4,529,824.3z"/>
	<path id="XMLID_1899_" d="M497.1,817.6c0,1.1-1,2-2.1,1.9c-0.9-0.1-1.6-0.9-1.6-1.8c0-0.9,0.7-1.7,1.6-1.9
		C496.1,815.6,497.1,816.5,497.1,817.6z"/>
	<path id="XMLID_1898_" d="M457.7,810c-0.9,0.1-1.8-0.6-1.9-1.5c-0.1-0.9,0.5-1.8,1.4-2c1.1-0.2,2.2,0.6,2.2,1.7
		C459.4,809.1,458.6,809.8,457.7,810z"/>
	<path id="XMLID_1897_" d="M676.1,932.6c-0.1,1.3-1.2,2.3-2.6,2.3c-1.6,0-2.8-1.4-2.5-2.9c0.2-1.3,1.4-2.2,2.8-2
		C675.2,930.2,676.2,931.3,676.1,932.6z"/>
	<path id="XMLID_1896_" d="M590.6,891c-1.1-0.1-2.1-1-2.2-2.1c-0.1-1.6,1.3-2.9,2.8-2.7c1,0.1,2,1.3,1.9,2.4
		C593.1,889.8,591.9,891,590.6,891z"/>
	<path id="XMLID_1895_" d="M564.6,890.6c0,1.6-1.2,2.9-2.6,2.8c-0.8-0.1-1.4-1-1.5-2c-0.1-1.6,0.7-2.6,2-2.7
		C563.6,888.5,564.6,889.5,564.6,890.6z"/>
	<path id="XMLID_1894_" d="M636.9,932.5c0,1.2-0.8,2.3-1.8,2.3c-1.2-0.1-2.3-1.2-2.3-2.5c0-1.1,1-1.9,2.2-1.9
		C636.1,930.4,636.8,931.2,636.9,932.5z"/>
	<path id="XMLID_1893_" d="M689.6,978.5c0.8-0.1,1.8,0.6,2,1.4c0.3,1.1-0.5,2.2-1.6,2.4c-0.8,0.1-1.8-0.6-2-1.4
		C687.7,980,688.6,978.7,689.6,978.5z"/>
	<path id="XMLID_1892_" d="M627.8,892.1c0.1,1.1-0.8,2.2-1.8,2.3c-1,0-2-1-2-2.1c0-0.9,0.6-1.7,1.5-1.9
		C626.6,890.2,627.7,891,627.8,892.1z"/>
	<path id="XMLID_1891_" d="M735.2,986.7c0.2,0.9-0.5,1.7-1.5,1.8c-0.8,0-1.3-0.4-1.6-1.1c-0.3-0.8,0.3-1.9,1.2-2.1
		C734.1,985.1,735.1,985.8,735.2,986.7z"/>
	<path id="XMLID_1890_" d="M705.1,841.4c-1.3,0-2.4-1.2-2.3-2.5c0.2-1.3,1.3-2.3,2.6-2.2c1.3,0.1,2.4,1.3,2.3,2.5
		C707.7,840.5,706.5,841.4,705.1,841.4z"/>
	<path id="XMLID_1889_" d="M678.1,878.5c1.1,0.1,2,1.1,2,2.2c-0.1,1.1-1,2.1-2.1,2.1c-1.4,0-2.5-1.2-2.2-2.5
		C675.9,879.2,676.9,878.4,678.1,878.5z"/>
	<path id="XMLID_1888_" d="M654,859.1c-1.2,0-2.1-0.9-2.1-2c0-1.4,1.1-2.5,2.4-2.4c1.2,0.1,2,1,2.2,2.1
		C656.5,858,655.4,859.1,654,859.1z"/>
	<path id="XMLID_1887_" d="M732.6,860.4c1.1-0.1,2.1,0.8,2.3,1.8c0.2,1.3-0.8,2.5-2.1,2.5c-1.1,0-2.2-0.8-2.4-1.8
		C730.2,861.7,731.3,860.5,732.6,860.4z"/>
	<path id="XMLID_1886_" d="M719.7,919.7c-0.1,1.1-1.2,2-2.4,1.9c-1.1-0.1-2-1.3-1.7-2.4c0.2-0.9,1-1.6,2-1.6
		C718.8,917.6,719.8,918.6,719.7,919.7z"/>
	<path id="XMLID_1885_" d="M714.2,1111.9c-1.3-0.1-2.2-1.5-2-2.8c0.2-1.1,1.3-1.9,2.4-1.8c1.2,0.1,2,1,2.1,2.2
		C716.7,1110.8,715.5,1112,714.2,1111.9z"/>
	<path id="XMLID_1884_" d="M681.1,1100.1c0,1.2-0.9,2.1-2.1,2c-1.1-0.1-2.1-1.1-2-2.2c0.1-0.9,0.9-1.7,1.8-1.7
		C680,1098.1,681.1,1099,681.1,1100.1z"/>
	<path id="XMLID_1883_" d="M719.3,1144.8c0,1.1-1,1.9-2.2,1.9c-1.1,0-2.1-0.9-2.1-2c0-1.1,0.9-2.1,1.9-2.2
		C718.2,1142.4,719.3,1143.5,719.3,1144.8z"/>
	<path id="XMLID_1882_" d="M698.5,1167.6c-0.1,1.1-1.2,2-2.2,2c-1.1-0.1-2-1.1-1.9-2.3c0.1-1.1,1.1-2,2.2-1.9
		C697.8,1165.5,698.7,1166.5,698.5,1167.6z"/>
	<path id="XMLID_1881_" d="M698.6,1037.6c-1.2,0-2-0.9-2-2.1c0-1.2,0.9-2.1,2.1-2c1.2,0.1,2.1,1,2.1,2.1
		C700.8,1036.7,699.8,1037.6,698.6,1037.6z"/>
	<path id="XMLID_1880_" d="M692.7,1065.8c0,0.9-0.8,1.8-1.8,1.7c-0.8,0-1.4-0.5-1.6-1.3c-0.2-0.9,0.5-1.8,1.4-2
		C691.7,1064.1,692.6,1064.9,692.7,1065.8z"/>
	<path id="XMLID_1877_" d="M1342.7,891.9c-0.4-6.3,2.3-11.8,6.9-16.5c4.6-4.6,10.1-7.6,16.6-8.4c17.2-2,31.8,12.4,28.7,30
		c-0.5,3-2,5.5-4,7.8c-7.4,8.5-23,12.8-34.8,7.4c-4-1.8-7.2-4.5-9.9-7.9C1343.6,901,1342.8,898.1,1342.7,891.9z M1369.2,871
		c-2,0.4-4.1,0.5-6,1.1c-8.3,2.5-13.6,7.9-16.3,16.1c-1.9,5.7-0.5,10.6,3.1,15.1c2.9,3.5,6.7,5.8,11.2,6.9c8.7,2.1,16.5,0,23.7-5.1
		c0.9-0.6,1.7-1.4,2.5-2.2c2.6-2.6,3.9-5.8,4-9.5C1391.6,882.1,1383.1,871,1369.2,871z"/>
	<path id="XMLID_1874_" d="M1047,1070c-10.3,0.1-17.3-4.5-22.2-12.5c-2.7-4.5-3.4-9.5-2.3-14.5c2.1-9.4,7.8-15.8,16.9-19
		c3.8-1.3,7.7-0.6,11.5,0.3c6.2,1.4,10.5,5.3,13.5,10.8c5.2,9.8,2.5,22.7-4.6,29.3C1056,1068,1051.7,1070.1,1047,1070z
		 M1062.3,1046.2c0-0.7,0.1-1.5,0-2.2c-0.7-7.4-6.2-13.9-13.2-15.3c-4.7-0.9-9.2-0.4-13.5,1.7c-6.1,2.9-9.2,7.7-9.8,14.4
		c-0.7,8.7,3.4,15,10.7,19.2c6.9,3.9,15.7,2.6,21.1-3.9C1061,1056,1062.4,1051.3,1062.3,1046.2z"/>
	<path id="XMLID_1873_" d="M434.5,883.5c-0.1-2.3,0.3-3.8,1.7-5c0.2-0.2,0.6-0.3,1-0.4c0.3-0.1,0.9,0.8,0.7,1.3
		c-0.8,1.9-1,3.9-0.2,5.9c0.1,0.2-0.2,0.9-0.4,0.9c-0.5,0.1-1.2,0.1-1.4-0.2C435.2,885.1,434.8,884.1,434.5,883.5z"/>
</g>
<polygon id="XMLID_1871_" points="976.2,504.4 983.3,518 1017.8,474.5 "/>
<polygon id="XMLID_1870_" points="1015,476.6 1083.1,508.8 1083.1,498.2 1029.2,474.5 "/>
<polygon id="XMLID_1869_" points="1071.8,434 1103.7,409.8 1065.6,421.9 "/>
<polygon id="XMLID_1868_" points="974.5,457.4 970.5,449.7 951,466.8 "/>
<circle id="XMLID_1867_" cx="1106.4" cy="638.7" r="3"/>
<circle id="XMLID_1866_" cx="1125.3" cy="684.1" r="3"/>
<path id="XMLID_1865_" class="st0" d="M1098.1,520l40.1-17.9c0,0,19.2,38.9-2,47.4C1115,558.2,1098.1,520,1098.1,520z"/>
<polygon id="XMLID_1864_" points="875.9,937.4 880.6,958.6 887.4,968.3 917,942.8 908.6,934.9 "/>
<polygon id="XMLID_1863_" points="843.3,1202.2 835.1,1218.6 833,1235.7 889.6,1237.6 "/>
<polygon id="XMLID_1862_" points="717.2,1192 715,1216.3 686.7,1202.2 "/>
<polygon id="XMLID_1861_" points="773.5,994.9 789,1018.1 751.9,1028.2 "/>
<polygon id="XMLID_1860_" points="1040.5,1034.4 1040.5,1045 1032.2,1047.6 1040.5,1050.9 1040.5,1058.9 1047.4,1052.5 
	1055.8,1055.6 1051.5,1046.6 1055.8,1042.3 1046.8,1041.7 "/>
<polygon id="XMLID_1859_" points="1356.1,888.8 1365.8,893.3 1364.7,901.9 1371.2,895.7 1378.4,899 1375.4,890.1 1381.7,883.8 
	1371.8,884 1369.7,878.3 1365.3,886.1 "/>
<g id="XMLID_1856_">
	<path id="XMLID_1858_" d="M1149,963.3l1.3-1.9l1.1-2l1-2l0.9-2.1l0.8-2.1l0.6-2.1l0.5-2.2l0.4-2.2l0.3-2.2l0.1-2.2l0-2.2l-0.1-2.2
		l-0.2-2.2l-0.4-2.1l-0.5-2.1l-0.6-2.1l3-0.8c1.4,6.2,2.6,12.4,4,18.6l1.9,9.3c0.6,3.1,1.3,6.2,1.8,9.3l-3.3-1l1.6-1.7l1.5-1.8
		l1.4-1.8l1.3-1.9l1.2-2l1.1-2.1l1-2.1l0.9-2.2l0.8-2.2l0.6-2.2l0.5-2.3l0.4-2.3l0.3-2.3l0.2-2.3l0-2.3l-0.1-2.3l-0.4-9.9l3.1,9.2
		c0.8,2.4,1.5,4.8,2.1,7.3c0.6,2.4,1.1,4.9,1.5,7.4c0.8,4.9,1.3,10,1.3,14.9c-0.3-2.5-0.8-4.9-1.3-7.4c-0.5-2.4-1-4.8-1.7-7.2
		c-0.6-2.4-1.3-4.8-2.1-7.1c-0.8-2.3-1.6-4.6-2.5-6.9l2.7-0.6l0.2,2.5l0.1,2.5l-0.1,2.5l-0.2,2.5l-0.3,2.5l-0.5,2.5l-0.6,2.4
		l-0.8,2.4l-0.9,2.4l-1,2.3l-1.1,2.3l-1.3,2.2l-1.4,2.1l-1.5,2l-1.6,2l-1.7,1.9l-2.6,2.7l-0.8-3.8c-0.6-3.1-1.2-6.2-1.8-9.3
		l-1.8-9.3c-1.1-6.2-2.3-12.4-3.3-18.7l3-0.8l0.6,2.3l0.4,2.3l0.3,2.3l0.1,2.4l0,2.3l-0.2,2.3l-0.3,2.3l-0.5,2.3l-0.6,2.2l-0.7,2.2
		l-0.9,2.1l-1,2.1l-1.1,2l-1.3,1.9l-1.4,1.8L1149,963.3z"/>
</g>
<g id="XMLID_1853_">
	<path id="XMLID_1855_" d="M925.8,856.1c0.7,0.5,1.3,1,2,1.4c0.7,0.4,1.4,0.8,2.1,1.1c0.7,0.3,1.5,0.7,2.2,0.9l1.1,0.4l1.2,0.3
		c3.1,0.8,6.3,1.1,9.6,1.4c3.2,0.3,6.5,0.6,9.8,1.2c1.6,0.3,3.3,0.7,4.9,1.3l1.2,0.4c0.4,0.2,1,0.4,1.6,1.1c0.1,0.1,0.1,0.2,0.2,0.3
		l0,0.1l0,0l0.1,0.1l0,0.1c0,0,0.2,0.4,0.2,0.7c0.1,0.5,0,1-0.1,1.3c-0.3,0.8-0.7,1.2-1,1.6c-0.4,0.4-0.8,0.7-1.2,1l-1,0.7
		c-0.7,0.4-1.4,0.9-2.2,1.3c-1.5,0.8-3.1,1.5-4.7,2.1c-3.2,1.2-6.6,2-10,2.3c-1.7,0.2-3.4,0.2-5.1,0.2c-1.7-0.1-3.4-0.2-5.1-0.5
		c-0.8-0.1-1.7-0.3-2.5-0.5c-0.8-0.2-1.7-0.4-2.5-0.7l-2.4-0.8c-0.8-0.3-1.6-0.7-2.4-1l1.3-3.7c0.8,0.2,1.6,0.5,2.4,0.7
		c0.8,0.3,1.5,0.6,2.2,0.9c1.5,0.7,2.8,1.4,4.2,2.2c2.7,1.6,5.2,3.3,7.7,4.9l0.9,0.6l0.9,0.5c0.6,0.4,1.3,0.7,1.9,1
		c1.3,0.6,2.6,1.2,3.9,1.6c0.7,0.2,1.3,0.4,2,0.5c0.7,0.1,1.4,0.2,2,0.3c0.7,0.1,1.4,0.1,2,0l1-0.1l1-0.2l4.1-0.8l-2.4,3.1l-1.5,1.9
		l-1.6,1.8l-1.8,1.6l-1.9,1.4l-2,1.2l-2.1,1.1l-2.2,0.9l-2.3,0.7l-2.3,0.5l-2.3,0.3l-2.3,0.1l-2.3-0.1l-2.3-0.3l-2.3-0.5l-2.2-0.7
		l-2.1-0.9l-0.4-0.2l0.4,0l1.8-0.1l-1.8,0.4l0-0.2l2.2,0.6l2.2,0.4l2.2,0.3l2.2,0.1l2.2-0.1l2.2-0.3l2.2-0.5l2.1-0.6l2-0.8l2-1
		l1.9-1.1l1.8-1.3l1.7-1.4l1.5-1.5l1.4-1.6l1.2-1.8l1.7,2.4l-1.2,0.3l-1.2,0.2c-0.8,0.1-1.7,0.1-2.5,0.1c-1.7-0.1-3.3-0.4-4.9-0.8
		c-1.6-0.4-3.1-1-4.5-1.7c-0.7-0.3-1.4-0.7-2.1-1.1l-1.1-0.6l-1-0.6c-2.7-1.6-5.1-3.3-7.7-4.8c-1.3-0.7-2.5-1.4-3.8-2
		c-0.6-0.3-1.3-0.5-2-0.8c-0.7-0.2-1.3-0.4-2-0.6l1.3-3.7l2.1,0.9l2.2,0.8c0.7,0.2,1.5,0.4,2.2,0.6c0.8,0.2,1.5,0.3,2.3,0.5
		c1.5,0.2,3.1,0.4,4.6,0.5c1.6,0.1,3.1,0,4.7-0.1c3.1-0.2,6.2-0.8,9.1-1.8c1.5-0.5,2.9-1.1,4.3-1.8c0.7-0.3,1.4-0.6,2.1-1.1l1.1-0.6
		c0.3-0.1,0.5-0.3,0.7-0.5c0.2-0.2,0.3-0.4,0.3-0.4c0,0,0,0,0,0.1c0,0.1,0.1,0.3,0,0.1l0-0.1l0.1,0.1l0,0l0,0c0.1,0-0.1-0.1-0.4-0.2
		l-1.1-0.4c-1.4-0.6-2.9-1-4.5-1.4c-3.1-0.8-6.3-1.3-9.5-1.8c-1.6-0.3-3.2-0.6-4.8-0.9c-1.6-0.4-3.2-0.8-4.8-1.3l-1.2-0.4l-1.1-0.5
		c-0.8-0.3-1.5-0.7-2.2-1.1c-0.7-0.4-1.4-0.9-2-1.4C927,857.2,926.4,856.6,925.8,856.1z"/>
</g>
<line id="XMLID_1852_" class="st3" x1="322.6" y1="1160" x2="338.1" y2="1133.1"/>
<g id="XMLID_1849_">
	<path id="XMLID_1851_" d="M382.1,1010.3c0,0,0.7-0.4,2-1.1c1.3-0.7,3.1-1.5,5.3-2.5c4.4-1.9,10.4-4.1,16.6-5.8
		c6.1-1.7,12.4-3,17.2-3.6c2.4-0.3,4.4-0.5,5.8-0.6c1.4-0.1,2.2-0.1,2.2-0.1s-0.7,0.4-2,1.1c-1.3,0.7-3.1,1.5-5.3,2.5
		c-4.4,1.9-10.4,4.1-16.6,5.8c-6.1,1.7-12.4,3-17.2,3.6c-2.4,0.3-4.4,0.5-5.8,0.6C382.9,1010.3,382.1,1010.3,382.1,1010.3z"/>
</g>
<g id="XMLID_1846_">
	<path id="XMLID_1848_" class="st0" d="M166.8,939.2c0,0,1.8,0.9,4.9,2.6c0.8,0.4,1.6,0.9,2.6,1.4c0.9,0.4,2,0.9,3.1,1.5
		c1.1,0.5,2.3,1.1,3.5,1.7c1.3,0.5,2.6,1.1,3.9,1.7c1.4,0.5,2.8,1.2,4.3,1.7c1.5,0.5,3.1,1.1,4.7,1.7c1.6,0.6,3.3,1.1,5,1.6
		c1.7,0.5,3.4,1.1,5.2,1.5c1.8,0.4,3.6,0.9,5.5,1.3c1.9,0.4,3.8,0.7,5.7,1.1c1.9,0.4,3.8,0.6,5.8,0.9c1.9,0.2,3.9,0.6,5.9,0.6
		c2,0.2,3.9,0.3,5.9,0.5c2,0,3.9,0.1,5.9,0.1c1.9,0.1,3.9,0,5.8,0c1.9-0.1,3.8,0,5.6-0.2c1.9-0.1,3.7-0.3,5.5-0.4
		c1.8-0.1,3.5-0.4,5.2-0.5c3.4-0.3,6.6-0.8,9.5-1.2c3-0.4,5.6-1,8-1.4c2.4-0.4,4.5-0.8,6.2-1.2c3.4-0.7,5.4-1.1,5.4-1.1
		s-1.9,0.7-5.2,1.9c-0.8,0.3-1.8,0.6-2.8,1c-1,0.3-2.1,0.6-3.3,1c-2.4,0.7-5,1.5-8,2.1c-1.5,0.3-3,0.7-4.6,1c-1.6,0.4-3.3,0.6-5,0.9
		c-1.7,0.3-3.5,0.6-5.3,0.8c-1.8,0.2-3.7,0.4-5.5,0.6c-1.9,0.2-3.8,0.3-5.8,0.4c-2,0.1-3.9,0.3-5.9,0.2c-2,0-4-0.1-6-0.1
		c-2-0.1-4-0.3-6.1-0.4c-2-0.1-4-0.5-6-0.7c-2-0.3-4-0.5-6-1c-2-0.4-3.9-0.8-5.8-1.2c-1.9-0.5-3.7-1-5.6-1.5l-1.4-0.4l-1.3-0.5
		c-0.9-0.3-1.8-0.6-2.6-0.9c-1.7-0.6-3.4-1.2-5-1.9c-1.6-0.7-3.2-1.4-4.7-2c-1.5-0.6-2.9-1.4-4.2-2.1c-1.3-0.7-2.6-1.3-3.8-2
		c-1.2-0.7-2.3-1.4-3.4-2c-1-0.6-2-1.2-2.9-1.8c-0.9-0.6-1.7-1.2-2.4-1.7C168.4,940.4,166.8,939.2,166.8,939.2z"/>
</g>
<g id="XMLID_1843_">
	<path id="XMLID_1845_" class="st0" d="M1218.1,583c0,0,0.3-0.4,1-1c0.6-0.6,1.6-1.4,2.7-2.3c2.3-1.8,5.6-3.8,9-5.6
		c3.4-1.7,6.9-3.2,9.7-4.1c1.4-0.4,2.6-0.7,3.4-0.9c0.8-0.2,1.3-0.2,1.3-0.2s-0.3,0.4-1,1c-0.6,0.6-1.6,1.4-2.7,2.3
		c-2.3,1.8-5.6,3.8-9,5.5c-3.4,1.7-6.9,3.2-9.7,4.1c-1.4,0.4-2.6,0.7-3.4,0.9C1218.6,583,1218.1,583,1218.1,583z"/>
</g>
<g id="XMLID_1840_">
	<path id="XMLID_1842_" class="st0" d="M887.4,694.2c-0.2-1.9-0.2-3.9-0.2-5.8c0-1.9,0.1-3.8,0.2-5.7c0.2-3.8,0.6-7.6,1.2-11.4
		l0.6-4l2.8,2.8c2.6,2.6,5,5.3,7.4,8.1c1.2,1.4,2.3,2.8,3.4,4.3c1.1,1.5,2.2,2.9,3.2,4.5c-1.6-1-3.1-2.1-4.5-3.2
		c-1.4-1.1-2.9-2.3-4.3-3.5c-2.8-2.4-5.4-4.9-8-7.4l3.4-1.1c-0.5,3.8-1.1,7.5-2,11.2c-0.4,1.9-0.9,3.7-1.4,5.6
		C888.7,690.5,888.1,692.4,887.4,694.2z"/>
</g>
<g id="XMLID_1837_">
	<path id="XMLID_1839_" class="st0" d="M198.8,937.2c0,0,1.2,0,3.3,0.2c1,0.1,2.3,0.2,3.8,0.2c1.4,0.1,3.1,0.2,4.9,0.3
		c0.9,0.1,1.8,0.1,2.8,0.1c1,0,1.9,0.1,2.9,0.1c1,0,2,0,3.1,0c1.1,0,2.1-0.1,3.2-0.1c1.1,0,2.2-0.1,3.3-0.3c1.1-0.1,2.2-0.2,3.3-0.5
		c1.1-0.2,2.2-0.4,3.3-0.7c1.1-0.3,2.2-0.6,3.3-0.9c2.2-0.8,4.3-1.4,6.3-2.5c2.1-0.9,4-2.1,5.8-3.2c0.9-0.6,1.7-1.2,2.6-1.8
		c0.8-0.6,1.8-1.1,2.5-1.8c0.8-0.6,1.5-1.3,2.3-1.9c0.7-0.6,1.5-1.1,2.1-1.8c1.3-1.2,2.5-2.3,3.6-3.3c1-1,1.9-1.9,2.6-2.7
		c1.5-1.5,2.3-2.3,2.3-2.3s-0.6,1-1.7,2.8c-0.6,0.9-1.2,2-2.1,3.2c-0.9,1.2-1.9,2.5-3.1,3.9c-1.1,1.4-2.6,2.8-4.1,4.3
		c-0.7,0.8-1.6,1.4-2.4,2.1c-0.9,0.7-1.7,1.5-2.7,2.1c-1.9,1.3-3.9,2.7-6.1,3.7c-2.1,1.2-4.5,2-6.9,2.9c-1.2,0.3-2.4,0.6-3.6,0.9
		c-1.2,0.3-2.4,0.4-3.6,0.6c-1.2,0.2-2.4,0.3-3.6,0.4c-1.2,0.1-2.4,0.1-3.5,0.1c-1.1,0-2.3,0-3.4-0.1c-1.1-0.1-2.2-0.2-3.2-0.3
		c-2.1-0.2-4-0.5-5.8-0.9c-3.6-0.7-6.5-1.5-8.5-2C199.9,937.5,198.8,937.2,198.8,937.2z"/>
</g>
</svg>
