<?xml version="1.0" encoding="utf-8"?>
<!-- Generator: Adobe Illustrator 22.1.0, SVG Export Plug-In . SVG Version: 6.00 Build 0)  -->
<svg version="1.1" id="Layer_6" xmlns="http://www.w3.org/2000/svg" xmlns:xlink="http://www.w3.org/1999/xlink" x="0px" y="0px"
	 viewBox="0 0 1527.1 1502.4" style="enable-background:new 0 0 1527.1 1502.4;" xml:space="preserve">
<style type="text/css">
	.st0{fill:#FFFFFF;}
	.st1{fill:#E84B6C;}
	.st2{fill:none;stroke:#000000;stroke-width:3.5336;stroke-miterlimit:10;}
	.st3{fill:none;stroke:#000000;stroke-width:4.417;stroke-miterlimit:10;}
</style>
<g id="XMLID_2173_">
	<path id="XMLID_2238_" class="st0" d="M266.8,802.3c0,0-1,0.7-2.7,1.9c-0.8,0.6-1.8,1.4-3,2.3c-1.1,0.9-2.3,2-3.6,3.1
		c-0.6,0.6-1.3,1.2-1.9,1.9c-0.6,0.7-1.3,1.4-1.9,2.1c-1.2,1.5-2.4,3.2-3.4,5c-2,3.6-3.2,7.9-3.1,12.3c0,2.2,0.2,4.4,0.8,6.5
		c0.5,2.1,1.2,4.2,2,6.1c0.9,1.9,1.8,3.8,2.8,5.5c1,1.7,2,3.3,3,4.7c1,1.4,2,2.7,2.9,3.8c0.9,1.1,1.7,2.1,2.4,2.9
		c1.4,1.6,2.1,2.5,2.1,2.5s-0.3-0.2-0.7-0.5c-0.5-0.3-1.2-0.7-2-1.4c-0.8-0.6-1.9-1.4-3-2.3c-1.1-0.9-2.4-2.1-3.7-3.4
		c-1.3-1.3-2.6-2.8-3.9-4.5c-1.3-1.7-2.5-3.6-3.6-5.7c-1.1-2.1-2-4.4-2.7-6.8c-0.7-2.4-1-5-1-7.6c0-2.6,0.4-5.2,1.1-7.6
		c0.7-2.5,1.9-4.7,3.1-6.7c1.2-2,2.8-3.8,4.3-5.3c1.5-1.5,3.1-2.8,4.6-3.8c1.5-1.1,3-1.9,4.3-2.6c1.3-0.7,2.5-1.2,3.5-1.6
		c1-0.4,1.8-0.6,2.3-0.8C266.5,802.4,266.8,802.3,266.8,802.3z"/>
</g>
<path id="XMLID_2232_" class="st0" d="M628.4,469.9c1.4-3.1-25.5-115-25.5-115l-3.3-72.1L616,251l46.7-16.1c0,0,22.9,18.7,25,20.7
	c2.1,2,29.7,37.3,30.7,37.4c1,0.1,30-9.3,32.5-5.7s15.2,21.3,15.2,21.3l-3.8,18.7l-15.7,9.3l11.4,59.3l-41.1,49.9L696.8,476
	l-40.5,31.3l-19.4-3.7l-13-27.3L628.4,469.9z"/>
<path id="XMLID_2231_" class="st0" d="M559.5,411.8l-27.6-9.9l-16.7-4.1L500,411.8v12l9.2,11.5l5.9,0.3L500,445.8l-5.1,15l10.9,3.8
	l13.9,2.6l-3.2,11c0,0,8.1,12.6,9.5,9.5c1.4-3.1,23.8-6.1,23.8-6.1h9.7l-0.5,38.8l-14.6,20.5L527.2,514l-24.3-20.9l-15.4-8.2
	l-3.2,35.5l22.9,20.5l14.8,20v35.9l22.5,40.4l17.2,21.2L633,807.7l77,123.1l17.9,12.2l30.2-9.5l4.3-25.7l-11.6-53.3l-25.9-35.2
	L625,621.8l-12.4-31.3l11.4-38.1l-4.2-39.7l-20.2-42.7l-13.4-20.4L559.5,411.8z"/>
<polygon id="XMLID_2230_" class="st0" points="494.2,560.9 481.7,294.2 456,293.8 439.4,261.8 404.9,263.4 404.9,217.7 352.4,243.4 
	326.2,261.9 287.5,300.1 242.5,254 209.4,226.5 185.7,214 181.6,227.9 176.9,239.7 144.4,227.9 138.6,257.8 110.6,274.2 
	191.5,487.7 214.1,496.4 249.6,520.4 267.6,536.4 276.7,543.8 294.6,621.8 318.3,730.6 347.7,837.2 356.2,845.8 377.2,845.8 
	390,837.2 396.8,800.9 390.7,730.6 371.8,659.5 356.9,560.9 396.8,560.9 "/>
<path id="XMLID_2229_" class="st0" d="M450.3,591.9"/>
<polygon id="XMLID_2228_" class="st0" points="723.6,1199.4 692.2,1234.3 633.1,1280.2 616,1309.1 626.2,1320.6 673.2,1295.2 
	649.5,1320.4 650.1,1336.4 669.7,1334 676.4,1339.5 688,1335.4 688,1345.6 701.4,1345.6 713.7,1357.5 723.6,1351.4 733.4,1326.7 
	795.3,1278.5 834.8,1233 861.2,1214.3 864.2,1183.8 833.9,1174.3 "/>
<polygon id="XMLID_2227_" class="st0" points="655.2,1114.7 503.5,1156.8 435.3,1126.4 369.8,1095.3 335,1073.6 335,1090.3 
	345.9,1101.7 335,1112.4 335,1121.6 344.7,1128.4 340.6,1141 344,1153.4 355.5,1151.4 339.9,1163.2 356.2,1174.3 369.7,1180.2 
	354.4,1190.6 358.4,1204.2 396.6,1204.1 408.3,1217.8 442.1,1243.5 476,1250.7 490.6,1270.1 509.1,1273.9 555.6,1265.8 
	599.1,1248.1 701.4,1214.1 686.1,1173.7 676.4,1100.7 "/>
<g id="XMLID_2224_">
	<path id="XMLID_2236_" d="M14,1016.9c0,0,5.9-0.2,16.9-0.5c11-0.3,27.1-0.8,47.7-1.3c20.5-0.5,45.5-1.1,74.1-1.6
		c28.6-0.6,60.9-1.2,96.1-1.7c17.6-0.3,35.9-0.5,54.9-0.8c19-0.2,38.6-0.4,58.8-0.7c40.3-0.4,82.9-1,126.9-1.2
		c22-0.1,44.4-0.3,67-0.4c11.3-0.1,22.7-0.2,34.2-0.2c11.4,0,23-0.1,34.5-0.1c46.2-0.1,93.1-0.2,140.1-0.3
		c46.9,0.1,93.9,0.2,140.1,0.3c11.6,0,23.1,0.1,34.5,0.1c11.4,0.1,22.8,0.2,34.2,0.2c22.6,0.2,45,0.3,67,0.4
		c44,0.2,86.5,0.7,126.9,1.2c20.2,0.2,39.8,0.5,58.8,0.7c19,0.3,37.3,0.6,54.9,0.8c17.6,0.3,34.5,0.5,50.5,0.8
		c16,0.3,31.3,0.6,45.6,0.9c28.6,0.5,53.5,1.1,74.1,1.6c20.5,0.4,36.7,1,47.7,1.3c11,0.3,16.9,0.5,16.9,0.5s-5.9,0.2-16.9,0.5
		c-11,0.3-27.1,0.8-47.7,1.3c-20.5,0.5-45.5,1.1-74.1,1.6c-14.3,0.3-29.5,0.6-45.6,0.9c-16,0.3-32.9,0.5-50.5,0.8
		c-17.6,0.3-35.9,0.5-54.9,0.8c-19,0.2-38.6,0.4-58.8,0.7c-40.3,0.4-82.9,1-126.9,1.2c-22,0.1-44.4,0.3-67,0.4
		c-11.3,0.1-22.7,0.2-34.2,0.2c-11.4,0-23,0.1-34.5,0.1c-46.2,0.1-93.1,0.2-140.1,0.3c-46.9-0.1-93.9-0.2-140.1-0.3
		c-11.6,0-23.1-0.1-34.5-0.1c-11.4-0.1-22.8-0.2-34.2-0.2c-22.6-0.1-45-0.3-67-0.4c-44-0.2-86.5-0.8-126.9-1.2
		c-20.2-0.2-39.8-0.5-58.8-0.7c-19-0.3-37.3-0.6-54.9-0.8c-35.2-0.5-67.5-1.1-96.1-1.7c-28.6-0.5-53.5-1.1-74.1-1.6
		c-20.5-0.4-36.7-1-47.7-1.3C19.9,1017.1,14,1016.9,14,1016.9z"/>
</g>
<g id="XMLID_2194_">
	<path id="XMLID_2234_" d="M745.3,302.2c0,0-0.2,0.3-0.7,0.9c-0.4,0.6-1,1.3-1.6,2.3c-0.6,0.9-1.2,2.1-1.8,3.3
		c-0.3,0.6-0.6,1.3-0.8,1.9c-0.3,0.7-0.5,1.4-0.7,2.1c-0.3,0.7-0.5,1.4-0.7,2.1c-0.2,0.7-0.4,1.4-0.6,2.1c-0.3,1.4-0.6,2.7-0.9,3.8
		c-0.3,1.1-0.5,2.1-0.7,2.8c-0.2,0.7-0.3,1.1-0.3,1.1s-0.1-0.4-0.2-1.1c-0.1-0.7-0.3-1.7-0.3-2.9c-0.1-1.2-0.1-2.6,0.1-4.1
		c0.1-0.7,0.2-1.5,0.4-2.3c0.2-0.8,0.4-1.6,0.6-2.3c0.3-0.8,0.6-1.5,0.9-2.3c0.3-0.7,0.7-1.4,1.2-2.1c0.4-0.7,0.9-1.2,1.3-1.8
		c0.5-0.5,0.9-1,1.4-1.4c0.4-0.4,0.9-0.7,1.3-1c0.4-0.3,0.8-0.5,1.1-0.7C744.9,302.4,745.3,302.2,745.3,302.2z"/>
</g>
<g id="XMLID_2191_">
	<path id="XMLID_2225_" d="M738,313.4c0,0,0.5-0.4,1.2-0.8c0.8-0.4,1.8-0.8,2.9-1.2c1.1-0.3,2.2-0.5,3.1-0.6c0.9-0.1,1.5,0,1.5,0
		s-0.5,0.4-1.2,0.8c-0.8,0.4-1.8,0.8-2.9,1.2c-1.1,0.3-2.2,0.5-3.1,0.6C738.6,313.4,738,313.4,738,313.4z"/>
</g>
<polygon id="XMLID_2190_" points="636.9,244.8 641.1,229.2 653.5,212.3 683,201.5 727,198.7 765,205.5 791.1,227.6 797.6,256.7 
	821.7,303.2 835.2,336.6 857.4,359.2 899.5,370.6 937.4,380 966.1,387.5 984.8,405.4 998.2,430 993.6,463.5 987.5,481.6 
	944.2,435.6 916.6,423.8 879.2,405.4 819.1,401.9 796.7,354.9 751.3,354.9 747.7,333.4 757.1,309.9 758.1,293.8 743.7,286.5 
	723.6,286.5 702.7,289.4 687.7,274.2 679.6,257.6 673.5,246.8 656.3,246.1 641.1,246.1 "/>
<path id="XMLID_2189_" d="M629.8,234.8l-19.8,1.8l-28.9,13.5l-18.4,13.9v33.8l-3.5,28.8v33.8l-9.4,33.2l-5.5,8.3l18.3,12l14.8,21.7
	l12.9,20.5l2.7-15.8l5.5-34.9l8.1-14.5l-8.1-80.1l9.3-30.3c0,0,17.5-24.6,20.6-27.1s12.7-4.1,12.7-4.1L629.8,234.8z"/>
<path id="XMLID_2188_" class="st1" d="M751.3,354.9h45.3l16.1,48.3l77.5,7.6L931,430c17.8,10.1,36.8,27.9,56.5,51.6l24.1,79.3
	l10.6,66.8l9.7,111l-18.8,151.2l6.1,106.9l-111.1,8.3l-47.4,20.5l-69.6-8.6l-39.8-20.3l-27.7-52.2l23-7.1l15.7-20v-48.4l-33.1-41.1
	L610.5,596.9l14.5-47.7l-9-56.1l-22.5-25.6l5.6-37c-2.7-16.8,1.6-21,6-25.1l9.3-3.6l1.6,37.8l9,41.9l45.8,55l15.3-38.8l32.3-48.2
	l37.6-47.7L751.3,354.9z"/>
<polygon id="XMLID_2187_" class="st1" points="515.2,556.4 390,721.1 390.7,784.7 386,837.2 549.8,644 531.9,621.8 518.2,587.8 "/>
<polygon id="XMLID_2186_" class="st1" points="616,775.2 642.9,888.6 702.3,962.9 723.6,944.4 696.8,911.9 "/>
<path id="XMLID_2185_" d="M864.3,1016.9l147-25.7l102.2-26.6c43.3-5,85.1-9.6,83.6-2.5h23.5l34.8,9.7l14.6,35l15.6,18.7l-2,27.6
	l-34.3,47.5l-30.4,23.7l-59.7,25.2l-97.7,50.1l-97,26.1l-86,30.5l-52.8,13.8l-9.6-0.4l45.2-59.9l4-35.5l-61.2,13.6l-102.7,26.2
	L685,1192l-12.5-59.7v-23.7l-93.3,33.4l-37-21.7L390,1046.6L251.8,980l-68.1-48.1l-33.5-48.4l4.8-37.7l18.4-8.6l27.1-12.2l36.9-5.7
	l55.2,5.7l42.7,6.6l12.6,14.2l13.3,5.7l16.2-5.7l12.8-8.6l77.9,14.3l113.2,30.3l66.4,12.7l34.3,42.8l20.5,25.6l21.3-18.5l40.6,59.5
	l58.6,16.2L864.3,1016.9z"/>
<path id="XMLID_2184_" d="M291.2,301.7l155.4-21.8l9.4,18.9C424.6,287.9,359.1,294.2,291.2,301.7z"/>
<path id="XMLID_2183_" d="M133.2,257.2l7.3-13.7l127.1,47.4C240,275,194.7,264,133.2,257.2z"/>
<path id="XMLID_2182_" d="M638.5,490.9c18.5,22.5,63.6-24.5,115.4-89.1l-57.7,81L671.9,534l-35-40.9"/>
<line id="XMLID_2181_" class="st2" x1="273.9" y1="297.9" x2="282.1" y2="387.2"/>
<line id="XMLID_2180_" class="st2" x1="294.6" y1="306" x2="300.4" y2="380"/>
<line id="XMLID_2179_" class="st2" x1="303.3" y1="395.9" x2="309.1" y2="469.9"/>
<path id="XMLID_2178_" class="st3" d="M282.1,302.2c37.4-39.3,78-68.5,122.9-84.5v44.2L291.2,306L282.1,302.2z"/>
<g id="XMLID_2175_">
	<path id="XMLID_2197_" class="st0" d="M190.4,837.2c0,0-1.1,0.8-3.2,2.3c-1,0.8-2.2,1.6-3.5,2.7c-1.3,1-2.7,2.3-4.2,3.7
		c-0.7,0.7-1.5,1.4-2.2,2.3c-0.4,0.4-0.7,0.8-1.1,1.2c-0.4,0.4-0.7,0.9-1.1,1.3c-1.4,1.8-2.8,3.8-3.9,5.9c-2.3,4.3-3.7,9.3-3.7,14.4
		c0,2.6,0.3,5.1,0.9,7.6c0.6,2.5,1.4,4.9,2.4,7.2c1.1,2.3,2.1,4.5,3.3,6.4c1.2,2,2.4,3.8,3.6,5.5c1.2,1.7,2.3,3.2,3.4,4.5
		c1,1.3,2,2.4,2.8,3.4c1.6,1.8,2.5,2.9,2.5,2.9s-0.3-0.2-0.9-0.5c-0.5-0.4-1.4-0.9-2.4-1.6c-1-0.8-2.2-1.6-3.5-2.7
		c-1.3-1.1-2.8-2.4-4.3-4c-1.5-1.5-3.1-3.3-4.6-5.3c-1.5-2-3-4.2-4.2-6.6c-1.2-2.5-2.4-5.1-3.2-8c-0.8-2.8-1.2-5.9-1.2-8.9
		c0-3,0.4-6.1,1.3-9c0.8-2.9,2.2-5.5,3.7-7.9c1.5-2.4,3.3-4.4,5.1-6.2c1.8-1.8,3.7-3.2,5.5-4.5c1.8-1.2,3.5-2.2,5-3
		c1.5-0.8,3-1.4,4.1-1.9c1.1-0.5,2.1-0.8,2.7-1C190.1,837.3,190.4,837.2,190.4,837.2z"/>
</g>
<g id="XMLID_2171_">
	<path id="XMLID_2195_" class="st0" d="M1203.5,980c0,0,1.4-0.1,3.8-0.3c1.2-0.1,2.7-0.2,4.4-0.1c1.7,0.1,3.7,0,5.7,0.3
		c2.1,0.3,4.4,0.5,6.7,1.1c1.2,0.3,2.4,0.5,3.6,0.9c1.2,0.4,2.4,0.9,3.7,1.3c1.3,0.4,2.5,1.1,3.7,1.6c0.6,0.3,1.3,0.6,1.9,0.9
		c0.6,0.3,1.2,0.7,1.8,1.1c1.2,0.8,2.5,1.4,3.6,2.3c1.1,0.9,2.3,1.8,3.4,2.7c1,1,2,2,3.1,3.1c0.5,0.5,1,1,1.4,1.6l1.3,1.7
		c0.4,0.6,0.9,1.1,1.3,1.7c0.4,0.6,0.7,1.2,1.1,1.8c0.7,1.2,1.5,2.3,2,3.5c0.6,1.2,1.2,2.4,1.7,3.6c0.5,1.2,0.9,2.4,1.3,3.5
		c0.9,2.3,1.3,4.5,1.8,6.6c0.6,2,0.7,4,0.9,5.6c0.3,1.7,0.3,3.2,0.3,4.4c0.1,2.4,0.1,3.8,0.1,3.8s-0.5-1.3-1.1-3.6
		c-0.3-1.1-0.7-2.5-1.3-4.1c-0.3-0.8-0.6-1.6-0.9-2.5c-0.1-0.4-0.3-0.9-0.4-1.3c-0.2-0.4-0.4-0.9-0.6-1.4c-0.8-1.9-1.5-3.9-2.6-5.9
		c-0.5-1-1-2.1-1.6-3.1c-0.6-1-1.2-2.1-1.8-3.1c-0.6-1.1-1.4-2-2.1-3.1c-0.4-0.5-0.7-1-1.1-1.5c-0.4-0.5-0.8-1-1.2-1.5
		c-0.9-0.9-1.6-2-2.5-2.9l-2.7-2.7c-1-0.8-2-1.6-3-2.4c-1-0.8-2.1-1.5-3.1-2.2c-1-0.8-2.1-1.4-3.2-2c-1.1-0.6-2.1-1.3-3.3-1.7
		c-1.1-0.5-2.2-1-3.3-1.5c-1.1-0.5-2.2-0.8-3.3-1.2c-2.1-0.8-4.2-1.3-6.2-2c-1-0.3-1.9-0.5-2.8-0.7c-0.9-0.2-1.7-0.4-2.5-0.6
		c-1.6-0.4-3-0.7-4.2-0.9C1204.9,980.3,1203.5,980,1203.5,980z"/>
</g>
<g id="XMLID_2168_">
	<path id="XMLID_2192_" d="M863.4,520.4c0,0-0.3,1-0.9,2.9c-0.6,1.9-1.4,4.7-2.7,8.3c-1.2,3.5-2.7,7.9-4.5,12.7
		c-1.8,4.9-3.9,10.4-6.4,16.3c-2.5,5.9-5.2,12.4-8.3,19c-3.1,6.7-6.5,13.7-10.1,20.9c-3.7,7.1-7.6,14.5-11.8,21.8
		c-4.2,7.3-8.7,14.7-13.3,22c-4.7,7.2-9.5,14.3-14.4,21.2c-4.9,6.9-10,13.5-15.1,19.7c-5.1,6.3-10.2,12.1-15.4,17.5
		c-2.5,2.7-5.1,5.2-7.5,7.7c-2.6,2.4-4.9,4.7-7.4,6.9c-4.8,4.4-9.5,8-13.7,11.1c-2.1,1.6-4.2,2.9-6,4.2c-1.9,1.2-3.7,2.3-5.3,3.3
		c-3.3,1.9-5.9,3.2-7.7,4c-1.8,0.9-2.8,1.3-2.8,1.3s0.9-0.6,2.6-1.6c1.7-1,4.1-2.7,7.2-4.9c1.5-1.1,3.1-2.4,4.9-3.7
		c1.7-1.5,3.6-2.9,5.6-4.6c1.9-1.7,4-3.5,6.1-5.6c1.1-1,2.1-2,3.2-3.1c1.1-1.1,2.2-2.2,3.3-3.3c4.5-4.5,9.1-9.6,13.9-15.1
		c4.8-5.5,9.5-11.5,14.4-17.8c4.9-6.3,9.6-13,14.5-19.8c4.8-6.9,9.5-13.9,14-21.1c4.6-7.1,9.1-14.4,13.3-21.6
		c4.2-7.2,8.4-14.3,12.2-21.3c3.8-7,7.5-13.8,10.9-20.3c1.7-3.2,3.3-6.4,4.8-9.5c1.6-3.1,3.1-6,4.5-8.9c1.4-2.9,2.7-5.6,4-8.3
		c1.3-2.6,2.5-5.1,3.6-7.5c2.2-4.7,4.1-8.8,5.7-12.2C861.7,524.3,863.4,520.4,863.4,520.4z"/>
</g>
<path id="XMLID_2167_" class="st2" d="M634.7,239.7c0,0-6.5-17.3-36.3-12.3s-54.2,39.9-51.3,74.3c2.2,25.6-5.5,101.5-5.5,101.5"/>
<path id="XMLID_2166_" class="st2" d="M631.6,239.7c6.9-39,21.4-69.7,132.6-31.5"/>
<polygon id="XMLID_2165_" points="562.6,1259.7 655.9,1262.6 717.9,1214.3 629.6,1238.5 "/>
<g id="XMLID_2162_">
	<path id="XMLID_2176_" d="M723.6,696.8c0,0,2-2,5.6-5.5c1.8-1.7,3.9-3.9,6.4-6.3c2.4-2.4,5.2-5.2,8.1-8.3c3-3,6.1-6.4,9.5-9.9
		c3.4-3.5,6.8-7.4,10.4-11.3c3.6-3.9,7.1-8.1,10.9-12.2c3.6-4.2,7.4-8.5,10.9-12.9c1.8-2.2,3.6-4.3,5.4-6.5c1.8-2.2,3.5-4.4,5.3-6.6
		c3.5-4.4,6.9-8.7,10.1-12.9c3.1-4.3,6.3-8.3,9.1-12.3c2.9-3.9,5.4-7.8,7.8-11.3c1.2-1.7,2.3-3.5,3.3-5.1c1-1.6,2-3.2,2.9-4.6
		c1.7-3,3.2-5.6,4.5-7.7c2.3-4.4,3.6-7,3.6-7s-1,2.7-2.8,7.3c-1.1,2.3-2.4,5-3.8,8.1c-1.7,3-3.4,6.6-5.6,10.2
		c-1.1,1.8-2.2,3.8-3.4,5.7c-1.2,2-2.5,3.9-3.9,6c-2.6,4.1-5.6,8.4-8.7,12.7c-1.5,2.2-3.2,4.3-4.8,6.6c-1.6,2.2-3.3,4.5-5.1,6.6
		c-1.7,2.2-3.5,4.4-5.3,6.6c-1.8,2.2-3.6,4.4-5.4,6.6c-3.6,4.4-7.5,8.6-11.1,12.9c-1.9,2.1-3.8,4.1-5.6,6.1c-1.9,2-3.7,4-5.6,5.9
		c-3.7,3.9-7.3,7.5-10.8,10.9c-1.8,1.7-3.4,3.4-5.1,5c-1.7,1.6-3.3,3.1-4.9,4.5c-3.1,2.9-6.1,5.5-8.7,7.8c-2.6,2.3-4.9,4.2-6.9,5.8
		C725.8,695,723.6,696.8,723.6,696.8z"/>
</g>
<g id="XMLID_2159_">
	<path id="XMLID_2172_" d="M887.9,985.1l7.1-1.1l7.1-1.3l7.1-1.5l7-1.7l7-1.8l6.9-2l6.9-2.1l6.9-2.2l6.8-2.4l6.8-2.5l13.5-5.1
		c9-3.5,17.9-7.1,26.8-10.7l0.6,4.3c-4.5-0.3-8.9-0.6-13.4-0.9c-4.5-0.4-8.9-0.8-13.4-1.2c-8.9-0.9-17.8-1.9-26.6-3.2
		c-4.4-0.6-8.9-1.3-13.3-2c-4.4-0.7-8.8-1.5-13.2-2.3c-8.8-1.6-17.6-3.4-26.3-5.3l-17.3-3.9l17.6-2.3l6.6-0.9l6.6-1.1l6.6-1.3
		l6.5-1.5l6.5-1.8l6.4-2l6.3-2.2l6.3-2.4l6.2-2.6l6.1-2.8l6-3l5.9-3.2l5.8-3.4l5.6-3.6l5.5-3.8l5.4-4l2.5,5.9
		c-11.7,1.6-23.4,3.2-35.2,4.5c-11.8,1.3-23.6,2.2-35.5,2.4l-4.5,0c-1.5,0-3.1,0-4.7-0.2c-1.6-0.2-3.3-0.5-5.1-1.1
		c-1.7-0.7-3.5-1.7-4.8-3.2l-0.5-0.6l-0.1-0.1l-0.1-0.2l-0.1-0.1l-0.2-0.2c-0.2-0.2-0.5-0.9-0.8-1.3c-0.4-0.9-0.7-1.9-0.9-2.8
		c-0.3-1.9-0.3-3.8,0.1-5.6c0.4-1.8,1.1-3.4,2-5l0.3-0.5l0.4-0.6c0.3-0.4,0.5-0.7,0.8-1c0.5-0.7,1.1-1.3,1.7-1.9
		c2.3-2.3,4.8-4.1,6.9-5.9l6.8-5.7c4.2-3.9,8.4-7.8,12.3-12.2l3-3.2l2.8-3.4c1.8-2.3,3.8-4.4,5.4-6.8c1.7-2.4,3.5-4.7,5.1-7.1
		l4.8-7.3c1.5-2.5,2.9-5.1,4.4-7.6l1.1-1.9l1-2l2-3.9c0.6-1.3,1.3-2.6,1.9-3.9l1.7-4c1.1-2.7,2.4-5.3,3.3-8.1c1-2.8,2.1-5.5,3-8.3
		l2.6-8.4l2.1-8.5c0.4-1.4,0.7-2.9,0.9-4.3l0.8-4.3c0.2-1.4,0.6-2.9,0.7-4.3l0.5-4.4l0.5-4.4c0.2-1.5,0.2-2.9,0.3-4.4l0.3-4.4
		c0.1-1.5,0.2-2.9,0.2-4.4l0.1-8.8l0.4,8.8c0.1,1.5,0.1,3,0,4.4l-0.1,4.4c0,3-0.3,5.9-0.5,8.9l-0.4,4.4c-0.1,1.5-0.4,2.9-0.6,4.4
		l-0.6,4.4c-0.2,1.5-0.4,2.9-0.7,4.4l-1.8,8.7l-2.3,8.6c-0.8,2.9-1.8,5.7-2.7,8.5c-0.9,2.9-2,5.6-3.1,8.4l-1.6,4.1
		c-0.6,1.4-1.2,2.7-1.8,4.1l-1.9,4.1l-0.9,2l-1.1,2c-1.4,2.6-2.8,5.3-4.2,7.9l-4.7,7.6c-1.6,2.5-3.4,4.9-5,7.4
		c-1.6,2.5-3.6,4.8-5.4,7.1l-2.8,3.5l-3,3.4c-3.9,4.5-8.2,8.8-12.5,12.9l-6.6,5.8c-2.4,2.1-4.6,3.7-6.4,5.7c-0.5,0.5-0.9,1-1.3,1.5
		c-0.2,0.2-0.4,0.5-0.5,0.7l-0.2,0.4l-0.3,0.5c-0.6,0.9-1,2.1-1.2,3.2c-0.5,2.2-0.1,4.4,1.2,5.7c1.2,1.4,3.5,2.1,6.1,2.3
		c1.3,0.1,2.6,0.1,4.1,0.1l4.4-0.1c23.3-0.7,46.6-4,69.9-7.3l13-1.9l-10.5,7.8l-5.6,4.1l-5.7,3.9l-5.8,3.7l-6,3.5l-6.1,3.3l-6.2,3.1
		l-6.3,2.9l-6.4,2.7l-6.5,2.5l-6.6,2.2l-6.6,2l-6.7,1.8l-6.7,1.6l-6.8,1.3l-6.8,1.1l-6.9,0.8l0.4-6.2c8.6,2,17.3,3.9,26,5.6
		c4.4,0.8,8.7,1.7,13.1,2.4l13.1,2.2c8.8,1.4,17.6,2.6,26.4,3.7c4.4,0.5,8.8,1,13.2,1.5l13.3,1.2l9.7,0.9l-9.1,3.4
		c-9,3.4-18.1,6.7-27.2,9.9l-6.8,2.4l-6.9,2.3l-6.9,2.2l-6.9,2.1l-7,2l-7,1.9l-7,1.7l-7.1,1.6l-7.1,1.4l-7.1,1.2l-7.2,1L887.9,985.1
		z"/>
</g>
<g id="XMLID_2156_">
	<path id="XMLID_2169_" d="M739.8,803.6c0,0,1.2-0.4,3.4-1c1.1-0.2,2.5-0.4,4.2-0.5c0.8,0,1.7,0,2.6,0.1c0.5,0,0.9,0,1.4,0.1
		c0.5,0.1,1,0.2,1.5,0.3c0.5,0.1,1,0.2,1.5,0.3c0.5,0.1,1.1,0.2,1.6,0.4c1,0.4,2.1,0.8,3.2,1.2c1,0.6,2.1,1.2,3.2,1.8
		c1.1,0.6,2,1.5,3.1,2.3c1.1,0.7,1.9,1.8,2.9,2.7c0.5,0.5,0.9,1,1.4,1.5l1.2,1.6l1.2,1.6l0.6,0.8l0.5,0.9c0.7,1.2,1.3,2.4,2,3.6
		c0.6,1.2,1.1,2.5,1.6,3.7l0.8,1.9l0.6,1.9c0.4,1.3,0.8,2.5,1.1,3.7c0.3,1.2,0.5,2.5,0.8,3.7c0.2,1.2,0.5,2.4,0.6,3.6
		c0.1,1.2,0.2,2.3,0.3,3.5c0.1,1.1,0.2,2.2,0.3,3.3c0,1.1,0,2.1,0,3.1c0,2,0,3.8-0.1,5.3c-0.1,1.6-0.3,3-0.4,4.1
		c-0.2,2.3-0.5,3.5-0.5,3.5s-0.3-1.3-0.6-3.5c-0.2-1.1-0.4-2.5-0.6-4c-0.2-1.5-0.6-3.3-0.9-5.2c-0.2-0.9-0.3-1.9-0.5-2.9
		c-0.2-1-0.5-2-0.7-3.1c-0.2-1.1-0.5-2.1-0.7-3.3c-0.3-1.1-0.6-2.2-0.9-3.3c-0.3-1.1-0.6-2.3-1-3.4c-0.4-1.1-0.8-2.3-1.2-3.4
		l-0.6-1.7l-0.7-1.7c-0.5-1.1-1-2.3-1.5-3.4c-1.2-2.1-2.3-4.3-3.7-6.2l-1-1.5l-1.1-1.3c-0.8-0.9-1.4-1.8-2.3-2.5
		c-0.8-0.7-1.6-1.6-2.4-2.2c-0.9-0.6-1.7-1.3-2.6-1.9c-0.9-0.5-1.8-0.9-2.6-1.4c-0.4-0.3-0.9-0.4-1.3-0.6c-0.4-0.2-0.9-0.3-1.3-0.5
		c-0.4-0.2-0.8-0.3-1.3-0.5c-0.4-0.1-0.8-0.2-1.2-0.3c-0.8-0.2-1.6-0.4-2.3-0.6c-1.5-0.1-2.8-0.4-3.9-0.4
		C741.2,803.7,739.8,803.6,739.8,803.6z"/>
</g>
<g id="XMLID_2153_">
	<path id="XMLID_2163_" d="M396.8,705.5c0,0,0.9,0.7,2.4,2c0.8,0.6,1.7,1.4,2.7,2.4c1,0.9,2.2,2,3.3,3.3c0.6,0.6,1.2,1.3,1.8,1.9
		c0.6,0.7,1.2,1.4,1.8,2.2c1.3,1.5,2.5,3.2,3.7,4.9c0.6,0.9,1.2,1.8,1.8,2.8c0.6,0.9,1.2,1.9,1.7,2.9c0.5,1,1.1,2,1.6,3.1
		c0.5,1.1,0.9,2.1,1.4,3.2c0.8,2.2,1.6,4.4,2.1,6.6c0.6,2.2,0.9,4.5,1.2,6.6c0.1,2.2,0.3,4.3,0.1,6.3c-0.1,1-0.1,2-0.2,2.9
		c-0.2,0.9-0.3,1.8-0.5,2.7c-0.2,1.7-0.7,3.2-1.1,4.6c-0.2,0.7-0.4,1.3-0.6,1.9c-0.2,0.6-0.4,1.1-0.6,1.5c-0.8,1.8-1.3,2.9-1.3,2.9
		s0-1.2,0.2-3.1c0-0.5,0.1-1,0.1-1.6c0-0.6,0-1.2,0.1-1.9c0-1.3,0.1-2.8,0-4.5c0-0.8,0-1.7-0.1-2.5c-0.1-0.9-0.2-1.8-0.2-2.7
		c-0.1-1.8-0.6-3.7-0.8-5.7c-0.5-1.9-0.9-4-1.5-6c-0.5-2-1.3-4-2.1-6c-0.4-1-0.8-2-1.2-3c-0.4-1-0.9-1.9-1.4-2.9
		c-0.9-1.9-1.9-3.7-2.9-5.5c-1-1.8-1.9-3.5-3-5.1c-1-1.6-1.9-3.1-2.8-4.5c-1.8-2.8-3.3-5.2-4.3-6.8
		C397.4,706.5,396.8,705.5,396.8,705.5z"/>
</g>
<g id="XMLID_2150_">
	<path id="XMLID_2160_" d="M151.2,293c0,0,2.9,2.1,7.9,5.8c1.2,0.9,2.6,2,4.1,3.1c1.5,1.2,3,2.5,4.7,3.9c3.3,2.8,7.2,5.9,11,9.7
		c2,1.8,4,3.8,6.1,5.7c2.1,2,4.1,4.2,6.3,6.4c1.1,1.1,2.1,2.3,3.2,3.4c0.5,0.6,1.1,1.2,1.6,1.7c0.5,0.6,1,1.2,1.6,1.8
		c2.1,2.5,4.3,5,6.4,7.6c2.2,2.5,4.2,5.4,6.3,8.1c1.1,1.4,2.1,2.8,3.2,4.2c1.1,1.4,2,2.9,3,4.4c2,3,4,5.9,5.9,8.9
		c1.8,3.1,3.6,6.2,5.5,9.3c0.9,1.5,1.8,3.2,2.6,4.8c0.8,1.6,1.6,3.2,2.4,4.8c0.8,1.6,1.6,3.2,2.4,4.8c0.7,1.6,1.4,3.3,2.1,4.9
		c1.4,3.3,2.9,6.5,4,9.8c1.2,3.3,2.3,6.5,3.4,9.7c0.6,1.6,1,3.2,1.5,4.8c0.4,1.6,0.9,3.2,1.3,4.8c0.4,1.6,0.9,3.1,1.3,4.7
		c0.4,1.5,0.7,3.1,1,4.6c0.6,3,1.2,6,1.8,8.8c0.5,2.9,0.8,5.7,1.2,8.3c0.3,2.7,0.8,5.2,1,7.7c0.2,2.4,0.3,4.8,0.4,7
		c0.1,2.2,0.3,4.2,0.4,6.1c0,1.9,0,3.6,0,5.2c-0.1,6.3-0.2,9.8-0.2,9.8s-0.6-3.5-1.4-9.7c-0.2-1.5-0.4-3.2-0.7-5.1
		c-0.4-1.8-0.7-3.8-1.1-5.9c-0.4-2.1-0.8-4.4-1.2-6.7c-0.5-2.4-1.1-4.8-1.7-7.4c-0.6-2.6-1.1-5.3-1.9-8c-0.8-2.7-1.6-5.6-2.4-8.5
		c-0.4-1.4-0.8-2.9-1.3-4.4c-0.5-1.5-1-2.9-1.5-4.4c-1.1-3-1.9-6.1-3.2-9.1c-1.2-3-2.4-6.2-3.7-9.3c-0.6-1.6-1.3-3.1-2-4.7
		c-0.7-1.6-1.4-3.1-2.1-4.7c-0.7-1.6-1.4-3.1-2.1-4.7c-0.8-1.5-1.6-3.1-2.4-4.6l-2.4-4.7c-0.8-1.6-1.6-3.1-2.5-4.6
		c-1.7-3-3.5-6.1-5.2-9.1c-1.8-3-3.7-5.9-5.6-8.8c-0.9-1.4-1.8-2.9-2.8-4.3c-1-1.4-2-2.8-2.9-4.2c-1-1.4-1.9-2.8-2.9-4.1
		c-1-1.4-1.9-2.7-2.9-4c-2-2.6-4-5.2-5.9-7.7c-0.5-0.6-1-1.3-1.4-1.9c-0.5-0.6-1-1.2-1.5-1.8c-1-1.2-2-2.4-2.9-3.5
		c-1.9-2.3-3.8-4.6-5.7-6.8c-1.9-2.1-3.7-4.2-5.5-6.2c-3.5-4-6.9-7.5-9.8-10.6c-1.5-1.6-2.9-3.1-4.1-4.4c-1.3-1.3-2.5-2.6-3.6-3.7
		C153.6,295.6,151.2,293,151.2,293z"/>
</g>
<polygon id="XMLID_2149_" points="723.6,532.4 740.9,484.9 718.4,467.9 "/>
<polygon id="XMLID_2148_" points="723.6,543.8 673.9,553.3 651.8,568.8 670.2,543.8 "/>
<g id="XMLID_2145_">
	<path id="XMLID_2157_" d="M688,1287.6c0,0,0.5,0.2,1.5,0.7c1,0.5,2.5,0.9,4.4,1.3c1,0.1,2,0.4,3.2,0.3c0.6,0,1.2,0,1.8,0
		c0.6,0,1.3-0.1,2-0.2c1.4-0.1,2.8-0.5,4.3-0.7c1.5-0.5,3-0.8,4.6-1.4c3.2-1.1,6.5-2.7,9.9-4.5c3.4-1.8,6.9-4.1,10.4-6.4
		c3.5-2.4,7-5.1,10.6-7.8c3.5-2.8,7.1-5.6,10.6-8.6c3.5-2.9,7-5.9,10.3-9c3.3-3.1,6.7-6,9.8-8.9c3.2-2.9,6.2-5.8,9.1-8.5
		c2.9-2.7,5.6-5.3,8.1-7.6c2.5-2.4,4.8-4.5,6.9-6.5c2.1-1.9,3.9-3.6,5.3-5c3-2.7,4.7-4.3,4.7-4.3s-0.4,0.5-1,1.3
		c-0.7,0.9-1.6,2.1-2.9,3.7c-2.5,3.2-6.2,7.6-10.8,12.9c-2.3,2.6-4.8,5.4-7.5,8.3c-2.7,2.9-5.6,6-8.7,9.1c-3.1,3.1-6.3,6.3-9.6,9.4
		c-3.4,3.1-6.8,6.2-10.4,9.2c-3.6,3-7.2,5.9-10.9,8.6c-3.7,2.8-7.5,5.3-11.2,7.6c-3.8,2.3-7.5,4.4-11.2,6c-3.7,1.7-7.3,3.1-10.8,3.9
		c-1.7,0.5-3.4,0.7-5,1c-1.6,0.1-3.2,0.4-4.6,0.3c-0.7,0-1.4,0-2.1-0.1c-0.7-0.1-1.3-0.2-2-0.3c-1.3-0.1-2.3-0.6-3.3-0.8
		c-2-0.7-3.4-1.4-4.3-2.1C688.5,1288,688,1287.6,688,1287.6z"/>
</g>
<g id="XMLID_2142_">
	<polygon id="XMLID_2154_" points="740.9,1274.7 728.6,1305.2 735.7,1273.1 	"/>
</g>
<line id="XMLID_2141_" class="st3" x1="567.5" y1="210.5" x2="537.8" y2="183.9"/>
<line id="XMLID_2140_" class="st3" x1="598.5" y1="192.7" x2="592.7" y2="158.6"/>
<line id="XMLID_2139_" class="st3" x1="537.8" y1="234.8" x2="509.8" y2="221"/>
<g id="XMLID_2100_">
	<path id="XMLID_2108_" d="M509.3,435.4c-2-0.2-3.9-0.2-5.9-0.6c-3.9-0.8-6.2-3.4-7.4-7c-1.6-4.9-0.9-9.6,1.4-14.1
		c2.5-4.8,5.9-9.1,10-12.5c4.4-3.7,9.5-5.7,15.3-5.9c4.9-0.2,9.7,0,14.4,1.4c0.7,0.2,1.4,0.4,2.1,0.6c1.8,0.5,3.2-0.1,4.2-1.6
		c0.9-1.3,1.8-2.7,2.6-4.1c3.6-6.5,5.9-13.5,7.2-20.8c1.6-9.2,2.4-18.5,2.3-27.9c0-6.6-0.1-13.3-0.2-19.9c0-1.8,0-3.6-0.2-5.4
		c-0.8-6.8-0.8-13.6-0.8-20.4c0-6.7,1.1-13.2,2.8-19.7c2.3-9.1,7-16.9,13.4-23.6c5.5-5.8,11.9-10.3,19.1-13.9
		c8.8-4.3,18.1-6.9,27.7-8.3c4.5-0.6,9-0.4,13.4,0.5c1.6,0.3,2.4-0.2,3-1.6c0.4-1,0.7-2,1.1-3c1.6-4.3,4-8,7.3-11.2
		c0.6-0.6,1.3-1.2,1.9-1.9c4.5-5.3,10.3-8.8,16.7-11.5c9-3.8,18.3-6.3,27.8-8.3c10.8-2.2,21.7-2.5,32.7-2c20.7,1.1,39.2,8,55.8,20.4
		c6.5,4.9,11.9,10.9,16.6,17.5c4.3,6,7.9,12.4,11.2,19c3.3,6.8,6.4,13.7,9.1,20.7c3.9,10,7.8,20.1,12,30c3.5,8.3,7.3,16.4,10.9,24.6
		c2,4.7,4.9,8.7,8.3,12.5c3.7,4.2,7.8,7.9,12.3,11.2c10.5,7.8,22.1,13.3,34.9,16.3c7,1.6,14,2.9,21,4.4c11.9,2.5,23.8,5.2,35.3,9.5
		c10.2,3.8,19.5,9.1,28.1,15.7c2.5,2,4.8,4.3,6.9,6.7c8.8,10.2,14.2,22,15.8,35.4c1.6,13.3-0.5,26.1-6.1,38.3
		c-0.5,1.1-1.1,2.3-1.7,3.4c-1.2,2.3-1.1,4.5,0.1,6.7c5.8,10.6,9.9,21.9,14.7,32.9c6.5,15,11.7,30.5,15.1,46.5
		c1.7,8.1,3.1,16.2,4,24.4c0.9,8.6,2,17.1,2.8,25.7c0.6,6.6,1,13.2,1.5,19.9c0.5,8.1,1.1,16.1,1.5,24.2c0.3,6.8,0.5,13.6,0.6,20.5
		c0.2,9.3,0.3,18.7,0.4,28c0,3.6-0.2,7.2-0.3,10.8c-0.2,11.5-0.2,23-0.5,34.5c-0.2,9.1-0.7,18.3-1.1,27.4c-0.3,6.8-0.6,13.6-1,20.4
		c-0.4,7-1,14-1.6,20.9c-0.1,0.9-0.1,1.8-0.2,2.7c-0.7,9.3-1.4,18.6-2.1,27.9c-0.5,7-0.9,14-1.5,20.9c-0.5,7.5-1.1,15-1.7,22.5
		c-0.1,0.7-0.1,1.4-0.1,2.1c-0.7,10.2-1.4,20.4-2,30.6c-0.1,2.1-0.1,4.3,0.1,6.5c0.2,3,0.5,6.1,0.9,9.1c0.9,6.8,0.7,13.6,1,20.4
		c0.2,6.3,0.6,12.5,1,18.8c0.1,2.4,1,3,3.5,3c2.4,0,4.6-0.7,6.8-1.6c4-1.6,8-3.2,11.9-4.9c2.3-1,4.7-1.8,7.2-2.3
		c9-1.9,17.8-4.1,26.5-7.1c0.3-0.1,0.7-0.1,1.2-0.2c1.3,0.9,2.5,1.9,4.6,1.3c11.8-3.2,23.8-5.4,35.7-7.9c5.1-1.1,10.1-2.6,15.2-3.7
		c5.6-1.1,11.3-2,17-2.9c3.5-0.5,7.1-0.8,10.7-1.3c11.6-1.6,23.3-1.6,34.9-0.7c12.9,1,25.6,3.2,37.9,7.5c11,3.9,20.7,9.8,28.9,18.2
		c2.4,2.5,4.6,5.1,6.3,8c5.3,9,9.5,18.5,12.3,28.6c3.4,12.1,2.8,24.1-0.3,36.2c-3.3,12.5-8.7,23.9-16.4,34.3
		c-13.1,17.4-28.7,32.1-47.5,43.2c-9.7,5.8-19.7,11.1-29.9,15.9c-32.6,15.5-66,29-99.6,42.1c-19.1,7.4-38.2,14.7-57.4,21.8
		c-14.1,5.2-28.4,10.1-42.7,14.7c-11.1,3.6-22.3,6.7-33.6,9.8c-15.7,4.4-31.4,8.9-47.3,12.7c-15.9,3.8-31.4,8.9-47,13.8
		c-7.4,2.3-14.7,4.5-22.2,6.4c-4.7,1.1-9.5,1.9-14.3,2.4c-3.2,0.4-6.5,0.4-9.6-0.4c-1.5-0.4-2.8,0.1-3.9,1.2
		c-1.1,1.1-2.3,2.2-3.5,3.4c-9.8,9.5-19.9,18.7-30.2,27.6c-9.5,8.2-19.3,16.1-29.4,23.6c-1.3,1-2.5,2-3.9,2.9
		c-1.9,1.2-3.1,2.9-3.9,5c-2.5,6.7-6.6,12.3-11.5,17.4c-2.8,2.9-6,5.1-9.9,6.3c-5,1.5-8,0.7-11.4-3.4c-0.3-0.4-0.7-0.9-1-1.3
		c-0.7-1-1.7-1.3-2.8-0.9c-0.2,0.1-0.4,0.1-0.5,0.2c-4,2-8,1.3-12,0c-3.3-1-5.7-3-7.1-6.1c-0.6-1.3-0.8-2.8-2.2-3.8
		c-1.1,0.3-2.3,0.6-3.5,1.1c-2.2,0.8-4.5,1-6.9,1.1c-3.4,0.1-6.4-0.9-8.5-3.8c-0.4-0.6-1-1-1.5-1.6c-1.1,0.2-2.1,0.3-3.2,0.5
		c-7.6,1.4-12.4-4.2-11.7-11.4c0.2-2.5,1.1-4.9,2-7.2c0.4-1.1,1.3-2.1,1.1-3.4c-1-0.4-1.7,0.1-2.5,0.5c-4.8,2.1-9.6,4-14.7,5.2
		c-2.1,0.5-4.2,0.9-6.3,1.3c-0.4,0.1-0.7,0.1-1.1,0.1c-5.1,0.4-9-1.3-11.4-6.2c-2-4-2.6-7.8-1-11.9c0.9-2.2,1.8-4.3,3-6.3
		c2.4-4.2,5.5-8,8.8-11.5c9.9-10.7,20.6-20.6,31.6-30c14-12,28.4-23.7,43.1-34.9c0.7-0.5,1.6-0.9,1.7-1.9c-1.1-0.5-2.1,0-3.1,0.3
		c-18.8,5.4-37.6,10.7-56.4,16.1c-14.8,4.3-29.7,8.3-44.8,11.4c-3,0.6-5.8,1.7-8.5,3.2c-11.8,6.5-23.7,12.7-36.2,17.9
		c-9.7,4-19.8,6.5-30.2,7.6c-6.3,0.7-12.6,0.2-18.7-1.4c-8.6-2.2-15.6-7.2-21.7-13.5c-1.1-1.2-2.2-2.3-3.2-3.6c-1.5-2-3.5-3-5.8-3.6
		c-5.2-1.3-10.3-3-15.3-5c-13.9-5.6-26.9-12.8-39.5-20.7c-8.1-5-15.6-10.9-23-16.8c-1.8-1.4-3.7-2.8-5.6-4.1
		c-1.2-0.9-2.6-1.2-4.1-1.1c-1.3,0.1-2.5,0.1-3.8,0.3c-4.8,0.7-9.7,0.2-14.5-0.1c-2.4-0.1-4.6-1-6.6-2.1c-7.7-4.4-9.3-14.1-3.6-20.8
		c1-1.2,2.6-1.9,3.4-3.7c-1.7-0.8-3.2-1.5-4.8-2.3c-3.4-1.6-6.7-3.4-9.7-5.8c-2.3-1.8-4.1-4-5.2-6.7c-1.8-4.2-1.5-8,1.8-11.5
		c0.2-0.3,0.5-0.5,0.8-0.7c0.2-0.3,0.4-0.6,0.6-0.9c-0.2-0.9-1-0.9-1.6-1.1c-1.3-0.5-2.7-0.8-4-1.5c-5.4-2.5-7.5-8-5.4-13.5
		c0.9-2.2,2.2-4.1,3.7-5.9c0.7-0.8,1.5-1.5,2.1-2.1c0.2-1.2-0.6-1.4-1.2-1.8c-1.2-0.8-2.4-1.5-3.6-2.4c-2.7-2.1-4.2-4.9-4.8-8.2
		c-0.8-4,1-7.5,4.6-9.4c1.3-0.7,2.6-1.2,3.9-1.7c0.1-1.8-1.3-2.6-2.2-3.7c-4.4-5.2-7.3-11-9.2-17.5c-0.6-2.1-0.9-4.2-0.8-6.4
		c0.2-4.2,2.8-7.1,7-7.6c1.7-0.2,3.6,0,5.3,0.3c4.4,0.9,8.7,2.4,12.8,4.2c3.1,1.4,6.2,2.9,9.2,4.5c14.2,7.7,28,16.2,40.9,25.9
		c5.6,4.2,11.8,7.6,17.8,11.1c16.2,9.7,33,18.1,50.3,25.6c9.9,4.3,19.9,8.3,29.8,12.4c1.5,0.6,3,1.1,4.8,1.8
		c6.4-2.3,12.9-4.8,19.5-7.1c6.6-2.3,13.3-4.3,20-6.4c6.7-2.1,13.5-3.8,19.9-6c0.5-1.1-0.1-1.5-0.7-1.8c-1.4-0.8-2.8-1.5-4.3-2.2
		c-15.9-7.4-31.8-15-47.8-22.2c-34.2-15.4-68.5-30.5-102.7-45.9c-24.9-11.2-49.4-23.2-73.7-35.5c-17.6-8.9-35.3-17.8-52.5-27.4
		c-18.3-10.2-36.6-20.7-54.2-32.1c-9.5-6.2-18.3-13.3-26.6-21c-4.6-4.3-9-8.8-13.3-13.3c-3.7-3.9-7-8.2-10.2-12.5
		c-2.4-3.2-4.8-6.3-7.4-9.3c-5.5-6.5-10.4-13.3-14.6-20.6c-3-5.1-5.4-10.5-7.3-16.2c-1.2-3.6-2-7.3-2.5-11
		c-0.9-6.7,0.7-12.8,4.2-18.5c2.3-3.7,5.3-6.7,8.8-9.4c5.2-4,11.1-6.7,17.2-8.8c3-1.1,6.2-1.9,9.3-2.7c9-2.4,18.1-4.3,27.5-5.1
		c4.8-0.4,9.6-1.1,14.4-1.7c0.4,0,0.7-0.1,1.1-0.1c13.4-1,26.9-1.6,40.4-1c5.9,0.2,11.8,0.5,17.7,1c5,0.4,10,1,15,1.6
		c3.6,0.4,7.1,0.8,10.7,1.2c8.4,1,16.7,2,25.1,3c0.8-0.5,0.5-1.3,0.3-1.9c-1.1-4-2.3-7.9-3.5-11.9c-4.8-16.2-8.6-32.6-12.5-49
		c-6.4-26.7-12.9-53.4-19.1-80.1c-5.3-22.9-10.4-45.8-15.3-68.8c-3.1-14.4-5.8-28.8-8.1-43.4c-0.4-2.7-0.9-5.3-1.3-8
		c-0.3-2.5-0.6-5-0.8-7.5c-0.1-1.1-0.1-2.2-0.4-3.2c-0.5-2.5-1.3-4.9-3.4-6.5c-5.8-8.2-13.2-14.7-21.2-20.5
		c-7.2-5.3-14.7-10.3-22.2-15.2c-8.4-5.5-17.5-9.9-27.1-13.1c-4.9-1.7-9.8-3.5-14.7-5.1c-1.8-0.6-3.1-1.6-3.7-3.5
		c-1.9-7.2-5.3-13.7-8.1-20.5c-9.8-24.3-19.6-48.6-29.2-73c-8.5-21.5-15.8-43.5-23-65.5c-5.4-16.6-10.5-33.2-15.2-49.9
		c-0.6-2.3-1.2-4.5-0.7-6.9c0.3-1.2,0.7-2.4,1.6-3.4c1-1.2,2.1-2.5,2.9-3.9c1-1.7,2.3-2.7,4.1-3.1c4.4-1.1,8.7-2.2,13-3.4
		c1.4-0.4,2.7-0.8,4.1-1.3c0.4-1.1,0.7-2.1,1-3.2c1.7-5.5,3.4-11,5.1-16.5c0.6-2,1.5-4,1.5-6.2c0-1.2,0.5-2.4,1-3.6
		c0.8-2.1,2.7-3.2,4.7-2.3c3,1.3,6.2,1.8,9.4,2.4c6.1,1.2,12.3,2.2,18.7,3.3c0.2-0.8,0.6-1.4,0.6-2.1c0.4-4.1,1.1-8.2,2.1-12.2
		c0.2-0.7,0.3-1.4,0.6-2.1c0.6-1.8,1.8-2.5,3.8-2c1.4,0.3,2.8,0.8,4,1.4c4.5,2.3,8.9,4.6,13.4,7c20.8,11.2,39.4,25.6,57.1,41.2
		c6.2,5.4,12.3,11,17.7,17.3c5.1,5.9,9.6,12.1,12.8,19.2c0.2,0.5,0.5,1,0.8,1.4c0.9,1.3,2.1,1.9,3.7,1.6c2.3-0.4,4.5-1.3,6.6-2.3
		c7.3-3.4,14.6-6.9,21.9-10.3c18.9-8.7,38.5-15.7,58.6-21.3c17.8-5,35.7-9.3,53.8-13.2c0.7-0.2,1.4-0.2,2.1-0.3
		c3.3-0.3,5.8,0.7,7.7,3.7c2.6,4.1,5.1,8.2,7.3,12.6c2.4,4.8,4.8,9.7,7.2,14.5c0.7,1.4,1.5,2.8,2.4,4.4c1,0.2,2.1,0.4,3.1,0.6
		c1.2,0.2,2.6,0,3.7,0.5c3.2,1.6,6.6,1.3,10,1.4c1.3,0,2.5,0.1,3.7,0.3c1.1,0.2,2,0.8,2.4,2c0.6,2.1,1.3,4.1,1.7,6.2
		c1.2,7.1,2.3,14.2,3.4,21.3c0.5,3.2,0.8,6.4,1.3,9.6c1.2,8.2,1.7,16.4,2.3,24.6c0.5,7,0.7,14,0.9,21c0,0.9,0,1.8,0.1,2.7
		c1.3,9.3,0.4,18.6,0.1,28c-0.1,1.8-0.1,3.6-0.1,5.4c-0.1,6.8-0.2,13.6-0.1,20.5c0,3.8,0.2,7.5,0.4,11.3c0.5,9.3,0.6,18.7,0.3,28
		c0,1.6-0.4,3.2-0.6,4.8c-0.2,1.9,0.3,2.7,2.1,3c1.8,0.4,3.5,0.7,5.3,1c3.1,0.5,5.7,1.7,8.1,3.8c11.7,10.2,21.5,22.1,30.3,34.8
		c2.6,3.7,4.8,7.6,6.6,11.7c0.4,1,1,1.9,1.6,3c0.6-0.5,1.1-0.8,1.3-1.2c0.6-1.5,1.4-3,1.6-4.5c1-6.2,3.7-12,4.4-18.3
		c0.8-7.1,1.8-14.3,1.3-21.5c-0.1-1.5-1.1-2.3-2.5-2c-0.7,0.2-1.4,0.4-2.1,0.6c-1.7,0.5-3.4,1.1-5.1,1.7c-4.2,1.5-8.5,3-13,3.5
		c-1.1,0.1-2.2,0.3-3.2,0.1c-6.5-0.7-10.7-4.8-11.6-11.5c-0.5-4-0.2-7.9,1.5-11.6c0.4-1,0.9-1.9,1.5-3.1c-0.6-0.1-1.1-0.3-1.5-0.2
		c-1.5,0.4-3,1.1-4.6,1.5c-3.9,1-7.8,1.1-11.6-0.7c-0.5-0.2-1-0.6-1.5-0.7c-3.2-0.4-4.5-2.6-5.3-5.3c-0.6-1.9-1.1-3.8-0.8-5.8
		c0.5-3.2,1.2-6.3,2-9.5c0.2-1,1-1.9,1.8-2.6c2.5-2.5,5.3-4.9,8.4-6.7C507.5,436.6,508.3,435.9,509.3,435.4c0.1-0.1,0.2-0.2,0.4-0.2
		c0.1-0.1,0.2-0.2,0.3-0.2C509.7,435.1,509.5,435.3,509.3,435.4z M528.7,428.9c2.9-0.1,5.7-0.2,8.6-0.3c0.1,0,0.2-0.2,0.6-0.5
		c-1.5-0.1-2.7-0.2-4-0.1c-1.2,0-2.5,0.1-3.7,0.2C529.6,428.3,529.2,428.7,528.7,428.9c-0.8,0.3-1.8-0.3-2.7,1.1
		C527.2,429.5,527.9,429.2,528.7,428.9z M627.8,812.5c-0.1-0.2-0.1-0.3-0.2-0.4c-0.1-0.1-0.2-0.2-0.3-0.3
		C627.5,812,627.7,812.2,627.8,812.5c0.3,1.4,0.3,2.8,0.7,4.2c3.3,12.3,6.7,24.5,11,36.5c4,11.1,7.7,22.3,11.6,33.5
		c1.3,3.7,2.6,7.4,3.6,11.2c0.4,1.6,1,3,2,4.3c6.3,8.5,12.9,16.7,20.3,24.4c9.3,9.7,19.3,18.7,29.7,27.2c0.5,0.4,1.2,0.7,1.9,1.1
		c1-1,2-1.7,2.8-2.6c2.1-2.2,4.1-4.5,6.1-6.8c0.2-0.2,0.2-0.7,0.3-1c-0.8-1.1-2-1.4-3.2-1.8c-2.7-0.7-4.8-2.3-6.5-4.5
		c-1.5-2-3-4-4.8-5.8c-6.7-7-12.4-14.9-17.5-23.1c-5.4-8.7-10.7-17.4-16.2-26c-14-22.3-27.6-44.9-40-68.2
		C629,814.2,628.4,813.4,627.8,812.5z M382.2,904c0.3,0.8,0.9,1.2,2.1,1.3C383.6,904.5,383,904.1,382.2,904
		c-0.5-1.4-1.8-2.2-2.8-3.2c-4.4-4-8.9-7.9-13.1-12c-3-2.9-5.6-6-8.4-9.1c-0.2-0.2-0.3-0.7-0.3-1c0-0.3,0.4-0.8,0.6-0.7
		c0.7,0.1,1.4,0.2,2,0.5c4.5,2.2,8.8,4.9,12.7,8c12.7,10,24.4,21.2,36.7,31.6c4.1,3.5,8.3,6.8,13,9.5c21.4,12.5,42.8,24.9,64.1,37.6
		c20.5,12.2,41.1,24.4,61.9,35.9c13,7.2,26.1,14.4,39.1,21.6c13.3,7.4,26.6,14.9,40,22.2c10.5,5.8,21.2,11.3,31.8,16.9
		c1.7,0.9,3.4,2,5.1,3c2,1.2,4,2.5,6,3.5c6.8,3.4,14.1,5.4,21.3,7.6c7.1,2.1,14.3,3.2,21.7,3.4c3.9,0.1,7.9,0.2,11.8,0.6
		c2.8,0.3,5.3,0,7.9-0.9c14.9-5.2,29.8-10.4,44.7-15.6c37.1-13,74.2-25.8,111.7-37.5c20.7-6.5,41.5-12.6,62.3-18.8
		c1.2-0.4,2.5-0.7,4.3-1.8c-3,0.5-5.1,0.8-7.2,1.2c-9,1.6-18,3.1-27,4.8c-11.8,2.3-23.6,4.7-35.3,7.1c-3.7,0.7-7.4,1.6-10.8,3.3
		c-1.3,0.6-2.6,1.1-4,1.5c-5.7,1.5-11.5,2.6-17.5,2.8c-5.9,0.1-11.8-0.2-17.7,0.8c-2.1,0.4-4.2,0.1-6.3-0.7c-2-0.8-4.2-0.8-6.3-1.1
		c-1.4-0.2-2.9-0.1-4.3-0.3c-8-1.2-16-2.3-23.8-4.2c-11.2-2.7-22-6.6-32.1-12.3c-3.5-2-6.6-4.3-9.2-7.4c-2.6-3.2-5.3-6.3-7.6-9.8
		c-2.9-4.3-6-8.5-8.1-13.3c-1.4-3.1-3.1-6.1-5-8.9c-3.4-5.1-6.9-10.1-9.7-15.5c-0.3-0.6-0.8-1.2-1.7-1.1c-0.3,0.3-0.8,0.5-1.2,0.9
		c-2.3,2.9-5.9,4.8-7,8.7c-0.1,0.3-0.4,0.6-0.7,0.7c-2.2,1.3-4.1,2.9-6.5,3.6c-2.1-0.6-3.5-2-5-3.3c-8.2-6.9-16.4-13.9-24.1-21.5
		c-8.6-8.5-16.6-17.4-23.7-27.2c-2.8-3.9-5.7-7.9-8.3-11.9c-1.4-2.1-3.1-3.3-5.5-4c-9.1-2.6-18.2-5.4-27.4-7.9
		c-26.1-7-52.3-13.9-78.5-20.8c-3.3-0.9-6.7-1.4-10-1.9c-3.5-0.6-7.1-1.1-10.6-1.7c-6.9-1.2-13.8-2.4-20.7-3.6
		c-10.9-2-21.9-3.9-32.8-5.9c-10.2-1.9-20.4-4-30.6-5.9c-10-1.9-20.1-3.6-30.2-5.3c-2.3-0.4-4.6-0.6-6.8-0.9
		c-3.2,3-7.2,4.3-10.8,6.4c-0.7,0.4-1.7,0.6-2.6,0.8c-3.9,0.8-7.7,1.5-11.6,2.4c-3.8,0.9-7.4,0.6-11.2-0.1c-4.9-1-8.6-3.5-11-7.8
		c-1.2-2.2-2.5-4.4-3.4-6.7c-1-2.6-2.8-3.5-5.3-3.8c-2.5-0.3-5-0.8-7.5-1.1c-10-1.2-19.9-2.3-29.9-3.6c-7.8-1-15.7-1.9-23.6-2.2
		c-0.9,0-1.8-0.2-2.7-0.3c-2.5-0.2-5-0.5-7.5-0.5c-9.9-0.1-19.7,0-29.6,0c-8.1,0-16.1,0.8-24.1,1.9c-10.7,1.4-21.1,4.3-31.3,7.8
		c-3.6,1.2-7,2.8-10.4,4.4c-3.7,1.8-7.1,4.2-10.1,7.1c-4.1,4.2-6.2,9.2-5.8,15.1c0.1,1.8,0.4,3.6,0.8,5.3c1,4.9,2.8,9.6,5,14.2
		c2.9,6,6.5,11.6,10.4,16.9c4.1,5.7,8.9,10.8,13.5,16.1c1.5,1.8,2.9,3.6,5.1,4.7c0.8,0.4,1.3,1.2,1.9,1.9c3.3,4.3,7.2,8,11.2,11.6
		c14.9,13.8,30.7,26.5,46.9,38.7c1.1,0.9,2.3,1.7,3.6,2.4c11.2,6.4,22.3,13.1,33.7,19.1c17.3,9.2,34.7,18,52.2,26.8
		c22.3,11.2,44.7,22.2,67.4,32.5c27,12.2,54.1,24,81.1,36.2c21.6,9.7,43,19.8,64.5,29.7c8,3.7,15.9,7.4,23.9,11.2
		c2.1,1,4.1,1.2,6.2,0.4c0.8-0.3,1.7-0.5,2.6-0.8c10.3-3.3,20.5-6.6,30.8-9.8c8.7-2.7,17.3-5.8,25.8-9.3c8-3.2,16.1-6.2,24.2-9.1
		c8.8-3.2,17.6-6.3,26.3-9.4c0.9-0.3,2.1-0.3,2.4-1.9c-0.9-0.5-1.8-1-2.7-1.5c-6-3.3-12-6.5-17.9-10c-5.5-3.3-11.5-5.9-16.8-9.6
		c-0.3-0.2-0.6-0.3-1-0.5c-7.6-4-15.2-8-22.9-12c-4.1-2.2-8.3-4.2-12.4-6.4c-15.6-8.5-31.1-17.1-46.8-25.6
		c-26.5-14.3-52.8-29.1-78.7-44.5c-24.2-14.4-48.4-28.8-72.7-43.1c-26.1-15.4-51.8-31.6-76.4-49.3c-1.3-0.9-2.6-2-3.8-3
		c-0.4-0.3-0.3-0.7,0.4-1c0.9,0.4,2.1,0.8,3.2,1.4c10.9,5.5,21.8,11,32.7,16.5C379.8,903.2,381,903.6,382.2,904z M729.6,814.4
		c1.4-2.6,2.4-4.5,3.3-6.4c8.7-18.1,17.4-36.2,26.2-54.3c12.4-25.5,24.4-51.2,36.2-77c13.6-29.7,26.5-59.7,38.8-90
		c10.7-26.6,21.5-53.3,33.2-79.5c3.5-7.9,6.9-15.8,11.3-23.2c2.6-4.5,5.4-8.9,9.7-12.1c0.6-0.4,1-1,1.5-1.5c4.7-5,10.2-9,16.2-12.3
		c4.7-2.6,9.7-4.7,14.9-6c2-0.5,3.9-0.6,5.9-0.3c0.3,0.1,0.6,0.4,0.7,0.7c0.1,0.3,0.1,0.7-0.1,1c-0.3,0.4-0.7,0.9-1.1,1.2
		c-1.8,1.2-3.5,2.5-5.4,3.6c-5.3,3.3-10.7,6.5-16,9.9c-3.6,2.3-6.8,5.2-9.8,8.4c-5.2,5.6-9.2,11.9-12.4,18.8
		c-5,10.9-9.9,21.9-14.4,33.1c-9.2,23.2-18.5,46.3-27.8,69.5c-16,40.2-33.9,79.6-52.2,118.7c-10.2,21.8-20.8,43.4-31.2,65.1
		c-0.5,1-1,1.9-1.3,2.9c-0.2,0.4,0,1,0,1.7c1.4,0.1,2.6,0.1,3.8,0.2c2.1,0.2,4.3,0.2,6.4,0.6c13.1,2.5,23.6,9.1,31.8,19.6
		c3.9,5,6.9,10.5,9.1,16.4c2,5.6,3.7,11.2,4.4,17.2c0,0.3,0.1,0.8,0.3,1c0.2,0.2,0.8,0.3,0.9,0.2c0.9-1.1,1.8-2.2,2.6-3.4
		c18.3-28.3,35.6-57.3,52.6-86.5c11.7-20,23.3-40,34.8-60.1c9-15.7,18-31.5,26.6-47.4c9.3-17.2,18.1-34.7,27.2-52
		c5.6-10.7,10.6-21.6,15-32.8c1.1-2.7,2.2-5.3,3.5-7.9c0.7-1.4,1.7-2.8,2.6-4c0.3-0.3,1-0.6,1.4-0.5c0.4,0.1,0.9,0.8,0.8,1.2
		c-0.2,1.8-0.4,3.6-0.9,5.3c-1.7,6.8-3.8,13.5-6.4,20c-0.3,0.6-0.7,1.3-0.1,2c1,0.1,1.5-0.8,2.2-1.2c2-1.5,4-3,6.1-4.4
		c0.7-0.5,1.7-0.6,2.5-0.8c0.8-0.2,2,0.5,2.1,1.3c0.1,0.6,0.2,1.6-0.2,2c-1.3,1.5-2.7,2.9-4.2,4.1c-9.8,8.1-17.5,17.9-23.1,29.4
		c-8.5,17.6-17.3,35.1-26.5,52.4c-10.9,20.4-22.3,40.6-33.8,60.7c-21.2,37.1-42.5,74.1-65.4,110.2c-7.6,12-14.9,24.1-22.9,35.9
		c-8.9,13.1-17.3,26.4-24.7,40.4c-3.1,5.7-6.6,11.1-10.3,16.4c-5.4,7.6-11.4,14.7-18.7,20.8c-1.4,1.2-2.9,2.2-4.5,2.8
		c-5,2-10.2,3.3-15.7,3.4c-1.2,0-2.5,0.1-3.8,0.2c0.1,0.7,0,1.3,0.3,1.7c0.8,1.4,1.7,2.8,2.6,4.1c6,8.3,12,16.6,17.9,24.9
		c2.4,3.4,4.8,6.7,6.8,10.3c1.5,2.6,3.3,4.6,5.9,6c3.8,2,7.5,4.2,11.2,6.4c0.7,0.4,1.7,1.1,1.9,1.8c0.3,1.8,1.6,2.2,3,2.7
		c11.7,4.3,23.8,6.7,36.1,8.3c5,0.6,10,1,15,1.6c5.9,0.8,11.8,0.6,17.7,0.5c0.9,0,1.8-0.1,2.7-0.3c5.5-1,10.9-2,16.4-3.2
		c19.3-4.1,38.6-8.3,58-11.8c13.6-2.4,27.2-4.7,40.8-7.1c11.3-1.9,22.6-3.7,33.9-5.8c3.5-0.6,7.1-0.9,10.5-2.6
		c0.7-2.1,0.2-4.3,0.1-6.4c-0.1-2.7-0.5-5.4-0.6-8.1c-0.4-19.9-0.8-39.8,0.5-59.7c0.8-12.4,1.3-24.7,2.3-37.1
		c0.7-9.5,1.4-19,2.1-28.4c0.7-10,1.5-20,2.2-30.1c0.6-9.1,1-18.3,1.5-27.4c0.1-1.3,0.1-2.5,0.2-3.8c0.6-11.8,1.3-23.7,1.7-35.5
		c0.8-26.4,0.6-52.8,0.2-79.2c-0.1-10.8-1-21.5-1.4-32.3c-0.2-5.6-0.7-11.1-1.2-16.6c-0.5-6.1-1.2-12.1-1.7-18.2
		c-0.7-9.5-1.9-18.9-3.4-28.3c-1.2-7.4-2.6-14.9-4.7-22.1c-4.9-17.1-11.2-33.7-19.3-49.6c-1.2-2.4-2.2-4.9-3.1-7.4
		c-4.2-12.6-10.6-24-19.3-33.9c-7.3-8.4-15.5-15.9-24.7-22.4c-11.4-8-23.5-14.5-36.1-20.3c-14.4-6.6-29.5-10.1-45.1-11.4
		c-5.9-0.5-11.8-0.5-17.7-1.2c-4.8-0.6-9.6-1.1-14.4-1.7c-4.6-0.6-9.3-1.1-13.9-1.7c-1.9-0.2-3.1,0.7-3.8,2.3c-0.4,1-0.8,2-1.3,3
		c-2.9,6.4-5.7,12.8-8.7,19.1c-8.5,17.4-18,34.3-27.6,51.1c-3.9,6.8-8.1,13.6-12,20.4c-1.5,2.6-3.7,4.3-6.3,5.6c-1,0.5-2,0.4-3-0.5
		c-1.5-1.5-3-3.1-4.6-4.5c-8.7-7.7-17.5-15.4-26.3-23.1c-0.3-0.3-0.9-0.2-1.6-0.3c0.1,1.5,0.2,2.7,0.4,4c0.6,3.9,1.1,7.8,1.7,11.7
		c0.9,6.6,1.9,13.1,2.8,19.7c0.8,6.2,1.7,12.4,2.3,18.7c0.3,2.5,0.3,5,0.1,7.5c-0.5,6.1-2.1,9.6-10.4,10.7c-2.7,0.4-5.3,0.7-8,0.9
		c-2.5,0.2-5,0.3-7.5,0c-7.3-0.7-14.6-1.6-21.8-3.2c-0.9-0.2-1.7-0.5-2.6-0.5c-3.8,0-4.7-0.8-6.4,4c-1.1,3.1-2.6,5.9-4.9,8.3
		c-3.6,3.8-7.2,7.5-10.9,11.2c-1.8,1.8-4,3-6.5,3.7c-1.4,0.4-2.8,0.5-4.2,0.1c-3.2-0.8-6-2.4-8.3-4.7c-2.3-2.3-4.3-4.8-6.1-7.5
		c-0.5-0.7-0.6-1.7-1.9-2c-0.5,2.2-1.1,4.4-1.6,6.7c-1.7,8.4-4.6,16.2-9.6,23.2c-0.5,0.7-0.8,1.5-1.2,2.3c0.9,2.4,2.3,4.3,3.6,6.2
		c5.8,8.8,11.3,17.9,16.4,27.2c5.6,10.2,11.1,20.5,16.6,30.8c8.1,15.2,15.8,30.6,23.1,46.2c14.3,30.9,28.8,61.8,44,92.3
		c0.8,1.6,1.7,3.2,2.2,4.9c1.6,4.6,3.9,8.8,6.1,13.2C728.3,812.5,728.7,813,729.6,814.4z M820.8,1262.6c1.9-0.2,2.6-0.2,3.2-0.4
		c2.4-0.6,4.9-1.2,7.3-1.9c13.5-3.5,27.1-6.8,40.4-11.3c6.8-2.3,13.8-4,20.8-5.6c4.4-1,8.8-1.6,13.1-2.9c20.5-6,40.9-12.1,61.4-18.1
		c22.4-6.5,44.4-14.4,66.2-22.5c19.5-7.3,38.9-14.9,58.2-22.5c16.2-6.4,32.3-12.8,48.4-19.6c16.2-6.8,32.2-14,48.1-21.6
		c8.9-4.3,17.6-9,26.1-14c18.4-10.8,33.6-25,46.1-42.2c7-9.6,11.7-20.1,14.4-31.6c2.7-11.4,2.5-22.8-1.6-33.9
		c-2.2-5.9-4.6-11.7-7.1-17.4c-2.2-5-5.4-9.3-9.5-13c-4.4-4-9.2-7.5-14.5-10.1c-5.3-2.6-10.9-4.6-16.6-6.2c-7.1-2-14.4-3.2-21.6-4.2
		c-6.2-0.9-12.5-1.5-18.8-1.4c-6.6,0.1-13.3,0.2-19.9,0.3c-0.9,0-1.8,0.1-2.7,0.2c-5.9,0.6-11.8,1.2-17.6,1.9
		c-6,0.8-12.1,1.6-17.9,3.6c-7.1,2.5-14.4,4.4-21.7,6.1c-7.7,1.8-15.4,3.4-23,5.4c-19.9,5.4-39.8,10.9-59.6,16.4
		c-1,0.3-2.1,0.7-3.1,0.5c-4.2-0.7-7.8,0.8-11.2,2.9c-2.5,1.5-5.2,2.5-7.9,3.3c-23,7-46,14-69,21c-28.3,8.5-56.6,17.4-84.6,26.9
		c-24.6,8.3-49.2,16.9-73.8,25.4c-13.4,4.7-26.8,9-39.9,14.6c-14.5,6.2-29.3,11.7-44.4,16.4c-2.6,0.8-5.1,1.6-7.7,2.5
		c-1,0.3-1.9,0.9-3.1,1.4c-0.4,1.8-0.9,3.5-1,5.3c-0.4,5.7-0.5,11.5,0.1,17.2c0.8,7.9,2.2,15.6,4.1,23.3c2.6,10.3,6.1,20.3,11,29.7
		c3.7,7.2,8.9,13.5,14,19.7c0.7,0.9,1.7,1.3,2.8,1.3c0.9,0,1.8-0.1,2.7-0.3c3.5-0.8,7-1.6,10.4-2.5c12.5-3.2,25-6.4,37.5-9.7
		c34.5-9.1,69-18.1,103.5-27.2c26-6.9,51.9-14.1,77.7-21.8c30.8-9.2,61.7-17.7,92.8-25.7c21.4-5.5,42.8-10.8,64.5-14.7
		c13.2-2.4,26.5-4.6,39.8-6.8c0.9-0.1,1.8-0.2,2.6,0.4c-0.1,0.2-0.1,0.4-0.2,0.5c-1.5,0.5-3,1.1-4.6,1.5c-10.9,3-21.8,5.9-32.7,8.8
		c-0.5,0.1-1.1,0.3-1.5,0.5c-0.5,0.2-1.3,0-1.4,1c4.7-0.1,9.4,0.1,14.1-0.4c9.7-0.9,19.4-0.8,29.1-0.7c3.2,0.1,6.4,0.7,9.6,1.2
		c1,0.2,2.1,0.5,2.6,1.8c-0.5,0.2-0.9,0.6-1.4,0.7c-2.5,0.3-5,0.7-7.5,0.8c-4.3,0.2-8.6,0.2-12.9,0.4c-9,0.5-17.9,1.2-26.9,1.6
		c-6.1,0.3-12.2,0.2-18.3,0.3c-8.1,0.2-16.1,1-23.9,3.2c-39.4,11-78.6,22.4-117.8,34.1c-15.8,4.7-31.6,9.7-47.5,13.9
		c-8.7,2.3-17.3,4.7-26,7c-0.8,0.2-1.7,0.5-1.8,1.8c0.5,0.8,1.1,1.7,1.6,2.6c2,3.6,2.8,7.4,1.5,11.4c-0.9,2.9-1.8,5.8-3.1,8.6
		c-3.1,6.9-7.1,13.3-11.5,19.4c-1.9,2.6-3.9,5.1-6.5,7.2c-1.1,0.9-2,2-2.9,3.1c-8.3,10.1-17,19.9-26.2,29.3
		C823.1,1260.1,822.4,1260.9,820.8,1262.6z M572.2,663.6c-0.6,1.2,0.2,2,0.6,3c6.9,15.6,13.6,31.3,19.8,47.2
		c0.8,2.2,1.7,4.3,2.7,6.5c7,15.3,13.9,30.7,21.2,46c12.1,25.5,25.1,50.4,39.5,74.7c12.6,21.4,25.5,42.5,39.5,62.9
		c1.2,1.8,2.2,3.7,3.3,5.5c1.7,2.6,3.3,5.1,5.1,7.6c2,2.7,4.4,5.2,6.3,8c2.6,3.6,5.9,6.2,9.7,8.4c3.7,2.1,7.6,3.4,11.7,3.6
		c12.4,0.8,11.5,1.6,19.8-8c1.3-1.5,2.1-3.2,2.5-5.3c1.1-6.4,2.3-12.7,3.4-19.1c1.5-9,1.1-17.9-1-26.7c-2.1-9-5.6-17.4-9.7-25.6
		c-1.5-3.1-3.4-5.9-5.5-8.6c-8.3-10.6-16.1-21.6-23.4-32.9c-2.9-4.5-5.9-9.1-8.2-13.9c-8.8-17.7-17.4-35.4-25.9-53.3
		c-7.4-15.6-14.3-31.3-21.8-46.9c-8.5-17.6-17.3-35.1-26.1-52.5c-5.9-11.9-12.1-23.6-18.7-35.2c-3.1-5.4-5.9-11-8.8-16.5
		c1-2.9,1.8-5.6,2.8-8.3c0.5-1.3,1.2-2.6,1.9-3.9c4.3-7.9,6.2-16.5,7.1-25.2c1-9.5,0.6-19-0.7-28.5c-1.7-12.4-5.3-24.2-10.9-35.3
		c-4.2-8.3-8.5-16.6-14.8-23.7c-2.4-2.7-5-5.2-7.6-7.6c-2.7-2.4-5.8-3.5-9.3-3.7c-6.5-0.3-12.9-0.3-19.3,0.9
		c-2.3,0.4-4.6,0.9-6.9,1.3c-5.3,1.1-10.4,2.7-15.2,5.2c-4.8,2.5-8.3,6.2-10,11.4c-0.7,2.3-0.8,4.6,0.1,6.9c0.8,2,1.9,2.9,4.1,2.9
		c2,0,3.9-0.4,5.8-1c5.9-2,11.9-4,17.9-6c5-1.6,10.2-2.3,15.4-1.5c8.5,1.3,16.1,4.9,22.6,10.6c1.3,1.2,2.3,2.7,3.4,4.1
		c0.2,0.3,0.2,0.7,0.4,1c0.1,0.4-0.5,1.2-0.9,1.1c-2.9-0.3-5.6-1.1-8.2-2.3c-0.6-0.3-1.3-0.6-2.1,0.3c0.6,1.2,1.2,2.4,1.8,3.7
		c1.7,3.6,3.2,7.2,4.1,11.1c0.6,2.6,0.4,5-0.4,7.4c-0.1,0.3-0.4,0.6-0.7,0.6c-0.3,0-0.8-0.1-0.9-0.4c-1.4-1.7-2.1-3.7-2.8-5.8
		c-0.8-2.4-1.5-4.8-2.3-7.2c-1.8-4.8-4.3-9.1-7.6-12.9c-1-1.1-2.1-1.9-3.5-2.3c-2.6-0.7-5.3-0.9-8-0.6c-0.9,0.1-1.5,1-1.5,1.9
		c0,0.4,0,0.7,0,1.1c0.8,6.7,0.2,13.3-0.6,19.9c-1.5,12-4.2,23.7-9.7,34.6c-0.8,1.5-0.9,3-0.5,4.7c1.1,4.5,2,9.1,3.1,13.6
		c0,0.2,0.5,0.3,0.9,0.5c1.5-1.9,3.1-3.9,4.6-5.9c3.8-4.8,8.3-8.9,13.3-12.5c4.1-2.8,8.5-4.5,13.5-5c0.2,0,0.4,0.1,0.4,0.2
		c0,0.3,0.1,0.8,0,0.9c-2.6,1.9-5.2,3.8-7.9,5.6c-7.9,5.2-14.4,11.8-20,19.4c-3.7,5.1-7,10.5-8.4,16.7c-0.2,0.8-0.7,1.6-1.2,2.4
		c-0.2,0.2-0.7,0.5-0.9,0.4c-0.5-0.2-1.1-0.5-1.2-0.9c-0.8-1.9-0.5-3.9,0.1-5.8c0.7-2.2,1.5-4.4,2.4-6.6c0.5-1.2,0.6-2.4,0.3-3.7
		c-1.4-5.6-2.9-11.1-4.1-16.7c-0.8-3.6-2.2-6.8-4.4-9.8c-2.8-3.7-5.3-7.6-7.7-11.7c-0.8-1.4-1.8-2.7-2.7-4c-7-9.6-14.7-18.6-23.1-27
		c-2.1-2.2-4.6-4-6.9-6c-2.2-1.8-4.8-2.4-7.5-2.7c-0.4,0-1,0.4-1.2,0.8c-0.3,0.4-0.3,1-0.3,1.6c0.4,5.7,0.8,11.5,1.3,17.2
		c0.1,1,0.6,2.1,1.2,2.9c3.1,5.1,6.2,10.1,9.4,15.1c5.2,8.2,10.5,16.3,15.8,24.4c1.8,2.8,2.8,5.8,2.9,9.1c0,2-0.1,3.9-0.1,5.9
		c-0.1,5.9-0.1,11.8-0.1,17.8c0,3.4,0.7,6.8,1.6,10.1c3.6,12.2,9.2,23.3,16.8,33.5c6.1,8.1,13.1,15.3,20.8,21.8
		c4.7,3.9,9.4,7.8,14.1,11.7c0.8,0.7,1.5,1.5,2.2,2.3c0.1,0.2,0,0.6-0.1,1c0,0.1-0.3,0.3-0.4,0.3C575.6,664,573.9,663.8,572.2,663.6
		z M386,435.9c1.2,0.2,1.4,0.2,1.6,0.2c6.4-1.4,12.9-1.1,19.3-0.8c2.7,0.1,5.3,0.8,7.7,2.2c2.9,1.7,3.9,4.8,2.4,7.9
		c-1,2.2-2.7,3.8-4.4,5.3c-3.2,2.7-6.6,4.9-10.4,6.7c-3.6,1.7-7.1,3.4-10.8,4.9c-14.1,5.9-26.4,14.5-38,24.2
		c-0.8,0.7-1.6,1.5-2.3,2.3c-0.2,0.2-0.1,0.6-0.3,1.3c1.3-0.4,2.3-1,3.4-1.6c5.9-3.1,11.7-6.2,17.6-9.2c11.3-5.8,23.5-5.8,35.8-4.8
		c1.4,0.1,2.8,0.5,4.2,0.7c3.2,0.7,6.2,1.8,8.9,3.7c2.6,1.8,4.5,4.1,5.6,7c1.4,3.5,0.8,6.8-1.8,9.5c-1.3,1.4-2.9,2.6-4.6,3.6
		c-3.6,2.1-7.5,3.5-11.5,4.4c-3.5,0.8-7,1.5-10.5,2.3c-8.6,1.9-17,4.3-25.1,7.8c-5.3,2.3-10.2,5.2-14.9,8.6
		c-1.6,1.2-2.3,2.5-1.9,4.6c1.5,7.6,2.8,15.2,4.2,22.7c0.4,1.9,0.7,3.9,1.2,5.8c0.3,1.2,1.1,1.8,2.3,1.9c0.9,0.1,1.8,0,2.7,0
		c9.2,0,18.3-0.1,27.5,0c3.2,0,6.5,0.3,9.7,0.4c2.1,0.1,4.3,0.3,6.4,0.4c7.2,0.2,14.4,0.1,21.5,0.5c8.8,0.5,17.6,0.5,26.4,0.7
		c4.8,0.1,9.7,0.5,14.5,0.7c5.5,0.3,11.1,0.7,16.6,1c0.7,0,1.4-0.8,1.2-1.4c-1-4.4-2.1-8.7-2.9-13.1c-2.3-12-3.3-24.2-4-36.3
		c-0.6-9.8-0.9-19.7-1.1-29.6c-0.2-9.2-0.2-18.3-0.2-27.5c0-19.6,0.1-39.1,0.1-58.7c0-6.6-0.2-13.3-0.5-19.9
		c-0.5-10.9-1.2-21.9-1.9-32.8c-0.4-5.5-0.8-11.1-1.4-16.6c-0.7-7-1.9-13.9-2-20.9c0-0.5-0.1-1.1-0.1-1.6c-0.2-1.8-0.9-2.5-2.8-2.6
		c-5.9-0.4-11.8-0.7-17.7-0.9c-5.9-0.2-11.8-0.2-17.8-0.4c-5.4-0.2-10.8-0.6-16.1-0.6c-13.5,0-26.9-0.4-40.4,0.5
		c-8.4,0.6-16.8,0.5-25.3,1.2c-8.2,0.6-16.4,1.3-24.6,2.2c-10.2,1.2-20.3,2.7-30.3,4.6c-2.1,0.4-4.3,0.7-6.3,1.5
		c-2.4,1-4.8,1.3-7.3,1.6c-0.7,0.1-1.3,0.4-2,0.7c0.2,2.5,0.4,4.8,0.6,7.1c0.4,5.2,0.7,10.4,1.4,15.5c1.4,11,2.7,22.1,3.2,33.2
		c0.1,1.4,0.4,2.8,0.7,4.2c0.1,0.4,0.7,0.9,1.1,1c0.7,0.2,1.4,0.2,2.1,0.2c4.2,0,7.1,2.2,8.9,5.9c0.8,1.8,1.5,3.7,2,5.6
		c1.3,5.1,1.9,10.2,1.8,15.5c0,4.7-0.3,9.3-0.6,14c-0.5,8.1-1,16.1-1.5,24.2c0,0.4-0.1,0.7-0.1,1.1c-0.8,9.3-1.6,18.6-1.9,27.9
		c0,0.7,0,1.4,0.1,2.1c0,0.3,0.4,0.5,0.7,0.8c0.4-0.3,0.8-0.6,1.1-1c5.5-9.1,11.9-17.5,18.5-25.8c8.2-10.3,18.5-17.9,30.4-23.4
		c4.4-2.1,9.2-3.3,14-3.6c7.2-0.4,14.4-0.3,21.5,1c1.6,0.3,3.1,0.8,4.6,1.5c1.7,0.7,3.1,1.9,4,3.4c1.4,2.2,1.5,4.4,0,6.5
		c-0.8,1.1-1.9,2.2-3,3c-1.3,1-2.8,1.7-4.1,2.5C389.8,433.7,388.2,434.6,386,435.9z M635.7,249.9c-1-1.5-1.3-3.1-1.6-4.7
		c-0.2-1.1-0.3-2.1-0.5-3.2c-0.3-1.4-1.2-2.2-2.7-2.2c-4.5-0.2-9-0.1-13.4,0.8c-8.3,1.6-16.4,3.8-24,7.6c-7.3,3.7-13.6,8.6-18.8,15
		c-6.4,8-9.4,17.3-10.4,27.3c-0.6,6.3-0.4,12.6-0.1,18.8c0.4,10.6,1.3,21.1,1.1,31.7c-0.2,10.6-0.9,21.2-3.1,31.6
		c-2,9.8-5.2,19-11.4,27.1c-0.4,0.5-0.7,1.2-1.1,2c1.2,0.8,2.2,1.5,3.3,2.1c8.1,4.9,14.9,11.2,20.3,19c5.4,7.8,10.8,15.7,15.3,24.1
		c0.2,0.4,0.7,0.6,1.4,1.1c-0.2-6.7,0.4-12.9,0.9-19.2c0.7-7.9,2.1-15.6,5.4-22.9c1.6-3.6,3.3-7.2,5.2-10.6c1-1.8,1.3-3.6,0.9-5.6
		c-1.4-8.5-2.8-17-4-25.5c-1-7.1-2-14.2-2.7-21.3c-0.6-6.2-1.6-12.5-1.3-18.8c0.2-3.8,0.6-7.5,0.9-11.3c0.8-10,2.2-20,4.4-29.8
		c0.5-2.1,1-4.2,1.9-6.2c3.8-8.8,9.5-16,17.4-21.5c2.4-1.6,5-2.8,7.8-3.6c0.3-0.1,0.7,0,1,0.1c0.4,0.1,0.4,0.9,0,1.4
		c-2.1,2.5-4.1,5-6.2,7.4c-2.3,2.8-4.7,5.4-6.9,8.3c-3.4,4.4-6.2,9.3-7.9,14.6c-2,6.5-3.4,13.2-3.6,20.1c-0.1,4.8-0.2,9.7-0.2,14.5
		c0,8.3,0.8,16.5,1.8,24.7c0.9,6.8,1.8,13.5,2.8,20.3c1.2,8,2.4,16,3.8,23.9c2.3,13.1,5.5,26,8.8,38.8c0.9,3.7,2,7.3,2.9,10.9
		c0.9,3.7,1.5,7.4,2.4,11c2.2,9.8,4.5,19.6,6.7,29.4c0,5.6,2.9,9.7,6.3,13.8c10.8,13,21.2,26.3,30.6,40.3c0.3,0.4,0.6,0.9,0.7,1.2
		c1.5-0.4,1.6-1.3,1.9-2.2c3.6-11.9,8.5-23.3,14.1-34.3c8.1-15.7,17.1-30.7,26.7-45.5c11.8-18.1,24.6-35.4,38.5-51.9
		c1-1.2,2-2.5,3-3.8c0.7-0.9,0.9-2,0.8-3c-0.1-0.9-0.3-1.8-0.6-2.6c-2.1-6.5-3.5-13.2-4.9-19.8c-2.2-10.4-4.2-20.7-6.4-31.1
		c-0.5-2.1-0.1-3.9,1.5-5.4c3.5-3.4,6-7.6,8.6-11.7c1.3-1.9,2.4-4,3.2-6.2c2.5-7.5,0.2-12.2-4.8-15.6c-1.2-0.8-2.4-1.6-3.7-2.2
		c-2.6-1.2-5.3-2.2-7.9-3.4c-2.7-1.3-5.5-1.6-8.4-1.1c-6.1,1.1-12.2,0.7-18.2-0.3c-11.3-1.8-20.6-7.1-27.4-16.5
		c-1.8-2.5-3.3-5.2-4.9-7.7c-1.7-2.7-3.3-5.5-5.1-8.2c-1.8-2.7-4-5.1-6.6-7.1c-2.8-2.2-5.9-3.4-9.4-3.4c-4.5,0-9-0.1-13.4,0.6
		c-2.6,0.4-5.4,0.3-8.1,0.4C637.4,250.3,636.5,250,635.7,249.9z M396.6,1204.1c0.6,0.5,1.3,1.1,2,1.6c2.5,1.8,5,3.5,7.5,5.3
		c8.1,6,16.5,11.4,25.2,16.5c14.1,8.2,28.7,15.6,44.6,19.8c2,0.5,3.5,1.6,4.8,3.2c2,2.5,4.4,4.7,7.2,6.4c2.3,1.5,4.5,3,6.7,4.5
		c3.3,2.3,6.7,4.2,10.6,5.2c6.5,1.7,13.2,1.7,19.8,0.9c6.8-0.8,13.4-2.6,19.8-4.8c5.6-2,11.2-3.7,16.2-7.2c1.5-1,3.2-1.7,4.8-2.5
		c5.6-2.7,11.3-5.5,17-8.1c1.6-0.8,3.3-1.3,5.1-1.8c14.6-3.8,29.1-7.9,43.2-13.2c1.5-0.6,3.1-1.1,4.7-1.2c2.4-0.1,4.6-0.7,6.8-1.3
		c13.3-3.9,26.5-7.7,39.8-11.5c6-1.7,12.1-3.4,18.1-5.2c0.4-0.1,0.7-0.7,1.1-1.1c-0.7-0.5-1.3-1-1.9-1.3c-3.7-2-6.7-4.8-9.2-8.2
		c-1.9-2.6-3.8-5.2-5.3-8.1c-9.8-18.3-15-37.9-16-58.7c-0.1-2.3,0-4.7,0.2-7c0.3-3.7,0.9-7.5,1.2-11.2c0-0.4-0.3-0.9-0.5-1.4
		c-1.8,0-3.3,0.7-4.8,1.2c-12.5,4-24.9,8-37.4,11.9c-19.7,6.2-39.3,12.4-59.1,18.4c-15.6,4.7-31.4,9.1-47,13.7
		c-6.2,1.8-12.4,3.6-18.8,4.6c-3.1,0.5-6,0.4-8.9-0.8c-9.3-3.9-18.6-7.7-27.8-11.6c-23.2-9.9-45.2-21.8-66.6-35.2
		c-1.2-0.8-2.6-1.4-3.5-2.5c-1.8-2.1-4.1-3.5-6.3-5c-4.3-2.9-8.7-5.7-13-8.7c-9.5-6.5-19.8-11.6-30.3-16.2c-3.1-1.4-6.3-2.5-9.7-3
		c-0.5-0.1-1,0.2-1.7,0.3c0.1,1,0,1.9,0.2,2.7c2.2,7.6,6.5,13.9,12,19.5c0.6,0.6,1.5,0.9,2.3,1.1c0.9,0.2,1.8,0.1,2.7,0.2
		c4.5,0.5,8.9,1.2,13,3.2c0.6,0.3,1.2,0.8,1.7,1.2c0.1,0.1,0.1,0.4,0,0.5c0,0.1-0.2,0.3-0.3,0.4c-0.7,0.1-1.4,0.3-2.1,0.3
		c-2.1,0.1-4.3-0.1-6.4,0.3c-4.1,0.7-8.1,1.5-12.2,2c-2.5,0.3-4.9,0.9-7.2,2c-1.3,0.7-1.7,1.9-0.8,3.1c0.6,0.8,1.3,1.7,2.2,2.3
		c1.3,0.9,2.8,1.7,4.3,2.2c5.6,1.9,11.2,3.8,17,4.9c3,0.6,6,1.3,8.7,2.8c1.7,1,3.4,2.1,4.4,3.8c0.2,0.4,0.1,1,0,1.5
		c-0.1,0.2-0.6,0.5-0.9,0.4c-3.7-0.9-7.5-0.7-11.2-0.7c-1.6,0-3.2-0.1-4.8-0.4c-3.8-0.8-7.5-0.1-11.2,0.8c-3,0.8-4.9,2.9-5.8,5.8
		c-0.3,0.9,0.2,2.4,1.1,2.8c1.1,0.5,2.3,1.1,3.5,1.3c2.8,0.5,5.7,0.9,8.5,1.1c3.1,0.3,6,1,8.9,2.1c1.5,0.6,3.1,1,4.6,1.4
		c3.3,1,6.5,1.9,9.8,2.9c1.9,0.6,3.7,1.5,5.1,2.9c0.3,0.3,0.3,0.9,0.4,1.6c-0.8,0.1-1.5,0.3-2.2,0.4c-2,0.2-4,0.1-5.9,0.5
		c-1.6,0.3-3.2,0.3-4.8,0c-3.5-0.7-7.1-0.8-10.7-0.5c-3.3,0.3-6.3,1.3-9.2,2.8c-1.7,0.9-2,2.3-1.1,4.1c0.9,1.8,2.4,3.1,4,4.3
		c4.8,3.9,10.3,6.5,15.7,9.4c1.3,0.7,2.7,0.7,4.2,0.7c2.7-0.1,5.4-0.2,8.1,0c1.6,0.1,3.2,0.5,4.7,0.9c0.6,0.2,1.3,0.7,1.7,1.2
		c0.8,0.8,1,1.9,0.6,3c-0.3,0.9-1.1,1.5-2,1.6c-0.9,0.1-1.8,0.2-2.7,0.1c-3.4-0.2-6.8,0.3-10.1,1c-2.4,0.5-4.9,1.3-7.1,2.4
		c-4.6,2.3-4.9,7.4-0.5,10.3c3.2,2.2,6.6,3.4,10.6,2.8c5.3-0.7,10.7-1.2,16-2.4c0.9-0.2,1.8-0.4,2.6-0.4c1.1,0,2.1,0.5,2.7,1.6
		C397,1201.8,396.8,1202.9,396.6,1204.1z M280.5,308.2c-1.3-1.9-2.9-2.8-4.3-3.8c-1.9-1.3-4-2.5-5.9-3.8
		c-17.1-11.9-36.1-19.9-55.6-26.7c-10.3-3.6-20.9-6.2-31.7-8.2c-7.1-1.3-14.2-1.7-21.4-2.3c-2.7-0.2-5.4,0.2-8,0.3
		c-1.4,0.1-2.9,0.2-4.3,0.3c-10.1,0.3-19.9,2.5-29.7,4.9c-1,0.3-2,0.7-3,1.1c-0.7,0.3-1.3,1.5-1.1,2.3c0.2,0.9,0.4,1.7,0.7,2.6
		c1.5,5,3.1,9.9,4.6,14.9c8,25.1,15.8,50.3,24.6,75.1c6.7,18.8,13.9,37.3,21.3,55.8c7.9,19.6,15.7,39.3,23.5,59
		c2.6,6.7,1.4,5.3,8,7.2c14.4,4.2,27.9,10.2,40.3,18.7c11.1,7.6,21.8,15.7,31.7,24.9c0.6,0.6,1.1,1.4,2.2,1.4
		c0.7-0.5,0.5-1.3,0.4-1.9c-0.9-7.5-1.7-15-2-22.5c0-1.3-0.2-2.5-0.3-3.8c-0.2-3.4-0.4-6.8-0.6-10.2c-0.1-3,0-6.1-0.3-9.1
		c-0.8-8.6-0.6-17.2-0.7-25.8c-0.2-15.6,0.9-31.2,3.1-46.7c1.3-8.9,3.4-17.6,7.2-25.8c1.6-3.5,3.4-6.7,6.2-9.3
		c1-0.9,2.2-1.9,2.5-3.7c-1.6-6-2.8-12.4-3.5-18.8c-0.7-5.7-1.3-11.4-2.1-17.1c-1.1-8-1.9-16-1.9-24.1
		C280.6,311.4,280.5,309.6,280.5,308.2z M300.6,487.5c-0.4-0.6-1-1.1-1.1-1.7c-0.5-1.9-1.1-3.8-1.4-5.7c-0.4-3.6-0.6-7.2-0.8-10.7
		c-0.8-13.8,0.1-27.6,1.1-41.4c0.8-11.3,1.4-22.6,0.7-33.9c-0.2-3-0.8-6-1.3-9c-0.2-1.2-0.7-2.4-1.2-3.6c-0.6-1.6-2.1-1.8-3.5-0.7
		c-2.5,1.9-4.3,4.3-5.6,7.1c-2.3,4.7-4.1,9.6-5.3,14.6c-2,8.2-3.2,16.6-4.1,24.9c-0.6,5.2-1.1,10.4-1.1,15.6
		c-0.2,14.9-0.1,29.8-0.1,44.7c0,3.4,0,6.8,0.3,10.2c0.9,8.4,1.9,16.7,3,25.1c0.3,2.3,0.7,4.6,1,6.9c0.9,6.2,1.7,12.4,3.2,18.6
		c0.5,2.1,0.7,4.2,1,6.4c0.2,1.4,0.3,2.9,0.5,4.3c3.2,16.9,6.2,33.9,9.7,50.7c4.9,23.2,10.1,46.3,15.3,69.4
		c6.2,27.3,12.7,54.5,18.9,81.8c5.5,23.8,11.4,47.4,18.6,70.8c1.2,4,3,7.6,5.8,10.8c1.4,1.6,3,2.5,5,2.9c1.1,0.2,2.1,0.3,3.2,0.3
		c7.9,0.1,15.2-1.9,21.7-6.6c0.8-0.6,1.5-1.4,2-1.9c-0.1-2.6-0.5-4.7-0.3-6.8c0.2-3,0.7-6.1,1.2-9.1c1.6-9.2,2.9-18.4,3.5-27.8
		c0.9-13.8,0.1-27.6-2.6-41.3c-1.8-9.3-3.7-18.6-5.6-28c-0.2-1.2-0.6-2.4-0.9-3.7c-2-7.8-4.1-15.6-5.8-23.5
		c-4.1-18.8-6.9-37.8-9.6-56.8c-1.2-8-2.4-16-3.6-23.9c-1.6-10.5-3.3-20.9-5-31.4c-1-6.2-1.9-12.4-3-18.6c-0.6-3.5-1.4-7-1.3-10.6
		c0-0.7-0.1-1.4-0.2-2.1c-0.5-4.8-1.1-9.6-1.6-14.4c-0.3-2.9-0.6-5.7-0.7-8.6c-0.1-4.7,1.2-8.8,4.5-12.3c1-1.1,2-2,2.9-3.1
		c3.4-4.1,7.7-7,12.5-9.2c5.9-2.7,12-4.8,18.3-6.3c6.3-1.5,12.6-2.9,18.9-4.3c3-0.7,5.8-1.8,8.5-3.2c0.8-0.4,1.5-1,2.2-1.6
		c0.6-0.5,0.8-1.8,0.4-2.5c-0.5-0.7-1-1.5-1.6-2.1c-1.9-1.7-4.3-2.5-6.8-3.1c-5.1-1.2-10.3-1.1-15.5-1c-5.8,0.1-11.4,1.1-16.8,3.4
		c-3.5,1.5-6.9,3.1-10.2,4.8c-3.5,1.7-7,3.7-10.5,5.4c-3.4,1.6-6.9,3-10.4,4.3c-1.5,0.6-3.1,0.8-4.7,1.2c-0.9,0.2-2.3-0.6-2.6-1.5
		c-0.9-2.1-1.2-4.2,0.1-6.2c1.7-2.7,3.5-5.4,5.5-8c2.9-3.7,6.4-6.8,10-9.8c10.6-8.7,22.1-16,34.9-21.1c3-1.2,5.9-2.5,8.9-3.9
		c3.1-1.5,6.1-3.1,8.7-5.4c0.5-0.5,1-1,0.4-2c-6.3-0.8-12.7-0.5-19.1,0.5c-5.2,0.8-10.1,2.6-14.9,4.6c-9.4,4-18.5,8.7-26.8,14.8
		c-6.1,4.5-11.8,9.4-17.3,14.6c-1.3,1.2-2.7,2.4-4.1,3.5c-0.5,0.4-1.3,0.6-2,0.8c-0.3,0.1-0.7-0.1-0.9-0.4c-0.2-0.2-0.4-0.7-0.3-0.9
		c0.5-2.2,1.8-3.9,3-5.6c4.1-5.5,8.4-10.8,13.7-15.2c6.9-5.8,13.9-11.4,20.9-16.9c2.7-2.1,5.6-4,8.5-5.7c5.5-3.3,11.2-6.5,16.8-9.7
		c1.4-0.8,2.8-1.6,4.2-2.4c0.3-0.2,0.6-0.7,0.5-0.9c-0.2-0.4-0.6-1-1-1.1c-1.2-0.3-2.5-0.5-3.7-0.6c-2.5-0.2-5-0.4-7.5-0.6
		c-6.9-0.6-13.6,0.2-20,3c-2,0.9-3.9,1.8-5.8,2.9c-8.9,5.3-16.8,11.6-23.2,19.8c-3.2,4.1-6.3,8.3-9.5,12.4
		c-5.1,6.5-9.6,13.4-13.5,20.7C304.3,483.4,302.8,485.5,300.6,487.5z M548.7,650.2c-0.9,0.9-1.9,1.7-2.6,2.6
		c-6.4,7.7-13,15.4-19.2,23.3c-10.3,13.1-20.4,26.4-30.5,39.7c-21.9,28.7-44.2,57-67.1,84.9c-8.6,10.4-17.2,20.7-25.8,31.1
		c-0.9,1.1-2.2,1.9-2.3,3.5c0.5,1,1.4,1.1,2.2,1.3c4,0.8,8.1,1.5,12.2,2.2c0.5,0.1,1.1,0.1,1.6,0.1c8.5-0.2,16.9,0.7,25.2,1.7
		c8.5,1,17,2.5,25.5,3.9c14.7,2.5,29.2,5.7,43.6,9.4c26.2,6.8,52.4,13.5,78.5,20.9c12.4,3.5,24.9,6.7,37.2,10.8
		c3.7,1.2,7.5,2.4,11.3,3.6c1,0.3,2.1,0.5,3.1,0.7c0.7,0.1,1.5-0.6,1.3-1.3c-0.2-0.9-0.5-1.7-0.8-2.6c-2.1-5.7-4.3-11.4-6.4-17.1
		c-5.7-15.3-10.9-30.8-15.1-46.6c-2-7.6-4.1-15.3-6.1-22.9c-2.3-8.5-4.5-17-6.7-25.5c-0.9-3.3-2.1-6.5-3.5-9.6
		c-6.2-13.1-12.3-26.4-17.6-39.9c-4.8-12.4-9.5-24.8-14.1-37.3c-3.2-8.6-6.6-17.1-8.8-26c-0.3-1.3-1.2-2.1-2.3-2.8
		c-3.8-2.5-7.4-5-11.2-7.5C549.9,650.6,549.4,650.4,548.7,650.2z M985.4,471.7c3-7.7,4.5-14.7,5-21.9c1-13.7-2.6-26.3-10.3-37.7
		c-3.4-4.9-7.5-9.1-12.4-12.5c-8.5-5.8-17.6-10.4-27.4-13.6c-6.5-2.1-13.1-3.9-19.7-5.3c-8.4-1.8-16.8-3.5-25.2-5.4
		c-10.6-2.3-20.7-5.9-30.1-11.4c-5.7-3.3-11.4-6.8-16.7-10.7c-4-3-7.3-6.9-11-10.3c-0.5-0.5-1-1-1.5-1.5c-2.7-2.4-4.7-5.3-6.3-8.6
		c-6.6-13.6-12.5-27.4-18-41.5c-3.6-9.2-7.2-18.4-11.1-27.4c-3.5-8.3-7.5-16.3-12.4-23.9c-5.1-7.9-11-15.1-18.7-20.6
		c-13.7-9.9-28.9-15.8-45.8-17.2c-10-0.9-20.1-0.9-30.1,0.7c-8.9,1.4-17.6,3.6-26,6.7c-4.4,1.6-8.7,3.4-12.5,6.2
		c-8.5,6.1-13.5,14.2-14.2,24.8c-0.1,1.2,0.7,1.9,2,1.9c0.9,0,1.8,0,2.7-0.2c4.4-0.9,8.9-0.6,13.4-0.6c2.7,0,5.3,0.8,7.8,1.8
		c5.8,2.4,10.4,6.4,13.9,11.5c2.4,3.4,4.4,7,6.6,10.5c1.4,2.3,2.7,4.7,4.3,6.8c5.5,7.5,13.1,11.6,22.1,13.1c1,0.2,2.2,0.1,3.2,0
		c3.2-0.4,6.4-1,9.6-1.5c3.7-0.5,7.5-1.1,11.2-1.5c5.5-0.7,11-1.5,16.2-3.6c5.3-2.1,10.8-3.9,16.2-5.8c0.9-0.3,2-1,3-0.3
		c0.2,1.1-0.6,1.6-1.2,2.2c-3.3,2.8-6.8,5.2-10.7,7.3c-3.5,1.8-7.1,3.5-10.6,5.3c-0.5,0.3-1.4,0.4-1.1,1.6c1.1,0.6,2.4,1.2,3.6,2
		c1.8,1.1,3.7,2.2,5.4,3.5c3.4,2.6,5.6,6,6.7,10.2c0.9,3.5,0.9,7.1-0.1,10.6c-2,6.9-5.5,12.8-11,17.5c-0.8,0.7-1.6,1.4-2.2,1.9
		c-0.2,0.7-0.3,1.1-0.3,1.4c0.5,3.9,1.1,7.8,1.7,11.7c0.1,0.5,0.3,1.1,0.6,1.5c0.3,0.4,0.8,0.7,1.3,0.8c0.5,0.1,1.1,0.1,1.6,0
		c5.1-1.1,10.2-1.8,15.4-2.5c7.2-1,14.3-0.8,21.5-0.5c0.5,0,1.1,0.1,1.6,0.2c4.1,1.1,4.4,0.6,5.9,5.3c2.6,7.8,5.1,15.7,7.7,23.5
		c1.8,5.5,3.2,11,4.4,16.6c0.4,2,1.4,2.8,3.4,2.8c5.4-0.1,10.7,0.2,16.1,0.8c6.8,0.8,13.6,1.2,20.4,1.6c6.4,0.4,12.9,0.7,19.3,1.6
		c9.1,1.4,18,3.2,26.6,6.4c17.8,6.5,34.4,15.3,49.9,26.2c9.9,7,18.8,15,26,24.8c2.5,3.5,4.9,7.1,7.3,10.6
		C983.3,468.6,984.1,469.8,985.4,471.7z M718.2,1319.7c-0.5,1.3-1,2.8-1.5,4.4c-1.4,4.4-2.8,8.9-4.1,13.4c-0.7,2.4-0.7,5-0.5,7.5
		c0.2,2.2,1,4.2,2.6,5.8c0.9,0.9,2.5,1,3.5,0.3c0.6-0.4,1.2-0.8,1.6-1.4c1.7-1.8,3.4-3.7,5.1-5.6c1.6-1.7,3-3.6,3.8-5.8
		c0.9-2.7,2.2-5.3,3.1-8c1-3,2.7-5.3,5.3-7.3c5-3.8,10-7.7,14.8-11.7c29.4-24.2,57.2-50.2,83-78.3c5.6-6.1,11.1-12.2,15-19.6
		c1-1.9,2.4-3.6,3.6-5.3c1.3-1.9,2.6-3.9,3.8-5.9c1.8-2.9,2.9-6.2,3.6-9.5c0.8-3.9,0.1-7.5-1.4-11c-0.5-1.1-1.5-1.7-2.6-1.5
		c-0.7,0.1-1.4,0.3-2.1,0.5c-35.7,9.3-71.5,18.7-107.2,27.9c-6.8,1.7-13.4,4-20.5,4.3c-0.7,0-1.4,0.3-2.1,0.3
		c-2.1,0.2-3.7,1.1-5.2,2.5c-3.7,3.4-7.4,6.8-11.3,9.9c-14.9,11.8-29.4,24.2-43.7,36.7c-9.2,8-18.2,16.3-26.7,25.1
		c-4,4.1-8,8.2-11.4,12.9c-1.7,2.3-3.3,4.7-4.3,7.4c-0.6,1.5-0.9,3.1-0.7,4.7c0.1,1.6,0.9,2.7,2.4,3.3c2.5,1.1,5,1.4,7.8,0.5
		c6.3-2,12.5-4.4,18.5-7.3c2.7-1.3,5.5-2.6,8.1-4.2c4-2.4,7.8-5.2,11.7-7.7c1-0.7,2.1-1.5,3.2-1.9c0.8-0.3,1.7-0.3,2.6-0.2
		c0.9,0,1.6,1.2,1.3,2c-0.3,0.7-0.5,1.4-1,1.9c-1.1,1.2-2.3,2.3-3.5,3.3c-3.9,3.2-7.1,7.1-9.7,11.4c-1,1.7-2.2,3.3-3.3,4.9
		c-1.6,2.4-2.9,5-3.5,7.8c-0.8,4,0,5.8,4.7,5.1c0.3,0,0.6-0.3,1.2-0.6c0.3-0.8,0.8-1.8,1.1-2.8c1.8-6.5,5.6-11.5,10.7-15.8
		c1.9-1.6,4-3.1,6.4-4c0.5-0.2,1-0.2,1.6-0.2c0.1,0,0.4,0.1,0.4,0.2c0.1,0.3,0.2,0.7,0.1,0.9c-0.3,0.5-0.6,0.9-1,1.2
		c-5.1,4.6-8.3,10.3-10.4,16.7c-0.7,2.2-1.2,4.5-1,6.9c0.2,1.9,1.3,3.1,3.2,2.8c3.2-0.6,6.3-1.4,9.4-2.3c0.8-0.2,1.5-1,1.9-1.7
		c0.6-0.9,0.8-2,1.3-3c2.1-4.6,4.9-8.8,8.5-12.4c0.5-0.5,1.1-0.8,1.7-1.2c0.1-0.1,0.3-0.1,0.5,0c0.1,0.1,0.3,0.3,0.3,0.4
		c-0.1,0.5-0.2,1.1-0.4,1.5c-1.6,3-2.9,6.2-3.8,9.5c-1.1,4.1-1.2,8.2-0.5,12.3c0.5,3.1,2.4,4.6,5.7,4.4c1.6-0.1,3.2-0.6,4.7-0.9
		c1.9-0.4,3.2-1.3,3.4-3.6c0.1-1.6,0.5-3.2,0.8-4.8c1-4.8,3-9.2,5.8-13.2c0.9-1.3,2-2.6,3.6-3.1
		C716.6,1318.5,717.5,1318.5,718.2,1319.7z M388,709.5c1.4-0.5,2.1-1.8,2.9-2.9c11.1-14.1,22.2-28.2,33.4-42.2
		c6.7-8.4,13.7-16.6,20.6-24.9c15.6-18.8,30.5-38.1,46.7-56.3c2.3-2.5,4.6-5,7.1-7.3c2.4-2.3,4.2-5.3,6.5-7.9c2.6-3,5.3-5.9,7.9-8.8
		c0.7-0.8,1.3-1.7,2-2.7c-6.4-6.8-11.4-14.5-16.4-22.1c-0.1-0.1-0.3-0.2-0.4-0.3c-0.2,0-0.3,0-0.6,0.1c0,1.2,0,2.5,0,3.7
		c0.3,5.7,0.5,11.5,0.8,17.2c0.2,3.5-0.6,6.8-1.2,10.1c-0.2,1.4-1.2,2.3-2.5,2.5c-1.6,0.3-3.2,0.4-4.8,0.4c-9.2,0-18.3,0-27.5-0.1
		c-7.4-0.1-14.7-0.5-22-0.6c-7.2-0.2-14.4-0.2-21.5-0.3c-3.2-0.1-6.5-0.2-9.7-0.3c-4.1-0.2-8.2-0.5-12.4-0.6
		c-7.9-0.3-15.8-0.1-23.7-0.8c-2.7-0.3-5.4-0.1-8.1-0.1c-0.5,0-1,0.3-1.6,0.5c0,0.7-0.1,1.5,0,2.1c0.8,5,1.7,9.9,2.5,14.9
		c1.7,10.3,3.4,20.5,5,30.8c1.3,8.1,2.5,16.3,3.7,24.5c1.2,8.2,2.3,16.3,3.6,24.5c1.3,8.1,2.6,16.3,4,24.4
		c1.2,6.9,2.7,13.7,4.1,20.6C386.8,708.2,386.9,709.1,388,709.5z M453.7,753.5c2.1-1.4,3-3,4.1-4.4c15.1-19.4,30.1-38.9,45.1-58.4
		c12-15.5,24.2-30.8,38.2-44.5c0.6-0.6,1.3-1.3,1.1-2.6c-1-1.1-2.2-2.5-3.4-3.8c-9.1-10.3-16.3-21.8-21-34.8
		c-3.2-8.7-4.8-17.6-3.6-26.9c0.2-1.2,0.2-2.5,0.2-3.8c0-0.3-0.3-0.5-0.6-1c-0.5,0.5-1.1,0.8-1.6,1.3
		c-10.2,11.8-20.6,23.5-30.6,35.5c-14.6,17.5-29,35.2-43.4,52.8c-5.9,7.2-11.9,14.4-17.8,21.7c-0.8,0.9-1.8,1.8-1.7,3.1
		C439.4,704.7,450.4,726.7,453.7,753.5z M718.4,459.3c1.5,1.8,2.8,3.3,4.1,4.7c5.3,5.7,10.9,10.9,16.7,16c4.5,3.9,8.9,7.9,13.3,11.8
		c0.7,0.6,1.2,1.3,2.3,1.3c1.3-0.5,1.6-1.8,2.2-2.8c4.1-7.4,8.2-14.7,12.4-22.1c12.6-22.3,24.7-45,35.6-68.3c1.2-2.6,1.6-5,0.8-7.7
		c-3.1-10.1-6.1-20.3-9.2-30.4c-0.1-0.4-0.6-0.8-1.1-1.4c-0.7,0.8-1.4,1.3-1.9,2c-2.1,2.5-4,5.1-6.1,7.5
		c-11.6,13.5-23.1,27-34.2,40.9c-11.9,14.7-22.9,29.9-33.2,45.7C719.5,457.2,719.1,458,718.4,459.3z M761.1,924.3
		c1.9-1.3,2.8-3.3,3.8-5.1c8.2-14.3,16.6-28.5,25.5-42.5c3.9-6.1,7.6-12.2,11.6-18.1c1.7-2.6,2.4-5.1,1.7-8.1
		c-0.4-1.7-0.4-3.6-0.6-5.3c-1.2-8.8-3.5-17.2-7.5-25.1c-5.7-11.1-14.4-19.1-25.9-23.9c-4.3-1.8-8.9-2.7-13.6-2.7
		c-3.4,0-5.7,1.2-7.2,4.4c-3.7,7.8-7.8,15.4-11.7,23c-0.4,0.8-0.8,1.6-1.2,2.4c-0.6,1.4-0.6,2.8,0.5,4c0.8,0.9,1.7,1.8,2.6,2.7
		c9.2,9.6,16.2,20.5,21.1,32.9c4.8,12,7,24.3,6.1,37.4C765.6,908.5,764.4,916.5,761.1,924.3z M390,721.1c1.8,7.5,3.4,14.5,5.1,21.4
		c3.1,12.6,4.8,25.3,5.2,38.3c0.1,4.5-0.3,8.9-0.5,13.4c-0.4,9.7-1.8,19.3-4,28.7c-0.2,0.7-0.2,1.4-0.3,2.1c1.5-0.1,1.9-1.2,2.5-2
		c15.2-18.6,30.4-37.2,45.5-55.9c0.5-0.6,0.9-1.2,1.4-1.7c1.7-1.7,2-3.6,1.4-5.9c-0.8-3.1-1.4-6.3-2.1-9.4c-1.3-6.1-2.9-12.2-5-18.1
		c-4.9-13.8-13.1-25.4-23.2-35.8c-0.7-0.7-1.6-1.3-2.3-1.8c-0.5,0.1-0.7,0.1-0.8,0.2c-0.6,0.4-1.2,0.8-1.6,1.4
		C404.1,704.2,397.1,712.6,390,721.1z M667.5,543.3c-0.9-1.1-1.5-2-2.2-2.8c-0.8-0.9-2-1.7-2.5-2.8c-2-3.7-4.9-6.6-7.4-9.9
		c-5.3-7.2-10.7-14.4-16.3-21.4c-7.7-9.9-15.6-19.7-22.8-30c-1.9-2.7-3.5-5.4-3-8.9c0.1-0.5,0-1.1-0.1-1.6c-0.9-5.8-0.5-11.4,1.4-17
		c0.8-2.3,0.6-4.5,0-6.8c-2.8-10.9-5.4-21.9-8.2-32.9c-0.3-1.2-0.7-2.4-1-3.6c0-0.1-0.3-0.2-0.4-0.3c-0.1,0-0.4,0-0.4,0.1
		c-0.4,0.8-0.9,1.6-1.2,2.4c-2.7,7.3-3.8,14.9-4.4,22.6c-0.6,8.4-0.8,16.8-0.3,25.3c0.2,3.1,0.8,6,2.7,8.5c1,1.3,1.6,2.8,2.4,4.2
		c1.3,2.4,2.8,4.6,4.7,6.5c1.1,1.1,2.1,2.5,2.9,3.8c9,15.7,15,32.5,16.8,50.6c0.2,1.8,0.6,3.5,1,5.3c0.5,2.1,1.2,4.1,1.9,6.2
		c1.2,3.6,2.4,7.1,3.7,10.7c1.5,3.9,3.9,7.2,6.9,10.1c3.5,3.5,5.1,3.5,8.6,0.2C656.3,556.2,661.7,550,667.5,543.3z M328.7,293.6
		c0.3,0.1,0.7,0.2,1,0.2c7.6-0.9,15.3-2.1,22.9-2.7c8.6-0.7,17.2-1.6,25.8-1.5c1.3,0,2.5-0.1,3.8-0.1c4.8-0.2,9.7-0.5,14.5-0.6
		c8.1-0.1,16.1-0.1,24.2,0c5.4,0.1,10.8,0.4,16.1,0.6c3.2,0.1,6.5,0.2,9.7,0.2c0.7,0,1.4-0.1,2.1-0.2c0.1-0.3,0.3-0.5,0.2-0.6
		c-2.9-7.5-6.9-14.5-10.3-21.8c-0.8-1.7-1.5-3.6-3.2-5.1c-2.9,0.6-5.9,1.2-8.9,1.8c-15.6,3.3-31.1,7.3-46.4,11.5
		c-16.8,4.6-33.3,10-49.3,17C330.1,292.6,329.2,292.8,328.7,293.6z M713.8,468c-0.9,0.5-1.3,0.6-1.5,0.8
		c-7.9,12.6-15.4,25.5-22.2,38.7c-5.1,9.9-9.1,20.2-13.3,30.5c0.6,0.3,1,0.7,1.5,0.8c2.4,0.6,4.9,0.8,7.5,0.9c2.9,0,5.8,0,8.6,0.4
		c6.1,0.9,12.2,0.9,18.2,0.5c1.6-0.1,3.2-0.5,4.8-0.8c1.3-0.3,1.9-1,1.9-2.2c0.1-1.4,0.1-2.9,0.1-4.3c0-5.9-0.8-11.8-1.8-17.6
		c-2.2-13.8-3.8-27.7-3.8-41.7C713.8,472.1,713.8,470.3,713.8,468z M581.1,445.8c-1.1-1.8-1.6-2.8-2.2-3.6c-3.3-4.9-6.7-9.7-10-14.6
		c-6.9-10.5-16.6-17.6-27.8-23c-1.8-0.8-3.7-1.4-5.6-1.8c-4.6-0.9-9.2-1.1-13.9-0.6c-3.1,0.4-5.9,1.5-8.4,3.4
		c-4.2,3.2-7.3,7.4-9.6,12.1c-0.6,1.3-1,2.7-1.2,4.1c-0.6,4.3,1.7,6.6,5.9,5.9c2.1-0.4,4.1-1.2,6.1-1.9c3.4-1.2,6.7-2.6,10-3.8
		c6.1-2.2,12.3-2,18.5-0.1c6.5,2,12.2,5.2,16.8,10.2c2.4,2.6,4.7,5.4,6.9,8C571.2,441.8,575.6,443.6,581.1,445.8z M242.5,274.1
		c-2-1.3-3.4-2.3-4.9-3.2c-4.3-2.6-8.6-5.2-13-7.7c-10.9-6.3-21.8-12.5-33.3-17.5c-5.3-2.3-10.6-4.7-16.2-5.8
		c-5.8-1.2-11.5-2.7-17.3-4.1c-3.5-0.8-6.9-1.9-10.4-2c-0.2,0.2-0.4,0.3-0.5,0.5c-2.2,7-4.3,14-6.4,21c-0.1,0.2,0.4,0.5,0.5,0.8
		c4.1-0.3,8.2-0.6,12.3-0.9c0.4,0,0.7-0.1,1.1-0.1c3.2-0.1,6.5-0.4,9.7-0.2c5.2,0.4,10.4,0.7,15.5,1.5c10.8,1.6,21.5,4,31.9,7.2
		c9.3,2.9,18.3,6.4,27.2,10.1C239.7,273.9,240.6,274.8,242.5,274.1z M562.7,448.9c-1.3-1.4-1.8-2.1-2.4-2.7c-4.4-4-9.5-7.1-14.8-9.7
		c-1.3-0.6-2.7-0.8-4.2-0.9c-11.3-0.5-21.6,2.4-31.3,8.1c-2.8,1.7-5.2,3.8-7.3,6.3c-1.2,1.4-2,3-2.5,4.7c-0.6,2.4,0.8,5.9,3,7
		c3.7,1.9,7.5,2.3,11.4,0.5c1.3-0.6,2.6-1.2,3.9-1.9c2.7-1.3,5.4-2.7,8.2-4.1c3.4-1.6,7-2.7,10.8-3c1.2-0.1,2.5-0.3,3.7-0.7
		C547.9,450.8,554.6,449.3,562.7,448.9z M791.1,355c-4.4,0-8.4-0.3-12.3,0.1c-5.7,0.5-11.4,1.2-17.1,2.1c-6.2,1.1-6.2,0.4-5.3,7.1
		c0.6,5,1.3,9.9,2,14.9c0.3,2,0.7,3.9,1,5.8c0,0.2,0.1,0.3,0.2,0.5c0.2,0.7,1.2,0.9,1.8,0.3c1.4-1.4,2.7-2.9,4-4.3
		c7.9-8.8,15.9-17.5,24.9-25.3C790.7,356.1,790.8,355.7,791.1,355z M246.1,265.8c0.2-0.2,0.4-0.5,0.6-0.7c-0.8-0.7-1.5-1.5-2.3-2.1
		c-10.8-9.1-21.8-18-33.6-25.9c-7.4-5-15.1-9.5-22.8-14.2c-1.3-0.8-2.6-1.9-4.6-1.8c-0.3,0.9-0.7,1.9-0.9,2.9c-0.4,3-0.7,6-0.9,9.1
		c0.8,0.3,1.5,0.6,2.1,0.9c12.1,4,23.6,9.4,34.6,15.8c8.2,4.7,16.4,9.5,24.6,14.3C244,264.6,245,265.2,246.1,265.8z M619.7,460.9
		c-0.9-0.4-1.5-0.1-1.9,0.5c-0.5,0.6-0.4,1.3,0,2c1.1,1.6,2.2,3.2,3.4,4.8c0.1,0.2,0.5,0.1,1.1,0.2
		C621.6,465.7,620.9,463.2,619.7,460.9z M249.6,268l0-0.3l-0.3,0.1L249.6,268z"/>
	<path id="XMLID_2107_" d="M686.2,668.4c0.8,0.2,1.7,0.3,2.5,0.6c2.1,0.7,3.5,2.9,3.3,5c-0.2,2.4-2.1,4.5-4.3,4.9
		c-2.6,0.5-5.6-1-6.7-3.4c-0.9-1.8-0.6-3.5,0.5-5.1C682.5,668.8,684.1,668.3,686.2,668.4z"/>
	<path id="XMLID_2106_" d="M678.3,587.8c-2.8-0.1-4.6-2.3-4.4-5c0.2-2.8,2.5-5,4.9-4.8c2.5,0.2,5,2.7,4.9,4.9
		C683.4,585.7,681.1,587.9,678.3,587.8z"/>
	<path id="XMLID_2105_" d="M636.8,286.5c-0.2,1.3-0.4,2.7-0.7,4.1c-0.3,1.4-0.7,2.8-1.1,4.2c-0.9,3.2-0.8,6.4,0.4,9.5
		c0.6,1.7,1,3.4,1.4,5.1c0.2,0.8-1,1.6-1.9,1.4c-1.1-0.3-1.9-0.9-2.6-1.8c-2.7-3.5-4.4-7.4-3.8-12c0.2-1.6,0.5-3.2,0.9-4.7
		c0.8-3.3,1.7-6.6,2.5-9.9c0.1-0.3,0.3-0.7,0.4-1c0.4-1,2-1.3,2.7-0.5c0.6,0.7,1.1,1.4,1.4,2.2C636.7,284.1,636.7,285.2,636.8,286.5
		z"/>
	<path id="XMLID_2104_" d="M623.9,288.8c-0.3,1.2-0.5,2.3-0.9,3.3c-0.4,1-1.9,1.3-2.6,0.5c-0.2-0.3-0.5-0.5-0.7-0.8
		c-1.5-3.1-2.2-6.3-1.7-9.8c0.1-0.5,0.4-1.1,0.8-1.3c0.5-0.4,1.3-0.8,1.9-0.7c0.6,0.1,1.4,0.7,1.6,1.2
		C622.9,283.7,623.4,286.3,623.9,288.8z"/>
	<path id="XMLID_2103_" d="M659,281.1c0.1,2.4-0.1,3.6-1,4.7c-0.5,0.6-1.8,0.8-2.4,0.2c-0.4-0.4-0.8-0.8-1-1.2
		c-1.1-2.7-1.5-5.5-1.1-8.4c0-0.3,0.1-0.8,0.4-1c0.5-0.5,1.1-1.1,1.7-1.1c0.6-0.1,1.3,0.5,1.8,0.8c0.3,0.2,0.5,0.6,0.5,0.9
		C658.5,278,658.9,280.1,659,281.1z"/>
	<path id="XMLID_2102_" d="M643,320.4c-0.5-0.2-1.1-0.2-1.4-0.6c-0.3-0.3-0.4-0.9-0.4-1.3c0-0.3,0.3-0.6,0.5-0.9
		c2.1-1.7,4.1-3.3,6.2-5c0.3-0.2,0.6-0.3,0.9-0.5c0.8-0.4,1.9-0.2,2.4,0.4c0.6,0.8,0.7,1.7,0.3,2.5
		C649.7,318.4,646.9,320.3,643,320.4z"/>
	<path id="XMLID_2101_" d="M536.8,1210.4c0.9,1.2,0.7,2.4,0.3,3.6c-1,3-2.9,5.4-5.6,7c-8.5,5.1-17.4,6.5-26.7,2.2
		c-2.6-1.2-5-2.7-7.4-4.3c-1.8-1.2-3.2-2.9-3.9-5c-0.3-1.1-0.2-2.1,0.4-3.1c0.7-1.1,2.4-1.3,3.3-0.4c0.2,0.3,0.5,0.5,0.7,0.8
		c1.8,3.2,4.8,4.7,8.2,5.6c2.3,0.6,4.5,1.2,6.8,1.5c5,0.5,9.6-0.5,14-3c2-1.2,4-2.5,6-3.7C534.1,1211,535.2,1210.1,536.8,1210.4z"/>
</g>
<g id="XMLID_2097_">
	<path id="XMLID_2151_" class="st0" d="M641.5,1111.9c0,0,2-0.7,5.7-2c3.7-1.3,9.2-3.3,16.1-5.7c7-2.4,15.4-5.4,25.1-8.7
		c9.7-3.4,20.6-7.2,32.6-11.2c12-4.1,24.9-8.4,38.7-13.1c13.7-4.6,28.2-9.4,43.2-14.4c15-4.9,30.5-10.1,46.3-15.2
		c15.8-5.1,31.8-10.3,47.8-15.5c16-5.1,32.1-10.3,47.9-15.3c15.8-5.1,31.4-9.9,46.4-14.7c15.1-4.7,29.7-9.2,43.5-13.5
		c13.8-4.3,26.9-8.3,39-12c12.1-3.7,23.2-7,33-9.9c9.8-2.9,18.4-5.5,25.5-7.6c7.1-2.1,12.6-3.7,16.4-4.8c3.8-1.1,5.8-1.7,5.8-1.7
		s-2,0.7-5.7,2c-3.7,1.3-9.2,3.3-16.1,5.7c-7,2.4-15.4,5.4-25.1,8.7c-9.7,3.4-20.6,7.2-32.6,11.2c-12,4.1-24.9,8.5-38.7,13.1
		c-13.7,4.6-28.2,9.4-43.2,14.4c-15,4.9-30.5,10.1-46.3,15.2c-15.8,5.1-31.8,10.3-47.8,15.5c-16,5.1-32.1,10.3-47.9,15.3
		c-15.8,5.1-31.4,9.9-46.4,14.7c-15.1,4.7-29.7,9.2-43.5,13.5c-13.8,4.2-26.9,8.3-39,12c-12.1,3.7-23.2,7-33,9.9
		c-9.8,2.9-18.4,5.5-25.5,7.6c-7.1,2.1-12.6,3.7-16.4,4.8C643.6,1111.3,641.5,1111.9,641.5,1111.9z"/>
</g>
<g id="XMLID_2094_">
	<path id="XMLID_2146_" class="st0" d="M856.9,1180.2c0,0,1.3-0.5,3.7-1.4c2.4-0.9,6-2.2,10.5-3.9c9.1-3.3,22-8.1,37.6-13.6
		c7.8-2.8,16.2-5.8,25.2-8.8c9-3.1,18.4-6.4,28.2-9.7c9.8-3.3,19.9-6.8,30.2-10.2c10.3-3.4,20.8-6.9,31.3-10.3
		c10.5-3.4,21-6.8,31.3-10.1c10.3-3.4,20.5-6.5,30.4-9.6c9.9-3.1,19.4-6,28.5-8.8c9.1-2.8,17.6-5.4,25.6-7.7
		c15.9-4.7,29.1-8.5,38.4-11.2c4.7-1.3,8.3-2.3,10.8-3c2.5-0.7,3.8-1.1,3.8-1.1s-1.3,0.5-3.7,1.4c-2.4,0.9-6,2.2-10.5,3.9
		c-9.1,3.3-22,8.1-37.6,13.6c-7.8,2.8-16.2,5.8-25.2,8.8c-9,3.1-18.4,6.4-28.2,9.7c-9.8,3.3-19.9,6.8-30.2,10.1
		c-10.3,3.4-20.8,6.9-31.3,10.3c-10.5,3.4-21,6.8-31.3,10.1c-10.3,3.3-20.5,6.5-30.4,9.6c-9.9,3.1-19.4,6-28.5,8.8
		c-9.1,2.8-17.6,5.4-25.6,7.7c-15.9,4.7-29.1,8.5-38.4,11.2c-4.7,1.3-8.3,2.3-10.8,3C858.2,1179.8,856.9,1180.2,856.9,1180.2z"/>
</g>
<g id="XMLID_2091_">
	<polygon id="XMLID_2143_" class="st0" points="1075.5,1106.3 1166.1,1109 1075.5,1111.7 	"/>
</g>
<g id="XMLID_2088_">
	<polygon id="XMLID_2098_" class="st0" points="376,897.8 711.6,1087.3 708.3,1093.2 	"/>
</g>
<g id="XMLID_2085_">
	<polygon id="XMLID_2095_" class="st0" points="446.5,894.7 470.4,949.8 465.4,951.7 	"/>
</g>
<g id="XMLID_2082_">
	<path id="XMLID_2092_" class="st0" d="M675.5,210.5c0,0,0.4,1.6,1.2,4.6c0.8,3,2.3,7.2,4.7,12.4c2.6,5.1,6.1,11.1,11.3,17.2
		c5.1,6,11.8,12.1,20.1,17.2c1,0.7,2.1,1.2,3.2,1.8c1.1,0.6,2.2,1.2,3.3,1.8c2.3,1,4.6,2.2,7.1,3c4.9,1.9,10.2,3.1,15.6,4
		c5.5,0.7,11.3,0.9,17.2,1.2c5.9,0.3,12.1,0.8,18.3,2.2c6.2,1.5,12.3,4,17.7,7.7c2.7,1.8,5.3,4,7.6,6.4c2.3,2.4,4.2,5.1,6,8.1
		c3.4,5.8,5.7,12.2,7.4,18.5c1.8,6.4,3.1,12.9,4.7,19.1c1.6,6.3,3.6,12.4,6.4,18.1c2.8,5.6,6.7,10.7,11.7,14.3
		c0.6,0.4,1.2,0.9,1.9,1.3l1.9,1.1c0.7,0.3,1.5,0.7,2.2,1c0.7,0.3,1.4,0.5,2.1,0.8c2.9,1,5.9,1.5,9,1.9c6.1,0.8,12.5,1,18.7,2
		c12.5,2.1,23.7,6.7,34,11.3c10.3,4.6,20,9.3,28.4,14.7c8.4,5.4,15.3,11.5,20.3,18c5,6.4,8,12.9,9.8,18.4c1.7,5.5,2,10.1,2,13.2
		c0,1.5-0.1,2.7-0.2,3.5c-0.1,0.8-0.1,1.2-0.1,1.2s0-0.4,0.1-1.2c0-0.8,0.1-2,0-3.5c-0.1-3.1-0.7-7.6-2.5-13
		c-1.9-5.4-5.1-11.6-10.2-17.7c-5-6.1-12-11.9-20.3-17c-8.3-5.1-18-9.5-28.4-13.9c-10.3-4.3-21.5-8.6-33.4-10.5
		c-6-1-12.2-1.1-18.6-1.9c-3.2-0.4-6.5-1-9.7-2c-0.8-0.2-1.6-0.5-2.4-0.9c-0.8-0.3-1.5-0.7-2.3-1l-2.3-1.3c-0.8-0.4-1.4-0.9-2.2-1.4
		c-5.6-4-9.9-9.6-13-15.6c-3.1-6-5.3-12.4-6.9-18.9c-1.6-6.5-2.8-12.9-4.5-19.1c-1.7-6.2-3.7-12.3-6.9-17.7
		c-1.5-2.6-3.4-5.2-5.5-7.4c-2.1-2.2-4.4-4.2-6.9-6c-5-3.5-10.7-5.9-16.5-7.3c-11.7-2.8-23.7-2.1-35.1-3.9c-5.7-1-11.1-2.3-16.1-4.4
		c-2.6-0.9-4.9-2.2-7.3-3.3c-1.2-0.6-2.3-1.3-3.4-1.9c-1.1-0.7-2.2-1.2-3.2-1.9c-8.4-5.4-15-11.9-20.1-18.2
		c-5-6.3-8.4-12.5-10.8-17.8c-2.2-5.3-3.5-9.7-4.2-12.7C675.9,212.1,675.5,210.5,675.5,210.5z"/>
</g>
<g id="XMLID_2079_">
	<path id="XMLID_2089_" class="st0" d="M581.6,438.8c0,0-0.4-0.8-1-2.4c-0.7-1.6-1.7-3.9-2.8-6.8c-1.1-3-2.4-6.6-3.6-10.9
		c-1.1-4.3-2.1-9.3-2-14.9c0.1-5.5,1.1-11.7,4-17.6c0.4-0.7,0.8-1.5,1.2-2.2l0.3-0.5l0.1-0.1l0.1-0.2l0.2-0.2l0.7-1
		c1-1.4,2.1-2.7,3.2-3.9c2.2-2.5,4.6-4.9,6.7-7.4c2.1-2.5,3.9-5.3,4.8-8.3l0.1-0.3l0-0.1c0-0.1,0,0.1,0,0l0-0.2l0.1-0.6l0.3-1.3
		c0-0.8,0.2-1.5,0.2-2.3c0-0.8,0-1.6-0.1-2.4c-0.1-0.8-0.2-1.6-0.4-2.4c-0.7-3.2-2.2-6.4-3.8-9.4c-1.7-3.1-3.7-6-5.7-9
		c-4.1-6-8.1-12.5-10.6-19.3c-2.7-6.8-4-14.2-3.4-21.4c0.3-3.6,1.2-7,2.7-10.2l0.5-1.2c0.2-0.5,0.4-0.7,0.6-1.1
		c0.4-0.7,0.8-1.4,1.3-2.1c0.9-1.4,2-2.7,3-3.9c4.3-4.9,9.3-8.3,14-11.2c4.7-2.9,9.1-5.2,12.9-7.4c3.9-2.1,7.2-4,10-5.6
		c2.8-1.6,5-2.7,6.5-3.5c1.5-0.8,2.3-1.2,2.3-1.2s-0.8,0.5-2.2,1.4c-1.4,0.9-3.5,2.3-6.2,4c-2.7,1.7-5.9,3.8-9.6,6.2
		c-3.7,2.4-8,5-12.5,8c-4.5,3-9.2,6.5-13,11.2c-0.9,1.2-1.8,2.4-2.6,3.7c-0.4,0.6-0.8,1.3-1.1,2c-0.2,0.3-0.4,0.8-0.5,1l-0.4,1.1
		c-1.2,2.9-2,5.9-2.2,9.2c-0.2,3.2,0,6.5,0.6,9.8c0.6,3.3,1.6,6.6,2.9,9.8c1.3,3.2,2.8,6.4,4.5,9.5c1.7,3,3.7,6,5.8,9
		c2,3,4.1,6.1,5.9,9.4c1.8,3.3,3.4,6.7,4.2,10.5c0.2,0.9,0.4,1.9,0.4,2.9c0.1,1,0.1,1.9,0.1,2.9c0,1-0.2,2-0.3,3l-0.3,1.3l-0.2,0.6
		l0,0.2c0,0-0.1,0.3-0.1,0.2l0,0.1l-0.1,0.3c-1.2,3.7-3.4,6.8-5.7,9.4c-2.3,2.7-4.7,5-6.9,7.3c-1.1,1.2-2.1,2.4-3.1,3.5l-0.7,1
		l-0.2,0.2c0,0-0.1,0.1-0.1,0.1l-0.1,0.1l-0.3,0.5c-0.4,0.6-0.8,1.3-1.2,1.9c-2.9,5.2-4.1,11-4.4,16.2c-0.3,5.3,0.4,10.2,1.2,14.5
		c0.9,4.3,1.9,8,2.8,11C580.5,435.3,581.6,438.8,581.6,438.8z"/>
</g>
<g id="XMLID_2076_">
	<path id="XMLID_2086_" class="st0" d="M699.3,205.5c0,0,0.1,0.4,0.2,1.2c0.2,0.8,0.3,2,0.7,3.4c0.2,0.7,0.4,1.5,0.7,2.3
		c0.3,0.8,0.6,1.7,1,2.7c0.4,0.9,0.9,1.9,1.4,3c0.6,1,1.1,2.1,1.8,3.1c1.4,2.1,3,4.3,4.9,6.4c1.9,2.1,4.1,4.1,6.6,6.1
		c2.4,2,5.2,3.6,8,5.3c2.8,1.6,5.9,2.9,9,4c3.3,1.1,6.4,2,9.6,2.6c3.2,0.6,6.4,1.2,9.6,1.5c3.1,0.3,6.2,0.6,9.1,0.7
		c2.9,0.1,5.7,0.2,8.2,0.2c10.3-0.1,17.2-0.1,17.2-0.1s-1.7,0.3-4.7,0.8c-1.5,0.2-3.3,0.5-5.4,0.8c-2.1,0.3-4.4,0.6-7,0.8
		c-5.2,0.5-11.2,0.7-17.8,0.4c-3.3-0.2-6.6-0.6-10-1.2c-3.4-0.7-6.9-1.6-10.1-2.6c-3.4-1.2-6.6-2.7-9.7-4.4c-3-1.8-5.8-3.8-8.3-5.9
		c-2.5-2.2-4.8-4.5-6.6-6.9c-1.9-2.4-3.4-4.9-4.6-7.2c-0.6-1.2-1.1-2.4-1.5-3.5c-0.4-1.1-0.7-2.2-1.1-3.2c-0.2-1-0.5-2-0.7-2.9
		c-0.2-0.9-0.2-1.8-0.3-2.5c-0.2-1.5-0.1-2.7-0.2-3.5C699.3,205.9,699.3,205.5,699.3,205.5z"/>
</g>
</svg>
