<?xml version="1.0" encoding="utf-8"?>
<!-- Generator: Adobe Illustrator 22.1.0, SVG Export Plug-In . SVG Version: 6.00 Build 0)  -->
<svg version="1.1" id="Layer_6" xmlns="http://www.w3.org/2000/svg" xmlns:xlink="http://www.w3.org/1999/xlink" x="0px" y="0px"
	 viewBox="0 0 1527.1 1502.4" style="enable-background:new 0 0 1527.1 1502.4;" xml:space="preserve">
<style type="text/css">
	.st0{fill:none;stroke:#000000;stroke-width:11;stroke-miterlimit:10;}
	.st1{fill:#FFFFFF;}
	.st2{fill:#E84B6C;}
	.st3{fill:none;stroke:#FFFFFF;stroke-width:3;stroke-miterlimit:10;}
	.st4{fill:none;stroke:#FFFFFF;stroke-width:2;stroke-miterlimit:10;}
</style>
<line id="XMLID_1358_" class="st0" x1="17" y1="1273.7" x2="1509.9" y2="1284.7"/>
<polygon id="XMLID_1357_" class="st1" points="1147.6,841.4 1215.2,857.2 1232.9,853.2 1234.5,877.5 1229.4,914 1212.1,985.3 
	1204.8,1017.9 1209.3,1048.7 1208.5,1105.7 1205.8,1145.1 1197.1,1193.6 1215.5,1216.8 1221.8,1246.7 1219.6,1262.8 1106.5,1275.9 
	1033.2,1276 1043,1265.1 1083.5,1250.5 1111.4,1234.1 1133.9,1224.3 1133.9,1178.9 1142.8,1029.7 1133.9,1017.8 1128,1000.1 
	1142.8,975.8 1147.6,962.9 "/>
<path id="XMLID_1356_" class="st1" d="M1284.5,845.2l26.2,103.1l-11.1,24.7l6.2,26.4l15.6,10.7l36,210l-97.5,35.1l-8.9,11.1l-10.5,5
	l16.9,4.4l170.6-3.3l6.1-25.7l-12.4-45.8l2.6-53.8l-11.2-51.1l-19.1-38.6l-5.6-39.6c-7.2-16.8-4.9-39.5,0.1-63.9l-9.9-84l-6.2-32.8
	L1284.5,845.2z"/>
<polygon id="XMLID_1355_" class="st1" points="1132.1,834.9 1133.2,844.2 1124.1,840.5 1110.7,839.6 1098.1,837.1 1084.5,814.1 
	1089.8,773.9 1104.5,747.5 1098.1,627.4 1076,541.4 1118.7,549.5 1147.6,571.2 1153.1,638.7 1142.8,662.1 1124.7,724.4 
	1116.9,770.6 1108.6,814.2 "/>
<polygon id="XMLID_1354_" class="st1" points="1292.4,490.4 1259.9,533.2 1199.9,555.5 1125.7,560.3 1056.8,572.6 1027.9,597.5 
	1004.8,627.4 1000.1,662.1 1010.7,683.9 1027.6,698.4 1037.1,692.6 1037.5,681 1046,672.9 1056.8,681 1067.9,680 1072.4,671.6 
	1083,672.9 1089.8,666.1 1086.8,654.3 1067.9,642.7 1089.8,630.6 1107.7,627.4 1169.9,622.3 1247,611.1 1317.8,567.9 1336.7,519.2 
	"/>
<path id="XMLID_1353_" class="st1" d="M1144,364.1l-11.6-45.5l-3.2-3.6h-27.1l-39.8-2.5l-26.3-10.7l-5.6-12.9l6.6-10.9l30.9-2.2
	h52.1l-0.3-13.5l18.5-24.1l18.8-9.3h22.9l24.3,9.5l13.8,20.9v11.8l43.4-6.2l23.7,1.3l12.2,6.7l-1.7,10.3l-8.8,7.4l-20.5,3.3l-29,4.3
	l-2.5,7.9l-13.2,9.6v7.4l8,12.8l0.7,14.6c0,0-16.7,26-20.6,26.7c-3.9,0.6-49.1,6.8-49.1,6.8L1144,364.1z"/>
<polygon id="XMLID_1352_" class="st1" points="803.8,1145.1 769.2,1125.1 719.6,1076 678.2,1026.2 639.6,956.5 668.9,916.7 
	725.1,1000.8 782.6,1068.2 826.2,1107 832.9,1117.8 814.6,1136.3 "/>
<polygon id="XMLID_1351_" class="st1" points="649.2,1112 619.4,1076 590.5,1022.5 581,966.3 563,974 537.7,1002 543.9,1048.7 
	553.5,1068.8 "/>
<polygon id="XMLID_1350_" class="st1" points="497.1,1058.2 524.5,1017.8 567.7,974 586.6,959.2 598.2,966.3 609,985.3 623.3,975.8 
	668.9,921 657.1,893.5 618.5,845.2 586.6,822.6 583.6,815.5 586.6,799.1 596.1,793.9 586.6,769.2 537.7,755.6 517.6,775.3 
	531.6,809.3 480,827.4 436.7,866.4 388.9,915.2 360.2,960.1 329.8,1021.5 484.7,1067.6 "/>
<path id="XMLID_1349_" class="st1" d="M307.4,1071.5c-0.1,0.5,46.9,10.2,46.9,10.2l-20.3,68.6l-19.2-28.6L307.4,1071.5z"/>
<polygon id="XMLID_1348_" class="st1" points="312.2,1271.1 310.9,1238.7 311,1213.4 318.5,1196.1 294.2,1194.1 294.2,1178.9 
	287.8,1175 271.5,1178.9 271.5,1088.6 280.9,1076 280.9,1067.6 280.9,1061.7 271.5,1058.2 260.4,1061.7 254.2,1067.6 220.3,1058.2 
	188.1,1058.2 160.3,1061.7 144.9,1065.1 138.2,1059 125.7,1061.7 117.8,1064.3 115.6,1075.4 122.7,1079.9 133.7,1084.3 135,1100.3 
	127.6,1247.2 95.4,1264.4 97.9,1271.1 207.3,1275.1 "/>
<polygon id="XMLID_1347_" class="st1" points="975.6,703.2 1058.8,710.4 1056.8,785.2 1044.5,793.2 1000,789.6 976.9,832.2 "/>
<polygon id="XMLID_1346_" class="st1" points="957.6,969.2 950.3,940.4 945.8,930.7 936.5,937.3 938.9,948.3 953.8,969.2 "/>
<polyline id="XMLID_1345_" class="st1" points="960.8,1121.7 975.6,1087.4 999.9,1060.3 1025.2,1047 1065,1052.4 1078.6,1056.4 
	1069.8,1084.3 1055.1,1115 1019.7,1133.7 992.1,1140.5 957.6,1121.7 "/>
<path id="XMLID_1344_" d="M1105.4,552.5l-34.6-13l-2.8-27.7l-5.7-58.3l35.9-60l49.4-22.8h30.9h21.5l30.4-20l5.5-14.6h28.8l72,19.2
	l40.9,19.1l19.4,46.8l-4.2,37.9c-1.1,20.7-10.7,36.9-30.3,47.8l-8.4,16.9c-21-10.7-41.7-23.7-61.6-43.3l-6.7,7.1
	c1.7,9.8-2.1,16.1-10.8,19.1l-8.3,15.6l-16.8,6.8l-19.6,14.1l-39,9.4l-43.2,2.8l-16.5,7.2L1105.4,552.5z"/>
<polygon id="XMLID_1343_" points="1147.6,621.4 1153.1,647.3 1194.6,657.4 1229.6,657.4 1284.5,654.3 1332.9,637.3 1351.5,634.9 
	1356.1,579.4 1351.7,542.3 1347.2,515.5 1336.7,529.2 1327.6,555.5 1304.8,573.6 1284.5,591.5 1259.9,603.3 1219.1,615.7 
	1163.9,623.1 "/>
<polygon id="XMLID_1342_" points="960.8,1000.8 970.9,981.9 983.8,962.9 1008.5,953.9 1036.1,953.9 1039,958.8 1025.2,986.8 
	995,1006.6 "/>
<polygon id="XMLID_1341_" points="950.3,1033.9 926.3,1013.2 879.6,995.3 844.6,997.1 809.6,1014.5 794.3,1028 814.6,1052.4 
	847.8,1073.8 879.6,1079.2 903.7,1078.9 934.6,1060.3 "/>
<path id="XMLID_1340_" d="M598.2,769.7c2.2-8.5,0.7-16.6-6.6-24.1L576.2,727l-27.5-4.9l-29.4,9.9l-26,19.8L476.1,778l-19.2,37.5
	l-36.5,29.8l-54.4,32.2L321,905.6l-26,31.6l17.5,34.2l18.1-12.7l-6.6,20.5l22.2,16l13.9-21.3l-2.2-14.7l3.7-11l48.2-58.6l24.1-21
	l35.8-30.3l32.1-22.8l29.6-7.4l2.6-12c-7.4-1.3-12.5-6.4-13.9-18l13.9-9.1l14.5-1.6L598.2,769.7z"/>
<polygon id="XMLID_1339_" class="st2" points="320.7,1021.5 424,1048.7 482.4,1072.9 490.7,1063 494.8,1063 502,1056.8 622.9,1097 
	700.7,1141.5 738.1,1175 743.7,1187.5 765.9,1219.7 769.2,1234.1 765.9,1247.2 752.7,1258.8 746.1,1271.1 714.3,1283.8 641.1,1288 
	320.7,1275.5 311.7,1264.4 310.9,1229.8 318.5,1205.6 323.7,1196.1 323.7,1186.6 383.6,1188.3 336.4,1161.5 336.4,1151.4 
	352.3,1084.5 306.2,1076 "/>
<polygon id="XMLID_1338_" class="st2" points="1153.1,647.3 1122.9,741.7 1107.7,823.8 1155.1,845.2 1177.9,857.9 1238.7,855.5 
	1250.5,734.5 1273.4,846.5 1304.8,855.5 1333.6,853.9 1366.5,845.2 1393.9,832.6 1370.1,681 1350.9,642.7 1304.8,647.3 
	1212.5,659.5 "/>
<polygon id="XMLID_1337_" points="1083.5,1252.1 1111.1,1240.6 1120.2,1252.1 1123.9,1271.2 1100,1277.7 1086.9,1267.8 "/>
<polygon id="XMLID_1336_" points="1300.2,1241.4 1335.2,1229.9 1346.3,1241.4 1352.9,1272.4 1310.3,1277.7 1310.3,1267 
	1301.9,1244.5 "/>
<polygon id="XMLID_1335_" class="st2" points="835.5,1096.1 832.9,1117.8 814.6,1148.7 794.3,1142 785.7,1163.7 814.6,1188.6 
	887.8,1226.4 936.5,1238.1 994.7,1234.1 1025.2,1213.5 1043,1184.2 1025.2,1178.9 989,1178.9 970.9,1179.7 995,1167.1 
	1000.6,1153.9 980,1155.6 945.8,1164.4 883.7,1133.7 841.7,1105.7 "/>
<circle id="XMLID_1334_" class="st2" cx="515" cy="898.3" r="4.8"/>
<circle id="XMLID_1333_" class="st2" cx="553.5" cy="869.8" r="4.8"/>
<circle id="XMLID_1332_" class="st2" cx="524.5" cy="857.8" r="4.8"/>
<circle id="XMLID_1331_" class="st2" cx="553.5" cy="832.2" r="4.8"/>
<circle id="XMLID_1330_" class="st2" cx="522.3" cy="827.4" r="4.8"/>
<circle id="XMLID_1329_" class="st2" cx="489.4" cy="857.8" r="4.8"/>
<circle id="XMLID_1328_" class="st2" cx="494.2" cy="827.4" r="4.8"/>
<circle id="XMLID_1327_" class="st2" cx="456.9" cy="874.6" r="4.8"/>
<circle id="XMLID_1326_" class="st2" cx="466.5" cy="916.2" r="4.8"/>
<circle id="XMLID_1325_" class="st2" cx="484.7" cy="890.9" r="4.8"/>
<circle id="XMLID_1324_" class="st2" cx="510.3" cy="930.6" r="4.8"/>
<circle id="XMLID_1323_" class="st2" cx="548.7" cy="925.8" r="4.8"/>
<circle id="XMLID_1322_" class="st2" cx="591.4" cy="890.9" r="4.8"/>
<circle id="XMLID_1321_" class="st2" cx="586.6" cy="858.7" r="4.8"/>
<circle id="XMLID_1320_" class="st2" cx="585.7" cy="832.2" r="4.8"/>
<circle id="XMLID_1319_" class="st2" cx="618.5" cy="858.7" r="4.8"/>
<circle id="XMLID_1318_" class="st2" cx="623.3" cy="890.9" r="4.8"/>
<circle id="XMLID_1317_" class="st2" cx="609" cy="916.2" r="4.8"/>
<circle id="XMLID_1316_" class="st2" cx="585.7" cy="925.8" r="4.8"/>
<circle id="XMLID_1315_" class="st2" cx="609" cy="945.9" r="4.8"/>
<circle id="XMLID_1314_" class="st2" cx="639.6" cy="930.6" r="4.8"/>
<circle id="XMLID_1313_" class="st2" cx="609" cy="980.6" r="4.8"/>
<circle id="XMLID_1312_" class="st2" cx="563" cy="962.9" r="4.8"/>
<circle id="XMLID_1311_" class="st2" cx="522.3" cy="1000.8" r="4.8"/>
<circle id="XMLID_1310_" class="st2" cx="492.4" cy="971" r="4.8"/>
<circle id="XMLID_1309_" class="st2" cx="529.2" cy="955.4" r="4.8"/>
<circle id="XMLID_1308_" class="st2" cx="456.9" cy="962.9" r="4.8"/>
<circle id="XMLID_1307_" class="st2" cx="436.7" cy="903" r="4.8"/>
<circle id="XMLID_1306_" class="st2" cx="425.2" cy="941.1" r="4.8"/>
<circle id="XMLID_1305_" class="st2" cx="403.8" cy="907.8" r="4.8"/>
<circle id="XMLID_1304_" class="st2" cx="393.7" cy="943.6" r="4.8"/>
<circle id="XMLID_1303_" class="st2" cx="367.1" cy="958.2" r="4.8"/>
<circle id="XMLID_1302_" class="st2" cx="384.1" cy="988.7" r="4.8"/>
<circle id="XMLID_1301_" class="st2" cx="415.7" cy="974" r="4.8"/>
<ellipse id="XMLID_1300_" transform="matrix(0.9239 -0.3827 0.3827 0.9239 -358.2566 235.6882)" class="st2" cx="413.3" cy="1018.4" rx="4.8" ry="4.8"/>
<circle id="XMLID_1299_" class="st2" cx="439.2" cy="995.3" r="4.8"/>
<circle id="XMLID_1298_" class="st2" cx="452.2" cy="1039.8" r="4.8"/>
<circle id="XMLID_1297_" class="st2" cx="473" cy="1006.6" r="4.8"/>
<circle id="XMLID_1296_" class="st2" cx="484.7" cy="1053.5" r="4.8"/>
<circle id="XMLID_1295_" class="st2" cx="501.9" cy="1027.9" r="4.8"/>
<circle id="XMLID_1294_" class="st2" cx="649.2" cy="903" r="4.8"/>
<polygon id="XMLID_1293_" points="1142.8,845.2 1143.2,887.8 1238.7,857.9 1197.2,861.8 1155.2,853.9 "/>
<polygon id="XMLID_1292_" points="1288.1,857.9 1295.1,890.2 1378.6,845.2 1366.5,845.2 1333.6,853.9 "/>
<polyline id="XMLID_1291_" points="794.3,1138.3 790.6,1156.2 788.5,1170.5 801.3,1170.5 815.5,1147.3 831.7,1110.5 "/>
<polygon id="XMLID_1290_" points="360.2,974 348.6,991.8 444,1053.5 441.4,1042.9 403.8,1017.2 373.2,990.5 "/>
<g id="XMLID_1201_">
	<path id="XMLID_1264_" d="M324.6,965.2c-1.5,1.8-3.1,3.6-4.6,5.3c-1.1,1.3-1.8,3.1-4.1,3.7c-1-0.8-2.3-1.8-3.3-2.8
		c-7.4-7.3-13.2-15.8-18.9-24.3c-0.7-1.1-1.1-2.5-1.6-3.8c-1.5-3.4-0.9-6.3,1.2-9.4c7.8-11.6,17-21.8,27.5-30.9
		c15.9-13.8,33.1-25.6,51.8-35.4c14.7-7.7,29.1-15.9,43.1-24.9c9.6-6.2,19-12.8,27.5-20.6c3.5-3.2,6.8-6.6,10.1-10.1
		c3.7-3.9,6.3-8.5,8.6-13.4c4.3-9.1,9.3-17.9,13.7-26.9c3.5-7.2,8.1-13.6,13-19.8c2.2-2.8,4.8-5.3,7.4-7.6
		c4.1-3.7,8.3-7.3,12.8-10.6c17.1-12.8,36.3-17,57.2-12.7c8.5,1.7,15.9,5.4,21.8,12.3c6.1,7.2,10.7,15.1,14,23.9
		c1.4,3.7,2.1,7.6,1.8,11.6c-0.2,2.8-1.1,3.9-3.8,4.6c-1.1,0.3-2.3,0.5-3.5,0.7c-1.1,0.2-2.3,0.5-3.7,0.8c0.5,1.3,0.9,2.4,1.3,3.5
		c0.9,2.6,1.9,5.2,2.7,7.8c1.1,4.2,0.8,8.2-2.6,11.5c-1.2,1.1-2.1,2.5-1.8,4.2c0.7,5.1-0.8,9.8-3,14.3c-0.2,0.3-0.2,0.8-0.3,1.5
		c0.8,0.6,1.6,1.5,2.6,1.9c23.7,11.2,40.6,29.7,55.3,50.7c7.3,10.4,13.1,21.6,18.4,33.1c1.1,2.3,2.6,4.4,3.9,6.6c0.6,1,1.3,2,1.9,3
		c7.4,13.8,16.2,26.7,25,39.6c10.7,15.5,21.4,30.9,32.2,46.2c13.3,18.8,28,36.3,43.6,53.1c8.9,9.5,18.6,18.3,28.2,27.2
		c6.2,5.8,12.8,11.1,19.3,16.6c0.9,0.8,1.9,1.3,3,2.1c2.1-0.8,4-1.7,6-2.4c2.6-0.9,5-0.7,7.4,0.8c1.3,0.9,2.7,1.7,3.9,2.6
		c15.3,11.6,31,22.6,47.3,32.6c8.4,5.2,17.4,9.4,26.7,12.9c11.5,4.2,23.1,8.3,34.6,12.5c3.4,1.3,6.5,1.1,9.3-1.1
		c1-7-1.6-98.4-3.1-110.3c-0.1-0.7-0.6-1.4-1.1-2.5c-0.8,0.7-1.5,1-1.8,1.6c-2.1,3.4-3.7,7-6.1,10.2c-12.7,16.9-29.8,26.1-50.6,28.6
		c-14.5,1.8-28.3-0.9-41.6-6.8c-17.6-7.9-34.1-17.6-48.5-30.5c-4.1-3.7-7.9-7.8-11.8-11.7c-0.4-0.4-0.8-0.9-1.2-1.3
		c-2.6-3.3-2.7-4.3-0.1-7.8c1.6-2.2,3.5-4.3,5.6-6.1c16.6-13.9,35.6-22.6,57.2-25.4c26-3.4,50.3,1.7,73.1,14.5
		c8.5,4.8,16,10.9,22.2,18.5c0.8,1,1.7,2,2.6,2.9c1.5-0.8,1.1-1.9,1-2.8c-0.3-7.1-0.8-14.2-1-21.3c-0.2-9.1-0.4-18.2-0.3-27.3
		c0-3.3-1-6-2.9-8.8c-3.9-5.7-7.4-11.6-10.9-17.6c-2-3.4-3-7.3-2.9-11.4c0.1-2.5,0.8-4.6,2.4-6.6c3.2-4.1,8.3-4.3,11.7-0.3
		c1.4,1.6,2.3,3.7,3.1,5.7c3.2,7.4,4.2,15.2,4.7,23.1c0.6,8.9,1,17.8,1.6,26.6c0.1,2.2,0.4,4.3,0.8,7.7c0.9-2,1.4-3,1.8-3.9
		c1.7-4.2,3.1-8.6,5.1-12.6c8.8-17.6,23.2-27.5,42.6-30.2c7.9-1.1,15.8-1.1,23.7-0.1c2,0.2,4,0.2,5.9,0.4c1.5,0.2,3.1,0.5,4.6,1
		c2.1,0.8,2.8,2.1,2.2,4.2c-3.6,11.1-7.5,22.1-14.2,31.8c-5.1,7.4-11.6,12.9-19.8,16.5c-13.4,5.9-27.3,7.6-41.7,5.5
		c-2.9-0.4-5.8-1-9.1-1.5c-0.2,1.3-0.6,2.4-0.5,3.5c1.1,19.9,2.3,39.9,3.4,59.8c0.4,7.7,0.7,15.4,1.1,23.1c0.1,1.3,0.2,2.6,0.4,3.9
		c1.7,0.1,1.8-1.1,2.2-1.8c5.2-10.6,12.4-19.8,20.8-27.9c14.9-14.6,33.1-21.9,53.8-23.3c13-0.8,25.6,0.9,38.1,4.4
		c3.4,1,3.7,1.5,3.7,5c-0.1,5.8-1.2,11.4-3.3,16.8c-3.8,10-8.1,19.7-13.6,28.9c-9.4,15.7-22.2,27.7-39.1,35
		c-9.1,4-18.6,6.5-28.7,6.7c-8.3,0.2-16.1-1.6-23.5-5.2c-2.8-1.4-5.6-2.8-8.8-4.3c-0.3,1-0.7,1.7-0.8,2.4c-0.5,9.4-0.2,15.2,1.1,19
		c2-0.4,4.1-0.8,6.2-1.2c7.6-1.3,15.2-2.7,22.8-3.9c2.7-0.4,5.6-0.4,8.3-0.1c5.1,0.7,6.9,4.6,4.2,9.1c-2.7,4.5-6.6,7.8-10.6,11.1
		c-1.3,1.1-2.6,2.4-3.8,3.6c-0.2,0-0.3,0-0.5,0c-0.1,0-0.2,0.2-0.3,0.3c0.2-0.1,0.4-0.3,0.7-0.4c3.6-0.1,7.1-0.3,10.7-0.4
		c10.2-0.4,20.1,0.8,29.8,3.9c3,1,6,2.2,8.7,3.8c4.3,2.5,4.8,6.2,1.2,9.7c-1.6,1.6-2.7,3.1-3.1,5.4c-0.3,1.7-1.2,3.4-2.3,4.7
		c-2.4,2.9-4.3,6.1-6.3,9.3c-5.5,8.4-12.6,15.2-21.8,19.6c-10.8,5.2-22.1,8.4-33.8,10.8c-3.1,0.6-6.3,0.6-9,1.9
		c-1.4,6.5,0.3,22.1,4.1,37.6c-1.3,1.8-3.4,1.6-5.3,1.9c-6.7,0.8-6.9,0.8-7.5-6c-0.7-7.7-0.9-15.4-1.3-23.1
		c-0.2-2.7-0.4-5.5-0.6-8.5c-1.7-0.2-3-0.6-4.3-0.5c-3.4,0.1-6.7,0.2-10.1,0.5c-3.4,0.4-6.7-0.1-10-0.7c-7.2-1.3-14.3-2.8-21.6-3.9
		c-6.7-1-13.2-2.6-19.5-4.8c-19.8-6.6-38.2-16.2-55.9-27c-4.9-3-9.6-6.2-14.5-9.3c-1.8-1.1-3.8-2.1-5.7-3.1
		c-1.5-0.9-3.1-1.7-4.6-2.7c-6.9-4.6-13.6-9.5-20.6-14c-4-2.6-5.8-5.8-4.9-10.4c0.2-1,0.4-2,0.3-2.9c-0.4-6.7,1.5-12.9,4.3-18.9
		c0.4-0.9,0.6-1.8,1-3.1c-1.4-0.9-2.6-1.8-4-2.5c-8.8-4.6-16.9-10.3-24.6-16.5c-36.3-29.3-66.7-64-93-102.4
		c-10.8-15.8-20.1-32.6-28.2-50c-0.8-1.8-1.7-3.5-2.8-5.7c-1.5,1.3-2.7,2.2-3.8,3.3c-6.2,6.4-12.4,12.7-18.6,19.1c-1,1-1.9,2-3,2.9
		c-3.2,2.5-7.1,1.8-9.2-1.6c-0.9-1.3-1.5-2.8-2.2-4.2c-3-5.5-6.1-11.1-9.2-16.6c-0.7-1.2-1.6-2.2-2.4-3.3c-3,0.8-5,2.7-7.3,4.5
		c0.1,1.2,0.2,2.4,0.4,3.5c0.9,5.7,1.9,11.3,2.6,17c1.7,12.6,5.2,24.8,10.6,36.3c9.5,20.3,20.7,39.5,34.5,57.3
		c5.8,7.5,12.1,14.6,19.2,21c5.9,5.3,11,11.4,17.3,16.2c2,1.5,4,3.2,6.2,4.5c18.6,11,36.4,23.1,54.3,35.1c9.5,6.4,16.7,14.5,21,25
		c2,4.9,4.9,9,8.4,12.7c8.4,8.8,13.3,19.5,17.9,30.5c0.7,1.7,0.8,3.4,0.4,5.2c-0.3,1.5-0.8,3.1-1,4.6c-1.5,11-7.2,19.5-15.6,26.4
		c-8.2,6.7-17.5,11.5-27.6,14.7c-4.3,1.4-8.8,2.4-13.1,3.6c-1.3,0.4-2.6,0.8-3.9,1.4c2.2,0.4,4.4,0.2,6.6,0.2c2.6,0,5.1,0,7.7-0.1
		c2.4,0,4.7-0.1,7.1-0.2c2.4-0.1,4.7-0.2,7.1-0.2c2.6,0,5.1,0.1,7.7,0.2c2.2,0.1,4.6-0.1,7.6,1.2c-5.9,1.9-11,2.6-16,3.2
		c-13.8,1.5-27.5,2.7-41.3,3.8c-24.9,2.1-49.8,2.2-74.7,1.7c-20.3-0.4-40.7-1.2-61-2.7c-16.2-1.2-32.4-2-48.5-2.9
		c-18.4-1-36.7-2.1-55.1-3c-8.5-0.4-17-0.4-25.5-0.5c-9.5-0.1-19-0.1-28.5-0.3c-18.4-0.5-36.7-1.2-55.1-1.6
		c-11.5-0.2-22.9-0.4-34.4,0.2c-11.5,0.6-22.9-0.3-34.4-1c-7.5-0.4-15-1.3-22.5-1.7c-16.2-0.8-32.4-1.5-48.6-1.8
		c-8.7-0.2-17.3-1-25.9-0.9c-8.5,0.1-17-0.6-25.5-0.7c-13.8-0.2-27.7-0.1-41.5-0.2c-2.2,0-4.4,0-6.5,0.1c-2.6,0.1-5.1-0.5-7.5-1.2
		c-2.7-0.8-4.6-2.1-5.1-5c-2-0.4-3.7-0.7-5.4-1c-1-0.2-2-0.1-2.9-0.4c-2.1-0.8-3.8-2.2-4.2-4.6c-0.3-2,1-3.4,2.4-4.5
		c1.2-1,2.7-1.6,4.1-2.3c9-4.5,18-9,27-13.6c1.1-0.5,2-1.2,3.2-1.8c0.1-1.2,0.3-2.4,0.2-3.5c-1.3-12-0.7-24.1,0-36.1
		c1-15.6,2.2-31.1,3.3-46.7c0.9-11.6,1.9-23.2,2.7-34.9c0.2-2.2,0.3-4.4,0-6.5c-1.1-5.9-0.6-11.8-0.2-17.7c0.2-2.5,0.6-5.1,0-7.7
		c-1.2-0.5-2.3-0.9-3.4-1.3c-6.2-2-9.7-6.6-11.8-12.4c-1.5-4.1-0.6-7.9,2.2-11.1c2.9-3.4,6.5-5.7,10.8-6.9c3.5-1,6.6-0.5,9.6,1.6
		c1.7,1.3,3.6,2.4,5.4,3.6c1.9-0.7,3.6-1.3,5.2-1.9c6.5-2.5,13.3-3.8,20.2-4.3c13-0.8,26.1-0.7,39.1,0.3c13.6,1,27.1,2.7,40.3,6.5
		c0.9,0.3,1.9,0.4,2.9,0.5c0.4,0,0.8-0.1,2.2-0.3c0.1-0.1,0.5-1,1.2-1.7c0.9-1,1.9-2,3-2.9c7.4-6.7,24.3-2.2,28.1,4.9
		c1.6,2.9,2.3,5.8,1.6,9.1c-0.7,3.4-2.2,6.4-4.7,8.8c-2,1.9-4.2,3.7-6.6,5c-4,2.2-4.9,2.5-4,8.4c1.1,7.2,1.4,14.6,1.6,21.9
		c0.5,14.8,0.7,29.6,1,44.5c0,1.6,0.2,3.1,0.3,4.5c1.7,1.2,2.8,0,3.9-0.7c1.9-1.1,3.5-2.6,5.5-3.4c4.9-1.9,8.7-1.1,11.4,2
		c2.2,2.4,2.2,3.9-0.1,6.7c-0.5,0.6-1,1.1-1.7,1.8c3.3,5.4,5.3,11.1,6.2,17.5c1.2,0.3,2.3,0.7,3.4,0.8c4.3,0.3,8.7,0.4,13,0.7
		c2,0.1,3.4-0.5,4.4-2.3c0.5-0.9,1-1.7,1.5-2.6c0.8-1.3,1.9-1.9,3.4-1.9c1.4,0,2.8,0.1,4.2,0.1c8.5,0,17,0,25.5-0.1
		c1.1,0,2.2-0.3,4.2-0.5c-1.6-1.5-2.5-2.4-3.6-3.2c-23.7-18.9-39.8-43.2-49.4-71.7c-3.8-11.3-5-23.1-4.8-35.1
		c0.1-3.6,0.3-7.1,0.4-10.7c0.1-4.4,1.8-8.5,2.8-12.7c2.1-8.7,5.1-17,8.3-25.3c1.1-2.9,2.8-5.2,5.1-7.1c1.8-1.6,3.7-2.2,6-1.3
		c1.1,0.4,2.3,0.4,3.7,0.7c2.2-4,4.3-8,6.6-11.8c2.2-3.7,4.5-7.3,7-11.3c-7.6-4.5-15-8.6-20.7-14.9c1.2-4.8,2.3-9.4,3.5-14
		c0.1-0.3,0.2-0.7,0.3-1C324.9,964.7,324.7,964.9,324.6,965.2z M440.9,1048.4c0.2,0.1,0.4,0.3,0.5,0.4
		C441.3,1048.7,441.1,1048.5,440.9,1048.4c-1.7-1-3.3-2.1-5-3.1c-7-4.4-14.3-8.4-21.1-13.1c-20.1-13.6-37.6-29.9-52-49.6
		c-0.5-0.7-1.3-1.3-2-2c-8.3,12.5-16.3,24.7-24.3,36.9c-0.2,0.3-0.1,0.7-0.1,1.4c0.8,0.3,1.7,0.6,2.6,0.9c9.2,2.4,18.3,4.7,27.5,7.1
		c22.3,5.9,44.6,11.9,66.5,19.3C435.6,1046.9,438.2,1047.6,440.9,1048.4z M640.3,1105.2c0.3,0.2,0.5,0.3,0.8,0.5
		C640.8,1105.6,640.5,1105.5,640.3,1105.2c-5-5.6-10.2-11-14.9-16.9c-13.9-17.4-24.9-36.6-34.7-56.5c-4.8-9.8-8.3-20.1-10.2-30.8
		c-1.4-7.8-2.2-15.6-3.3-23.4c-0.2-1.1-0.5-2.2-0.9-3.6c-1.6,1-2.8,1.5-3.8,2.4c-8.1,6.9-16.2,13.9-24.2,20.9
		c-1.3,1.2-2.5,2.6-3.8,3.8c-2.1,1.9-2.8,4.2-2.3,6.9c1,5.8,1.8,11.7,3.1,17.5c1.4,6.6,3.6,13,4.7,19.6c1.4,7.8,4.8,14.6,8.6,21.3
		c1.8,3.1,4.2,4.9,7.5,6.2c23.6,9,46.9,19,69.3,30.8C636.9,1104.2,638.6,1104.6,640.3,1105.2z M595.5,1177.9c-1,1.1-1.7,0.5-2.4,0.1
		c-2.7-1.3-5.4-2.5-8-3.9c-9.8-5.2-19.6-10.4-29.4-15.5c-25.2-13.2-51.2-24.8-77.9-34.7c-39.7-14.6-80.5-25.9-121-38.1
		c-0.9-0.3-1.9-0.2-3.1-0.3c-0.5,2.1-1.1,4-1.5,5.9c-1.1,5.2-1.8,10.5-3.2,15.7c-3.3,12-6.7,24-10.4,35.8c-1,3.2-0.7,5.4,1.3,8.1
		c7.3,9.7,15.9,18.1,25.8,25.1c14.9,10.6,31.2,18.6,48.5,24.5c2.8,0.9,5.8,1.3,8.7,1.4c17.4,0.6,34.8,1.1,52.2,1.6
		c3.4,0.1,6.7,0.2,10.1,0.4c18.5,1.1,37.1,2,55.6,3.3c13,0.9,26,2.4,39,3.6c1.6,0.1,3.2,0.4,4.7,0.2c6.7-0.7,13.3-1.5,20-2.4
		c4.7-0.7,9.3-1.6,14-2.4c2-0.3,4.1-1,6.9,0.5c-3.2,2.4-6.5,2.7-9.7,3.4c-3.4,0.8-6.7,1.5-10.1,2.2c3.2,1,6.3,1.4,9.4,1.9
		c2.5,0.4,5.1,0.9,7.6,1.4c0.9,0.2,1.9,0.6,1.2,2.3c-1,0-2.2,0.2-3.3,0c-8.6-1.5-17.4-0.6-26-2.3c-2.1-0.4-4.3-0.2-6.5-0.2
		c-5.1,0.1-10.3,0.4-15.4,0.3c-12.8-0.2-25.7-0.5-38.5-0.8c-11.5-0.3-22.9-0.7-34.4-1.2c-19-0.7-37.9-1.7-56.9-2.3
		c-15.4-0.5-30.8-0.7-46.2-1.2c-15-0.5-30-1.1-45-1.8c-9.5-0.4-18.9-1.2-28.4-1.7c-1.2-0.1-2.4-0.1-3.6-0.1c-1.5,0.1-2.6,0.9-3,2.4
		c-0.9,3-2,6-2.4,9.1c-0.7,5.3-1.1,10.6-1.4,15.9c-0.7,12.2,1.3,24,5.4,35.5c0.7,2,1.7,3.9,2.5,5.9c3.3,0,6.3,0.1,9.2,0
		c5.5-0.2,11.1-0.7,16.6-0.6c30.6,0.2,61.3,0.5,91.9,0.9c14.4,0.2,28.9,0.6,43.3,1.2c18,0.8,35.9,1.8,53.9,2.8
		c6.9,0.4,13.8,0.9,20.7,1.3c16.6,1,33.1,2.4,49.7,2.8c24.9,0.6,49.8,0.6,74.7,0.7c3.1,0,6.3-0.2,9.4-0.8
		c11.9-2.1,23.6-5.1,34.9-9.1c10.2-3.6,19.4-8.9,27.6-15.9c3.8-3.2,7.1-6.9,9.4-11.4c3.4-6.5,4.6-13.4,2.6-20.6
		c-1.5-5.4-4-10.3-7.4-14.8c-6.7-8.9-14.5-16.7-23.1-23.7c-12.2-10.1-25.5-18.7-39.2-26.7c-27.4-15.9-56.3-28.9-85.5-40.9
		c-17-7-34.1-13.6-51.4-20c-26.7-10-53.5-19.5-80.1-29.4c-49.5-18.4-99.9-33.8-150.9-47.4c-1.3-0.3-2.7-0.5-4.2-0.8
		c-0.6,1.4-1.4,2.6-1.7,3.8c-2.3,7.4-4.7,14.7-6.6,22.1c-1.4,5.5-2,11.3-2.8,16.9c-0.2,1.3,0.2,2.7,0.3,4.1c1.3,0.5,2.4,1.1,3.5,1.4
		c9.9,2.8,19.9,5,30.1,6.3c3.2,0.4,6.8,0.1,8.7,3.8c2,0.7,4.1,1.5,6.1,2c28.1,7.2,56,15.3,83.7,24c43.5,13.7,85.5,30.9,125.2,53.4
		c7.9,4.5,15.5,9.5,23.2,14.3C593.7,1176,594.5,1177.1,595.5,1177.9z M609.5,981.6c1.8-1.7,3.1-2.7,4.1-3.8
		c9.1-9.6,18.4-19.1,27.1-29.1c6.9-7.9,12.9-16.5,19.5-24.6c2.5-3.1,2.5-5.8,0.7-9.2c-2.4-4.5-4.4-9.3-6.8-13.8
		c-8.6-16.8-19-32.4-31.7-46.4c-10.1-11.1-21.5-20.3-35.1-26.9c-12.9-6.2-26.3-10.8-40-14.7c-3.2-0.9-6.6-1.1-9.9-1.6
		c-4.8-0.7-9.4,0.2-13.9,2.1c-4.4,1.8-8.9,3.3-13.2,5.2c-5.6,2.4-11.3,4.7-16.8,7.5c-12,6.2-22.7,14.4-32.7,23.4
		c-11.6,10.5-22.2,22-33,33.3c-3.6,3.7-7.2,7.4-10.9,10.9c-4.1,4-8.5,7.6-12.5,11.7c-3.4,3.5-6.6,7.4-9.7,11.2
		c-11,13.5-21.9,27.1-32.8,40.6c-0.6,0.8-1.1,1.6-1.8,2.6c0.7,1.4,1.2,2.9,2,4.2c4,7.1,8.5,13.8,13.7,20
		c10,12.1,21.3,22.8,33.7,32.4c16.4,12.6,33.9,23.2,53.3,30.7c8.7,3.3,17.5,6.1,26.3,9.1c1.1,0.4,2.2,0.5,3.5,0.8
		c1.2-2.4,2.4-4.4,3.3-6.6c11.8-26.4,30.5-47.5,51.8-66.3c10.9-9.6,22.5-18.7,35.3-26c2-1.1,3.4-2.7,3.6-5.4
		c-2.7-5-5.4-10.2-8.3-15.4c-0.7-1.2-1.6-2.3-2.6-3.2c-10.3-9.9-18.5-21.6-27.3-32.7c-0.1-0.2-0.3-0.3-0.3-0.5
		c-0.1-0.7-0.4-2-0.2-2.1c0.8-0.4,2-0.8,2.6-0.4c1.4,0.7,2.7,1.7,3.7,2.9c3.4,3.6,6.6,7.4,9.9,11c0.7,0.8,1,2.1,2.7,2
		c-2.4-4.9-4.8-9.7-6.9-14.5c-2.1-4.8-4.7-9.5-5.3-15.5c1.2,0.6,2,0.8,2.4,1.3c1.2,1.3,2.3,2.7,3.3,4.2c5.4,7.6,10,15.6,14.3,23.9
		c7.9,15.1,15.8,30.1,23.7,45.2c2.1,4,4.1,8.1,6.1,12.2C606.1,974.5,607.6,977.7,609.5,981.6z M131.6,1238.7c1.2-0.2,2-0.2,2.7-0.4
		c3.9-1.5,7.8-2.8,11.6-4.6c25.3-11.6,50.4-23.7,75-37c13.4-7.2,26.9-14.3,40.3-21.5c2.2-1.2,4.7-2.1,6.4-4.3
		c0.1-1.1,0.3-2.3,0.3-3.5c-0.1-24.3,0.5-48.6-1.6-72.9c-0.4-4.1,0.9-7.6,4.5-10.3c2.7-2,4.9-4.6,7.2-7.1c0.9-1,1.7-2.2,2.2-3.5
		c1.8-4,0.6-7.7-3.3-9.5c-9.2-4-13.1-3.5-19.1,3.1c-0.1,0.1-0.2,0.3-0.4,0.5c-1.4,1.9-3.1,2.1-5.2,1.3c-1.8-0.7-3.8-1.1-5.7-1.4
		c-9-1-18.1-1.9-27.1-2.9c-13.6-1.5-27.2-2.3-40.8-1.9c-11.3,0.3-22.6,0.8-32.9,6.1c-1.6,0.8-3.1,0.3-4.4-0.8
		c-1.2-1-2.4-2.1-3.5-3.2c-2.8-2.7-6-2.9-9.2-1.1c-1.5,0.9-3,1.9-4.3,3c-2.5,2.3-3,5-1.4,8c1.8,3.5,4.6,5.9,8.3,7.2
		c1.3,0.5,2.7,0.7,4,1.2c2.8,1,3.2,1.8,3.1,4.8c-0.1,2.9-0.1,5.9,0.1,8.9c0.2,3.5,0.7,7.1,0.8,10.6c0.3,10.1-0.2,20.1-1.1,30.2
		c-1.2,13-1.8,26-2.9,39c-1.7,18.5-2.2,37.1-3.1,55.6C131.5,1234.5,131.6,1236.5,131.6,1238.7z M804.1,1175.9
		c1.2,0.8,2.1,1.5,3.1,2.1c2.3,1.5,4.8,2.8,7.1,4.3c5.1,3.4,10.1,7,15.3,10.2c16.1,10,32.5,19.5,50.1,26.9
		c12.8,5.3,25.9,9.9,39.7,11.7c8.8,1.2,17.7,2,26.5,2.9c1.4,0.1,2.8,0,4.1-0.2c7.8-1,15.7-1.9,23.5-3.2c10.7-1.8,21.2-4.7,31.2-9.3
		c3.9-1.8,7.6-4.2,11.3-6.4c0.7-0.4,1.2-1.4,2.5-2.9c-5.6,1-10.2,2-14.9,2.6c-4.5,0.6-9,0.9-13.6,1.1c-5.1,0.2-10.6-0.9-13.7-2.4
		c5.5-1.9,10.8-3.1,16.3-3.9c6.8-1.1,13.7-2,20.4-3.6c4.6-1.1,9-2.9,13.3-4.8c3.8-1.7,4.9-3,7.1-6.9c-0.9,0-1.6-0.1-2.3,0
		c-14.6,2.6-29.4,3.6-44.2,4.6c-2.2,0.1-4.4,0.2-6.5,0.1c-1.3-0.1-2.5-0.8-4.4-1.4c1.6-1.1,2.4-2,3.5-2.2c3-0.9,6.1-1.7,9.2-2.2
		c8.8-1.4,17.6-2.5,26.4-3.9c6-1,12-2.2,18-3.4c0.8-0.2,1.6-0.8,3-1.5c-1.5-0.7-2.3-1.3-3.2-1.6c-11.2-3.6-22.7-5.1-34.5-4.3
		c-9.3,0.6-18.5,1-27.8,1.4c-0.6,0-1.2,0.1-1.8-0.1c-0.6-0.2-1.2-0.6-2.4-1.3c2.3-1.6,3.9-2.9,5.8-4c4.6-2.7,9.3-5.2,13.9-7.9
		c4.2-2.3,8.1-5,11.3-8.5c0.5-0.5,0.8-1.2,1.6-2.5c-2.4,0.1-4.1,0.1-5.8,0.4c-7.6,1.2-15.2,2.6-22.8,3.9c-2.1,0.4-4.3,0.8-6.4,1.4
		c-3.8,1-7.6,2.1-11.4,3.1c-2.7,0.8-5.4,0.5-8.2-0.2c-11.7-3-23-7.2-34.2-11.7c-7.1-2.9-14.2-6-21-9.6
		c-17.5-9.4-33.3-21.2-48.4-34.1c-0.8-0.7-1.8-1.1-2.7-1.6c-5.8,11.7-11.8,22.9-16.9,34.4C816.3,1153.2,809.6,1164.1,804.1,1175.9z
		 M567.5,749.5c-1.7-3.9-1.1-7.1-1.1-10.3c0-3-0.3-5.9-1.4-8.7c-0.9-2.2-2.3-3.6-4.9-3.5c-3,0.1-5.9-0.1-8.9,0.1
		c-14.3,1-27.6,4.9-38.9,14.1c-4.3,3.5-8.5,7.1-12.6,10.8c-2,1.9-3.9,4-5.5,6.2c-8.8,12.7-17.4,25.5-23.8,39.6
		c-5.2,11.6-12.9,21.2-22.2,29.7c-7,6.4-14.6,12.1-22.5,17.4c-15.6,10.5-31.8,19.9-48.5,28.7c-15.6,8.2-30.3,17.9-44.1,28.9
		c-12.9,10.3-24.6,21.7-33.8,35.5c-0.7,1.1-1.3,2.4-1.8,3.4c6.9,10.7,15.2,20.6,20.4,24.5c2.4-2,3.9-4.8,5.8-7.3
		c4-5.2,4-5.3,7.4-6.7c0.6,3.9-0.7,7.4-1.6,11c-0.9,3.8-2.2,7.5-3.2,11.1c4.3,4.8,14.5,12.6,19.2,14.6c3.6-5.3,7.2-10.7,10.8-16.1
		c-1-1.8-1.8-3.4-2.8-4.8c-1.6-2.2-1.6-4.4-0.5-6.7c0.6-1.4,1.4-2.9,2.3-4.1c4.1-5.6,8.2-11.1,12.5-16.5
		c7.6-9.6,15.4-19.1,23.2-28.5c3.5-4.3,7.1-8.5,10.7-12.7c9.2-10.7,20.1-19.6,30.3-29.2c2.1-2,4.3-4.1,6.4-6.2
		c3.9-3.9,7.6-8,11.6-11.9c12.3-12.2,25.7-22.8,41-31c11.5-6.2,23.7-10.9,36.1-14.9c1.6-0.5,3.2-1.2,5.1-1.8
		c-0.3-2.2-0.5-4.2-0.8-6.2c-1.4-0.5-2.6-0.7-3.5-1.2c-1.7-1-3.5-1.9-4.9-3.3c-6.8-7-5-17.6,3.8-21.8c4-1.9,8.6-3.5,13-3.9
		c9.2-0.7,18.6-0.9,27.8-0.4c8.7,0.5,17.4,0.9,26.1,0.8c1.3,0,2.6-0.3,4.4-0.6c-0.4-2-0.6-3.8-1.2-5.4c-3.3-8.8-7.7-16.9-13.8-24
		c-1.8-2.1-3.9-3.9-5.9-5.8c-0.6-0.6-1.4-1.5-2.5-0.5c0.7,2.4,3,4.3,2,7.1c-1.7,0.6-2-0.9-2.8-1.7c-1-1.1-1.3-2.9-3.4-3.2
		c-0.1,2.8,0,5.3-0.3,7.8C570,744.4,570.1,747,567.5,749.5z M644.4,957.4c0.4,1.1,0.6,1.7,0.8,2.3c9.4,19.2,19.6,37.9,31.7,55.6
		c26.2,38,56.4,72.2,92.4,101.3c11.3,9.1,23.3,17,36.4,23.2c1.8,0.8,3.6,1.5,5.5,2.3c3.4-4.8,5.4-10,7.9-14.9
		c2.5-4.9,5.5-9.5,7.2-14.9c-1.1-0.9-2-1.7-2.9-2.4c-21.1-15.2-40-32.9-57.8-51.7c-15.7-16.5-30.1-34.1-43.2-52.7
		c-12.5-17.8-24.7-35.8-36.8-53.8c-4.9-7.2-9.3-14.7-13.9-22.1c-0.7-1.1-1.5-2.2-2.5-3.7c-4.1,5.5-7.8,10.8-11.8,15.9
		C653.1,947,648.8,952.1,644.4,957.4z M797.1,1028.8c3.6,4.5,7.4,7.7,11.1,11c15.7,13.7,33.4,24,52.6,31.5
		c16.5,6.4,33.3,6.1,49.8-0.1c15.7-5.9,26.9-17,35.3-31.2c0.7-1.2,1.1-2.5,1.7-3.7c-0.7-1-1.2-1.8-1.8-2.6
		c-6.4-7.4-13.8-13.7-22.3-18.4c-16.5-9.2-34.1-14.4-53.2-14.5c-24.7-0.2-46.6,7.3-66.2,22C801.8,1024.5,799.7,1026.6,797.1,1028.8z
		 M311,1275.9c-1.7-6.4-3.5-12-4.6-17.8c-1.1-5.6-1.8-11.3-2-17c-0.2-5.9,0.4-11.7,0.6-18c-1.9-0.4-3.6-0.8-5.3-1.1
		c-2.7-0.4-5.5-0.5-8.2-1c-1.9-0.4-4.2,0.9-5.7-0.8c-1.7-2,0.3-4.1,0.6-6.1c0.9-5.8-0.4-10.8-4.7-14.8
		c-13.5,6.2-26.6,12.2-39.7,18.1c-2.3,1-3,2.9-3.8,5c-5.7,15.6-12.3,30.8-20.6,45.2c-0.6,1-0.9,2-1.5,3.4c4.5,0.9,8.6,1,12.7,1.1
		c18.8,0.4,37.5,1.7,56.1,3.6c5.3,0.5,10.6,1.1,15.9,1.6C304.3,1277.6,307.6,1277.1,311,1275.9z M738.1,1178.9
		c-2.8-4.4-6.2-8.2-10-11.7c-1-0.9-2.2-1.7-3.4-2.4c-16.3-10-32.6-20.2-49-30.1c-24.7-14.9-50.1-28.7-76.5-40.4
		c-5.4-2.4-11-4.5-16.3-7.2c-6-3.1-12.2-5.6-18.6-7.8c-7.1-2.5-14.1-5.1-21.1-7.8c-12.4-4.6-24.8-9.3-37.2-13.9
		c-1.2-0.5-2.6-0.6-4-1c-0.9,1.3-1.8,2.4-2.4,3.6c-1,2.1-2.6,2.8-4.8,2.6c-1.4-0.1-2.8-0.1-4.1,0c-0.5,0-1.1,0.6-1.2,1.1
		c-0.1,0.4,0.2,1.3,0.6,1.5c1.6,0.7,3.3,1.3,5,1.9c24.4,8.6,48.8,17.2,72.9,26.6c1.3,0.5,2.7,1.4,3.9,1.2c3.6-0.4,6.5,1.3,9.6,2.6
		c12.6,5.3,24.7,11.5,37.5,16.2c0.6,0.2,1.1,0.4,1.6,0.7c17.2,7.9,34.6,15.5,51.7,23.9c11.9,5.8,23.4,12.5,34.7,19.3
		C717.7,1164.5,728.1,1171.3,738.1,1178.9z M230.6,1223.5c-0.2-0.1-0.4-0.3-0.5-0.2c-35.4,15.9-70.7,32.2-107,46.2
		c-0.2,0.1-0.4,0.2-0.4,0.4c-0.1,0.1,0,0.4,0,0.3c28.2,0.3,56.4,0.6,84.4,0.9C213.9,1263.1,229.4,1231.6,230.6,1223.5z
		 M965.2,1000.7c2.1,0.5,3.3,1,4.6,1.1c4.9,0.2,9.9,0.4,14.8,0.2c7.5-0.3,14.8-2.1,21.8-4.9c8.3-3.4,14.8-8.8,19.5-16.5
		c3.9-6.4,7.1-13.2,9.6-20.3c0.3-0.7,0.3-1.5,0.5-2.5c-1.2-0.3-2.1-0.6-3-0.6c-7.3-0.6-14.6-0.7-21.9,0c-14.4,1.5-25.9,8-34.5,19.5
		C971.5,983.5,968.6,991.8,965.2,1000.7z M546.1,775.3c-2.4-0.4-4.1-0.9-5.9-1.1c-4-0.4-7.9,0.3-11.4,2.4c-5.2,3.2-6.1,9.3-0.9,13.9
		c1.1,1,2.7,1.6,4.1,2.3c1.2,0.6,2.5,1,3.6,1.5c1,3.2-0.2,6.7,2.5,9.5c8.3,0.7,16.5,2.7,24.6,5.3c5.8,1.8,11.6,3.8,17.4,5.7
		c1.1,0.3,2.2,0.5,3.5,0.8c1.2-2.5,2.6-4.7,1.9-7.2c-1.4-2.3-4-3.6-4-6.5c2.1-0.5,2.6,2.6,5,1.7c-0.6-3.9,0.5-7.3,3.4-10.1
		c1-1,1.6-2.2,1.4-3.7c-0.7-5.2-2.6-9.9-5.2-14.3c-0.2-0.4-1.3-0.3-2.2-0.4c-0.2,2.7-0.4,5-0.7,7.3c-0.1,0.6-1,1.4-1.6,1.4
		c-0.5,0-1.6-0.8-1.6-1.4c-0.2-2.3-0.1-4.7-0.1-7.1c-1.1-0.2-1.8-0.5-2.6-0.6c-4.1-0.4-8.2-0.7-12.4-1.1c-4.5-0.4-9-0.7-13.5-1.2
		C549.1,772.1,547.3,772.9,546.1,775.3z M1015.7,1096.3c-15.1,8.8-29.3,18.4-43.5,28c-0.4,0.3-0.7,0.9-1.3,1.7
		c3.3,2.1,6.8,3.4,10.2,4.8c5,2.1,10.2,3.1,15.6,2.9c23.3-0.6,41.6-10.9,56.2-28.5c0.4-0.5,0.5-1.3,0.8-2c-0.8-0.4-1.3-0.8-1.9-0.9
		c-5.3-0.9-10.5-1.7-15.8-2.6C1029.4,1098.4,1022.6,1099,1015.7,1096.3z M287.8,1175c-2.6,1.4-4.5,2.4-6.4,3.4
		c-6.3,3.2-12.6,6.6-19,9.6c-42.8,20-85,41.1-128.7,59.1c-4.1,1.7-8.3,3.4-12,6.2c-1.7,1.3-3.8,2.1-5.7,3.1
		c-3.9,1.9-7.9,3.7-11.8,5.5c-0.8,0.4-2,0.5-1.8,1.9c5.5,1.4,10.3,0.2,15.4-2.3c13.6-6.7,27.4-13.2,41.2-19.5
		c37.9-17,75.8-33.7,113.7-50.5c3.9-1.7,8-2.3,12.1-2.2c3.1,0.1,4.5,1.9,3.9,5c-0.4,1.7,0.3,2.7,1,3.8c2.6,4.5,4.1,9.4,4.1,14.7
		c0,0.7,0.3,1.5,0.5,2.3c4,1,7.7,2,12,1.2c0.5-2.1,1-4,1.6-5.8c0.7-2.1,1.5-4.1,2.2-6.1c0.6-1.8,2.1-3.3,2.1-5.7
		c-5.8-0.7-11.3-1.7-16.8,0.6C293.1,1191.1,293.2,1182.5,287.8,1175z M995,1100c1.8-0.8,2.7-1,3.5-1.5c15.1-9,30.2-18,45.2-27.1
		c8.1-4.9,16-10.2,24.6-14.2c0.8-0.4,1.9-0.8,1.3-2.2c-0.5-0.2-1.1-0.4-1.6-0.5c-13.7-3-27.4-2.8-41.1,0.5c-10.5,2.6-20,7.3-28.5,14
		c-2.3,1.8-3.6,3.8-3.4,7c0.3,5.7,0,11.4,0,17.2C995,1095.1,995,1097,995,1100z M333.9,1141.5c0.5-0.9,1-1.7,1.3-2.6
		c1-3.4,2-6.8,3-10.2c3.6-12.5,7.1-25.1,9.5-37.9c0.4-2.2,1.5-4.5,0.6-7.1c-6.1-1.1-12.1-2-18.1-3.3c-6.1-1.3-12.2-3-18.1-4.5
		c-1.6,1.8-1.1,3.6-1,5.3c0.7,13.4,4,26.1,9.6,38.3C325.3,1129.8,329.9,1137.5,333.9,1141.5z M534.9,1010.4
		c-4.7,4.7-8.4,8.8-11.6,13.3c-3.3,4.5-6.4,9-9.5,13.6c-3,4.5-6.3,8.9-8.3,14c0.8,0.5,1.3,0.9,1.8,1.1c13.1,3.5,26,7.8,38.8,12.5
		c0.7,0.2,1.4,0.1,2.6,0.2c-0.9-1.9-1.6-3.3-2.1-4.7c-1.5-3.9-3.3-7.7-4.2-11.6c-2.1-8.8-3.9-17.7-5.7-26.6
		C535.9,1018.7,535.6,1015.2,534.9,1010.4z M1057.6,1097.6c4.2-4.6,8.1-11.9,14-26.2c1.4-3.4,2.9-6.7,3.4-11.2c-2,1-3.4,1.5-4.7,2.3
		c-14.8,9.1-29.5,18.2-44.2,27.3c-0.7,0.4-1.3,0.9-0.6,2C1036.4,1092.4,1047.2,1094.6,1057.6,1097.6z M389.8,1201.1
		c0-0.3,0-0.6,0-0.9c-4.7-2.4-9.5-4.7-14.2-7.3c-2.5-1.4-5-2.1-7.9-1.9c-1.4,0.1-2.8,0.1-4.1,0.2c-11,1.1-22,1-33.1,0.8
		c-1.5,0-3.1,0.2-4.5,0.3c-1.2,2.1-2.6,3.8-2.2,6.5C345.9,1199.7,367.8,1200.4,389.8,1201.1z M989.6,1103.8c0-7.8,0-15.4,0-23.1
		c0-0.4-0.6-0.9-1-1.5c-0.7,0.6-1.3,1.1-1.9,1.6c-8.8,9.6-15,20.6-19.4,32.8c-0.7,1.8-1.2,3.8-1.5,5.7c-0.2,0.8-0.6,1.9,0.6,2.4
		C974.2,1115.7,981.9,1109.7,989.6,1103.8z M794.5,1167.2c6.7-4.2,11.7-11.4,13.7-19.5c-2.7-1.6-5.8-2.1-8.6-2.5
		c-1.9,1.2-2.9,2.7-3.2,4.5C795.3,1155.4,793.9,1161.1,794.5,1167.2z M950.3,959.2c-0.4-7.3-1.7-13.9-4.4-20.2
		c-0.2-0.4-0.4-0.8-0.7-0.9c-0.6-0.4-1.4-1-2-0.8c-0.6,0.1-1.2,1-1.5,1.6c-0.8,2.1-0.2,4.3,0.3,6.3
		C943.1,948.7,946.7,954.8,950.3,959.2z"/>
	<path id="XMLID_1232_" d="M1219.6,1262.8c2.2,0.5,3.7,0.9,5.2,1.2c2.1,0.4,3.6,1.6,4.9,3.1c3.1,3.8,1.4,8.5-3.4,9.5
		c-1.4,0.3-2.7,0.4-4.1,0.5c-14.2,0.9-28.4,2-42.6,2.7c-15.8,0.8-31.6,1.4-47.4,2.1c-13,0.6-26.1,1-39.1,1.7
		c-11.8,0.6-23.7,1.3-35.5,1.8c-8.9,0.4-17.8,0.6-26.7,0.9c-1.6,0-3.2,0.1-4.7-0.4c-1.4-0.4-2.9-1.3-3.9-2.4c-1.9-1.9-1.7-4,0.6-5.4
		c1.9-1.2,3.2-2.6,4.1-4.8c2.2-5.8,6.3-10.1,12-12.4c8.4-3.5,16.8-6.9,25.3-10c7.6-2.7,15.5-4.9,23.1-7.4
		c9.4-3.1,18.5-7.1,26.9-12.3c5.8-3.6,10.9-7.8,15-13.3c1.4-1.8,2.4-3.6,2.7-5.9c0.3-3.5,0.9-7.1,0.8-10.6
		c-0.7-26.9-0.8-53.8-0.1-80.7c0.5-18,1.4-35.9,2.3-53.9c0.5-10.7,1.4-21.3,2.1-32c0.1-2,0-3.9,0-5.6c-0.3-0.5-0.3-0.7-0.4-0.8
		c-9-7.7-10.7-17.7-8.7-28.6c1.6-8.9,4.8-17.2,10.2-24.4c2.1-2.9,3.2-5.8,3.4-9.2c1.1-19.5,2.1-39.1,1.8-58.7
		c-0.2-15.8-0.3-31.6-0.5-47.4c-0.1-3.5-0.6-7.1-1-10.7c-2.9-1.8-5.8-3.6-8.7-5.4c-2.7,1.5-4.7,4.3-7.9,3.6
		c-2.8-0.6-5.5-1.8-8.7-2.9c-2.8,2.6-5.9,1.6-9.3-0.3c-12.3-6.7-19.2-17.5-22.8-30.5c-3.9-14-3.8-28.1,1-42.1
		c2.9-8.6,7.2-16.2,14.2-22.2c0.6-0.5,1.1-1.1,1.7-1.8c0.5-37.8-0.6-75.4-5.7-112.9c-5.6,0.6-13.9,4.8-20.2,10.2
		c3,3.7,6.5,6.7,10.8,8.7c2.2,1,4.4,1.9,6.4,3c3.1,1.7,3.7,3.4,2.8,6.9c-0.5,2.1-1.2,4.2-2.2,6.1c-3.5,6.2-8.5,8.4-15.4,7
		c-1.5-0.3-3-0.8-4.4-1.1c-0.6,0.3-1,0.4-1.3,0.6c-5.9,6.3-13.1,6.5-20.8,4.6c-1.6-0.4-3.1-1.9-5-0.7c-0.2,1.4,1,1.7,1.7,2.1
		c3.8,2.6,7,5.8,9.5,9.6c2.7,4,4.4,8.1,4.5,13.2c0.1,9.1,1.1,18.1,1.5,27.2c0.2,4.1,0.2,8.3,0.1,12.5c-0.2,11.3-0.7,22.5-0.8,33.8
		c0,4-1.5,7.3-3.6,10.4c-1.2,1.8-2.7,2.8-4.9,3c-3.5,0.3-7.1,0.8-10.6,0.9c-11.7,0.1-23.3,0.1-35,0.2c-2,0-3.9,0.2-6.1,0.3
		c-6.9,14.7-14.7,28.6-24.2,41.5c-0.3,0.4-0.9,0.7-1.7,1.2c-2.3-1.6-3-4-3.3-6.5c-0.9-7.9-2-15.7-2.4-23.6
		c-1.3-26.9-1.5-53.8-0.6-80.6c0.2-5.5,0.1-11.1,0.1-16.6c-0.1-3.4,1-6.2,3.9-8.6c5,0,10.3,0,15.3,0c4-5.3,7.8-10.3,11.7-15.4
		c0-0.3,0.1-0.7,0-1c-5.3-10.3-6.4-21.2-4.2-32.3c5.4-27.6,18.5-50.7,41.1-67.9c10.3-7.8,21.7-13.7,34-17.7c1.5-0.5,3-1,4.5-1.6
		c0.3-0.1,0.6-0.5,1.2-1.1c-0.3-3.4-0.6-7.1-0.9-10.8c-0.1-1.7-1.1-2.9-2.6-3.7c-1.7-0.9-3.3-2.2-5.1-3.1c-2.8-1.3-4-3.6-4.7-6.4
		c-5.3-20.1-6.9-40.5-5.5-61.1c0.6-8.3,1.3-16.5,2.8-24.7c5-27.5,19.7-48.7,42.2-64.9c10.6-7.6,22.3-13.5,34.1-19.1
		c1.6-0.8,3.2-1.6,4.8-2.4c0.3-0.2,0.5-0.6,1-1.1c-0.1-0.5,0-1.3-0.3-2c-3.7-7.7-6-15.9-8.1-24.1c-0.6-2.5-1.5-4.6-3.9-6.3
		c-6.3-4.6-7.2-9.3-3.7-16.5c0.3-0.7,0.6-1.4,0.9-2.1c-1-1.1-2-0.4-2.9-0.1c-13.9,3.6-28,4.7-42.3,3.3c-10.4-1-20.8-2.6-31-5.2
		c-5.8-1.5-11.3-3.6-16.5-6.6c-2.7-1.5-5.4-3.4-7.5-5.7c-4.4-4.6-4.6-9.8-0.9-15.1c2.3-3.3,5.4-5.7,8.9-7.6
		c4.2-2.3,8.8-3.6,13.5-4.4c9.2-1.5,18.4-1.5,27.8-0.9c12.2,0.8,24.5,0.5,36.7,0.6c0.6,0,1.1-0.3,1.9-0.5c0.4-1.2,0.9-2.5,1.2-3.9
		c1.3-6.9,3.7-13.3,6.7-19.6c6.3-13,17-20.5,30.9-23.5c12.8-2.7,25.2-0.5,37,4.8c7.2,3.3,13.1,8.2,17.4,14.8c2.9,4.5,5.4,9.2,8,13.9
		c1,1.9,2,3.8,3,5.9c2.8,0,5.3,0,7.8,0c14.4-0.1,28.9-0.3,43.3-0.3c4.3,0,8.7,0.6,12.9,1.3c2.9,0.5,5.7,1.6,8.3,3
		c3.9,2,5.2,5.3,4.1,9.5c-1,3.9-3.1,7.2-6.6,9.5c-4.7,3.1-9.7,5.3-15.1,6.8c-6.9,1.9-13.9,2.9-21,3.6c-4.5,0.4-9,1.2-13.5,1.8
		c-0.7,0.1-1.4,0.5-2,0.7c-3.7,10.3-3.7,10.3-12,17.5c0.3,1.3,0.5,2.8,0.9,4.3c0.7,2.9,1.5,5.7,2.3,8.6c0.9,3.5,1.6,4.2,5.3,4.2
		c4.5,0.1,9.1,0,13.6-0.1c13.3-0.4,26.5,0.6,39.5,3c16.4,2.9,32.5,7,48,12.9c12.6,4.8,24.7,10.5,35.6,18.7
		c22.9,17.1,31.8,40,28.8,68c-0.4,3.5-1,7-1.7,10.5c-1,5.2-2.8,10.2-5.2,15.1c-3.7,7.7-7,15.5-10.4,23.3
		c-4.7,10.7-11.5,19.8-19.8,27.9c-1.5,1.5-3.1,3.1-4.5,4.8c-1.5,1.9-3.2,3.5-5.9,3.8c-0.1,1.2-0.3,2.1-0.2,3.1
		c2.3,20.1,2.3,40.3,2.1,60.4c-0.1,14.5-1.3,28.8-5.6,42.7c-0.6,1.9-0.3,3.5,1.1,4.9c3.2,3.2,4.8,7.1,6.2,11.3
		c1.5,4.3,3.6,8.4,5.2,12.6c5.3,13.5,8.8,27.5,11.9,41.6c3.6,16.6,7.3,33.2,10.3,49.9c2.3,12.8,3.8,25.8,5.4,38.7
		c1.5,12.6,2.7,25.2,3.9,37.7c0.2,1.9-0.2,3.9-0.5,5.8c-0.2,1.9-1.2,3.2-2.9,4.2c-2.4,1.4-4.7,2.9-7.1,4.3c-1.7,1-3.4,1.9-5.4,3.1
		c0.1,1.3,0,2.7,0.4,4c3.9,12.7,5.9,25.8,6.8,39c1,13.8,2.3,27.6,2.9,41.4c0.4,9.9,0.2,19.8-0.2,29.6c-0.4,10.1-1.3,20.1-1.9,30.2
		c-0.2,2.6-0.1,5.1,0.1,7.7c0.6,8.7,1,17.4,2.1,26c1.3,10.2,4.5,20,8.1,29.7c2.9,7.8,5.8,15.5,8.9,23.3c3.8,9.8,7,19.7,9.6,29.9
		c0.4,1.7,0.9,3.5,1.6,5.1c3.1,7.2,4.5,14.7,5.4,22.4c0.6,4.9,1.2,9.8,1.8,14.7c0.3,2.6,0.6,5.1,0.6,7.7
		c-0.1,17.7,2.6,35.1,5.1,52.5c2.7,19,4.8,38,4.4,57.3c0,0.8,0.1,1.6,0.1,2.5c1.5,0.6,3,1.1,4.3,1.8c1.6,0.9,2.9,2.3,2.7,4.3
		c-0.3,2.4-0.9,4.8-3.5,5.8c-1.3,0.5-2.7,0.8-4,0.9c-1.8,0.2-3.6,0.3-5.3,0.3c-11.7,0-23.3,0.9-34.9,1.8c-4.1,0.3-8.3,0.4-12.4,0.5
		c-19.4,0.5-38.7,0.9-58.1,1.5c-16.8,0.6-33.6,1.4-50.3,2.4c-9.1,0.6-18.2-0.3-27.3-0.3c-2.1,0-4-0.5-4.9-2.6
		c-1-2.2-0.7-4.2,1.1-5.9c0.1-0.1,0.2-0.3,0.4-0.7c-0.5-1.7-1.3-3.5-1.7-5.4c-0.5-2.5-0.2-5.1,2-6.4c5.8-3.3,10.4-8.5,16.4-11.4
		c4.6-2.2,9.4-4.4,14.3-5.8c12.9-3.7,25.5-8.3,38.2-12.8c7.1-2.5,14.2-4.8,21.3-7.3c6.8-2.4,12.9-6,18.9-9.8c0.8-0.5,1.5-1.2,2.4-2
		c-1.2-5.7-2.3-11.3-3.5-16.9c-7.7-36.5-15.5-73.1-23.1-109.6c-4.8-23.2-9.3-46.5-14-69.7c-0.3-1.7-0.6-3.5-0.9-5.3
		c-0.7-4.1-1.5-8.1-4.6-11.3c-0.9-1-1.6-2.3-2.1-3.6c-3.6-8.4-6.1-17.1-6.2-26.4c-0.1-4.2,0.4-8.3,1.9-12.2c1.1-2.9,1.1-5.7,0.7-8.7
		c-1.8-11.7-3.4-23.5-5.2-35.2c-2.2-13.9-4.5-27.7-6.8-41.5c-0.7-4.3-1.6-8.5-2.6-12.8c-0.2-1.1-0.8-2.2-1.2-3.4
		c-4.6-1.4-9.1-2.9-13.7-4.2c-2.7-0.8-4.5-2.3-5.2-5.1c-1.4-5.4-3-10.7-4.1-16.1c-3.4-16.1-5.6-32.3-7.7-48.6
		c-0.8-6.5-1.7-12.9-2.5-19.4c-0.2-1.1-0.5-2.2-1.5-3.4c-0.1,1.8-0.3,3.6-0.5,5.4c-0.2,1.8-0.5,3.5-0.6,5.3
		c-1.7,21.3-4.6,42.4-7.6,63.6c-0.3,1.8-0.6,3.5-0.9,5.3c-0.6,3.7-1.4,7.4-0.1,11.1c0.4,1.1,0.1,2.3,0.1,3.5
		c0.4,15.3-0.6,30.4-2.5,45.6c-1.6,12.4-3.9,24.6-7,36.7c-3.9,15.3-7.8,30.6-12.1,45.8c-2,7-4.9,13.8-7.6,20.5
		c-1,2.5-1.4,4.7-0.9,7.4c1.6,7.9,2.9,15.9,4.1,23.9c2.2,14.9,2.5,29.9,2.4,45c-0.1,15.3-1.7,30.4-3.5,45.5c-2,16.1-4.1,32.1-7.3,48
		c-0.4,1.9-0.7,3.9-1.3,5.8c-1.9,5.8-1.2,11.4,0.9,16.8c1.3,3.5,2.9,6.9,4.4,10.4c3,6.7,6,13.4,7.6,20.5
		C1222,1239.8,1223.2,1250.9,1219.6,1262.8z M999.9,697.4c-1.1,0.3-2.2,0.7-1.6,2.8C999,698.9,999.4,698.1,999.9,697.4
		c0-0.2,0.1-0.4,0.1-0.5c0-0.1,0-0.2,0-0.3C1000.1,696.8,1000,697.1,999.9,697.4z M1234,343.3c-0.5,1.1-1.1,2.3-1.7,3.5
		c-3.9,8.2-9.5,15-17.1,20c-7.5,5-15.6,8.4-24.4,10.3c-11.4,2.4-22.4,1.6-32.9-3.8c-0.5-0.3-1.1-0.5-1.6-0.8c-3.1-1.6-5.9-1.4-9,0.3
		c-7.4,4.2-15,8.1-22.3,12.4c-5.8,3.4-11.6,6.9-16.9,10.9c-18.5,13.8-31.5,31.4-36.6,54.4c-1.9,8.5-3.1,17.1-3.4,25.8
		c-0.3,10.3-0.4,20.6-0.1,30.8c0.3,9.7,1.3,19.3,2,29c0.1,1.1,0.4,2.3,0.6,3.4c9.7,3.4,19.2,6.6,29.1,8.7c8.4,1.8,16.8,2.1,25.3,0.3
		c2.1-0.4,4.2-0.7,5.8-2.3c-2.9-10.5-5.8-20.8-8.7-31.1c-0.4-1.3-0.8-2.7-1-4c-0.1-0.6,0.5-1.6,1.1-1.8c0.6-0.2,1.7,0,2.1,0.5
		c1.1,1.4,1.8,3,2.8,4.5c0.8,1.2,0.5,3.1,2.5,4.1c0.4-3.8-0.1-7.3-0.2-10.8c-0.2-7.9-0.5-15.8-0.6-23.7c0-2.3,0.4-4.7,0.8-7
		c0.1-0.7,0.7-1.2,1.3-2.3c1.3,2.6,1.8,4.9,2,7.3c0.8,10.6,1.8,21.3,2.2,31.9c0.5,12.9,1.1,25.7,3.6,38.3c0.2,1.1,0.6,2.2,0.9,3.2
		c3,0,5.8,0.3,8.5,0c11.8-1.4,23.5-2.7,35.3-4.4c14.7-2.1,29.1-5.6,43-10.8c12.7-4.7,24.6-10.7,35.1-19.5
		c10.8-9,18.8-20.2,24.2-33.2c0.5-1.2,0.7-2.6,1-3.8c-2.3-2.6-4.3-5-6.4-7.3c-1.8-2.1-1.9-4.3-0.4-6.5c1.7-2.4,3.5-4.7,5.3-7.1
		c1.3-1.7,2.8-3.3,3.9-5.1c6.5-10.4,12.8-20.9,19.3-31.3c1.5-2.4,2.4-4.9,2.6-7.7c0.2-2.4,0.1-4.8,0.5-7.1c0.6-4.5,1.4-9,2.3-13.4
		c0.1-0.7,1.2-1.2,2-1.9c3.5,5.2,0.4,10.4,1.1,15.9c2.1-1.8,3.1-4,4.6-5.8c1.1-1.4,2.2-2.8,3.5-3.9c0.9-0.8,2.2-1,3.3-0.2
		c1,0.8,1.4,2,1,3.2c-0.6,1.7-1.4,3.3-2.3,4.8c-8.5,14.5-17,29-25.6,43.4c-3.4,5.6-7.2,10.9-10.7,16.3c-0.5,0.8-0.9,1.7-1.2,2.3
		c11.2,19.5,45.8,40.5,67.1,42.7c0.7-0.8,1.5-1.7,2.2-2.6c4-5.9,8-11.8,12.1-17.6c4.8-7,9-14.4,12.4-22.2c6.9-16,10.9-32.6,9.2-50.2
		c-1.6-16.8-8.7-30.6-21.7-41.4c-7.2-5.9-15.1-10.8-23.6-14.7c-11.9-5.5-24.1-9.8-36.8-13.2c-13-3.5-26.1-6.4-39.5-7.7
		c-11.8-1.2-23.6-1.6-35.5-2.3C1235.1,342.9,1234.7,343.1,1234,343.3z M1232.9,853.2c0.2-2.2,0.3-4,0.4-5.7
		c0.5-5.3,0.9-10.6,1.5-15.9c0.5-4.7,1.4-9.4,1.9-14.1c2.1-18.8,4.1-37.7,6.3-56.6c0.7-6.1,1.5-12.2,2.4-18.2
		c0.3-1.9,0.8-3.9,1.4-5.7c0.6-1.6,2-2.4,3.7-2.4c2.1,0,4,0.7,4.9,2.7c0.9,1.9,1.8,4,2.3,6.1c1.6,7.5,3.2,15.1,4.3,22.7
		c3.5,24.2,6.7,48.5,10.1,72.8c0.4,2.7,0.9,5.4,1.3,7.8c0.7,0.5,1.1,0.8,1.4,0.8c8.2,1.3,16.4,2.9,24.6,3.7
		c21.4,2.1,42.2-1.2,62.1-9.3c3.7-1.5,7.3-3,10.9-4.7c4.5-2.1,8.9-4.3,13.2-6.6c1.2-0.6,2-1.7,2.8-2.4c0-0.8,0.1-1.2,0-1.6
		c-3.4-13.4-4.9-27.2-6.9-40.9c-1.7-12.1-3.3-24.3-5.6-36.3c-3.5-18.4-7.6-36.8-11.4-55.1c-3.3-15.9-8.1-31.4-14.7-46.2
		c-0.8-1.8-1.7-3.5-2.4-5c-2.8-0.6-4.8,0.5-6.8,0.9c-2.1,0.5-4.3,0.4-6,2.7c1.1,3.7,1.6,7.8,5,10.8c-2,2.5-4.8,3.6-7.5,4.5
		c-6,2.1-12,4.1-18,5.9c-13.1,3.9-26.7,5.4-40.2,7c-2.5,0.3-5.1,0.2-7.7,0.2c-0.8,0-1.5-0.3-2.2-0.6c-0.3-0.1-0.5-0.6-0.6-0.9
		c0-0.3,0.1-0.9,0.4-1c0.9-0.4,1.8-0.8,2.8-1c1.9-0.4,3.8-0.7,5.6-1.1c-0.3-5.5-0.5-6.1-3-9.5c-1.4,0-2.8-0.1-4.1,0
		c-12.2,1.4-24.4,2.2-36.7,2.2c-4.9,0-9.9-0.1-14.8,0c-1.3,0-2.7,0.3-4.1,0.5c-0.6,3.1-1.2,6,0,9c2.6,1,5.2,0.5,7.7,0.8
		c2.7,0.3,5.5,0.4,8.2,1.9c-2.1,2.1-4.6,1.8-6.9,1.9c-11.1,0.6-22.1-0.9-33.1-1.6c-1.8-0.1-3.5-0.4-5.3-0.6
		c-6.5-0.9-12.8-2.2-19-4.5c-3-1.1-5.7-2.6-7.9-5c-0.3-0.4-0.4-1-0.8-2.4c5.1,1.6,9.2,4.9,14.8,4.4c-0.3-3.1,0.7-6,0.1-9.2
		c-2.4-0.5-4.7-1-6.9-1.5c-2.5-0.5-4.9-1.5-7.7-1.2c-0.4,1.2-0.8,2.3-1.2,3.4c-1.7,5.1-3.4,10.1-5,15.2
		c-4.6,14.3-9.3,28.5-13.8,42.9c-1.1,3.6-1.9,7.3-2.5,11c-1.8,10.3-3.2,20.7-5.2,31c-3.6,18.8-7.1,37.7-12.6,56.1
		c-0.3,0.9-0.3,1.9-0.5,3.2c4.2,3.1,7.5,7,12,9.6c4.6,2.7,9.2,5.3,13.8,8c8,4.7,16.1,9.2,24.8,12.7c17,7,34.5,11.3,53.2,8.9
		C1221,856.4,1226.9,855.5,1232.9,853.2z M1150.9,1028.1c-2,1.4-3.2,2.3-4.5,3.3c-0.5,7.5-1.1,15-1.5,22.4
		c-0.6,10.5-1.2,20.9-1.6,31.4c-0.7,17-1.4,34-1.9,50.9c-0.6,19.4-0.9,38.7-1.6,58.1c-0.3,7.1-1.3,14.1-2,21.2
		c-0.3,2.6-1.2,4.9-2.6,7.2c-2.5,4.1-5.6,7.7-9.4,10.6c-2.6,2.1-5.5,3.9-8.2,5.9c-0.9,0.6-1.7,1.4-2.7,2.2
		c8.5,7.3,12.1,16.4,12.2,27c0,0.7,0.4,1.5,0.7,2.4c1.3,0,2.5,0.1,3.6,0c7.9-0.6,15.8-1.2,23.6-1.7c15.4-1,30.8-1.8,46.2-2.8
		c3.7-0.2,7.4-0.6,11.4-1.6c0.8-6,1.7-11.8,1.4-17.8c-0.5-10.6-2.9-20.7-7.2-30.4c-1.3-2.9-2.7-5.7-3.9-8.7c-2-4.7-3.8-9.5-5.7-14.3
		c-1.3-3.2-1.3-6.5-0.4-9.9c0.8-3.1,1.6-6.1,2.2-9.2c3.2-16.1,5.4-32.3,7.4-48.6c2.3-18.3,3.7-36.6,3.5-55
		c-0.1-9.9,0.1-19.8-1.3-29.6c-1.1-7.8-2.3-15.6-3.7-23.4c-0.7-4-0.8-7.7,1-11.5c1.5-3.2,2.4-6.7,3.3-10.1c2.4-8.6,4.7-17.1,7-25.7
		c5.1-18.7,9.7-37.5,13.2-56.5c2.6-13.8,3.9-27.8,5-41.8c0.2-2.4,0.2-4.7,0.1-7.1c-0.1-1.9-1.4-2.8-3.2-2.4c-1,0.2-1.9,0.6-2.8,0.8
		c-15,4-30,4.5-45.2,1.5c-9.9-2-19.4-5.3-28.7-9.3c-1.8-0.7-3.4-2.2-5.9-1.7c0,1.7-0.2,3.4-0.1,5.2c0.4,6.7,0.9,13.4,1.3,20.1
		c0.7,13,1.6,26,1.7,39.1c0.1,12.2-0.5,24.5-1,36.7c-0.2,4.5-0.6,9.1-0.9,13.6c-0.1,2.1-0.8,3.8-2.2,5.3c-8.4,9.4-12.1,20.8-13,33
		c-0.5,7.3,2.3,13.6,9.3,17.2C1145.9,1025.3,1148,1026.5,1150.9,1028.1z M1295.1,860.6c0.2,1.7,0.4,3,0.6,4.3
		c0.6,2.9,1.5,5.7,2.1,8.6c2.7,14.6,5.5,29.1,8,43.7c1.8,10.3,3.2,20.7,4.8,31c0.6,3.6,0.4,6.9-0.9,10.4c-1.6,4-2.4,8.3-2.4,12.8
		c0,6.5,1.7,12.5,4,18.4c2.3,5.9,5.7,10.8,10.9,14.4c1.1,0.8,2.2,1.6,3.2,2.6c0.4,0.4,0.5,1.2,0.8,1.9c-1.8,0.5-3.3,0.8-4.9,1.3
		c0.2,1.9,0.4,3.5,0.7,5c3.3,16.7,6.7,33.3,10.1,50c6.2,30.4,12.4,60.8,18.4,91.2c3.6,18.2,6.7,36.5,10.4,54.7
		c0.9,4.3-0.6,6.8-3.6,9.1c-0.8,0.6-1.7,1-2.5,1.5c-4.1,2.4-8.2,4.7-12.3,7.2c-1,0.6-2.3,0.9-2.2,2.6c0.8,0.9,1.8,1.9,2.7,2.9
		c5,5.3,8.5,11.5,10.3,18.5c1.2,4.8,1.6,9.7,2.4,14.6c0.2,1.1,0.4,2.2,0.6,3.4c3.3,0.8,6.2,0.2,9.1,0c12-0.7,24.1-1.6,36.1-2.2
		c6.3-0.3,12.6-0.4,19-0.6c1.7-0.1,3.6,0.2,5.1-1c2.3-3.3,2.5-7,2.2-10.8c-0.2-2.8-0.9-5.5-1-8.2c-0.7-15.8-3-31.5-5.2-47.1
		c-0.7-4.9-1-9.9-2.2-14.6c-0.8-3.1-1.1-6.2-1-9.3c0.1-1.6,0-3.2-0.1-4.7c-1.1-9.6-2.1-19.3-3.5-28.8c-3.3-21.9-8.4-43.4-16.2-64.2
		c-3.1-8.3-6.3-16.6-9.4-25c-5.1-13.8-8.5-27.9-8.8-42.8c-0.1-6.9-0.5-13.8-2-20.6c-0.4-1.7-0.3-3.5-0.3-5.3
		c0.1-4.1,0.4-8.3,0.6-12.4c0.7-15.2,1.8-30.4,0.8-45.6c-0.9-14.6-1.9-29.2-2.6-43.8c-0.6-11.1-2.4-22-4.9-32.8
		c-0.2-0.9-0.8-1.7-1.2-2.7c-3.4,0.5-6.2,2.2-9.1,3.3c-3,1.1-5.9,2.2-8.9,3.2c-3.2,1-6.4,2-9.7,2.8c-3.1,0.8-6.2,1.4-9.3,2
		s-6.2,1.1-9.4,1.4c-3.1,0.3-6.3,0.4-9.5,0.4c-3.4,0.1-6.7,0-10.1-0.1C1301.8,861,1298.6,860.8,1295.1,860.6z M1090.8,661.8
		c-0.5-0.4-0.6-0.6-0.8-0.7c-0.7-0.3-1.4-0.7-2.2-0.9c-5.9-1.7-10.8-4.8-14.7-9.5c-0.8-1-2.2-1.6-3.3-2.3c-1.6-0.9-2-2.6-0.9-3.9
		c1.3-1.4,2.8-2.8,4.4-4c11-8.4,23.4-13.8,36.8-17.2c12.1-3,24.5-4.2,37-4.9c7.5-0.4,15-0.8,22.5-1.5c21.5-1.9,42.6-5.8,63.5-11.7
		c19.2-5.4,37.3-12.9,54.1-23.7c22-14.1,37.5-33.6,47.8-57.4c0.7-1.6,1.1-3.3,1.8-5.1c-1.5-0.8-2.6-1.6-3.8-2.1
		c-14.1-5.8-26.4-14.2-37.5-24.6c-0.8-0.8-1.8-1.3-2.9-2.1c-1,2.2-1.8,4-2.6,5.8c-2.6,6-5.8,11.7-9.7,17
		c-9.7,13.2-22.2,22.9-37,29.8c-16,7.5-32.8,12.4-50.2,15.6c-21,3.9-42.3,5.8-63.6,6.8c-11.7,0.6-23.2,1.8-34.7,3.8
		c-14.5,2.5-28.3,7.1-41.2,14.4c-22.2,12.5-38.2,30.4-46.7,54.6c-3.9,11.1-4.4,22.4-1.7,33.9c3,12.6,11.7,18.8,24.6,20.4
		c1.6,0.2,3.2-0.1,4.3-1.9c-0.3-0.7-0.6-1.7-1.2-2.4c-1.9-2-3.9-4-6.1-5.6c-4.1-3-7.1-6.8-9.3-11.4c-5.8-12.2-4.6-24.2,1.2-35.9
		c0.9-1.9,2.5-3.6,3.9-5.2c0.4-0.5,1.3-0.6,2.5-1.2c-0.2,1.9-0.2,3.3-0.6,4.5c-1.3,4.4-2.6,8.7-4,13c-2.2,6.7-0.6,12.9,2.7,18.8
		c2.5,4.6,6.5,7.4,11.4,8.9c1,0.3,2.2,0.2,4,0.4c-0.9-1.6-1.4-2.5-1.9-3.5c-1.2-2.3-2.7-4.5-3.4-6.9c-3.7-13.3-1.6-25.8,5.1-37.7
		c0.2-0.3,0.5-0.7,0.8-0.8c0.5-0.2,1.1-0.2,1.6-0.1c0.2,0,0.5,0.7,0.4,1c-0.2,1-0.5,1.9-0.7,2.8c-1,3.6-2.3,7.2-2.9,10.8
		c-1.2,6.7-1.1,13.3,0.7,20c3.2,12,17.8,17.9,27.3,14.6c0.8-0.3,2-0.3,1.9-1.9c-1.4-1.1-3-2.3-4.5-3.5c-6.1-5.2-10.1-11.7-11-19.7
		c-0.9-7.6,0.8-14.9,3.4-22.1c0.3-0.9,1-1.7,1.6-2.4c0.4-0.5,1.9-0.1,1.9,0.6c0,1.2,0.1,2.3-0.1,3.5c-1,5.2-1.9,10.5-1.7,15.9
		c0.2,3.6,1,7,2.8,10.2c4.2,7.5,10.5,12.2,18.5,14.9C1083.9,671.9,1089.3,668.4,1090.8,661.8z M1346.7,522.4
		c-2.1-0.2-2.4-0.3-2.6,0.4c-0.8,1.8-1.5,3.6-2.2,5.5c-7,18.2-17.4,34.2-31.8,47.3c-17,15.5-36.7,26.7-58.5,34
		c-28.8,9.7-58.4,15.3-88.8,16.8c-3.1,0.2-6.3,0.2-9.4,1.3c-0.6,6.3,0.1,12.3,1.5,18.5c1.2,0.3,2.3,0.8,3.5,1
		c15.2,2.7,30.5,4.9,45.9,5.6c22.5,1.1,45,0.1,67.5-2.5c20.9-2.4,41.1-7.8,61.4-13.1c4.5-1.2,7.4-3.9,8.7-8.7
		c3.6-13.1,5.3-26.4,5.4-39.8c0.2-21.5,0-43.1,0-64.6C1347,523.6,1346.8,523,1346.7,522.4z M1199.1,275.9
		c-7.5-0.1-55.5,4.5-59.9,5.7c-1.2,2.7-0.9,5.7-0.9,8.6c0.1,14.1,1.5,28,4.7,41.7c2,8.6,4.4,17.2,6.5,25.8c0.5,1.8,1.6,3.2,3.1,4.2
		c7.8,5.3,16.2,8.9,25.9,8.9c9.5,0,18.2-3,26.6-7.1c7.2-3.5,12.1-9.3,17.1-15.2c0.7-0.9,1.1-2.1,1.7-3.1c1.4-2.6,1.5-5.2,0.3-7.9
		c-2.1-4.7-3.9-9.5-6-14.2c-0.8-1.9-0.7-3.4,0.9-4.8c2.3-2.1,4.6-4.4,6.9-6.5c3.4-3.1,5-7.1,5.8-11.4c0.9-4.2-1-7.3-5-9
		c-3.7-1.6-7.3-1.3-10.9,0.2c-2.2,0.9-4.2,2.1-7,1.9C1205.2,288.1,1203.6,281.3,1199.1,275.9z M1056.8,785.2c0-1.3,0-2.3,0-3.2
		c-0.1-9.1-0.2-18.2-0.2-27.3c-0.1-12.6-0.1-25.3-0.2-37.9c0-1.6,0.2-3.2-1.3-4.6c-0.6-0.1-1.3-0.2-2.1-0.3
		c-7.5-0.4-15-0.7-22.5-1.2c-5.1-0.3-10.2-0.9-15.4-1.4c-11.8-1-23.6-2.1-35.4-3.1c-0.9-0.1-1.8,0.2-3.1,0.4
		c1.4,38.7-0.1,77.2,2.5,116.3c1.1-1.3,1.9-2.1,2.5-3.1c3.7-6.1,7.2-12.3,10.9-18.3c2.5-4.1,5.1-8,7.6-12c1.1-1.8,2.8-2.7,4.9-2.8
		c5.9-0.1,11.9-0.4,17.8-0.4c8.7,0,17.4,0.3,26.1,0.5C1051.4,787,1054,787,1056.8,785.2z M1110.7,839.6c-0.5-5.7-0.5-11-2.9-15.8
		c-3.1-5.9-3.5-11.9-2.2-18.4c5.4-26.7,10.7-53.5,16.1-80.2c0.9-4.6,1.9-9.3,3.2-13.8c5.9-20.5,12.6-40.8,21.4-60.3
		c1.2-2.6,1.5-5.2,1.2-8.1c-0.4-3.9-0.6-7.9-0.9-11.8c-0.1-1.1-0.3-2.2-0.4-3.4c-1.1-0.2-1.8-0.4-2.6-0.4c-8.7-0.1-17.4,0.7-26,1.7
		c-3.9,0.5-7.8,1.3-11.7,2.1c-1.2,0.3-2.4,1.1-3.6,1.7c0.6,3.2,1,6.2,1.6,9.1c2.4,12.8,4.3,25.8,5.2,38.8
		c1.4,19.9,1.2,39.9,1.2,59.9c0,4.4-1.4,7.8-4.3,11.2c-11.6,13.5-17,29-16,47c0.9,15.9,7.5,28.8,18.8,39.7
		C1109.1,838.9,1109.6,839.1,1110.7,839.6z M1129.1,281.8c-1-0.2-1.8-0.5-2.5-0.5c-4.1,0.2-8.2,0.5-12.4,0.6
		c-14,0.4-28.1,0.2-42-1.5c-7.4-0.9-14.6-0.9-21.8,0.5c-2.9,0.5-5.8,1.3-8.5,2.5c-2.5,1.1-4.8,2.8-6.8,4.7c-3.3,3.2-3.1,6.2,0.4,9.1
		c1.6,1.4,3.5,2.7,5.5,3.5c4.9,2,9.8,4.3,15,5.5c11.9,3,24,4.8,36.3,5.1c11.4,0.3,22.9,0,34.4,0c0.9,0,1.9-0.3,3.2-0.4
		c0.7-8.7-1.2-17.1-0.5-25.5C1129.5,284.3,1129.2,283.1,1129.1,281.8z M1125,272.7c1.3,0.1,2.5,0.4,3.6,0.4
		c27.7-2.3,55.5-4.6,83.5-6.9c-0.1-1.1,0-2-0.4-2.6c-2.5-4.5-4.9-9-7.6-13.4c-2.6-4-6-7.4-10.1-9.8c-12.1-7.1-25.1-9.7-38.8-6.6
		c-9.8,2.2-17.7,7.7-22.8,16.7c-3.3,5.9-5.6,12.2-7.4,18.7C1124.7,270.2,1125,271.4,1125,272.7z M1239.1,295.5c1.3,0,2.5,0.2,3.6,0
		c9.7-1.8,19.5-3.4,29.1-5.5c4.4-1,8.6-2.8,12.9-4.4c1.6-0.6,3.2-1.6,4.7-2.6c2.1-1.3,3.3-3.4,4.1-5.7c0.5-1.5,0-2.8-1.5-3.4
		c-1.5-0.5-3-0.9-4.5-1.3c-5.2-1.2-10.6-1.2-15.9-1.3c-14.7-0.3-29.2,0.8-43.8,1.8c-4.5,0.3-9.1,0.6-13.6,1c-1.5,0.1-3.2,0-4.3,1.8
		c1.5,3.1,2.7,6.4,5.1,9.3C1225.6,282.5,1234.2,284.9,1239.1,295.5z M1333.3,1233c-3.1,1.1-6.4,2.3-9.8,3.4c-3.3,1.2-6.7,2.3-10,3.5
		c-3.2,1.2-6.8,1.7-9.6,4.1c0.5,0.8,0.8,1.4,1.2,1.8c6.9,6.9,10.2,15.3,10.6,24.9c0.1,1.1,0.4,2.2,0.7,3.6c6.2,0.5,12-0.8,17.9-1
		c5.3-0.2,10.6-0.7,15.7-1.6C1353,1258,1345,1239.3,1333.3,1233z M1310.3,1274.2c-0.2-10.1-2.7-18.5-9.7-25.3
		c-2.3-2.2-4.4-2.9-7.4-1.3c-4.9,2.5-10,4.8-15,7.1c-9,4.1-17.7,8.9-27.2,11.7c-1.1,0.3-2.2,1-3.1,1.7c-1.6,1.1-1.6,3.3,0.1,4.5
		c2.8,2,6.1,3,9.4,3.2c3.5,0.3,7.1,0.3,10.6,0c12.4-1.2,24.9-1.3,37.3-1.2C1306.7,1274.5,1308.1,1274.3,1310.3,1274.2z
		 M1119.9,1270.8c1.4-9.4-2-19.1-8.3-25.1c-1.5-1.4-2.9-1.6-4.8-0.8c-6,2.5-12.1,4.8-18.1,7.3c-0.7,0.3-1.2,0.8-2.1,1.4
		c1.6,3.2,3.1,6.1,4.4,9.2c1.3,3,2.5,6.2,3.6,9.1C1100.5,1272.9,1112.8,1272.4,1119.9,1270.8z M1079.4,1255.2
		c-3.7,1.1-7.4,2.3-11.2,3.5c-5.1,1.6-10.2,3.1-15.2,4.8c-2.6,0.9-5.1,2.1-7.5,3.5c-3,1.8-3.2,3.5-1.2,8c1.8-0.1,3.7-0.2,5.7-0.3
		c6.9-0.4,13.8-0.8,20.7-1.1c4.1-0.2,8.3-0.1,12.4-0.2c1.3,0,2.6-0.4,3.9-0.6C1086.5,1267.3,1083.1,1259.6,1079.4,1255.2z
		 M1003.5,701.2c16.8,1.3,32.7,3.8,48.9,4.4c-0.8-6.3-6.4-13.9-11.7-15.9c-2.6,5.7-7,9.1-12.6,8.7c-4.9-0.3-9.8-0.9-14.3-3.2
		c-1.4-0.7-2.8-1.4-4.3-2.1C1006.5,694.8,1004.7,697.2,1003.5,701.2z M1191.4,662.3c-7.4-2.1-15.4-3-20-2.4
		c-0.9,2.8-0.9,5.6-0.2,8.7c6,2.3,12.4,2.3,18.6,2.9c0.5,0,1-0.5,1.6-0.8C1191.4,668,1191.4,665.3,1191.4,662.3z M1289.8,657.4
		c-5.2,0.8-10.4,1.4-15.6,2.9c-0.3,3.5,0.8,6.3,2.4,9c3.3,1,6.3-0.3,9.4-0.6c3-0.3,6.1-0.4,8.9-2.2
		C1293.7,662.9,1292.1,660,1289.8,657.4z M1299.1,666.1c5.7-0.4,10.7-1.9,16-3.8c-1.5-3.4-2.8-6.4-4.1-9.5c-5.7,1.1-11,2-16.6,4.1
		C1296,660,1297.5,662.8,1299.1,666.1z M1333.6,656.7c-0.4-3.5-1.1-6.6-2.9-9.4c-5.4,0.7-11.9,2.9-15.1,5c-0.5,3.6,1.7,6.1,3.9,9.1
		c3.9-1.2,7.6-2.3,11.4-3.4C1331.7,657.7,1332.5,657.2,1333.6,656.7z M1113.3,557.8c-10.1,0-19.8-3.1-29.7-5.3
		c-0.9,3.7-0.9,6.9,1,10c4.9-0.9,9.5-1.8,14.2-2.5C1103.6,559.2,1108.4,558.5,1113.3,557.8z M1203.8,672.1c1.7-3.9,1.8-4.9,0.8-9
		c-3.1-0.3-6.3-1.8-9.9-0.2c0.2,3-0.7,5.9,1.1,8.7C1198.4,672.5,1201.1,672.5,1203.8,672.1z M1124.7,556.4c0,0.2,0.1,0.4,0.1,0.6
		c2.1-0.2,4.2-0.3,6.2-0.6c1-0.2,1.7-1,0.5-2.3C1129.3,554.8,1127,555.6,1124.7,556.4z M1121.1,835.3c-0.3,0.2-0.7,0.5-1,0.7
		c0.7,1.9,1.7,3.7,3.9,4.4c0.5,0.1,1.1-0.2,1.6-0.4c-0.1-0.5-0.1-1.2-0.4-1.5C1123.9,837.4,1122.5,836.4,1121.1,835.3z M1033.2,1276
		c2.6-0.4,4.2,0.3,4.9-1.2c0.6-1.2,0.5-2.6-1.3-3.5C1036,1272.5,1035.1,1273.6,1033.2,1276z M1005.3,690.5c-0.1-0.1-0.2-0.3-0.2-0.4
		c-0.2,0.2-0.5,0.4-0.7,0.6c0.1,0.1,0.2,0.3,0.2,0.3C1004.8,690.8,1005,690.6,1005.3,690.5z M1132.4,324.5c-0.1-0.3-0.3-0.5-0.4-0.8
		c-0.1,0.3-0.2,0.7-0.2,1c0,0.2,0.1,0.3,0.2,0.5C1132.1,325,1132.2,324.8,1132.4,324.5z M1037.1,683.3c-0.1,0.1-0.3,0.1-0.5,0.2
		c0.2,0.1,0.4,0.3,0.6,0.4c0,0,0.2-0.2,0.3-0.3C1037.4,683.4,1037.3,683.3,1037.1,683.3z"/>
	<path id="XMLID_1231_" d="M973.8,915.7c0.2-2.7,0.3-5.5,0.6-8.2c0.1-1,0.8-2,1.9-1.8c0.8,0.2,1.6,0.9,2.2,1.6
		c0.4,0.4,0.4,1.1,0.6,1.7c1.2,5.3,1,10.6,0.6,15.9c-0.1,0.6-0.3,1.2-0.6,1.6c-0.4,0.6-1.1,1.3-1.6,1.4c-0.6,0-1.5-0.6-1.8-1.1
		c-0.6-1.2-1-2.6-1.2-3.9c-0.3-2.3-0.3-4.7-0.4-7.1C973.9,915.7,973.9,915.7,973.8,915.7z"/>
	<path id="XMLID_1230_" d="M973.6,853.3c0.2-1.6,0.4-4.2,0.8-6.7c0.1-0.6,1.1-1.5,1.5-1.4c0.8,0.1,1.9,0.6,2.3,1.3
		c0.6,1,0.9,2.2,0.9,3.4c0.3,4.1,0.6,8.2,0.7,12.3c0,0.7-0.1,1.6-0.5,2.2c-0.4,0.6-1.2,1.3-1.8,1.2c-0.9,0-2-0.4-2.5-1.1
		c-0.6-0.9-0.9-2.2-1-3.3C973.8,859,973.8,856.6,973.6,853.3z"/>
	<path id="XMLID_1229_" d="M975,887.2c0.1-2.1,0.2-4.3,0.4-6.4c0.1-0.8,0.2-1.6,0.5-2.3c0.2-0.5,0.8-1,1.3-1c0.7,0,1.7,0.2,2,0.7
		c0.7,1.1,1.3,2.5,1.5,3.8c0.6,4.5,0.4,9-0.4,13.4c-0.1,0.6-0.4,1.1-0.6,1.6c-0.6,1.3-2.7,1.6-3.4,0.4c-0.7-1.1-1.3-2.5-1.4-3.7
		c-0.2-2.1-0.1-4.3-0.1-6.4C974.8,887.2,974.9,887.2,975,887.2z"/>
	<path id="XMLID_1228_" d="M975.6,949.4c0.1-2.1,0.2-4.3,0.4-6.4c0.1-0.7,0.5-1.4,0.9-2.1c0.4-0.7,2.1-0.7,2.6,0
		c0.4,0.6,1,1.4,1,2.1c0.2,4.5,0.3,8.9,0.4,13.4c0,0.4-0.1,0.8-0.4,1.1c-0.5,0.5-1.2,1.3-1.8,1.3c-0.8-0.1-1.9-0.6-2.4-1.3
		c-0.5-0.7-0.6-1.8-0.7-2.8c-0.1-1.8,0-3.5,0-5.3C975.7,949.4,975.6,949.4,975.6,949.4z"/>
	<path id="XMLID_1227_" d="M651.1,1217.3c1.5-1.1,2.2-0.3,2.6,0.5c2.6,4.7,2.5,9.5-0.3,14.1c-2.9,5-7.2,8.4-12.9,9.8
		c-2.4,0.6-4.9,1.6-7.4,0.7c-0.4-1.2,0.1-1.7,0.9-2c1.9-0.6,3.8-1,5.6-1.8c2.2-0.9,4.4-1.8,6.3-3.2c5.2-3.9,7.6-9,5.6-15.6
		C651.4,1219,651.2,1218.1,651.1,1217.3z"/>
	<path id="XMLID_1226_" d="M190.6,1157.8c-0.9-1.1-1.7-2.1-2.5-3.1c2.8-3.6,26.6-23.6,34-28.7c2.6,2.1,2.9,2.9,1.4,4.6
		c-1.4,1.6-2.9,3.2-4.6,4.6c-8.8,7.3-17.7,14.6-26.5,21.8C192.1,1157.3,191.6,1157.4,190.6,1157.8z"/>
	<path id="XMLID_1225_" d="M184.3,1150.4c-0.9-1-1.6-1.9-2.5-2.9c0.8-1,1.4-2.1,2.2-2.8c9.5-8.9,19-17.7,28.6-26.6
		c1.1-1,2-2.8,3.9-1.7c1.3,0.8,1.1,2.5-0.7,4.6c-9.2,10.3-19.1,19.9-29.9,28.6C185.7,1149.8,185.3,1149.9,184.3,1150.4z"/>
	<path id="XMLID_1224_" d="M198.7,1167c-0.6-0.6-1.3-1.5-1.8-2c0.2-1.1,0.2-1.6,0.4-1.8c1.3-1.2,2.6-2.4,3.9-3.6
		c8.1-7.2,16.2-14.4,24.4-21.6c0.9-0.8,1.7-1.7,2.8-2.1c0.5-0.2,1.6,0.1,2,0.6c0.5,0.5,0.7,1.4,0.6,2.1c-0.1,0.7-0.7,1.4-1.3,1.9
		c-9,9.4-18.7,18.2-29.1,26C200.4,1166.5,200.2,1166.5,198.7,1167z"/>
	<path id="XMLID_1223_" d="M967,1213.8c-0.6,0.5-1,0.7-1.3,1c-0.4-0.6-0.9-1.1-1-1.7c-0.1-0.2,0.7-0.7,1.1-1
		C966.1,1212.6,966.5,1213.2,967,1213.8z"/>
	<path id="XMLID_1222_" d="M964.5,1200.8c-0.3,0.2-0.6,0.4-0.8,0.6c-0.2-0.4-0.4-0.9-0.6-1.3c0.3-0.1,0.8-0.4,0.9-0.3
		C964.3,1200,964.4,1200.4,964.5,1200.8z"/>
	<path id="XMLID_1221_" d="M963.2,1188.5c-0.2,0.3-0.5,0.7-0.8,1.1c-0.2-0.3-0.6-0.6-0.6-0.8c0.1-0.5,0.4-0.9,0.6-1.3
		C962.7,1187.8,962.9,1188.1,963.2,1188.5z"/>
	<path id="XMLID_1220_" d="M695.7,1026.9c-2.7,0.9-4.2-0.5-5.4-2.4c-1.4-2.3-1-4.4,0.9-6.8c1.8,1.2,0.8,3.3,1.6,4.7
		C693.6,1024,694.6,1025.3,695.7,1026.9z"/>
	<path id="XMLID_1219_" d="M926.3,1037.2c0.3-0.6,0.3-1.2,0.6-1.3c3.1-1.4,6.1-0.9,9,0.6c0.4,0.2,0.6,1,0.5,1.5
		c-0.1,0.4-0.7,1-1.2,1C932.1,1039.3,929.1,1038.8,926.3,1037.2z"/>
	<path id="XMLID_1218_" d="M814.6,1026.9c3.5-0.3,6.5-1.2,9.5-0.1c0.4,0.2,0.7,0.8,0.8,1.3c0.1,0.2-0.3,0.8-0.6,0.9
		c-3.2,0.8-6.4,1.2-9.5-0.5C814.7,1028.4,814.8,1027.9,814.6,1026.9z"/>
	<path id="XMLID_1217_" d="M851.6,1030.2c1.6,0.4,3.8,0.9,6.1,1.5c0.2,0.1,0.6,0.7,0.5,0.9c-0.2,0.5-0.6,1.2-1,1.3
		c-3.2,0.5-6.2-0.4-9.1-1.6c-0.2-0.1-0.4-0.7-0.3-1c0.1-0.3,0.4-0.7,0.7-0.8C849.3,1030.3,850.1,1030.3,851.6,1030.2z"/>
	<path id="XMLID_1216_" d="M887.8,1033.4c0.1-0.2,0.1-0.5,0.2-0.5c2.9-1,5.8-0.5,8.6,0c0.3,0.1,0.7,0.5,0.8,0.8
		c0.1,0.3,0,0.9-0.2,1.1c-1.5,1.3-3.4,0.8-5.1,0.8C890,1035.5,890,1035.4,887.8,1033.4z"/>
	<path id="XMLID_1215_" d="M535.5,787.8c-1.3-1.8-2.5-3.5-3.9-5.5c0.6-1.4,1.2-2.9,1.7-4.4c0.7,0.2,1.2,0.1,1.4,0.3
		c1.8,2.4,2.2,5.3,2.1,8.2C536.8,786.9,536.1,787.2,535.5,787.8z"/>
	<path id="XMLID_1211_" d="M1256.3,666.9c2.4,12.9,3.8,25.6,3.6,38.5c0,1.5-0.5,3.1-1.2,4.5c-1,1.9-3.7,1.9-5,0.2
		c-0.5-0.6-1-1.3-1.2-2c-1-4.2-2.3-8.4-2.7-12.7c-0.8-7.8-1-15.7-1.5-23.6c0-0.4-0.1-0.8-0.1-1.2c-0.1-4.3,1.5-5.6,5.9-4.6
		C1254.8,666.1,1255.3,666.4,1256.3,666.9z M1256,699.4c-0.5-6.2-1-12.3-1.6-18.4c-0.5,5.5-0.2,11,0.1,16.4
		C1254.5,698.1,1254.5,699,1256,699.4z M1253.2,672.5c0-0.2,0-0.3,0-0.5c-0.1,0.2-0.3,0.3-0.3,0.5c0,0.1,0.1,0.3,0.1,0.5
		C1253.1,672.8,1253.2,672.7,1253.2,672.5z"/>
	<path id="XMLID_1208_" d="M1247,695c-0.2,3.6-0.3,6.8-0.6,10c-0.2,1.8-0.8,3.4-2.4,4.6c-1.8,1.4-4,1.2-5.1-0.8
		c-0.9-1.7-1.8-3.6-2.1-5.5c-0.5-3.3-0.7-6.7-1-10c-0.4-4.5-0.8-9-1.1-13.6c-0.1-2.2-0.4-4.4-0.1-6.5c0.3-3,2.3-5,5.1-6
		c2.2-0.8,3.9,0.1,4.6,2.4c0.4,1.5,0.8,3.1,0.9,4.6C1245.9,681.3,1246.4,688.4,1247,695z M1240.2,672.3c-1.7,3.1-1.7,3.2-1.3,5.7
		c1,5.6,1.7,11.2,1.5,16.9c-0.1,2.1,0.3,4.3,0.5,6.4c0,0.4,0.5,0.8,1.3,1.8c1.3-10.2-0.7-19.5-1-28.8
		C1241.2,673.8,1240.6,673.2,1240.2,672.3z"/>
	<path id="XMLID_1207_" d="M1175.4,1237.9c0-0.9-0.3-1.9,0.1-2.7c0.6-1.4,1.7-2.7,2.4-4.1c0.9-1.9,1.8-3.9,2.5-6
		c1-2.8,0.4-5.4-1.7-7.7c-1.1-1.2-2.2-2.4-2.9-3.7c-0.4-0.7-0.3-1.9,0.1-2.7c0.2-0.4,1.4-0.7,2.1-0.6c5.6,1.4,9.6,6.6,9.3,12.2
		c-0.4,7.1-3.8,12.3-10.4,15.2C1176.5,1238.2,1176.1,1238,1175.4,1237.9z"/>
	<path id="XMLID_1206_" d="M1406.1,1229.7c0.2,4.1-0.9,8-4.7,10.6c-0.6,0.4-1.4,0.7-2.1,1c-1.2,0.4-2.5-0.7-2.3-1.9
		c0.1-0.8,0.3-1.6,0.7-2.2c4.2-6.3,2.6-12.3-0.6-18.3c-0.9-1.7-2.1-3.3-3-5c-0.3-0.5-0.2-1.7,0.2-2.1c0.4-0.4,1.5-0.5,2.1-0.2
		c3.7,1.4,6.2,4,7.8,7.6C1405.6,1222.5,1406.2,1225.9,1406.1,1229.7z"/>
	<path id="XMLID_1205_" d="M1166.2,305.7c1.7,1.8,3,3.3,4.3,4.7c0.1,0.1,0.1,0.4,0.2,1c-0.9,0.4-1.9,1.3-2.8,1.2
		c-3.2-0.4-5.6-2.1-6.5-5.2c-1.1-3.7-0.8-7.4,1.1-10.9c0.1-0.2,0.2-0.4,0.4-0.4c0.7-0.2,1.4-0.6,2.1-0.5c0.4,0,0.9,0.8,1,1.2
		c0.1,1,0,2,0,2.9C1166,301.8,1166.1,304,1166.2,305.7z"/>
	<path id="XMLID_1204_" d="M1223.6,298c0.7,0.7,1.4,1.3,2.1,2c-0.2,2.1-2.3,1.8-3.7,3c-0.1,2-0.2,4.3-0.3,6.8
		c-0.8-0.2-1.6-0.1-1.8-0.4c-2.9-3.9-3.1-9.5-0.3-13.1c0.7-0.9,1.8-1.5,2.8-2.1c0.9-0.5,2,0.3,1.8,1.5
		C1224.2,296.5,1223.8,297.2,1223.6,298z"/>
	<path id="XMLID_1203_" d="M1157,304.9c-0.6,0.5-1.1,1.3-1.7,1.3c-3.5,0.3-6.1-3.4-5-6.7c0.3-0.8,1.8-1.5,2.4-1
		C1154.8,300.1,1156,302.3,1157,304.9z"/>
	<path id="XMLID_1202_" d="M1183.6,301.2c-0.4,0.3-0.9,1-1.5,1.1c-3,0.5-6.3-2.9-5.6-5.7c0.1-0.5,1.2-1.3,1.6-1.2
		c2.5,0.8,4.2,2.6,5.4,4.9C1183.6,300.4,1183.5,300.6,1183.6,301.2z"/>
</g>
<g id="XMLID_1198_">
	<path id="XMLID_1200_" class="st1" d="M828.3,1154.7c0,0,0,0.4-0.1,1.1c0,0.3,0,0.7,0,1.2c0,0.5,0,1,0.1,1.5
		c0.1,1.1,0.3,2.3,0.6,3.5c0.1,0.6,0.3,1.3,0.5,1.9c0.2,0.6,0.4,1.3,0.7,1.9c0.3,0.8,0.5,1.3,0.8,2c0.3,0.6,0.6,1.3,0.9,1.9
		c0.6,1.2,1.1,2.4,1.6,3.5c0.5,1.1,0.8,2,1.1,2.6c0.2,0.7,0.3,1.1,0.3,1.1s-0.4-0.2-0.9-0.6c-0.6-0.4-1.3-1-2.2-1.8
		c-0.9-0.8-1.8-1.8-2.7-3c-0.4-0.6-0.9-1.3-1.3-2c-0.4-0.7-0.8-1.5-1-2.2c-0.3-0.8-0.5-1.6-0.7-2.4c-0.2-0.8-0.3-1.6-0.3-2.4
		c-0.1-1.6,0.2-3.1,0.6-4.2c0.2-0.6,0.5-1.1,0.7-1.6c0.2-0.4,0.5-0.8,0.7-1.1c0.2-0.3,0.4-0.5,0.5-0.6
		C828.3,1154.8,828.3,1154.7,828.3,1154.7z"/>
</g>
<g id="XMLID_1195_">
	<path id="XMLID_1197_" class="st1" d="M836,1138c0,0,0.1,0.7,0.2,2c0.1,1.3,0.3,3,0.6,5.1c0.1,1.1,0.3,2.2,0.5,3.4
		c0.2,1.2,0.5,2.4,0.8,3.7c0.6,2.5,1.4,5.2,2.3,7.8c0.5,1.3,1,2.6,1.6,3.8l0.4,0.9l0.4,0.9c0.3,0.6,0.6,1.1,0.9,1.7
		c1.2,2.3,2.6,4.2,3.9,5.8c1.4,1.6,2.7,2.7,3.7,3.4c0.5,0.3,0.9,0.6,1.2,0.8c0.3,0.2,0.4,0.3,0.4,0.3s-0.2,0-0.5-0.1
		c-0.3,0-0.8-0.1-1.5-0.3c-0.6-0.2-1.4-0.4-2.2-0.8c-0.8-0.4-1.7-0.9-2.6-1.6c-1.9-1.3-3.7-3.3-5.3-5.6c-0.4-0.6-0.8-1.2-1.2-1.8
		l-0.5-0.9l-0.5-1c-0.7-1.3-1.2-2.7-1.8-4.1c-0.5-1.4-1-2.8-1.3-4.3c-0.4-1.4-0.6-2.8-0.8-4.2c-0.2-1.4-0.3-2.7-0.3-4
		c0-1.3,0-2.5,0.1-3.6c0.1-1.1,0.2-2.1,0.4-3c0.1-0.9,0.3-1.7,0.5-2.3c0.1-0.6,0.3-1.1,0.4-1.4C836,1138.2,836,1138,836,1138z"/>
</g>
<g id="XMLID_1192_">
	<path id="XMLID_1194_" class="st1" d="M355.2,1103.8c0,0,0.1,2.6-0.2,6.5c-0.1,2-0.4,4.2-0.8,6.6c-0.2,1.2-0.4,2.5-0.7,3.7
		c-0.3,1.3-0.5,2.5-0.8,3.8c-0.3,1.3-0.7,2.5-1,3.8c-0.3,1.2-0.7,2.4-1.1,3.6c-0.7,2.3-1.5,4.5-2.3,6.3c-1.5,3.6-2.7,5.9-2.7,5.9
		s0.1-0.6,0.3-1.8c0.2-1.1,0.6-2.7,1-4.6c0.9-3.8,2.1-8.8,3.3-13.8c1.2-5,2.4-10.1,3.3-13.8c0.5-1.9,0.9-3.5,1.1-4.6
		C355,1104.5,355.2,1103.8,355.2,1103.8z"/>
</g>
<g id="XMLID_1189_">
	<path id="XMLID_1191_" d="M276.2,1232.9c0,0-0.2,0-0.4-0.1c-0.3,0-0.7,0-1.2,0c-1,0.1-2.4,0.5-3.9,1.4c-0.7,0.4-1.5,1-2.2,1.6
		c-0.8,0.7-1.5,1.4-2.2,2.1c-0.7,0.8-1.4,1.7-1.9,2.6c-0.6,0.9-1,1.9-1.2,2.9c-0.2,1-0.3,2.1-0.1,3c0.2,1,0.6,2,1,3
		c0.3,0.5,0.5,1,0.7,1.4c0.3,0.4,0.5,0.9,0.8,1.3c0.6,0.8,1.2,1.5,1.8,2.1c1.2,1.2,2.5,1.9,3.5,2.2c0.5,0.2,0.9,0.3,1.2,0.3
		c0.3,0.1,0.4,0.1,0.4,0.1s-0.2,0-0.4,0c-0.3,0-0.7,0.1-1.3,0c-0.5-0.1-1.2-0.2-1.9-0.4c-0.7-0.3-1.5-0.6-2.3-1.2
		c-0.8-0.5-1.6-1.2-2.3-2c-0.4-0.4-0.7-0.8-1.1-1.3c-0.4-0.5-0.7-1-0.9-1.5c-0.6-1.1-1.1-2.2-1.4-3.5c-0.3-1.3-0.3-2.7,0-4.1
		c0.3-1.3,0.9-2.6,1.6-3.7c0.7-1.1,1.5-2,2.4-2.8c0.9-0.8,1.8-1.5,2.7-2.1c0.9-0.6,1.8-1.1,2.7-1.4c1.8-0.7,3.4-0.8,4.5-0.6
		c0.5,0.1,1,0.3,1.2,0.4C276,1232.8,276.2,1232.9,276.2,1232.9z"/>
</g>
<g id="XMLID_1186_">
	<path id="XMLID_1188_" d="M1002.8,781c0,0,0.9,0,2.4-0.1c1.5,0,3.6-0.1,6.2-0.1c5.1-0.1,12-0.2,18.8-0.3c6.8-0.1,13.7-0.3,18.8-0.4
		c2.6,0,4.7-0.1,6.2-0.1c1.5,0,2.4,0,2.4,0s-3.4,0.8-8.5,1.5c-2.6,0.4-5.6,0.7-8.8,1c-1.6,0.1-3.3,0.3-5,0.3
		c-1.7,0.1-3.4,0.1-5.1,0.2c-1.7,0-3.4,0-5.1,0c-1.7,0-3.4-0.1-5-0.1c-3.2-0.1-6.2-0.4-8.8-0.6c-2.6-0.2-4.7-0.6-6.2-0.8
		C1003.6,781.1,1002.8,781,1002.8,781z"/>
</g>
<g id="XMLID_1183_">
	<path id="XMLID_1185_" d="M1026.3,775.1c0,0,0.5-0.1,1.4-0.1c0.9-0.1,2.2-0.1,3.7-0.2c1.5-0.1,3.3-0.1,5.2-0.2
		c1.9-0.1,3.9-0.1,6-0.1c1,0,2,0,3,0c1,0,2,0,2.9,0c1.9,0,3.7,0,5.2,0c1.5,0,2.8,0.1,3.7,0.1c0.9,0,1.4,0.1,1.4,0.1s-2,0.7-5,1.2
		c-1.5,0.3-3.3,0.5-5.2,0.7c-1,0.1-2,0.2-3,0.2c-1,0-2,0.1-3.1,0.1c-1,0-2.1,0-3.1,0c-1,0-2-0.1-3-0.1c-1.9-0.1-3.7-0.3-5.2-0.6
		C1028.2,775.7,1026.3,775.1,1026.3,775.1z"/>
</g>
<g id="XMLID_1180_">
	<path id="XMLID_1182_" d="M345.7,1242.8c0,0,4.1,0,11.3-0.1c7.2,0,17.4-0.1,29.7,0c12.3,0.1,26.6,0.1,42,0.3
		c15.4,0.2,31.7,0.4,48.1,0.6c16.4,0.3,32.7,0.7,48.1,1c15.4,0.3,29.7,0.8,42,1.1c12.3,0.3,22.5,0.7,29.7,1
		c7.2,0.3,11.3,0.4,11.3,0.4s-4.1,0-11.3,0.1c-7.2,0-17.4,0.1-29.7,0c-12.3-0.1-26.6-0.1-42-0.3c-15.4-0.2-31.7-0.4-48.1-0.6
		c-16.4-0.3-32.7-0.7-48.1-1c-15.4-0.3-29.7-0.8-42-1.1c-12.3-0.3-22.5-0.7-29.7-0.9C349.8,1243,345.7,1242.8,345.7,1242.8z"/>
</g>
<g id="XMLID_1177_">
	<path id="XMLID_1179_" d="M1369.3,797.8c0,0,0,0.6,0.1,1.7c0,0.5,0,1.2,0,2c0,0.4-0.1,0.8-0.1,1.2c0,0.4-0.1,0.9-0.2,1.3
		c-0.1,0.5-0.1,1-0.3,1.5c-0.1,0.5-0.3,1-0.4,1.5c-0.3,1.1-0.7,2.1-1.1,3.3c-0.5,1.1-0.9,2.2-1.6,3.3c-0.6,1.1-1.3,2.2-2,3.2
		c-0.8,1-1.5,2-2.4,2.9c-0.8,1-1.8,1.8-2.6,2.6c-0.9,0.8-1.8,1.5-2.7,2.1c-0.5,0.3-0.9,0.6-1.3,0.9c-0.4,0.3-0.9,0.5-1.3,0.7
		c-0.4,0.2-0.8,0.4-1.2,0.6c-0.4,0.2-0.8,0.3-1.1,0.5c-0.7,0.3-1.3,0.5-1.9,0.7c-1,0.3-1.6,0.5-1.6,0.5s0.5-0.4,1.4-0.9
		c0.5-0.3,1-0.7,1.6-1.1c0.6-0.4,1.3-0.9,2-1.5c0.7-0.5,1.5-1.2,2.3-1.9c0.8-0.7,1.5-1.5,2.4-2.2c0.8-0.8,1.6-1.7,2.3-2.6
		c0.8-0.9,1.5-1.9,2.2-2.8c0.7-1,1.4-2,1.9-3c0.6-1,1.1-2,1.7-3c0.4-1,1-2,1.3-3c0.4-1,0.7-1.9,1-2.7c0.3-0.9,0.5-1.7,0.7-2.4
		c0.2-0.7,0.4-1.3,0.5-1.9C1369.2,798.4,1369.3,797.8,1369.3,797.8z"/>
</g>
<g id="XMLID_1174_">
	<path id="XMLID_1176_" d="M1359,801.8c0,0-0.3,0.8-0.8,2c-0.2,0.7-0.6,1.4-1.1,2.3c-0.2,0.4-0.5,0.9-0.7,1.4
		c-0.3,0.5-0.6,1-0.9,1.5c-0.3,0.5-0.6,1.1-1,1.6c-0.4,0.5-0.8,1.1-1.2,1.6c-0.8,1.1-1.8,2.2-2.8,3.3c-1.1,1.1-2.2,2.2-3.4,3.2
		c-1.2,1.1-2.5,2-3.8,2.9c-1.4,0.8-2.7,1.7-4.2,2.4c-1.4,0.8-2.9,1.3-4.3,2c-1.4,0.5-2.8,1-4.2,1.4c-0.7,0.2-1.3,0.3-2,0.5
		c-0.6,0.1-1.3,0.2-1.9,0.3c-0.6,0.1-1.2,0.2-1.7,0.3c-0.5,0-1.1,0.1-1.6,0.1c-1,0.1-1.8,0.1-2.5,0.1c-1.4,0-2.2,0-2.2,0
		s0.8-0.2,2.1-0.4c0.7-0.1,1.5-0.3,2.4-0.6c0.9-0.2,2-0.5,3.1-0.9c1.1-0.3,2.3-0.8,3.6-1.2c0.6-0.2,1.3-0.5,1.9-0.8
		c0.6-0.3,1.3-0.5,2-0.8c1.3-0.6,2.7-1.3,4-2c1.4-0.7,2.6-1.6,3.9-2.4c1.3-0.9,2.6-1.7,3.7-2.7c1.2-0.9,2.3-1.9,3.4-2.9
		c0.5-0.5,1-1,1.5-1.5c0.5-0.5,1-1,1.4-1.5c0.9-1,1.8-1.9,2.5-2.8c0.8-0.9,1.4-1.8,2-2.5c0.6-0.8,1.1-1.4,1.4-2
		C1358.5,802.5,1359,801.8,1359,801.8z"/>
</g>
<g id="XMLID_1171_">
	<path id="XMLID_1173_" d="M1128.5,810.1c1,1.2,2,2.3,3,3.5c1,1.1,2.1,2.2,3.1,3.3l1.6,1.6l1.7,1.5c1.1,1,2.3,1.9,3.5,2.8
		c1.2,0.9,2.4,1.7,3.7,2.5c0.6,0.4,1.3,0.7,1.9,1.1c0.6,0.3,1.3,0.6,2,0.9c0.7,0.3,1.4,0.5,2,0.8c0.7,0.2,1.4,0.4,2.1,0.6
		c0.7,0.2,1.4,0.3,2.1,0.4l2.1,0.2l-0.3,2.4c-3.7-0.6-7.4-1.3-11.1-2.2c-1.8-0.5-3.7-1-5.4-1.7c-0.9-0.3-1.8-0.7-2.6-1.1
		c-0.9-0.4-1.7-0.8-2.6-1.3l-1.2-0.7l-1.2-0.8c-0.8-0.5-1.6-1.1-2.3-1.7c-0.7-0.6-1.4-1.3-2.1-2c-0.7-0.7-1.3-1.4-1.9-2.2
		c-0.6-0.8-1.1-1.6-1.6-2.4c-0.5-0.8-0.9-1.7-1.3-2.5l-0.5-1.3l-0.4-1.4l-0.3-1.4l-0.2-1.4l0.4,1.3l0.5,1.3l0.5,1.3l0.6,1.2
		c0.5,0.8,1,1.6,1.5,2.3c0.6,0.7,1.2,1.4,1.8,2.1c0.6,0.7,1.3,1.3,2,1.9c0.7,0.6,1.4,1.1,2.1,1.7c0.7,0.5,1.5,1,2.3,1.5l1.2,0.7
		l1.2,0.6c0.8,0.4,1.6,0.8,2.5,1.1c0.8,0.3,1.7,0.7,2.6,1c1.7,0.6,3.5,1.1,5.3,1.5c3.6,0.9,7.2,1.5,10.9,2.2l-0.3,2.4
		c-0.8-0.1-1.6-0.2-2.4-0.3c-0.8-0.2-1.6-0.3-2.3-0.5c-0.8-0.2-1.5-0.5-2.3-0.7c-0.7-0.3-1.5-0.6-2.2-0.9c-0.7-0.4-1.4-0.7-2.1-1.1
		c-0.7-0.4-1.4-0.8-2-1.2c-1.3-0.9-2.5-1.8-3.7-2.8c-0.6-0.5-1.2-1-1.7-1.5l-1.7-1.6c-1.1-1.1-2.1-2.2-3.1-3.4
		c-1-1.2-1.9-2.4-2.8-3.7l-1.3-1.9L1128.5,810.1z"/>
</g>
<polyline id="XMLID_1170_" points="1099.6,279.9 1067.9,275.9 1043.4,279.9 1030.4,289 1030.4,298.4 1059.6,311.5 1115.7,315.1 
	1132.4,312.6 1132.4,279.9 1101.4,275.9 "/>
<polygon id="XMLID_1169_" points="1205.8,273.1 1212,288.4 1221.7,288.4 1230.4,288.4 1239.4,301.4 1266.4,294.1 1285.6,287.2 
	1295.7,283.4 1293.5,269.4 "/>
<polygon id="XMLID_1168_" points="386.9,1204.8 372.7,1182.1 600.7,1212.6 "/>
<path id="XMLID_1167_" d="M904.6,1278.8c34-21.1,71.7-23.2,114.5,1.5L904.6,1278.8z"/>
<polygon id="XMLID_1166_" points="976.6,813.3 987.1,813.3 976.9,832.2 "/>
<polygon id="XMLID_1165_" points="563,900.7 570.9,939.4 591.5,958.2 "/>
<g id="XMLID_1162_">
	<path id="XMLID_1164_" d="M152.9,1071.5c0,0,5.9-0.4,14.8-0.6c2.2,0,4.6-0.1,7.2-0.1c2.5,0,5.2,0,8,0c2.8,0,5.6,0,8.5,0.1
		c2.9,0.1,5.9,0.2,8.8,0.2c2.9,0.1,5.9,0.2,8.8,0.4c2.9,0.1,5.8,0.3,8.5,0.4c5.5,0.3,10.7,0.7,15.1,1.1c8.8,0.7,14.7,1.6,14.7,1.6
		s-5.9,0.4-14.8,0.6c-4.4,0.1-9.6,0.1-15.1,0.1c-2.8,0-5.6,0-8.5-0.1c-2.9-0.1-5.9-0.2-8.8-0.2c-2.9-0.1-5.9-0.2-8.8-0.4
		c-2.9-0.1-5.8-0.3-8.5-0.5c-2.8-0.1-5.4-0.3-8-0.5c-2.5-0.2-4.9-0.4-7.1-0.6C158.8,1072.3,152.9,1071.5,152.9,1071.5z"/>
</g>
<polygon id="XMLID_1161_" points="128.4,1230.4 127.7,1244.7 200.1,1212.6 "/>
<g id="XMLID_1158_">
	<path id="XMLID_1160_" class="st1" d="M810.1,1028c0,0,7.6,0,19,0.4c2.9,0.1,5.9,0.2,9.2,0.4c3.3,0.2,6.7,0.3,10.3,0.5
		c3.6,0.2,7.2,0.4,11,0.7c3.7,0.3,7.5,0.5,11.3,0.8c3.8,0.3,7.6,0.6,11.3,0.9c3.7,0.3,7.4,0.7,10.9,1c7.1,0.7,13.7,1.4,19.4,2
		c11.3,1.3,18.9,2.5,18.9,2.5s-7.6,0.1-19-0.4c-5.7-0.2-12.4-0.5-19.5-0.9c-3.6-0.2-7.2-0.4-11-0.7c-3.7-0.3-7.5-0.5-11.3-0.8
		c-3.8-0.3-7.6-0.6-11.3-0.9c-3.7-0.3-7.4-0.7-10.9-1c-3.6-0.3-7-0.7-10.2-1c-3.3-0.3-6.3-0.7-9.2-1
		C817.6,1029.2,810.1,1028,810.1,1028z"/>
</g>
<line id="XMLID_1157_" class="st3" x1="853" y1="1014.4" x2="864.8" y2="1032.1"/>
<line id="XMLID_1156_" class="st3" x1="892.6" y1="1034.2" x2="877.7" y2="1047"/>
<g id="XMLID_1153_">
	<path id="XMLID_1155_" class="st1" d="M975.6,995.3c0,0,0.7-0.6,1.9-1.7c1.2-1.1,3-2.5,5.2-4.2c1.1-0.9,2.3-1.8,3.6-2.7
		c1.3-0.9,2.6-2,4.1-2.9c1.4-1,2.9-2.1,4.4-3.1c1.5-1,3.1-2,4.6-3.1c1.6-1,3.1-2,4.7-3c1.5-1,3.1-1.9,4.6-2.8c3-1.8,5.8-3.4,8.3-4.7
		c2.4-1.3,4.5-2.4,6-3.1c1.5-0.7,2.3-1.1,2.3-1.1s-0.7,0.6-1.9,1.7c-1.2,1.1-3,2.5-5.2,4.2c-2.2,1.7-4.8,3.7-7.6,5.7
		c-1.4,1-2.9,2.1-4.4,3.1c-1.5,1-3.1,2-4.6,3.1c-1.6,1-3.1,2-4.7,3c-1.5,1-3.1,1.9-4.6,2.8c-1.5,0.9-2.9,1.7-4.3,2.5
		c-1.4,0.8-2.7,1.5-3.9,2.2c-2.4,1.3-4.5,2.4-6,3.1C976.5,994.9,975.6,995.3,975.6,995.3z"/>
</g>
<line id="XMLID_1152_" class="st3" x1="1002.1" y1="958.8" x2="1000.6" y2="979.3"/>
<line id="XMLID_1151_" class="st3" x1="985.8" y1="988.7" x2="1006.9" y2="988.7"/>
<g id="XMLID_1148_">
	<path id="XMLID_1150_" class="st1" d="M1156.5,536.7c0,0,0.7-0.2,1.9-0.5c1.2-0.3,3.1-0.8,5.3-1.5c1.1-0.4,2.4-0.7,3.7-1.2
		c1.3-0.5,2.8-1,4.4-1.5c1.5-0.6,3.2-1.2,4.9-1.9c1.7-0.7,3.5-1.5,5.3-2.3c3.6-1.8,7.5-3.7,11.5-6c4-2.3,8-5,12.2-7.9
		c4.1-2.9,8.1-6.2,12.1-9.6c3.9-3.5,7.8-7.2,11.4-11.1c3.8-4,7.2-8,10.4-12.2c3.2-4.2,6.3-8.4,9.1-12.6c2.7-4.2,5.4-8.3,7.7-12.4
		c2.3-4,4.4-7.9,6.3-11.5c1.8-3.6,3.5-7,4.9-9.9c1.4-3,2.6-5.6,3.6-7.8c1.9-4.4,3-6.8,3-6.8s-0.2,0.7-0.5,1.9
		c-0.4,1.2-0.8,3-1.6,5.3c-0.7,2.3-1.6,5-2.8,8.2c-0.6,1.6-1.2,3.2-1.9,5c-0.7,1.7-1.5,3.5-2.2,5.4c-0.8,1.9-1.7,3.8-2.6,5.9
		c-1,2-1.9,4.1-3,6.2c-2.1,4.2-4.6,8.6-7.3,12.9c-2.7,4.4-5.7,8.8-9,13.1c-3.3,4.3-6.9,8.6-10.6,12.6c-3.9,4-7.8,7.8-12,11.4
		c-4.2,3.5-8.5,6.7-12.8,9.6c-4.3,2.9-8.6,5.4-12.9,7.5c-2.1,1.1-4.2,2.1-6.2,3c-2,0.9-4.1,1.6-6,2.4c-2,0.7-3.8,1.4-5.6,1.9
		c-1.8,0.5-3.5,1-5.1,1.5c-1.6,0.4-3.1,0.8-4.6,1.1c-1.4,0.3-2.7,0.5-3.9,0.7c-2.3,0.5-4.2,0.6-5.5,0.8
		C1157.2,536.6,1156.5,536.7,1156.5,536.7z"/>
</g>
<g id="XMLID_1145_">
	<path id="XMLID_1147_" class="st1" d="M1212.1,483.1c0,0,0.8-1,2.3-2.6c0.8-0.8,1.6-1.8,2.6-2.9c1-1.1,2.1-2.4,3.3-3.8
		c1.2-1.4,2.4-3,3.7-4.6c0.7-0.8,1.3-1.7,1.9-2.6c0.7-0.9,1.3-1.8,2-2.7c1.3-1.9,2.7-3.8,3.9-5.8c1.3-2,2.5-4.1,3.8-6.1
		c1.2-2.1,2.4-4.2,3.5-6.3c1.1-2.1,2.1-4.2,3.1-6.3c0.5-1,0.9-2.1,1.4-3.1c0.5-1,0.9-2,1.3-3c0.8-1.9,1.6-3.8,2.2-5.5
		c0.7-1.7,1.2-3.3,1.7-4.7c0.5-1.4,1-2.7,1.3-3.7c0.7-2.1,1.1-3.2,1.1-3.2s0,1.2-0.1,3.4c0,1.1-0.2,2.4-0.4,3.9
		c-0.1,0.8-0.2,1.6-0.3,2.4c-0.1,0.8-0.3,1.7-0.5,2.7c-0.2,0.9-0.4,1.9-0.6,2.9c-0.3,1-0.5,2-0.8,3c-0.3,1.1-0.6,2.1-1,3.2
		c-0.4,1.1-0.7,2.2-1.1,3.3c-0.9,2.2-1.7,4.5-2.9,6.7c-1,2.3-2.3,4.5-3.5,6.7c-1.3,2.1-2.6,4.3-4.1,6.3c-1.4,2.1-3,3.9-4.4,5.8
		c-0.8,0.9-1.5,1.8-2.3,2.6c-0.8,0.8-1.5,1.7-2.3,2.4c-0.8,0.8-1.5,1.5-2.3,2.2c-0.7,0.7-1.5,1.3-2.2,1.9c-0.7,0.6-1.4,1.2-2.1,1.8
		c-0.7,0.5-1.3,1-2,1.5c-1.2,0.9-2.3,1.7-3.2,2.3C1213.2,482.5,1212.1,483.1,1212.1,483.1z"/>
</g>
<polygon id="XMLID_1144_" points="307.4,1219.7 291.3,1279.2 318.5,1279.2 307.4,1245 "/>
<path id="XMLID_1143_" class="st4" d="M1159.8,657.8c-0.5,2.9-0.4,5.9,0.4,8.7"/>
<path id="XMLID_1142_" class="st4" d="M1179.3,661c-1.5,3.5-1.7,7.5-0.7,11.1"/>
<path id="XMLID_1141_" class="st4" d="M1213.5,662.9c-0.7,4.3-0.9,8.7-0.5,13"/>
<path id="XMLID_1140_" class="st4" d="M1281.3,659.7c0.1,4.1,1.1,8.2,2.8,11.9"/>
<path id="XMLID_1139_" class="st4" d="M1302.8,656c0.4,3.7,1.9,7.2,4.3,10"/>
<path id="XMLID_1138_" class="st4" d="M1323.3,649.2c0.4,4.4,2.3,8.7,5.5,11.8"/>
</svg>
