<?xml version="1.0" encoding="utf-8"?>
<!-- Generator: Adobe Illustrator 22.1.0, SVG Export Plug-In . SVG Version: 6.00 Build 0)  -->
<svg version="1.1" id="Layer_6" xmlns="http://www.w3.org/2000/svg" xmlns:xlink="http://www.w3.org/1999/xlink" x="0px" y="0px"
	 viewBox="0 0 1527.1 1502.4" style="enable-background:new 0 0 1527.1 1502.4;" xml:space="preserve">
<style type="text/css">
	.st0{fill:#FFFFFF;}
	.st1{fill:#E84B6C;}
	.st2{fill:none;stroke:#E84B6C;stroke-width:5;stroke-miterlimit:10;}
	.st3{fill:none;stroke:#000000;stroke-width:9;stroke-miterlimit:10;}
	.st4{fill:none;stroke:#000000;stroke-miterlimit:10;}
	.st5{fill:none;}
</style>
<path id="XMLID_418_" class="st0" d="M609.9,602.9l1.7-48.6l-20.3-3l16.7-23.2l-1-22.1l61.7-9.8l45.4-14.4
	c8.7,15.1,18.2,26.6,29.6,27.1l33.6,12.5l7.7,14.9l-12.2,16.2l-18.7-1.1c1.2,10.1-3.8,18-13.3,24.5V628l-36,12.6l-60.1-8.1
	l-33.1-18.6L609.9,602.9z"/>
<path id="XMLID_417_" class="st0" d="M299.8,575.8L279,551.3l1.5-37l68.6-22l111.6,2.4l36,25.4l6.8,85.5V661l-53.8,35.3
	c2.1,32.5,14.4,64.8,34.1,97.1l13.3-16V875l-63.8-50.9l-68.5,35l-17,50.5c20.3,29.1,46.3,57.2,73,85.2l28.4,79.1l10.3-4.7l26.7,10.8
	l17.6,40.6c1.2,12.6-3.9,18.4-16.1,16.5c0,0-19.9,12.1-27,13.5c-7.2,1.4-100.6,4.9-100.6,4.9l-73.8-16.1l-54.2-25.7l-52.6-31.3
	l-24.6-28.2l-40.1-4.6l-31.1-14.9L57.3,1009L49,973.2l-14.6-42l6.2-38.1l23.5-26.9l22,3.8l10.6,23.2l5.6,48.1l4.2,35l31.3,16
	l14.5-4.7l16.3-74.8l-42.7-12.2l-13.2-22.1l-4.8-29.7l12.6-24l77.5-64.8l69.4-43.7l72.4-37.9l6.3-72.8l-19,3.6l-12.4,4.5l-8.1-8.1
	l3.3-10.3l79.4-51.9l-36.1,29L299.8,575.8z"/>
<polygon id="XMLID_416_" points="534.9,490.3 540,501.1 568.1,504.7 619.9,503 679.4,497.5 714.1,485.7 714.1,481.8 700.8,481.8 
	699.1,475.2 708.7,469.4 697.5,451.7 675.5,439.7 642.9,445.1 623.7,472.2 613.3,483 568.1,483 540,486.8 "/>
<polygon id="XMLID_415_" points="550.7,912.8 469.2,843.5 433.3,824.2 420.8,824.2 372.4,842.9 352.8,868.5 352.8,917.3 
	374.2,953.9 403.6,971.2 425.1,1002.4 446.4,1069.2 465.2,1069.2 486.2,1080 508.2,1116.1 550.7,1149.5 592.1,1176 627.2,1194.1 
	672.8,1194.1 708.8,1194.1 753.9,1177.9 819.8,1177.2 878.6,1157.1 994.2,1080 1071.8,1009.5 957.9,878.6 877.5,951.5 858.2,1052 
	801.8,1071.3 730,1073.9 641.1,1058.2 596.8,1034.9 578.6,1021.1 "/>
<polygon id="XMLID_414_" points="1026.6,824.9 1110.6,943.5 1129,966.5 1145.2,946.1 1166.3,929.1 1181.9,878.6 1169,838 
	1127.9,813.6 1092.3,802.5 1058.3,808 "/>
<path id="XMLID_413_" class="st1" d="M455.8,693.1l-3.5,35.2l36.5,58.2l31.8-20.1l61.8,259.2l41.3,26.4l53.8,12.5l77.2,9.3l62.7-4.7
	l40.8-17.2l41.9-252.6l20.6,40.3l16.1-15.3c23.8-11.5,42.5-28.2,47.3-55.2l-91.7-117.3L860.2,628l-39.2-8.3l-47.9-7.8L740.8,628
	l-36,12.6l-50.7-5.3l-29.6-19.5l-21.4-2.1l-22.5,4L455.8,693.1z"/>
<polygon id="XMLID_412_" class="st1" points="510.8,397.8 498.6,378.7 484.5,371.4 468.2,378.2 460.6,401.3 472.5,425 501,464.7 
	519.2,455.8 542.6,444.5 558.3,423.9 564.6,400.3 549.2,381 528.9,385.6 "/>
<polygon id="XMLID_411_" class="st1" points="331,578 306.2,578 291.2,586.7 271.2,602.2 258.1,618.9 254.6,651.9 254.6,675.8 
	264.5,685.2 281.3,685.2 290.3,671.3 290.3,651.9 290.3,628 296.9,606.9 319.5,590.4 339.6,583.2 "/>
<path id="XMLID_410_" d="M272,517.5c-1.9,11.5,2.3,22.7,6.9,33.8l19.5-28.2l17.8-22L272,517.5z"/>
<polygon id="XMLID_409_" points="199.2,927.8 197,943.4 198.1,955.2 203.7,966.3 215.6,976.3 233,973.7 244.7,964.3 254.3,949.4 
	253.6,934.6 243.6,920.9 231.5,914.1 215.6,918.4 "/>
<polygon id="XMLID_408_" points="336.9,944.2 334.9,952.3 331.8,967.5 336.9,978.3 351.5,984 371.8,987.7 386.5,979.5 394.7,968.8 
	383.3,955.2 363.2,945.5 345.6,941.3 "/>
<polygon id="XMLID_407_" points="214.4,1100.4 225.6,1092.1 239.6,1082.6 256,1082.6 270.7,1084.3 278.9,1093 284.5,1097.7 
	293.8,1105 294.2,1112.9 299.3,1127.9 299.2,1136 299.3,1145.1 260.4,1128.5 224.5,1110 "/>
<polygon id="XMLID_406_" points="76.8,870 66.4,891.5 66.4,905.6 71.6,917.2 86.6,919.8 96.6,919.5 102.3,922.2 96.6,893.2 
	90.1,882.2 "/>
<polygon id="XMLID_405_" points="269.6,1014.1 268.2,1023.8 272,1029 282.3,1028.8 286.2,1026.2 286.2,1019.5 287.7,1012.7 
	278,1009.1 272,1013.1 "/>
<polygon id="XMLID_404_" points="385.2,1050.3 385.2,1067.4 396.9,1076.1 403.6,1074.6 413,1076.1 419.2,1069.2 422.4,1061 
	424.2,1050.3 417.2,1044.9 414.3,1037.8 404.5,1035 396.4,1036.6 387.6,1044.9 "/>
<path id="XMLID_403_" d="M346.2,624.9l17.7,3l10.7,5.4l4.5,11.9v9.6l-6.2,8.1l-7.2,4.2c0,0-12.4,11.3-13.2,11.5
	c-0.8,0.2-12.9,0-12.9,0L346.2,624.9z"/>
<polygon id="XMLID_402_" points="387,589.3 397.2,590.4 402.1,594.5 404.7,600.2 402.1,606.1 398.9,611.9 395.5,613.9 385.3,600.2 
	385.3,589.3 "/>
<polygon id="XMLID_401_" points="455.6,580.9 461.5,598 477.7,605.8 484.1,596 481.3,580.9 481.3,566.2 475.1,566.2 463.2,572 "/>
<polygon id="XMLID_400_" points="329.1,498.2 336.1,508.9 344.9,511.4 353.1,508.9 360.4,504.8 362.7,494.8 "/>
<path id="XMLID_399_" d="M418,491.4c1.4,0.9,11,29.3,32.2,29.3c21.1,0,15.1-23.8,15.1-23.8L418,491.4z"/>
<line id="XMLID_398_" class="st2" x1="450.8" y1="414.2" x2="411.7" y2="410.3"/>
<line id="XMLID_397_" class="st2" x1="455.6" y1="379.8" x2="424.3" y2="358.8"/>
<line id="XMLID_396_" class="st2" x1="513.3" y1="367.4" x2="512.6" y2="335"/>
<line id="XMLID_395_" class="st2" x1="480.5" y1="357.6" x2="468.2" y2="331.9"/>
<line id="XMLID_394_" class="st2" x1="586.3" y1="367.4" x2="567.7" y2="387.5"/>
<line id="XMLID_393_" class="st2" x1="553.4" y1="341.2" x2="544.2" y2="367.4"/>
<line id="XMLID_392_" class="st2" x1="616.1" y1="412.3" x2="577" y2="418"/>
<polygon id="XMLID_391_" class="st0" points="920.8,839.6 995.8,922.2 1084.9,1019.4 1189.3,1104.5 1268.5,1154.2 1352.8,1175.6 
	1453.7,1192.1 1483.3,1186.2 1477.9,1175.6 1504.7,1165.2 1475.6,1145.1 1509.4,1152.9 1486.7,1134.9 1466.6,1115.5 1406.6,1104.5 
	1438.5,1097 1438,1085.6 1410.2,1084 1373.7,1084 1319.7,1091.5 1284.4,1086.2 1189.3,1023 1110.6,943.5 984.2,769.2 959.8,820 "/>
<line id="XMLID_390_" class="st3" x1="947.3" y1="1110" x2="1189.3" y2="1104.5"/>
<g id="XMLID_387_">
	<path id="XMLID_389_" d="M24.7,1112.9c0,0,0.8-0.1,2.2-0.3c1.5-0.2,3.6-0.5,6.3-0.7c2.7-0.3,6.1-0.7,9.9-1c3.8-0.3,8.1-0.7,12.8-1
		c9.4-0.7,20.3-1.2,32-1.6c2.9-0.1,5.9-0.2,8.9-0.3c3-0.1,6.1-0.2,9.1-0.2c6.2-0.1,12.4-0.1,18.6-0.2c6.2,0,12.5,0,18.6,0.2
		c3.1,0,6.1,0.1,9.1,0.2c3,0.1,6,0.1,8.9,0.3c11.7,0.4,22.6,1,32,1.6c4.7,0.3,9,0.7,12.8,1c3.8,0.3,7.1,0.7,9.9,1
		c2.7,0.3,4.9,0.6,6.3,0.7c1.5,0.2,2.2,0.3,2.2,0.3s-0.8,0.1-2.2,0.3c-1.5,0.2-3.6,0.5-6.3,0.7c-2.7,0.3-6.1,0.7-9.9,1
		c-3.8,0.3-8.1,0.7-12.8,1c-9.4,0.7-20.3,1.2-32,1.6c-2.9,0.1-5.9,0.2-8.9,0.3c-3,0.1-6.1,0.1-9.1,0.2c-6.2,0.1-12.4,0.1-18.6,0.2
		c-6.2,0-12.5,0-18.6-0.2c-3.1,0-6.1-0.1-9.1-0.2c-3-0.1-6-0.1-8.9-0.3c-11.7-0.4-22.6-1-32-1.6c-4.7-0.3-9-0.7-12.8-1
		c-3.8-0.3-7.1-0.7-9.9-1c-2.7-0.3-4.9-0.6-6.3-0.7C25.5,1113,24.7,1112.9,24.7,1112.9z"/>
</g>
<g id="XMLID_384_">
	<path id="XMLID_386_" d="M267.2,639.4c0,0,0.4-1.4,1.2-3.8c0.4-1.2,0.9-2.7,1.5-4.4c0.3-0.8,0.7-1.7,1-2.7c0.4-0.9,0.8-1.9,1.2-2.9
		c0.4-1,0.9-2.1,1.4-3.2c0.5-1.1,1.1-2.2,1.6-3.3c0.3-0.6,0.6-1.1,0.9-1.7c0.3-0.6,0.6-1.1,1-1.7c0.7-1.2,1.3-2.4,2.1-3.5
		c1.5-2.3,3-4.8,4.9-7c0.4-0.6,0.9-1.2,1.3-1.7l1.5-1.7c1-1.1,1.9-2.3,3-3.3c1.1-1,2.2-2.1,3.3-3.1c1.1-1,2.3-1.9,3.4-2.8
		c1.1-1,2.4-1.7,3.6-2.5c1.2-0.8,2.4-1.6,3.6-2.2c1.2-0.7,2.4-1.3,3.6-1.9c1.2-0.6,2.5-1,3.6-1.5c2.3-1.1,4.7-1.6,6.8-2.3
		c0.5-0.2,1-0.3,1.6-0.5c0.5-0.1,1-0.2,1.5-0.3c1-0.2,1.9-0.4,2.8-0.6c1.7-0.4,3.3-0.5,4.6-0.6c2.6-0.2,4-0.4,4-0.4s-1.4,0.4-3.9,1
		c-1.2,0.3-2.7,0.7-4.4,1.3c-0.8,0.3-1.7,0.6-2.7,0.9c-0.5,0.1-1,0.3-1.4,0.5c-0.5,0.2-1,0.4-1.5,0.6c-2,0.9-4.2,1.6-6.4,2.8
		c-1.1,0.6-2.2,1.1-3.4,1.7c-1.1,0.7-2.2,1.3-3.4,2c-1.2,0.6-2.2,1.5-3.4,2.3c-1.1,0.8-2.3,1.6-3.3,2.5c-1.1,0.9-2.2,1.8-3.2,2.7
		c-1,1-2,2-3.1,3c-1.1,1-1.9,2.1-2.9,3.1l-1.4,1.6c-0.4,0.6-0.9,1.1-1.3,1.7c-0.4,0.6-0.9,1.1-1.3,1.6c-0.5,0.5-0.9,1.1-1.3,1.7
		c-0.8,1.1-1.6,2.2-2.4,3.3c-0.8,1.1-1.4,2.3-2.2,3.3c-0.4,0.5-0.7,1.1-1.1,1.6c-0.3,0.5-0.6,1.1-1,1.6c-0.6,1.1-1.3,2.1-1.8,3.1
		c-0.6,1-1.1,2-1.7,3c-1.1,1.9-2,3.7-2.8,5.2c-0.8,1.6-1.6,2.9-2.1,4.1C267.9,638.1,267.2,639.4,267.2,639.4z"/>
</g>
<g id="XMLID_381_">
	<path id="XMLID_383_" d="M608.8,1009.5c0,0,0.9,0.2,2.5,0.5c1.6,0.3,4,0.7,7,1.4c3,0.6,6.7,1.4,10.9,2.2c4.2,0.8,8.9,1.7,14.1,2.7
		c2.6,0.5,5.3,0.9,8.1,1.4c2.8,0.5,5.7,1.1,8.6,1.5c6,0.9,12.2,2,18.7,2.8c3.2,0.4,6.5,0.9,9.9,1.3c3.4,0.4,6.7,0.7,10.2,1.1
		c3.4,0.4,6.9,0.7,10.3,1c1.7,0.1,3.5,0.3,5.2,0.4l2.6,0.2l2.6,0.1c3.5,0.2,7,0.4,10.4,0.6c3.5,0.1,6.9,0.1,10.4,0.2
		c1.7,0,3.4,0.1,5.1,0c1.7,0,3.4-0.1,5.1-0.1c1.7,0,3.3-0.1,5-0.1c0.8,0,1.7,0,2.5-0.1c0.8-0.1,1.6-0.1,2.5-0.2
		c3.3-0.2,6.5-0.5,9.6-0.6c3.1-0.3,6.2-0.7,9.2-1c1.5-0.2,3-0.3,4.4-0.5c1.4-0.2,2.8-0.5,4.2-0.7c2.8-0.5,5.5-0.8,8.1-1.3
		c2.6-0.6,5-1.1,7.3-1.6c1.2-0.2,2.3-0.5,3.4-0.7c1.1-0.2,2.1-0.6,3.2-0.9c2.1-0.6,4-1.1,5.7-1.6c0.9-0.2,1.7-0.5,2.6-0.7
		c0.8-0.2,1.6-0.5,2.3-0.8c2.9-1,5.2-1.8,6.7-2.3c1.6-0.5,2.4-0.8,2.4-0.8s-0.8,0.4-2.3,1.1c-1.5,0.7-3.7,1.8-6.5,3.1
		c-0.7,0.3-1.4,0.7-2.2,1c-0.8,0.3-1.6,0.6-2.5,1c-1.7,0.7-3.6,1.4-5.6,2.1c-1,0.4-2,0.8-3.1,1.1c-1.1,0.3-2.2,0.7-3.4,1
		c-2.3,0.7-4.8,1.4-7.3,2.2c-2.6,0.7-5.3,1.2-8.1,1.9c-1.4,0.3-2.8,0.6-4.3,0.9c-1.5,0.3-2.9,0.5-4.4,0.7c-3,0.5-6.1,1-9.3,1.4
		c-3.2,0.4-6.4,0.6-9.8,1c-0.8,0.1-1.7,0.2-2.5,0.2c-0.8,0-1.7,0.1-2.5,0.1c-1.7,0.1-3.4,0.2-5.1,0.2c-1.7,0.1-3.4,0.2-5.2,0.3
		c-1.7,0.1-3.5,0-5.2,0c-3.5,0-7,0-10.5-0.1c-3.5-0.2-7.1-0.3-10.6-0.5l-2.7-0.2l-2.6-0.2c-1.8-0.2-3.5-0.3-5.3-0.5
		c-3.5-0.3-7-0.6-10.5-1.1c-3.5-0.4-6.9-0.9-10.3-1.4c-3.4-0.5-6.7-1.1-10-1.7c-6.6-1-12.8-2.4-18.7-3.6c-5.9-1.2-11.5-2.7-16.6-3.9
		c-5.1-1.3-9.8-2.6-13.9-3.8c-4.2-1.1-7.7-2.3-10.6-3.2c-2.9-0.9-5.2-1.7-6.8-2.2C609.6,1009.8,608.8,1009.5,608.8,1009.5z"/>
</g>
<g id="XMLID_378_">
	<path id="XMLID_380_" d="M616.5,968.3c0,0,0.8-0.2,2.2-0.6c1.4-0.4,3.6-0.9,6.3-1.6c1.3-0.3,2.8-0.7,4.5-1.1c1.6-0.5,3.3-1,5.2-1.5
		c1.8-0.5,3.8-1.1,5.9-1.7c2.1-0.6,4.2-1.3,6.5-2.1c2.2-0.7,4.6-1.4,7-2.3c2.4-0.9,4.8-1.8,7.4-2.7c1.3-0.5,2.6-0.9,3.8-1.4
		c1.3-0.5,2.6-1.1,3.9-1.6c2.6-1.1,5.3-2.1,7.9-3.3c2.7-1.2,5.3-2.5,8.1-3.8c0.7-0.3,1.4-0.6,2.1-0.9l2-1.1c1.3-0.7,2.7-1.4,4.1-2.1
		c1.4-0.7,2.7-1.4,4.1-2.1c1.4-0.7,2.7-1.5,4-2.3c2.7-1.6,5.4-3,8-4.7c2.6-1.7,5.3-3.3,7.9-5c1.3-0.8,2.6-1.7,3.8-2.6
		c1.3-0.9,2.5-1.8,3.8-2.6c1.3-0.9,2.5-1.8,3.8-2.6c1.2-0.9,2.4-1.8,3.6-2.8c2.4-1.9,4.8-3.6,7.1-5.4c4.5-3.8,9-7.3,12.9-11
		c2-1.8,4-3.5,5.8-5.3c1.8-1.8,3.6-3.5,5.3-5.1c3.4-3.2,6.4-6.4,9.1-9.1c1.3-1.4,2.6-2.7,3.8-3.9c1.1-1.2,2.2-2.4,3.1-3.4
		c1.9-2.1,3.4-3.6,4.4-4.7c1-1.1,1.6-1.7,1.6-1.7s-0.4,0.7-1.2,1.9c-0.8,1.3-2,3.1-3.5,5.4c-0.8,1.2-1.6,2.5-2.5,3.9
		c-1,1.4-2.1,2.8-3.2,4.4c-1.2,1.6-2.4,3.2-3.7,5c-1.3,1.8-2.8,3.5-4.3,5.3c-1.5,1.8-3.2,3.7-4.8,5.7c-1.7,1.9-3.6,3.8-5.5,5.8
		c-3.7,4.1-8,8-12.4,12.1c-2.2,2-4.6,3.9-7,5.9c-1.2,1-2.4,2-3.6,3c-1.3,0.9-2.5,1.9-3.8,2.8c-1.3,0.9-2.6,1.9-3.8,2.8
		c-1.3,0.9-2.6,1.9-3.9,2.8c-2.7,1.7-5.4,3.5-8.1,5.2c-2.7,1.7-5.6,3.2-8.4,4.8c-1.4,0.8-2.8,1.6-4.2,2.3c-1.4,0.7-2.9,1.4-4.3,2.1
		c-5.6,2.9-11.4,5.2-17,7.5c-2.8,1.1-5.6,2-8.4,2.9c-1.4,0.5-2.7,0.9-4.1,1.4c-1.4,0.4-2.7,0.8-4,1.2c-2.7,0.7-5.2,1.5-7.7,2.1
		c-2.5,0.6-5,1.1-7.3,1.6c-2.4,0.5-4.6,1-6.7,1.4c-2.2,0.3-4.2,0.6-6.2,0.9c-1.9,0.3-3.7,0.6-5.4,0.8c-1.7,0.2-3.2,0.3-4.6,0.4
		c-2.8,0.2-5,0.4-6.4,0.5C617.3,968.2,616.5,968.3,616.5,968.3z"/>
</g>
<g id="XMLID_375_">
	<path id="XMLID_377_" d="M515.4,767.3c0,0-0.5,0-1.3-0.1c-0.8-0.1-2-0.3-3.3-0.7c-1.3-0.4-2.8-0.9-4.3-1.5
		c-0.8-0.3-1.5-0.7-2.3-1.1c-0.8-0.4-1.5-0.8-2.3-1.3c-0.7-0.5-1.5-0.9-2.2-1.4c-0.7-0.5-1.4-1-2-1.5c-1.3-1-2.4-2.1-3.4-3.1
		c-0.9-1-1.7-1.9-2.1-2.6c-0.5-0.7-0.7-1.1-0.7-1.1s0.5,0,1.3,0.1c0.8,0.1,2,0.3,3.3,0.7c1.3,0.4,2.8,0.9,4.3,1.5
		c0.8,0.3,1.5,0.7,2.3,1.1c0.8,0.4,1.5,0.8,2.3,1.3c0.7,0.5,1.5,0.9,2.2,1.4c0.7,0.5,1.4,1,2,1.5c1.3,1,2.4,2.1,3.4,3.1
		c0.9,1,1.7,1.9,2.1,2.6C515.1,766.9,515.4,767.3,515.4,767.3z"/>
</g>
<g id="XMLID_372_">
	<path id="XMLID_374_" d="M611.7,626.1c0,0,2.1,1.1,5.8,3.1c1.8,1,4.1,2.1,6.6,3.5c2.6,1.3,5.5,2.8,8.6,4.4
		c3.2,1.6,6.6,3.2,10.3,4.8c3.7,1.7,7.6,3.2,11.7,4.8c4.1,1.5,8.4,2.9,12.8,4.1c4.4,1.2,8.9,2.1,13.5,2.8c4.5,0.7,9.1,1,13.7,1
		c4.5,0,9-0.3,13.2-0.9c0.5-0.1,1.1-0.1,1.6-0.2c0.5-0.1,1-0.2,1.6-0.3c1-0.2,2.1-0.4,3.1-0.6c2-0.5,4-0.9,5.9-1.5
		c1-0.3,1.9-0.5,2.8-0.8c0.9-0.3,1.8-0.6,2.7-0.9c1.8-0.5,3.5-1.2,5.1-1.9c1.7-0.6,3.2-1.3,4.6-1.9c1.5-0.6,2.9-1.3,4.1-1.9
		c2.6-1.2,4.8-2.4,6.6-3.4c3.6-2,5.7-3.2,5.7-3.2s-0.5,0.4-1.3,1.1c-0.9,0.7-2.1,1.8-3.8,3c-1.7,1.2-3.7,2.8-6.2,4.3
		c-2.4,1.6-5.3,3.3-8.5,4.9c-1.6,0.8-3.3,1.7-5.1,2.4c-0.9,0.4-1.8,0.8-2.7,1.2c-1,0.3-1.9,0.7-2.9,1.1c-1.9,0.8-4,1.3-6.1,2
		c-1.1,0.3-2.1,0.5-3.2,0.8c-0.5,0.1-1.1,0.3-1.6,0.4c-0.6,0.1-1.1,0.2-1.7,0.3c-4.5,0.9-9.2,1.4-14,1.5c-2.4,0.1-4.8,0-7.3-0.1
		c-2.4-0.2-4.9-0.4-7.3-0.8c-4.8-0.7-9.6-1.7-14.2-3.1c-4.6-1.4-9-3-13.1-4.7c-4.1-1.8-8.1-3.7-11.7-5.7c-1.8-0.9-3.6-2-5.2-2.9
		c-1.7-1-3.2-2-4.8-2.9c-3-1.9-5.8-3.7-8.1-5.4c-2.4-1.6-4.4-3.2-6.1-4.4c-1.7-1.2-2.9-2.3-3.8-3
		C612.1,626.4,611.7,626.1,611.7,626.1z"/>
</g>
<g id="XMLID_369_">
	<path id="XMLID_371_" d="M715.3,487.9c0,0,0.5,0.9,1.2,2.6c0.3,0.9,0.9,1.8,1.5,2.9c0.3,0.5,0.6,1.1,1,1.7c0.4,0.6,0.8,1.2,1.2,1.9
		c0.8,1.3,1.8,2.6,2.9,4.1c0.5,0.7,1.1,1.4,1.7,2.1c0.6,0.7,1.2,1.5,1.8,2.2c0.6,0.7,1.3,1.4,2,2.2c0.7,0.7,1.4,1.4,2.1,2.1
		c0.7,0.7,1.4,1.4,2.2,2.1c0.7,0.7,1.5,1.4,2.3,2.1c0.8,0.7,1.5,1.4,2.3,2.1c0.8,0.7,1.6,1.4,2.3,2c1.5,1.3,3.1,2.7,4.5,3.9
		c1.5,1.2,2.9,2.5,4.3,3.7c1.4,1.2,2.6,2.3,3.8,3.4c1.2,1,2.2,2,3.2,2.9c0.9,0.9,1.7,1.7,2.4,2.3c1.3,1.3,2,2.1,2,2.1
		s-0.9-0.6-2.4-1.6c-1.5-1-3.7-2.4-6.3-4.2c-2.6-1.8-5.6-3.9-8.8-6.2c-1.6-1.2-3.2-2.4-4.8-3.8c-0.8-0.7-1.6-1.3-2.4-2
		c-0.8-0.7-1.6-1.4-2.4-2.1c-0.8-0.7-1.5-1.5-2.3-2.2c-0.8-0.7-1.5-1.5-2.2-2.3c-0.7-0.8-1.4-1.5-2.1-2.3c-0.6-0.8-1.3-1.6-1.9-2.4
		c-0.6-0.8-1.2-1.6-1.8-2.4c-0.5-0.8-1.1-1.6-1.6-2.4c-0.9-1.6-1.8-3.1-2.5-4.6c-0.3-0.7-0.7-1.4-1-2.1c-0.2-0.7-0.5-1.4-0.7-2
		c-0.2-0.6-0.4-1.2-0.6-1.7c-0.2-0.5-0.3-1-0.4-1.5C715.5,488.9,715.3,487.9,715.3,487.9z"/>
</g>
<g id="XMLID_366_">
	<path id="XMLID_368_" d="M707.2,492.6c0,0,0.5,1.1,1.4,3.2c0.4,1,1.1,2.2,1.7,3.5c0.6,1.4,1.6,2.8,2.4,4.4c0.4,0.8,0.9,1.6,1.5,2.5
		c0.5,0.9,1.1,1.7,1.6,2.6c0.6,0.9,1.2,1.8,1.8,2.7c0.6,0.9,1.2,1.9,1.9,2.8c1.3,1.9,2.8,3.8,4.3,5.7c1.4,2,3,3.8,4.6,5.7
		c0.8,1,1.6,1.9,2.4,2.8c0.8,0.9,1.6,1.9,2.5,2.7c0.8,0.9,1.7,1.7,2.5,2.6c0.8,0.9,1.7,1.6,2.5,2.5c1.6,1.6,3.3,3.1,4.9,4.5
		c0.8,0.7,1.6,1.3,2.4,1.9c0.8,0.6,1.5,1.3,2.3,1.8c0.8,0.5,1.5,1,2.2,1.5c0.7,0.5,1.3,1,2,1.3c0.7,0.4,1.3,0.7,1.8,1
		c0.6,0.3,1.1,0.7,1.6,0.9c2,0.9,3.1,1.4,3.1,1.4s-1.2-0.3-3.4-0.8c-1.1-0.3-2.3-0.8-3.8-1.4c-1.5-0.5-3-1.4-4.7-2.3
		c-1.6-1-3.4-2.1-5.2-3.3c-1.7-1.3-3.6-2.6-5.4-4.3c-1.8-1.5-3.6-3.2-5.4-5c-0.9-0.9-1.7-1.8-2.6-2.8c-0.8-0.9-1.7-1.8-2.5-2.8
		c-1.6-2-3.2-3.9-4.7-6c-1.5-2-2.8-4.1-4.1-6.1c-1.3-2-2.4-4-3.4-5.9c-1-2-2-3.8-2.7-5.5c-0.7-1.8-1.4-3.3-1.9-4.8
		c-0.5-1.5-1-2.7-1.2-3.8C707.4,493.9,707.2,492.6,707.2,492.6z"/>
</g>
<g id="XMLID_363_">
	<path id="XMLID_365_" d="M694.2,497.8c0,0,0.5,1,1.2,2.8c0.4,0.9,0.9,1.9,1.4,3.2c0.5,1.2,1.1,2.6,1.8,4.1c0.7,1.5,1.5,3.1,2.2,4.8
		c0.8,1.7,1.7,3.4,2.6,5.2c0.5,0.9,0.9,1.8,1.4,2.7c0.5,0.9,1,1.8,1.5,2.8c1,1.9,2.1,3.7,3.2,5.6c1.1,1.8,2.2,3.7,3.4,5.5
		c1.2,1.8,2.3,3.5,3.5,5.2c0.6,0.8,1.2,1.6,1.8,2.4c0.6,0.8,1.1,1.6,1.7,2.3c1.1,1.5,2.2,2.9,3.3,4.1c1,1.3,2,2.4,2.9,3.4
		c0.9,1,1.6,1.9,2.3,2.6c1.3,1.4,2,2.2,2,2.2s-0.9-0.6-2.5-1.7c-0.8-0.5-1.7-1.3-2.8-2.1c-0.5-0.4-1.1-0.9-1.7-1.4
		c-0.6-0.5-1.1-1.1-1.7-1.6c-0.6-0.6-1.3-1.1-1.9-1.8c-0.6-0.7-1.3-1.3-1.9-2c-1.3-1.4-2.6-2.9-3.9-4.5c-1.2-1.7-2.6-3.3-3.8-5.1
		c-1.3-1.8-2.4-3.7-3.6-5.5c-1.1-1.9-2.2-3.8-3.2-5.8c-1-1.9-1.9-3.9-2.7-5.8c-0.8-1.9-1.6-3.8-2.2-5.5c-0.6-1.8-1.2-3.5-1.7-5.1
		c-0.2-0.8-0.5-1.6-0.7-2.3c-0.2-0.7-0.4-1.4-0.5-2.1c-0.3-1.3-0.6-2.4-0.8-3.4C694.4,498.9,694.2,497.8,694.2,497.8z"/>
</g>
<line id="XMLID_362_" class="st4" x1="676.5" y1="501.1" x2="677.5" y2="517.3"/>
<g id="XMLID_359_">
	<path id="XMLID_361_" d="M684.7,500.4c0,0,0.3,1.1,0.7,3.1c0.2,1,0.5,2.1,0.9,3.5c0.2,0.7,0.4,1.4,0.6,2.1c0.2,0.7,0.5,1.5,0.7,2.3
		c0.5,1.6,1.1,3.4,1.7,5.2c0.6,1.8,1.4,3.7,2.1,5.7c0.8,2,1.6,4,2.5,6c0.9,2,1.9,4.1,2.9,6.1c0.5,1,1,2,1.5,3c0.5,1,1,2,1.6,2.9
		c0.6,1,1.1,1.9,1.6,2.9c0.6,0.9,1.1,1.8,1.7,2.8c0.5,0.9,1.1,1.8,1.7,2.6c0.6,0.9,1.1,1.7,1.6,2.5c0.6,0.8,1.1,1.6,1.6,2.3
		c0.5,0.8,1,1.5,1.6,2.1c1,1.3,1.9,2.6,2.9,3.6c0.9,1,1.6,2,2.3,2.7c1.3,1.5,2.1,2.3,2.1,2.3s-0.9-0.7-2.4-2
		c-0.8-0.6-1.6-1.5-2.6-2.5c-1-0.9-2.1-2.1-3.2-3.4c-1.2-1.3-2.3-2.7-3.6-4.3c-1.2-1.6-2.5-3.2-3.6-5c-0.6-0.9-1.2-1.8-1.8-2.7
		c-0.6-0.9-1.1-1.9-1.7-2.9c-0.6-1-1.1-2-1.7-3c-0.5-1-1.1-2-1.6-3c-1-2.1-2-4.1-2.8-6.2c-0.9-2.1-1.6-4.2-2.4-6.2
		c-0.7-2-1.3-4-1.8-5.9c-0.5-1.9-1-3.7-1.3-5.4c-0.2-0.8-0.3-1.6-0.5-2.4c-0.1-0.8-0.2-1.5-0.3-2.2c-0.2-1.4-0.4-2.6-0.4-3.6
		C684.8,501.6,684.7,500.4,684.7,500.4z"/>
</g>
<path id="XMLID_358_" d="M400.1,715.9c-16.6-31.7,35.6-59.1,52.2-27.4L400.1,715.9z"/>
<polygon id="XMLID_357_" points="923.2,837.3 936.6,853.8 988,778.9 983.8,771.2 973,789.7 945.9,821.7 "/>
<polygon id="XMLID_356_" points="449.2,690.1 459.1,757.6 469.7,798.2 488.8,786.6 469,758.2 459.1,735 "/>
<g id="XMLID_421_">
	<path id="XMLID_420_" d="M1046.2,960.5c0,0,0.3-0.5,0.9-1.2c0.6-0.7,1.4-1.8,2.5-2.9c2.1-2.4,5.1-5.3,8.3-8
		c3.2-2.7,6.6-5.2,9.3-6.8c1.3-0.9,2.5-1.5,3.3-1.9c0.8-0.4,1.3-0.7,1.3-0.7s-0.3,0.5-0.9,1.2c-0.6,0.7-1.4,1.8-2.5,2.9
		c-2.1,2.4-5.1,5.3-8.3,8c-3.2,2.7-6.6,5.2-9.3,6.8c-1.3,0.9-2.5,1.5-3.3,1.9C1046.7,960.3,1046.2,960.5,1046.2,960.5z"/>
</g>
<path id="XMLID_422_" d="M624.5,615.8c49.1,8.5,92,11.3,119.2,0l-6.1,10.3l-23.2,11.1l-45.7-0.4l-48.8-19.1"/>
<path id="XMLID_423_" d="M526.4,1130.3l-19.5-16.5l-12,26.7l-111.6,16.9l-95.6-17.4l-54.7-20.5l-19.2-9.7l-47.1,2.2l76.5,29.5
	c0,0,102,34,151.5,34s162.9-21.6,162.9-21.6L526.4,1130.3z"/>
<polygon id="XMLID_424_" class="st0" points="521.2,795.9 898.8,812 893.3,844.1 527.2,816.4 "/>
<polygon id="XMLID_425_" class="st0" points="533.2,841.4 539.4,867.7 889.6,891 889.7,868.2 "/>
<path id="XMLID_426_" d="M124.9,899.7c0,0,83.5-8,111.3-14.6c27.8-6.5,233.4-86.9,233.4-86.9l-110.3,50.7L244,896.1l-81.1,18
	l-29-1.2L124.9,899.7z"/>
<path id="XMLID_427_" d="M670.6,570.2l14.2,9.5c22,5.9,41.4,7.2,56.1,0l-3.2-4.8l-20.8-8l-6.5,4.3l-13,2.8l-9.6-4.3l-6-1.3
	L670.6,570.2z"/>
<g id="XMLID_431_">
	<line id="XMLID_429_" class="st5" x1="1024.1" y1="1186.7" x2="528.3" y2="1193.9"/>
	<path id="XMLID_430_" d="M1024.1,1186.7c0,0-1.9,0.1-5.6,0.3c-3.6,0.2-9,0.4-15.7,0.7c-6.8,0.3-15,0.6-24.4,1
		c-9.4,0.4-20.1,0.8-31.7,1.1c-11.6,0.4-24.2,0.8-37.5,1.1c-13.3,0.4-27.4,0.8-41.9,1.1c-14.5,0.3-29.5,0.7-44.8,0.9
		c-15.3,0.3-30.7,0.5-46.2,0.8c-15.5,0.2-31,0.4-46.2,0.6c-15.3,0.2-30.3,0.2-44.8,0.4c-14.5,0.1-28.6,0.1-41.9,0.1
		c-13.3,0-25.9,0-37.5-0.1c-11.6,0-22.3-0.1-31.7-0.2c-9.4-0.1-17.7-0.2-24.5-0.3c-6.8-0.1-12.1-0.2-15.7-0.3
		c-3.6-0.1-5.6-0.1-5.6-0.1s1.9-0.1,5.6-0.3c3.6-0.2,9-0.4,15.7-0.7c6.8-0.3,15-0.6,24.4-1c9.4-0.4,20.1-0.8,31.7-1.1
		c11.6-0.4,24.2-0.8,37.5-1.1c13.3-0.4,27.4-0.8,41.9-1.1c14.5-0.3,29.5-0.7,44.8-0.9c15.3-0.3,30.7-0.5,46.2-0.8
		c15.5-0.2,31-0.4,46.2-0.5c15.3-0.2,30.3-0.2,44.8-0.3c14.5-0.1,28.6-0.1,41.9-0.1c13.3,0,25.9,0,37.5,0.1
		c11.6,0,22.3,0.1,31.7,0.2c9.4,0.1,17.7,0.2,24.5,0.3c6.8,0.1,12.1,0.2,15.7,0.3C1022.2,1186.7,1024.1,1186.7,1024.1,1186.7z"/>
</g>
<g id="XMLID_434_">
	<path id="XMLID_433_" d="M177.2,973.2c0,0-0.1,0.6-0.4,1.6c-0.2,0.5-0.5,1.1-0.8,1.8c-0.4,0.6-0.8,1.4-1.4,2.2
		c-0.6,0.8-1.2,1.5-2,2.3c-0.8,0.8-1.6,1.5-2.5,2.3c-1.8,1.5-3.9,2.9-6,4.1c-1.1,0.6-2.1,1.2-3.2,1.8c-1.1,0.6-2.1,1.1-3.2,1.5
		c-2.1,0.9-4.1,1.7-5.8,2.3c-1.7,0.6-3.2,1-4.2,1.3c-1,0.3-1.7,0.4-1.7,0.4s0.5-0.4,1.4-1c0.9-0.6,2.1-1.5,3.7-2.5
		c3.1-2,7.2-4.4,11.3-6.8c1-0.6,2-1.2,3-1.8c0.5-0.3,1-0.6,1.5-0.9c0.5-0.3,0.9-0.6,1.4-0.9c0.9-0.6,1.8-1.2,2.6-1.8
		c0.8-0.6,1.6-1.1,2.3-1.7c0.7-0.5,1.3-1.1,1.8-1.6c0.5-0.5,0.9-1,1.3-1.3C176.8,973.6,177.2,973.2,177.2,973.2z"/>
</g>
<path id="XMLID_435_" d="M142.5,990.4c2.9-8.4,4.4-17,7.1-25.3c2.7-8.3,5.5-16.5,8.2-24.8c2.6-8.3,6.5-16.1,8.6-24.9
	c-3.2-0.8-6.2-0.3-9,0c-13.1,1.6-24.9-1.9-35.9-8.7c-1.4-0.9-2.6-2.1-3.6-3.4c-8.6-11.3-13-24-13.2-38.2c-0.1-5.7,1.3-11,3.2-16.3
	c5.6-15,14.4-27.9,25.2-39.6c14-14.9,29.5-28.2,46-40.2c14.6-10.6,29.6-20.3,44.8-30c2.3-1.5,4.4-3.3,6.6-5c0.4-0.3,0.8-0.7,1.3-1
	c16.8-11.2,33.1-23.2,51.1-32.4c4.6-2.4,9.5-4.2,14.1-6.5c9.5-4.6,19.6-7.9,29.4-11.7c2.7-1,5.4-2.4,8.1-3.6
	c3.5-21.8,6.7-43.3,9.1-65c-2.1-0.7-3.6,0-5.2,0.4c-5.6,1.4-11.2,2.5-17,2.7c-6.5,0.2-12.1-1.4-16.4-6.5c-0.3-0.4-0.8-0.7-1.6-1.2
	c-0.8,1-1.7,1.9-2.3,2.9c-4.8,8.3-7.3,17.4-8.2,26.9c-0.7,7.2-1.1,14.4-0.1,21.6c0.6,4.6,0.8,9.3-1,13.7
	c-3.4,8.4-9.3,14.2-18.1,16.8c-4.3,1.3-8.4,0.4-12.1-2.4c-5.9-4.4-9.7-9.9-10.9-17.4c-2.2-13.8-2.3-27.3,2.6-40.6
	c1.9-5,3.8-10.1,5.8-15c4.5-11.1,11.8-20.1,21.2-27.4c3.1-2.4,6.3-4.5,9.5-6.8c1.5-1.1,3-2.1,4.9-3.4c-0.9-0.9-1.6-1.7-2.4-2.3
	c-6-4-10.7-9.2-14.7-15c-2-2.8-3.3-6.2-4.7-9.4c-3.6-8.4-6.3-17-7.8-26c-1.3-7.6-0.1-10.3,6.5-14.3c3.2-1.9,6.6-3.5,10-4.7
	c11-4,22.1-7.5,33.7-9.4c4.4-0.7,8.8-1.3,13.2-1.7c6.8-0.6,13.6-1.5,20.3-3c12.7-2.8,25.4-5,38.4-6.2c13.5-1.2,27.1-1.4,40.5-0.7
	c13.3,0.8,26.5,2.9,39.4,6.3c1.4,0.4,2.8,1,4,1.8c2.5,1.6,4.8,3.4,7.3,5.1c7.9,5.6,14,12.7,18,21.5c3.7,8.2,6,16.7,7.8,25.5
	c3,14.8,3.8,29.8,3.8,44.8c0,13.2-0.2,26.3-1,39.5c-0.3,5.5-0.2,11.1-0.1,16.7c0,2.4,0.4,4.8,0.7,7.2c2.5,0.6,4.2-0.7,5.9-1.6
	c6.5-3.5,13-7.2,19.5-10.7c10.1-5.5,20.1-11.1,30.3-16.5c9.2-5,19-8.4,29.3-10.1c3.5-0.6,7-0.8,10.5-1.1c1.3-0.1,2.6-0.3,3.8-0.4
	c2.6-3.1,3.5-6.5,3-10.4c-0.6-4.4-0.9-8.9-1.5-13.3c-0.9-6.1-1-12.2-0.9-18.3c0.1-4.9-1.1-9.5-1.5-14.6c-1.6,0-2.8,0-4.1-0.1
	c-2-0.2-4.1-0.2-6-0.7c-3.6-1.1-5.4-4.1-4.6-7.8c0.6-2.5,1.5-5,2.8-7.2c2.8-4.6,5.9-9,8.8-13.5c0.7-1.1,1.7-2.1,2.1-3.2
	c0.5-1.3,1.2-2.9,0.9-4.2c-1.1-4.8-0.5-9.6,0.1-14.4c0.1-0.5-0.2-1-0.3-2c-1.1,0-2.1-0.2-3.2,0c-14,2.8-28.3,3.6-42.5,5.2
	c-10.2,1.1-17.9-3.5-24.9-10c-3.5-3.2-3.4-7.3-1.9-11.3c1.4-3.9,4.1-6.6,8.5-6.9c2.8-0.2,5.5-0.6,8.3-0.7c9.4-0.5,18.9-1,28.3-1.4
	c10.6-0.4,21.1-0.8,31.7-1.1c0.5,0,1.1-0.2,1.9-0.3c0.6-1.2,1.4-2.4,2-3.8c5.5-11.6,13.8-20.5,25.2-26.5c8.6-4.5,17.5-8,27.1-9.8
	c13.9-2.7,25.7,1.3,35.5,11.2c2.9,3,5.3,6.6,7.6,10.2c4,6.3,6.7,13.2,9.6,20c1.3,3.1,2.6,6.1,3.6,9.3c1.2,3.7,3.4,6.5,6.6,8.6
	c1.2,0.8,2.4,1.7,3.6,2.7c7.3,5.9,15.5,10.1,24.5,12.8c3.9,1.2,7.7,2.7,11.4,4.4c3,1.4,5.9,3.1,8.6,5c7.9,5.6,9.9,15.9,5.1,24.1
	c-2.2,3.7-5.3,6.1-9.6,6.9c-4,0.8-8,1.4-12.1,0.6c-0.5-0.1-1.1,0-1.9,0.1c-0.1,1.3-0.4,2.5-0.4,3.7c0,7.9-3.4,13.5-10.6,16.7
	c-0.5,0.2-0.9,0.6-1.4,0.9c-0.1,0.6-0.3,1.1-0.3,1.6c1.4,13.6,0.9,27.3,0.8,41.4c1.4-0.1,2.5,0,3.4-0.3c7.6-1.7,15.1-3.6,22.7-5.3
	c10.4-2.3,20.9-3.1,31.5-2.3c4.6,0.4,9.2,0.8,13.8,1.1c7.3,0.6,14.1,3,20.7,5.9c11.2,5,21.7,11.4,31.7,18.4c20,14,37.8,30.5,54,48.7
	c11.5,12.9,22.3,26.3,32.8,40c23,30.2,45.6,60.8,67.8,91.7c1.2,1.6,2.4,3.2,3.8,5.1c1.3-0.8,2.4-1.5,3.5-2.2
	c12.6-8.3,26.5-13.2,41.5-14.8c9-1,18.1-0.9,27.2-1.3c5.8-0.2,11.5,1,16.9,3c4.7,1.7,9.4,3.5,13.8,5.8c9.9,5.1,19.1,11.3,27.9,18.1
	c12.2,9.5,18.5,22.3,21.1,37.3c1.7,9.9,0.8,19.6-1.5,29.2c-4.1,17.4-11.5,33.2-22.5,47.3c-5.1,6.6-10.6,12.9-16.5,18.8
	c-1,1-2,2.1-3.2,3.5c1.5,1.7,2.8,3.2,4.1,4.7c14.3,15.4,29.8,29.5,46.5,42.2c16.8,12.8,33.7,25.5,50.6,38.1
	c14.3,10.6,29.3,20.2,44.3,29.7c2.1,1.3,4.2,2,6.8,2.2c13,0.6,25.9,1.9,38.7,3.7c2.2,0.3,4.4,0.1,6.6-0.4c9.4-2.2,18.7-4.6,28.2-6.4
	c14.6-2.8,29.4-3.8,44.2-2.1c7,0.8,14,1.7,20.7,3.8c3.6,1.1,7,2.5,9.9,4.9c4.2,3.5,4.4,7.5,0.5,11.4c-1.2,1.1-2.7,2-4.1,2.8
	c-1.3,0.7-2.7,1-4.5,1.7c2.4,1.2,4.5,1.1,6.4,1.2c8.7,0.5,17.3,2.1,25.7,4.4c8.2,2.2,15.6,5.8,22.1,11.2c3,2.5,6,5,8.9,7.5
	c1.7,1.5,3.3,3.1,3.7,5.4c0.3,1.6,1.5,2.4,2.7,3.4c2,1.6,4,3.3,5.9,5.1c2.2,2.1,3.5,4.8,4.2,7.7c0.4,1.9,0.4,3.6-0.2,5.5
	c-1.6,5.2-3.4,5.1-6.8,4.2c-1-0.3-2.1-0.3-4.3-0.6c1.3,1.2,1.9,1.7,2.4,2.3c1.2,1.4,2.4,2.8,3.4,4.3c0.4,0.6,0.5,1.4,0.6,2.1
	c0.2,2.7-3.3,7.8-6,8.6c-2.5,0.7-5,1.2-7.9,1.9c1.3,1.6,2.5,3,3.6,4.4c1,1.3,0.9,2.8,0.1,4.2c-2.2,3.5-5.2,5.8-9.2,6.7
	c-1.8,0.4-3.7,0.8-5.5,0.8c-8.7,0.2-17.4,0.4-26.1,0.3c-5-0.1-10-0.9-14.9-1.4c-6.5-0.6-12.9-1.1-19.3-1.9
	c-9.2-1.2-18.4-2.4-27.5-3.9c-6.2-1-12.4-2.4-18.6-3.4c-3.3-0.6-6.6-0.8-9.9-1.2c-9.6-1.1-18.9-3.5-28.2-5.9
	c-13.4-3.5-26.9-6.9-39.8-12.3c-1.8-0.7-3.5-1.2-5.4-0.9c-2.5,0.3-4.7-0.3-7-1.2c-4.8-2-9.7-3.8-14.5-5.7c-2.1-0.8-4.1-1.7-6.1-2.8
	c-7-3.9-13.9-7.8-20.7-11.9c-3-1.8-5.6-4.2-8.4-6.3c-1.5-1.1-3-2.3-4.6-3.1c-21.5-10.8-42.5-22.7-62.8-35.7
	c-18.9-12-37.2-25.1-54.4-39.5c-13.8-11.6-27.2-23.5-39.5-36.7c-0.6-0.7-1.4-1.2-2.3-2c-0.9,0.7-1.8,1.3-2.6,2
	c-27,24.1-53.8,48.3-81,72.2c-21.9,19.3-46.1,35.4-72,49c-17.4,9.1-35,17.7-53.3,25c-18.8,7.5-38.2,13-58.4,15.5
	c-12.4,1.5-24.7,2.4-37.1,1.1c-4-0.4-7.6,0.4-11.3,1.8c-14.8,5.8-29.7,11.6-45,16c-7,2-14.1,3.2-21.4,3.2c-8.9,0-17.8,0.4-26.7-0.3
	c-18.6-1.3-36.6-5.5-53.9-12.6c-18.6-7.6-35.9-17.7-52.2-29.5c-10.7-7.7-21-15.8-31-24.4c-5.6-4.8-10.8-10-16.1-15
	c-1.3-0.1-1.1,0.9-1.4,1.5c-0.3,0.7-0.4,1.4-0.6,2.1c-2.2,6.4-5.4,12.1-10.9,16.4c-2.8,2.2-5.8,4.1-9.3,4.8
	c-10.7,2.3-21.3,4.7-32.1,6.7c-9.3,1.7-18.6,3.2-28,4.1c-16.8,1.6-33.6,2.2-50.5,0.9c-14.1-1.1-28-2.9-41.9-5
	c-28-4.3-55.1-11.6-80.7-23.8c-6.4-3-12.8-5.8-19.3-8.6c-14.8-6.3-28.4-14.4-40.4-25.1c-8.7-7.8-17.5-15.5-25.1-24.4
	c-3.3-3.8-6.3-7.8-9.4-11.7c-1-1.3-2-2.6-3.2-4.1c-2.4,0-4.8-0.1-7.2,0c-11.2,0.3-22.2-1.2-32.9-4.6c-29.4-9.4-51.9-27.2-66.2-54.9
	c-3.8-7.5-6.4-15.4-8.3-23.5c-3.1-13.2-4.8-26.6-5.9-40.1c-1.1-13.2,1.6-25.8,6.2-38.1c4-10.7,11.1-18.6,20.3-25.1
	c3.5-2.4,7.2-3.5,11.5-3.4c4.3,0.1,7.9,1.4,11.2,4.2c4.6,3.8,8.6,8.1,12.1,13c5.3,7.3,7.2,15.7,8.2,24.5c0.4,3.7,0.7,7.4,1.1,11.1
	c0.1,1.1,0.2,2.3,0.8,3.1c0.9,1.3,0.9,2.2,0.1,3.5c-0.4,0.7-0.5,1.8-0.5,2.7c0.8,11.6,1.6,23.3,4.3,34.7c0.4,1.6,0.8,3.2,1.3,4.8
	c4.2,13.6,14.3,20.6,27.4,24.2c0.5,0.1,1.1,0.2,1.7,0.2C140.7,990.5,141.2,990.5,142.5,990.4z M330.9,748.2c1.5-0.7,3.1-1.2,4.6-2
	c39.9-20.9,79.7-41.8,119.6-62.8c13.9-7.3,27.9-14.7,41.8-22.1c1.8-0.9,3.4-2,5-2.9c0-1.5,0.2-2.7,0-3.7c-1.2-6.2-1-12.6-0.9-18.9
	c0-5,0.4-10,0.3-15c-0.1-7.6-0.4-15.2-0.7-22.8c-0.5-14.6-0.5-29.3-2.9-43.8c-1.5-9.2-3.6-18.2-6.7-26.9c-3.2-8.7-8.3-16.1-15.6-22
	c-3.1-2.5-6.4-4.4-10.3-5.2c-6.7-1.3-13.4-2.8-20.2-3.9c-9.9-1.6-19.8-2.7-29.8-2.8c-12.6-0.1-25.2,0.4-37.8,1.4
	c-4.5,0.4-9.3,0.5-13.7,2.3c-0.5,1.5-0.9,2.9-1.4,4.3c-1.6,4.4-4.6,7.6-8.8,9.5c-3.4,1.5-7,2.3-10.8,2.4c-5.7,0.1-10-2.4-12.7-7.4
	c-0.6-1.1-1.1-2.2-1.7-3.5c-2.6,0.4-5,0.9-7.4,1.1c-2.8,0.3-4.9,1.6-6.1,4.2c-0.6,1.2-1.2,2.3-1.8,3.5c-3.4,7.2-7.7,14-12.3,20.5
	c-1.9,2.7-4,5.4-5.8,8.1c-2.7,4-5.1,8.2-7.8,12.1c-2.1,3-1.7,5.5,0.7,8c3.3,3.5,6.5,7.1,9.9,10.6c0.9,0.9,2,1.6,3,2.4
	c2.4-1,4.7-1.8,6.9-2.8c20.8-9.4,42.6-16.1,64.4-22.7c1.9-0.6,3.9-1.2,5.9-1.5c2.2-0.3,4.4-0.5,6.6-0.4c0.8,0,1.5,0.8,2.3,1.3
	c-0.4,1.1-0.7,2.3-1.1,3.4c-3.4,2.9-6.6,5.9-10.1,8.7c-8.8,7.1-18,13.7-27.7,19.6c-10.8,6.6-21.6,12.9-32.5,19.3
	c-2.8,1.6-5.2,3.5-6.1,6.6c2.7,4.1,4.4,5.4,8.5,5.5c3.1,0.1,6.3,0,9.4-0.4c9.2-1.2,17.9-4.5,26.6-7.7c3.1-1.1,6.3-2.1,9.5-3
	c0.6-0.2,1.4-0.6,2,0.7c-2.2,2-4.5,4.1-6.9,6.1c-1.3,1-2.8,1.8-4.2,2.6c-1.5,0.8-3.1,1.5-3.4,3.4c-0.6,3.8-1.2,7.6-1.1,11.7
	c1.4,0.2,2.4,0.5,3.5,0.5c6.2,0.3,12.1,1.7,17.7,4.2c4.1,1.8,7.3,4.5,8.9,8.7c3.4,9.1,3.1,17.7-3.2,25.7
	c-8.4,10.6-19.1,16.7-32.6,18c-0.5,0-1,0.4-1.8,0.7c-1,5.4-2,10.8-2,16.4c0,12.3-1.5,24.4-4.3,36.4c-0.8,3.2-1.2,6.5-1.9,10.2
	c-0.8,1-1.9,2.5-3,4c-1-0.5-1.9-1-2.9-1.5c-4.4,2-8.6,3.9-12.8,5.8c-14.8,7-28.4,15.9-41.2,26.1c-0.7,0.5-2.1,0.9-1.5,2.6
	c3.1-1.8,6.1-3.6,9.2-5.3c14.9-8.2,29.9-16.3,44.8-24.5C327.8,750.3,329.3,749.2,330.9,748.2z M513,749.6c0.4,0.6,0.8,1.2,1.1,1.8
	c3.6,8.1,7.1,16.3,10.6,24.5c0.9,2,1.6,4.2,2.1,6.3c3.7,17.6,7.4,35.2,10.9,52.8c8,39.8,17.7,79.2,28.7,118.2
	c6.3,22.3,13.5,44.3,17.4,67.2c0.3,1.9,1.4,3.3,3,4.5c8.8,6.9,18,13.1,28.2,17.6c18.4,8.2,37.4,14.1,57.1,17.9
	c16.9,3.3,33.9,5.9,51.2,7c13.5,0.9,27,1.8,40.5,1.7c5.4-0.1,10.7-0.4,16.1-0.8c5.7-0.5,11.5-0.9,17.1-1.9
	c19.7-3.3,38.2-10.3,56.3-18.5c2-0.9,3.1-2.2,3.5-4.5c2.2-15.4,4.3-30.8,6.9-46.2c1.5-8.7,2.2-17.7,5.1-26.1
	c0.2-0.5,0.2-1.1,0.2-1.7c-0.1-5.2,0.1-10.4,2.1-15.3c0.2-0.5,0.2-1.1,0.2-1.6c2.5-14.4,4.9-28.8,7.3-43.3
	c2.8-16.6,5.6-33.3,8.1-49.9c2.6-16.8,5-33.7,7.5-50.6c0.3-2,0.8-4.2,0.2-6c-0.7-2.6-0.3-4.7,0.8-6.9c0.5-1,1-2,1.3-3.1
	c1.4-6.2,4.5-11.8,7.2-17.4c0.4-0.8,0.8-1.7,2.2-1.7c0.7,5.1-1.6,10-1.2,15.8c1.3-1.7,2-2.9,3-4c1.8-2.1,3.7-4.2,5.6-6.2
	c0.6-0.6,1.6-1,2.5,0.4c-1.1,1.9-2.2,4-3.4,6.1c-2.6,4.5-5.2,9-7.8,13.5c-0.6,1.1-0.9,2.3-1.3,3.3c4.5,7.1,19.1,26.5,22.5,29.8
	c3.7-2.6,7.5-5.2,11.1-8.1c4.9-4,10-7.8,14.2-12.4c10.6-11.5,19.5-24.2,26.7-38.1c0.9-1.8,1.6-3.7,2.3-5.4c-0.8-1.2-1.4-2.2-2.1-3.1
	c-14.4-18.9-28.6-37.9-43.3-56.5c-13.2-16.7-27.6-32.5-43.6-46.7c-14.3-12.7-29.6-24.1-46.5-33.2c-7.5-4.1-15.2-7.8-23.7-9.3
	c-9.3-1.7-18.8-2.1-28.2-1.9c-4.6,0.1-9.3,0.5-13.8,1.3c-6.9,1.2-13.8,3-20.7,4.2c-3,0.5-5.5,1.8-8.1,3.3c-4,2.4-8,4.6-12.3,6.4
	c-10.5,4.4-21.7,6.3-33,7.3c-17.2,1.5-34-0.8-50.7-5c-9-2.2-17.5-5.9-26.2-9.1c-6.5-2.5-13-5-20.3-4.8c-12.1,0.2-23.5,2.7-34.4,7.7
	c-5.7,2.6-11.3,5.6-16.8,8.6c-23.8,12.9-47.5,26-71.2,38.9c-8.5,4.6-17,9-25.5,13.6c-1.4,0.8-3.1,1.3-3.9,3
	c-1.6,23.6,6.1,50.7,18.2,69.4c3.9,6.1,8.2,11.9,12.3,17.9c0.5,0.7,1.2,1.2,2,1.9c9.1-5,18-9.9,27.1-15
	C515.1,761.3,512.5,755.8,513,749.6z M954.3,883.6c-1,0.9-1.6,1.4-2.1,1.9c-5.7,5.8-11.2,11.9-17.1,17.5
	c-14.6,13.9-29.4,27.7-44.1,41.6c-3.4,3.2-6.5,6.6-9.8,9.9c-1.6,1.6-2.6,3.5-2.9,5.8c-0.6,4.2-1.4,8.4-2.2,12.6
	c-3.5,20.6-7.2,41.2-10.4,61.9c-1,6.1-2.9,11.3-7.2,15.7c-1.8,1.9-3.6,3.7-6,4.7c-7.3,3.1-14.6,6.4-22,9.4
	c-19.9,7.9-40.5,11.6-61.9,11.9c-26.6,0.3-52.9-1.3-79.2-5.4c-18-2.8-35.7-6.5-53-12.3c-13-4.4-25.8-9.4-37.3-17
	c-4.8-3.1-9.2-7-14-10.1c-4.8-3.1-7.5-7.6-9.9-12.4c-0.6-1.3-1.1-2.9-1-4.3c0.3-3.6-0.9-6.9-1.8-10.3c-7.6-26.9-16.3-53.5-22.9-80.7
	c-1-3.9-3-7.1-5.9-9.8c-13.3-12.1-26.4-24.4-39.8-36.4c-9-8-18.4-15.6-27.6-23.3c-7.7-6.4-15.4-12.8-23.1-19.2
	c-1.3-1.1-2.6-2.2-4-2.9c-6.1-3.1-12.6-5.5-19.2-7.1c-2.9-0.7-5.8-0.4-8.6,0.9c-14,6.7-28.1,13.3-42.2,20c-1.8,0.9-3.6,1.9-5.1,3.3
	c-4.7,4.3-8.8,9.1-12.4,14.2c-2.7,3.8-4.7,8-5.7,12.6c-0.8,3.6-1.6,7.2-2.2,10.9c-2.2,15.6,1.3,29.8,10.1,42.7
	c2.6,3.8,5.8,7.2,8.4,11.1c2,3,4.5,5.2,7.7,7c16.2,8.9,29.8,20.9,40.3,36c15.7,22.4,24.9,47.5,29,74.5c0.5,3.4,1,6.9,1.5,10.5
	c1.1-0.1,1.8-0.1,2.5-0.3c10.5-2.1,19.9,0.3,28.1,7c4.2,3.4,8.3,6.9,12.2,10.5c5,4.6,8.6,10.2,11.2,16.4c0.7,1.7,1.6,3.4,2.7,4.7
	c3.6,4,7.2,8,11.1,11.7c14.3,13.5,29.6,25.8,45.8,37c14.2,9.9,29.1,18.4,45.1,25c19.6,8.1,39.9,12.4,61.1,12.9
	c5.7,0.1,11.5,0.1,17.2,0c7.1-0.1,14.1-1,20.8-3.1c11.1-3.5,22.2-7.3,33.2-11c0.5-0.2,0.9-0.5,1.8-1.1c-1.6-0.5-2.8-0.9-4-1.2
	c-9.8-2.3-19.3-5.4-28.1-10.1c-3.7-2-7.2-4.6-10.7-6.9c-0.5-0.3-0.7-1.1-1.5-2.3c1.9,0.4,2.9,0.6,3.9,0.9c4.4,1.4,8.8,2.9,13.2,4.4
	c20.1,6.4,40.6,9.9,61.8,9.7c8.7-0.1,17.4-0.3,26.1-1.6c17.6-2.7,34.8-7.3,51.4-13.8c14-5.5,27.7-11.6,41-18.5
	c15.2-7.7,30.2-15.8,44.5-25.1c14.8-9.6,28.8-20.3,42.1-31.8c26.4-22.8,52.7-45.6,79.1-68.4c0.9-0.8,1.7-1.8,2.6-2.8
	c-0.8-1-1.4-1.7-2-2.4c-14.4-15.3-27.5-31.6-41.9-46.9c-9.4-10-17.3-21.3-27.3-30.8c-0.8-0.8-1.5-1.7-2.2-2.5
	c-10.9-13.1-21.7-26.3-32.6-39.4C957.4,887.5,956.1,885.8,954.3,883.6z M360,855.3c-1.6,0.7-3,1.2-4.3,1.8
	c-12.5,5.7-24.9,11.4-37.4,17.1c-37.6,17.3-77.1,28.3-117.8,35.4c-7.3,1.3-14.6,2.4-21.9,3.5c-2,0.3-3.4,1.2-4,3.3
	c-0.3,1.3-0.8,2.5-1.2,3.7c-1.3,4.2-2.6,8.5-4,12.7c-1.6,4.7-3.4,9.4-5,14.1c-4.4,13.2-8.9,26.3-12.1,39.9c-0.3,1.4-1.1,2.8,0.1,4.6
	c1.1,0,2.4,0.2,3.6,0c3.8-0.6,7.7-1.3,11.5-2.1c3.7-0.7,7-2.2,9.7-5.1c0.7-0.8,1.6-1.6,2.5-2.1c0.5-0.3,1.5-0.4,2.1-0.1
	c1,0.4,1.1,1.4,0.9,2.4c-0.1,0.7-0.5,1.4-0.8,2.1c-2.2,4.1-5.4,7.1-9.8,8.6c-11,3.8-22.2,5.9-33.8,3.5c-18.3-3.9-31.3-13.9-36-32.8
	c-0.4-1.4-0.7-2.9-1-4.3c-1.8-8.7-3-17.5-3.4-26.4c-0.2-3.1-0.3-6.3-1.2-9.6c-1.9-0.4-3.6-0.6-5.4-1.1c-4.7-1.2-9.4-2.1-13.9-3.7
	c-9.4-3.5-15.3-12.6-15-22.6c0.3-7.4,2.7-14.1,7.6-19.9c1.3-1.5,3.1-2.6,3.6-4.8c-4.6-0.8-5.5-0.8-8.6,1.3
	c-7.6,5.3-13.8,11.8-17,20.7c-0.8,2.3-1.7,4.5-2.4,6.8c-2.7,8.9-4.5,18-3.7,27.4c1.1,12.4,2.7,24.7,5.3,36.8
	c7,32.7,26.1,55.9,56.1,70.3c15.1,7.2,31.3,10.3,47.9,10.3c8.3,0,16.7-0.4,25-0.8c4.8-0.3,9.6-1.1,14.3-1.7c1.6-0.2,3.2-0.8,5,0.2
	c-0.5,0.4-0.8,0.9-1.3,1.1c-1.7,0.7-3.4,1.5-5.2,2c-6.1,1.6-12.2,3-18.3,4.4c-1.1,0.3-2.2,0.4-3.3,0.7c-1,0.3-2.3,0-2.9,1.2
	c5.8,11,38.1,41.4,49.6,46.5c1.4-1.6,2.8-3.2,4.3-4.9c5.1-5.6,10.9-10.2,18.2-12.3c16.9-4.8,32.6-2.9,46.5,8.9
	c4.3,3.7,7.9,7.8,10.5,12.8c1.7,3.3,3.5,6.6,5,9.9c0.9,2,1.9,4.2,1.9,6.3c0,4.7,1.9,9,2.4,13.6c0.2,2.2,1.5,3.2,3.6,3.6
	c3.6,0.7,7.2,1.6,10.9,2.3c12.5,2.4,25.2,4.2,37.9,5.9c9.9,1.4,19.9,2.1,29.9,2.7c12.6,0.8,25.2-0.1,37.7-1.3
	c16.8-1.6,33.4-4.3,50-7.5c4.9-0.9,9.9-1.6,14.6-3.3c13.5-4.7,14.7-16.7,11.2-27.8c-0.1-0.2-0.2-0.3-0.3-0.5
	c-3.3-4.6-7.2-8.5-12.2-11.2c-4.6-2.4-9.2-2.6-13.6,0.7c-1.1,0.8-2.5,1.4-4.3,2.4c-0.1-1.4-0.4-2.3-0.1-3c1.7-4.1,4.8-6.5,9.2-7.1
	c2.8-0.4,5.5-0.1,8.2,0.8c0.8,0.3,1.8,1.4,3.1,0c-2.8-2.5-5.5-5-8.4-7.3c-1.3-1-2.9-1.6-4.5-2.1c-7.4-2.3-13.9-0.1-19.8,4.4
	c-1.5,1.1-2.9,2.4-4,3.8c-1,1.3-2.4,0-3.3,0.9c-2.5,15.3-8.9,29.4-17.4,33.8c0.3-1.5,0.5-2.7,0.9-3.9c1.8-5.4,3.8-10.8,5.5-16.3
	c4.4-14,5.4-28.5,3.5-42.9c-3.2-23.8-11.1-46-23.5-66.6c-4.9-8.1-10.9-15.4-17.7-22c-0.8-0.7-1.4-1.7-2.9-1.5
	c-1.3,1.6-2.7,3.3-4.1,5c-3.1,3.8-7.1,6.5-11.6,8.3c-10.3,4-20.9,4.7-31.7,2.7c-2.4-0.5-4.6-1.5-6.5-2.9c-6.3-4.8-10.3-11-11.9-18.8
	c-1.1-5.3-0.3-10.3,0.7-15.4c0.2-1.2,0.3-2.4,0.5-3.8c-3.9-0.9-7.3,0.2-10.7,0.9c-11.9,2.5-23.3,6.2-32.8,14.2
	c-1.1,0.9-2.5,1.6-3.8,2.2c-2.4,0.9-4.9,1.7-7.4,2.4c-0.6,0.2-1.4,0.1-2.7,0.1c0.8-1.2,1.2-2.1,1.8-2.7c3.7-3.6,7.5-7.2,11.2-10.7
	c0.6-0.5,1.7-0.8,1-2.3c-3.1,0.4-6,1.6-8.9,2.6c-3.1,1.1-6.2,2.5-9.3,3.6c-0.9,0.3-2,0-3.1,0c0.2-2.6,2.2-3.2,3.7-4.1
	c8.4-4.6,17.4-7.4,27-7.9c3.4-0.2,6.5-0.9,9.7-1.9c16.9-5.5,34-7,51.5-3c0.3,0.1,0.7-0.1,1.3-0.2c0-2-1.3-3.4-2.2-4.8
	c-5.2-7.8-8.3-16.5-10.9-25.4c-0.9-3-1.4-6.2-1.6-9.3c-0.5-9.9,1-19.6,4-29c1.5-4.7,3.6-8.9,7.6-12
	C358.9,858.4,359.9,857.4,360,855.3z M930.8,836.5c2.8,3.8,5.4,7.4,8,11c3.2,4.5,6.4,9.1,9.7,13.6c0.7,1,1.6,2.3,2.7,2.7
	c2.7,0.9,4.2,3,5.8,5c5.6,7.1,11.3,14.2,16.7,21.5c16.3,22.1,33.4,43.6,50.6,64.9c4.9,6.1,10.4,11.6,16.3,16.6
	c1.7,1.4,3.3,3,4.8,4.6c7.9,8.8,15.8,17.7,23.6,26.6c0.5,0.6,1,1.1,1.4,1.7c2.2,2.5,4.3,5.1,6.7,7.4c2.5,2.5,5.1,4.8,7.7,7.2
	c6.2,5.9,12.2,11.9,18.6,17.6c21.5,19.2,44.6,36.2,68.7,51.9c30,19.6,61.2,37,91.8,55.5c7.3,4.4,15,8,23.6,9.3
	c3.1,0.5,6.2,1.3,9.1,2.4c11.5,4.3,23.2,7.6,35,10.7c17.9,4.8,36,8.6,54.4,10.7c4.6,0.5,9.2,1,13.8,1.5c14.9,1.6,29.8,3.2,44.7,4.9
	c4.8,0.5,9.7,0.4,14.3,1.7c8.2,2.3,16.2,0.9,24.3,0.5c2.6-0.1,4.3-1.8,5.1-4.7c-1-0.5-1.9-1.2-2.9-1.5c-5.5-2.1-11-4.3-16.6-6.3
	c-18.6-6.6-37.6-11.3-57.3-12.8c-2.6-0.2-5.2-0.6-7.7-1.1c-0.9-0.2-1.7-1.1-2.7-1.7c2.2-1.8,2.2-1.8,4-1.9
	c8.5-0.2,17.1,0.3,25.5,1.6c14.3,2.2,28.3,5.6,41.9,10.6c1.4,0.5,2.8,1.2,4.2,1.2c6.3,0.1,12.6,0.1,18.9-0.1
	c2.4-0.1,3.4-1.7,3.9-4.3c-4.2-2.9-8.4-5.5-13-7.5c-14.7-6.2-29.9-11.1-45.9-12.4c-1.5-0.1-2.9-0.5-4.4-0.8
	c-11.2-2.6-22.2-6-33.6-7.4c-0.8-0.1-1.9-0.2-1.6-1.8c1.2-0.2,2.5-0.4,3.7-0.5c10.6-0.6,21.1,0.2,31.6,1.8c12.6,2,25.1,4.7,37.4,8.1
	c7.7,2.1,15.5,3.8,23.2,5.6c1.9,0.4,3.8,1.1,5.9,0.3c0.2-3.3-1.6-5.4-3.7-7.3c-4.2-3.7-8.9-6.6-14-8.9c-8.3-3.8-17-6.3-26-7.8
	c-8.8-1.5-17.6-2.6-26.4-3.8c-8.8-1.1-17.7-2.1-26.5-3.2c-3.3-0.4-6.5-0.9-10.9-1.6c1.6-0.3,2.1-0.4,2.6-0.4c11.7-0.3,23.3-0.7,35-1
	c0.7,0,1.5,0,2.2,0.1c14.3,1.1,28.3,3.2,42.1,7.3c0.7,0.2,1.6,1,2.4,0.1c-3.7-3.8-7.5-6.3-13.4-8.6c-9.7-3.8-19.9-5.9-30.3-6.8
	c-11.4-0.9-22.9-2.1-34.2-4.1c-7.8-1.4-15.7-2.6-23.6-3.9c-1.6-0.3-3.3-0.7-4.8-1.2c-0.5-0.2-0.9-0.9-1.6-1.8
	c1.6-0.3,2.7-0.8,3.7-0.7c3.9,0.2,7.8,0.4,11.6,0.7c3.9,0.3,7.7,0.7,11.6,0.8c6.9,0.2,13.7-0.6,20.4-2.2c3.6-0.9,7.2-1.6,10.8-2.4
	c1.5-0.3,2.8-0.9,3.3-2.9c-0.8-0.6-1.6-1.4-2.6-1.9c-2.4-1-4.8-2-7.3-2.7c-7.2-2.1-14.6-2.8-21.9-3.3c-15.6-1-31.1,0.5-46.4,3.6
	c-1.4,0.3-2.7,0.7-4.2,1.1c0.7,1,0.5,1.7-0.4,1.9c-4.7,0.9-9.5,1.5-14.2,2.7c-4.1,1-8.1,0.9-12.1,0.4c-2.9-0.3-5.9-0.7-8.8-1.1
	c-5-0.7-9.9-1.2-14.8-2.1c-5.5-1-10.9-2.2-16.3-3.5c-5-1.2-10.1-2.2-14.6-5.2c-5.4-3.6-10.9-7-16.3-10.6
	c-25.1-16.8-49-35.4-72.7-54.1c-6.8-5.4-13.5-11-20-16.8c-16.5-14.8-30.9-31.4-44.8-48.6c-2.8-3.5-5.3-7.2-7.9-10.7
	c-2-2.7-3.9-5.4-6-8c-10.5-13.4-21.4-26.6-31.6-40.2c-13.6-18.1-26.8-36.5-40.1-54.7c-14.2-19.5-28.3-39-42.5-58.5
	c-1.1-1.5-2.2-2.8-3.5-4.5c-0.7,1-1.1,1.6-1.4,2.2c-5.4,11.9-12.5,22.7-20.4,33c-8.3,10.9-18.1,20.1-30.8,25.8
	C931.5,835.6,931.3,836,930.8,836.5z M449.6,696.3c-2.4,0-3.9,1.1-5.5,1.9c-33.3,17.4-66.7,34.8-99.9,52.4
	c-28.5,15.1-56.9,30.4-85.4,45.5c-8.5,4.5-17.3,8.5-25.9,12.7c-0.8,0.4-1.6,1-2.6-0.3c1.1-0.9,2.2-1.9,3.3-2.7
	c5.2-3.6,10.4-7.1,15.6-10.7c0.7-0.5,1.7-0.9,1.1-2.1c-4.3-0.9-8.5,0.4-12.6,1.2c-1.4,0.3-2.9,0.6-4.4,0.5c-0.7-0.1-1.6-0.9-2-1.6
	c-0.5-0.9,0.3-1.8,1.2-2.2c0.8-0.4,1.7-0.7,2.6-0.8c3.3-0.5,6.6-0.9,9.9-1.2c3.4-0.3,6.3-1.3,8.9-3.8c3.9-3.7,8.1-7.1,12.2-10.5
	c17.5-14.3,36.7-25.7,58-33.4c1.4-0.5,2.7-1.2,4-1.7c0.8-4,1.5-7.8,2.4-11.6c0.7-2.9,0.8-5.8,0.5-8.8c-0.3-2.9-0.4-5.9-0.1-8.9
	c0.7-7.6,1.6-15.1,2.4-22.7c0.1-0.6-0.2-1.3-0.3-2.3c-3.4,1-6.1,2.5-8.9,4c-3.8,2-7.5,4.1-11.4,5.7c-14.7,5.7-28.9,12.6-42.8,20
	c-2.4,1.3-4.8,2.9-7,4.5c-7.2,5.3-14.1,10.8-21.4,15.9c-19.4,13.6-39,27-58.4,40.7c-16.2,11.5-31.1,24.6-44.7,39.2
	c-9.8,10.6-17.8,22.2-23,35.8c-2.3,6-3.5,12.1-2.9,18.5c1.1,11.8,5.3,22.3,13,31.3c1.2,1.4,2.6,2.7,4,3.8c1.9,1.6,4.1,2.4,6.6,2.5
	c13,0.6,26,0.5,38.8-1.7c13.3-2.3,26.6-4.6,39.9-7.2c14.2-2.8,28.3-5.7,42.1-10.1c11.5-3.7,22.9-7.5,34.1-11.7
	c17.7-6.6,34.9-14.5,52-22.5c33-15.5,66.2-30.8,99.1-46.5c11.8-5.6,24-10.7,34.5-18.9c1.3-1,2.8-1.7,4.3-2.6
	c-3.4-4.7-6.7-8.9-9.7-13.3c-3-4.5-6-9-8.4-13.7c-2.5-4.7-4.6-9.7-6.4-14.8c-1.8-5-3.3-10.2-4.4-15.5c-1.1-5.2-1.8-10.6-2.3-15.9
	C449.6,707.1,449.8,701.8,449.6,696.3z M1133.2,960.5c1.4-1.5,2.5-2.6,3.4-3.7c5.3-6.7,10.8-13.2,15.9-20
	c6.5-8.6,11.5-18.1,15.2-28.3c4-11,7-22.3,6.3-34.2c-0.9-15.9-6.4-29.5-19.5-39.5c-9.8-7.4-19.9-14.2-31.1-19.3
	c-9.5-4.4-19.5-7.3-30-7.5c-10.9-0.2-21.8,0.9-32.3,4.4c-9.1,3-18.2,6.1-27.4,9.2c-0.8,0.3-1.6,0.7-2.6,1.2c1.5,2.9,3.4,5.2,5.1,7.6
	c15.6,21.8,31.2,43.7,47,65.5c12.5,17.2,25.3,34.3,38,51.4C1124.6,951.9,1128.5,956.1,1133.2,960.5z M613.7,566.8
	c1.1,9.2,2.1,18.4,3.2,27.6c0.7,6.2,1.5,12.5,2.2,19c4.6,2.1,9.1,4.1,13.7,6.1c18.6,8.1,38,12.1,58.2,12.9
	c7.6,0.3,15.2-0.2,22.7-1.5c6.9-1.2,13.8-2.5,20.2-5c2.1-4.2,2.1-4.2,6.8-7.4c-2.3-13.9-1.5-28.3-3.5-42.3c-2.7-1.1-5.4-1-7.9-1.5
	c-2.3-0.5-4.7-1.1-6.9-2.1c-2.3-1-4.3-2.5-6.6-3.9c-0.8,1.5-1.5,2.8-2.3,4.1c-1.3,2.1-3,3.8-5.4,4.6c-8.4,3.2-16.3,2.9-23.4-3.2
	c-1.4-1.2-2.7-2.4-4-3.6c-7.9,0.9-9,0.8-12.1-1.8c0.1-0.3,0.2-0.8,0.4-0.9c1-0.5,2-1,3-1.4c2.9-1.2,6-2.1,8.7-3.5
	c6.5-3.4,9.9-9.1,9.6-16.3c-0.5-12.1-6.5-21-17.2-26.6c-0.9-0.5-2.2-0.8-3.1-0.6c-1.3,0.3-2.5,0.3-3.8,0c-0.8-0.2-1.8,0.2-2.6,0.6
	c-0.8,0.4-1.4,1.2-2.1,1.8c-1.2,0.9-2.6,1.1-2.9,0.2c-0.3-0.8-0.4-1.9,0-2.6c0.7-1.3,1.7-2.4,2.7-3.5c0.9-0.9,2-1.6,2.8-2.2
	c0.3-6,0.3-6-0.9-9.1c-5.2,0.7-10.5,1.5-15.9,2.1c-5.3,0.6-10.7,1.1-16,1.3c-5.3,0.2-10.6,0-16.3,0c-1.3,4.1-2.7,7.9-3.7,11.9
	c-0.7,2.9-1.8,5.6-3.6,8.1c-1.1,1.5-2.1,3.1-3,4.7c-2.3,4-4.6,8-6.7,12.1c-0.8,1.6-1.9,3.3-0.9,5.5c4.4,1.9,9.9,0.5,14.3,3.9
	c0.2,1.3,0.5,2.8,0.8,4.2c0.2,0.8,0.7,1.6,1,2.4c2.9-0.8,4.9-2.3,6.9-4c1.3-1.1,2.6-2.1,4-3c0.3-0.2,1.2-0.2,1.5,0.1
	c0.4,0.3,0.7,1,0.6,1.4c-0.5,3.3-2.6,5.7-5.3,7.5C619,564.3,616.6,565.3,613.7,566.8z M714.8,561.4c4.5,2.9,9.6,5,15,6.3
	c2.9,0.7,5.7,1.2,8.6-0.1c1.8-0.8,4-0.9,6-1c2.1-0.1,3.5-1,4.7-2.4c1.6-1.9,2.8-3.9,3-6.4c0.2-3.4,1.9-6.3,3.2-8.9
	c5.1-0.9,9.8-1.6,14.5-2.5c2-0.4,3.9-1.1,5.4-2.6c3.9-3.8,3.4-13.7-1.2-16.5c-3.6-2.2-7.1-4.6-11.1-6.2c-4-1.5-8-2.9-12-4.3
	c-4.7-1.7-9.3-3.5-13.5-6.4c-3.5-2.4-6.6-5.3-10.7-6.8c-0.8-0.3-1.5-1.1-2.2-1.7c-2.8-2-4.2-5.7-7.7-7c-0.5-0.2-0.8-1.2-1.1-1.9
	c-0.5-0.9-1.1-1.9-1.6-2.8c-0.8,0.2-1.4,0.2-1.8,0.4c-12.1,5.8-24.8,9.6-38,11.9c-1.2,0.2-2.4,0.8-3.8,1.3c0,3.1,0,6,0,8.9
	c0.8,0.4,1.4,0.8,2.1,1c12.1,3.7,19.7,12,23.4,23.9c3.4,10.8,1.8,20.5-6.8,28.5c-0.5,0.5-0.8,1.1-1.1,1.7c4.5,3.8,5.9,4.4,10.1,4.6
	c6.3,0.3,11.4-1.2,13.4-8.1C712,563,712.8,561.7,714.8,561.4z M704.3,467.3c-1.7-4.8-4.5-9.4-8.2-13.2c-7.9-7.9-17.2-11.1-28.3-8.9
	c-10.1,2-19.4,5.9-28.2,11.2c-7.2,4.4-12.4,10.4-16.3,17.8c-0.6,1.2-1.2,2.3-1.7,3.5c-1.3,2.6-3.3,4-6.3,4.9
	c-8,2.2-16.1,2.3-24.2,2.8c-15.9,1-31.8,1.7-47.7,2.6c-1.1,0.1-2.2-0.2-3.2,1.3c-0.3,2.8,1.6,4.9,3.6,6.8c2.3,2.2,4.6,4.3,8.2,4.1
	c5.9-0.3,11.8-0.6,17.8-0.8c3.9-0.1,7.8-0.4,11.6-0.1c9.6,0.7,19.2,1.1,28.9,0.8c1.8-0.1,3.7-0.2,5.5,0.1c6.6,1.3,13.3,1,19.9,0.4
	c12.5-1.2,25-2.9,37.4-5.1c12.4-2.2,24.5-5.7,36.4-10c0.7-0.2,1.4-0.6,2-0.9c0.2-0.2,0.5-0.7,0.4-0.9c-0.2-0.4-0.7-1-1.1-1.1
	c-0.7-0.1-1.5,0-2.2,0.2c-2.4,0.5-4.7,1.1-7.1,1.4c-3.2,0.4-4.9-0.5-6.2-3.4c-1.9-4.3-3.3-6.1,2.8-9.3
	C700.2,470.3,702.6,469.3,704.3,467.3z M902,813.6c-0.5,0.5-0.9,0.7-0.9,1c-5.3,42.4-12.3,84.6-19.4,126.8c-0.1,0.7,0,1.4,0.1,2
	c0.4,0,0.7,0.1,0.8,0.1c22.5-21.2,44.9-42.5,67.3-63.8c0.1-0.1,0.2-0.3,0.2-0.5c0-0.2,0.1-0.4,0.1-0.9c-3.1-4-6.4-8.2-9.7-12.5
	c-3.3-4.3-6.5-8.5-9.8-12.8c-3.3-4.4-6.6-8.9-9.9-13.4c-3.2-4.3-6.2-8.7-9.4-13.1C908.2,822.3,905.6,817.6,902,813.6z M544.1,905.6
	c-0.2-2-0.2-3.2-0.5-4.4c-7.6-30.4-13.7-61-19.7-91.7c-2.1-10.9-4.2-21.8-6.3-32.7c-0.2-1-0.7-2-1-2.9c-6.7,2.1-15.7,7.6-19.5,11.8
	c0.3,5.7,0.8,11.4,0.8,17.1c0.1,18.9,0.2,37.8,0.9,56.6c0.1,3,0.9,5.2,3.2,7.2c13.6,11.8,26.7,24.1,39.4,36.7
	C542,904,542.8,904.5,544.1,905.6z M332.3,579.7c-2.9-0.7-4.6-1.5-6.4-1.6c-9.8-0.6-19.3,0.9-27.9,5.8c-6.4,3.7-12.3,8.2-17.7,13.4
	c-5.8,5.6-10.5,12-13.6,19.4c-2.1,5.1-4.1,10.3-6,15.5c-4.7,12.5-4.5,25.4-2.4,38.3c0.8,5.1,3.5,8.8,7.4,11.9
	c2.6,2.1,5.2,2.3,8.2,1.1c7.4-3.2,12.2-10.2,12.1-18.2c0-2-0.2-4.1-0.4-6.1c-1.6-14.2,0.2-28.1,5.2-41.5c2.6-7.1,7-13,12.9-17.8
	c6.2-5,12.6-9.7,19.2-14.2C325.7,583.9,328.5,582.2,332.3,579.7z M299.2,1136c0.2-5.1-0.6-9.7-1.7-14.1c-2.1-8.5-6.6-16-11.8-23
	c-0.3-0.4-0.8-0.8-1.2-1.2c-2.8-2.4-5.6-4.8-8.5-7.1c-3.2-2.5-7-4.1-10.9-5.2c-5.8-1.6-11.7-1.5-17.6-1.4
	c-9.6,0.2-17.6,3.9-24.4,10.4c-1.6,1.5-3.1,3.2-4.5,4.9c-0.7,0.8-1.2,1.8-1.7,2.6C229.5,1111.3,284.1,1133.9,299.2,1136z M491,856.7
	c0.3-1.2,0.5-1.5,0.4-1.9c-0.3-9.6-0.6-19.3-0.8-28.9c-0.1-9.6-0.1-19.3-0.1-28.9c0-5.2-0.8-7.3-6.9-3.7c-13,7.8-26.4,15-40,21.7
	c-1.4,0.7-2.8,1.6-4.7,2.7c1.4,1,2.4,1.8,3.4,2.4c3.5,2.1,7,4.1,10.4,6.3c5.1,3.4,9.6,7.4,14.3,11.4c6.8,6,14.2,11.4,21.3,17
	C489.1,855.5,489.9,856,491,856.7z M394.7,968.8c-0.4-0.7-0.5-1.1-0.8-1.3c-11.9-10.5-25.3-18-41.1-20.8c-4.2-0.7-8.5-0.9-12.7-1.1
	c-2.2-0.1-3.1,0.5-3.5,2.7c-0.7,3.6-1.5,7.3-1.7,10.9c-0.4,8.7,2.9,15.9,9.6,21.5c2,1.7,4.2,2.8,6.9,3.3c7.8,1.3,15.5,1,23.1-1
	c6.8-1.8,12.8-4.9,17-10.7C392.5,971.1,393.6,970.1,394.7,968.8z M342.9,675.8c2.6-0.2,4.8,0,6.6-0.6c8.9-2.9,16.9-7.2,22.8-14.9
	c4.5-5.9,6-12,4.1-19.2c-1.1-4.5-3.5-7.8-7.6-9.7c-6.3-2.9-12.9-4.3-20-3.2c-0.3,1-0.8,1.8-0.9,2.7
	C346.3,645.7,344.6,660.3,342.9,675.8z M77.8,875c-5.4,5.4-9.3,11.1-10.9,18.6c-2.2,10.7,4.5,20.7,14,23.3c4.3,1.2,8.6,2,13,2.8
	c0.8,0.2,1.7-0.1,2.8-0.2c0.1-5.7-0.7-11-1.4-16.3c-0.3-2.6-1-5.1-1.7-7.6C91.2,887.9,85.1,879.9,77.8,875z M309.6,506.1
	c-1.6,0.1-2.1,0.1-2.6,0.2c-6.7,2.1-13.5,4-20.1,6.3c-3.1,1.1-6.2,2.5-9.1,4.1c-5.1,2.7-5.7,3.7-4.2,9.3c1.7,6.4,3.9,12.7,6,19.1
	c0.3,0.8,0.9,1.5,1.5,2.6c0.9-1.2,1.6-2,2.2-2.9c3.7-5.1,7.3-10.2,10.9-15.4c4.6-6.7,9.2-13.4,13.8-20.2
	C308.5,508.4,308.8,507.6,309.6,506.1z M332.3,502c1,3.6,3.2,5.8,6.1,6.4c5.8,1.2,11.4,0.2,16-4c1.7-1.6,3.3-3.5,2.9-6.2
	C352.8,497.9,338.6,500.1,332.3,502z M449.8,1086.2c2.7-1.2,3.8-3.5,5.9-4.5c2.3-1.1,4.5-2.5,6.9-3.4c2.1-0.8,4.4-1.1,6.7-1.7
	c-0.1-0.3-0.2-0.5-0.3-0.6c-5.3-2.9-11-2.3-16.6-1.5c-1.1,0.2-1.9,1.1-2,2.3C450.1,1079.8,449.9,1082.7,449.8,1086.2z M334.2,567.3
	c3.8,2.2,7.5,3.1,9.6,2.2c2.8-1.2,4.5-3.5,5.6-6.5c-0.8-0.2-1.3-0.5-1.8-0.4C343.2,564,338.7,565.2,334.2,567.3z M707.1,472.7
	c-2.3,1.5-4.6,2.3-6.3,5.1c3.1-0.1,5.5-0.2,7.9-2C708.2,474.7,707.7,473.8,707.1,472.7z M365.4,557.8c-0.2-0.2-0.4-0.5-0.6-0.7
	c-2.3,0.9-4.7,1.7-7,2.5c-0.3,1.4-0.6,2.4-0.8,3.4c0,0.1,0.3,0.2,0.8,0.5c1.9-1.4,4-2.8,6.1-4.3
	C364.4,558.8,364.9,558.3,365.4,557.8z M325.4,570.7c1.3,0.3,2,0.4,2.8,0.6c0.8,0.2,1.7,0.4,2.9,0.7
	C329.1,568.8,329,568.8,325.4,570.7z M336.1,573.8l0,0.3l0.4-0.1L336.1,573.8z"/>
<path id="XMLID_463_" d="M512.5,393.8c2.4-3.1,4.2-5.4,6-7.8c3.9-5,9.2-7.2,15.4-7.6c7.7-0.5,14.7,1.1,20.8,6c7,5.6,10,13.1,11,21.7
	c1,9.2-1.2,17.7-6.1,25.4c-4.8,7.6-10.7,14.2-18.1,19.4c-10.3,7.2-21.3,12.6-33.7,15.1c-2.6,0.5-4.6,0.2-6.7-1.4
	c-6-4.4-11.4-9.5-16.1-15.3c-5.7-7.1-11.1-14.4-15.9-22.1c-2.6-4.1-4.7-8.4-6.3-13c-2.7-8.1-2.8-16.4-0.9-24.7
	c1.5-6.2,5-11.1,10-14.9c3.7-2.8,7.9-3.9,12.5-3.4c5.3,0.6,10,2.5,14.2,5.8C504.4,381.5,509.4,386.4,512.5,393.8z M508.3,460.9
	c11.3-4.2,26.8-13.8,34.7-21.4c4-3.9,7.6-8.1,10.4-13c4.4-7.6,6.2-15.7,4.2-24.5c-3.2-14.1-17.6-19.9-29.3-16.1
	c-1.5,0.5-3,1.5-4.2,2.6c-4,3.9-7.3,8.4-9.3,13.7c-0.3,0.7-0.4,1.4-0.7,2.1c-0.9,1.8-3.5,2-4.6,0.3c-0.8-1.2-1.5-2.6-1.8-4
	c-2.2-8.2-7.8-13.7-14.4-18.4c-3.4-2.4-7.3-3.5-11.5-3.3c-1.9,0.1-3.6,0.7-5.1,1.9c-3.6,2.8-6.4,6.3-7.3,10.8
	c-0.9,4.3-1.3,8.7-0.7,13.2c0.9,6.4,3.4,12.1,6.7,17.5c5.2,8.5,11.1,16.6,17.6,24.2C497.4,451.7,502.6,456.4,508.3,460.9z"/>
<path id="XMLID_466_" d="M193.3,947.9c0.5-2.9,1.4-5.8,1.5-8.7c0.3-7.3,4.7-12.2,9.5-16.9c5.1-5,11.7-6.8,18.3-8.6
	c3.2-0.9,6.5-1,9.9-0.8c6.8,0.4,12.1,3.4,16,8.7c5.9,7.9,8.6,16.7,6.8,26.6c-0.6,3-1.7,5.6-3.6,8c-4.4,5.8-9.5,10.8-15.5,15
	c-9.8,6.8-19.4,6.2-29.3-0.7c-3.6-2.6-6.8-5.7-9.3-9.4C195.1,957.1,193.5,952.8,193.3,947.9z M230,917.3c-6-0.3-10.9,1.6-15.9,3.8
	c-9.2,4.2-14.2,11.2-16,21.1c-1.1,6.3,0.2,11.7,3.8,16.7c2.5,3.5,5.7,6.4,9.3,8.6c7.2,4.5,14.5,5,21.8-0.1
	c5.7-3.9,10.7-8.6,14.7-14.2c1.3-1.7,2.2-3.9,2.7-6c1.8-6.8-0.1-13.2-3.2-19.2C243.7,921.1,238.2,916.5,230,917.3z"/>
<path id="XMLID_469_" d="M424.8,1056.7c-0.2,1.8-0.2,3.7-0.5,5.5c-0.9,5.7-3.9,10-8.9,12.7c-11.5,6.4-22.3,2.5-29.5-6.7
	c-2.1-2.7-2.8-6.1-2.5-9.5c0.6-6.4,2.9-12.2,6.4-17.6c1.6-2.4,3.7-4.1,6.6-4.6c2.7-0.5,5.4-1.2,8.2-1.5c1.6-0.2,3.5-0.4,4.9,0.3
	c6,2.7,11.6,6.1,14,12.7c1,2.7,1.1,5.8,1.6,8.7C425,1056.6,424.9,1056.7,424.8,1056.7z M420.8,1056.7c0.1-5.8-0.7-8.8-3.6-11.8
	c-1.8-1.9-3.6-3.7-5.6-5.3c-1.1-0.9-2.6-1.8-3.9-1.8c-9.1-0.3-15,1.9-18.7,10.6c-1.3,3-1.8,6.4-2.3,9.6c-0.7,4.5,0.8,8.4,4.4,11.3
	c1.1,0.9,2.3,1.9,3.5,2.7c8,5.3,19.5,1.9,23.7-4.7C420.3,1064,420.7,1060.5,420.8,1056.7z"/>
<path id="XMLID_472_" d="M278,1009.1c3.8-0.1,7,1.3,9.8,3.6c1.5,1.3,2.2,2.9,2.2,4.9c0,4.8-3.1,9.4-7.6,11.2c-2.3,0.9-4.7,1.2-7.1,1
	c-3.7-0.2-6.3-2.4-7-6c-0.6-3.3-0.3-6.6,1.4-9.7C271.4,1010.7,274.1,1008.7,278,1009.1z M275.9,1026.8c4.2-0.4,7.8-1.4,9.6-5.5
	c1.4-3.2,0.7-5.1-2.4-6.8c-1.8-1-3.7-1.6-5.8-1.3c-0.9,0.1-1.8,0.5-2.5,1c-2,1.7-3.3,4-3.9,6.5
	C270.1,1024.1,272.5,1026.9,275.9,1026.8z"/>
<path id="XMLID_475_" d="M362.5,1112.9c-0.2-0.2-0.3-0.4-0.5-0.6c0.3-0.1,0.6-0.2,0.9-0.2c0.1,0,0.2,0.2,0.3,0.3
	C363,1112.6,362.8,1112.7,362.5,1112.9z"/>
<path id="XMLID_476_" d="M385.2,550c0.4-1.1,0.7-2.2,1.1-3.3c1.2-2.1,2.4-4.2,3.5-6.2c2.3-4,4.5-8.1,7-12c2.8-4.3,3.9-4.5,9.5-2.5
	c-2.7,4.6-5.7,9-8,13.8c-2.4,4.8-4.4,9.8-6,14.9c-1.6,4.9-2.8,10-3.9,15c-1.2,5.3-1.5,10.6-0.5,16.3c1.1,0.1,2.2,0.4,3.2,0.4
	c4.3,0.1,7.9,1.9,11.1,4.6c5.2,4.3,6.3,10.7,2.8,16.5c-1.6,2.7-3.8,5-5.7,7.4c4.4,8.3,13.8,15.2,22.8,17.3c8.4,1.9,16.6,1.1,24.6-2
	c9.7-3.8,17.9-9.6,24.5-17.7c0.6-0.7,1-1.5,1.6-2.5c-1.8-0.9-3.2-1.6-4.7-2.3c-4.3-2-7.8-4.9-11-8.3c-7.9-8.3-5.6-22.3,0.4-27.9
	c3.5-3.4,7.4-6.1,11.9-8.1c2.4-1,4.7-2,7.3-3c0.1-4.7-1.7-8.8-2.7-13.1c-0.9-4.1-2.6-8-3.5-12.2c4.9-0.7,6-0.3,7.4,3.1
	c5.4,12.9,9.3,26.2,10.8,40.1c0.8,8.2-0.2,16.3-2.5,24.2c-1.8,6-4.7,11.3-8.7,16c-9.9,11.5-21.9,19.5-36.9,22.2
	c-14.8,2.7-28.4-0.2-39.8-10.7c-9.1-8.4-14.9-18.8-18.7-30.5c-4.3-13.3-3.5-26.7,0.5-39.9C383.5,556.4,384.3,553.2,385.2,550z
	 M476.6,602.1c4.2-8.9,4.8-25.7,1.4-34.8c-6,1.3-12.9,5.5-16.2,9.8c-3.7,5-3.6,12.3,0.5,17c2.3,2.7,5,5,8.2,6.5
	C472.3,601.5,474,602.6,476.6,602.1z M396.5,610.1c5.4-4.9,6.9-9.6,4.6-13.7c-1.4-2.6-3.8-3.9-6.4-5c-1.8-0.8-3.7-1.6-5.7-0.3
	C389.2,597.1,392.4,605.2,396.5,610.1z"/>
<path id="XMLID_480_" d="M384.8,506.6c-0.4,1.7-0.8,3.9-1.6,5.9c-2,5.3-4.3,10.6-6.4,15.9c-0.3,0.8-0.8,1.7-1.4,2.4
	c-0.7,0.9-1.7,1.4-2.9,1.1c-1.2-0.3-2.3-1.6-2.3-2.8c0-1.1,0.1-2.3,0.5-3.2c3-6.9,6.2-13.8,9.3-20.7c0.1-0.3,0.4-0.6,0.6-0.9
	c0.8-1,1.8-1.5,2.9-0.9c0.7,0.4,0.9,1.4,1.3,2.2C384.9,505.7,384.8,505.9,384.8,506.6z"/>
<path id="XMLID_481_" d="M314.6,523c0.7,1.1,1.4,1.7,1.6,2.4c0.3,1-1.1,2-2.2,1.7c-1-0.3-1.7-1.1-1.3-2
	C312.9,524.4,313.8,523.9,314.6,523z"/>
<path id="XMLID_482_" d="M328.1,539.9c-0.5-0.5-1-0.8-1.1-1.2c-0.2-0.7,0.6-1.5,1.3-1.2c0.4,0.2,0.9,0.7,0.9,1.1
	C329,539,328.5,539.4,328.1,539.9z"/>
<path id="XMLID_483_" d="M312.6,546.2c-0.3,0.1-0.5,0.3-0.8,0.3c-0.1,0-0.2-0.2-0.3-0.3c0.3-0.1,0.5-0.3,0.8-0.4
	C312.3,545.8,312.5,546,312.6,546.2z"/>
<path id="XMLID_484_" d="M671.6,539.5c2,0.2,3.6,0.3,5.2,0.6c0.3,0,0.7,0.4,0.7,0.7c0,0.5,0,1.3-0.3,1.5c-0.9,0.6-1.9,1-3,1.3
	c-1.9,0.5-3.9,0.8-6,1.2c-1.4,2.5-2.7,5-4.1,7.3c-1.2,2-2.6,2.7-3.4,2c-1.1-1-1-2.3-0.7-3.6c1.7-5.7,4-11.1,7.7-15.8
	c0.1-0.1,0.2-0.3,0.3-0.4c1.3-1.5,2.6-1.9,3.9-1.3c1.2,0.6,1.4,1.8,0.6,3.8C672.4,537.7,672,538.5,671.6,539.5z"/>
<path id="XMLID_485_" d="M616.1,525.1c0.5-2.8,0.9-5.2,1.4-7.5c0.2-0.8,0.8-1.7,1.4-2.3c0.8-0.9,2-1.2,3-0.6
	c0.7,0.4,1.3,1.3,1.6,2.1c0.3,0.6,0.2,1.5,0.1,2.2c-0.4,2.9-0.8,5.9-1.4,8.8c-0.2,1.1-0.8,2.1-1.3,3c-0.9,1.5-2.9,1.5-3.5-0.1
	C616.7,528.7,616.4,526.7,616.1,525.1z"/>
<path id="XMLID_486_" class="st0" d="M478.5,383.6c-11,15.4-6.5,36.6,14.7,52.7"/>
</svg>
