<?xml version="1.0" encoding="utf-8"?>
<!-- Generator: Adobe Illustrator 22.1.0, SVG Export Plug-In . SVG Version: 6.00 Build 0)  -->
<svg version="1.1" id="Layer_6" xmlns="http://www.w3.org/2000/svg" xmlns:xlink="http://www.w3.org/1999/xlink" x="0px" y="0px"
	 viewBox="0 0 1527.1 1502.4" style="enable-background:new 0 0 1527.1 1502.4;" xml:space="preserve">
<style type="text/css">
	.st0{fill:#FFFFFF;}
	.st1{fill:#E84B6C;}
	.st2{fill:#F2516C;}
	.st3{fill:#F49090;}
	.st4{fill:none;stroke:#000000;stroke-width:3;stroke-linecap:round;stroke-miterlimit:10;}
	.st5{fill:none;stroke:#000000;stroke-miterlimit:10;}
</style>
<polygon id="XMLID_3158_" class="st0" points="523.4,1246.2 513.2,1246.2 484.6,1253.8 455.9,1276.7 436.1,1291.6 412.7,1301.2 
	392,1298.7 379.2,1278.8 375.9,1261 381,1239.1 396.1,1218.6 414.4,1210.7 420.8,1214.1 416.3,1220.2 405.5,1228.5 397,1242.2 
	391.1,1259.1 392,1268.9 401.9,1284.6 415.4,1288 431.1,1284.6 441.9,1271.1 458.6,1256.7 485.9,1243.1 507.4,1236.7 522.6,1237.3 
	"/>
<polygon id="XMLID_3172_" class="st0" points="372.6,1351.4 366.3,1355.4 364.2,1361.7 368.4,1371 384.4,1378.5 390.7,1384.3 
	409.6,1378.5 429.3,1367.9 447.8,1351.4 466.2,1318.8 486.4,1288 510.7,1271.9 526.2,1268.9 526.2,1256 518.1,1259.1 500.7,1261 
	483.7,1274.9 464.4,1292.1 453.6,1313.6 440.1,1335.7 421.3,1357.2 402.4,1368.9 383.5,1366.7 375.9,1355.9 "/>
<polygon id="XMLID_209_" class="st0" points="1140.8,850.4 1116.2,868.5 1096.7,885.1 1074.5,914.3 1077.8,925.1 1084.4,935.7 
	1101.4,933.2 1116.2,939.2 1121.8,948.7 1116.2,961.5 1101.4,971.2 1085,975.5 1064.4,989.8 1061.5,999.3 1079.9,994.9 
	1090.5,986.4 1113.6,975.5 1134,955.5 1138.4,942.1 1116.2,927.8 1101.2,921.1 1094.7,909.7 1114.1,887.7 1143.2,864.7 "/>
<polygon id="XMLID_1136_" class="st0" points="585.8,633.8 642.8,633.8 729.4,641.3 739.3,660.2 740.1,707.3 762.5,739.1 
	804.4,741.9 810.1,801.9 805.1,862.2 810.1,911.6 823.5,935.2 842,952 882.8,942 966.5,883.6 1021.6,830.2 1126.6,750.5 1129,739.1 
	1145.6,716.5 1177.9,697.8 1209.2,707.3 1232,774.8 1240.3,862.4 1240.3,869.5 1257.5,855.4 1279.2,850.4 1296.5,851 1309.6,870.5 
	1309.6,883.6 1301,924.5 1291.3,929.9 1288,917.8 1298.1,897.5 1303.5,879.5 1296.7,873.2 1290,867.8 1275.1,866.1 1252.2,874.6 
	1243.8,879.5 1236,909.7 1223,953.3 1205,975.5 1178,975.5 1161.1,939.2 1148.3,897.5 1145.6,866.1 1144.4,839.5 1140.8,814.5 
	1106.2,854.3 964.1,984.5 913.3,1040.1 857.2,1078 820.4,1097.8 762.5,1092.3 727.4,1057.9 693.4,994.9 676.4,951.5 658.3,840.9 
	644.2,769.4 625.6,769.1 585.8,790.5 545.1,813.1 481.5,850.4 431.1,898.8 405.9,940 405.9,975.5 415,1022.9 456.8,1064.7 
	502.6,1106.5 550.8,1141.1 577.6,1152.8 627.6,1152.8 663,1167.3 688.7,1196.8 683.4,1222.2 671.3,1246.8 590.2,1349.2 
	538.9,1416.6 513.6,1430.8 489.1,1424.7 489.1,1408.5 510.5,1301.2 533.1,1248.9 522.3,1225.1 522.3,1201.8 503.7,1201.8 
	425.7,1156.9 323.6,1074.2 294.2,1019.4 273.5,975.5 287.2,883.6 320.8,830.2 405.5,760 485.4,716.5 538.9,673 "/>
<polygon id="XMLID_1135_" class="st0" points="1143.3,324 1143.3,238.4 1115.6,209.4 1096.4,184.3 1092.2,172.6 1100.3,167.2 
	1117.8,171.3 1164.1,216.8 1171.3,196.9 1187.2,150.6 1208.2,120.5 1224.2,113 1234.2,110.6 1241.4,119.6 1241.4,136.6 
	1230.3,158.8 1254.9,133.9 1265.7,132.1 1265.7,147.6 1249.5,179.8 1237.8,198.7 1236.1,204.1 1257.6,188.8 1294.3,160.3 
	1298.1,164.5 1289.1,187 1268.8,221 1238.2,267.9 1212.7,336 1193.1,343.6 1156,338.9 "/>
<polygon id="XMLID_1134_" class="st0" points="557.8,101.4 552.5,106.2 545.1,107.4 528.3,92.8 520.1,73 520.1,59.8 531.6,44.1 
	550.3,33.8 576.8,40.1 614.1,47.3 654,75.7 670.5,78.4 689.6,91 673.9,91 698.8,120.9 708.3,136.6 703.5,143.8 683,122.8 
	655.5,106.2 667.3,122 683,138.9 689.6,151 689.6,158.8 683,155.3 667.3,144.5 673.9,158.8 667.3,158.8 655.5,156.1 611.8,119.6 
	624.6,139.1 636.8,159.3 632.6,164.5 611.6,147 "/>
<polygon id="XMLID_1133_" class="st1" points="739,643.6 739,589.6 746.7,524.7 763.3,393.6 771.1,345.7 831.5,351.5 923.3,371.5 
	958.6,396.1 970,429.1 957.6,459 941.5,474 934.4,483.1 970,489.4 1016.7,486.3 1057.2,462.2 1089.3,429.1 1125.9,338.9 1124,315.2 
	1148,331.4 1177.9,338.9 1203,338.9 1230.3,334 1220.1,370.4 1177.9,452.9 1137.9,527.6 1098.9,571.3 1047.7,599.6 981.5,604 
	924.2,592.3 890,583 890,598.6 890,633.8 886.6,671.2 864.9,707.3 822.6,735.4 794.6,745.4 768.7,739.1 749.1,732.3 740.2,714 "/>
<polygon id="XMLID_1132_" class="st1" points="519.1,631.9 504.1,665.8 498.2,682.1 511.7,702.4 527.9,705 554.2,689.5 576.4,664.6 
	592.7,619.3 599,557.3 605.6,484.7 631.3,419.8 663.6,387.7 666.3,373.7 625.6,366.7 504.5,398.8 379.1,370.9 364.7,352.2 
	369.3,204.1 354.3,224.5 323.9,288.6 317,358.6 332.8,420.1 386.8,497.8 439.7,532.4 507.3,551.3 527.3,556.4 522.1,618.4 "/>
<polygon id="XMLID_1131_" class="st2" points="404.1,151 469.2,86 514.1,59.8 522.3,83.1 542.7,107.1 552.5,111.7 547.2,122.8 "/>
<polygon id="XMLID_1130_" class="st3" points="872.7,358.6 879.6,338.9 890,334 895.4,338.9 895.4,363.9 892.1,371.5 "/>
<polygon id="XMLID_1129_" class="st0" points="385.5,165 369.3,178.2 369,216.8 365.4,331.4 369.6,358.6 385.5,374.6 497.9,399.8 
	670.5,352.7 678.4,334 669.9,327.2 673.9,315.2 683,309.1 689.6,306.3 695.7,284.9 719.7,267.9 770.9,280.6 786.2,289.4 
	791.6,311.4 801.2,314.8 816.9,304.7 828.6,296.9 833.1,262.9 820.7,133 717.3,91 677,91 706,126.2 710.2,137.1 706,141.8 
	663.6,110.6 666.3,120.9 689.6,146 689.6,153.9 673.9,147.6 673.9,158.8 667.3,165.1 616.7,126.3 636.8,158.8 629.3,162.7 
	571.6,111.6 395.7,158.2 "/>
<ellipse id="XMLID_1128_" class="st1" cx="580.4" cy="285.7" rx="52.2" ry="58.3"/>
<ellipse id="XMLID_1127_" class="st1" cx="730.2" cy="242.6" rx="52.2" ry="58.3"/>
<ellipse id="XMLID_1126_" class="st0" cx="580.4" cy="285.7" rx="18.7" ry="21.6"/>
<ellipse id="XMLID_1125_" class="st0" cx="734.3" cy="242.6" rx="18.7" ry="21.6"/>
<g id="XMLID_1122_">
	<path id="XMLID_1124_" d="M831.3,125.5c0,0,7-5.7,17.5-14.2c5.3-4.3,11.4-9.2,18-14.5c6.6-5.3,13.7-10.8,20.8-16.4
		c3.5-2.8,7-5.6,10.5-8.4c3.4-2.8,6.8-5.5,10.2-8.1c3.4-2.5,6.7-4.9,10-7c3.2-2.2,6.3-4.1,9.2-5.9c2.9-1.8,5.6-3.4,7.9-4.8
		c2.4-1.4,4.5-2.6,6.3-3.5c3.5-1.9,5.6-2.8,5.6-2.8l0.5,0.6c0,0-1.5,1.7-4.4,4.5c-1.4,1.4-3.2,3.1-5.2,5c-2,1.9-4.3,4-6.9,6.2
		c-2.6,2.2-5.3,4.6-8.4,7c-3,2.5-6.2,5-9.6,7.5c-3.4,2.5-7,4.9-10.7,7.4c-3.7,2.5-7.4,5-11.1,7.6c-7.4,5.1-14.8,10.3-21.8,15.1
		c-7,4.8-13.5,9.2-19.1,13c-11.2,7.6-18.7,12.6-18.7,12.6L831.3,125.5z"/>
</g>
<g id="XMLID_1119_">
	<path id="XMLID_1121_" d="M853.1,164.1c0,0,8.6-2.2,21.4-5.4c6.4-1.6,13.9-3.5,22-5.4c8-2,16.6-3.9,25.2-6c4.3-1,8.6-2.1,12.8-3.1
		c4.2-1.1,8.4-2.1,12.4-2.9c4.1-0.8,8-1.5,11.7-2.1c3.7-0.6,7.3-1,10.6-1.4c3.3-0.4,6.3-0.7,9-0.9c2.7-0.2,5.1-0.4,7-0.5
		c3.9-0.2,6.2-0.2,6.2-0.2l0.2,0.8c0,0-2.1,0.9-5.7,2.2c-1.8,0.7-4.1,1.4-6.6,2.3c-2.6,0.8-5.5,1.7-8.7,2.6
		c-3.2,0.9-6.7,1.9-10.3,2.8c-3.7,0.9-7.6,1.8-11.6,2.6c-4.1,0.8-8.3,1.5-12.6,2.1c-4.3,0.6-8.7,1.3-13,2.1
		c-8.7,1.5-17.4,3-25.6,4.3c-8.2,1.3-15.8,2.5-22.4,3.5c-13.1,2.1-21.8,3.3-21.8,3.3L853.1,164.1z"/>
</g>
<g id="XMLID_1116_">
	<path id="XMLID_1118_" d="M856.8,203.7c0,0,8.8,1.5,21.9,4c6.6,1.2,14.2,2.6,22.4,4.2c8.2,1.5,16.9,3.3,25.6,5
		c4.4,0.9,8.7,1.7,13,2.4c4.3,0.8,8.5,1.6,12.6,2.5c4.1,0.9,8,1.9,11.6,3c3.7,1,7.1,2.1,10.3,3.1c3.2,1,6.1,2,8.7,2.9
		c2.6,0.9,4.8,1.7,6.6,2.5c3.7,1.4,5.7,2.4,5.7,2.4l-0.2,0.8c0,0-2.3,0-6.2-0.4c-2-0.1-4.3-0.4-7-0.7c-2.7-0.3-5.8-0.7-9-1.2
		c-3.3-0.5-6.9-1-10.6-1.7c-3.8-0.7-7.7-1.5-11.8-2.4c-4-1-8.2-2.1-12.4-3.3c-4.2-1.2-8.5-2.4-12.8-3.5c-8.6-2.3-17.2-4.5-25.2-6.7
		c-8-2.2-15.5-4.2-22-6c-12.9-3.5-21.4-6-21.4-6L856.8,203.7z"/>
</g>
<polygon id="XMLID_1115_" class="st0" points="793.1,426.3 786.4,430.7 787.8,438 806.1,442.8 831.5,441.7 845.7,438 860.9,429.1 
	872.7,416.2 884.1,402 890,381.9 895.4,363.9 898.3,349.8 894.3,334 898.3,316.7 898.3,313.4 894.3,313.4 890,320.4 886.5,334 
	879.8,341.3 875.2,351.5 872.7,360.5 872.7,373.4 867,390.9 862.9,403.4 853.1,418.5 826.2,429.1 809.7,429.1 "/>
<polygon id="XMLID_1114_" class="st0" points="543.7,495.4 539.7,478.7 543.7,462.2 557.5,443.5 580.4,430.7 599,420.6 613.5,417.5 
	616.7,413.4 611.5,405.5 601.7,408.1 573.4,416.8 543.7,434.7 529.9,453.4 522.5,471.5 522.5,489.4 525.3,500.8 535,501.6 "/>
<polygon id="XMLID_1113_" class="st0" points="665,390.4 671.8,349.2 679.8,330.5 671.2,323.7 672.4,310.8 690.9,302.8 697,281.4 
	715.1,272 740.3,270.5 776.7,279.7 779.3,297.4 783.7,317.9 794.5,323.7 796.5,340.5 784.9,344.1 772.5,342.2 766.4,379 
	763.8,396.3 717,416.5 687.3,425.6 679.4,427.2 668.6,414 "/>
<polygon id="XMLID_1112_" points="1139.9,302.5 1137.3,324 1130.8,321.1 1130.8,313.2 1130.8,307.1 "/>
<polygon id="XMLID_1111_" points="1219.9,316.7 1227.1,324 1224,331.8 1213.2,337.1 1216.1,326.9 "/>
<g id="XMLID_1108_">
	<path id="XMLID_1110_" d="M1187.8,192.4c0,0,0.9-0.3,2.4-0.8c0.8-0.2,1.7-0.5,2.8-0.7c1.1-0.2,2.4-0.5,3.7-0.6
		c1.4-0.1,2.9-0.4,4.5-0.3c0.8,0,1.6,0,2.5,0c0.8,0.1,1.7,0.1,2.6,0.2c0.9,0,1.8,0.2,2.6,0.4c0.9,0.2,1.8,0.3,2.7,0.5
		c0.9,0.2,1.8,0.5,2.7,0.7c0.9,0.3,1.8,0.6,2.7,0.9c0.9,0.3,1.7,0.7,2.6,1.1c0.9,0.4,1.7,0.7,2.5,1.2c0.8,0.4,1.6,0.8,2.4,1.3
		c0.8,0.5,1.5,0.9,2.2,1.4c1.5,0.9,2.8,1.9,4.1,2.9c1.2,1,2.4,1.9,3.4,2.9c0.5,0.5,1,0.9,1.4,1.3c0.4,0.5,0.8,0.9,1.2,1.3
		c0.8,0.8,1.4,1.5,1.9,2.1c1,1.2,1.6,1.9,1.6,1.9s-0.8-0.5-2.1-1.3c-1.3-0.9-3.2-2.1-5.5-3.5c-1.1-0.7-2.4-1.4-3.7-2.2
		c-1.3-0.8-2.7-1.5-4.2-2.3c-0.7-0.4-1.5-0.8-2.2-1.2c-0.8-0.4-1.5-0.7-2.3-1.1c-0.8-0.4-1.6-0.7-2.4-1c-0.8-0.3-1.6-0.7-2.4-1
		c-0.8-0.3-1.6-0.6-2.4-0.9c-0.8-0.2-1.7-0.5-2.5-0.7c-0.8-0.3-1.6-0.4-2.5-0.6c-0.8-0.2-1.6-0.4-2.4-0.5c-0.8-0.1-1.6-0.3-2.4-0.4
		c-0.8-0.1-1.5-0.2-2.3-0.3c-1.5-0.2-2.9-0.3-4.2-0.4c-0.7-0.1-1.3-0.1-1.9-0.1c-0.6,0-1.2,0-1.7-0.1c-1.1-0.1-2.1,0-2.9,0
		C1188.8,192.4,1187.8,192.4,1187.8,192.4z"/>
</g>
<g id="XMLID_1105_">
	<path id="XMLID_1107_" d="M1139.9,339c0,0,1.1,0.5,3.1,1.3c1,0.5,2.2,0.9,3.6,1.4c1.4,0.5,2.9,1.1,4.7,1.6c0.9,0.3,1.8,0.6,2.7,0.9
		c0.9,0.3,1.9,0.5,2.9,0.8c2,0.6,4.1,1,6.3,1.5c2.2,0.5,4.5,0.9,6.9,1.2c1.2,0.2,2.4,0.3,3.5,0.5c1.2,0.2,2.4,0.2,3.6,0.4
		c2.4,0.3,4.8,0.3,7.2,0.5c2.4,0,4.7,0.1,7,0c1.1-0.1,2.2-0.1,3.3-0.2c1.1-0.1,2.1-0.2,3.2-0.3c1-0.1,2-0.3,3-0.4
		c1-0.1,1.9-0.2,2.8-0.4c0.9-0.2,1.7-0.4,2.5-0.6c0.8-0.2,1.6-0.3,2.3-0.6c1.4-0.5,2.7-0.7,3.7-1.1c2-0.8,3.1-1.2,3.1-1.2
		s-1.1,0.6-2.9,1.7c-0.9,0.5-2.2,1-3.5,1.6c-1.4,0.6-3,1-4.8,1.6c-1.8,0.4-3.7,1-5.8,1.3c-1.1,0.2-2.1,0.3-3.2,0.5
		c-1.1,0.2-2.2,0.2-3.4,0.3c-2.3,0.2-4.7,0.2-7.1,0.3c-2.4-0.1-4.9-0.1-7.4-0.4c-1.2-0.1-2.5-0.2-3.7-0.4c-1.2-0.2-2.4-0.4-3.6-0.6
		c-1.2-0.2-2.4-0.5-3.5-0.7c-1.2-0.3-2.3-0.5-3.4-0.8c-2.2-0.6-4.4-1.2-6.4-1.9c-1-0.3-2-0.7-2.9-1c-0.9-0.4-1.8-0.8-2.7-1.1
		c-0.8-0.4-1.7-0.7-2.4-1.1c-0.8-0.4-1.5-0.8-2.1-1.1c-0.7-0.3-1.3-0.7-1.9-1c-0.6-0.3-1.1-0.6-1.5-0.9
		C1140.9,339.6,1139.9,339,1139.9,339z"/>
</g>
<g id="XMLID_1102_">
	<path id="XMLID_1104_" d="M903,445.2c0,0,0.4,0.6,1.1,1.8c0.3,0.6,0.8,1.2,1.3,2c0.5,0.8,1.1,1.6,1.8,2.5c0.6,0.9,1.5,1.9,2.2,2.9
		c0.9,1,1.7,2,2.7,3.1c0.9,1.1,2,2.1,3,3.1c1.1,1,2.1,2.1,3.3,3.1c1.1,1,2.3,2,3.4,3c1.2,0.9,2.3,1.9,3.4,2.8
		c1.1,0.9,2.2,1.7,3.3,2.5c1.1,0.8,2.1,1.5,3,2.2c1.9,1.4,3.4,2.5,4.5,3.3c1.1,0.8,1.7,1.3,1.7,1.3s-0.7-0.3-2-0.8
		c-0.6-0.3-1.4-0.6-2.2-1c-0.8-0.4-1.8-0.9-2.8-1.4c-1-0.6-2.1-1.1-3.3-1.9c-1.1-0.7-2.3-1.4-3.5-2.3c-1.2-0.8-2.4-1.7-3.7-2.6
		c-1.2-1-2.4-1.9-3.6-3c-1.2-1-2.3-2.2-3.4-3.3c-1.1-1.1-2.1-2.3-3-3.4c-1-1.1-1.7-2.3-2.5-3.4c-0.7-1.2-1.4-2.2-1.9-3.3
		c-0.6-1-1-2-1.4-2.9c-0.4-0.9-0.7-1.6-0.9-2.3C903.3,445.9,903,445.2,903,445.2z"/>
</g>
<g id="XMLID_1099_">
	<path id="XMLID_1101_" d="M1038.8,587.4c0,0,0.7-0.3,1.8-0.7c1.2-0.4,2.8-1.1,4.8-1.8c1-0.4,2-0.8,3.1-1.2c1.1-0.4,2.3-1,3.5-1.4
		c2.4-1.1,4.9-2.2,7.4-3.4c1.2-0.6,2.5-1.2,3.7-1.9c1.2-0.7,2.4-1.3,3.5-2c1.1-0.7,2.2-1.3,3.2-1.9c1-0.7,2-1.2,2.8-1.8
		c1.8-1.1,3.2-2.1,4.2-2.8c1-0.7,1.6-1.1,1.6-1.1s-0.4,0.6-1.3,1.5c-0.4,0.5-0.9,1-1.5,1.6c-0.6,0.6-1.3,1.3-2.1,2
		c-0.8,0.7-1.7,1.5-2.6,2.2c-1,0.8-2,1.6-3.1,2.3c-1.1,0.7-2.2,1.5-3.5,2.2c-1.2,0.7-2.5,1.4-3.7,2.1c-1.3,0.6-2.6,1.2-3.9,1.8
		c-1.3,0.6-2.6,1-3.8,1.5c-1.3,0.4-2.5,0.8-3.7,1.1c-1.2,0.3-2.3,0.6-3.3,0.8c-1,0.2-2,0.4-2.9,0.5c-0.9,0.2-1.6,0.2-2.2,0.3
		C1039.5,587.3,1038.8,587.4,1038.8,587.4z"/>
</g>
<path id="XMLID_1098_" class="st1" d="M303.6,863.1l-18.9,37.8l-11.1,50.9l4.5,43.1C348,989.6,365.3,880.9,303.6,863.1z"/>
<path id="XMLID_1097_" class="st1" d="M713.4,1035.6l9.4,21.6l12.9,20.6l26.8,14.5l29.1,9l28.8-3.5l6.5-3.5
	C826.9,1027.4,758.6,1001.3,713.4,1035.6z"/>
<g id="XMLID_1094_">
	<path id="XMLID_1096_" d="M239.3,972.6c0,0-0.1-0.5-0.3-1.5c-0.2-1-0.4-2.4-0.7-4.3c-0.1-0.9-0.3-1.9-0.4-3
		c-0.1-1.1-0.2-2.3-0.3-3.6c-0.1-1.3-0.2-2.7-0.3-4.2c-0.1-1.5,0-3-0.1-4.6c0-1.6,0-3.3,0.1-5c0.1-1.7,0.2-3.5,0.4-5.4
		c0.1-0.9,0.1-1.9,0.2-2.8c0.1-0.9,0.3-1.9,0.4-2.9c0.3-1.9,0.5-3.9,0.9-5.9c0.8-4,1.6-8.1,2.8-12.1c1-4.1,2.6-8.2,4-12.2
		c1.7-4,3.2-8,5.2-11.8c1.8-3.9,4-7.4,6-10.9c1.1-1.7,2.2-3.4,3.3-5c0.5-0.8,1.1-1.6,1.6-2.4c0.5-0.8,1.1-1.5,1.7-2.2
		c1.1-1.5,2.2-2.9,3.3-4.2c1.1-1.3,2.3-2.6,3.3-3.8c1.1-1.2,2.1-2.3,3.1-3.4c1.1-1,2.1-2,3-2.9c0.9-0.9,1.8-1.7,2.7-2.5
		c0.8-0.7,1.7-1.4,2.4-2c1.4-1.2,2.6-2.1,3.4-2.7c0.8-0.6,1.2-0.9,1.2-0.9s-0.3,0.4-0.9,1.3c-0.6,0.8-1.4,2-2.6,3.5
		c-0.5,0.7-1.2,1.5-1.8,2.4c-0.6,0.9-1.3,1.9-2,2.9c-0.7,1-1.5,2.2-2.3,3.3c-0.8,1.2-1.6,2.5-2.4,3.8c-0.8,1.3-1.8,2.6-2.6,4.1
		c-0.9,1.4-1.7,2.9-2.7,4.5c-0.4,0.8-0.9,1.5-1.4,2.3c-0.4,0.8-0.9,1.6-1.3,2.4c-0.9,1.6-1.9,3.3-2.7,5c-0.9,1.7-1.7,3.5-2.6,5.3
		c-0.9,1.8-1.7,3.6-2.5,5.4c-1.7,3.7-3.2,7.5-4.8,11.3c-1.4,3.9-2.9,7.7-4,11.6c-0.6,1.9-1.3,3.8-1.8,5.8c-0.5,1.9-1,3.8-1.6,5.7
		c-0.5,1.9-0.8,3.7-1.3,5.5c-0.2,0.9-0.4,1.8-0.6,2.7c-0.2,0.9-0.3,1.8-0.5,2.6c-0.3,1.7-0.7,3.4-1,5.1c-0.3,1.6-0.5,3.3-0.8,4.8
		c-0.2,1.5-0.5,3-0.7,4.4c-0.2,1.4-0.3,2.7-0.5,4c-0.2,1.3-0.3,2.4-0.4,3.6c-0.1,1.1-0.2,2.1-0.3,3.1c-0.1,1.8-0.3,3.3-0.4,4.3
		C239.4,972.1,239.3,972.6,239.3,972.6z"/>
</g>
<g id="XMLID_1091_">
	<path id="XMLID_1093_" d="M663,1019.4c0,0,0.2,0.3,0.5,0.7c0.3,0.5,0.7,1.2,1.2,2.1c0.5,0.9,1.2,2,1.9,3.2c0.7,1.2,1.5,2.6,2.4,4
		c0.8,1.5,1.8,3.1,2.8,4.7c1,1.7,2.1,3.4,3.2,5.1c1.2,1.7,2.3,3.6,3.6,5.4c1.2,1.8,2.5,3.6,3.8,5.4c1.3,1.8,2.6,3.6,4,5.3
		c1.3,1.8,2.7,3.4,4,5.1c1.4,1.6,2.6,3.2,3.9,4.6c1.3,1.5,2.4,2.9,3.6,4.1c1.1,1.3,2.2,2.5,3.1,3.5c0.9,1.1,1.7,2,2.4,2.8
		c0.7,0.7,1.2,1.4,1.6,1.8c0.4,0.4,0.6,0.7,0.6,0.7s-0.3-0.1-0.8-0.3c-0.5-0.2-1.3-0.5-2.3-0.9c-1-0.4-2.1-0.9-3.4-1.6
		c-0.6-0.3-1.3-0.7-2.1-1.1c-0.7-0.4-1.4-0.9-2.2-1.3c-0.8-0.5-1.6-1-2.3-1.5c-0.8-0.6-1.6-1.2-2.4-1.8c-1.7-1.2-3.3-2.7-5-4.2
		c-1.6-1.6-3.3-3.2-4.8-5c-1.6-1.7-3-3.7-4.5-5.6c-1.3-2-2.7-3.9-3.9-6c-1.2-2-2.2-4.1-3.2-6.1c-0.9-2.1-1.8-4-2.4-6
		c-0.3-1-0.6-1.9-0.9-2.8c-0.3-0.9-0.5-1.8-0.7-2.7c-0.2-0.9-0.4-1.7-0.6-2.5c-0.1-0.8-0.3-1.6-0.4-2.3c-0.3-1.4-0.4-2.7-0.5-3.7
		c-0.1-1-0.1-1.9-0.1-2.4C663,1019.7,663,1019.4,663,1019.4z"/>
</g>
<g id="XMLID_1088_">
	<path id="XMLID_1090_" d="M652.2,1040.1c0,0,0.1,0.1,0.3,0.4c0.2,0.3,0.5,0.6,0.9,1.1c0.3,0.5,0.8,1.1,1.3,1.7
		c0.5,0.7,1,1.4,1.6,2.2c0.5,0.8,1.1,1.7,1.8,2.6c0.6,0.9,1.3,1.8,1.9,2.8c0.7,1,1.3,2,2,3c0.7,1,1.3,2,2,3c0.7,1,1.4,2,2,3
		c0.7,1,1.4,2,2,3c0.7,1,1.3,1.9,1.9,2.8c0.6,0.9,1.2,1.8,1.7,2.6c0.5,0.8,1,1.6,1.4,2.3c0.4,0.7,0.8,1.3,1.1,1.9
		c0.3,0.5,0.5,1,0.7,1.3c0.2,0.3,0.2,0.5,0.2,0.5s-0.2,0-0.5-0.1c-0.3-0.1-0.8-0.2-1.4-0.4c-0.6-0.2-1.3-0.4-2.1-0.7
		c-0.8-0.3-1.7-0.7-2.6-1.2c-0.9-0.5-1.9-1.1-2.9-1.8c-1-0.7-2-1.5-2.9-2.4c-0.9-0.9-1.9-1.8-2.8-2.9c-0.9-1-1.7-2.2-2.5-3.3
		c-0.7-1.2-1.5-2.4-2.1-3.6c-0.7-1.2-1.1-2.5-1.6-3.7c-0.4-1.2-0.8-2.4-1.1-3.6c-0.3-1.2-0.5-2.3-0.6-3.3c-0.1-1-0.2-2-0.2-2.9
		c0-0.9,0.1-1.6,0.1-2.2c0-0.6,0.2-1.1,0.2-1.4C652.2,1040.3,652.2,1040.1,652.2,1040.1z"/>
</g>
<g id="XMLID_1085_">
	<path id="XMLID_1087_" d="M479.7,1448.8c0,0,0.3,0,0.9,0.1c0.6,0.1,1.4,0.1,2.4,0.3c1,0.2,2.3,0.3,3.7,0.5c1.4,0.2,2.9,0.4,4.6,0.6
		c1.7,0.2,3.5,0.4,5.5,0.6c1.9,0.3,4,0.4,6,0.6c2.1,0.1,4.2,0.4,6.4,0.5c2.2,0.2,4.4,0.2,6.6,0.3c2.2,0,4.4,0.1,6.6,0.1
		c2.2,0,4.3-0.1,6.4-0.1c2.1-0.1,4.1-0.1,6.1-0.2c1.9-0.1,3.8-0.2,5.5-0.3c1.7-0.1,3.3-0.2,4.7-0.3c1.4-0.1,2.7-0.1,3.7-0.2
		c1-0.1,1.8-0.1,2.4-0.1c0.6,0,0.9,0,0.9,0s-0.3,0.2-0.7,0.5c-0.5,0.3-1.2,0.7-2.1,1.2c-0.9,0.5-2,1.1-3.3,1.7
		c-0.7,0.3-1.4,0.6-2.1,1c-0.8,0.3-1.6,0.6-2.4,0.9c-0.8,0.3-1.7,0.6-2.6,0.9c-0.9,0.3-1.9,0.5-2.9,0.8c-2,0.6-4.1,1-6.3,1.4
		c-2.2,0.3-4.5,0.7-6.9,0.8c-2.4,0.2-4.8,0.1-7.2,0.2c-2.4-0.2-4.8-0.2-7.1-0.6c-2.3-0.2-4.6-0.7-6.8-1.2c-2.2-0.5-4.3-1.1-6.2-1.8
		c-1-0.3-1.9-0.7-2.8-1c-0.9-0.3-1.8-0.7-2.6-1.1c-0.8-0.4-1.6-0.7-2.3-1.1c-0.7-0.4-1.4-0.7-2.1-1.1c-1.3-0.7-2.4-1.3-3.2-1.9
		c-0.9-0.6-1.5-1.1-2-1.4C480,1449,479.7,1448.8,479.7,1448.8z"/>
</g>
<g id="XMLID_1082_">
	<path id="XMLID_1084_" d="M489.5,1469.9c0,0,0.2,0,0.5,0c0.3,0,0.8,0,1.4,0c0.6,0,1.4,0,2.2,0c0.8,0,1.7,0.1,2.7,0.1
		c1,0.1,2,0.1,3.1,0.2c1.1,0.1,2.2,0.1,3.4,0.2c1.2,0,2.4,0.2,3.6,0.2c1.2,0.1,2.4,0.2,3.6,0.3c1.2,0.1,2.4,0.2,3.6,0.2
		c1.2,0.1,2.4,0.1,3.6,0.3c1.2,0.1,2.3,0.2,3.4,0.2c1.1,0.1,2.1,0.2,3.1,0.3c1,0.1,1.9,0.2,2.7,0.3c0.8,0.1,1.6,0.2,2.1,0.3
		c0.6,0.1,1.1,0.2,1.4,0.2c0.3,0.1,0.5,0.1,0.5,0.1s-0.1,0.1-0.4,0.3c-0.3,0.2-0.6,0.5-1.2,0.9c-0.5,0.4-1.1,0.8-1.9,1.2
		c-0.7,0.4-1.6,0.9-2.6,1.3c-1,0.4-2,0.8-3.2,1.2c-1.1,0.4-2.4,0.6-3.7,0.9c-1.3,0.2-2.6,0.4-4,0.4c-1.4,0.1-2.8,0-4.2,0
		c-1.4-0.2-2.8-0.3-4.1-0.6c-1.4-0.2-2.7-0.6-3.9-1c-1.2-0.4-2.4-0.8-3.5-1.4c-1.1-0.5-2.1-1-3-1.6c-0.9-0.5-1.7-1.1-2.4-1.6
		c-0.7-0.5-1.2-1-1.7-1.5c-0.4-0.4-0.8-0.8-1-1C489.6,1470.1,489.5,1469.9,489.5,1469.9z"/>
</g>
<g id="XMLID_1079_">
	<path id="XMLID_1081_" d="M302.7,412.8c0,0,0.2,0.3,0.5,0.7c0.3,0.5,0.7,1.2,1.2,2.1c0.5,0.9,1.2,2,1.9,3.2c0.7,1.2,1.5,2.6,2.4,4
		c0.8,1.5,1.8,3,2.9,4.7c1,1.7,2.2,3.3,3.2,5.1c1.2,1.7,2.3,3.6,3.6,5.3c1.2,1.8,2.6,3.6,3.8,5.4c1.3,1.8,2.7,3.6,4,5.3
		c1.3,1.7,2.7,3.4,4,5c1.4,1.6,2.6,3.2,3.9,4.6c1.3,1.5,2.5,2.9,3.6,4.1c1.1,1.3,2.2,2.5,3.1,3.5c0.9,1.1,1.7,2,2.5,2.7
		c0.7,0.7,1.2,1.4,1.6,1.8c0.4,0.4,0.6,0.7,0.6,0.7s-0.3-0.1-0.8-0.3c-0.5-0.2-1.3-0.5-2.3-0.9c-1-0.4-2.1-0.9-3.4-1.6
		c-0.6-0.3-1.3-0.7-2.1-1.1c-0.7-0.4-1.4-0.9-2.2-1.3c-0.8-0.5-1.6-1-2.4-1.5c-0.8-0.6-1.6-1.2-2.4-1.8c-1.7-1.2-3.3-2.6-5-4.1
		c-1.6-1.6-3.3-3.1-4.8-4.9c-1.6-1.7-3-3.7-4.5-5.5c-1.4-2-2.8-3.9-3.9-6c-1.2-2-2.3-4.1-3.3-6.1c-0.9-2.1-1.8-4-2.5-6
		c-0.3-1-0.6-1.9-1-2.8c-0.3-0.9-0.5-1.8-0.7-2.7c-0.2-0.9-0.4-1.7-0.6-2.5c-0.1-0.8-0.3-1.6-0.4-2.3c-0.3-1.4-0.4-2.7-0.5-3.7
		c-0.1-1-0.1-1.9-0.2-2.4C302.7,413.1,302.7,412.8,302.7,412.8z"/>
</g>
<g id="XMLID_1076_">
	<path id="XMLID_1078_" d="M292.1,433.5c0,0,0.1,0.1,0.3,0.4c0.2,0.3,0.6,0.6,0.9,1.1c0.4,0.5,0.8,1.1,1.3,1.7
		c0.5,0.6,1,1.4,1.6,2.2c0.6,0.8,1.1,1.6,1.8,2.6c0.6,0.9,1.3,1.8,1.9,2.8c0.7,1,1.3,2,2,3c0.7,1,1.4,2,2,3c0.7,1,1.4,2,2.1,3
		c0.7,1,1.4,2,2,3c0.7,1,1.3,1.9,1.9,2.8c0.6,0.9,1.2,1.8,1.7,2.6c0.5,0.8,1,1.6,1.4,2.3c0.4,0.7,0.8,1.3,1.1,1.9
		c0.3,0.5,0.5,1,0.7,1.3c0.2,0.3,0.2,0.5,0.2,0.5s-0.2,0-0.5-0.1c-0.3-0.1-0.8-0.2-1.4-0.4c-0.6-0.2-1.3-0.4-2.1-0.7
		c-0.8-0.3-1.7-0.7-2.6-1.2c-0.9-0.5-1.9-1.1-2.9-1.8c-1-0.7-2-1.5-3-2.4c-0.9-0.9-1.9-1.8-2.8-2.9c-0.9-1-1.7-2.2-2.6-3.3
		c-0.7-1.2-1.5-2.4-2.1-3.6c-0.7-1.2-1.2-2.5-1.6-3.7c-0.4-1.2-0.8-2.4-1.1-3.6c-0.3-1.2-0.5-2.3-0.6-3.3c-0.1-1-0.2-2-0.2-2.9
		c0-0.9,0-1.6,0.1-2.2c0-0.6,0.2-1.1,0.2-1.4C292.1,433.7,292.1,433.5,292.1,433.5z"/>
</g>
<g id="XMLID_1073_">
	<path id="XMLID_1075_" d="M906.2,613.6c0,0,0.3,0.1,0.8,0.2c0.5,0.1,1.4,0.3,2.3,0.6c1,0.3,2.2,0.6,3.6,0.9
		c1.4,0.4,2.9,0.7,4.5,1.1c1.7,0.4,3.5,0.8,5.3,1.3c1.9,0.5,3.9,0.8,5.9,1.3c2.1,0.4,4.2,0.8,6.3,1.2c2.2,0.4,4.4,0.7,6.5,1.1
		c2.2,0.3,4.4,0.6,6.6,0.8c2.2,0.3,4.3,0.4,6.4,0.7c2.1,0.1,4.1,0.4,6.1,0.5c1.9,0.1,3.8,0.3,5.5,0.3c1.7,0.1,3.3,0.2,4.7,0.2
		c1.4,0.1,2.7,0.2,3.7,0.2c1,0,1.8,0.1,2.4,0.1c0.6,0,0.9,0.1,0.9,0.1s-0.3,0.1-0.8,0.4c-0.5,0.2-1.2,0.6-2.2,1
		c-1,0.4-2.1,0.9-3.5,1.3c-0.7,0.2-1.4,0.5-2.2,0.7c-0.8,0.2-1.6,0.4-2.5,0.6c-0.9,0.2-1.8,0.4-2.7,0.6c-1,0.2-1.9,0.3-2.9,0.5
		c-2,0.3-4.2,0.5-6.4,0.6c-2.2,0.1-4.6,0.1-6.9,0c-2.4-0.1-4.7-0.4-7.1-0.7c-2.4-0.4-4.7-0.8-7-1.4c-2.3-0.5-4.5-1.3-6.6-2
		c-2.1-0.8-4.1-1.6-6-2.5c-0.9-0.5-1.8-0.9-2.7-1.3c-0.9-0.4-1.7-0.9-2.4-1.4c-0.8-0.5-1.5-0.9-2.2-1.3c-0.7-0.5-1.3-0.9-1.9-1.3
		c-1.2-0.8-2.2-1.6-3-2.3c-0.8-0.6-1.4-1.2-1.8-1.6C906.4,613.8,906.2,613.6,906.2,613.6z"/>
</g>
<g id="XMLID_1070_">
	<path id="XMLID_1072_" d="M913.5,631.7c0,0,0.7,0.1,1.8,0.4c1.1,0.3,2.7,0.7,4.6,1.2c0.9,0.3,2,0.5,3,0.8c1.1,0.3,2.2,0.5,3.3,0.8
		c1.2,0.3,2.3,0.5,3.6,0.8c1.2,0.3,2.4,0.5,3.7,0.7c1.2,0.2,2.5,0.5,3.7,0.6c1.2,0.2,2.4,0.4,3.6,0.6c1.2,0.1,2.3,0.3,3.4,0.5
		c1.1,0.1,2.1,0.3,3.1,0.4c2,0.2,3.6,0.4,4.7,0.6c1.2,0.1,1.9,0.3,1.9,0.3s-0.6,0.3-1.7,0.8c-0.6,0.2-1.2,0.5-2,0.7
		c-0.8,0.3-1.7,0.5-2.7,0.7c-1,0.2-2.1,0.4-3.3,0.6c-1.2,0.2-2.4,0.2-3.7,0.3c-1.3,0-2.6,0-3.9-0.1c-1.3-0.1-2.7-0.3-4-0.5
		c-1.3-0.3-2.7-0.6-4-1c-1.3-0.4-2.5-0.8-3.7-1.3c-1.2-0.5-2.3-1-3.3-1.6c-1-0.6-2-1.1-2.8-1.7c-0.9-0.5-1.6-1.1-2.3-1.7
		c-0.7-0.5-1.2-1-1.6-1.4C913.9,632.2,913.5,631.7,913.5,631.7z"/>
</g>
<g id="XMLID_1067_">
	<path id="XMLID_1069_" d="M1109.8,731.6c0,0-0.1-0.3-0.3-0.8c-0.2-0.6-0.5-1.3-0.7-2.4c-0.2-1.1-0.4-2.4-0.5-4
		c-0.1-1.5,0-3.3,0.2-5.2c0.5-3.8,1.8-8.2,4.1-12.5c1.1-2.1,2.5-4.3,4-6.2c1.5-2,3.3-4,5.1-5.6c0.9-0.8,1.9-1.8,2.9-2.5
		c1-0.8,2-1.5,3-2.3c2-1.4,4.1-2.7,6.1-3.9c4.1-2.3,8-4,11.4-5.3c3.4-1.3,6.3-2.1,8.4-2.7c1.1-0.3,2.1-0.4,2.7-0.2
		c0.3,0.1,0.5,0.2,0.6,0.3c0.1,0.1,0.2,0.1,0.2,0.1s-0.3-0.1-0.8,0.1c-0.5,0.1-1.2,0.6-1.9,1.2c-1.6,1.4-4,3.3-6.9,5.4
		c-2.9,2.1-6.2,4.5-9.7,7.1c-1.7,1.3-3.5,2.7-5.2,4.1c-0.9,0.7-1.7,1.4-2.6,2.2c-0.9,0.7-1.6,1.4-2.5,2.2c-1.7,1.6-3.2,3.1-4.7,4.8
		c-1.5,1.6-2.8,3.3-4,5c-1.2,1.7-2.3,3.4-3.3,5.1c-0.9,1.7-1.8,3.3-2.4,4.9c-0.7,1.6-1.2,3-1.6,4.4c-0.4,1.4-0.8,2.6-1,3.6
		c-0.2,1-0.4,1.9-0.5,2.4C1109.9,731.3,1109.8,731.6,1109.8,731.6z"/>
</g>
<g id="XMLID_1064_">
	<path id="XMLID_1066_" d="M1090.5,716.5c0,0-0.1-0.2-0.2-0.6c-0.1-0.4-0.3-1-0.4-1.8c-0.1-0.8-0.2-1.8-0.3-2.9c0-1.1,0-2.4,0.2-3.8
		c0.2-1.4,0.5-2.9,0.9-4.4c0.4-1.6,1-3.1,1.7-4.7c0.7-1.6,1.6-3.2,2.5-4.7c1-1.6,2-3,3.3-4.5c1.1-1.3,2.4-2.7,3.7-3.9
		c1.3-1.2,2.6-2.4,4-3.4c2.7-2.1,5.3-3.7,7.7-5c2.4-1.3,4.4-2.2,5.9-2.7c0.7-0.3,1.3-0.5,1.7-0.6c0.4-0.1,0.6-0.2,0.6-0.2
		s-0.1,0.2-0.3,0.6c-0.2,0.4-0.6,0.9-1,1.5c-0.9,1.3-2.2,3.1-3.9,5.1c-1.7,2-3.6,4.3-5.7,6.6c-1,1.2-2.1,2.4-3.2,3.6
		c-1.1,1.3-2.1,2.4-3.2,3.7c-1,1.2-2,2.5-3,3.7c-0.9,1.3-1.9,2.5-2.7,3.8c-1.7,2.5-3.2,4.9-4.4,7.1c-0.6,1.1-1.1,2.1-1.6,3.1
		c-0.4,0.9-0.9,1.8-1.2,2.5c-0.3,0.7-0.6,1.3-0.7,1.7C1090.6,716.3,1090.5,716.5,1090.5,716.5z"/>
</g>
<line id="XMLID_1063_" class="st4" x1="710.5" y1="296.6" x2="706.2" y2="305.3"/>
<line id="XMLID_1062_" class="st4" x1="742.9" y1="304.7" x2="738.6" y2="313.4"/>
<path id="XMLID_1061_" class="st4" d="M723.6,300.4c0,0-4,4.3-8,10.3c-4,6,0,4.5,0,4.5"/>
<path id="XMLID_1060_" class="st4" d="M730.7,324.5c-1.5,0.9-5.1,2.8-9.9,2.7c-3-0.1-5.3-0.9-6.7-1.6"/>
<g id="XMLID_1057_">
	<path id="XMLID_1059_" d="M235.8,900.9c0,0,0-0.4,0.1-1.2c0.1-0.8,0.1-1.9,0.3-3.3c0.1-0.7,0.2-1.5,0.3-2.3
		c0.1-0.8,0.3-1.7,0.5-2.7c0.2-1,0.4-2,0.6-3.1c0.2-1.1,0.6-2.2,0.9-3.4c0.3-1.2,0.7-2.4,1.1-3.7c0.4-1.2,0.9-2.5,1.4-3.9
		c0.2-0.7,0.5-1.3,0.8-2c0.3-0.7,0.6-1.3,0.9-2c0.6-1.4,1.2-2.7,1.9-4.1c1.4-2.7,3-5.5,4.8-8.2c0.4-0.7,0.9-1.4,1.3-2l1.5-2
		c1-1.3,2-2.7,3.1-3.9c1.1-1.2,2.2-2.5,3.3-3.7c1.1-1.2,2.4-2.3,3.5-3.4c1.1-1.2,2.4-2.2,3.6-3.2c1.2-1,2.4-2.1,3.7-2.9
		c1.3-0.9,2.5-1.8,3.7-2.6c1.2-0.8,2.5-1.6,3.7-2.3c2.4-1.5,4.7-2.7,6.9-3.8c2.1-1.1,4.3-1.9,6.1-2.7c1.8-0.8,3.4-1.3,4.8-1.8
		c1.3-0.5,2.4-0.8,3.1-1c0.7-0.2,1.1-0.3,1.1-0.3s-0.3,0.3-0.9,0.7c-0.6,0.5-1.5,1.2-2.6,2c-1.1,0.8-2.5,1.9-4,3
		c-0.8,0.6-1.6,1.2-2.4,1.9c-0.9,0.6-1.8,1.3-2.7,2.1c-1.8,1.5-3.9,3-5.9,4.8c-1,0.9-2.1,1.7-3.1,2.6c-1,1-2.1,1.9-3.2,2.9
		c-1.1,0.9-2.1,2-3.2,3c-1.1,1-2.2,2-3.2,3.2c-1,1.1-2.1,2.2-3.1,3.3c-1,1.1-2,2.3-3,3.5c-1.1,1.1-1.9,2.4-2.9,3.5l-1.4,1.8
		l-1.3,1.8c-0.9,1.2-1.8,2.4-2.6,3.6c-0.8,1.2-1.6,2.5-2.4,3.6c-0.8,1.2-1.5,2.5-2.2,3.6c-0.4,0.6-0.7,1.2-1.1,1.8
		c-0.3,0.6-0.7,1.2-1,1.8c-0.7,1.2-1.3,2.3-1.9,3.4c-0.6,1.1-1.1,2.2-1.7,3.3c-1.1,2.1-2.1,4-2.9,5.8c-0.4,0.9-0.8,1.7-1.2,2.4
		c-0.4,0.8-0.7,1.5-1,2.1c-0.6,1.3-1.1,2.3-1.4,3C236,900.5,235.8,900.9,235.8,900.9z"/>
</g>
<g id="XMLID_1054_">
	<path id="XMLID_1056_" d="M786.2,147c0,0,1.5-0.4,4.1-1.1c1.3-0.3,2.9-0.7,4.8-1.1c0.9-0.2,2.1-0.2,3.2-0.1c1.1,0.1,2.3,0.5,3.5,1
		c2.3,1.1,4.5,3.2,5.6,6c0.3,0.7,0.5,1.4,0.6,2.2c0.1,0.4,0.1,0.8,0.2,1.2l0.1,1c0.1,1.4,0.2,2.8,0.3,4.2c0.2,2.9,0.5,5.8,0.6,8.8
		c0.2,3,0.4,6.1,0.6,9.1c0.1,3.1,0.3,6.1,0.4,9.1c0.2,3,0.2,6,0.3,8.9c0.2,5.8,0.2,11.1,0.2,15.7c0,9.2-0.3,15.4-0.3,15.4
		s-1-6.1-2-15.3c-0.5-4.6-1-9.9-1.5-15.7c-0.2-2.9-0.5-5.8-0.6-8.8c-0.2-3-0.4-6.1-0.6-9.1c-0.1-3.1-0.3-6.1-0.4-9.1
		c-0.2-3-0.2-6-0.3-8.9c0-1.4-0.1-2.9-0.1-4.2l0-1l-0.1-0.9c-0.1-0.6-0.2-1.1-0.3-1.7c-0.7-2.1-2.1-3.9-3.9-5
		c-0.9-0.5-1.8-0.9-2.7-1.1c-1-0.2-1.7-0.3-2.7-0.2c-1.9,0.1-3.5,0.3-4.8,0.4C787.7,146.9,786.2,147,786.2,147z"/>
</g>
<polygon id="XMLID_1053_" points="694.1,282.4 689.6,260.2 691.8,240 700.2,249.2 702.4,231.5 715.6,243.2 740.2,249.9 761.5,256.9 
	782.1,267.9 789.6,284.5 792,301.6 786.2,318.1 774.1,315.2 772.3,284 750.7,281.8 726.9,275.5 712,270.6 699.9,282.7 "/>
<polygon id="XMLID_1052_" points="510.7,1318.8 505.3,1337.9 534.1,1351.9 518.1,1382.9 501.7,1398.9 493.5,1402.2 493.5,1416.6 
	529.2,1385.7 539.2,1370.2 661.7,1193.2 645.5,1188.1 634.2,1166.2 634.2,1153.7 613.2,1144.1 597,1141.1 581.1,1148.3 
	577.6,1152.8 585.3,1166.2 581.1,1180.2 571.4,1191.8 560.1,1199.9 562.4,1214.1 562.8,1231 554.9,1248.5 548.4,1256.7 
	547.1,1268.9 554.9,1268.9 560.6,1271.9 558.2,1276.7 550.7,1276.7 539.9,1277.9 540.1,1287.2 548,1291.6 549.3,1298.7 
	542.1,1298.7 535.9,1295.1 536.8,1302.9 545.1,1306.3 542.1,1311.4 529.8,1309.4 527.5,1318.8 520.3,1324.4 "/>
<polygon id="XMLID_1051_" points="1134,735.4 1140.8,724.2 1153.4,726.7 1171.9,724.2 1189.9,714 1200.1,701.6 1213.6,710.1 
	1230.3,742.9 1237.6,792.8 1240.5,869.2 1232,879.5 1212.2,879.5 1190.9,870.5 1184.4,855.4 1187.8,850.4 1193.2,844.1 
	1183.3,836.2 1187.8,831.5 1181.9,825.1 1177.9,817.5 1183.3,814.5 1187.3,810.8 1183.3,804 1171.9,799.5 1161.3,800 1168.3,785.6 
	1179.9,773 1181.2,764.9 1168.6,745.4 1143.1,740.4 "/>
<path id="XMLID_1048_" d="M1217.2,891.7l-18-4l-15.9-9.6l-9.1-15.9l3.8-7.8h9.4l-2.9-5.4l-10.4-4.8h-10l-12.8,11.3l-8.1-2.4v11.7
	l1.6,37.3l6.3,30.6l10.2,27l14.8,23.6l27.4,1.4l21.5-20.8l12.6-50.9l2.9-27.4L1217.2,891.7z M1217.2,946.5l-6.7,15.7l-10.3,9h-15.7
	l-12.5-10.3l-4.6-13l-5.1-17.1l-0.8-14.8l10.5-6.2l17.4-1.9l24.3,1.9h3.6l2.3,15.5L1217.2,946.5z"/>
<polygon id="XMLID_1047_" points="590.4,639.7 640.8,633.9 700.6,635.3 733.8,644.1 735,566.2 754,441.4 762.5,399.8 748,405.5 
	682.2,435 666.3,422.2 667.6,392.5 659,390.2 636,405.5 615.4,448.9 602.5,518.3 "/>
<polyline id="XMLID_1046_" class="st5" points="603.3,184.3 493.7,212.6 433.8,186.5 "/>
<g id="XMLID_1043_">
	<path id="XMLID_1045_" class="st0" d="M768.2,478.7c0,0,0.1,0.5,0.3,1.3c0.2,0.8,0.3,2,0.4,3.4c0.2,2.8,0.2,6.6-0.1,10.3
		c-0.4,3.7-1,7.4-1.8,10.1c-0.4,1.4-0.8,2.5-1.1,3.3c-0.3,0.8-0.5,1.2-0.5,1.2s-0.1-0.5-0.3-1.3c-0.2-0.8-0.3-2-0.4-3.4
		c-0.2-2.8-0.2-6.6,0.1-10.3c0.4-3.7,1.1-7.4,1.8-10.1c0.4-1.4,0.8-2.5,1.1-3.3C768,479.2,768.2,478.7,768.2,478.7z"/>
</g>
<g id="XMLID_1040_">
	<path id="XMLID_1042_" class="st0" d="M759,559.8c0,0,0.1,0.5,0.3,1.3c0.2,0.8,0.3,2,0.4,3.4c0.2,2.8,0.2,6.6-0.1,10.3
		c-0.4,3.7-1,7.4-1.8,10.1c-0.4,1.4-0.8,2.5-1.1,3.3c-0.3,0.8-0.5,1.2-0.5,1.2s-0.1-0.5-0.3-1.3c-0.2-0.8-0.3-2-0.4-3.4
		c-0.2-2.8-0.2-6.6,0.1-10.3c0.4-3.7,1.1-7.4,1.8-10.1c0.4-1.4,0.8-2.5,1.1-3.3C758.8,560.2,759,559.8,759,559.8z"/>
</g>
<g id="XMLID_1037_">
	<path id="XMLID_1039_" class="st0" d="M754.2,640.7c0,0,0,0.5,0,1.3c0,0.4,0,0.9,0,1.5c0,0.6,0.1,1.2,0.1,1.9
		c0.1,2.7,0.4,6.3,0.6,10c0.2,3.6,0.3,7.4,0,10.2c-0.1,1.4-0.3,2.6-0.5,3.4c-0.2,0.8-0.3,1.3-0.3,1.3s-0.2-0.5-0.5-1.2
		c-0.3-0.8-0.7-1.9-1.1-3.3c-0.8-2.7-1.5-6.4-1.7-10.2c0-0.9-0.1-1.9,0-2.8c0-0.9,0.1-1.9,0.2-2.8c0.2-1.8,0.6-3.5,1-4.9
		c0.5-1.4,1-2.5,1.4-3.3C753.9,641.1,754.2,640.7,754.2,640.7z"/>
</g>
<g id="XMLID_1034_">
	<path id="XMLID_1036_" d="M768.3,1052.3c0,0,0.1,0.5,0.1,1.4c0,0.4,0,0.9,0,1.6c0,0.6-0.1,1.3-0.3,2c-0.1,0.4-0.1,0.8-0.2,1.2
		c-0.1,0.4-0.2,0.8-0.4,1.2c-0.2,0.8-0.6,1.7-1,2.6c-0.5,0.8-0.9,1.7-1.5,2.5c-0.5,0.9-1.2,1.6-1.9,2.4c-0.7,0.7-1.4,1.4-2.2,2.1
		c-0.8,0.6-1.6,1.2-2.4,1.7c-0.8,0.5-1.6,0.9-2.4,1.3c-0.8,0.4-1.5,0.7-2.2,0.9c-0.7,0.3-1.4,0.4-1.9,0.6c-0.6,0.2-1.1,0.3-1.5,0.3
		c-0.9,0.2-1.3,0.2-1.3,0.2s0.4-0.3,1.1-0.8c0.4-0.2,0.8-0.5,1.3-0.8c0.5-0.3,1-0.7,1.6-1.1c0.6-0.4,1.2-0.8,1.9-1.3
		c0.7-0.5,1.3-1,2-1.5c0.7-0.6,1.4-1.1,2-1.7c0.7-0.6,1.3-1.2,1.9-1.9c0.6-0.7,1.2-1.3,1.8-2c0.6-0.7,1-1.4,1.5-2.1
		c0.4-0.7,0.9-1.4,1.3-2.1c0.4-0.7,0.7-1.4,1-2c0.3-0.6,0.5-1.2,0.8-1.8c0.2-0.5,0.4-1,0.6-1.4
		C768.1,1052.8,768.3,1052.3,768.3,1052.3z"/>
</g>
<g id="XMLID_1031_">
	<path id="XMLID_1033_" d="M775.9,1055.9c0,0,0.1,0.5,0.1,1.4c0,0.4,0,0.9,0,1.6c0,0.6-0.1,1.3-0.3,2c-0.1,0.4-0.1,0.8-0.2,1.2
		c-0.1,0.4-0.2,0.8-0.4,1.2c-0.2,0.8-0.6,1.7-1,2.6c-0.5,0.8-0.9,1.7-1.5,2.5c-0.5,0.9-1.2,1.6-1.9,2.4c-0.7,0.7-1.4,1.4-2.2,2.1
		c-0.8,0.6-1.6,1.2-2.4,1.7c-0.8,0.5-1.6,0.9-2.4,1.3c-0.8,0.4-1.5,0.7-2.2,0.9c-0.7,0.3-1.4,0.4-1.9,0.6c-0.6,0.2-1.1,0.3-1.5,0.3
		c-0.9,0.2-1.3,0.2-1.3,0.2s0.4-0.3,1.1-0.8c0.4-0.2,0.8-0.5,1.3-0.8c0.5-0.3,1-0.7,1.6-1.1c0.6-0.4,1.2-0.8,1.9-1.3
		c0.7-0.5,1.3-1,2-1.5c0.7-0.6,1.4-1.1,2-1.7c0.7-0.6,1.3-1.2,1.9-1.9c0.6-0.7,1.2-1.3,1.8-2c0.6-0.7,1-1.4,1.5-2.1
		c0.4-0.7,0.9-1.4,1.3-2.1c0.4-0.7,0.7-1.4,1-2c0.3-0.6,0.5-1.2,0.8-1.8c0.2-0.5,0.4-1,0.6-1.4
		C775.7,1056.4,775.9,1055.9,775.9,1055.9z"/>
</g>
<g id="XMLID_1028_">
	<path id="XMLID_1030_" d="M298.9,931.6c0,0-0.2-0.5-0.4-1.3c-0.1-0.4-0.3-0.9-0.4-1.5c-0.1-0.6-0.3-1.3-0.3-2
		c0-0.4-0.1-0.8-0.1-1.2c0-0.4,0-0.8,0-1.3c0-0.9,0.2-1.8,0.3-2.7c0.2-0.9,0.4-1.9,0.8-2.8c0.3-1,0.8-1.9,1.2-2.8
		c0.5-0.9,1-1.8,1.6-2.6c0.6-0.8,1.2-1.5,1.9-2.2c0.7-0.7,1.3-1.3,2-1.8c0.6-0.6,1.3-1,1.9-1.5c0.6-0.4,1.2-0.8,1.7-1.1
		c0.5-0.3,1-0.5,1.4-0.7c0.8-0.4,1.2-0.6,1.2-0.6s-0.3,0.4-0.9,1c-0.3,0.3-0.6,0.7-1,1.1c-0.4,0.4-0.8,0.9-1.3,1.5
		c-0.5,0.5-0.9,1.1-1.5,1.8c-0.5,0.6-1,1.3-1.5,2c-0.5,0.7-1,1.4-1.5,2.2c-0.5,0.8-0.9,1.5-1.4,2.3c-0.4,0.8-0.8,1.6-1.2,2.4
		c-0.4,0.8-0.6,1.6-0.9,2.4c-0.2,0.8-0.5,1.6-0.7,2.4c-0.2,0.8-0.3,1.5-0.5,2.2c-0.1,0.7-0.2,1.3-0.3,1.9c-0.1,0.6-0.1,1.1-0.2,1.5
		C299,931.1,298.9,931.6,298.9,931.6z"/>
</g>
<g id="XMLID_1025_">
	<path id="XMLID_1027_" d="M290.7,930.2c0,0-0.2-0.5-0.4-1.3c-0.1-0.4-0.3-0.9-0.4-1.5c-0.1-0.6-0.3-1.3-0.3-2
		c0-0.4-0.1-0.8-0.1-1.2c0-0.4,0-0.8,0-1.3c0-0.9,0.2-1.8,0.3-2.7c0.2-0.9,0.4-1.9,0.8-2.8c0.3-1,0.8-1.9,1.2-2.8
		c0.5-0.9,1-1.8,1.6-2.6c0.6-0.8,1.2-1.5,1.9-2.2c0.7-0.7,1.3-1.3,2-1.8c0.6-0.6,1.3-1,1.9-1.5c0.6-0.4,1.2-0.8,1.7-1.1
		c0.5-0.3,1-0.5,1.4-0.7c0.8-0.4,1.2-0.6,1.2-0.6s-0.3,0.4-0.9,1c-0.3,0.3-0.6,0.7-1,1.1c-0.4,0.4-0.8,0.9-1.3,1.5
		c-0.5,0.5-0.9,1.1-1.5,1.8c-0.5,0.6-1,1.3-1.5,2c-0.5,0.7-1,1.4-1.5,2.2c-0.5,0.8-0.9,1.5-1.4,2.3c-0.4,0.8-0.8,1.6-1.2,2.4
		c-0.4,0.8-0.6,1.6-0.9,2.4c-0.2,0.8-0.5,1.6-0.7,2.4c-0.2,0.8-0.3,1.5-0.5,2.2c-0.1,0.7-0.2,1.3-0.3,1.9c-0.1,0.6-0.1,1.1-0.2,1.5
		C290.7,929.7,290.7,930.2,290.7,930.2z"/>
</g>
<polygon id="XMLID_1024_" points="782.1,348.8 783.6,353.5 806.1,359.8 867.3,381.9 871.3,371.5 871.3,356.9 809,349.4 "/>
<polygon id="XMLID_1023_" points="895.4,368.6 888.3,387.7 898.3,389.9 915.5,393.6 930.3,393.6 937.7,391.9 933,384.2 909.4,374.4 
	"/>
<g id="XMLID_1020_">
	<path id="XMLID_1022_" class="st0" d="M628,518.9c1.5,1.2,3,2.4,4.5,3.6c1.6,1.1,3,2.3,4.6,3.4c1.6,1.1,3.1,2.2,4.8,3.2
		c1.6,1,3.2,2.1,4.9,3l2.5,1.4l2.5,1.3c1.7,0.9,3.4,1.7,5.1,2.5c1.7,0.8,3.5,1.6,5.2,2.3c1.7,0.8,3.5,1.4,5.3,2
		c1.8,0.7,3.6,1.2,5.4,1.7c1.8,0.6,3.6,1,5.5,1.4c1.8,0.5,3.7,0.8,5.5,1.2c0.9,0.2,1.8,0.4,2.8,0.5l2.8,0.4l2.8,0.4
		c0.9,0.1,1.9,0.1,2.8,0.2c1.9,0.1,3.7,0.3,5.6,0.3c1.9,0,3.8,0.1,5.6,0l5.6-0.2l-1.3,4.4l-5.5-4.1c-1.9-1.4-3.6-2.8-5.5-4.3
		c-1.8-1.4-3.6-2.9-5.3-4.4c-1.7-1.5-3.5-3-5.2-4.5c-1.7-1.6-3.4-3.1-5.1-4.7l-5-4.9l-4.8-5.1l-4.6-5.3l-4.3-5.5
		c-1.4-1.9-2.8-3.8-4.1-5.7c-1.3-2-2.6-3.9-3.8-5.9c-1.2-2-2.4-4-3.5-6.1l-1.6-3.1c-0.5-1-1-2.1-1.5-3.1c-1-2.1-2-4.2-2.9-6.4
		c-1-2.1-1.7-4.3-2.6-6.5c-0.8-2.2-1.5-4.4-2.3-6.6l-2-5.8l5.2,3.2l3.7,2.3l3.7,2.2l3.8,2.1l3.8,2c1.3,0.6,2.6,1.3,3.9,1.9
		c1.3,0.6,2.6,1.2,4,1.7c1.3,0.5,2.7,1.1,4,1.6c1.4,0.5,2.7,1,4.1,1.4c1.4,0.4,2.7,0.9,4.1,1.3c1.4,0.4,2.8,0.8,4.2,1.1
		c1.4,0.3,2.8,0.7,4.2,0.9c1.4,0.2,2.8,0.6,4.3,0.7c1.4,0.2,2.9,0.4,4.3,0.6c1.4,0.1,2.9,0.3,4.3,0.4c1.5,0.1,2.9,0.2,4.4,0.2l4.4,0
		l-4.4,0.4c-1.5,0.1-2.9,0.1-4.4,0.2c-1.5,0-2.9,0-4.4,0c-1.5,0-2.9-0.2-4.4-0.2c-1.5-0.1-2.9-0.3-4.4-0.4c-1.5-0.1-2.9-0.4-4.4-0.7
		c-1.5-0.2-2.9-0.6-4.4-0.9c-1.5-0.3-2.9-0.7-4.3-1c-1.4-0.4-2.8-0.8-4.3-1.3c-1.4-0.4-2.8-1-4.2-1.4c-1.4-0.5-2.8-1.1-4.2-1.6
		c-1.4-0.5-2.7-1.2-4.1-1.7c-2.7-1.2-5.4-2.5-8-3.9l-3.9-2.1l-3.8-2.2l3.2-2.5c0.8,2.1,1.6,4.2,2.5,6.3c0.9,2.1,1.7,4.2,2.7,6.2
		c0.9,2.1,1.9,4.1,2.9,6.1c0.5,1,1,2,1.5,3l1.7,2.9c1.1,2,2.3,3.9,3.5,5.8c1.2,1.9,2.5,3.7,3.7,5.6c1.3,1.8,2.7,3.6,4,5.4l4.2,5.3
		l4.5,5.1l4.6,4.9l4.8,4.8c1.6,1.6,3.3,3.1,5,4.6c1.6,1.6,3.4,3,5.1,4.5c1.7,1.5,3.4,2.9,5.2,4.4c1.8,1.4,3.5,2.9,5.3,4.3l5.4,4.2
		l5.4,4.2l-6.7,0.1l-5.9,0.1c-2,0.1-3.9-0.1-5.9-0.2c-2,0-3.9-0.3-5.8-0.5c-1-0.1-1.9-0.2-2.9-0.3l-2.9-0.5l-2.9-0.5
		c-1-0.2-1.9-0.4-2.9-0.6c-1.9-0.4-3.8-0.8-5.7-1.4c-1.9-0.5-3.8-1-5.6-1.7c-1.8-0.7-3.7-1.3-5.5-2.1c-1.8-0.7-3.6-1.5-5.3-2.3
		c-1.8-0.8-3.5-1.6-5.2-2.6c-1.7-0.9-3.4-1.9-5-2.9l-2.5-1.5l-2.4-1.6c-0.8-0.5-1.6-1.1-2.4-1.6l-2.3-1.7c-1.6-1.1-3-2.4-4.5-3.6
		c-1.5-1.2-2.9-2.5-4.3-3.8C630.7,521.6,629.4,520.2,628,518.9z"/>
</g>
<g id="XMLID_1017_">
	<path id="XMLID_1019_" d="M752.8,770.2c0,0,0.3,8.9,1.4,24.5c0.5,7.8,1.4,17.2,2.5,28c1.1,10.8,2.6,23,4.6,36.2
		c2,13.2,4.6,27.4,8.1,42.3c3.5,14.8,8,30.3,14.4,45.5c3.2,7.6,6.9,15.1,11.5,22.2c4.5,7,9.9,13.6,16.5,18.7
		c6.6,5.1,14.3,8.4,22.6,9c8.3,0.5,16.9-1.1,25.1-3.7c8.3-2.6,16.4-6.1,24.2-9.9c7.9-3.9,15.5-8.2,22.9-12.7
		c7.4-4.5,14.7-9.3,21.7-14.2c7.1-4.9,13.9-9.8,20.6-14.8c13.4-10,25.9-20.1,37.7-29.8c11.8-9.8,22.7-19.3,32.8-28.1
		c10-8.9,19.1-17.1,27.1-24.4c8-7.4,14.9-13.9,20.6-19.2c5.6-5.4,10.1-9.6,13.1-12.5c3-2.9,4.6-4.5,4.6-4.5s-1.5,1.7-4.3,4.8
		c-2.8,3.1-7,7.6-12.4,13.3c-5.4,5.7-12,12.5-19.7,20.2c-7.7,7.7-16.5,16.3-26.3,25.5c-9.7,9.2-20.5,19-32.1,29.1
		c-11.6,10.1-24.1,20.4-37.4,30.7c-13.3,10.3-27.5,20.4-42.6,29.7c-15.1,9.2-31.1,17.9-48.7,23.3c-8.8,2.6-18,4.5-27.5,3.8
		c-4.7-0.3-9.5-1.5-13.9-3.3c-4.4-1.8-8.4-4.3-12.1-7.2c-7.3-5.8-13-13-17.7-20.4c-4.7-7.5-8.5-15.3-11.7-23.2
		c-6.3-15.8-10.5-31.6-13.8-46.7c-3.2-15.1-5.4-29.5-7.1-42.8c-1.7-13.3-2.7-25.6-3.4-36.5c-0.8-10.9-1.1-20.4-1.3-28.2
		c-0.2-7.8-0.2-14-0.2-18.1C752.8,772.4,752.8,770.2,752.8,770.2z"/>
</g>
<g id="XMLID_1014_">
	<path id="XMLID_1016_" d="M1116.2,759.5c0,0,0.8,0.1,2.1,0.3c0.7,0.1,1.5,0.2,2.4,0.5c0.9,0.2,2,0.5,3.1,0.9
		c1.1,0.4,2.3,0.8,3.6,1.3c1.2,0.6,2.5,1.1,3.8,1.8c1.3,0.7,2.6,1.4,3.9,2.3c1.3,0.8,2.6,1.8,3.8,2.8c1.2,1,2.4,2,3.5,3.2
		c0.5,0.6,1.1,1.1,1.6,1.7c0.5,0.6,1,1.2,1.5,1.7c0.9,1.2,1.7,2.4,2.4,3.5c0.3,0.6,0.7,1.2,1,1.7c0.3,0.6,0.5,1.2,0.8,1.7
		c0.5,1.1,0.8,2.2,1.1,3.1c0.2,0.9,0.4,1.8,0.5,2.4c0.1,1.4,0.2,2.2,0.2,2.2s-0.4-0.7-0.9-1.9c-0.3-0.6-0.7-1.3-1.2-2.1
		c-0.3-0.4-0.5-0.8-0.8-1.2c-0.3-0.4-0.6-0.9-0.9-1.3c-0.3-0.4-0.7-0.9-1-1.4c-0.4-0.5-0.8-0.9-1.2-1.4c-0.4-0.5-0.8-1-1.3-1.5
		c-0.5-0.5-0.9-1-1.4-1.5c-0.5-0.5-1-1-1.5-1.5c-0.5-0.5-1.1-1-1.6-1.5c-0.5-0.5-1.1-1-1.6-1.4c-0.6-0.5-1.1-1-1.7-1.4
		c-1.2-0.9-2.3-1.8-3.5-2.7c-1.2-0.9-2.4-1.7-3.5-2.5c-1.2-0.8-2.3-1.5-3.4-2.2c-1.1-0.6-2.2-1.3-3.1-1.9c-1-0.5-1.9-1.1-2.7-1.5
		c-0.8-0.5-1.5-0.8-2.1-1.2C1116.9,759.9,1116.2,759.5,1116.2,759.5z"/>
</g>
<g id="XMLID_1011_">
	<path id="XMLID_1013_" d="M545.1,1173.7c0,0-2.4-1.2-6.9-3.5c-4.4-2.3-10.9-5.8-19-10.5c-8.1-4.7-17.8-10.6-28.8-17.7
		c-10.9-7.1-23.1-15.5-35.8-25.4c-12.7-9.9-26.1-21.1-39.2-34.2c-13.1-13.1-26.1-27.9-36.9-45.1c-5.4-8.6-10.3-17.8-14.2-27.6
		c-2-4.9-3.6-10-5-15.1c-1.4-5.2-2.3-10.5-2.9-15.9c-2.3-21.6,1.9-43.9,10.8-63.9c8.9-20,21.8-37.8,36.1-53.6
		c14.4-15.8,30.3-29.4,46.3-41.6c16.1-12.2,32.4-22.8,48.3-32.3c15.8-9.5,31.2-17.7,45.6-24.8c14.4-7.2,27.8-13.3,39.8-18.4
		c12-5.2,22.6-9.4,31.3-12.7c8.7-3.4,15.7-5.8,20.4-7.4c4.7-1.6,7.3-2.4,7.3-2.4s-2.5,0.9-7.2,2.8c-4.7,1.8-11.4,4.7-20.1,8.3
		c-17.2,7.3-41.5,18.4-69.8,33.4c-14.1,7.5-29.2,16-44.8,25.7c-15.5,9.7-31.5,20.5-47.3,32.7c-15.7,12.2-31.1,25.9-45.1,41.3
		c-13.9,15.4-26.4,32.7-34.8,51.9c-8.5,19.1-12.6,40.2-10.5,60.5c0.6,5.1,1.5,10.1,2.7,15c1.3,4.9,2.8,9.8,4.6,14.5
		c3.6,9.4,8.2,18.4,13.4,26.7c10.4,16.8,22.8,31.6,35.5,44.7c12.7,13.1,25.7,24.6,38,34.7c24.8,20.2,47,35.1,62.8,45.1
		c7.9,5,14.2,8.8,18.5,11.3C542.7,1172.4,545.1,1173.7,545.1,1173.7z"/>
</g>
<g id="XMLID_1008_">
	<path id="XMLID_1010_" class="st0" d="M824.1,654.8c0,0,0.1,0.3,0.3,0.9c0.1,0.3,0.2,0.7,0.2,1.1c0.1,0.5,0.2,1,0.2,1.6
		c0.1,1.2,0,2.7-0.4,4.4c-0.3,1.7-1,3.5-1.8,5.4c-0.9,1.9-2,3.8-3.3,5.8c-1.3,1.9-2.8,3.9-4.2,5.8c-1.5,1.9-3.1,3.9-4.7,5.9
		c-1.6,2-3.4,3.9-5.2,5.8c-1.8,1.9-3.6,3.8-5.5,5.6c-1.9,1.8-3.8,3.5-5.8,5.1c-3.9,3.1-7.7,5.8-11.2,7.7c-1.7,1-3.4,1.8-4.9,2.5
		c-1.5,0.7-2.8,1.2-3.9,1.6c-1.1,0.4-2,0.6-2.6,0.8c-0.6,0.2-0.9,0.3-0.9,0.3s0.2-0.2,0.7-0.7c0.5-0.4,1.1-1.1,2-1.8
		c1.7-1.6,4.1-3.8,6.8-6.4c1.4-1.3,2.8-2.8,4.4-4.3c1.5-1.6,3.1-3.2,4.8-4.9c1.6-1.7,3.3-3.5,5.1-5.3c1.7-1.8,3.5-3.7,5.2-5.6
		c1.8-1.9,3.5-3.7,5.3-5.6c1.7-1.8,3.5-3.6,5.2-5.3c3.5-3.5,6.6-6.4,8.9-9.3c1.2-1.4,2.2-2.8,2.9-4.1c0.7-1.3,1.4-2.5,1.7-3.5
		c0.4-1,0.6-1.9,0.7-2.5C824.1,655.1,824.1,654.8,824.1,654.8z"/>
</g>
<g id="XMLID_1005_">
	<path id="XMLID_1007_" class="st0" d="M841.5,661.6c0,0,0.1,0.3,0.2,0.9c0.1,0.6,0.3,1.5,0.3,2.6c0,1.1,0,2.6-0.4,4.2
		c-0.3,1.6-0.8,3.4-1.6,5.3c-1.5,3.7-4,7.7-7,11.5c-0.7,1-1.5,1.9-2.3,2.8c-0.7,0.9-1.6,1.9-2.4,2.8c-1.6,1.9-3.4,3.7-5.2,5.6
		c-1.8,1.8-3.7,3.6-5.6,5.2c-1,0.8-1.9,1.6-2.9,2.4c-1,0.8-1.9,1.5-2.9,2.2c-2,1.4-3.9,2.7-5.9,3.8c-1.9,1.1-3.8,2-5.6,2.8
		c-0.9,0.4-1.8,0.7-2.6,1.1c-0.8,0.3-1.6,0.6-2.4,0.8c-1.5,0.5-2.9,0.8-3.9,1.1c-1.1,0.2-2,0.4-2.6,0.5c-0.6,0.1-0.9,0.1-0.9,0.1
		s1-0.8,2.8-2.1c0.9-0.7,1.9-1.5,3.2-2.4c1.2-0.9,2.5-1.9,4-3.1c1.4-1.2,3-2.4,4.5-3.8c0.8-0.7,1.6-1.4,2.4-2.1
		c0.8-0.7,1.6-1.5,2.5-2.3c1.7-1.5,3.4-3.2,5.1-4.8c1.7-1.7,3.4-3.4,5.2-5.1c1.7-1.7,3.4-3.5,5.1-5.2c0.9-0.9,1.7-1.7,2.5-2.6
		c0.8-0.8,1.7-1.7,2.5-2.5c3.3-3.2,6.1-6.2,8.3-9.1c2.2-2.8,3.6-5.4,4.4-7.4c0.4-1,0.7-1.8,0.8-2.4
		C841.4,661.9,841.5,661.6,841.5,661.6z"/>
</g>
<path id="XMLID_956_" d="M1313.3,871.8c-0.4-1.6-1.1-3.1-2-4.4c-1.5-2.1-2.9-4.4-4.4-6.5c-0.8-1.2-1.7-2.5-2.7-3.5
	c-3.7-3.7-7.9-7-12.6-9.4c-1.8-0.9-11-2.6-13-2.3c-0.8,0.1-1.6,0.2-2.4,0.5c-2.6,0.9-5.4,1.7-7.8,3c-5.6,3.1-11.3,6.1-16.4,10.1
	c-1.5,1.2-3.1,2.4-4.7,3.6c-0.7,0.5-1.4,0.9-2.1,1.3c-0.5,0.3-1.5-0.2-1.5-0.8c-0.1-1.3-0.3-2.6-0.3-3.9c-0.3-15.4-0.7-30.9-1-46.3
	c-0.3-12.5-0.3-25-2.2-37.4c-0.3-2-0.6-3.9-0.9-5.8c-1.4-9.8-3.4-19.4-6.1-28.9c-2.6-9.2-6.4-18-11.9-25.9c-2.9-4.2-6.4-8-10.5-11
	c-6.7-5-14.1-7.6-22.5-7.5c-3,0-5.9,0.5-8.8,1c-6.2,1-12.2,2.7-17.9,5.3c-5.4,2.4-10.5,5.4-14.8,9.6c-8.1,7.9-15,16.6-18.2,27.7
	c-0.4,1.3-1.1,2.3-2.2,3.2c-3.5,2.8-6.9,5.5-10.3,8.4c-12.4,10.6-24.8,21.1-36.9,32c-4.7,4.2-9.5,8.2-14.5,11.8
	c-7.5,5.3-14.7,11-21.8,16.9c-9.2,7.7-18.3,15.5-27.8,22.9c-14.7,11.4-29.2,23-43.6,34.7c-5,4-9.8,8.3-14.7,12.4
	c-3.5,2.9-7,5.9-10.7,8.7c-10.7,7.9-21.4,15.8-32.2,23.6c-11.7,8.5-23.7,16.6-36.1,24.1c-8.3,5-17.4,7.8-26.8,9.2
	c-3.5,0.5-6.8,0.2-10.2-1.1c-3.7-1.5-7-3.4-9.9-6.2c-2.6-2.6-5-5.2-6.4-8.6c-2.3-5.6-4.9-11.1-7.1-16.8c-3-8-4.3-16.2-4.6-24.6
	c-0.3-9.2-0.4-18.4-0.6-27.6c-0.3-12-0.6-24-1-36c-0.3-9.4-0.8-18.7-1.3-28.1c-0.3-5.2-0.8-10.5-1.2-15.7c-0.4-4.7-1-9.5-1.4-14.2
	c-0.6-6.9-1.2-13.7-1.8-20.6c-0.1-1.3-0.5-2.6,0.5-4c2.3-1.3,4.8-2.4,7.5-3.2c7.5-2.2,14.4-5.4,21-9.7c9.2-6,18.1-12.6,26.3-20
	c5.5-5,10.3-10.6,14.4-16.8c5.8-8.7,10-18.1,12.9-28.1c2.4-8.2,4-16.6,5.1-25.1c1-7.5,1.7-15,1.7-22.6c0-2.9-0.2-5.9-0.5-8.8
	c-0.6-5.4-1.4-10.7-2.1-16.1c-0.1-0.8-0.2-1.6,0.7-2.4c0.9,0.2,2.1,0.3,3.2,0.5c8,2,15.9,4,23.9,5.9c11.8,2.9,23.5,6.1,35.6,7.9
	c8.3,1.2,16.6,2.3,25,2.4c8.4,0.1,16.8,0,25.1-0.2c4.1-0.1,8.2-0.5,12.3-1c10.1-1.4,20-3.8,29.6-7.3c22.5-8.2,42.7-20.3,60.7-36
	c9.2-8,17.8-16.6,25.1-26.4c8.4-11,15.9-22.6,22.7-34.6c7.4-13.2,14.4-26.6,20.5-40.4c0.7-1.7,1.5-3.3,2.4-4.9
	c3.5-6.7,7.1-13.3,10.6-20c4.4-8.6,9-17.2,13.1-26c6.3-13.4,11.9-27.1,17.3-40.8c3-7.6,5.7-15.4,7.8-23.4c1.6-5.9,2.7-11.8,2.7-18
	c0-2.2-0.5-4.2-1.9-5.9c-1.2-1.5-2.3-3.2-3.5-4.7c-1-1.2-1-2.4-0.5-3.7c0.2-0.5,0.4-0.9,0.6-1.3c3.4-7.3,6.8-14.6,10.1-21.9
	c6.6-14.7,13-29.5,19.6-44.1c6.6-14.6,14.3-28.5,24-41.3c6.8-9.1,12.7-18.8,18.6-28.5c1.1-1.8,2.1-3.7,3.1-5.6
	c0.6-1.3,1.2-2.7,1.5-4.2c0.6-2.6,0-4.9-1.7-6.9c-0.6-0.7-1.3-1.1-2.1-1c-4.3,0.3-8.5,0.9-12,3.7c-1.2,0.9-2.4,1.7-3.6,2.5
	c-14.7,9.7-28.4,20.8-40.7,33.4c-0.3,0.3-0.8,0.4-1.3,0.6c-0.1,0-0.3-0.1-0.4-0.1c-0.1-0.1-0.3-0.3-0.2-0.4c0.1-0.5,0.3-1,0.5-1.4
	c4.5-7.1,9.1-14.1,13.6-21.1c0.5-0.8,1.1-1.7,1.5-2.5c1.8-3.5,3.7-7,5.4-10.5c1.9-3.8,3.7-7.7,5.4-11.6c1.1-2.7,1.9-5.6,2.8-8.4
	c0.9-3.1,0.8-6.2,0.4-9.3c-0.7-4.5-4-6.4-8.3-4.8c-1.4,0.5-2.7,1.2-3.9,2.1c-5.3,3.9-10.6,7.8-14.8,12.9c-0.5,0.6-1,1.4-1.9,1.4
	c-0.5-0.6-0.2-1.3,0-1.9c0.7-2.4,1.5-4.7,2.1-7.1c1.4-4.9,1.9-10,1.5-15.1c-0.1-1.3-0.3-2.6-0.7-3.9c-0.7-2.6-2.4-4.3-5.1-4.7
	c-0.8-0.1-1.6-0.3-2.4-0.4c-0.3-0.8-0.5-1.4-0.8-2c-2.2-4.6-5.9-6-10.6-4.2c-1.1,0.4-2.1,1-3.1,1.6c-2.3,1.6-4.6,3.1-6.8,4.9
	c-4.8,3.8-8.8,8.3-12.6,13.2c-4.5,5.9-8.5,12.1-12.2,18.5c-11.4,20-19.9,41.1-23.6,63.9c-0.2,1,0,2.3-1,3.1
	c-1.3-0.3-1.7-1.5-2.4-2.3c-4.1-5.2-8.5-10-13.5-14.4c-6.2-5.4-12.6-10.6-18.9-15.8c-2.5-2.1-5.3-3.9-8-5.7c-3.2-2.1-6.5-3.9-10-5.4
	c-4.4-1.9-8.9-2.2-13.5-1.7c-2.1,0.3-4.2,0.8-6,2c-1.8,1.1-2.8,2.8-2.9,4.9c0,1,0,2,0.3,2.9c0.6,2.1,1.1,4.2,1.9,6.1
	c2.7,6.2,6.1,12,10.6,17.1c1.8,2,3.6,3.9,5.4,5.8c9.5,10.2,19.1,20.4,28.6,30.6c0.4,0.5,0.8,1,1.3,1.7c0.3,7.9,0.8,16,1,24
	c0.1,5.6,0,11.2-0.4,16.7c-0.5,5.4-0.3,10.8-0.5,16.3c0,1.3-0.2,2.6-0.3,4c-1,0.5-1.8,1-2.7,1.5c-1.3,0.7-2.6,1.4-3.8,2.3
	c-4,3.1-6.8,6.9-7.4,12.2c-0.8,7.7-2.5,15.2-4.2,22.8c-3.7,15.9-9.2,31.2-15.5,46.2c-5.2,12.3-11.3,24.1-17.8,35.7
	c-6.5,11.7-14.3,22.5-22.7,32.8c-1.5,1.8-3.2,3.3-5.2,4.5c-5.8,3.7-11.8,7.2-17.9,10.5c-9.9,5.3-20.2,9.5-31,12.6
	c-5.4,1.5-10.8,2.8-16.4,3.4c-11.7,1.3-23.3,0.7-34.9-1.2c-4.5-0.7-9-1.9-13.3-3.5c-0.6-0.2-1.3-0.3-1.2-1.5c1.2-1,2.6-2.2,4-3.3
	c7-5.9,12.7-12.9,16.5-21.2c5.6-12.4,7.2-25.2,3.5-38.4c-1.9-6.7-5.3-12.7-9.4-18.3c-5-6.8-11.2-12.4-18.2-17.2
	c-9.5-6.6-19.8-11.6-30.7-15.6c-2.9-1.1-5.9-2-8.8-3.1c-1.4-0.5-1.8-1.1-1.6-2.6c0.7-4.6,0.8-9.2-0.4-13.7
	c-0.9-3.3-2.1-6.5-3.4-10.2c0.2-3.2,0.8-6.7,2.1-10.1c0.6-1.7,1.1-3.4,1.7-5.2c0.5-1.4,0.7-2.9,0.3-4.4c-0.5-2.1-2.7-3.2-4.6-2.2
	c-0.7,0.4-1.4,0.8-2.1,1.3c-1.6,1.2-2.7,2.9-3.6,4.6c-1.9,3.5-2.9,7.3-3.7,11.2c-0.4,2-1,3.7-2.7,5.1c-1.1,0.9-1.9,2.3-2.6,3.5
	c-2.5,4.1-4.8,8.2-6.6,12.6c-0.4,1-1,2-1.6,3c-1.3-0.1-2.5,0-3.6-0.2c-10.5-2-21.1-3.1-31.7-4.5c-11.1-1.4-22.2-2.9-33.3-3.4
	c-1.5-0.1-2.9-0.3-4.4-0.5c-0.6-0.1-1.3-0.2-1.6-1.2c0.2-0.7,0.5-1.7,0.9-2.6c1.2-3.2,1.3-6.4,1.2-9.7c-0.2-3.5-1.6-6.3-4-8.7
	c-0.9-0.9-2-1.7-3-2.6c-0.3-0.3-0.3-0.8-0.6-1.4c2.4-0.6,4.6-1.1,6.9-1.6c7.2-1.7,14.1-4.6,20.9-7.2c6.3-2.5,10.4-7.4,12.5-13.8
	c0.7-2.3,1-4.8,1.2-7.3c0.5-8.5,0.5-17.1-0.3-25.6c-0.2-1.8-0.3-3.6-0.2-5.4c0.2-9.1-1-18-1.2-27.1c0-0.7-0.1-1.3-0.2-2
	c-1-7.2-1.8-14.3-1.7-21.6c0.1-3.8-0.2-7.6-0.3-11.3c-0.5-12.3-2-24.6-2.8-36.9c-0.1-0.8-0.2-1.6-0.4-2.4c-1-5.5-2.1-11-3.1-16.5
	c-1-5.4-3.6-9.7-8.3-12.8c-6.7-4.5-14-8-21.4-11.1c-22.2-9.2-44.9-16.9-67.9-23.8c-2.7-0.8-5.4-1.3-8.3-1.2
	c-5.1,0.2-10.2,0.2-15.3,0.3c-1.6,0-3.3,0-4.9,0c-1.2,0-2.2-0.5-3.1-1.2c-8.4-6.8-18-11.5-28.1-15c-2.9-1-5.9-2-8.9-2.9
	c-2.4-0.7-4.5-1.8-6.6-3.3c-4.9-3.5-9.9-7-15.1-10.2c-17.5-10.9-36.2-18.6-56.5-22.4c-9.4-1.8-18.9-2.7-28.4-2.4
	c-3.3,0.1-6.6,0.5-9.7,1.7c-5.7,2.1-10.6,5.2-14.6,9.8c-2.6,3-5.1,6.1-6.7,9.7c-1.1,2.5-3,3.7-5.3,4.8c-6.1,2.9-12.1,5.9-18,9.1
	c-14,7.7-27.1,16.7-39.5,26.8c-12.1,9.9-23.8,20.3-34.7,31.5c-6.2,6.4-12.4,12.7-17.8,19.8c-1.3,1.6-2.9,2.5-4.8,3.2
	c-13.3,4.9-24.5,12.5-31.7,25.2c-1.8,3.1-2.7,6.3-2.9,9.8c-0.1,2.1,0.1,4.3,0.1,6.4c0,3.4,0.2,6.9,0,10.2c-0.4,0.5-0.7,0.9-1,1.3
	c-4.2,4.8-7.9,10.1-10.5,16c-1.1,2.4-2.2,4.8-3.5,7c-5.4,9.6-10.1,19.6-14.4,29.7c-1.6,3.6-3.2,7.2-4.5,10.9
	c-5.3,14.9-9.4,30.1-11.9,45.7c-1.2,8-2.2,16-2.3,24c-0.1,8.7-0.1,17.4,0.7,26.1c0.6,6.2,1.5,12.4,2.8,18.5
	c4,18.1,10.3,35.4,18.6,51.8c14.3,28.2,33.3,52.8,57.3,73.3c17.5,15,37,26.8,58.4,35.3c17.7,7,36,11.2,54.9,13.5
	c3.6,0.4,7.2,0.7,10.8,1.1c1.1,0.1,1.8,0.9,1.8,2c0,1,0,2-0.1,3c-0.3,5.4-0.7,10.8-1,16.2c-0.4,7.5-0.8,15.1-1.3,22.6
	c0,0.7-0.1,1.3-0.2,2c-0.6,6.5-1.2,13.1-1.7,19.6c-0.3,3.8-1.2,7.5-2.8,10.9c-1.8,3.9-3.8,7.6-6.2,11.2c-1.6,2.3-3.1,4.6-4.6,7
	c-5,7.8-8.1,16.2-8.6,25.4c-0.5,8.2,0.8,16.1,6.1,22.8c0.4,0.5,0.6,1.1,1,1.7c-1.5,1.4-3.2,2-4.8,2.7c-5.1,2.2-10.3,4.4-15.1,7.2
	c-7.8,4.5-15.7,9-23.5,13.6c-24.7,14.7-49.2,29.8-72.6,46.5c-11.4,8.1-22.4,16.8-32.8,26c-4.4,3.9-8.8,7.9-13.1,12
	c-6.7,6.5-13.1,13.4-19.2,20.5c-9.7,11.5-18.2,23.7-25.5,36.8c-7.4,13.2-13,27.3-18.5,41.4c-0.2,0.6-0.4,1.3-0.6,1.9
	c-2.9,9.3-4.7,18.8-5.9,28.4c-1.1,8.7-1.1,17.4-0.6,26.1c0.3,5.6,1.3,11.1,2.1,16.6c0.3,1.9,0.6,3.8,2.1,5.4c1.1,1,1.4,2.6,0.9,4.1
	c-0.5,1.3-0.3,2.6,0.1,3.9c0.4,1.2,0.8,2.5,1.1,3.8c4.9,16.2,12.5,31.1,21.7,45.1c12.4,19,27.7,35.5,44.5,50.6
	c1.5,1.3,2.9,2.6,4.4,3.9c4.4,4,8.7,8,13.2,11.8c9.1,7.6,18.2,15.2,27.7,22.2c11.4,8.4,22.9,16.6,34.8,24.2
	c14.9,9.6,29.8,19.3,45.4,27.9c14.8,8.2,29.6,16.5,45.2,23.1c0.6,0.3,1.2,0.5,1.8,0.8c0.7,0.4,1.2,1,1.8,1.4
	c-0.3,2.1-0.5,3.9-0.8,5.6c-0.7,4.1-0.2,8.2,0.5,12.3c0.2,1.5,0.7,2.9,0.9,4.3c0.1,0.4-0.2,0.9-0.4,1.4c-1.4-0.3-2.6-0.8-3.9-0.9
	c-1.5-0.1-3-0.2-4.4,0.1c-6.9,1.3-13.9,2.6-20.5,5.2c-4.6,1.8-9,4-13.3,6.3c-4.8,2.6-9.3,5.5-13.6,9c-2.7,2.2-5.3,4.4-7.9,6.6
	c-3.4,2.9-6.4,6.1-9.3,9.5c-7.1,8.2-4.9,6.9-14.8,13.6c-0.4,0.3-0.8,0.5-1.2,0.9c-2.4,2.1-5.3,3.2-8.4,3.7c-2.3,0.4-4.5,0.6-6.8-0.4
	c-1.2-0.5-2.5-0.9-3.8-1.1c-3.3-0.7-6.1-2.3-8.5-4.7c-0.6-0.6-1.2-1.2-1.8-1.7c-3.7-2.9-5.6-6.6-6-11.4c-0.5-5.6-0.6-11.1,1.3-16.5
	c2.7-7.7,6.9-14.5,12.4-20.5c1.2-1.4,2.7-2.4,4.3-3.2c4.3-1.9,7.5-5.2,10.7-8.6c1.1-1.1,1.5-2.5,1.6-4c0-0.9-0.4-1.6-1.2-2
	c-1.8-0.9-3.7-1.3-5.7-1.3c-5.7,0-11,1.5-15.9,4.4c-3.6,2.1-6.6,4.9-9.3,8c-8.1,9.6-13.7,20.4-16.8,32.6c-1.6,6.4-1.6,12.7,0.1,19
	c2.3,9,7,16.6,13.9,22.8c6.9,6.2,15.1,8.3,24.3,6.7c6.7-1.2,13-3.4,18.9-6.9c4.6-2.8,9.2-5.8,13.7-8.8c3.8-2.5,7.6-5.3,11.4-7.8
	c3.9-2.7,7.8-5.4,11.3-8.7c8.8-8.1,19-14.1,29.6-19.4c1.5-0.7,3-1.4,4.5-2c6.8-2.7,13.8-2.8,20.9-1.6c0.6,0.1,1.3,0.4,1.9,0.6
	c0.7,0.3,1,1,0.7,2.1c-0.1,0.4-0.5,0.8-0.6,1c-4.5,0.8-8.9,1.5-13.3,2.4c-8.6,1.7-16.8,4.5-23.4,10.8c-0.4,0.3-0.8,0.6-1.2,0.9
	c-6.5,5.3-13,10.5-18.6,16.9c-3.4,3.9-6.3,8-9.2,12.2c-0.9,1.3-1.6,2.9-2.2,4.4c-0.9,2.1-1.9,4.2-2.7,6.4
	c-2.2,5.9-5.2,11.3-8.8,16.5c-2.6,3.8-5.2,7.6-7.6,11.5c-2.1,3.6-4.8,6.6-7.9,9.4c-1.8,1.6-3.7,3.3-5.2,5.2
	c-3.5,4.4-7.7,8.1-12.5,11.1c-1.7,1.1-3.3,2.2-4.8,3.4c-1.9,1.4-4,2.3-6.3,2.7c-6.7,1.1-5.2,2.1-13.5-0.6c-0.6-0.2-1.3-0.4-1.9-0.6
	c-2.6-0.8-4.7-2.3-6.1-4.7c-0.7-1.1-1.6-2.1-2.1-3.3c-1.1-2.6-3.2-4-5.4-5.6c-2.4-1.7-4.8-1.8-7.5-0.8c-2.7,1.1-4.2,3.1-4.4,6
	c-0.1,1.5,0.1,3,0.4,4.4c1.8,7,5.5,12.7,11.6,16.5c2.6,1.6,5.5,3,8.3,4.4c5.9,2.9,11.9,3.2,18.1,0.9c4.1-1.5,8.5-2.6,12.8-3.8
	c4.2-1.1,8.1-2.7,11.7-5c2.9-1.9,5.7-3.9,8.4-6c2.5-1.9,4.8-4,7.3-5.9c3.6-2.7,6.7-5.9,9.1-9.6c3.1-4.7,6.2-9.3,9-14.1
	c7.7-13.4,16.4-26.2,25-39c1.5-2.2,3.1-4.3,4.7-6.3c3.1-4.1,6.7-7.7,10.6-11c2.7-2.2,5.5-4.3,8.7-5.6c3.6-1.5,7.4-2.6,11.1-3.9
	c0.1,0,0.3,0.1,0.4,0.2c0.6,1-0.1,1.9-0.4,2.8c-3.1,10-5.9,20.2-8.4,30.4c-3.3,13.4-6.7,26.8-9.5,40.3c-2.9,14.3-4.7,28.9-6.6,43.3
	c-1,7.3-1.8,14.7-2.1,22.1c-0.1,1.6-0.1,3.3-1.5,4.5c-0.4,0.4-0.5,1.2-0.6,1.8c-0.1,1.1-0.1,2.3,0,3.4c0.3,6.3,3.7,10.7,8.8,14
	c1.7,1.1,3.6,1.5,5.6,1.6c4.9,0.3,9.5-0.4,13.8-2.8c2.6-1.4,5.2-2.9,7.6-4.6c6.7-4.8,12.9-10.2,18.5-16.3
	c5.4-5.8,10.1-12.1,13.9-19.1c1.5-2.8,3.3-5.3,5.4-7.6c21.5-24.2,41.9-49.4,61.6-75.1c13.1-16.9,25.4-34.4,37.9-51.7
	c3.1-4.3,6-8.6,9-13c6.7-10,12.3-20.6,16-32.1c1-3,1.7-6,2.2-9.1c0.3-2,0.2-3.9-0.1-5.9c-1.1-6.6-4.5-11.9-9.3-16.4
	c-2.3-2.1-4.5-4.3-6.7-6.5c-6.4-6.4-13.1-12.5-20.5-17.7c-11.5-8.2-24.2-14-37.5-18.4c-4.1-1.4-8.2-2.3-12.5-2.8
	c-7.4-0.8-14,0.9-19.9,5.4c-1.8,1.4-3.5,3-5.3,4.5c-0.7,0.6-1.6,1.1-2.4,1.8c-1-0.4-1.9-0.6-2.8-1.1c-5.4-2.8-10.9-5.3-16.2-8.4
	c-28.7-16.9-55.6-36.3-80.2-58.8c-5.3-4.9-10.7-9.8-16-14.7c-7.2-6.5-14.1-13.3-20.5-20.6c-5.4-6.2-10.7-12.5-16-18.8
	c-1.1-1.4-2-3-2.8-4.6c-2.6-5.7-4.9-11.5-6.8-17.4c-2.5-8-4.3-16.2-5.1-24.6c-0.7-7.2-0.7-14.5,0-21.7c0.6-7.1,2.1-14,4.9-20.5
	c2-4.7,3.9-9.4,6.1-14c5-10.6,11.3-20.4,19.4-29c5-5.3,10-10.4,15.4-15.3c9.3-8.4,19.2-16,29.4-23.2c24.4-17.3,49.5-33.6,75-49.2
	c14-8.6,28.4-16.6,43.3-23.4c9.9-4.5,19.9-8.7,30.3-11.7c2.4-0.7,4.8-1.2,7.2-1.7c1.7-0.3,2.8,0.6,3,2.4c0.2,2.3,0.2,4.6,0.5,6.9
	c1.1,10.6,2.4,21.2,3.5,31.8c1.1,10.5,2.7,20.9,4.4,31.2c3.2,19.1,6.8,38.2,10.6,57.2c3.1,15.1,6.5,30.2,10.3,45.2
	c3.8,14.8,7.8,29.5,12.8,44c1.7,5,3.4,10,5.2,14.9c4,11,9.3,21.4,14.5,31.9c6,12,13.5,22.9,22.4,32.9c9.6,10.7,21,18.9,34.1,24.7
	c11.9,5.2,24.3,7.9,37.4,7.4c7.4-0.3,14.7-1.6,21.8-3.5c12.9-3.5,25-9.2,36.6-15.8c9-5.1,17.6-10.9,26-17
	c9.4-6.9,18.4-14.4,27.3-21.9c13.8-11.5,27.3-23.3,40.1-35.8c27.3-26.6,54.5-53.3,81.7-80.1c16.7-16.4,33.5-32.5,50.8-48.2
	c5-4.5,9.5-9.5,13.7-14.8c1.6-2.1,3.4-4,5.2-5.9c7.5-7.4,15-14.7,22.6-22.1c2.8-2.8,5.6-5.6,8.4-8.4c0.7-0.7,1.3-1.5,2.5-1.5
	c0.2,0.4,0.6,0.8,0.7,1.2c0.5,6.4,1,12.8,1.5,19.2c0.1,0.8-0.3,1.6-0.4,2.1c-4.6,3.1-9,6-13.4,8.9c-13.9,9.2-25.4,20.8-35.4,34
	c-4.4,5.8-8.4,11.8-11.8,18.2c-1.2,2.2-2.3,4.4-3.1,6.7c-2.1,6.3-0.1,12.3,5.1,16.2c1.7,1.3,3.7,2.1,5.8,2.7c2.9,0.8,5.8,1,8.8,1
	c3,0,5.9-0.1,8.9-0.1c3.6-0.1,6.8,1.1,9.6,3.3c2,1.6,3.8,3.6,5.6,5.5c1.1,1.2,1.7,2.8,2,4.6c-1.6,6.1-5.3,10.7-11.2,13.3
	c-2.8,1.3-5.7,2.4-8.6,3.6c-4.7,1.9-9.5,3.7-14.2,5.7c-8.2,3.5-15.8,8.1-22.6,13.9c-0.9,0.7-1.7,1.5-2.5,2.3
	c-1.8,1.8-2.3,3.9-1.9,6.3c0.4,2,1.4,3.4,3.3,3.9c3,0.9,6.1,1.6,9.2,1.2c2.8-0.3,5.5-0.9,8.3-1.3c2.5-0.4,4.7-1.3,6.8-2.8
	c3.5-2.5,6.9-5,10.6-7.2c6.1-3.6,12.1-7.2,17.7-11.6c4.6-2.3,8.5-5.6,12.4-8.8c4.7-3.9,8.8-8.4,11.6-13.9c2.8-5.6,1.9-10.8-1.5-15.8
	c-3.5-3.2-7-6.4-10.6-9.6c-5.7-3.2-11.4-6.5-18-7.8c-1.4-0.3-2.9-0.7-4.2-1.2c-2.9-1.1-4.3-3.4-4.6-6.4c-0.2-2,0.2-4,1.1-5.7
	c1.3-2.6,2.8-5.2,4.3-7.7c1.3-2.1,2.9-4,4.3-6c3-4.5,6.8-8.5,10.5-12.3c3.9-4,8.5-7.3,12.8-10.8c1.5-1.2,3.2-2.3,4.9-3.3
	c0.3-0.2,0.9-0.1,1.3-0.2c1.1,1.2,0.8,2.6,0.8,3.9c0.4,8.4,1.3,16.7,2.4,25c1.4,10.9,3.5,21.7,5.7,32.5c2,9.7,4.7,19.1,8.7,28.2
	c2.3,5.1,5,10,8.3,14.5c3.3,4.4,7.2,8.1,11.8,11.1c6.5,4.2,13.6,4.6,20.9,3.8c0.6-0.1,1.3-0.4,1.9-0.6c7.4-2.4,13.6-6.5,18.6-12.5
	c1.6-1.9,3.1-3.8,4.6-5.8c7.2-9.8,11.8-20.8,15.1-32.4c2.9-10.1,4.7-20.5,6.7-30.8c0.2-1,0.3-2,0.3-2.9c0.1-4.6,0.7-9.2,0.2-13.8
	c-0.1-1,0-2,0-3.1c5.5-3.6,10.6-6.9,15.6-10.2c4.6-3.1,9.6-4.9,15-5.9c1.1-0.2,2.3-0.3,3.4-0.6c3.2-0.8,6.5-0.8,9.8-0.5
	c4.7,0.3,7.5,2.7,8.9,7.2c1.1,3.7,1.1,7.4,0.7,11.2c-0.7,5.8-2.6,11.2-5.5,16.2c-4.3,7.3-4.7,15.3-3.9,23.4c0.1,1.1,0.5,2.2,1.1,3.2
	c1.2,2.2,3.6,2.9,5.9,2.1c2-0.7,3.3-2.2,4.3-3.9c2.1-3.9,4.4-7.8,6-11.8c3.7-9.2,6.5-18.6,8.2-28.4
	C1314.6,881.9,1314.6,876.8,1313.3,871.8z M1149.1,719.7c3.5-3.8,7.6-6.7,12.2-9c5.9-2.9,12.2-4.6,18.7-5.9c4-0.8,8.1-1.3,12.2-0.8
	c1.3,0.1,2.6,0.2,3.6,1.5c-0.3,0.5-0.5,1.1-0.9,1.6c-1.6,2.3-3.7,4.2-6,5.8c-3.9,2.8-7.9,5.3-12.2,7.3c-7,3.2-14.4,4.4-22,4
	c-2.4-0.1-4.8-0.7-6.8-2.2C1147.9,720.8,1148.6,720.3,1149.1,719.7z M1132.9,223.3c-5.2-5.7-10.5-11.3-15.8-16.9
	c-3.4-3.6-6.8-7.1-10.1-10.8c-4-4.4-6.8-9.6-9.2-15.1c-0.8-1.8-1.7-3.6-1.3-5.9c0.8-0.4,1.6-1,2.5-1.1c3.4-0.5,6.9-0.6,10.2,0.8
	c1.8,0.7,3.7,1.5,5.4,2.5c2.8,1.7,5.7,3.3,8.3,5.3c10.9,8,21.3,16.5,30.8,26.2c3.2,3.3,6.3,6.7,9.5,10c0.7,0.7,1.4,1.4,2.2,2
	c0.9,0.7,2.5,0.3,3-0.7c0.4-0.9,0.8-1.8,1-2.7c1.6-8.7,4.2-17.2,6.9-25.7c6.3-19.7,15.3-38.1,26.9-55.2c3.4-5.1,7.3-9.7,11.7-14
	c2.6-2.5,5.4-4.8,8.4-6.8c0.8-0.5,1.7-1,2.5-1.5c0.9-0.5,1.9-0.9,2.7-0.2c0.8,0.7,0.6,1.8,0.5,2.8c-0.2,1-0.4,1.9-0.8,2.9
	c-1.2,3.2-2.2,6.6-3.6,9.7c-4.4,9.7-9,19.4-13.6,29c-1.1,2.4-2.2,4.8-3,7.3c-0.9,2.6-2.1,5.2-3.1,7.8c-1.7,4.3-3.3,8.6-5,12.9
	c-0.3,0.8-0.5,1.6,0.3,2.5c0.5-0.4,1.1-0.6,1.5-1.1c1.1-1.4,2.2-2.9,3.2-4.4c4-6.3,7.7-12.6,10.8-19.3c3.8-8.2,7.9-16.3,11.7-24.4
	c2.7-5.8,5.3-11.7,7.2-17.8c0.1-0.3,0.2-0.6,0.4-0.9c0.3-0.8,1.2-1.3,2-1.1c0.8,0.1,1.5,0.8,1.6,1.6c0.5,2.6,0.4,5.2,0,7.8
	c-0.6,4.4-1.7,8.7-3.2,12.9c-4.6,12.5-10.5,24.5-17.5,35.8c-2.1,3.4-4,6.8-5.9,10.2c-0.9,1.7-1.6,3.6-2.3,5.4
	c-0.1,0.2,0.1,0.7,0.2,0.9c0.2,0.2,0.7,0.2,0.8,0.1c6.5-6,12.8-12.3,17.6-19.8c1.8-2.8,3.4-5.6,4.9-8.5c1.8-3.3,4.1-6.3,6.7-9.1
	c2.4-2.5,4.6-5.1,6.9-7.7c4.2-4.7,9.1-8.5,14.2-12.1c0.5-0.4,0.5-0.3,2.4-0.3c0.8,2.9,0.5,5.8-0.4,8.7c-1.7,5.7-4.1,11.1-6.9,16.3
	c-2.8,5.2-5.8,10.3-8.8,15.4c-2.8,4.8-5.8,9.6-8.6,14.4c-1.7,2.8-3.2,5.8-4,9c-0.2,0.6-0.3,1.3-0.4,1.9c-0.1,0.7,0.5,1.8,1.2,2
	c2,0.9,4,1.3,6.2,0.6c1.9-0.6,3.6-1.7,5.1-2.9c6.3-5.3,12.6-10.6,18.9-15.8c7.9-6.5,16.2-12.3,24.8-17.8c0.7-0.4,1.4-0.8,2.2-1
	c0.4-0.1,1,0,1.3,0.3c0.3,0.3,0.5,0.9,0.3,1.3c-0.6,1.4-1.2,2.7-2,4c-5.4,9.1-10.9,18-17,26.5c-3.3,4.7-6.7,9.4-9.9,14.1
	c-6.2,9.2-11.1,19-15.8,28.9c-8,16.8-14.9,34-21.1,51.5c-1.2,3.3-2.6,6.4-4.3,9.4c-5.2,9.3-10.1,18.8-13.6,28.9
	c-0.3,0.8-0.6,1.5-0.8,2.1c-1.5,1.3-3.2,1.4-4.8,1.5c-3.1,0.2-6.2,0.4-9.4,0.5c-12.7,0.2-25.3-0.6-37.7-3.4
	c-6.4-1.4-9.5-2.5-14.5-5.3c-0.1-0.6-0.3-1.4-0.2-2.2c0.6-6.5,1.4-13.1,1.9-19.6c0.3-4.1,0.3-8.2,0.5-12.3c0-0.3,0.1-0.7,0-1
	c-0.9-3.9-0.2-7.8-0.2-11.8c0-7.7,0.2-15.5,0-23.2c-0.1-4.6-0.9-9.1-1.4-13.7c-0.2-1.5-0.4-2.9-0.5-4.4c-0.2-2.4-1-4.4-2.6-6.3
	C1138.2,229.6,1135.7,226.3,1132.9,223.3z M1222.3,329.6c-1.3,1-2.5,2.1-4.3,2.2c-0.2-0.3-0.4-0.6-0.4-0.9c0.5-3.3,1.7-6.3,3.3-9.2
	c0.2-0.3,0.8-0.7,1.1-0.6c0.4,0.1,0.9,0.5,1,0.9c0.4,0.9,0.7,1.8,0.9,2.8C1224.5,326.7,1223.8,328.3,1222.3,329.6z M1133.8,309.1
	c0.8-0.9,1.6-2.1,3.3-1.9c0.1,0.5,0.3,0.9,0.3,1.4c-0.4,4-0.9,8.1-1.3,12.1c-0.1,0.6-1,0.9-1.5,0.5c-0.2-0.2-0.5-0.4-0.7-0.6
	C1129.8,316.2,1129.8,313.3,1133.8,309.1z M903.5,369.2c-1.9,0-3.7-0.3-5.4-1.3C900,367.5,900.1,367.5,903.5,369.2z M896,372.6
	c0.4-1.1,1.2-1.4,2.3-0.9c9.8,4.3,19.4,8.8,28.6,14.1c2.1,1.2,4.2,2.6,6.2,4c0.8,0.6,1.4,1.3,1.3,2.6c-3.2,1.2-6.6,1.4-10,1
	c-10.8-1.1-21.3-3.6-31.6-7c-0.1,0-0.3-0.2-0.5-0.4c-0.1-0.4-0.3-0.9-0.2-1.3C893.4,380.7,894.7,376.7,896,372.6z M895.3,316.7
	c0.5,2.6-0.2,4.4-0.8,6c-0.9,2.5-1.9,4.9-2.3,7.5c-0.1,0.4-0.5,0.8-0.8,1.1c-0.1,0.1-0.3,0.1-0.4,0.1c-0.3-0.1-0.6-0.3-0.7-0.5
	c-0.2-0.3-0.3-0.6-0.2-0.9C890.7,325.4,892,321.1,895.3,316.7z M875.4,368c0.3-2.4,0.5-4.9,0.9-7.3c0.3-1.9,0.6-3.9,1.3-5.7
	c1.9-4.5,4-9,6.1-13.4c0.6-1.3,1.4-2.6,2.4-3.7c2.1-2.6,5.5-2.1,6.6,1c1.4,3.7,2,7.6,1.5,11.6c-0.3,3.3-0.5,6.5-1.7,9.7
	c-0.2,0.6-0.4,1.3-0.5,1.9c-0.6,5.1-2.3,9.9-3.9,14.7c-2.7,7.9-5.4,15.8-9.1,23.4c-4.7,9.8-10.9,18.4-19.2,25.3
	c-5.8,4.9-12.4,8.6-19.3,11.7c-3,1.4-6.4,1.7-9.6,1.8c-4.3,0.3-8.5,0.3-12.8,0.4c-8.1,0.1-16.1-0.9-24.1-1.4
	c-0.8-0.1-1.6-0.2-2.4-0.4c-1.6-0.4-2.5-2.4-1.8-3.9c0.5-1,1.1-2,1.8-2.9c0.6-0.9,1.5-1.2,2.6-0.9c2.7,0.7,5.4,1.4,8.1,2
	c6.3,1.3,12.8,1.1,19.1,0.5c3.6-0.3,7.2-1,10.7-1.7c4-0.8,7.9-2.2,11.6-3.9c8-3.7,14.2-9.4,18.5-17.1c1.8-3.1,3.5-6.4,4.8-9.7
	C871,389.5,874,379,875.4,368z M787.8,427.3c-1.2,1.2-2.3,2.6-3.5,3.9c0.3-3.3,1.8-5.8,4.8-7.3c0.9-0.4,1.8-0.7,2.9,0.2
	C790.8,425.5,789,426.1,787.8,427.3z M809.9,352.6c7.2,0.7,14.4,1.6,21.5,2.5c8.6,1.1,17.3,2.3,25.9,3.5c4.1,0.6,8.1,1,12.1,2.2
	c0.2,0.5,0.6,0.9,0.6,1.3c-0.1,5.4-1.3,10.7-2.7,16.1c-0.8,0-1.4,0-2-0.1c-1.9-0.6-3.8-1.2-5.6-1.8c-12.5-4.5-25.3-8.4-38-12.2
	c-7.9-2.4-15.7-5-23.5-7.4c-3.6-1.1-7.3-2.1-11-2.9c-1.6-0.4-3.2-0.2-4.9-0.2c-0.2,0-0.6,0.4-0.6,0.6c-0.1,0.3,0,0.7,0.2,0.9
	c0.5,0.4,1.1,0.8,1.6,1c2.1,0.9,4.3,1.7,6.4,2.6c14.1,5.5,28.4,10.3,42.9,14.6c10.2,3.1,20.5,6.1,30.7,9.1c0.2,0,0.3,0.1,0.5,0.1
	c1.4,0.4,1.9,1.2,1.5,2.6c-1.4,4.9-3,9.7-5.3,14.3c-1,2.1-2.1,4.1-3.2,6.1c-5.1,9.3-13.2,14.9-23.2,17.8c-1.7,0.5-3.5,0.8-5.3,1.2
	c-10.1,2-20.2,2.5-30.6,0.4c-0.7-0.8-1.6-1.8-2.5-2.7c-2-1.8-4.3-2.2-6.9-1.4c-3.7,1.3-6,4-7.4,7.4c-0.9,2.3-1.3,4.7-1.2,7.2
	c0.3,6.1,4.9,9.9,11,9.2c0.8-0.1,1.7-0.2,2.4-0.5c2.2-1,4.5-0.7,6.8-0.5c10.5,1.1,21,1.1,31.5,0.5c6.1-0.4,12-2,17.2-5.4
	c1.1-0.7,2.3-1.3,3.4-2c14.3-7.6,24.7-18.9,31.8-33.3c1.7-3.5,3.2-7.2,4.8-10.8c0.4-0.9,0.9-1.7,1.5-2.6c1.4,0.5,2.7,0.8,3.9,1.3
	c8.7,3.1,17.7,5.1,26.8,6.3c4.2,0.6,8.5,0.7,12.7-0.6c1.4-0.4,2.7-1.1,4-1.8c1.1-0.6,1.4-1.8,1.2-3c-0.5-2.3-1.6-4.3-3.5-5.8
	c-1.3-1-2.7-2-4.1-2.7c-7.7-4-15.2-8.4-23.2-11.9c-1.6-0.7-3.3-1.3-4.5-2.6c0.9,0.2,1.9,0.3,2.7,0.6c10.7,3.9,20.9,8.7,30.2,15.3
	c6.8,4.8,12.7,10.4,17.4,17.3c3.3,5,6,10.2,7.3,16.1c2.4,11,1.1,21.6-3.2,31.8c-2.2,5.2-5.2,9.9-8.6,14.3c-3.3,4.1-6.8,8-10.6,11.9
	c-0.8-0.3-1.6-0.5-2.3-0.8c-5.8-2.3-11.5-5-17-7.9c-2.2-1.2-4.4-2.3-6.8-2.9c-2.7-0.7-5.2-2.1-7.5-3.6c-4.8-3.1-9.5-6.5-13.9-10.2
	c-0.7-0.6-1.3-1.5-2.4-1.5c-0.7,0.5-0.5,1.2-0.3,1.8c1,2.5,2.6,4.6,4.3,6.5c2.9,3.2,6.1,6,9.8,8.2c4.9,3,9.8,6,14.8,8.8
	c8.6,4.8,17.7,8.7,27.1,11.7c9.8,3.1,19.8,4.7,30,5c4.8,0.1,9.5,0.1,14.3,0c5.6-0.1,11.1-1.2,16.5-2.5c13-3.1,25.5-7.7,37.2-14
	c3.8-2,7.5-4.2,11.2-6.2c6.9-3.8,12.4-9.1,17.4-15.1c8.9-10.6,16.6-22.1,23.2-34.2c8.3-15.3,15.7-31.1,21.7-47.4
	c4.3-11.6,7.7-23.4,9.9-35.6c0.6-3.6,1.1-7.1,1.6-10.6c0.8-0.5,1.3-0.1,1.8,0.3c6.9,6.4,15.1,10.4,24.2,12.7
	c8.5,2.1,17.1,3.5,25.8,3.9c1.6,0.1,3.3,0.2,4.9,0.3c9.2,0.7,18.4,0.3,27.5-1.5c2.7-0.5,5.4-1.5,8-2.4c1.1-0.3,2.1-0.9,3-1.2
	c1.2,0.6,1,1.5,0.8,2.3c-1.3,4.8-2.5,9.5-4,14.2c-3.1,9.5-7.1,18.7-10.9,28c-8.4,20.6-18.5,40.3-29.1,59.8c-1.5,2.7-3.3,5.3-5.1,7.9
	c-1.7,2.4-3.3,4.9-4.4,7.6c-5.9,13.6-12.8,26.7-20,39.6c-6.8,12.2-14.4,23.9-22.9,35c-7.3,9.6-15.8,18-25,25.8
	c-16.8,14.4-35.4,25.6-56.1,33.3c-11,4.1-22.3,6.8-34,7.9c-5.2,0.5-10.5,0.4-15.8,0.4c-8.6,0-17.1-0.9-25.5-2.5
	c-2-0.3-3.9-0.6-5.9-0.5c-3.3,0.1-6.6,0-9.8-0.7c-2.2-0.5-4.6-0.6-6.8-1c-2.9-0.5-5.8-1-8.7-1.7c-1.3-0.3-2.5-0.6-3.8,0
	c-1.3,0.6-2.6,0-3.8-0.3c-9.2-2.3-18.5-4.7-27.8-6.8c-13.6-3.2-27-7.1-40.4-10.9c-2.2-0.6-4.4-1.4-6.6-2c-0.9-0.3-1.9-0.6-2.8-0.8
	c-1-0.2-2.1,0.3-2.5,1.1c-0.4,0.8-0.3,2.2,0.3,2.8c0.9,0.8,1.7,1.5,2.8,2c2.2,1,4.5,2,6.8,2.8c2.7,1,5.5,2,8.4,3
	c-0.9,1.1-1.9,0.5-2.7,0.6c-1,0.1-2-0.1-3-0.2c-1-0.1-2-0.3-2.9-0.4c-1-0.2-1.9-0.3-2.9-0.5c-1-0.2-1.9-0.4-2.9-0.5
	c-0.9-0.1-1.9-0.5-2.8,0.2c0,0.8,0.6,1.2,1.2,1.4c2.3,0.8,4.7,1.6,7,2.2c3.7,0.8,7.5,1,11.3,1.1c2.5,0.1,4.9,0.2,7.4,0.4
	c1,0.1,1.9,0.7,2.2,1.7c0.5,1.4,1,2.8,1.3,4.2c1.1,6.1,2.1,12.3,3,18.5c0.2,1.6,0.3,3.3,0.3,4.9c0.2,15.6-2,30.8-6.2,45.8
	c-2.6,9.4-6.6,18.2-11.9,26.4c-4.6,7.1-10.2,13.3-16.7,18.7c-6.5,5.6-13.4,10.6-20.4,15.5c-7.1,5-14.7,8.6-23,11.1
	c-2.4,0.7-4.7,1.5-7.1,2.2c-1.6,0.4-3.2,0.7-4.8,0.9c-5.1,0.5-10.2,0.6-15.2-0.4c-2.6-0.5-5.2-0.8-7.8-1.1c-6.9-0.9-12.8-4-18.3-8
	c-2.1-1.6-3.7-3.7-4.8-6.1c-1-2.2-2-4.5-2.8-6.8c-3-8.4-4.9-17-6.2-25.8c-1.8-12.6-2.6-25.2-2.8-37.8c-0.2-11.5-0.1-23,0.3-34.5
	c0.5-13.3,1.1-26.6,1.9-39.9c0.6-9.2,1.7-18.3,2.4-27.5c0.7-9.8,2.2-19.6,3.5-29.4c0.9-6.8,2.1-13.6,3.2-20.4
	c2.2-13.5,4.5-26.9,6.6-40.4c1.2-7.8,2.7-15.5,4.5-23.2c2.4-10.4,4.5-20.9,5.8-31.5c0.6-5,1.1-10.1,1.3-15.2
	c0.2-3.6,0.6-7.2,1.2-10.8c1.3-7.9,2.6-15.9,3.9-23.8c0.2-1.4,0.3-3,1.6-4.1c0.6,0.1,1.2,0.1,1.9,0.2c3.1,0.8,6.2,0.7,9.2-0.4
	c2.4-0.8,4.8-0.8,7.3-0.5C799.1,351.8,804.6,352,809.9,352.6z M784.3,437.1c-1-1.9-0.8-3.7,0-5.6
	C784.2,433.4,784.2,435.2,784.3,437.1z M666.3,422.2c1,2.1,2,4.1,3.1,6.2c0.6,1.1,1.3,2.3,2.2,3.3c2.9,3.1,6.3,4.6,10.6,3.4
	c1.1-0.3,2.2-0.6,3.3-1c10.6-3.9,21.3-7.7,31.7-12.4c6.6-3,13-6.2,19.6-9.3c5.8-2.7,11.7-5.3,17.5-7.8c0.9-0.4,1.8-0.5,2.8-0.8
	c0.8,1.8,0.3,3.5,0.2,5c-0.2,2.1-0.3,4.2,0,6.4c0.2,1.4,0.1,3,0,4.4c-0.6,5.1-1.2,10.1-1.9,15.2c-0.3,2.3-0.9,4.5-1.4,6.7
	c-1.9,8.5-3.9,17-5.8,25.5c-1.9,8.7-2.9,17.5-3.6,26.3c-0.2,2.9-0.7,5.9-1.3,8.8c-2,9.8-3.5,19.7-4.8,29.7c-1.2,9.3-2.1,18.6-3,27.9
	c-1.6,16.5-2.7,33.1-3,49.7c-0.2,8.7-0.5,17.4-0.8,26.1c0,0.6-0.1,1.3-0.2,1.6c-0.7,0.9-1.4,0.8-2,0.7c-5-0.9-10-1.7-15.1-2.6
	c-8.9-1.6-17.8-2.9-26.8-3.7c-10.8-1-21.6-1.8-32.4-3c-11.5-1.2-23-1.2-34.5-0.9c-8.2,0.2-16.4,1.5-24.4,3.4c-1.1,0.3-2.2,0.8-3.8,0
	c0.3-1.6,0.5-3.1,0.8-4.5c1.1-4.5,1.8-9,2.2-13.6c0.5-5.7,0.9-11.5,1.4-17.2c0.5-5.1,1-10.1,1.5-15.2c0.4-3.8,0.9-7.5,1.2-11.3
	c1.4-14.2,3.2-28.4,5.3-42.5c3.8-25.4,9.4-50.4,17-74.9c2.7-8.6,5.7-17.2,9.5-25.4c3-6.6,6.6-12.9,11.5-18.3
	c3.9-4.5,8.5-8.3,13.4-11.5c1.4-0.9,2.7-1.8,4.6-2c0.2,0.4,0.5,0.8,0.5,1.2c0.1,2.1,0.1,4.3,0.1,6.4
	C661.7,409.2,663.2,415.8,666.3,422.2z M664.4,368.5c-0.8,0.8-1.8,0.6-2.8,0.5c-3.4-0.4-6.8-0.8-10.2-1.2c-2.1-0.3-4.2-0.6-6.3-1
	c-0.2,0-0.3-0.5-0.4-0.7c4.4-2,19.1-7.1,21.6-7.6C666.5,361.1,666,363.7,664.4,368.5z M793.1,332.3c0,1.3,0,2.6-0.2,3.9
	c-0.4,2.5-1.4,4.7-3.4,6.4c-4.8,4-5.4,4.6-12.1,3.8c-2.1-0.3-4.2-0.5-6.4-0.7c-0.8-0.1-1.6,0.2-2.3,0.3c-1.7,2-2,4.4-2.3,6.6
	c-1.9,14-4.5,27.9-7.1,41.8c-0.1,0.6-0.2,1.3-0.4,1.9c-0.3,1.2-1.1,2-2.4,2.2c-2.8,0.4-5.5,1-8.2,1.8c-5.2,1.5-10.3,3.5-15.2,5.7
	c-6.7,3.1-13.4,6.3-20.1,9.3c-5.7,2.5-11.5,4.8-17.3,7.2c-3.8,1.6-7.6,3.2-11.4,4.8c-1.4,0.6-2.7,1.1-4.1,1.6
	c-1.8,0.6-3.2,0-4.5-1.2c-0.5-0.5-0.8-1-1.2-1.6c-2.5-4.6-5-9.3-6.1-14.5c-1.3-6.3-1.8-12.7-1.1-19.1c1.2-11.6,3.6-23,6.4-34.4
	c0.7-2.7,1.3-5.4,2-8.1c0.5-2.1,1.1-4.1,1.8-6.1c3.6-9.5,7.2-19.1,11-28.5c3.5-8.7,7.6-17.1,12.7-25c3.3-5.2,7-10,11.5-14.1
	c0.9-0.9,1.8-1.9,3.4-2.2c0.4,0.2,1,0.5,1.6,0.9c7.5,5.1,15.8,8.1,24.6,9.4c4.7,0.7,9.4,1.4,14.2,1.3c3.1,0,6.2,0,9.3-0.7
	c0.5-0.1,1,0,1.5,0c1.7,1.8,2.1,4.1,2.5,6.3c1.1,6.5,1.4,13.1,0.7,19.6c-0.2,1.8-0.3,3.6-0.4,5.4c0,0.8,0.2,1.6,0.3,2.3
	c1.6,1,3.2,1.1,4.8,1.5c3.2,0.9,6.3,1.8,9.5,2.7c2.1,0.7,3.9,1.8,5.4,3.3C792.2,327.8,793.2,329.8,793.1,332.3z M674.5,317.1
	c1.2-3.4,4.5-6.5,8.5-8c-0.4,2.5-3.7,11.4-6.9,18.1C673.7,323.7,673.4,320.5,674.5,317.1z M702.4,248.8c0-3.4,0-6.9,0-10.3
	c0-0.8,0.2-1.6,0.3-2.3c0.5,0,0.8,0,1.1,0.1c0.1,0,0.3,0.2,0.4,0.3c5.4,7.3,13.2,10.6,21.7,12.5c5.8,1.3,11.5,2.5,17.3,3.8
	c6.7,1.6,13.1,4.1,19.3,7.2c4.9,2.4,9.4,5.4,13.4,9.1c5.5,4.9,9.7,10.7,11.5,17.9c1.6,6,1.4,12,0.3,18.1c-0.3,1.4-1.1,2.3-2.6,2.7
	c-1.3,0.3-2.5,0.8-3.8,1.2c-0.6,0.2-1.2,0.5-1.4,1.3c-0.1,0.4,0.6,0.7,1.6,0.6c0.3,0,0.6-0.1,1-0.2c0.5-0.1,1-0.2,1.5-0.2
	c0.7-0.1,1.3,0,1.8,0.6c0.4,0.6-0.1,2.3-0.8,2.7c-1.9,0.9-3.9,1.5-6.3,0.9c-0.1-1-0.3-2-0.3-2.9c0-3.8,0.1-7.6,0-11.3
	c-0.1-6.8-1.4-13.3-4.1-19.5c-0.2-0.1-0.4-0.2-0.5-0.2c-7.2,0.3-14.4-0.8-21.6-1.4c-4.9-0.4-9.8-1.2-14.6-2.2
	c-1.3-0.3-2.6-0.6-3.8-1c-5.8-2.2-11.7-4.3-17.4-6.7c-2.6-1.1-4.9-2.6-7.4-3.9c-0.4-0.2-0.8-0.6-1.3-0.7c-0.4-0.1-0.9,0.1-1.2,0.4
	c-0.1,0.1,0,0.7,0.1,0.9c1,1.1,2,2.1,3,3.1c-3.4,3.6-6.6,7.1-9.8,10.5c-0.9,0-1.2-0.6-1.5-1.2c-2.3-4.4-3.5-9.2-4.5-14
	c-0.8-4-1.3-8.1-1.9-12.2c-0.3-2.2-0.3-4.5,0-7.1c0.6,0.5,1,0.8,1.3,1.1c0.8,1.2,1.5,2.5,2.4,3.7c1.2,1.8,2.6,3.4,4.5,4.5
	c0.4,0.2,0.9,0.3,1.4,0.3c0.8-0.1,1-0.8,1-1.5C702.5,251.8,702.4,250.3,702.4,248.8z M669.2,81.8c5.6,2.3,10.9,5.1,16,8.2
	c0,0.4,0,0.7-0.1,0.7c-2.8,0.1-5.5,0.2-8.1,0.3c-2.8-2-8.7-7.3-11-10C667.3,80.6,668.2,81.4,669.2,81.8z M522.8,63.1
	c2.3-6.9,6.5-12.5,12-17.1c4.4-3.7,9.7-5.5,15.4-5.8c3-0.1,5.9-0.2,8.9,0c6.4,0.5,12.7,1.1,19.1,2.4c9.2,1.8,18.1,4.7,26.8,8.2
	C620.1,57,634,65.4,647,75.3c15,11.4,28.6,24.2,41.3,38c5.1,5.5,10.1,11.3,14.2,17.6c1.2,1.8,2.2,3.7,3.2,5.5
	c0.2,0.4,0.2,0.9,0.2,1.4c0.1,0.5-0.9,1.4-1.3,1.2c-1.5-0.7-3.1-1.2-4.4-2.1c-2.9-2.1-5.8-4.4-8.5-6.7c-8.1-6.9-16.4-13.7-25.1-19.9
	c-7.3-5.1-15-9.5-23-13.4c-2.1-1-4.3-1.7-6.4-2.5c-0.2-0.1-0.7,0-0.9,0.2c-0.1,0.2-0.1,0.7,0,0.8c3.7,3.7,7.5,7.3,11.3,11
	c1.9,1.8,3.9,3.6,5.7,5.4c4.4,4.5,8.7,9,13,13.5c6.1,6.3,11.4,13.1,16.3,20.4c1.4,2,2.5,4.2,3.7,6.4c0.2,0.3,0,0.9,0,1.6
	c-3-1.5-5.5-3.4-7.8-5.4c-3.6-3.1-7.2-6.2-10.7-9.5c-9.9-9.4-20.5-18-31.6-25.9c-3.6-2.6-7.1-5.4-10.6-8c-0.9-0.7-1.7-1.5-2.9-1.8
	c-0.1,0.4-0.4,0.8-0.3,1c3,4.9,6.2,9.7,10.4,13.7c2.9,2.7,5.5,5.6,8.4,8.4c3,2.8,6.1,5.5,9,8.4c4.8,4.7,9.6,9.4,14.3,14.2
	c2.1,2.1,3.6,4.7,4.8,7.4c0.3,0.8,0.4,1.6-0.5,2.4c-1-0.3-2.1-0.6-3-1.1c-2.9-1.6-5.8-3.2-8.5-5c-4.4-3.1-8.7-6.5-13-9.7
	c-10.4-7.8-20.8-15.5-31.2-23.3c-2.9-2.2-6.3-3.6-9.6-5c-1.8-0.8-3.6-1.5-5.5-2.2c-0.2-0.1-0.7,0.1-0.8,0.3c-0.1,0.2-0.2,0.7,0,0.9
	c0.9,1.4,1.7,2.8,2.8,4.1c3.6,4.3,7.2,8.6,10.9,12.7c5.1,5.6,10.1,11.2,14.7,17.3c2.3,3,4.5,6,6.4,9.3c-0.5,0.2-0.8,0.5-1,0.4
	c-1.6-1.1-3.3-2.1-4.9-3.3c-3.6-2.8-7.1-5.8-10.8-8.7c-11.2-8.9-22.4-17.7-33.7-26.5c-3.6-2.8-7.5-5.4-11.2-8.1
	c-4-2.9-7.9-5.9-11.9-8.8c-2.8-2.1-3.2-2.4-7.1-3.4c-0.2,1.8,1.9,2.2,2.1,3.7c-0.4,1.2-1.3,2.2-2.7,2.7c-0.5-0.2-1.1-0.3-1.7-0.6
	c-6.9-3.8-12.8-8.7-17.3-15.1c-4-5.7-7.2-11.7-9.3-18.4C521.9,68.2,521.9,65.8,522.8,63.1z M550.4,114.4c0.6-0.9,1.2-2,2.1-2.7
	c2.1-1.8,3-4.6,5.4-6c4,2.8,5.8,4.5,7.4,7c-0.2,0.2-0.4,0.6-0.7,0.6c-4.8,0.7-9.4,2.1-14.4,2.3C550.3,115,550.2,114.6,550.4,114.4z
	 M413.4,145.4c0.8-1,1.6-2.1,2.5-3c6.9-7.2,13.7-14.6,21-21.5c9.7-9.2,19.6-18,30.2-26.1C481.4,83.6,496.7,74,513,66.1
	c0.6-0.3,1.2-0.5,1.8-0.7c0.1-0.1,0.3,0,0.5,0c0.9,0.6,1.1,1.6,1.2,2.5c0.4,3.2,1.6,6,2.9,8.8c1,2.1,1.7,4.3,2.8,6.3
	c1.9,3.3,3.8,6.5,5.9,9.6c1.7,2.6,3.6,5.1,5.6,7.5c2.4,3,5.6,5.1,8.9,6.9c1.4,0.8,2.8,1.5,4.5,2.4c-1.6,2.6-3,4.9-4.6,7.6
	c-1.4,0.4-3.1,0.9-4.9,1.3c-22.5,4.7-44.9,9.9-67.2,15.5c-18.2,4.5-36.3,9-54.6,12.9c-1,0.2-1.9,0.6-3,0
	C413.1,146.2,413.1,145.7,413.4,145.4z M370.1,287.4c0.3-15.8,0.7-31.6,1.3-47.3c0.3-8.5,0.4-17.1,0.3-25.6
	c-0.1-6.4-0.4-12.8-0.7-19.2c-0.3-6.1,1.1-11.7,3.9-17.1c0.8-1.6,1.8-3.1,2.9-4.6c2.3-3.2,5-6.1,7.9-8.8c4.9-4.7,10.6-7.6,17.3-8.8
	c10.4-1.8,20.7-3.7,30.9-6.1c14.9-3.5,29.7-7,44.6-10.7c25.8-6.4,51.7-12.8,77.7-18.4c3.5-0.8,7-1.7,10.6-2.5
	c1.4-0.3,2.9-0.7,4.6-0.4c0.6,0.5,1.4,1.1,2.1,1.7c4.5,4.3,9.4,8.2,14.3,12.1c10.7,8.5,21.4,17,32,25.5c4,3.2,8,6.3,12.5,8.7
	c1.3,0.7,2.6,1.4,4,1.9c2.5,0.9,5.1-1.1,5.1-3.7c0-1.5-0.5-2.9-1.1-4.3c-1.6-3.6-3.6-7.1-5.9-10.2c-2.8-3.8-5.8-7.6-8.6-11.4
	c-0.6-0.7-1.3-1.4-1.7-2.3c0.9-0.4,1.3,0.3,1.8,0.6c5.6,4.3,11.2,8.7,16.8,13c4,3.1,8,6.3,12.2,9.2c2.7,1.9,5.6,3.5,8.5,4.9
	c2,1,4.3,1.7,6.5,2.3c3.3,0.8,5.8-1,6.5-4.4c0.2-1.1,0.1-2.3,0-3.4c-0.1-1-0.6-1.9-0.4-3.1c0.5,0.1,1,0,1.3,0.2
	c2.1,1.3,4.1,2.7,6.2,4c1.3,0.7,2.6,1.4,4,1.8c2.5,0.8,5.2-0.8,5.6-3.4c0.2-1.3,0.1-2.6-0.1-3.9c-0.2-1.1-0.8-2.1-1.3-3.2
	c-1.7-3.6-3.7-7-6-10.2c-4.9-6.8-10-13.4-16-19.4c-0.3-0.3-0.6-0.7-1-1.1c0.7-0.8,1.2,0,1.5,0.3c5.9,4.8,11.7,9.6,17.6,14.3
	c2.8,2.3,5.6,4.6,8.5,6.7c1.6,1.2,3.3,2.1,5.1,2.9c2.7,1.1,5.5,1.2,7.8-1c2.5-2.3,2.5-5.2,1.7-8.2c-0.3-0.9-0.7-1.8-1.2-2.7
	c-1.4-2.2-2.7-4.5-4.3-6.6c-3.8-4.9-7.9-9.7-11.8-14.6c-3.8-4.7-7.6-9.4-11.9-14.8c3.1-0.7,5.5-0.6,7.9-0.6c4.1,0,8.2,0.2,12.3,0.2
	c3.9-0.1,7.9-0.3,11.8-0.6c3.5-0.3,6.9,0.1,10.2,1.3c1.7,0.6,3.4,1.1,5.1,1.8c6.2,2.6,12.6,4.7,19,6.8c17.2,5.7,34.1,12.1,50.7,19.1
	c3.5,1.5,6.8,3.3,10.2,5c1.7,0.8,2.9,2,4.1,3.5c3,3.8,5.1,8,5.3,13c0.1,2.1,0.5,4.3,1.1,6.3c1.3,4.8,1.9,9.7,2.5,14.6
	c0.4,3.6,0.5,7.2,0.6,10.8c0.2,8.5,0.7,17.1,1.4,25.6c0.5,6.2,0.8,12.5,1.3,18.7c0.6,7.7,1.2,15.4,1.7,23.1
	c0.3,4.1,0.2,8.2,0.3,12.3c0.1,2.8,0.3,5.6,0.4,8.4c0.3,7.1,0.8,14.1,0.3,21.2c-0.1,1.3-0.3,2.7-0.8,3.8c-1.2,2.9-2.6,5.7-4,8.4
	c-1.5,2.7-3.8,4.5-6.6,5.7c-2.7,1.2-5.4,2.4-8.1,3.5c-0.3,0.1-0.6,0.3-0.9,0.4c-5.2,1.3-10.4,2.9-15.7,3.7c-0.3-0.4-0.6-0.6-0.6-0.9
	c0-1.1,0.5-2,1.4-2.4c0.9-0.4,1.9-0.6,2.8-0.9c1.9-0.6,3.8-1,5.4-2.3c0.2-0.2,0.5-0.7,0.4-0.8c-0.3-0.3-0.7-0.6-1-0.7
	c-0.5-0.1-1,0.1-1.4,0.2c-1.6,0.4-3.2,0.7-4.9,1.2c-0.2-0.6-0.6-1-0.5-1.4c0.8-3.9,0.8-7.8,0.8-11.8c0-7.2-2.3-13.6-6.3-19.4
	c-2.4-3.5-5.3-6.7-8.6-9.5c-7.5-6.4-16.1-10.8-25.3-14c-5.9-2.1-12-3.4-18.1-4.7c-3.5-0.8-7.1-1.3-10.6-2.1
	c-6.2-1.3-11.9-3.9-16.3-8.6c-1.5-1.6-2.8-3.2-3.8-5.1c-0.8-1.6-2.9-1.8-4.2-0.5c-2.3,2.3-3.6,5.1-3.9,8.3c-0.2,1.8-0.2,3.6-0.3,5.4
	c-0.9,0.3-1.1-0.4-1.4-0.9c-0.9-1.8-1.7-3.5-2.6-5.3c-0.4-0.8-1.5-0.8-1.9,0.1c-3.5,6.3-5.5,13-4.2,20.3c0.4,2.3,0.4,4.6,0.8,6.9
	c1.3,7.7,3.4,15.1,7.8,21.7c-0.3,0.9-0.4,1.7-0.8,2.4c-2.1,3.7-4.2,7.4-6.2,11.2c-0.8,1.4-1.8,2.2-3.3,2.7
	c-4.6,1.6-8.4,4.5-11.9,7.8c-5.8,5.5-6.4,13.8-2.7,19.9c0.4,0.7,0.8,1.4,1.4,2c1.6,1.8,1.8,3.6,1,5.9c-1.3,3.9-2.4,7.8-3.6,11.8
	c-0.5,1.6-1.3,2.5-2.9,3c-4.9,1.5-9.7,3.1-14.6,4.6c-7.5,2.3-15.1,4.6-22.7,6.8c-4.4,1.3-8.9,2.2-13.4,3.3c-2.1,0.5-4.1,1.1-6,2.1
	c-1.4,0.7-3.1,1.1-4.7,1.5c-7.8,2.1-15.6,4.2-23.4,6.1c-12.3,3-24.6,6.1-36.7,9.5c-10.9,3.1-21.6,6.7-32.2,10.9
	c-2.8,1.1-5.5,2-8.5,2.3c-3.5,0.4-6.9,0.2-10.3-0.7c-14-3.6-27.9-7.5-41.7-11.7c-14.1-4.3-28.3-8.6-42.8-11.7
	c-5.8-1.2-11.6-2.4-17.4-3.5c-2-0.4-3.8-1-5.4-2.2c-4.5-3.2-8.5-6.9-11.7-11.2c-3.3-4.4-5.2-9.5-5.4-15.1
	c-0.2-5.9-0.2-11.8-0.4-17.7C369.1,312.4,369.9,299.9,370.1,287.4z M502.3,681.7c-0.7-10.2,2.1-19.6,7.3-28.2
	c3.6-5.9,7.2-11.8,10.2-18c0.6-1.3,1.6-2.5,2.5-3.6c1.7-2,3.6-3.9,5.3-5.9c1.2-1.4,2.3-2.8,3.3-4.3c0.7-1,0.8-1.8,0.2-2.2
	c-0.1-0.1-0.3-0.2-0.5-0.2c-0.5,0-1,0-1.5,0.1c-0.8-1.1,0.4-1.7,0.5-2.6c0.2-1-0.4-1.7-1.4-1.4c-0.8,0.2-1.5,0.5-2.2,0.8
	c-0.2-0.3-0.5-0.6-0.5-0.8c1.2-19.2,2.5-38.4,3.7-57.5c0-0.1,0.2-0.2,0.4-0.4c0.4,0.1,0.9,0.1,1.3,0.3c4.5,2.6,9.5,3.7,14.5,4.7
	c3.4,0.7,6.9,0.7,10.2-0.8c0.4-0.2,0.8-0.6,1-1c0.1-0.2,0-0.8-0.2-0.8c-1.1-0.3-2.2-0.7-3.3-0.8c-2.8-0.3-5.6-0.4-8.4-0.6
	c-1.6-0.1-3.1-0.5-5.1-1.6c4.9-0.1,9.2-0.2,13.4-0.3c1.9,0,3.6-0.4,5-1.7c0.5-0.5,0.8-1,0.5-1.9c-1-0.1-2.1-0.3-3.3-0.4
	c-6.1-0.4-12.1-0.6-18.2-1c-4.3-0.3-8.5-0.8-12.7-1.3c-12.6-1.4-25-3.5-37.4-6.4c-32-7.3-60.6-21.7-85.5-43
	c-35.7-30.5-59.9-68.5-72.4-113.9c-2.5-9.2-4.3-18.6-4.7-28.1c-0.2-4.9-0.6-9.8-0.6-14.8c-0.3-20,2.8-39.6,8.1-58.9
	c2.9-10.5,6.5-20.6,11.1-30.6c3.8-8.4,7.8-16.6,12-24.8c1.4-2.7,6.4-10,8.9-13c0.2,0.2,0.6,0.3,0.7,0.5c0,2.5,0.1,4.9,0,7.4
	c-0.3,10.2-0.6,20.4-0.9,30.6c-0.4,12.3-1,24.6-1.3,36.9c-0.4,11.7-0.6,23.3,0.3,35c0.2,2,0.2,3.9,0.2,5.9c0.2,6.4,1,12.8,1.8,19.1
	c0.2,1.5,0.6,2.9,1.6,4.1c2.4,3.1,4.8,6.3,7.3,9.3c5.3,6.3,12.1,9.9,20.1,11.7c15.4,3.5,30.7,7.3,45.8,11.8c8.5,2.5,17,4.9,25.6,7.2
	c5.4,1.4,10.9,2.5,16.3,3.8c3,0.7,6,1.6,9,2.3c1.9,0.5,3.9,0.8,5.8,1.4c3.9,1.2,7.8,0.9,11.7-0.1c3.8-0.9,7.7-1.8,11.4-3
	c21-6.6,42.3-12.1,63.7-17.3c13.1-3.2,26.1-6.7,39-10.6c0.9-0.3,1.9-0.5,2.8-0.8c2.1-0.7,4.2-0.9,6.3-0.7c3.1,0.4,6.2,0.7,9.3,1.1
	c6.2,0.8,12.4,1.6,18.6,2.4c1.4,0.2,2.9,0.5,4.2,0.8c0.6,3.3,0.6,3.3-0.9,11.1c-0.6,0.3-1.2,0.8-2,1.1c-6.2,2-11.5,5.7-16.4,9.8
	c-8.3,6.9-14,15.6-18.5,25.2c-4,8.5-7.2,17.3-10,26.2c-4.3,13.6-8,27.4-11.1,41.4c-2.2,9.8-4,19.6-5.6,29.5
	c-1.4,8.6-2.6,17.2-3.8,25.8c-0.9,6.7-1.5,13.4-2.3,20.1c-0.8,7.7-1.7,15.3-2.5,23c-0.4,4.2-0.8,8.5-1.2,12.8
	c-0.5,5.9-0.8,11.8-1.3,17.7c-0.3,3.4-0.6,6.9-0.9,10.3c-0.1,1-0.4,1.9-0.6,2.9c-5.4,17.7-14.1,33.6-26.4,47.4
	c-4.1,4.6-8.7,8.5-13.7,11.9c-5,3.4-10.3,6.4-15.8,9.1c-4.1,2.1-8.4,2.1-12.5,0.7C508.6,698.7,503.1,691.9,502.3,681.7z M522.4,1244
	c-1.1,0-2.3,0-3.4-0.2c-6-1.3-11.8,0-17.4,1.9c-3.4,1.2-6.7,2.7-9.9,4.3c-8.6,4.5-16.8,9.7-24.3,16c-5.3,4.5-10.8,8.6-16.6,12.4
	c-2.6,1.7-5.1,3.6-7.7,5.4c-4.7,3.4-9.5,6.5-14.5,9.3c-5.5,3.1-11.4,5.1-17.6,6.1c-6.7,1-12.7-0.8-17.9-5.2
	c-6.6-5.6-10.8-12.7-13-21.1c-1.3-5.2-1.3-10.4,0-15.6c3-12.4,9-23.2,17.4-32.8c3.2-3.7,7.2-6.2,11.9-7.6c3.4-1,6.9-1.9,10.7-2.6
	c-1.8,2-3.1,3.6-4.6,5.1c-1.5,1.5-3.3,2.6-5.4,3.4c-2,0.8-3.8,2-5.3,3.5c-6.4,6.6-11.2,14.1-14.4,22.8c-2.2,6-2.2,12.2-1.5,18.5
	c0.1,0.7,0.3,1.3,0.4,1.9c0.2,4.4,2.5,7.8,5.5,10.7c1.6,1.6,3.4,3.1,5,4.7c1.9,1.9,4.2,3.1,6.8,3.8c1.4,0.4,2.9,0.6,4.3,1.2
	c5,2.4,10,1.3,14.9-0.2c1.1-0.3,2.1-0.9,3.1-1.5c1-0.6,1.9-1.3,2.8-1.9c11.6-8,8.5-5.7,17.6-16.3c0.4-0.5,0.8-1,1.3-1.5
	c7.6-7.8,15.8-14.8,25.3-20.3c2.3-1.3,4.5-2.7,6.9-3.8c6.4-3.1,13-5.5,20-6.9c1-0.2,1.9-0.4,2.9-0.6c2.1-0.4,4.2-1.2,6.3-1
	c2.6,0.2,5.1,1.2,7.6,2c0.6,0.2,1.2,0.6,1.6,1.1c0.9,1.3,1.7,2.8,2.2,4.3C523,1243.7,522.7,1244,522.4,1244z M522.9,1224.7
	c-1.5-7.1-0.2-13.7,2.8-20.1c1.5-3.2,3.6-5.9,5.9-8.4c2.5-2.6,5.5-4.1,9.1-4.3c2.9-0.2,5.5,0.4,7.9,2.1c2.9,2,5.2,4.4,6.5,7.8
	c2.1,5.1,3.3,10.3,2.9,15.8c-0.4,9.7-1.8,19.3-5.4,28.4c-0.2,0.6-0.5,1.2-0.7,1.8c-1.2,3.6-4,5.1-7.3,5.8c-2.8,0.6-5.6-0.1-8.2-1.1
	c-0.7-0.3-1.3-0.9-1.8-1.6c-1-1.3-2-2.6-2.8-4c-1.2-1.9-2.4-3.9-3.5-5.9C525.6,1235.9,524,1230.4,522.9,1224.7z M529.9,1264.5
	c-0.7-0.8-1.1-1.7,0.3-2.9c1.4,1.2,2.6,2.3,3.8,3.4c1.1,1,2.3,1.8,3.4,2.8c4.2,3.5,9.1,5.1,14.4,5.5c1.6,0.1,1.6,0.1,3.1,0.9
	c-3.6,1-6.2,1.1-9.4,0c-1.7-0.6-3.4-1.3-5.1-1.9C536.1,1270.8,532.9,1267.8,529.9,1264.5z M539.4,1281.5c-0.2,0.9-0.7,1.8-1.2,3.1
	c-4-2.8-9.2-8.1-12-12.1c-0.3-1.4,0.3-2.5,1-3.6c0.3,0,0.7,0,0.9,0.1c0.5,0.4,1,0.9,1.4,1.4c2.3,2.6,4.9,4.7,8.1,6.1
	c0.9,0.4,1.6,1,2.2,1.3C540.4,1279.4,539.6,1280.4,539.4,1281.5z M533.4,1257c1.3-0.9,2.2,0.3,3.3,0.4c1.3,0.1,2.6,0.5,3.8,0.8
	c1.1,0.2,2.3-0.1,3.7,0.8c0.3,2.2,0.1,4.3-1.3,6.3c-2.4-1-4.1-2.8-6-4.3C535.6,1259.9,534.1,1258.8,533.4,1257z M524.5,1279.4
	c0.3,0.2,0.6,0.3,0.8,0.5c2.1,2,4.3,4,6.3,6.2c2.4,2.6,5.1,4.5,8.4,5.8c1.6,0.7,3.4,1.1,5,3.2c-7.3-0.7-12.5-3.9-17.4-7.9
	c-1.5-1.2-2.8-2.7-4.1-4.2C522.6,1281.8,523,1280.8,524.5,1279.4z M533.8,1297.4c-0.1,1-0.2,2-0.4,3c-0.1,0.6-1,1-1.6,0.8
	c-0.3-0.1-0.7-0.1-0.9-0.2c-3-2-6-4-8.9-6c-1.9-1.3-2.2-3.1-1.3-5.2c0.2-0.6,0.6-1.1,1-1.8C525.7,1291.1,529.5,1294.1,533.8,1297.4z
	 M508.6,1269.7c-5.2,1.7-9.9,4.4-14.1,7.9c-4.4,3.7-8.4,7.8-11.9,12.4c-1.4,1.8-2.8,3.6-4.1,5.5c-8.8,13.1-17.9,26-25.8,39.7
	c-2.6,4.6-5.6,8.9-8.4,13.3c-2.3,3.5-5.1,6.4-8.4,8.9c-2.3,1.8-4.6,3.8-6.9,5.6c-2.6,2-5.3,4-8,5.8c-3,2-6.4,3.4-9.9,4.4
	c-4.6,1.3-9.1,2.7-13.7,4c-0.9,0.3-1.9,0.6-2.8,0.8c-2.9,0.6-5.8,0.6-8.7-0.5c-3.6-1.3-7-2.9-10.1-5c-4.9-3.3-7.8-7.9-9.2-13.5
	c-0.2-1-0.3-2,0.5-2.8c0.7-0.7,2-0.6,3.2,0.1c1.2,0.7,2.1,1.5,2.8,2.7c1.1,1.8,2.3,3.6,3.5,5.4c1.6,2.4,3.8,4.1,6.5,5.1
	c2.8,1,5.6,1.8,8.5,2.7c0.6,0.2,1.3,0.3,1.9,0.3c5.8,0.1,11.5-0.7,16.6-3.8c3.5-2.1,6.8-4.6,10.2-6.9c2.9-2,5.4-4.3,7.6-7
	c2.3-2.8,4.8-5.4,7.6-7.7c3-2.5,5.5-5.6,7.6-9c2.5-4.1,5.2-8,7.8-11.9c3.8-5.6,7.1-11.5,9.4-17.8c0.8-2.2,1.7-4.3,2.7-6.3
	c1-2.1,2.2-4.1,3.4-6c3.3-4.9,7.1-9.4,11.3-13.6c2.4-2.4,5.1-4.6,7.8-6.8c3.4-2.8,6.9-5.6,10.3-8.4c0.8-0.6,1.6-1.2,2.5-1.6
	c3.2-1.4,6.3-2.9,9.6-3.8c3.9-1.1,8-1.7,12-2.5c0.9-0.2,2-0.3,2.8,0.7c-0.2,2.2-0.9,4.3-2,6.1
	C516.4,1267.3,512.5,1268.5,508.6,1269.7z M518.4,1298.9c0.3,0,0.7-0.2,0.9-0.1c2.3,1.5,4.7,3,7,4.6c3.2,2.1,6.8,3.2,10.4,4.4
	c1.1,0.4,2.2,0.6,3.8,1.1c-0.7,0.3-0.9,0.4-1,0.4c-4.4-0.6-8.7-1.4-12.7-3.5c-1.7-0.9-3.5-1.8-5.2-2.7c-1-0.6-1.9-1.3-2.8-2
	C518,1300.5,518,1299.7,518.4,1298.9z M513.3,1318.4c0.9-4.1,1.6-8.3,3.3-12.2c0.1-0.2,0.5-0.3,1-0.5c3.1,1.8,6.4,3.6,9.6,5.5
	c0.1,0.1,0.1,0.3,0.2,0.4c0,0.3,0,0.7-0.1,0.9c-1.7,2-3.3,4-5.1,5.9c-1.4,1.4-3.1,2.4-5,2.9c-0.8,0.2-1.6,0.2-2.4-0.2
	C513.7,1320.6,513,1319.6,513.3,1318.4z M497.4,1389.8c0-1.3,0.3-2.6,0.5-3.9c2.8-13,5.6-26,8.5-38.9c0.3-1.3,0.8-2.5,1.1-3.6
	c0.5-0.1,0.9-0.3,1.2-0.2c0.8,0.2,1.6,0.5,2.3,0.8c5.9,2.4,16.1,7.3,18.6,8.9c0,0.4,0.1,1,0,1.4c-2.3,5.6-4.5,11.3-6.9,16.8
	c-2.1,4.8-4.8,9.3-7.8,13.7c-4.3,6-9.9,10.5-16.2,14.1c-0.2,0.1-0.6,0.1-0.9,0.1c-0.2-0.2-0.5-0.5-0.5-0.7
	C497.3,1395.4,497.3,1392.6,497.4,1389.8z M671.1,1233.2c-0.2,0.4-0.7,0.6-1.1,1c-0.5-0.5-1-0.9-1.4-1.4c-5.1-6.2-10-12.5-15.5-18.4
	c-1.4-1.5-1.3-2.1,0.6-4.1c0.4,0.2,0.9,0.4,1.2,0.7c5.9,5.7,11.2,11.9,15.4,19c0.3,0.6,0.7,1.1,0.9,1.7
	C671.3,1232.2,671.3,1232.8,671.1,1233.2z M667.9,1182c0.6,0.2,1.1,0.3,1.4,0.6c4.2,4.6,8.4,9.2,12.6,13.8c0.9,1,1.5,2.2,1.5,3.6
	c0,1.8,0.2,3.7-0.3,5.4c-2,8-5.2,15.5-9.1,22.8c-0.3,0.6-1.1,0.6-1.6-0.1c-4.4-7.2-9.8-13.5-15.9-19.3c-0.5-0.4-0.8-1-1.3-1.6
	c0.7-2.3,2.1-4.1,3.1-6.1c1.1-2.2,2.3-4.3,3.5-6.5c1.1-2,2.1-4.1,3.1-6.1C666,1186.3,666.9,1184.2,667.9,1182z M634.2,1158.9
	c0-0.6,0.3-1.2,0.5-1.8c1.2-0.6,2.1,0,2.9,0.5c3.6,2.2,7.3,4.4,10.8,6.8c5.2,3.5,9.9,7.6,14.4,11.9c2.4,2.3,2.6,2.9,1.2,6
	c-1,2.3-2.1,4.4-3.2,6.6c-0.3,0.6-0.8,1-1.3,1.5c-2.7-0.8-4.9-2.1-7.1-3.5c-7.1-4.5-12.4-10.6-16.3-18.1
	C634.5,1165.7,634,1162.4,634.2,1158.9z M580.9,1151.9c2-1.4,4.1-2.7,6.2-4.1c3.1-2,6.5-3.1,10.1-3.7c3.2-0.5,6.3,0.2,9.3,0.9
	c8.2,1.9,16,5.1,23.7,8.8c0.1,1.1,0.3,2.3,0.2,3.4c-0.7,7.6,1.6,14.3,6,20.3c1.9,2.6,4,5.2,6.3,7.6c3.4,3.7,7.5,6.4,12.3,8
	c0.6,0.2,1.2,0.5,1.8,0.8c0.1,0.1,0.2,0.2,0.5,0.6c-0.3,0.6-0.5,1.3-0.9,2c-3,4.7-5.9,9.5-9,14.2c-11.2,17-22.7,33.8-34.9,50.2
	c-2.5,3.4-4.9,7-7.4,10.5c-9.6,13.9-19.2,27.9-28.8,41.8c-1.6,2.3-3.2,4.6-4.6,7c-0.8,1.4-1.4,3-2,4.5c-0.1,0.2,0.1,0.7,0.3,0.8
	c0.2,0.1,0.7,0.1,0.9-0.1c1-0.8,2.1-1.6,3-2.5c1.2-1.3,2.3-2.8,3.4-4.2c8.5-11.9,17.1-23.8,25.4-35.8c6.8-9.9,13.6-19.8,20.7-29.4
	c8-10.8,15.5-22.1,23.1-33.2c1-1.5,1.8-3.1,3.2-4.2c0.8-0.2,1.4,0.1,1.8,0.6c1.2,1.3,2.4,2.7,3.6,4.1c4.5,5.4,9,10.9,13.8,16.8
	c-1.6,2.5-3,4.8-4.5,6.9c-6.3,8.8-12.7,17.6-19,26.4c-23.1,32.2-47.8,63.2-72.5,94.1c-6.9,8.6-13.5,17.4-20.2,26.1
	c-5.1,6.7-10.2,13.3-16.1,19.3c-5.2,5.3-10.8,10.1-16.8,14.5c-1.9,1.4-3.8,2.6-5.8,3.7c-2.9,1.6-6.2,2.2-9.5,2.1
	c-2.2-0.1-4.2-0.8-5.8-2.3c-2-1.8-3.7-3.8-4.6-6.3c-0.3-0.7-0.3-1.6-0.5-2.5c0.9-0.4,1.6-0.7,2.3-1c3.8-1.2,7.2-3.3,10.3-5.8
	c3.2-2.6,6.1-5.5,8.8-8.6c9.2-10.6,17.2-22,24.3-34.1c0.6-1,1.1-2,1.6-3.1c0.1-0.2,0-0.7-0.1-0.9c-0.4-0.5-0.9-0.2-1.2,0.1
	c-1.1,1-2.2,2-3.1,3.2c-5.2,6.2-10.3,12.4-15.4,18.6c-3,3.7-5.8,7.5-9,11.1c-3.1,3.6-6.5,7-9.9,10.3c-1.6,1.6-3.4,3.1-5.8,3.9
	c-0.2-0.5-0.6-0.9-0.5-1.3c0.2-1.8,0.6-3.5,0.9-5.4c1-0.6,2-1.2,2.9-1.8c1.7-1,3.4-2,5.1-3c6.1-3.8,11.1-8.7,15.1-14.6
	c3.3-4.8,6.1-9.8,8.3-15.1c2.5-5.7,4.8-11.5,7.2-17.3c1-2.5,0.6-4.1-1.4-5.6c-1.3-1-2.8-1.8-4.3-2.4c-6.4-2.7-12.7-5.3-19.1-7.9
	c-0.4-0.2-0.9-0.4-1.2-0.6c-0.2-3.3,0.6-7.1,2.8-12.6c0.6,0.1,1.2,0.1,1.8,0.3c2.5,0.8,4.9,0.4,7.2-0.7c2.3-1,4.3-2.4,6-4.3
	c1.7-2,3.3-4.1,4.9-6.2c0.5-0.6,0.9-1.3,1.4-2c1.9,0.4,3.7,0.7,5.4,1.1c1.9,0.4,3.6,0.1,5.3-0.7c1.4-0.7,2.2-1.9,2.3-3.5
	c0-1.7-0.5-3.3-2.2-4.1c-1.3-0.6-2.8-0.9-4.2-1.4c-0.9-0.3-1.8-0.7-2.5-1c-0.4-1.7,0.4-2.7,1-4c1.6,0.2,3,0.5,4.5,0.7
	c2.1,0.3,4.3,0.3,6.4-0.1c2-0.4,3.1-2,2.8-4c-0.1-0.9-0.5-1.9-1-2.7c-0.9-1.4-2.2-2.4-3.7-3.2c-0.9-0.5-1.7-0.9-2.6-1.4
	c-0.9-0.5-1.7-0.9-2.6-1.4c-0.2-2.6,1.2-4.5,1.8-6.4c1.5-1.1,2.8-0.6,4.1-0.5c3.3,0.3,6.6,0.1,9.8-0.9c1.5-0.5,2.7-1.3,3.6-2.5
	c1.7-2.3,1-5.4-1.5-6.8c-1.8-1-3.7-1.4-5.7-1.4c-2,0-3.9-0.1-5.9-1.3c0-0.5-0.2-1.1-0.1-1.7c0.3-1.8,0.7-3.5,1-5.2
	c0.2-0.3,0.4-0.7,0.6-0.9c6.2-5,9.3-11.8,11.5-19.1c2.6-8.9,3.7-18,3.3-27.3c-0.1-3-0.8-5.9-1.4-8.7c-0.1-0.6-0.3-1.3-0.4-1.9
	c11.1-3.5,19.3-12.7,21.2-19.8c2.7-10.2,1.9-19.9-4.3-28.7C579.5,1152.8,580.2,1152.4,580.9,1151.9z M1138.1,860.8
	c-1.1,1.5-2.5,2.4-3.9,3.2c-6.4,4.1-12,9.2-17.7,14.1c-1,0.8-1.8,1.9-2.7,2.9c-1.6,1.8-3.3,3.7-4.9,5.5c-0.2,0.2-0.5,0.5-0.7,0.7
	c-4.1,5.8-8.6,11.2-11.8,17.5c-1.1,2.2-1.9,4.6-2.2,7c-0.7,6.3,2,11.2,7.5,13.6c1.6,0.7,3.4,1.2,5.2,1.6c5.9,1.2,11,4.2,16.2,7.1
	c0.4,0.2,0.8,0.5,1.2,0.9c2.3,2.1,4.6,4.2,6.9,6.3c2.1,1.9,3,4.3,3.1,7c0,0.9-0.2,2-0.6,2.8c-1.1,2-2.1,4.1-3.6,5.9
	c-2.5,3-5.2,5.9-8.3,8.3c-3.4,2.6-6.9,5-10.4,7.4c-5.8,4.1-11.6,8-17.7,11.6c-3.4,2-6.5,4.4-9.7,6.7c-2.2,1.6-4.6,2.5-7.2,2.8
	c-3.6,0.5-7.1,1.3-10.8,0.5c-0.4-0.1-0.9-0.3-1.4-0.5c0.2-0.5,0.2-1.1,0.5-1.4c1.1-1,2.2-2,3.3-2.9c6.3-4.9,13-8.9,20.4-11.9
	c4.7-1.9,9.5-3.7,14.2-5.7c3.2-1.3,6.4-2.7,9.4-4.2c5.9-2.9,9.7-7.7,12-13.8c1.4-3.6,1.1-7.1-0.9-10.4c-3.2-5.1-7.5-9.1-13.1-11.5
	c-2.7-1.2-5.7-1.6-8.7-1.7c-2.6,0-5.3,0.1-7.9,0c-2.1,0-4.3-0.1-6.4-0.4c-2.9-0.4-5.3-1.7-7.1-4.1c-1.4-2-2-4.1-1.4-6.5
	c0.6-2.4,1.7-4.6,2.9-6.8c5.1-9.2,11.1-17.8,17.9-25.9c8-9.5,17-17.8,27.2-24.9c2.8-2,5.7-4,8.5-5.9c0.7-0.5,1.3-1,2.7-0.8
	C1138.4,857.4,1138.5,859.2,1138.1,860.8z M1113.4,838.8c-18.2,17.9-36.4,35.6-54.6,53.5c-6.9,6.8-13.5,13.9-20.3,20.9
	c-2.5,2.6-5.1,5.1-7.7,7.6c-21.4,20.4-42.8,40.9-64.2,61.3c-16.7,16-33.4,32.1-51.1,47.1c-12.7,10.7-25.4,21.4-38.8,31.2
	c-8.1,5.9-16.5,11.3-25.3,16.3c-7.5,4.2-15.2,7.8-23.2,10.8c-0.7,0.3-1.4,0.7-2.2,0.3c-2,0.7-4.1,1.2-6.3,1.2
	c-0.1,0.3-0.1,0.6-0.2,0.9c-0.9,0.4-1.6,0.8-2.4,1c-6.8,1.9-13.8,2.9-20.9,3c-10.5,0.1-20.6-2-30.2-6.1
	c-12.5-5.2-23.3-12.8-32.5-22.7c-7.3-7.9-13.4-16.6-18.8-25.8c-0.4-0.7-0.8-1.4-1.1-2.2c-0.2-0.5-0.3-1-0.1-1.5
	c-1.6-1.8-2.9-3.9-3.7-6.2c-0.2-0.3-0.3-0.5-0.5-0.8c-6.7-13-12.4-26.4-17-40.4c-4.6-14.1-8.7-28.2-12.4-42.6
	c-3.5-13.7-6.7-27.4-9.6-41.3c-4.3-20.6-8.2-41.2-11.7-62c-1.7-10.2-3.1-20.5-4.4-30.7c-1.4-11.2-2.5-22.5-3.8-33.8
	c-0.2-1.8-0.6-3.6-1-5.3c-1-4.5-2.2-8.9-3.1-13.4c-0.6-3.1-1.1-6.1-1.4-9.2c-0.9-9.5-2-19-2.3-28.5c-0.1-2.5-0.3-4.9-0.6-7.4
	c-0.1-0.6-0.4-1.2-1.2-1.2c-0.9,4.2-1,8-0.6,23.5c0.2,7.9,1.1,15.7,1.8,23.7c-1-0.4-1.1-1.3-1.3-2c-1.3-4.1-2.6-8.2-4-12.2
	c-0.9-2.5-2-4.9-3.1-7.3c-0.3-0.6-0.7-1.1-1.5-1.1c-0.2,4.2,0,5.2,6.7,27.5c-0.3,1-1.2,1.1-1.9,1.3c-13.4,2.9-26,8.1-38.5,13.7
	c-20.7,9.4-40.4,20.6-59.5,32.9c-13.7,8.8-27.4,17.5-41,26.5c-11.7,7.7-23.1,15.8-34.1,24.4c-9.6,7.5-18.6,15.6-27.1,24.4
	c-9.1,9.4-16.6,20-22.2,31.8c-3,6.2-5.6,12.6-8.1,19c-2.3,5.7-3.5,11.6-4,17.7c-0.3,3.3-0.7,6.5-0.8,9.8
	c-0.5,16.5,2.5,32.4,8.2,47.8c1.1,3.1,2.5,6.1,3.7,9.1c2,5.3,5.2,9.9,8.4,14.4c0.7,1,1.8,1.9,2.8,2.7c3.2,2.5,6.3,5.3,9,8.4
	c10.5,12.1,22.1,23,33.9,33.8c9.9,9.1,20,18,30.8,26.2c2,1.5,4,2.9,6,4.3c6.1,4.4,12.4,8.7,18.4,13.2c12.4,9.3,25.6,17.3,39.6,23.9
	c2.8,1.3,5.8,2.4,8.7,3.5c1.8,0.7,3.1,1.7,4.2,3.3c1.3,1.9,2.4,3.9,3,6.2c1.5,5.7,1.5,11.4-0.1,17c-0.6,2.1-1.5,4-2.8,5.7
	c-3.9,4.8-8.6,8.5-15,10.6c-2-2.8-4-4.9-6.4-6.7c-9.2-7.3-20.2-4.7-26.4,1.7c-2.2,2.3-4.1,4.7-5.7,7.4c-0.6,1-1.2,1.9-1.7,2.7
	c-1.3,0.5-2.2-0.1-3.1-0.5c-5.7-2.9-11.5-5.7-17.1-8.8c-8.7-4.7-17.3-9.4-25.9-14.4c-25.1-14.5-49.5-30-73.2-46.5
	c-6.7-4.7-13.4-9.5-20.1-14.3c-1.7-1.2-3.4-2.6-5-4c-0.9-0.7-1.8-1.6-2.3-2.5c-1-2-2.6-3.4-4.3-4.7c-2.7-2-5-4.2-7.3-6.6
	c-1.5-1.5-3.1-3-4.7-4.3c-5.7-4.7-11.2-9.7-16.5-14.9c-13.4-13-25.6-26.9-35.7-42.6c-8.2-12.8-15.2-26.1-19.8-40.7
	c-0.5-1.7-1.2-3.4-1.4-4.9c0.2-0.5,0.5-0.8,0.8-0.9c-1.1-2-1.9-4.2-2.1-6.6c-1.2-1.3-1.4-2.8-1.6-4.2c-0.7-4.2-1.6-8.4-2-12.7
	c-0.8-10.5-1-21,0.5-31.5c1.1-8.2,2.8-16.2,5.1-24.1c0.2-0.8,0.5-1.6,0.8-2.3c5.2-13.3,10.5-26.6,17.4-39.2c0.9-1.6,1.5-3.3,3.1-4.6
	c0.4,0.1,0.8,0.3,1.2,0.4c0.9-2,2.1-3.8,3.6-5.3c-0.3-0.2-0.6-0.3-0.9-0.5c-0.6-1-0.2-1.6,0.1-2.2c0.4-0.7,0.8-1.4,1.3-2.1
	c5.1-7.2,10.2-14.5,15.9-21.4c11.6-14,24.6-26.5,38.3-38.3c12.6-10.8,26-20.6,39.7-30c18.7-12.9,38.1-24.7,57.5-36.4
	c8.4-5.1,16.9-10.1,25.4-15.2c1.6-0.9,3.2-1.7,4.8-2.6c2.7-1.5,5.4-3,8.2-4.5c2.3-1.2,4.7-2.3,6.8-3.3c4,1.2,7.6,2.2,11.2,3.4
	c2.3,0.7,4.5,0.8,6.8,0.4c1.9-0.4,3.9-0.8,5.8-1.3c1.9-0.4,3.7-1.2,5.4-2.4c1.5-1,3-2,4.6-2.8c13.1-6.6,23.5-16.2,31.9-28
	c4.3-6,7.9-12.5,11.5-19c2.7-4.9,4.8-10.1,5.9-15.6c0.1-0.8,0.6-1.5,0.9-2.4c3.6-1.2,7.4-1.8,11.1-2.2c4.7-0.6,9.5-1,14.2-1.1
	c8.1-0.2,16.1-0.1,24.2,0c2,0,3.9,0.3,5.9,0.5c0.6,0.1,1.2,0.4,1.6,0.5c0.7,1.2,0.3,2.2,0.2,3.1c-0.5,4-0.4,7.9,0.6,11.8
	c0.2,0.9,0.7,1.8,1.2,2.7c0.4,0.6,1,0.8,1.8,0.4c0.9-1.6,0.4-3.4,0.3-5.2c0-3.3-0.1-6.6-0.1-9.8c0-0.8,0.3-1.6,0.3-2.1
	c1.3-1.1,2.4-0.8,3.5-0.7c10.5,1,21,1.8,31.4,3c8.2,0.9,16.3,2.3,24.4,3.4c5.5,0.7,11.1,1.3,16.6,2c1,0.1,2,0,2.7,0.7
	c0.7,0.9,0.6,1.9,0.6,2.9c0.1,3.6,0,7.2,0.2,10.8c0.5,13,1.5,25.9,3.7,38.7c1.5,8.8,4,17.3,7.1,25.6c2.8,7.4,7.7,12.9,14.9,16.3
	c6.6,3.2,13.3,5.4,20.6,6.2c5.4,0.6,10.8,0.7,16.2,0.7c1.3,0,2.6-0.3,4.1,0.5c0.1,0.4,0.4,1,0.5,1.6c0.2,1.3,0.4,2.6,0.5,3.9
	c0.4,6.2,0.8,12.5,1.3,18.7c0.5,6.1,1.1,12.1,1.5,18.2c0.5,7.4,1,14.8,1.3,22.1c0.8,20.7,1.2,41.4,1.5,62.1
	c0.1,8.7,0.4,17.4,0.5,26.1c0.1,7.3,1.3,14.4,3.6,21.3c0.8,2.3,1.6,4.7,2.5,6.9c1.6,3.8,3.7,7.3,6.9,10.1c3.9,3.5,7.7,7.2,11.6,10.7
	c6.6,5.8,14.3,7.8,22.9,6.5c7-1.1,13.8-3,20.4-5.6c0.9-0.4,1.8-0.7,2.7-1.2c5.8-3.4,11.6-6.8,17.4-10.3c1.7-1,3.3-2.2,4.9-3.3
	c18.5-12,36-25.3,53.9-38.3c2.4-1.7,4.7-3.6,6.9-5.6c7.4-6.8,15.2-13.1,23-19.3c17.6-14.1,34.8-28.6,51.5-43.7
	c0.9-0.8,1.7-1.5,2.6-2.3c0.9-0.8,1.8-1.4,3-1.7c0.6-0.1,1.2-0.5,1.7-0.9c5.5-4.4,11-8.9,16.5-13.2c12.7-9.9,25.2-20,37.1-30.9
	c6.9-6.3,14.2-12.2,21.3-18.4c1-0.9,2-1.7,3-2.6c4.3-4.1,9-7.7,13.9-11c2.2-1.5,4.3-3.1,6.3-4.7c1.1-0.9,2.4-1.2,3.7-0.8
	c7.1,2.1,14.3,3.9,20.4,8.4c2.9,2.1,5.7,4.5,8.2,7c3.6,3.6,5.6,8.1,6.1,13.1c0.2,1.4-0.1,2.6-1,3.7c-1.3,1.5-2.6,3-3.9,4.5
	c-4.7,5.5-9.4,11-14.2,16.4c-1.1,1.2-2.2,2.5-3.3,3.6C1141.4,811.1,1127.4,825,1113.4,838.8z M1183.2,827.3
	c-0.1,0.2-0.4,0.5-0.7,0.6c-2.1,0.2-4.2-0.1-6.3-0.6c-2.9-0.7-5.7-1.3-8.7-1.8c-4.8-0.8-9.5,0-13.8,2.3c-2,1-3.9,2.3-5.9,3.5
	c-0.5,0.3-1.2,0.5-1.8,0.6c-0.3,0-0.7-0.2-0.8-0.4c-0.2-0.4-0.4-1-0.2-1.3c1.6-2.3,3.7-4.2,6.1-5.6c3.4-2,7-3.6,10.8-4.6
	c1.9-0.5,3.9-0.6,5.4-0.8c6.6,0.4,11.9,2.6,16,7.3C1183.3,826.6,1183.3,827.1,1183.2,827.3z M1185.3,841c1.2,0.9,2.4,1.8,2.9,3.4
	c-0.3,0.5-0.5,1.2-1,1.5c-0.7,0.4-1.6,0.5-2.3,0.4c-1.1-0.2-2.2-0.6-3.2-1.1c-3.7-2-7.7-2.7-11.7-3.3c-3-0.5-5.8,0-8.6,1.3
	c-2.8,1.3-5.4,3.1-7.8,5c-0.9,0.7-1.8,1.5-2.8,2c-0.5,0.2-1.4,0.2-1.8-0.1c-0.4-0.3-0.7-1.1-0.7-1.7c0-0.6,0.2-1.3,0.5-1.9
	c0.3-0.6,0.7-1.1,1.2-1.5c3.5-3.2,7.5-5.8,11.9-7.6c0.5-0.2,0.9-0.3,1.4-0.4C1170,835,1179.9,836.8,1185.3,841z M1156.1,815.9
	c2.1-2.9,5.2-3.4,12.1-2c-2.1,0.3-4.2,0.6-6.3,0.7C1160,814.8,1158.3,816,1156.1,815.9z M1166.9,808.5c-5.1-0.8-9.8,0-14,3.2
	c-2.2,1.7-4.8,2.8-7.4,3.9c1.4-2.5,3.5-4.3,5.4-6.4c0.8-0.8,1.6-1.7,2.4-2.4c0.6-0.5,1.4-0.9,2.1-1.2c4.4-1.9,9-3.2,13.7-3.6
	c6.1-0.5,11.2,1.6,14.8,6.9c0.5,0.7,0.6,1.5,0.1,2.3c-0.6,0.9-1.4,1.5-2.5,1.3c-1.6-0.3-3.2-0.8-4.7-1.4
	C1173.7,809.9,1170.4,809,1166.9,808.5z M1141.7,825.1c-0.3-1.3-0.6-2.3-0.8-3.4c-0.2-0.9,0.6-1.4,1.5-1.1s1.8,0.7,3.2,1.2
	C1144.4,823.2,1143.5,824.4,1141.7,825.1z M1144.8,843.6c-0.3-1.3-0.5-2.5-0.7-3.6c0.3-0.5,0.4-0.8,0.7-1c1.2-0.9,2.3-1.8,3.5-2.7
	c2.5-1.9,5.2-3.4,8-4.7c3.5-1.6,7.2-1.9,11-1.2c-9.2,1.5-16.3,6.3-22,13.3C1145,843.7,1144.8,843.7,1144.8,843.6z M1237.4,901.8
	c-1.9,11.3-4,22.6-7.4,33.7c-3.1,10.1-7.4,19.7-13.3,28.5c-3.3,5-7.4,9.2-12.1,12.9c-5.5,4.3-11.7,4.9-18.2,3.2
	c-3.6-0.9-6.6-2.9-9.4-5.3c-3-2.6-5.6-5.6-7.8-8.8c-3.8-5.6-6.6-11.7-8.9-18.1c-2.6-7-4.3-14.1-5.8-21.4c-2.2-10.9-4.3-21.9-5.7-33
	c-0.6-4.6-1-9.1-1.4-13.7c-0.6-6.4-1.1-12.8-1.6-19.2c-0.1-1.5-0.1-2.9-0.2-4.2c0.5-0.9,1.2-0.9,1.8-0.7c2.6,0.6,4.8-0.4,6.9-1.9
	c0.9-0.7,1.8-1.5,2.7-2.2c1.8-1.4,3.7-2.7,5.8-3.8c1.8-0.9,3.7-1.3,5.7-1.2c4,0.2,7.8,0.9,11.4,2.7c2.2,1.2,4.6,1.8,7.1,1.6
	c1.7-0.1,3.1-0.9,4.2-2.2c2.6-3.3,2.6-5.5,0.1-8.9c-1.3-1.7-3-3-4.8-4.2c-0.9-0.6-2.2-0.8-2.7-2.1c0.9-1,2.4-0.9,3.4-1.6
	c1.4-0.8,2.1-2.1,2-3.7c-0.2-2.2-1.1-4.1-2.8-5.6c-1.7-1.5-3.6-2.9-5.4-4.3c-0.6-0.5-1.3-0.9-2.5-1.7c1.8,0.1,2.9,0.2,4,0.2
	c1.9,0,3.5-0.8,4.8-2.2c2.3-2.5,2.8-4.7,1.3-7.6c-0.7-1.3-1.5-2.6-2.5-3.6c-3.6-3.6-7.9-5.9-13-6.3c-3.3-0.3-6.5-0.1-9.8,0.8
	c0.2-0.7,0.1-1.1,0.3-1.3c3.6-4.2,7.2-8.5,11-12.7c2.5-2.8,5.2-5.5,7.9-8.1c1.9-1.8,2.4-3.7,2.1-6.2c-0.7-4.9-2-9.6-4.9-13.8
	c-3.2-4.6-12.6-12.3-17.7-14.6c-5.4-2.4-11.1-4-16.9-5.3c-0.5-0.1-0.9-0.3-1.5-0.4c-0.1-0.4-0.3-0.9-0.3-1.3c-0.1-0.6-0.5-1-0.9-0.8
	c-1.4,0.5-2.6,1.2-4,1.9c-0.2-0.3-0.5-0.6-0.4-0.8c1.3-2.9,3.1-5.4,5.1-7.8c0.2-0.2,0.6-0.3,1-0.6c0.6,0.3,1.4,0.5,2.1,0.9
	c4,2.2,8.4,3,12.8,2.9c8.1-0.1,16-1.5,23.2-5.7c3.4-2,6.8-4,10.1-6.2c3.7-2.5,6.9-5.6,8.8-9.8c0.1-0.3,0.5-0.4,1.1-1
	c3.8,2.1,6.9,4.7,9.6,7.8c4.9,5.6,8.4,12.2,11.1,19.1c2.7,6.7,4.5,13.7,5.9,20.8c1.9,9.5,3.5,19.1,4.5,28.7c0.2,1.6,0.4,3.3,0.4,4.9
	c0.4,13.5,1.1,26.9,1.2,40.4c0.1,12.3,0.6,24.6,0.9,37c0,1.5,0,2.9,0,4.5c-0.9,0.6-1.6,1.3-2.5,1.8c-3.2,1.6-6.4,3.4-9.8,4.7
	c-6.8,2.6-13.3,1.4-19.2-2.6c-3.4-2.3-6.4-5.2-9.5-7.8c-0.3-0.2-0.4-0.5-0.7-0.7c-3.6-2.9-6.5-6.4-8.2-10.9
	c-0.7-1.8-2.3-2.7-4.3-2.8c-3-0.1-4.9,0.2-7.6,1.4c-0.9,1.5-0.5,3.2-0.5,4.8c0.2,4.5,1.4,8.7,3.9,12.5c5.1,7.7,11.9,13.5,19.8,18.2
	c3.5,2,7.3,2.8,11.3,3c4.6,0.2,9.2-0.5,13.7-1.3c3.7-0.6,7.4-1.6,11.1-2.3c0.9-0.2,1.9-0.1,2.8-0.1c0.2,0.7,0.5,1.1,0.5,1.6
	c0.3,2.9,0.5,5.9,0.7,8.8C1237.6,899.9,1237.6,900.9,1237.4,901.8z M1308.5,888.5c-1.6,8.6-4.4,16.8-7.6,24.9
	c-1.5,3.8-3.7,7.3-6,10.7c-0.1,0.2-0.5,0.2-0.8,0.3c-0.2-0.2-0.5-0.4-0.6-0.7c-0.4-3.4-0.2-6.9,0.4-10.3c0.5-2.8,1.4-5.4,2.7-7.9
	c0.6-1.2,1.3-2.3,1.9-3.5c3.6-6.8,5.2-14.1,5-21.8c-0.1-2.5-0.5-4.9-1.1-7.3c-1.4-5.2-6.2-10.6-13.6-10.9c-8.4-0.4-16.4,1-24.1,3.9
	c-2.3,0.9-4.5,2.1-6.6,3.4c-2.3,1.3-4.4,2.8-6.5,4.4c-7.5,5.6-15.8,9.3-25,10.9c-3.6,0.6-7.1,1.4-10.7,1.9c-2.4,0.3-4.9,0.3-7.4,0.4
	c-3.2,0.1-6.2-0.7-9-2.3c-7.3-4.3-13.7-9.6-18.4-16.8c-1.9-3-3-6.2-3.2-9.7c0-0.6,0.2-1.2,0.3-1.8c1.5-0.3,2.4,0.3,3.1,1.4
	c0.3,0.6,0.4,1.2,0.7,1.8c1.6,3.1,3.5,5.9,6.1,8.3c3.4,3.1,6.9,6,10.3,9.1c4.7,4.2,10.5,6,16.5,7.2c0.8,0.2,1.7,0.2,2.5,0
	c3.7-0.7,7.4-1.3,10.9-2.9c4.4-2,8.4-4.4,12.1-7.5c1.5-1.2,3.1-2.4,4.9-3.3c3.6-2,6.9-4.4,10.1-7c4.9-3.9,10.5-6.8,15.9-9.8
	c1.7-1,3.6-1.5,5.5-2.2c1.9-0.7,3.8-0.9,5.8-0.1c0.6,0.2,1.3,0.4,1.9,0.4c4.1-0.3,7.2,2,10.3,4.1c1.8,1.2,3.4,2.6,5,4
	c1.1,1,2,2.2,2.9,3.4c1.5,2.1,2.9,4.4,4.4,6.5c0.9,1.2,1.4,2.6,1.8,4C1310.4,878.8,1309.4,883.7,1308.5,888.5z"/>
<path id="XMLID_955_" d="M784.8,438c-0.1-0.1-0.2-0.1-0.3-0.2c0-0.1-0.1-0.2-0.1-0.2C784.5,437.7,784.6,437.8,784.8,438z"/>
<path id="XMLID_954_" d="M365.4,951.5c0.1,0,0.3,0,0.3,0c0,0.1,0,0.4,0,0.4C365.3,952.1,365.2,951.9,365.4,951.5z"/>
<path id="XMLID_953_" d="M831.3,381.9c-0.5,0-1,0.1-1.4,0c-2.5-0.7-5.1-1.3-7.5-2.3c-13.3-5.1-26.6-10.4-39.1-17.2
	c-0.9-0.5-1.7-1-2.5-1.6c-0.2-0.1-0.1-0.5-0.1-1c0.5,0,1,0,1.4,0.1c2.9,1.1,5.9,2.1,8.7,3.3c8.9,3.8,17.8,7.6,26.7,11.5
	c4.1,1.8,8.1,3.5,12.2,5.4c0.7,0.3,1.4,0.8,2,1.2C831.5,381.5,831.4,381.7,831.3,381.9z"/>
<path id="XMLID_952_" d="M522.7,386.3c0.1,1-0.6,1.2-1.1,1.4c-1.7,0.7-3.6,0.6-5.4,0.4c-5.1-0.8-9.2-3-12.4-7.2
	c-3.6-4.6-5-9.9-5.6-15.5c-0.5-5.1-0.8-10.2-1.3-15.2c-1-9.3-1.7-18.7-1.8-28c-0.2-19.6-0.4-39.1-0.7-58.7
	c-0.1-8.1-0.2-16.1-0.9-24.1c-0.4-5.4-0.4-10.8-0.5-16.3c0-1.9-0.7-3-2.5-3.7c-23.3-9.8-46.6-19.8-70.1-29.2
	c-9.5-3.8-18.8-7.8-28.2-11.8c-1.8-0.8-3.5-1.9-5.1-2.9c-0.2-0.1-0.2-0.5-0.3-0.8c3,0.2,5.8,0.9,8.6,2c17.6,6.9,35.3,13.5,52.8,20.5
	c14.2,5.7,28.2,11.7,42.3,17.6c0.5,0.2,0.9,0.4,1.3,0.6c1.7,0.9,3.3,0.9,5.2,0.4c6.2-1.7,12.4-3.3,18.6-4.8
	c31.2-7.3,62.2-15.5,93.2-23.6c24.5-6.4,48.9-12.9,73.4-19.2c16.4-4.2,32.8-8.5,49.2-12.4c13.4-3.1,27-5.9,40.6-8c0.6-0.1,1.3,0,2,0
	c-0.4,1.3-1.4,1.4-2.2,1.7c-4,1.1-7.9,2.2-11.9,3.2c-20.9,5.3-41.8,10.4-62.6,15.7c-11.9,3-23.8,6.3-35.7,9.4
	c-31.5,8.2-62.9,16.5-94.4,24.6c-19.9,5.1-39.8,10.2-59.9,14.5c-2.9,0.6-5.7,1.4-8.6,2.2c-1.7,0.5-2.4,1.5-2.3,3.3
	c0.1,2.1,0.2,4.3,0.4,6.4c0.2,3.3,0.5,6.6,0.8,9.8c1.4,16.9,0.9,33.8,1.1,50.8c0.2,15.3,0.5,30.6,0.9,45.9
	c0.2,5.9,0.9,11.8,1.4,17.7c0.4,5.2,1.1,10.5,1.1,15.7c0.1,4.5,2.2,7.8,4.8,11.1c2.3,3,5.6,4.5,9.2,5.3c1.8,0.4,3.6,0.6,5.3,1
	C521.9,385.9,522.3,386.1,522.7,386.3z"/>
<path id="XMLID_951_" d="M527.3,385.5c0.1-0.8,0.6-1.2,1.2-1.4c7.7-2.4,15.3-5.1,23.1-7c17.1-4,33.9-9.2,50.7-14.1
	c5.2-1.5,10.3-3.5,15.4-5.3c11-3.9,22.2-6.9,33.5-9.8c0.9-0.2,1.9-0.7,2.8,0.1c-0.2,0.9-0.9,1.4-1.7,1.7c-2.4,1-4.8,2-7.3,2.9
	c-3.1,1.1-6.2,2-9.4,2.9c-6.7,1.8-13.2,3.9-19.7,6.3c-7.6,2.8-15.2,5.2-23,7.2c-9.3,2.5-18.6,5.2-28,7.7c-4.4,1.2-8.9,2.1-13.4,3.3
	c-6.2,1.6-12.4,3.3-18.6,4.9c-1.4,0.4-2.9,0.7-4.3,1C528.3,385.8,527.8,385.6,527.3,385.5z"/>
<path id="XMLID_943_" d="M543.8,477c0,5,0.8,9.5,2.7,13.8c1.4,3.3,3.1,6.5,4.8,9.7c0.4,0.9,1.1,1.7,1.8,2.3c3,2.6,6,5.1,9,7.6
	c1.8,1.5,3.6,2.8,5.3,4.4c1.5,1.3,2.6,2.9,3.4,4.8c0.5,1.3,0.5,2.6-0.4,3.7c-0.9,1.1-2.1,1.5-3.5,1.4c-0.6-0.1-1.3-0.2-1.9-0.5
	c-1.6-0.8-3.2-1.6-4.7-2.6c-2.6-1.8-5.1-3.6-7.6-5.5c-1.7-1.3-3.4-2.6-5.1-3.8c-1.3-1-2.7-1.6-4.5-1.8c-10.2-1.4-17.5-6.8-22-16.1
	c-4.1-8.4-4.4-17-1.9-25.9c1.4-5.1,3.7-9.8,6.6-14.3c4.6-7.2,10.3-13.6,16.6-19.4c8.6-8,18.2-14.5,28.9-19.4
	c8.5-3.9,17.1-7.7,26.2-10c1.8-0.4,3.5-1,5.3-1.3c3-0.4,5.7-1.3,8.2-3.1c1.5-1.1,3.3-1.2,5.2-0.7c2.1,0.6,4.1,1.3,5.8,2.6
	c3.4,2.7,4.5,6.5,3.1,10.6c-2,5.4-6,8.5-11.3,10c-1.5,0.4-3,0.2-4.4-0.3c-3.3-1.1-6.4-0.4-9.5,0.9c-10,4.2-19.8,8.7-29.3,14
	c-8.8,4.9-15.9,11.5-21.1,20.2C545.8,464,544,470.4,543.8,477z M540.2,494.4c-0.5-1.4-0.9-2.6-1.3-3.9c-1.4-4.7-2.2-9.6-2-14.6
	c0.4-9.1,3.4-17.4,8.6-24.8c5.6-7.9,12.6-14.3,21.1-18.9c8.9-4.9,18.2-9,27.8-12.6c5.5-2,11-4.3,17.1-4.5c1,0,1.8-0.9,2-1.9
	c0.1-0.6,0.2-1.3,0.1-2c-0.1-2.5-1.5-3.5-3.9-3.1c-4.8,0.9-9.6,2.3-14.2,4c-8.3,3.1-16.3,6.9-24.2,11c-8.8,4.5-16.8,10.2-24,17
	c-5.4,5.1-10.3,10.5-14.4,16.8c-2.6,4-4.8,8.2-6.2,12.8c-2.4,7.9-2,15.6,2.1,22.9c3.3,5.9,4.2,6.8,11.1,2.5
	C539.8,495,539.9,494.9,540.2,494.4z M616.7,405.5c1.5,2.5,2.4,5,2.1,7.8c1,0.2,1.3-0.5,1.5-1.1c0.5-1.2,0.8-2.5,0.3-3.8
	C620,406.9,618.8,405.9,616.7,405.5z M554.9,511.8c0.2-0.2,0.4-0.3,0.6-0.5c-1.1-1.2-2.1-2.3-3.3-3.5c-0.3-0.3-0.8-0.3-1.2-0.3
	c-0.4,0-0.1,1.1,0.5,1.6C552.6,510,553.7,510.9,554.9,511.8z M544,502.1c-0.6,0.4-1.1,0.8-1.5,1.2c-0.3,0.3,0,1,0.5,1.1
	c0.5,0,1,0.1,1.4,0c0.5-0.1,0.9-0.5,0.6-1C544.8,502.9,544.4,502.6,544,502.1z M539.7,500.1c-0.9-0.6-1.4,0.3-2.1,0.5
	c-0.2,0.1-0.3,0.5-0.4,0.7c0.3,0.1,0.6,0.3,0.8,0.2C538.7,501.3,539.4,501,539.7,500.1z M559.4,514.7l-0.3,0.1l0.3,0.1L559.4,514.7z
	"/>
<path id="XMLID_942_" d="M1192.4,254.6c1.6-0.4,3-0.8,4.4-1.1c1.3-0.3,2.6-0.6,3.9-0.7c0.6-0.1,1.3,0.2,1.8,0.5
	c0.2,0.1,0.5,0.5,0.5,0.8c0,0.3-0.2,0.7-0.4,0.8c-0.8,0.3-1.6,0.4-2.4,0.6c-1.1,0.3-2.3,0.5-3.4,0.8c-4.4,1.3-5.2,2.1-5.6,6.8
	c-0.4,4.6-1.1,9.1-2.4,13.5c-0.8,2.8-1.8,5.6-3.5,8.1c-0.3,0.5-1,0.8-1.5,1.2c-0.1,0.1-0.3,0.1-0.5,0c-0.1-0.1-0.3-0.3-0.3-0.4
	c0.1-0.6,0.1-1.3,0.3-1.9c0.8-2.7,1.7-5.3,2.5-8c1.5-5.2,2.2-10.6,2.5-16c0.2-2.9,0.2-5.9,0.3-8.9c0.1-4.3-0.2-8.5-1.8-12.6
	c-0.1-0.3-0.3-0.7-0.2-0.9c0.1-0.4,0.3-1.1,0.6-1.1c0.4-0.1,1,0.2,1.2,0.5c0.5,0.6,0.9,1.4,1.2,2.1c1.2,3.1,1.9,6.3,2,9.6
	c0,1.5,0,3,0.1,4.4C1192,253.2,1192.2,253.8,1192.4,254.6z"/>
<path id="XMLID_939_" d="M1157,915.8c5.4-5.2,11.6-7.5,18.3-9.1c6.4-1.5,12.9-2.3,19.5-2.2c4.8,0,9.5,0.1,14.3,0.2
	c3.1,0.1,6.2,0.7,9.1,1.8c1.4,0.5,2.1,1.4,2.2,2.9c0.4,3.1,0.8,6.2,1.4,9.3c0.6,3.4,0.8,6.8,0.6,10.3c-0.1,2.3-0.3,4.6,0.3,6.9
	c0.1,0.5,0.1,1,0.1,1.5c-0.9,10.6-4.7,20.1-11.6,28.2c-1.3,1.5-2.7,2.9-4.2,4.2c-5.5,4.9-12.1,6.5-19.3,5.4
	c-3.5-0.5-6.6-2.1-9.2-4.5c-2.2-2-4.2-4.2-6-6.5c-5.1-6.4-8.7-13.6-10.7-21.4c-1.7-6.7-3.2-13.4-4.7-20.1
	C1156.7,920.4,1156.5,918.1,1157,915.8z M1215.8,911.6c-3.2-0.7-6.3-1.4-9.6-1.5c-4.1-0.1-8.2-0.2-12.3-0.4
	c-7.4-0.3-14.7,0.9-21.9,2.6c-3.3,0.8-6.7,1.8-9.6,3.7c-0.8,0.5-1.1,1.2-1,2.1c0,0.3,0.1,0.7,0.2,1c1.9,6.8,3.8,13.6,5.7,20.4
	c1.7,6.2,4.3,12,8,17.4c2.1,3.1,4.5,6,7.4,8.5c3.7,3.2,8,4.2,12.9,3c2.6-0.7,4.9-1.9,6.9-3.6c2.5-2.1,4.7-4.6,6.5-7.4
	c4.8-7.3,7.6-15.2,7.7-24c0.1-3.9,0.1-7.9,0.5-11.8C1217.4,918.3,1216.8,915,1215.8,911.6z"/>
<path id="XMLID_938_" d="M785,332.3c0.2,0.2,0.2,0.4,0.3,0.5c1.4,1.8,1.1,2.4-1,2.8c-0.8,0.1-1.6,0.2-2.5,0.3c-0.5,0.7-1,1.4-1.4,2
	c-0.7,1-1.5,1.3-1.9,0.9c-0.6-0.5-0.5-1.2-0.3-1.8c1.2-3.4,3.2-6,6.4-7.7c0.1-0.1,0.3-0.1,0.5-0.1c0.3,0,0.7,0.1,0.9,0.3
	c0.2,0.2,0.3,0.6,0.3,0.8C785.8,331,785.4,331.6,785,332.3z"/>
</svg>
