<?xml version="1.0" encoding="utf-8"?>
<!-- Generator: Adobe Illustrator 22.1.0, SVG Export Plug-In . SVG Version: 6.00 Build 0)  -->
<svg version="1.1" id="Layer_6" xmlns="http://www.w3.org/2000/svg" xmlns:xlink="http://www.w3.org/1999/xlink" x="0px" y="0px"
	 viewBox="0 0 1527.1 1502.4" style="enable-background:new 0 0 1527.1 1502.4;" xml:space="preserve">
<style type="text/css">
	.st0{fill:#FFFFFF;}
	.st1{fill:#E84B6C;}
	.st2{fill:none;stroke:#FFFFFF;stroke-width:9;stroke-miterlimit:10;}
</style>
<polygon id="XMLID_3155_" class="st0" points="665.7,627.8 588,465.6 521.4,366.1 442,283.9 421.5,271.2 354.4,326.8 347.1,336.3 
	347.1,329.4 380.5,271.2 320.8,319.2 315.8,313.7 371.4,244.3 309.2,283.9 301.8,283.9 315.8,260.6 336.5,240.7 290.2,260.6 
	278.6,260.6 287.5,241.7 371.3,195.9 296,190.8 288.7,185.4 319.1,172.4 363.8,168.6 405.9,178.5 458.9,217.6 529.6,273.2 
	601.4,378.9 639.9,441.1 682.7,504.5 718.1,537.3 725.3,518.5 726.9,485.7 751.9,433.1 785.6,405.1 832.2,417.9 848.9,448.4 
	840.4,490.9 805.5,507.6 798.7,541.1 827.5,558.1 921,548.7 981.6,534.2 1056.8,497.6 1106.5,438 1141.4,378.9 1173.5,298.8 
	1178.8,212.4 1184.9,172.4 1206.5,130.4 1233.7,108.6 1274.9,93.9 1315,101.3 1341,117.1 1323.2,126.4 1332.8,139.4 1325.4,153.8 
	1323.2,164.1 1327.5,172.4 1326.7,185.4 1322.7,202.7 1327.5,206.8 1323.2,217.6 1299.2,236.1 1267.5,242.2 1254,236.1 
	1235.3,236.1 1239.7,287.7 1230.6,347.9 1216.5,391.9 1175.2,465.6 1137.1,514.8 1055.2,573.7 991.6,608.9 898.9,638.7 867.4,638.7 
	855.4,678.7 745.3,642.9 693,644.6 "/>
<polygon id="XMLID_3154_" class="st0" points="1061.8,1037.8 1073,1009.6 1094.1,984 1121.3,984 1127.9,1009.6 1156.6,1160.2 
	1161.1,1192 1149.8,1200.7 1127.9,1172.6 1099.9,1120.5 1078.1,1075 1051.1,1054.4 "/>
<polyline id="XMLID_3157_" class="st0" points="525.4,1258.3 555.6,1274.5 577.8,1286.8 610.3,1302.3 633.5,1319 647.5,1336.6 
	638.4,1353.6 601.2,1386 531.7,1429.9 476.6,1467.3 458.5,1474.5 454,1467.3 467.2,1439.5 480.4,1429.9 489.6,1401.7 506.9,1372.8 
	521,1339.8 501.5,1310.1 473,1290.1 521.7,1258.3 "/>
<polygon id="XMLID_3156_" class="st0" points="783.3,255.3 853,172.4 872.7,280.2 848.9,297.5 806.7,287.7 780.9,260.6 "/>
<polygon id="XMLID_2_" class="st1" points="672.7,629.7 703.1,608.9 767.9,608.9 818.5,620.5 865.3,671 804.4,1058.8 810.7,1099.5 
	845.6,1124.9 907.4,1110.1 971.8,1074.3 1034.5,1040.5 1057.8,1028.6 1065.3,1045.5 1073,1058.2 1060.9,1096.9 1058.3,1119 
	997.3,1193.8 939.5,1227.9 867.6,1245.4 797.3,1232.9 736,1192.2 688.1,1126.5 670,1030 670,957.8 695.1,857.9 681.3,853.4 
	601.6,889.6 527.1,916.7 436.6,978.3 402.4,1025.2 396.9,1079.1 469,1130.9 514.9,1170.1 539,1227.9 518.9,1273 483.7,1300.8 
	458.2,1310.1 414.6,1288.5 280.3,1139.8 257.4,1100.6 266.5,1037.8 314.3,941.6 379.5,889.8 428.3,854.2 513.9,808.3 594.6,785.6 
	639.2,773.6 "/>
<polygon id="XMLID_3_" class="st1" points="783.3,258.5 853,172.4 873.4,284.1 840.4,298.8 785.6,284.4 "/>
<line id="XMLID_4_" class="st2" x1="697.7" y1="731.4" x2="722.6" y2="772.1"/>
<line id="XMLID_5_" class="st2" x1="768.2" y1="829.6" x2="738.7" y2="875.3"/>
<line id="XMLID_6_" class="st2" x1="813.7" y1="715.4" x2="825.4" y2="766.1"/>
<line id="XMLID_7_" class="st2" x1="739.4" y1="613.3" x2="751.1" y2="664"/>
<line id="XMLID_8_" class="st2" x1="550.2" y1="804.3" x2="595.4" y2="837.1"/>
<line id="XMLID_9_" class="st2" x1="515" y1="865.5" x2="560.2" y2="898.3"/>
<line id="XMLID_10_" class="st2" x1="799" y1="1000.4" x2="753.5" y2="1018.8"/>
<line id="XMLID_11_" class="st2" x1="467.5" y1="920.4" x2="447.3" y2="975.1"/>
<line id="XMLID_12_" class="st2" x1="467.5" y1="837.1" x2="447.3" y2="893.9"/>
<line id="XMLID_13_" class="st2" x1="706.2" y1="1075" x2="753.5" y2="1068.3"/>
<line id="XMLID_14_" class="st2" x1="700.4" y1="938.2" x2="757.5" y2="942.7"/>
<line id="XMLID_15_" class="st2" x1="777.6" y1="1142" x2="804.8" y2="1192"/>
<line id="XMLID_16_" class="st2" x1="883" y1="1123.8" x2="860.1" y2="1160.2"/>
<line id="XMLID_17_" class="st2" x1="989.7" y1="1098.4" x2="972.5" y2="1149.1"/>
<line id="XMLID_18_" class="st2" x1="424" y1="1158.6" x2="406" y2="1205.7"/>
<line id="XMLID_19_" class="st2" x1="375.7" y1="1053" x2="352.3" y2="1100.4"/>
<line id="XMLID_20_" class="st2" x1="352.3" y1="924.4" x2="364" y2="975.1"/>
<line id="XMLID_21_" class="st2" x1="283.8" y1="1068.3" x2="295.5" y2="1119"/>
<line id="XMLID_22_" class="st2" x1="326.5" y1="1183.9" x2="371.3" y2="1166.7"/>
<line id="XMLID_23_" class="st2" x1="483.7" y1="1209.3" x2="495.4" y2="1260"/>
<line id="XMLID_24_" class="st2" x1="904.7" y1="1192.2" x2="922.8" y2="1231.9"/>
<g id="XMLID_2918_">
	<path id="XMLID_26_" class="st1" d="M266.5,356.9c0,0,1.6,0,4.6,0.1c1.5,0,3.3,0.1,5.5,0.1c1.1,0,2.3,0.1,3.5,0.1
		c1.2,0,2.6,0.2,4,0.3c2.8,0.2,5.9,0.4,9.3,0.7c3.4,0.3,7,0.8,10.9,1.2c3.9,0.4,8,1.1,12.4,1.8c4.4,0.6,8.9,1.6,13.6,2.6
		c1.2,0.2,2.4,0.5,3.6,0.7c1.2,0.3,2.4,0.6,3.6,0.9c2.4,0.6,4.9,1.2,7.5,1.9c2.6,0.6,5.1,1.4,7.7,2.2c2.6,0.8,5.2,1.5,7.9,2.4
		c5.2,1.8,10.7,3.6,16.1,5.8c2.7,1.1,5.5,2.1,8.2,3.4c2.7,1.2,5.5,2.5,8.2,3.7c2.8,1.3,5.5,2.7,8.2,4.1c1.4,0.7,2.8,1.4,4.1,2.1
		c1.4,0.8,2.7,1.5,4.1,2.3c1.4,0.8,2.7,1.5,4.1,2.3c1.4,0.8,2.8,1.5,4.1,2.4c2.7,1.7,5.4,3.3,8.1,5c10.8,6.9,21.2,14.6,31.2,22.9
		c10,8.3,19.3,17.3,28.1,26.5c2.2,2.3,4.3,4.6,6.5,6.9c2.1,2.4,4.1,4.7,6.2,7.1c2.1,2.3,4,4.8,6,7.1c1.9,2.4,3.9,4.7,5.7,7.1
		c1.8,2.4,3.7,4.8,5.5,7.1c1.8,2.4,3.5,4.8,5.2,7.1c3.4,4.7,6.5,9.5,9.6,14c1.5,2.3,3,4.6,4.4,6.9c1.4,2.3,2.9,4.5,4.2,6.7
		c2.6,4.5,5.3,8.7,7.6,13c4.8,8.3,8.9,16.2,12.4,23.1c1.7,3.5,3.4,6.7,4.8,9.8c1.4,3.1,2.7,5.9,3.9,8.4c1.2,2.5,2.2,4.8,3.1,6.8
		c0.9,2,1.6,3.7,2.2,5.1c1.2,2.8,1.8,4.2,1.8,4.2s-3.3-5.5-9-15.1c-1.4-2.4-3-5-4.8-7.9c-1.8-2.9-3.7-5.9-5.7-9.2
		c-2-3.3-4.3-6.8-6.6-10.4c-2.3-3.7-4.9-7.5-7.5-11.4c-5.3-7.9-11.2-16.4-17.6-25.2c-3.3-4.3-6.5-8.9-10.1-13.3
		c-1.8-2.2-3.5-4.5-5.3-6.8c-1.8-2.2-3.7-4.5-5.6-6.8c-7.6-9-15.7-18.2-24.4-27c-8.7-8.8-17.8-17.4-27.5-25.4
		c-9.6-8-19.7-15.5-30-22.4c-10.3-6.8-20.8-12.9-31.3-18.3c-2.6-1.3-5.3-2.6-7.8-3.9c-1.3-0.7-2.6-1.3-3.9-1.8
		c-1.3-0.6-2.6-1.2-3.9-1.8c-5.1-2.4-10.3-4.3-15.3-6.4c-2.5-1-5-1.9-7.5-2.8c-2.5-0.9-4.9-1.8-7.3-2.6c-2.4-0.8-4.8-1.6-7.2-2.3
		c-1.2-0.4-2.3-0.8-3.5-1.1c-1.2-0.3-2.3-0.7-3.5-1c-4.6-1.3-8.9-2.5-13.2-3.5c-4.2-1-8.2-2.1-12-2.8c-3.8-0.8-7.3-1.6-10.6-2.2
		c-3.3-0.6-6.3-1.1-9.1-1.6c-2.7-0.5-5.2-0.9-7.4-1.2c-2.1-0.3-4-0.6-5.5-0.8C268.1,357.1,266.5,356.9,266.5,356.9z"/>
</g>
<g id="XMLID_2915_">
	<path id="XMLID_27_" class="st1" d="M951.9,674.3c0,0,1.1-0.9,3.3-2.5c1.1-0.8,2.4-1.8,4-3c1.6-1.2,3.4-2.5,5.5-3.9
		c4.1-2.9,9.2-6.3,15.2-10c6-3.7,12.9-7.6,20.5-11.6c7.7-3.9,16.2-8.1,25.4-11.8c2.3-1,4.6-1.9,7-2.8c2.4-0.9,4.8-1.9,7.3-2.7
		c4.9-1.7,10-3.5,15.2-5c10.4-3.3,21.3-5.9,32.5-8.2c2.8-0.5,5.6-1.1,8.5-1.6l2.1-0.4l0.3,0l0.4-0.1l0.5-0.1l1.1-0.2l4.2-0.6
		c5.7-0.7,11.2-1.7,17.1-2.1c5.8-0.5,11.7-1.1,17.5-1.2c5.8-0.2,11.5-0.5,17.3-0.3c2.9,0,5.7,0.1,8.5,0.1c2.8,0.1,5.6,0.3,8.4,0.5
		c2.8,0.2,5.6,0.3,8.3,0.5c2.8,0.3,5.5,0.6,8.2,0.9c2.7,0.3,5.4,0.5,8,0.9c2.6,0.4,5.3,0.8,7.8,1.2c5.2,0.7,10.2,1.8,15.1,2.7
		c1.2,0.2,2.4,0.5,3.6,0.7c1.2,0.3,2.4,0.6,3.6,0.8c2.3,0.6,4.7,1.1,6.9,1.6c4.5,1.1,8.9,2.4,13,3.6c4.2,1.2,8.1,2.5,11.9,3.7
		c3.7,1.3,7.2,2.6,10.5,3.8c3.3,1.3,6.3,2.4,9.2,3.6c2.8,1.2,5.4,2.3,7.7,3.3c4.6,2.1,8.2,3.8,10.6,5c2.4,1.2,3.7,1.9,3.7,1.9
		s-1.4-0.4-3.9-1.3c-2.5-0.9-6.3-2-11.1-3.5c-2.4-0.7-5.1-1.5-7.9-2.3c-2.9-0.8-6-1.7-9.4-2.6c-3.4-0.8-7-1.7-10.7-2.6
		c-3.8-0.8-7.8-1.8-11.9-2.7c-8.4-1.7-17.4-3.3-27.1-4.7c-4.8-0.6-9.8-1.4-14.8-1.9c-2.5-0.3-5.1-0.5-7.7-0.8
		c-2.6-0.3-5.2-0.4-7.9-0.6c-2.6-0.2-5.3-0.4-8-0.5c-2.7-0.1-5.4-0.2-8.1-0.3c-2.7-0.1-5.5-0.2-8.2-0.2c-2.8,0-5.5,0-8.3,0
		c-5.6-0.1-11.1,0.3-16.7,0.5c-5.6,0.1-11.2,0.8-16.7,1.2c-5.5,0.3-11.3,1.3-16.9,2l-4.2,0.6l-1.1,0.1l-0.5,0.1l-0.1,0
		c-0.1,0,0.2,0,0,0l-0.3,0l-2.1,0.3c-2.8,0.5-5.5,0.9-8.2,1.4c-2.7,0.4-5.4,1.1-8.1,1.6c-2.7,0.6-5.4,1-8,1.7
		c-5.3,1.2-10.5,2.4-15.7,3.8c-5.1,1.3-10.1,2.9-15,4.3c-2.4,0.7-4.8,1.6-7.2,2.3c-2.4,0.8-4.7,1.5-7,2.3c-2.3,0.8-4.6,1.6-6.8,2.4
		c-2.2,0.8-4.4,1.7-6.5,2.5c-4.3,1.6-8.4,3.3-12.3,4.9c-7.8,3.4-15,6.5-21.2,9.6c-3.1,1.5-6,3-8.7,4.3c-2.7,1.3-5.1,2.6-7.4,3.8
		c-4.4,2.4-7.9,4.2-10.2,5.5C953.1,673.6,951.9,674.3,951.9,674.3z"/>
</g>
<g id="XMLID_2912_">
	<path id="XMLID_28_" class="st1" d="M1183.9,546.5c0,0,0.9-0.6,2.5-1.7c1.6-1.1,4-2.7,7-4.8c1.5-1,3.1-2.2,4.9-3.5
		c1.8-1.3,3.7-2.7,5.7-4.2c2-1.5,4.1-3.2,6.3-4.9c2.1-1.8,4.5-3.6,6.8-5.6c1.2-1,2.4-2,3.6-3.1c1.2-1.1,2.4-2.2,3.6-3.3
		c2.5-2.2,4.9-4.6,7.4-7c5-4.9,10.1-10.3,15-16c1.3-1.4,2.4-2.9,3.7-4.4c1.2-1.5,2.5-3,3.7-4.5c2.4-3.1,4.8-6.2,7.1-9.5l1.7-2.4
		l0.9-1.2l0.1-0.2c0.1-0.1-0.1,0.1,0,0.1l0.1-0.1l0.2-0.3l0.4-0.6c1.1-1.7,2.2-3.5,3.4-5.2c1.1-1.7,2.3-3.5,3.4-5.2l3-5.2l3-5.2
		c1-1.8,1.8-3.6,2.8-5.4c0.9-1.8,1.8-3.6,2.8-5.4c0.9-1.8,1.7-3.6,2.5-5.4c0.8-1.8,1.7-3.6,2.5-5.4c0.8-1.8,1.5-3.7,2.2-5.5
		c0.7-1.8,1.5-3.6,2.2-5.4c0.6-1.8,1.3-3.6,1.9-5.4c0.6-1.8,1.3-3.6,1.9-5.3c0.6-1.8,1.1-3.6,1.7-5.3c0.5-1.8,1.2-3.5,1.6-5.2
		c0.5-1.7,0.9-3.4,1.4-5.1c1-3.4,1.7-6.7,2.5-9.9c0.8-3.2,1.3-6.4,2-9.4c1.2-6,2.1-11.6,2.8-16.6c0.7-5,1.2-9.3,1.6-12.9
		c0.3-3.6,0.6-6.5,0.8-8.4c0.2-1.9,0.2-3,0.2-3s0.1,1,0.4,3c0.1,1,0.3,2.2,0.4,3.6c0.1,1.4,0.3,3,0.4,4.9c0.3,3.6,0.5,8.1,0.5,13.2
		c0,2.6,0,5.3-0.1,8.1c-0.1,1.4-0.1,2.9-0.2,4.4c-0.1,1.5-0.2,3.1-0.3,4.6c-0.5,6.3-1.4,13.1-2.7,20.2c-0.7,3.6-1.4,7.2-2.3,10.9
		c-0.5,1.9-0.9,3.7-1.4,5.6c-0.5,1.9-1.1,3.8-1.6,5.7c-0.6,1.9-1.1,3.8-1.7,5.8c-0.7,1.9-1.4,3.8-2.1,5.7c-0.7,1.9-1.4,3.9-2.1,5.8
		c-0.8,1.9-1.6,3.8-2.4,5.7c-0.8,1.9-1.6,3.9-2.5,5.8c-0.9,1.9-1.9,3.8-2.8,5.7c-1,1.9-1.9,3.8-2.9,5.7l-3.2,5.6l-3.3,5.6
		c-1.1,1.7-2.3,3.5-3.4,5.2c-1.2,1.7-2.3,3.4-3.4,5.1l-0.4,0.6l-0.2,0.3l-0.2,0.3l-0.1,0.2l-0.9,1.3l-1.9,2.5
		c-5,6.7-10.4,12.9-15.9,18.7c-1.4,1.4-2.8,2.8-4.1,4.2c-1.4,1.4-2.8,2.7-4.2,4c-2.8,2.6-5.6,5-8.4,7.4c-5.6,4.6-11.1,8.8-16.3,12.3
		c-1.3,0.9-2.6,1.7-3.9,2.6c-1.3,0.8-2.5,1.6-3.7,2.4c-2.5,1.4-4.8,2.9-7.1,4.1c-4.4,2.5-8.4,4.5-11.8,6c-1.6,0.8-3.1,1.5-4.5,2
		c-1.3,0.6-2.4,1-3.3,1.4C1184.8,546.2,1183.9,546.5,1183.9,546.5z"/>
</g>
<g id="XMLID_2909_">
	<path id="XMLID_29_" class="st1" d="M599.5,290.7c0,0-0.3-0.8-1-2.4c-0.3-0.8-0.8-1.7-1.3-2.8c-0.5-1.1-1.1-2.3-1.8-3.7
		c-1.3-2.8-3.1-6.1-5.1-9.9c-2-3.8-4.2-8.2-6.5-13c-2.3-4.8-4.7-10.1-7-15.9c-2.3-5.8-4.4-12-5.9-18.9c-0.2-0.9-0.4-1.7-0.6-2.6
		c-0.1-0.9-0.3-1.8-0.4-2.7c-0.1-0.9-0.3-1.8-0.3-2.7c0-1-0.1-1.9-0.1-2.9l-0.1-1.4l0-0.4l0-0.5l0-0.6c0-0.9,0.1-1.7,0.1-2.6
		c0.1-1.7,0.2-3.5,0.3-5.2c0.1-3.4,0.6-7.1,1-10.7c0.2-1.8,0.4-3.7,0.7-5.4l0.9-5.4c0.3-1.8,0.6-3.6,1-5.3c0.4-1.8,0.8-3.5,1.2-5.3
		c0.4-1.8,0.8-3.5,1.3-5.3c0.5-1.7,1-3.4,1.5-5.1c0.5-1.7,1-3.4,1.5-5.1c0.6-1.7,1.2-3.3,1.8-5c0.6-1.6,1.2-3.3,1.8-4.9
		c0.7-1.6,1.3-3.2,2-4.7c0.7-1.6,1.3-3.1,2-4.6c0.7-1.5,1.4-3,2.1-4.5c0.7-1.5,1.4-2.9,2.1-4.3c0.7-1.4,1.5-2.8,2.2-4.2
		c0.7-1.4,1.4-2.7,2.2-4c0.8-1.3,1.5-2.6,2.3-3.8c1.5-2.5,3-4.9,4.5-7.1c1.5-2.3,2.9-4.4,4.4-6.3c0.7-1,1.4-2,2.1-2.9
		c0.7-0.9,1.4-1.8,2.1-2.7c2.6-3.5,5.1-6.3,7.2-8.7c2.1-2.3,3.8-4.1,4.9-5.3c1.2-1.2,1.8-1.8,1.8-1.8s-1.8,3.1-4.9,8.4
		c-0.8,1.3-1.6,2.8-2.5,4.5c-0.9,1.6-1.9,3.4-2.9,5.3c-0.5,0.9-1,1.9-1.6,2.9c-0.5,1-1,2.1-1.6,3.1c-0.5,1.1-1.1,2.2-1.7,3.3
		c-0.6,1.1-1.1,2.3-1.7,3.5c-0.6,1.2-1.2,2.4-1.8,3.6c-0.6,1.2-1.1,2.5-1.7,3.8c-0.6,1.3-1.2,2.6-1.8,3.9c-0.6,1.3-1.1,2.7-1.7,4.1
		c-0.6,1.4-1.2,2.8-1.8,4.2c-0.6,1.4-1.1,2.9-1.7,4.3c-0.6,1.5-1.1,2.9-1.7,4.4c-0.5,1.5-1.1,3-1.6,4.6c-0.5,1.5-1.1,3.1-1.6,4.6
		c-0.5,1.6-1,3.2-1.5,4.7c-0.5,1.6-1,3.2-1.5,4.8c-0.4,1.6-0.9,3.3-1.3,4.9c-0.4,1.6-0.9,3.3-1.3,4.9c-0.4,1.7-0.7,3.3-1.1,5
		c-0.4,1.7-0.8,3.3-1.1,5c-0.3,1.7-0.6,3.4-0.9,5.1l-0.9,5.1c-0.3,1.7-0.5,3.4-0.7,5c-0.4,3.4-1,6.6-1.2,10.2
		c-0.1,1.7-0.3,3.5-0.4,5.2c-0.1,0.9-0.2,1.7-0.2,2.6l-0.1,0.6l0,0.2l0,0.1c0,0.1,0-0.2,0-0.1v0.3l0,1.1c0,0.7,0,1.5,0,2.2
		c0,0.8,0.1,1.5,0.2,2.3c0.1,0.8,0.1,1.5,0.2,2.3c0.1,0.8,0.2,1.5,0.3,2.3c1,6.2,2.5,12.2,4.1,18c1.7,5.7,3.4,11.2,5,16.2
		c1.6,5.1,3.1,9.7,4.4,13.8c1.3,4.1,2.4,7.8,3.2,10.8c0.2,0.8,0.4,1.5,0.6,2.1c0.2,0.7,0.3,1.3,0.4,1.9c0.3,1.2,0.5,2.2,0.6,3
		C599.3,289.8,599.5,290.7,599.5,290.7z"/>
</g>
<circle id="XMLID_25_" cx="420.8" cy="358" r="14.9"/>
<circle id="XMLID_30_" cx="767.9" cy="149.2" r="14.9"/>
<circle id="XMLID_31_" cx="966.8" cy="232.5" r="14.9"/>
<circle id="XMLID_32_" cx="1285.2" cy="548.7" r="14.9"/>
<circle id="XMLID_33_" cx="1059.8" cy="298.8" r="14.9"/>
<circle id="XMLID_34_" cx="495" cy="541.1" r="14.9"/>
<circle id="XMLID_35_" cx="906.1" cy="683.9" r="14.9"/>
<circle id="XMLID_36_" cx="629.4" cy="195.9" r="14.9"/>
<g id="XMLID_2889_">
	<path id="XMLID_38_" class="st1" d="M442,563.9c0,0,2.4,2.4,6.6,6.7c2.1,2.1,4.7,4.6,7.7,7.5c3,2.9,6.4,6,10.2,9.4
		c7.5,6.7,16.6,14.2,26.7,21.5c5.1,3.6,10.4,7.2,16,10.7c5.6,3.4,11.3,6.7,17.2,9.7c5.9,3,11.9,5.8,17.9,8.2
		c6.1,2.4,12.1,4.6,18,6.3c2.9,1,5.9,1.6,8.8,2.5c2.9,0.7,5.8,1.4,8.6,2c1.4,0.3,2.8,0.6,4.1,0.8l1,0.2l0.5,0.1l0.5,0.1
		c0.7,0.1,1.4,0.2,2.1,0.4c2.6,0.5,5.2,0.8,7.7,1.2c5,0.7,9.6,1.1,13.7,1.4c4.1,0.3,7.7,0.5,10.7,0.6c3,0.1,5.3,0.2,6.9,0.2
		c1.6,0,2.5,0,2.5,0s-0.8,0.2-2.4,0.6c-1.6,0.3-3.9,0.9-6.8,1.4c-3,0.5-6.6,1.1-10.8,1.5c-4.2,0.4-8.9,0.7-14.1,0.7
		c-2.6,0-5.3-0.1-8.2-0.2c-0.7,0-1.4-0.1-2.1-0.1l-0.5,0l-0.6,0l-1.1-0.1c-1.4-0.1-2.9-0.3-4.4-0.4c-1.5-0.1-3-0.4-4.5-0.6
		c-1.5-0.2-3.1-0.4-4.6-0.7c-1.5-0.3-3.1-0.6-4.7-0.9c-0.8-0.2-1.6-0.3-2.4-0.5c-0.8-0.2-1.6-0.4-2.4-0.6c-1.6-0.4-3.2-0.7-4.8-1.2
		c-1.6-0.5-3.2-0.9-4.8-1.4c-3.2-1-6.5-2-9.7-3.2c-6.5-2.3-12.9-5.2-19.1-8.4c-6.2-3.2-12.3-6.7-18-10.5c-1.4-0.9-2.9-1.9-4.2-2.9
		c-1.4-1-2.8-1.9-4.1-3c-1.3-1-2.7-2-4-3c-1.3-1-2.6-2.1-3.8-3.1c-5-4.1-9.7-8.4-13.9-12.6c-4.2-4.2-8-8.3-11.4-12.3
		c-6.7-7.9-11.7-14.9-15-19.9c-1.7-2.5-2.8-4.5-3.7-5.9C442.4,564.7,442,563.9,442,563.9z"/>
</g>
<g id="XMLID_40_">
	<path id="XMLID_39_" class="st1" d="M1126.8,190.8c0,0,0.2,1.1,0.5,3.1c0.3,2,0.8,5,1.3,8.7c0.3,1.9,0.6,4,0.9,6.2
		c0.3,2.3,0.4,4.8,0.7,7.4c0.2,2.7,0.5,5.5,0.7,8.5c0.1,1.5,0.2,3,0.3,4.6c0,1.6,0.1,3.2,0.1,4.8c0.1,3.3,0.1,6.7,0.2,10.3
		c0,3.5-0.2,7.2-0.3,11c-0.1,7.6-1.1,15.5-1.9,23.7c-0.5,4.1-1.2,8.2-1.9,12.4c-0.3,2.1-0.7,4.2-1,6.3c-0.5,2.1-0.9,4.2-1.4,6.3
		c-0.5,2.1-0.9,4.2-1.4,6.4c-0.5,2.1-0.9,4.3-1.6,6.4c-1.2,4.2-2.4,8.5-3.6,12.7c-0.3,1.1-0.6,2.1-1,3.1l-1.1,3.1
		c-0.7,2.1-1.5,4.2-2.2,6.2c-0.8,2.1-1.4,4.2-2.3,6.2c-0.8,2-1.7,4-2.5,6c-3.2,8.1-7.1,15.7-10.8,23c-0.9,1.8-2,3.6-3,5.4
		c-1,1.8-2,3.5-3,5.2c-1,1.7-2,3.4-3,5.1c-1,1.6-2.1,3.2-3.1,4.8c-2.1,3.1-4.1,6.2-6.1,9.1c-2.1,2.9-4.2,5.6-6.1,8.2
		c-1,1.3-2,2.6-2.9,3.8c-1,1.2-1.8,2.5-2.9,3.6c-2,2.3-3.8,4.4-5.6,6.4c-1.7,2-3.4,3.9-4.9,5.6c-1.6,1.7-3.1,3.2-4.4,4.5
		c-2.7,2.7-4.8,4.8-6.3,6.3c-1.5,1.4-2.2,2.2-2.2,2.2s0.6-0.9,1.8-2.6c1.2-1.7,2.8-4.2,5-7.3c1.1-1.6,2.3-3.3,3.6-5.1
		c1.2-1.9,2.6-4,4-6.2c1.4-2.2,3-4.5,4.6-7c1.6-2.5,3.1-5.2,4.8-7.9c1.6-2.8,3.5-5.6,5.2-8.6c1.7-3,3.4-6.2,5.2-9.4
		c0.9-1.6,1.8-3.2,2.7-4.9c0.8-1.7,1.7-3.4,2.5-5.1c1.7-3.5,3.6-6.9,5.2-10.6c1.6-3.7,3.3-7.4,5-11.1c0.4-0.9,0.8-1.9,1.3-2.8
		c0.4-1,0.8-1.9,1.1-2.9c0.8-1.9,1.5-3.9,2.3-5.8c0.8-2,1.5-3.9,2.3-5.9c0.8-2,1.4-4,2.1-6c0.7-2,1.4-4,2.1-6l1-3c0.4-1,0.7-2,1-3
		c1.2-4.1,2.4-8.2,3.6-12.2c0.6-2,1.1-4.1,1.6-6.1c0.5-2.1,1-4.1,1.5-6.1c0.5-2,1-4.1,1.5-6.1c0.4-2,0.8-4.1,1.2-6.1
		c0.4-2,0.8-4,1.2-6c0.4-2,0.9-4,1.2-5.9c1.2-7.9,2.6-15.6,3.3-22.9c0.4-3.7,0.9-7.2,1.2-10.7c0.3-3.5,0.5-6.8,0.8-10
		c0.6-6.4,0.8-12.3,1.1-17.6c0.1-2.6,0.3-5.1,0.4-7.4c0-2.3,0.1-4.4,0.1-6.3c0-3.8,0.2-6.8,0.2-8.8
		C1126.7,191.9,1126.8,190.8,1126.8,190.8z"/>
</g>
<polygon id="XMLID_41_" class="st1" points="713,611.5 690.5,617.6 690.6,608.4 687.1,582.4 697.7,556 709.4,529.8 718.1,534.2 
	717.4,541.1 709.4,557.8 709.4,577.6 706.2,599.9 "/>
<polygon id="XMLID_42_" class="st1" points="805.5,617.6 812.6,589.2 828.4,551.5 843.3,551.5 835.4,570.7 828.4,589.2 826.3,617.6 
	822.8,630.3 "/>
<polyline id="XMLID_43_" class="st1" points="635.9,475.3 635.9,479.8 635.9,485.7 654.7,485.7 654.7,479.2 "/>
<polygon id="XMLID_44_" class="st1" points="665.9,475.3 665.9,485.7 690.5,483.7 691.9,473.6 "/>
<polygon id="XMLID_45_" class="st1" points="704.3,468.6 705.1,476.3 722.6,473.6 722.6,464.2 "/>
<polygon id="XMLID_46_" class="st1" points="736,464.2 739.4,470.2 757.6,467.2 757.6,461.6 750.6,457.9 "/>
<polyline id="XMLID_47_" class="st1" points="1247.2,26.4 1266.9,72.2 1311.8,18.5 1254,25.2 "/>
<path id="XMLID_48_" class="st0" d="M793.5,244.2c18.9,16.2,43.6,22,72.6,19.8l-3.7-31.6c-20.4,4.9-37.1,1.8-47.5-14.9L793.5,244.2z
	"/>
<path id="XMLID_49_" class="st0" d="M830.3,204.1c6.5,8.1,15.2,10.2,26.1,6.4l-5.4-32L830.3,204.1"/>
<path id="XMLID_50_" d="M718.1,504.5l-20.8-3.1c-13.4-0.4-20.2-6.9-24.6-15.7l17.8-2l33.7-4C726.1,486.7,723.8,498,718.1,504.5z"/>
<path id="XMLID_51_" d="M801.4,489l0.9,40.8l20.5,17.3l39.1,4.4l42.2-2.8l29.2-10.2l44.2-30.1l25.3-48.6l8.8-43.1l-4.5-53
	l-34.3-62.6l-62-48.5l-45.1-7.9l7.1,35.4L853,297.8l-28.7-1.9l-38.7-26.5l-8.4-7.3l24.2-26.8l-20.7-5.7l-19.4-12l-43.9,6.3
	l-44.7,25.6l-38.4,39.5l-18.6,53.8l13.7,66.7l35.2,58.2l1.2,7.6l70.1-13.7l21.6-28.3l10.3-16.6h28.5l35.1-4.4
	c-0.8,9.4-1.6,14.5,5.3,17.6l-13.9,6.3l13.9,17.5l-5,12l-6.5,15.3C820.3,486.9,811,488.1,801.4,489z"/>
<g id="XMLID_52_">
	<path id="XMLID_53_" d="M1341,117.1c-2-4.8-5.5-8.2-9.7-10.9c-16.3-10.5-34.1-14.6-53.4-12.7c-3.4,0.3-6.7,1-10,1.3
		c-1.5,0.2-3.1,0-4.9,0c-2.2-3.7-4.1-7.6-5.4-11.8c2.7-4.1,6.2-7.3,9.4-10.9c3-3.4,6.1-6.8,9.1-10.2c3.2-3.6,6.3-7.1,9.5-10.7
		c3.2-3.6,6.3-7.1,9.5-10.7c3-3.4,6.1-6.8,9.1-10.3c3-3.6,7.1-6.2,9.3-10.6c-0.7-0.5-1.1-1.1-1.6-1.1c-4.9-0.6-9.8-1.2-14.8-0.4
		c-18.8,3.1-37.6,6.2-56.4,9.3c-3.5,0.6-7,1.3-10.5,2.1c-2.6,0.6-3.2,1.8-2.5,4.4c1.2,4,2.3,8,4,11.8c6.4,14.7,13,29.4,19.5,44.1
		c1.1,2.5,2.5,4.9,3.2,8.1c-1.9,0.9-3.6,1.8-5.3,2.6c-12.8,5.7-24.3,13.2-34.9,22.5c-15.8,13.9-25.3,31.3-29.7,51.7
		c-1.3,5.8-1.8,11.7-4,17.4c-0.8,2-0.7,4.3-0.8,6.4c-0.5,8.5-0.9,17-1.5,25.6c-0.9,12.5-2.2,24.9-3.1,37.4
		c-0.8,11.7-2.9,23.2-5.8,34.6c-4.1,16.2-9.6,31.9-15.8,47.4c-7,17.3-14.7,34.3-23.8,50.6c-18.2,32.9-40.8,62.4-68.9,87.5
		c-19.6,17.5-41.2,31.7-65.7,41.3c-15.6,6.1-31.7,10.3-48,13.9c-0.4,0.1-0.9-0.2-1.9-0.5c1.6-1.3,2.8-2.2,4.1-3.2
		c6.6-5.4,13.3-10.6,19.8-16.2c3-2.6,5.7-5.5,8.3-8.5c10.9-12.6,18.5-27.3,23.9-42.9c8.8-25,12.1-50.8,9.9-77.3
		c-1.7-20.5-7.7-39.6-17.7-57.5c-8.1-14.5-18.3-27.4-29.6-39.4c-6.9-7.4-14.3-14.3-22.4-20.4c-13.7-10.1-28.4-18.1-44.5-23.6
		c-6.9-2.3-13.8-3.7-21-4c-1.7-0.1-3.5-0.4-5-0.6c-0.5-0.9-1-1.4-1.1-1.9c-0.3-1.3-0.6-2.7-0.8-4.1c-3.5-21.8-9.1-43.1-14.9-64.3
		c-0.4-1.5-0.8-3.1-3.3-3.4c-1.1,1.1-2.4,2.2-3.5,3.5c-7.6,8.9-15.3,17.7-22.8,26.7c-7.8,9.3-15.4,18.6-23.2,27.9
		c-1,1.2-2.2,2.1-3.2,3c-0.8-0.2-1.2-0.2-1.6-0.4c-1.6-0.8-3.1-1.7-4.7-2.5c-11.4-6.2-23.4-10.7-36.4-12.3
		c-16.3-2-32.2-0.1-47.2,6.5c-19.3,8.4-36.2,20.4-50.5,36.1c-8.8,9.7-16.6,20.3-23.5,31.4c-13.2,21.1-19.7,44.1-19.1,69
		c0.2,9.1,0.9,18.2,2.9,27.2c0.2,0.7,0.2,1.5,0.4,3.4c-1.2-1.6-1.8-2.3-2.3-3.1c-7.5-11.3-14.7-22.6-22.4-33.7
		c-7.8-11.2-15.7-22.4-24.2-33.2C558,303.7,546,289.2,532.4,276c-3.7-3.6-7.5-7.1-10.7-11.1c-7.4-9.2-15.9-17.1-24.8-24.8
		c-20.5-17.6-41.9-34.1-64.2-49.2c-18.3-12.4-37.9-21.6-60-24.9c-7.7-1.1-15.4-2.1-23.1-1.4c-5.1,0.5-10.2,1.2-15.3,2.1
		c-11.2,1.8-22.1,4.8-32.4,9.7c-2.7,1.3-5.4,2.4-8.1,3.7c-0.9,0.4-1.8,0.9-2.5,1.5c-3.9,3.2-3.5,8.4,0.9,10.8c1.9,1,4,1.9,6.1,2.2
		c6.1,0.9,12.2,1.8,18.3,2.1c12.3,0.7,24.6,1.1,36.9,1.6c2.9,0.1,5.8,0.3,9.5,1.1c-1.4,0.9-1.9,1.4-2.6,1.7c-3.3,1.3-6.7,2.5-10,3.8
		c-23.2,8.5-43.9,21.2-62.8,36.9c-4,3.3-7.5,7.1-10.2,11.5c-0.9,1.5-1.8,3.1-2.2,4.8c-1.1,4,1.2,7.2,5.3,7.6c0.8,0.1,1.6,0.1,2.4,0
		c5.1-0.7,10.3-1.3,15-3.5c4.5-2.1,8.9-4.3,13.4-6.5c2.1-1,4.2-2,6.3-2.9c-2.2,1.9-4.3,3.9-6.5,5.8c-7.9,6.5-11.8,15.3-14.4,24.8
		c-1,3.8,1.1,6.3,4.9,6.4c3.9,0.1,7.5-0.9,10.8-2.7c10-5.6,20-11.3,30.1-16.9c0.7-0.4,1.3-1.5,2.6-0.3c-1.2,1.2-2.3,2.3-3.3,3.4
		c-6.4,7.1-12.9,14-19,21.3c-3.4,4.1-6.3,8.6-9,13.2c-1.5,2.5-2.3,5.5-2.8,8.4c-0.7,4.4,1.9,6.7,6.3,6.4c3.7-0.3,6.8-1.9,9.7-4.2
		c12.3-9.7,24.7-19.3,37.1-28.9c0.7-0.5,1.3-1.6,2.7-0.7c-4.7,7.1-9.4,14.2-14.1,21.3c-2.7,4.1-5.6,8.2-8.1,12.4
		c-1.3,2.2-2.3,4.7-2.7,7.2c-0.7,3.9,1.8,6.5,5.7,6.7c4.1,0.2,8-0.7,11.1-3.5c3.6-3.4,7.2-6.8,10.6-10.4
		c14.8-15.9,31.2-29.9,49-42.3c1.3-0.9,2.7-1.5,4.2-2.4c2,1.2,3.9,2.3,5.6,3.6c13.1,9,25.2,19.3,36.5,30.5
		c16,15.8,30.3,33.1,43.8,51c15.5,20.6,30,42,44.3,63.5c22.2,33.4,42.4,68,61.3,103.4c14.6,27.3,29.2,54.6,43.8,81.9
		c2.9,5.4,5.5,11,8.4,16.4c1.1,2,1.4,3.9,1,6.2c-4.6,26.2-9.3,52.3-15.8,78.1c-5,20-9.8,40.1-14.7,60.1c-0.1,0.4-0.4,0.7-0.8,1.3
		c-0.7,0.2-1.6,0.6-2.6,0.7c-3.1,0.4-6.3,0.7-9.4,1.2c-14.7,2.2-29.3,5.1-43.7,8.8c-31,8-61,18.7-90.3,31.8
		c-16.3,7.3-32.3,15.2-47.8,24.2c-25.6,14.9-50,31.5-73.3,49.8c-15.8,12.4-30.9,25.6-44.5,40.4c-21.2,23.1-38,48.8-49.1,78.1
		c-2.5,6.5-4.9,13-7.1,19.6c-5.6,16.2-9.3,32.8-10.1,50c-0.1,1.8-0.2,3.6-0.7,5.3c-1.4,5.8-0.7,11.4,0.5,17.1
		c2.3,10.6,6.4,20.4,12,29.6c8.5,14,18.7,26.6,29.3,39c16,18.9,32.7,37.4,49.7,55.4c24,25.4,48.7,50.1,76.1,71.9
		c3.6,2.8,7.2,5.6,10.8,8.4c2.1,1.6,4.4,2.7,7,3.1c5.3,0.8,10.6,1.7,15.9,2.1c5.6,0.4,11-0.3,16.3-2.4c4.6-1.8,9.4-3,14.3-4.5
		c1.5,1.3,2.9,2.4,4.1,3.6c5.2,5.7,10.5,11.4,15.6,17.2c2,2.2,3.6,4.7,5.4,7.1c2,2.7,2.9,5.7,2.4,9c-0.4,2.9-1,5.9-1.8,8.7
		c-2.5,8.5-7.2,15.9-11.8,23.3c-3.4,5.6-7.1,11-10.5,16.6c-4.1,6.8-7.6,14-9.7,21.7c-1.1,4.2-2.8,8.2-4.5,12.2
		c-2.1,4.9-5.2,8.9-8.8,12.6c-1.3,1.3-2.5,2.5-3.9,3.7c-8.3,6.9-12.3,16.3-16.2,26c-1.1,2.8-0.2,5.1,2,6.9c1.4,1.1,2.9,2.1,4.4,3
		c1.2,0.8,1.9,1.8,2.3,3.2c1.3,3.9,2.9,4.7,6.7,3.4c5.7-1.9,11.3-3.8,16.3-7.1c5.9-4,11.8-8.1,17.6-12.2c2.4-1.7,4.6-3.8,7.2-5.3
		c10.4-6.2,20.2-13.3,30.1-20.3c17.2-12.1,34.1-24.6,52.3-35.3c17.3-10.1,34.3-20.7,51.4-31.1c2.7-1.6,5.3-3.5,7.8-5.5
		c1.5-1.2,2.9-2.7,4.2-4.2c1.3-1.5,2.2-3.3,2.1-5.4c-0.1-1.8-1.4-2.8-2.5-3.9c-0.4-0.4-0.5-1-0.8-1.6c0.1-0.8,0.3-1.6,0.4-2.4
		c1.5-7.6-0.2-14.6-4.2-21.1c-2.4-3.9-5.4-7.4-8.9-10.3c-2.9-2.4-5.8-4.8-9-6.9c-20.8-13.9-43.1-24.4-66.9-32.1
		c-2.1-0.7-4.2-1.2-6.1-2.2c-7.8-4.1-14.4-9.9-20.9-15.7c-1.4-1.2-1.6-2.7-1-4.3c0.5-1.5,1.1-3,1.6-4.5c3.3-10.3,4.8-20.8,3-31.7
		c-1.3-7.5-3.5-14.6-6.8-21.5c-11.3-23.4-27.5-42.6-49-57.2c-9.2-6.2-18.6-12.1-28-18c-8.4-5.3-16.5-11-24-17.5
		c-8.7-7.5-16.9-15.6-23.4-25.3c-1.8-2.7-3.1-5.6-3.2-8.8c-0.1-5.7-0.5-11.6,0.3-17.2c2.7-18.8,9.9-35.8,22.2-50.5
		c5.5-6.6,11.4-12.7,17.7-18.5c13-11.7,27.5-21.5,42.1-31.2c31.4-21,64.5-39,98.6-55.2c9.5-4.5,19.1-8.9,28.9-12.7
		c22.1-8.4,44.3-16.4,66.5-24.5c3-1.1,6.1-1.6,9.2-2.2c0.8-0.2,1.7,0.3,3,0.6c-0.9,2.5-1.6,4.5-2.3,6.5c-2.8,7.9-5.7,15.6-8.3,23.6
		c-4.7,14.6-7.7,29.6-10.4,44.6c-3,16.4-5.3,32.9-6.5,49.5c-0.3,3.8-0.2,7.7-1.5,11.2c-1.7,4.9-1.8,9.7-1.4,14.7
		c0.6,8.3,1.1,16.6,2.1,24.9c0.9,7.9,1.8,15.8,3.4,23.5c2.2,10.3,5.1,20.4,7.6,30.6c3.5,14.1,8.3,27.7,14,41.1
		c16.1,37.4,41.5,66.9,76.5,87.8c10.2,6.1,20.5,12.1,31.7,16.3c29.1,10.9,59.1,14.8,90.1,11c22.1-2.7,43.1-9,63-18.9
		c17-8.4,32.5-19.1,47-31.3c21.3-17.9,39.7-38.3,54-62.2c3.6-6.1,6.8-12.5,10.4-18.7c4.6-8,7.7-16.5,10.3-25.3
		c0.4-1.5,0.8-3.1,1.3-4.6c0.3-0.9,0.8-1.9,2.3-1.6c0.5,0.9,1.1,1.8,1.6,2.9c3.6,7.5,7,15.1,10.8,22.5
		c13.1,24.9,24.6,50.7,39.3,74.8c3.5,5.7,7.9,10.4,12.9,14.6c5.6,4.7,11.8,6.1,18.9,3.6c4.8-1.7,6.5-3.3,6.6-8.6
		c0.1-6.1,0.2-12.4-0.6-18.4c-1.8-14-3.8-27.9-6.2-41.8c-2.6-15.3-5.9-30.4-8.5-45.6c-2.6-15.1-5.3-30.1-8.8-45
		c-2.5-10.6-5.2-21.2-7.8-31.8c-2.1-8.7-4.2-17.3-6.4-26c-0.3-1.3-0.9-2.6-1.7-3.8c-1.6-2.3-3.9-2.8-6.2-1.1c-1.4,1-2.7,2.3-4,3.4
		c-2.1,0-4.1,0.1-6.1,0c-6.7-0.3-13.1,1.2-18.8,4.8c-13.8,8.7-24.4,20.1-29.7,35.9c-0.8,2.4-1.3,5-3.5,6.9c-9.1-2-17.7,0.4-26.2,3.3
		c-0.4,0.1-0.8,0.2-1.1,0.4c-6.5,2.9-13.2,5.6-19.5,8.8c-15.2,7.8-29.8,16.6-44.4,25.5c-22.1,13.7-44.5,26.8-68.3,37.5
		c-7.8,3.5-15.8,6.5-24,8.7c-8.3,2.3-16.7,3.5-25.3,3c-11.2-0.7-20.1-5.4-26.8-14.5c-6.3-8.6-9.3-18.3-10.2-28.8
		c-1.2-14.2,0.6-28.1,3-42c4.6-27,9.5-53.9,12.8-81.1c3.1-25.2,6.2-50.4,9.1-75.6c2.1-18.5,3.9-37.1,6-55.6
		c2.1-17.5,4-35.1,7.1-52.5c4.1-22.8,7.9-45.7,11.6-68.6c2.4-14.9,4.6-29.8,5.5-44.9c0.2-3.5,0.5-7.1,1.4-10.2
		c0.6-0.3,0.7-0.4,0.9-0.5c0.6-0.1,1.2-0.2,1.8-0.1c12.1,1.9,24.2,1.6,36.1-1.2c34.6-8.3,68.4-19.2,100.8-33.9
		c33-15,64.3-32.8,93.3-54.6c12.9-9.7,25-20.3,36.4-31.5c10.9-10.7,20.7-22.5,30.5-34.2c17.2-20.5,31.2-43,42.7-67.1
		c11.8-24.6,20.3-50.4,26-77.1c4.3-20,6.7-40.3,7.3-60.8c0.3-12.3-0.2-24.6-1.8-36.8c-0.1-0.7,0.2-1.5,0.3-2.4
		c0.9-0.2,1.7-0.5,2.4-0.5c4-0.1,7.9-0.2,11.8-1.4c2.2-0.7,4.3-0.2,6.3,0.8c3.7,1.8,7.6,2.2,11.6,2c7-0.4,13.9-1.6,20.2-4.6
		c6.6-3.1,13.1-6.6,19.5-10.2c4-2.3,7.4-5.3,9.7-9.4c0.6-1,1.4-1.9,2.3-2.7c4.8-4.4,6.6-11.3,1.2-18.2c-1.1-1.4-2.1-2.8-3.2-4.5
		c1.1-0.9,2-1.6,2.8-2.4c1.3-1.2,2.7-2.4,3.7-3.8c4.3-6,4.1-13.4-0.3-20.1c-1.1-1.6-2.3-3.1-3.5-4.8c1-0.8,1.8-1.4,2.5-2
		c5.6-5.1,7-11.2,4.2-18.3c-1.4-3.5-3.6-6.6-6-9.5c-0.7-0.8-1.1-1.9-1.8-3.1c1.6-0.5,2.7-0.8,3.9-1.1c2.3-0.6,4.7-0.9,6.9-1.7
		C1341.7,124.8,1342.9,121.7,1341,117.1z M1253.1,74.6c-6.2-12.2-12.3-24.4-18.5-36.6c-0.4-0.9-0.6-1.8-1-2.9
		c0.9-0.7,1.1-1.1,1.5-1.1c21.1-3.3,42.3-6.6,63.4-9.8c0.7-0.1,1.5,0.1,2.8,0.1c-0.4,1-0.6,1.8-1,2.3c-14,15.7-28,31.3-42,47
		c-0.9,1-1.9,2-3.1,3.4C1254.3,76,1253.5,75.4,1253.1,74.6z M795,246.2c0.5-0.6,1-1.1,1.6-1.5c0,0-0.1-0.1-0.1-0.1
		c6.4-7.1,12.4-13.6,18.6-20.5c0.2,0.1,0.3,0.2,0.5,0.4c0.8-1.5,1.8-2.9,3-4.3c0.1-0.1,0.2-0.2,0.4-0.4c1.6-3.4,4.5-6,6.8-9
		c1.2-1.6,2.4-3.1,3.7-4.7c1.4-3.9,3.8-7.1,7.5-8.6c0.3-0.7,0.5-1.7,1-2.3c3.1-4.1,6.2-8.2,9.4-12.2c0.5-0.6,1.1-1.1,1.6-1.6
		c3,5.1,3,10.6,4.1,15.9c0.1,0.6-0.1,1.1-0.4,1.6c0.1,0.4,0.2,0.7,0.3,1.1c0,0.2,0.1,0.4,0.1,0.7c0.1,0.4,0.2,0.9,0.3,1.3
		c0.2,0.4,0.3,0.9,0.5,1.4c0.2,0.7,0.3,1.4,0.4,2c0.2,0,0.3,0,0.5,0c2,7.5,3.3,15.3,4.4,22.9c-0.3,0.3-0.6,0.6-0.9,0.8
		c0.4,0.8,0.7,1.7,0.8,2.8c0.2,1.3,0.3,2.7,0.5,4c2,4.3,2.4,5.3,1.2,8.6c0.3,1.8,0.6,3.7,1,5.5c1,1.2,1.3,2.3,0.8,3.4
		c0.5,2,1,4,1.4,6c0,0.1,0,0.2,0.1,0.2c0,0,0,0,0,0c0.1,0.7,0.3,1.3,0.4,2c0.2,0.8,0.2,1.6,0.1,2.3c1,5.6,2,11.1,2.9,16.7
		c0.2,0.9,0,1.9,0,3.2c-6.5,3.8-13.4,6.1-20.8,6.8c-9.9,0.9-19.3-1-28.3-5.2c-12.6-5.8-23.5-13.9-32.9-24c-0.7-0.7-1.2-1.6-2-2.8
		c2.8-3.9,6-6.9,9.1-9.6c0.2,0,0.3,0,0.4,0c0.1-0.2,0.3-0.4,0.4-0.6C793.9,247.6,794.4,246.9,795,246.2z M627.5,325.7
		c2.2-8.7,5.9-16.8,10.3-24.7c7.7-13.9,16.9-26.8,27.8-38.5c12.7-13.7,27.8-24.2,44.6-32.2c9.6-4.6,20-6.4,30.5-7.2
		c17.9-1.4,34.6,3.4,50.6,11.1c0.5,0.2,0.9,0.7,2,1.6c-5.3,6.8-11.3,12.2-16.2,18.7c-6.9-2.6-12.6-6.8-19.6-7.9
		c-0.3-0.1-0.7,0.3-1.5,0.6c0.6,0.8,1,1.7,1.7,2.1c3.3,1.8,6.7,3.4,10.1,5.1c1.3,0.7,2.5,1.8,4.3,3.1c-1.8,0.8-3,1.4-4.2,1.8
		c-3.6,1.3-6.9,3.1-9.7,5.7c-2,1.9-3.9,3.9-3.5,7c2.1,0.7,2.7-0.9,3.5-1.8c4.4-4.7,10-7,16.2-8.2c2-0.4,3.5,0.1,4.8,1.6
		c0.9,1.1,1.8,2.2,2.7,3.2c10.2,11.7,22.4,20.7,36.7,26.9c7,3,14.3,5,21.9,5.1c11.5,0.1,22.5-2.2,31.8-9.5c2.1-1.7,4.1-2,6.6-1.1
		c3.4,1.3,6.4,3.2,8.9,5.8c2.2,2.3,4.2,4.8,6.4,7.1c0.7,0.8,1.8,1.3,2.8,2.2c0.3-6.1-4.4-11.6-16.5-19.3h8.1
		c-0.6-1.1-0.8-1.9-1.3-2.1c-2.5-1.3-5.1-2-8-1.3c-1.1,0.3-2.3,0.4-3.8,0.6c-1.4-10.5-2.7-20.6-4.1-31.3c1.4,0,2.6-0.1,3.7-0.1
		c11.3,0.7,21.7,4.8,31.8,9.4c17.3,8,32.5,19,45.7,32.7c8.3,8.6,16.1,17.6,23,27.3c8.3,11.5,15.1,23.8,19.9,37.2
		c4.4,12.2,6.6,24.9,7.2,37.9c1,22.4-1.6,44.4-8.8,65.7c-5.2,15.3-12.2,29.8-23,42c-11.2,12.5-24.1,23.1-38.5,31.7
		c-10.2,6.1-21.9,9.2-33.6,11.7c-7.2,1.6-14.5,2.3-21.8,2.5c-9.7,0.3-19.4,0.9-29.1,1c-10.5,0.1-20.3-2.9-29.4-8.4
		c-6.1-3.7-10.2-9.3-13.9-15.2c-0.6-1-0.8-2.2-0.9-3.4c-0.1-1.2,0.1-2.4,0.2-3.6c1.2-8.2,2.9-16.4,5.5-24.3c0.2-0.5,0.6-1,1-1.8
		c1.7,0.1,3.4,0.2,5.1,0.4c4.4,0.3,8.2-1.3,11.6-3.9c2.4-1.9,4.2-4.3,4.3-7.5c0.1-2.4,1.2-4.1,2.8-5.7c3-3,5.4-6.4,6.7-10.4
		c2.9-9.1-0.1-17.5-8.1-22.7c-0.7-0.4-1.3-0.9-2.3-1.5c0.7-1.6,1.3-3.2,1.9-4.6c0.8,0.2,1.3,0.1,1.5,0.3c1.3,1.2,2.6,2.5,3.9,3.7
		c2.6,2.3,5.7,3.7,9.2,3.8c1.6,0.1,3.2-0.1,4.7-0.5c2.3-0.6,3.8-2.4,3.3-3.5c-0.7-1.5-2.3-1.4-3.6-1.4c-9.6-0.1-13.8-6.7-17.2-14.1
		c-0.9-1.9-1-4.2-1.6-6.3c-0.9-2.8-0.8-5.9-2.9-8.6c-1.2,0.3-2.3,0.6-3.4,1c-11.1,3.6-22.5,5.1-34,4.9c-5.7-0.1-11.4-1.3-17.1-2.3
		c-2.1-0.4-4.1-1.5-6-2.6c-15.7-8.8-26.2-22.2-33-38.6c-0.7-1.6-1.3-3.3-2.2-4.8c-0.3-0.5-1.4-1-2-0.8c-0.6,0.2-1.3,1.1-1.3,1.7
		c0,1.8,0.1,3.6,0.6,5.3c2.5,8,6.1,15.5,11,22.3c4.6,6.3,10,11.8,16.3,16.5c1.4,1.1,2.8,2.2,4.2,3.3c-0.6,2.6-2.5,3.8-3.9,5.4
		c-8.6,9.4-16.3,19.5-22.8,30.5c-1.5,2.6-2.9,5.2-4.3,7.8c-1,1.9-2.5,2.8-4.7,3.1c-17.8,3-35.6,6.1-53.4,9.1c-1.9,0.3-3.9,0.4-6,0.7
		c-1-1.5-2-2.7-2.7-4c-9-15.7-17.9-31.4-26.9-47c-5.2-9-8.7-18.7-10.9-28.8C622.1,369.7,621.9,347.7,627.5,325.7z M703.1,603
		c0,1.8,0,3.5,0,5.9c-2.8,1.2-5.2,2.3-7.6,3.2c-1.1,0.4-2.2,0.5-3.1,0.7c-1.9-1.2-1.7-2.9-1.8-4.5c-0.5-6.8,0.4-13.5,1.5-20.1
		c2.9-18,9-34.9,17.3-51.1c0.4-0.7,0.8-1.4,1.2-2c0.2-0.3,0.6-0.5,1.1-1c2.3,0.2,4.2,1.7,6.5,3.1c-0.5,1-0.8,1.9-1.3,2.6
		c-4.5,6.4-7.2,13.7-9,21.2C704.7,574.9,702.8,588.8,703.1,603z M614.2,468.8c2.6,4.9,6.2,8.4,12.1,9.5c8.1,1.6,16.1,2.3,24.2,1.4
		c8.5-1,16.9-2.1,25.3-3.4c16.8-2.7,33.6-5.7,50.4-8.6c2.9-0.5,5.9-0.6,8.8-1.1c5.8-1.2,11.6-2.5,17.4-3.8c3.1-0.7,5.3-0.2,5.1,1.2
		c-0.3,2.3-2.4,2.3-4.1,2.7c-7.9,1.7-15.9,3.3-23.9,4.9c-8.2,1.6-16.3,3.2-24.5,4.7c-11.9,2.1-23.8,4-35.8,5.3c-9.7,1-19.3,1.9-29,2
		c-4,0.1-7.9,0-11.9-0.4c-5.5-0.4-10.2-2.8-14.2-6.7c-6.8-6.6-5.7-16,0-21.1c0.8-0.7,1.7-1.4,2.6-2.1c0.1,0.1,0.3,0.3,0.4,0.4
		c-0.8,1-1.6,2.1-2.3,3.2C612.3,460.8,612,464.8,614.2,468.8z M679.7,487.8c13.2-2.4,26.5-4.7,39.8-7.1c0.5-0.1,1.1,0.1,2.4,0.2
		c-1.4,6.7-2.6,12.8-3.9,19c-0.1,0.3-0.5,0.6-0.7,0.9c-0.4,0.1-0.8,0.4-1.1,0.4c-7.1-0.5-14.2-0.8-21.2-2.4
		c-5.7-1.4-10.7-4.1-15.2-7.9c-0.6-0.5-1-1.2-1.5-1.8C678.9,488.5,679.2,487.9,679.7,487.8z M683.3,501.4c5.2,2.5,10.5,4.7,16.2,5.3
		c5.7,0.5,11.4,1,17,1.5c1,4,1.3,16.5,0.6,21.5c-2.8,0.4-4.9-1.3-6.8-2.9c-6.4-5.3-12.7-10.7-19-16.2c-3-2.6-5.7-5.4-8.6-8.1
		C682.9,502.2,683.1,501.8,683.3,501.4z M713.9,560.9c1.2-4.8,3.2-9.3,5.1-13.9c1-2.4,2.4-4.6,4.6-6.1c2.2-1.4,2.4-3.3,2.2-5.7
		c-0.3-5.5-0.5-11.1-0.5-16.6c0-10,1.1-19.8,3.5-29.5c0.6-2.7,1.6-5.3,2.3-8c0.6-2.1,2.1-3.3,4.2-3.8c5.2-1.3,10.4-2.5,15.8-3.8
		c4.3,4.5,6.3,5.4,10.1,4.5c1.9-0.5,3.8-1.1,3.9-3.6c-2.1-1.2-3.6,0.6-5.3,0.6c-1.4,0-2.9,0.2-3.2-2.2c1-0.5,2.2-1.2,3.4-1.8
		c4.3-2.2,4.8-8.6,0.8-11.3c-1.3-0.9-2.8-1.4-4.1-2.1c-0.2-1.4,0.9-1.3,1.6-1.3c1.2,0,2.4,0.1,3.5,0.4c1.1,0.3,2.2,0.8,3.2,1.2
		c1.3-1,0.6-1.8,0-2.5c-1.6-1.6-3.6-2.5-5.8-2.7c-3-0.3-5.5,0.3-7.1,3.2c-0.4,0.7-0.8,1.3-1.3,2.1c-2.9,0.3-5.6,1.8-9,1.4
		c0.1-0.9,0.1-1.7,0.4-2.3c7.7-13.4,16.7-26.1,27-37.6c0.1-0.1,0.3-0.2,0.9-0.6c5.8,1.2,11.8,3.4,18.2,3.3c6.6,0,13.1,0.2,19.6-1.3
		c6.2-1.4,12.3-2.7,18.9-4.2c0.5,2.9,1.2,5.5,1.5,8.2c0.1,1.3-0.5,2.7-1.1,3.9c-1.2,2.5-2.7,4.9-4,7.3c-1.9,3.7-1.6,4.9,1.7,7.6
		c0.9,0.8,1.9,1.4,2.8,2.2c8.5,6.8,8.9,16.2,0.9,24.2c-1-0.3-2.1-0.6-3.2-0.9c-4.5-1.4-8.6-0.7-12.5,1.9c-0.8,0.5-1.6,1.4-2.5,1.6
		c-3.8,0.8-4.7,3.8-5.7,6.9c-3.8,11.5-7.4,23-9,35.1c-1.2,8.7-1.8,17.4-0.7,26.1c0.3,2.3,1.1,4.1,2.4,6c5.2,7.1,6.3,7.8,15,9.3
		c1.8,0.3,3.6,0.4,5.3,0.7c1.1,0.2,2.2,0.8,3.5,1.2c-0.3,1.4-0.4,2.6-0.9,3.6c-7.3,15.3-11.7,31.6-15.4,48.1c-0.2,1.1-0.7,2.2-1,3
		c-2.3,1-3.9-0.2-5.5-0.8c-7.5-2.6-15.1-4.7-23-6c-12.8-2.2-25.7-2.6-38.5-1.6c-7.9,0.6-15.8,1.7-23.6,2.6c-0.8,0.1-1.5,0-2.6,0
		c-0.3-1.3-0.8-2.4-0.8-3.5C709,589,710.4,574.8,713.9,560.9z M823.7,481.6c-1.3,2.1-3.5,3.2-5.8,3.9c-3.1,0.9-5-0.6-5.3-3.8
		c-0.3-3.9,2.5-6.5,7.1-6.4c0.4,0.1,1.2,0.2,1.9,0.4C824,476.5,825,479.5,823.7,481.6z M802.6,535.2c0.7,0.2,1.4,0.1,1.7,0.4
		c3.8,4.3,7.8,8.3,12.7,11.5c-4.7-0.2-9.3-0.4-13.8-2.4C801.9,541.6,802.3,538.5,802.6,535.2z M815.3,588.8
		c2.9-10.7,7.1-21,12.2-30.7c2.9-0.3,5.4-0.6,8,0.4c-0.1,0.8,0,1.5-0.3,1.9c-6.1,12.2-9.2,25.3-11.9,38.5c-1.2,6-2.4,12-3.7,18.1
		c-0.2,1.1-0.7,2.2-1.2,3.5c-3.4-0.9-6-2.4-8.8-4.6C810.3,606.7,812.8,597.7,815.3,588.8z M666.5,611.3
		c-13.3-25.3-26.8-50.5-39.8-75.9c-13.3-25.8-27.3-51.1-42.3-75.9c-15.3-25.3-31.7-49.9-48.8-74.1c-10.6-14.9-21.4-29.6-33.3-43.5
		c-1.9-2.3-3.7-4.7-5.3-7.1c-4.4-6.6-9.7-12.6-15.3-18.2c-11.3-11.2-22.9-22-35.5-31.7c-5-3.9-10.3-7.4-15.6-10.9
		c-2.7-1.8-5.7-2.8-9-2.9c-2.4-0.1-4.7,0.3-6.6,2.2c-1,1-2.1,1.8-3.3,2.5c-18,11.9-33.8,26.3-48.5,42c-2.8,3-5.8,6-8.8,8.9
		c-1.2,1.2-2.6,2.5-4.6,2.1c-1-1-0.2-1.9,0.3-2.7c2.4-3.9,4.8-7.7,7.3-11.6c3.2-5,6.4-10,9.6-15.1c3.4-5.4,7-10.6,11.3-15.3
		c3.3-3.7,5.2-8.4,6.9-12.8c-0.9-1.7-2.2-1.3-3.2-0.9c-3.1,1.3-6.2,2.6-9.2,4.2c-8.2,4.5-15.8,10-23.1,15.7
		c-8.6,6.7-17.1,13.6-25.7,20.3c-1.2,1-2.5,1.8-3.6,2.7c-1.2-0.9-0.7-1.7-0.3-2.2c2.8-4.3,5.5-8.7,8.6-12.8
		c12-15.7,26.1-29.3,40.6-42.6c4.2-3.9,8.5-7.7,12.8-11.6c0.8-0.8,1.5-1.7,2.8-3.2c-5.3,0.2-9.4,1.6-13.4,3.3
		c-7.7,3.2-15,7.3-22,11.8c-9.8,6.4-19.8,12.5-30.2,17.9c-3.5,1.8-6.8,4-10.3,6c-0.9,0.5-2,0.8-3.8,1.4c2.2-7.1,5-12.9,10.2-17.2
		c4.4-3.7,9.1-7.1,13.8-10.4c8.3-5.8,16.7-11.4,24.9-17.4c4.8-3.5,9.1-7.6,13.6-11.5c0.2-0.2,0.2-0.7,0.2-1.1
		c-0.4-0.1-0.8-0.4-1.1-0.3c-17.6,3.9-34,10.8-49.4,20c-3.4,2-6.8,4-10.4,5.9c-4,2.1-8.2,4.1-12.3,5.9c-3.2,1.5-6.7,2.2-10.8,2.5
		c0.4-1.2,0.5-2,0.9-2.5c2.8-3.1,5.4-6.4,8.5-9.1c17.4-14.7,36.8-26.2,57.8-35c8.6-3.6,17.1-7.4,25.8-10.9c3.5-1.4,7.2-2.3,10.7-3.6
		c1-0.4,2-1,3.7-1.9c-2-0.8-3.2-1.5-4.5-1.7c-3.9-0.6-7.9-1.2-11.8-1.5c-9.1-0.5-18.2-0.8-27.4-1.1c-13.1-0.5-26.2-1-39.3-1.6
		c-3.6-0.2-7.1-0.7-10.6-1.2c-0.7-0.1-1.4-0.5-2.7-1c0.9-0.8,1.3-1.4,1.9-1.6c15.4-6.7,31.4-10.8,48.2-12.3
		c20.3-1.8,39.4,2.4,57.9,10.6c8.5,3.8,16.6,8.5,24.3,13.8c9,6.2,18,12.4,26.5,19.2c14,11.1,28,22.2,39.8,35.7
		c3.1,3.6,6.8,6.7,10.4,9.7c13,11.1,24.9,23.4,36.4,36c8.1,8.9,15.8,18.4,23.2,28c16.9,22.1,32.9,44.8,47.6,68.4
		c13.2,21.2,26.1,42.7,39,64.1c2.8,4.6,5.4,9.2,7.4,14.1c-1.1,2.1-3,2.2-4.7,2.3c-3.6,0.3-7.1,0.6-10.7,0.6c-4.4,0-8.7-0.2-13.1-0.5
		c-5.6-0.4-8.9-4.1-10.9-8.9c-1-2.4-0.9-5.1,1.3-7c1.8,0.1,1.8,1.5,2.1,2.5c0.8,2.2,2.4,3.6,4.5,4.5c4,1.8,7.3,1,10.1-2.4
		c4.9-5.9,5.5-14.1,1.7-21.1c-0.3-0.2-0.7-0.5-1-0.5c-10.9-1-20.5,2-28.2,9.8c-7.5,7.6-7.8,19.3-1.2,27.7c4.4,5.5,10,9,16.9,10.3
		c3.5,0.7,7.1,1.2,10.6,1.1c8.1-0.1,16.2-0.7,24.4-1c8.3-0.4,7.2-1.1,10.9,6.2c4,8,10.1,14,17.3,19.2c6.4,4.6,12.5,9.8,18.6,14.6
		c0.4,2.5-1.1,4-2,5.7c-7.9,14.8-13.9,30.3-17,46.8c-1.3,6.8-1.9,13.7-2.7,20.6c-0.2,2.3,0.1,4.7,0.3,7.1c0.1,2,0.4,3.9,0.6,6.2
		c-2.3,2.1-4.6,4.2-7.3,6.7c-0.9-3.1-0.3-5.7-0.4-8.1c-0.1-2.6,0-5.2-0.2-7.7c-0.1-2.6-0.7-5-1.8-8.2c-3.5,5.5-3.8,11.3-5.9,16.6
		C667.6,614.7,667.3,612.8,666.5,611.3z M629.4,448.4c3.3-1.9,3.3-1.9,6.5,0H629.4z M631.3,453.1c-0.2,0.2-0.4,0.4-0.6,0.5
		c-0.1,0-0.3-0.2-0.5-0.2c0.2-0.1,0.3-0.2,0.5-0.3C630.9,453.1,631.1,453.1,631.3,453.1z M632.5,458.1c0.7,1.9-0.5,2.7-1.7,3.2
		c-1.7,0.8-2.8-0.2-4.3-2.4C629.1,458.6,630.7,458.3,632.5,458.1z M540.9,1415.6c-7.9,5.3-15.9,10.4-23.7,15.8
		c-7,4.8-14,9.7-20.9,14.7c-7.4,5.3-14.7,10.8-22.2,16c-2.7,1.9-5.8,3.4-8.8,4.9c-1,0.5-2.3,0.5-3.5,0.3c-3.5-0.5-3.9-2.5-2.8-5
		c2.7-6.2,5.8-12.1,11-16.7c3.4-3.1,6.4-6.4,9.5-9.7c1.2-1.3,2.4-2.7,3.1-4.3c1.5-3,3.8-5,6.6-6.6c2.4-1.4,4.9-2.7,7.4-3.7
		c13.9-5.4,28.5-8.3,43.4-9.2c1.4-0.1,2.7,0,4.1,0c0.1,0.4,0.3,0.7,0.4,1.1C543.4,1413.8,542.2,1414.8,540.9,1415.6z M531.4,1265.2
		c4.4,4,9,7.8,13.2,12c2.6,2.7,5.3,4.6,8.8,5.7c20.9,6.5,40.6,16,59.4,27.1c6.1,3.6,11.9,7.9,17.6,12.1c3.4,2.5,6.1,5.7,8.2,9.3
		c4.4,7.4,3.3,14.9-0.2,22.2c-0.5,1.2-1.8,2.1-2.9,2.8c-10.7,6.8-21.4,13.6-32.2,20.3c-12.6,7.8-25.3,15.6-38,23.4
		c-1.9,1.1-3.8,2.2-5.6,3.4c-1.8,1.2-3.5,1.3-5.6,0.9c-6.6-1.3-13.3-1.6-20.1-0.9c-4.5,0.5-9.1,0.2-13.7,0.3
		c-4.8,0.1-9.4,1.2-14,2.6c-1.3,0.4-2.9,0.8-3.7,1.7c-3.3,3.6-7.9,4.2-13,6.9c0.4-2.1,0.5-2.9,0.8-3.5c2.7-6.4,5.3-12.8,9.2-18.6
		c5.3-7.9,10.4-16,15.4-24c3.6-5.7,6.4-11.9,8.2-18.4c1.3-4.6,1.9-9.3,1.5-14.1c-0.2-2.7-0.8-5.1-2.3-7.3c-2.9-4-5.6-8.2-9-11.8
		c-4.7-5.1-9.8-9.9-14.7-14.8c-1.2-1.2-2.4-2.5-3.9-4.1c1.6-1.2,2.7-2.3,4-3.1c9.4-5.7,17.6-12.9,24.4-21.5c1.2-1.5,2.3-3.2,3.4-4.8
		c1-1.4,1.9-2.9,2.9-4.4C530.4,1264.8,531,1264.8,531.4,1265.2z M1134.3,1179.1c-2.4-3.1-4.3-6.5-5.9-10.1c-0.4-0.9-0.5-1.9-0.4-2.9
		c0.2-3.5,0.6-7,1-11.7c2.2,8.8,4.1,16.4,6,24.1C1135,1178.5,1134.7,1178.6,1134.3,1179.1z M1139.9,1096.9
		c1.3,7.5,2.7,14.1,3.7,20.8c2.4,16.1,5.7,31.9,8.9,47.9c1.6,7.9,2.7,16,4.1,24c0.2,1,0.3,2.2-0.8,2.5c-0.8,0.2-2-0.1-2.7-0.6
		c-3.7-2.5-6.6-5.7-8.4-9.8c-1-2.3-2-4.8-2.7-7.2c-2.4-9-4.7-18-7.1-27c-0.9-3.2-1.8-6.5-3-9.6c-0.7-2-0.8-3.8-0.4-5.8
		c2.4-11,4.7-22.1,7.1-33.1C1138.7,1098.6,1139,1098.3,1139.9,1096.9z M1064,1030c3.4-5.6,6.7-11.3,10.1-16.8
		c4.8-7.6,11-14,18.5-19.1c5.2-3.5,11-5.6,17.3-5.2c2.1,0.1,4.3,0.7,6.3,1.5c3.3,1.4,5.3,4.1,6,7.6c2.4,10.8,5,21.6,7,32.5
		c2.5,14,4.5,28.2,6.8,42.2c0.4,2.2,0.4,4.3-0.4,6.4c-6.3,16.2-9.2,33.2-12.1,50.2c-1.1,6.6-2.7,13.1-4.1,19.6
		c-1.6,0.3-1.9-0.8-2.3-1.6c-1.7-3.3-3.4-6.7-5.1-10.1c-7.9-15.5-15.8-31.1-23.8-46.6c-1.6-3.2-3.5-6.2-5.3-9.3
		c-2.2-3.8-5-7.1-8.8-9.8c-0.4-4.8-0.8-9.1-1.2-13.5c-0.8-9.2-3-18-8.9-25.4c-0.2-0.3-0.3-0.7-0.5-1.2
		C1063.7,1031.1,1063.7,1030.5,1064,1030z M855.3,684.6c-1.6,10-3.2,20-4.9,29.9c-4.1,23.5-8.4,46.9-12.2,70.3
		c-2.1,13.1-3.7,26.3-5.3,39.5c-1.6,12.8-3,25.6-4.3,38.4c-1.4,13.2-2.7,26.4-4.1,39.7c-0.8,7.7-1.7,15.4-2.6,23.1
		c-1.4,11.6-2.8,23.2-4.3,34.8c-1.4,10.4-2.8,20.8-4.3,31.2c-2.2,15.9-4.4,31.8-6.6,47.7c-1.2,8.4-2.1,16.9-2.6,25.4
		c-0.7,12.2,1.7,23.7,6.7,34.7c6.8,14.8,18.5,23.3,34.9,25.4c9.3,1.2,18.2-0.1,27.1-2.1c15.2-3.4,29.3-9.9,43.2-16.8
		c19.2-9.5,37.6-20.6,55.9-31.7c14.3-8.6,28.7-16.9,43.3-25c6.2-3.5,12.9-6.3,19.5-8.8c4.4-1.7,9.1-2.8,13.8-3.6
		c6.4-1.1,9.5,0.7,12.5,6.6c2.9,5.6,3.9,11.7,4.3,17.8c0.4,6.1,0.2,12.3,0.2,18.4c0,4-0.9,7.9-2.3,11.6c-1.6,4.5-3.2,9-5.1,13.3
		c-1.7,3.8-3.5,7.5-5.7,11.1c-12.8,21.2-28,40.5-46,57.5c-18.4,17.4-38.5,32.5-61.4,43.6c-18.4,8.9-37.6,14.7-57.9,17.1
		c-29.7,3.6-58.6,0.2-86.5-10.5c-14-5.4-26.7-13.1-39.1-21.4c-23.1-15.6-41.4-35.6-54.9-60.1c-9-16.4-15.9-33.7-20.9-51.8
		c-3.7-13.4-7.3-26.8-9.8-40.5c-1.8-9.6-3-19.2-3.1-29c-0.1-14.9-0.1-29.8,1.5-44.6c1.9-17.6,4.5-35,7.9-52.3
		c4-20.1,9.4-39.7,16.8-58.8c0.5-1.2,1.1-2.4,1.8-3.8c1.4,0.9,2.5,1.7,3.7,2.3c0.4,0.2,1.4,0.2,1.6-0.1c0.5-0.5,0.8-1.3,0.8-2
		c0-0.7-0.4-1.5-0.9-2.2c-4.3-6.9-7.6-14.4-10.6-22c-0.4-1.1-0.9-2.2-1.5-3.2c-1-1.8-2.3-2.7-3.1-2.1c-1.3,0.9-1.4,2.4-1.1,3.7
		c0.4,2.1,0.9,4.3,1.5,6.4c0.5,1.9,1.3,3.7,1.9,5.5c-1.3,0.9-2-0.1-2.6-0.7c-3.1-2.7-6.2-5.6-9.4-8.3c-1.2-1-2.5-1.9-3.9-2.7
		c-0.3-0.2-0.7,0-1.1,0c0.5,2.7,0.5,2.7,5.3,7.9c2.1,2.3,4.3,4.5,6.7,7c-2.1,2-4.5,2.2-6.7,2.9c-7.4,2.2-14.8,4.4-22.3,6.4
		c-16.7,4.5-32.8,10.7-48.8,17.1c-20.1,8-39.8,16.9-59,26.9c-20.9,10.9-41.6,22.4-61.3,35.4c-11.6,7.6-23,15.5-34.3,23.6
		c-14.2,10.2-27,22.2-37.8,36c-12.8,16.3-20.1,35-22.6,55.5c-1,8.3-0.5,16.6,1.8,24.8c1.2,4.2,3,8.2,5.4,11.9c2,3,4.5,5.5,7.7,7.3
		c1.7,0.9,3.3,2.2,4.7,3.6c10.4,10.4,22,19.5,34.4,27.3c9.2,5.8,18.4,11.7,27.5,17.8c11.3,7.6,21.3,16.6,29.7,27.3
		c8.2,10.5,15.3,21.8,19.8,34.4c4.3,12,4.5,24.1,0.9,36.2c-3.8,12.8-10.2,24-19.8,33.5c-8.4,8.3-18,14.9-28.3,20.6
		c-3.4,1.8-7,2.8-10.8,2.9c-1,0-2,0-3,0.1c-13.4,1.3-25-3.3-35.8-10.5c-1.3-0.9-2.5-2-3.6-3.1c-24.4-23.6-48.8-47.2-72-71.9
		c-19-20.2-37.7-40.8-55.5-62.2c-8-9.6-15.6-19.5-22.1-30.3c-1.3-2.2-2.5-4.5-3.8-6.7c-4.4-7.8-6.5-16.1-5.5-25.1
		c0.9-7.9,1.3-15.8,2-23.7c0.9-10.5,3.2-20.8,6.6-30.8c3.7-10.9,7.5-21.8,11.8-32.4c9.9-24.1,24.1-45.5,41.5-64.9
		c12.1-13.5,25.2-25.8,39.3-37.2c15.3-12.3,31-24.1,47.4-34.9c12.6-8.3,25.4-16.2,38.5-23.7c24.7-14.1,50.5-25.8,77.2-35.7
		c28.5-10.5,57.6-19.2,87.7-23.9c5.7-0.9,11.4-1.6,17.1-2.4c0.8-0.1,1.6-0.1,2.4-0.3c8.3-1.9,8.5-2,9.5-9.7
		c2.5-21.2,8.4-41.6,13.4-62.2c5-20.6,9.1-41.5,12.6-62.4c0.5-3,1.4-5.8,2.9-8.3c1.2-2,2.4-4.1,3.6-6.2c3.8-7.1,9.8-11.3,17.2-13.9
		c6.6-2.3,13.4-3.6,20.3-4.5c14.8-1.8,29.7-2.3,44.6-1.3c17.2,1.1,33.7,5.6,48.8,14c16.7,9.2,29.9,22.2,39.3,38.9
		c2.1,3.8,3.6,7.9,4.9,12.1C856,680.5,855.6,682.7,855.3,684.6z M1256.3,233.9c-4.9,0.9-10.2,1.3-15.6,0.2
		c-3.5-6.2-4.5-13.5-8.6-19.5c-1.4,0.9-0.8,1.9-0.5,2.7c3.5,12.3,4.8,25,4.7,37.7c-0.2,12.9-0.4,25.8-1.6,38.6c-2,21-5.5,41.7-11,62
		c-11.5,42.2-29.7,81.2-56.6,115.8c-18,23.3-37.5,45.3-60.7,63.6c-10.4,8.2-21.2,16.1-32.2,23.5c-24.1,16.2-49.7,29.8-76.3,41.4
		c-19.1,8.4-38.7,15.4-58.7,21.3c-11.6,3.4-23.2,6.8-35,9.6c-12,2.9-24.4,3-36.7,2.3c-0.6,0-1.2,0-1.9,0c-2.1,1.1-2.7,3.3-3.1,5.4
		c-1.2,6.4-2.2,12.9-3.4,19.3c-0.2,1.1-0.6,2.2-1.1,4.1c-5.3-7.1-8.9-14.6-14.7-20.2c-5.8-5.7-11.8-11.1-17.8-16.7
		c0-1.1-0.2-2.3,0-3.5c2.9-14.2,5.2-28.5,9.4-42.4c1.6-5.5,3.9-10.8,5.9-16.2c1.3-3.4,3.7-4.7,7.4-4.7c6.1,0,12.3-0.4,18.4-0.5
		c19.1-0.3,38-2.7,56.7-6.1c18.2-3.3,36.2-7.3,53.9-12.4c29.4-8.4,55.9-22.4,79.5-41.8c31.1-25.4,56.1-56,76.3-90.6
		c10.9-18.7,20.2-38.2,28.1-58.4c5.8-14.8,11.1-29.7,14.8-45.2c2.8-11.8,4.6-23.7,5.4-35.8c0.8-11.7,2.1-23.3,3-35
		c0.5-6.5,0.8-13.1,1.3-19.6c1.1-14.7,3.3-29.2,7.6-43.3c4.8-16,13.4-29.5,26-40.5c9.8-8.6,20.5-15.6,32.4-20.8
		c1.8-0.8,3.6-1.4,6-2.3c1.1,2.1,2,3.4,2.6,4.8c4.4,9.5,8.8,19.1,13.2,28.6c0.2,0.4,0.4,0.7,0.5,1.1c1.3,3.1,1,4.2-1.6,6.1
		c-2.4,1.8-4.9,3.4-7.2,5.3c-2.6,2.2-4.7,4.8-6.2,7.9c-1.3,2.6-1,5,0.8,7.2c1.4,1.6,2.9,3.2,4.6,5.1c-1.3,0.8-2.3,1.4-3.3,2
		c-2.4,1.4-4.9,2.7-7.1,4.3c-2,1.5-4,3.3-5.5,5.4c-3.8,5-2.9,9.1,2.6,12.4c2.3,1.4,4.8,2.5,7.6,3.9c-1.3,1.3-2.3,2.3-3.1,3.3
		c-1.2,1.6-2.4,3.2-3.3,4.9c-2.2,4.5-1.3,7.9,2.9,10.8c1.5,1,3.1,1.7,4.7,2.6c1,0.6,2,1.2,3,1.8
		C1260.7,226.9,1258.6,230.2,1256.3,233.9z M1280.6,234.4c-2.5,0.5-5.1,0.7-7.6,0.9c-2.6,0.2-5.1-0.1-7.4-2c0.2-3.3,2.3-5.5,4.6-7.1
		c1.1-0.8,3-0.8,4.5-0.7c6.1,0.6,12.2,0.4,18.3-0.1c3.9-0.3,7.7-0.9,11.6-1.4C1297.5,229.4,1289.4,232.7,1280.6,234.4z M1320.5,210
		c-1.3,0.9-2.8,1.5-4.3,2c-11.9,4-24.2,6.2-36.8,5.6c-7.1-0.3-13.1-1.6-20.4-5.5c0.5-2.6,1.9-4.2,3.7-5.5c2.2-1.7,4.8-2.9,7.5-3.4
		c3.3-0.6,6.6-1.3,9.9-1.5c12.5-0.8,24.8-2.2,36.9-5.7c3,1.4,4.6,3.9,5.7,6.7C1323.8,205.6,1323.1,208.2,1320.5,210z M1322.3,184.9
		c-2.8,1.8-6,3.1-9.2,4c-4.9,1.4-10,2.5-15.1,3.2c-6.3,0.9-12.6,1.5-18.9,1.6c-5.5,0.1-11.1-0.6-16.6-1.3c-3.8-0.4-5.3-1.3-8.5-4.1
		c0.7-2.7,2.5-4,4.2-5.3c5.7-4.5,12.3-7.6,19.5-8c12.4-0.7,24.3-3.7,35.8-8.1c5.1-1.9,9.7,0.5,11.8,4.8
		C1328.3,177.8,1326.2,182.4,1322.3,184.9z M1327.5,149.2c-0.1,1.9-0.7,3.3-2.1,4.7c-2.5,2.4-5.2,4-8.6,4.8
		c-9.4,2.2-18.8,4.8-28.2,7c-4.6,1.1-9.3,1.7-14,2.3c-2.2,0.3-4.3-0.1-6.1-1.7c-1.8-1.7-2.1-3.8-0.6-5.9c1-1.4,2.2-2.8,3.5-4
		c5.9-5.5,12.8-9.2,20.8-10.7c1.3-0.3,2.7-0.5,4-1.1c0.5-0.2,0.9-1.2,1-1.9c0.1-0.4-0.6-1.2-1-1.3c-1.5-0.3-3.1-0.7-4.6-0.6
		c-1.6,0-3.1,0.5-4.7,0.7c-0.9,0.1-1.9-0.2-2.9-0.4c-0.2-3.2,1.4-5.5,2.8-7.8c0.4-0.7,1.5-1.2,2.4-1.5c1.3-0.3,2.7-0.3,4.1-0.4
		c4.9-0.3,9.9-0.6,14.8-1C1318.8,129.7,1327.9,138.6,1327.5,149.2z M1320.1,122.3c-7.1,0.8-14.2,1-21.4,1.5
		c-2.2,0.1-4.4,0.4-6.5,0.4c-4.7,0.1-9,1.2-12,5.2c-0.2,0.3-0.7,0.3-1.4,0.6c-2.1-2.3-2.9-5.4-4.3-8.2c-1.4-2.9-2.6-5.8-3.9-8.7
		c-1.2-2.9-2.7-5.7-3.5-9c1.4-0.5,2.4-1.1,3.5-1.3c16.9-3.1,33.3-1.2,49,5.3c4.7,1.9,8.7,5.4,13,8.2c0.7,0.5,1.1,1.5,2,2.8
		C1329.5,121.6,1324.7,121.8,1320.1,122.3z"/>
	<path id="XMLID_82_" d="M323.4,249c-0.1,0.1-0.3,0.1-0.4,0.2c-0.1,0.1-0.2,0.2-0.2,0.3C323,249.3,323.2,249.1,323.4,249
		c0.1-0.2,0.3-0.3,0.4-0.4C323.7,248.7,323.6,248.9,323.4,249z"/>
	<path id="XMLID_83_" d="M1166.8,1068.3c-1.8-6.3-3.5-12.6-5.3-18.8c-5.3-19.1-11.5-38-18.9-56.4c-3.5-8.7-7.6-17-12.9-24.7
		c-5.9-8.6-13.6-15.5-22.2-21.4c-7.8-5.3-16.4-7.8-25.9-7.5c-1.6,0-3.2,0.1-4.7-0.1c-1.7-0.2-2.4-2.3-1.5-3.7c1-1.4,2.4-2,4-2.4
		c6.2-1.6,12.2-0.8,18.2,0.8c6.4,1.7,12.1,4.8,17.5,8.7c13.3,9.4,23.2,21.6,30.1,36.3c10.2,21.6,18,44.1,21.4,67.8
		C1167.6,1054,1168.3,1061.1,1166.8,1068.3z"/>
	<path id="XMLID_84_" d="M670.4,1160.2c1.4,1.4,2.2,2,2.7,2.7c1.9,3,3.7,6.1,5.5,9.2c6.8,11.7,14.2,22.9,23.1,33.1
		c11.2,12.8,24.3,23.3,39,31.8c13.4,7.8,28,11.9,43.2,14.5c2.1,0.4,4.3,0.7,6.4,1.2c0.9,0.2,1.9,0.7,2.6,1.2c1.4,1,1,3.4-0.5,3.9
		c-1.3,0.4-2.7,0.5-4.1,0.5c-7.4-0.2-14.5-1.7-21.7-3.4c-18.8-4.5-35.6-12.9-50.8-24.9c-14.3-11.3-26.3-24.6-35.4-40.4
		c-3.8-6.6-6.7-13.5-9.2-20.6C670.4,1166.6,669.5,1164.1,670.4,1160.2z"/>
	<path id="XMLID_85_" d="M252.8,975.8c-0.4,1.7-0.8,3.3-1.3,5c-4.6,14.1-9.3,28.2-13.9,42.4c-3.3,10.2-5.9,20.6-6.9,31.3
		c-2,21.8,2.8,42.1,13.2,61.2c1.6,3,3.4,5.8,5.1,8.7c0.7,1.2,1.5,2.4,1.8,3.7c0.2,0.8-0.2,2.1-0.8,2.5c-0.6,0.4-1.8,0.2-2.7,0
		c-0.7-0.2-1.3-0.9-1.8-1.5c-0.9-1-1.8-2.1-2.6-3.2c-10.5-14.6-17.1-30.6-19.8-48.5c-2.3-15.9,0-31.2,3.9-46.5
		c3.1-12.1,7.1-24,12-35.4c2.7-6.2,5.5-12.3,9.8-17.6c0.8-1,1.9-1.9,2.8-2.8C252,975.4,252.4,975.6,252.8,975.8z"/>
	<path id="XMLID_86_" d="M1184.9,1075c-0.7-1.5-1.5-2.6-1.8-3.9c-1.3-6.8-2.5-13.6-3.6-20.5c-2.9-18-4.6-36.1-8.3-54
		c-2-9.5-4.4-18.9-8.3-27.9c-1.6-3.7-3.2-7.2-6-10.2c-0.6-0.7-1-1.7-1.3-2.6c-0.3-0.8,0.8-2.1,1.7-2c0.8,0.1,1.6,0.3,2.2,0.6
		c2.7,1.4,4.8,3.5,6.2,6.2c2,3.9,4,7.7,5.6,11.8c4.1,10.1,6.8,20.7,8.5,31.5c2.1,13.1,4,26.2,5.6,39.4c0.9,7.1,1.1,14.2,1.4,21.3
		C1187.2,1069.8,1186.8,1070.9,1184.9,1075z"/>
	<path id="XMLID_87_" d="M688.1,1227.9c3.9,1.3,6.6,3.6,9.2,6c7.7,7.1,15.8,13.8,24.5,19.9c11.6,8.2,24.5,12.8,38.6,14.3
		c1,0.1,2,0.2,3,0.3c1.2,0.2,2.3,0.7,2.6,2c0.3,1-1.1,2.2-2.9,2.4c-2.4,0.2-4.8,0.3-7.1,0.1c-9-0.6-17.6-3.1-25.7-6.9
		c-12.6-5.8-23.5-14-33.2-23.7c-3.5-3.5-6.3-7.6-8.3-12.2C688.4,1229.4,688.3,1228.6,688.1,1227.9z"/>
	<path id="XMLID_88_" d="M213.7,1072c-2.9-1.3-3.5-3.3-3.6-5.2c-0.4-4.7-0.9-9.5-0.7-14.2c0.8-23.7,8.1-45.5,19.5-66
		c1.3-2.4,3.2-4.5,4.9-6.7c0.4-0.5,1.2-0.8,2.5-1.6c-0.2,1.6-0.1,2.6-0.4,3.4c-1.5,3.9-3,7.8-4.6,11.6c-4.4,10-8.6,20-11.6,30.5
		c-2.4,8.2-3.9,16.6-4.4,25.1c-0.3,6.3-0.6,12.7-0.9,19C214.2,1069,214,1070.2,213.7,1072z"/>
	<path id="XMLID_89_" d="M726.9,670.2c-2.4,1.1-4.9,0.9-7.3,0.3c-11.4-2.6-20.2-8.8-25.9-19.1c-0.8-1.4-1.4-2.9-1.7-4.4
		c-0.1-0.7,0.5-1.9,1.1-2.5c0.8-0.8,2-0.3,2.6,0.5c0.8,1.1,1.5,2.3,2.2,3.5c3.9,7,9.5,12.1,17,14.9c3.1,1.2,6.3,2.3,9.4,3.7
		C725.4,667.7,726.9,668.2,726.9,670.2z"/>
	<path id="XMLID_90_" d="M780.7,681.1c1.1-2.1,2.6-2.2,3.9-2.2c3.6-0.2,7.1-0.3,10.7-0.3c7.9,0.2,15.3-1.7,22.3-5.1
		c0.9-0.4,1.8-0.9,2.7-1.2c0.5-0.1,1.2,0.1,1.5,0.5c0.3,0.3,0.3,1.3,0.1,1.6c-1.2,1.3-2.4,2.6-3.9,3.6c-5,3.4-10.7,5.2-16.6,5.7
		C794.5,684.3,787.7,683.6,780.7,681.1z"/>
	<path id="XMLID_91_" d="M437.5,240.7c-1.2-0.1-2.4,0-3.4-0.4c-3.2-1.1-6.4-2.2-9.4-3.7c-3.3-1.7-6.3-2.1-9.4,0.2
		c-0.6,0.5-1.4,0.9-2.1,1.1c-0.7,0.2-1.8,0.2-2.2-0.1c-0.9-0.9-0.1-1.8,0.6-2.5c0.8-0.8,1.7-1.6,3-2.7c-0.9-0.9-1.6-1.8-2.5-2.4
		c-1.6-1.2-3.3-2.1-4.9-3.3c-0.5-0.4-0.6-1.2-1.2-2.6c2,0.5,3.4,0.5,4.6,1.1c8,3.9,16,7.8,24,11.8
		C435.8,237.7,437.5,238.2,437.5,240.7z"/>
	<path id="XMLID_92_" d="M769.6,456.7c-0.7-0.8-1.4-1.3-1.6-1.9c-1-4.3,1.8-9.6,5.9-11.1c0.5-0.2,1.2-0.2,1.7-0.1
		c0.9,0,1.8,1.4,1.4,2.2c-0.2,0.3-0.3,0.7-0.6,1c-2.4,2.2-3.9,4.9-5.2,7.9C771,455.3,770.3,455.8,769.6,456.7z"/>
	<path id="XMLID_93_" d="M828,460.6c-3.1,0.6-5.1,0.6-6.8,1.4c-1.4,0.7-2.5,2.2-3.9,3.5c-0.4-4.5,1.2-7.8,5-11
		c1.5-1.3,3.1-3,6.1-1.7c-1.7,1.8-3.1,3.3-4.5,4.9C825,458.5,825.9,459.2,828,460.6z"/>
	<path id="XMLID_94_" d="M792.9,443c-0.9,3.2-1.7,6.3-4.3,8.4c-0.4,0.3-1.3,0.4-1.6,0.2c-0.6-0.4-1.3-1.1-1.3-1.7
		c0-3.3,1.3-6.1,3.6-8.5c0.4-0.4,1.5-0.4,2.1-0.2C792,441.6,792.3,442.4,792.9,443z"/>
	<path id="XMLID_95_" d="M751.9,503.1c-0.6,0.7-1,1.4-1.4,1.4c-4.2-0.2-8-1.5-11.3-4.3c-0.3-0.2-0.5-0.6-0.6-1c-0.1-0.3,0-0.8,0.2-1
		c0.2-0.2,0.8-0.4,1-0.3C743.8,499.6,747.7,501.3,751.9,503.1z"/>
	<path id="XMLID_96_" d="M767,440.1c-0.3,2.6-1.1,5.1-3.2,7.2c-0.3,0.3-1.1,0.3-1.6,0.2c-0.3,0-0.7-0.5-0.7-0.8
		c-0.5-3.2,0.8-5.8,3.2-7.8c0.3-0.3,1.1-0.1,1.6,0C766.5,439,766.6,439.6,767,440.1z"/>
	<path id="XMLID_97_" d="M584.3,1347.9c-2.8-1.8-4.1-3.8-3.9-6.6c0-0.2,0-0.4,0-0.6c-0.3-5.5-2.3-8-7.7-8.7
		c-2.4-0.3-4.2-1.1-5.2-3.3c-0.2-0.3-0.1-0.8-0.1-1.4c2.4-2.5,5.6-2.3,8.8-1.9c3.3,0.4,5.9,2.1,8,4.7c2.3,2.8,3.8,6,3.7,9.8
		C587.9,1342.8,587.2,1345.7,584.3,1347.9z"/>
	<path id="XMLID_98_" d="M1086.5,1045.5c-2-1-2-2.2-1.7-3.4c1.5-5.9,5.4-9.6,11-11.4c5.6-1.8,10.6-0.4,14.7,3.8
		c1.4,1.4,2.4,3.1,3.4,4.8c0.3,0.5,0.2,1.7-0.2,2.1c-0.3,0.3-1.5,0.3-2,0c-1.3-0.9-2.5-2-3.6-3.1c-4.6-4.5-11.7-4.7-16.8,1.1
		C1089.6,1041.3,1088.2,1043.4,1086.5,1045.5z"/>
</g>
<path id="XMLID_99_" d="M780.9,260.6c24.8-23.8,47.5-50.2,68-79.2"/>
<polygon id="XMLID_100_" points="849.7,179.5 866.7,287.7 871.4,281.3 "/>
<g id="XMLID_103_">
	<path id="XMLID_102_" class="st0" d="M736.5,365.3c0,0,0,0.3-0.1,0.9c0,0.6-0.2,1.4-0.2,2.6c-0.1,2.2,0.1,5.6,1.1,9.6
		c1,4,2.8,8.8,6.1,13.6c3.2,4.8,7.9,9.5,13.9,13.2c6.1,3.7,13.4,6.3,21.4,7.4c8,1.1,16.7,0.7,25.4-1.1c8.7-1.7,17.4-5,25.9-8.9
		c4.3-2,8.5-4.1,12.7-6.4c4.2-2.3,8.4-4.6,12.2-7.3c1.9-1.3,3.7-2.8,5.4-4.3c0.4-0.4,0.8-0.8,1.2-1.2c0.2-0.2,0.4-0.4,0.6-0.6
		l0.6-0.7c0.7-0.9,1.4-1.7,2-2.7c2.5-3.7,4.1-8,4.1-12.3c0-4.2-1.9-8.6-5.3-10.4c-1.7-0.9-3.7-1.2-5.4-0.7c-0.4,0.1-0.9,0.3-1.2,0.5
		l-0.4,0.2l-0.2,0.2c-0.2,0.1-0.4,0.3-0.5,0.4c-0.7,0.6-1.3,1.4-1.8,2.2c-0.5,0.9-0.8,1.7-1.2,2.8c-0.2,0.9-0.4,1.9-0.5,2.9
		c-0.2,2,0.1,4,0.5,6c0.5,2,1.3,3.8,2.2,5.6c0.5,0.9,1,1.8,1.6,2.5c0.6,0.8,1.3,1.7,1.9,2.3c1.3,1.4,2.8,2.7,4.3,3.8
		c0.8,0.5,1.6,1.1,2.4,1.5l1.2,0.7l1.3,0.6c3.4,1.6,7,2.4,10.4,2.7c7,0.5,13.4-1.6,18-5c4.7-3.3,7.8-7.5,9.7-11.2
		c1.9-3.7,2.7-7,3-9.2c0.2-1.1,0.2-2,0.3-2.6c0-0.6,0.1-0.9,0.1-0.9s0,0.3,0,0.9c0,0.6,0,1.5-0.1,2.6c-0.2,2.2-0.8,5.6-2.6,9.5
		c-1.7,3.9-4.8,8.3-9.5,12c-0.6,0.4-1.2,0.9-1.9,1.3c-0.7,0.4-1.3,0.8-2,1.2c-0.7,0.4-1.5,0.8-2.2,1.1c-0.8,0.3-1.4,0.6-2.3,0.9
		c-3.2,1.1-6.8,1.6-10.6,1.4c-3.7-0.1-7.6-0.9-11.3-2.5c-3.7-1.6-7.3-3.9-10.3-7.1c-0.8-0.8-1.4-1.6-2.1-2.4
		c-0.7-0.9-1.3-1.8-1.9-2.8c-1.1-1.9-2.1-4-2.7-6.3c-0.6-2.2-0.9-4.6-0.7-7c0.1-1.2,0.3-2.4,0.6-3.7c0.3-1.1,0.8-2.3,1.4-3.4
		c0.6-1.1,1.4-2.2,2.4-3.1c0.3-0.2,0.5-0.4,0.8-0.7l0.5-0.3l0.4-0.2c0.7-0.4,1.3-0.6,2-0.8c2.7-0.8,5.6-0.4,8,0.9
		c0.3,0.2,0.6,0.3,0.9,0.5l0.5,0.3l0.3,0.3c0.6,0.4,1,0.9,1.5,1.4c0.9,1,1.7,2.1,2.3,3.3c1.2,2.4,1.7,5,1.8,7.6
		c0.1,5.2-1.8,10.3-4.6,14.5c-2.9,4.3-6.7,7.6-10.7,10.5c-4.1,2.8-8.4,5.1-12.6,7.4c-4.2,2.3-8.5,4.5-12.9,6.5
		c-8.7,4-17.7,7.1-26.7,8.8c-9,1.7-18.1,1.9-26.4,0.6c-8.3-1.3-16-4.3-22.1-8.3c-6.2-4.1-10.8-9.2-13.9-14.3
		c-3.2-5.1-4.9-10-5.7-14.2c-0.8-4.2-0.8-7.5-0.6-9.8c0.1-1.1,0.3-2,0.3-2.6C736.4,365.6,736.5,365.3,736.5,365.3z"/>
</g>
<g id="XMLID_106_">
	<path id="XMLID_105_" class="st0" d="M750.8,236.2l2-0.3c0.7,0,1.4-0.1,2.1-0.1l2.1,0.1l2.1,0.2l2.1,0.4l2,0.5l2,0.6l2,0.8l1.9,0.9
		l1.9,1l1.8,1.2l1.7,1.3l1.6,1.4l1.5,1.5l1.4,1.6l1.3,1.7l1.2,1.8l1.1,1.9l0.9,2l0.8,2l0.6,2.1l0.5,2.1l0.4,2.1
		c0.1,0.7,0.2,1.4,0.2,2.2l0.1,2.2l-0.1,2.2l-0.2,2.2l-0.3,2.1l-0.5,2.1l-0.6,2.1l-0.8,2l-0.9,2l-2-2.3c0.7-0.2,1.4-0.4,2.1-0.5
		c0.7-0.1,1.4-0.1,2.1-0.1c0.7,0,1.4,0.1,2.1,0.2c0.7,0.1,1.4,0.3,2,0.5c0.7,0.2,1.3,0.5,2,0.7c0.6,0.3,1.2,0.6,1.8,1
		c0.6,0.4,1.1,0.8,1.6,1.3l0.7,0.7l0.7,0.8l0.6,0.8l0.6,0.9l0.5,0.9l0.4,0.9c0.2,0.6,0.4,1.3,0.6,1.9c0.1,0.7,0.3,1.3,0.3,2
		c0.1,0.7,0.1,1.3,0,2c0,0.7-0.1,1.3-0.2,2c-0.1,0.6-0.3,1.3-0.5,1.9c-0.2,0.6-0.5,1.2-0.8,1.7c0.2-0.6,0.4-1.2,0.5-1.8
		c0.1-0.6,0.2-1.2,0.2-1.9c0-0.6,0-1.2-0.1-1.8c-0.1-0.6-0.2-1.2-0.3-1.8c-0.1-0.6-0.3-1.2-0.5-1.7c-0.2-0.6-0.5-1.1-0.7-1.6
		c-0.3-0.5-0.6-1-0.9-1.5l-0.5-0.7l-0.6-0.7c-0.2-0.1-0.4-0.4-0.6-0.6l-0.7-0.5c-0.5-0.3-1-0.6-1.5-0.9c-0.5-0.3-1-0.5-1.6-0.7
		c-0.5-0.2-1.1-0.4-1.6-0.5c-0.6-0.1-1.1-0.2-1.7-0.3c-0.6,0-1.1-0.1-1.7,0c-0.6,0-1.1,0.1-1.7,0.2c-0.5,0.1-1.1,0.3-1.6,0.4
		l-3.4,1.1l1.4-3.4l0.7-1.8l0.6-1.8l0.5-1.9l0.4-1.9l0.3-1.9l0.1-1.9l0-1.9l-0.1-1.9c-0.1-0.6-0.1-1.3-0.2-1.9l-0.3-1.9l-0.4-1.9
		l-0.5-1.9l-0.7-1.8l-0.8-1.8l-0.8-1.7l-1-1.7l-1.1-1.6l-1.2-1.5l-1.3-1.4l-1.4-1.4l-1.5-1.3l-1.6-1.2l-1.6-1.1l-1.7-1l-1.8-0.9
		l-1.8-0.8l-1.9-0.7l-1.9-0.6l-2-0.5l-2-0.4l-2-0.2L750.8,236.2z"/>
</g>
<g id="XMLID_109_">
	<path id="XMLID_108_" class="st0" d="M751.3,401.4c0,0,0.2,0.2,0.5,0.6c0.3,0.4,0.8,1.1,1.2,2c0.9,1.9,1.6,4.9,0.9,8.6
		c-0.3,1.8-1,3.7-2,5.5c-1,1.8-2.2,3.6-3.8,5.3c-0.7,0.8-1.5,1.6-2.4,2.4c-0.9,0.8-1.8,1.5-2.7,2.2c-1.9,1.4-4,2.6-6.2,3.6
		c-2.2,1-4.5,1.7-6.8,2.3c-1.2,0.3-2.3,0.5-3.5,0.6c-0.6,0-1.1,0.1-1.7,0.1c-0.6,0-1.1,0.1-1.7,0.1c-2.3,0-4.4-0.2-6.5-0.6
		c-2-0.4-3.9-0.9-5.5-1.6c-1.7-0.6-3.1-1.3-4.4-2c-1.3-0.7-2.3-1.4-3.1-2c-0.8-0.6-1.4-1.1-1.8-1.5c-0.4-0.4-0.6-0.5-0.6-0.5
		s0.3,0.1,0.7,0.4c0.5,0.3,1.2,0.6,2.1,1c0.9,0.4,2,0.9,3.3,1.3c1.3,0.5,2.8,0.9,4.4,1.3c1.6,0.4,3.4,0.7,5.3,0.8
		c1.9,0.2,3.9,0.2,5.9,0.1c0.5,0,1.1-0.1,1.6-0.1c0.5,0,1-0.1,1.5-0.2c1-0.2,2.1-0.4,3.1-0.6c2.1-0.5,4.1-1.2,6.1-2.1
		c2-0.9,3.9-1.9,5.7-3.2c0.9-0.6,1.7-1.2,2.5-1.9c0.8-0.6,1.5-1.3,2.3-2.1c1.4-1.4,2.7-2.9,3.8-4.4c1-1.5,1.8-3.1,2.3-4.6
		c0.5-1.5,0.7-3,0.8-4.3c0-1.3-0.1-2.5-0.3-3.5c-0.2-0.9-0.5-1.7-0.7-2.2C751.5,401.6,751.3,401.4,751.3,401.4z"/>
</g>
<g id="XMLID_112_">
	<path id="XMLID_111_" class="st0" d="M843.4,396.8c0,0-0.1,1-0.4,2.8c-0.2,1.8-0.6,4.4-0.9,7.4c-0.1,1.5-0.2,3.2-0.2,4.9
		c0,1.7,0.1,3.5,0.2,5.4c0,0.5,0.1,0.9,0.1,1.4c0.1,0.5,0.1,1,0.2,1.4c0.2,0.9,0.3,1.9,0.5,2.8c0.4,1.9,1,3.8,1.8,5.6
		c0.7,1.8,1.6,3.5,2.7,5.1c1.1,1.6,2.2,3,3.5,4.3c1.3,1.2,2.7,2.3,4.1,3.2c1.4,0.9,2.9,1.6,4.3,2.1c2.8,1,5.3,1.3,7.1,1.4
		c0.9,0,1.6,0,2.1-0.1c0.5,0,0.7-0.1,0.7-0.1s-0.2,0.1-0.7,0.3c-0.5,0.2-1.1,0.4-2.1,0.6c-0.9,0.2-2,0.4-3.3,0.4
		c-1.3,0-2.8-0.1-4.4-0.4c-1.6-0.3-3.3-0.9-5-1.7c-1.7-0.8-3.4-1.9-5-3.2c-1.5-1.3-3-2.9-4.3-4.7c-1.3-1.8-2.3-3.7-3.1-5.7
		c-0.8-2-1.4-4.1-1.8-6.2c-0.2-1-0.4-2.1-0.5-3.2c-0.1-0.5-0.1-1-0.1-1.5c0-0.5,0-1-0.1-1.5c-0.1-2,0.1-4,0.3-5.8
		c0.2-1.8,0.5-3.5,0.9-5c0.7-3.1,1.6-5.5,2.2-7.3C843,397.7,843.4,396.8,843.4,396.8z"/>
</g>
<g id="XMLID_115_">
	<path id="XMLID_114_" d="M854.5,634c0,0-0.1-0.1-0.2-0.4c-0.1-0.3-0.4-0.7-0.5-1.3c-0.1-0.6-0.2-1.4,0-2.3c0.1-0.9,0.4-1.8,0.9-2.8
		c0.5-1,1.1-2,1.8-2.9c0.4-0.4,0.8-0.9,1.2-1.3c0.3-0.4,0.9-0.9,1.4-1.3c0.5-0.5,1-0.9,1.5-1.3c0.5-0.4,1.1-0.8,1.6-1.2
		c0.6-0.4,1.1-0.7,1.8-1.1c0.6-0.3,1.2-0.6,1.8-0.9c0.6-0.3,1.3-0.5,1.9-0.8c0.6-0.3,1.3-0.5,1.9-0.6c0.6-0.2,1.3-0.4,2-0.5
		c0.7-0.1,1.3-0.3,1.9-0.3c1.3-0.2,2.5-0.2,3.7-0.2c0.6,0,1.2,0.1,1.7,0.1c0.5,0.1,1.1,0.2,1.6,0.2c1,0.2,1.9,0.4,2.7,0.7
		c0.8,0.3,1.4,0.5,2,0.7c1.1,0.5,1.6,0.8,1.6,0.8s-0.7,0.1-1.8,0.1c-0.6,0-1.3,0.1-2,0.2c-0.8,0.1-1.6,0.2-2.5,0.3
		c-0.9,0.1-1.9,0.3-2.9,0.5c-1,0.2-2.1,0.5-3.2,0.8c-1.1,0.3-2.2,0.6-3.3,1c-0.6,0.2-1.1,0.4-1.6,0.6c-0.5,0.2-1.1,0.4-1.6,0.7
		c-0.5,0.2-1.1,0.5-1.6,0.8c-0.5,0.3-1.1,0.5-1.5,0.8c-1,0.6-2,1.2-2.9,1.8c-0.4,0.3-0.9,0.5-1.3,0.9c-0.2,0.2-0.5,0.3-0.7,0.5
		l-0.3,0.3l-0.2,0.1l0,0c0.1-0.1,0,0,0,0l-0.1,0.1c-0.8,0.6-1.5,1.2-2.1,1.9c-1.2,1.2-1.9,2.5-2.2,3.5c-0.1,0.5-0.2,0.9-0.2,1.2
		C854.5,633.8,854.5,634,854.5,634z"/>
</g>
<g id="XMLID_118_">
	<path id="XMLID_117_" d="M779.2,882.2c0,0-0.4,0.3-1.1,1c-0.8,0.6-1.8,1.7-3.1,3.1c-2.5,2.9-5.8,7.5-8.6,14
		c-2.8,6.5-5.1,14.9-7.1,24.6c-2,9.7-3.9,20.8-5.3,32.9c-1.3,12.1-2.1,25.4-1.7,39.3c0.2,7,0.7,14.1,1.7,21.4
		c0.2,1.8,0.5,3.6,0.8,5.5c0.3,1.8,0.5,3.7,0.9,5.5c0.3,1.8,0.7,3.7,1,5.5c0.4,1.9,0.8,3.7,1.2,5.6c1.7,7.4,3.9,14.8,6.5,22.1
		c2.7,7.3,5.9,14.6,9.5,21.6c7.3,14.1,16.9,27.4,28.2,38.8c5.6,5.7,11.9,10.9,18.5,15.5c6.6,4.5,13.5,8.6,20.8,11.8
		c14.5,6.4,29.9,10.4,45,11c7.5,0.4,15,0,22.2-1.2c0.9-0.1,1.8-0.2,2.7-0.4c0.9-0.2,1.8-0.4,2.6-0.6c0.9-0.2,1.8-0.4,2.6-0.6
		l1.3-0.3l1.3-0.3c3.5-0.9,6.8-1.9,10.1-3.1c13.1-4.8,24.6-11.3,34.9-17.8c5.2-3.3,10-6.5,14.6-9.8c4.5-3.2,8.8-6.4,12.7-9.4
		c7.8-6.1,14.3-11.8,19.6-16.7c5.2-4.9,9.2-8.8,11.9-11.5c2.7-2.8,4.1-4.2,4.1-4.2s-1.4,1.5-3.9,4.4c-2.6,2.8-6.4,6.9-11.6,11.9
		c-5.1,5-11.5,10.9-19.2,17.2c-7.7,6.4-16.7,13.2-27,19.9c-10.3,6.7-21.8,13.5-35.1,18.6c-3.3,1.3-6.8,2.4-10.2,3.4l-1.3,0.4
		l-1.4,0.3c-0.9,0.2-1.8,0.4-2.7,0.6c-0.9,0.2-1.8,0.4-2.7,0.6c-0.9,0.2-1.8,0.3-2.8,0.5c-7.4,1.4-15,1.7-22.8,1.4
		c-15.5-0.5-31.4-4.5-46.3-11c-7.4-3.3-14.6-7.4-21.4-12.1c-6.8-4.7-13.2-9.9-19-15.8c-11.6-11.8-21.3-25.4-28.7-39.8
		c-3.7-7.2-6.9-14.6-9.6-22.1c-2.6-7.5-4.8-15.1-6.5-22.6c-3.4-15-4.9-30-5.1-44.1c-0.3-14.1,0.8-27.4,2.3-39.6
		c1.5-12.2,3.8-23.3,6-32.9c2.2-9.7,4.7-18.1,7.8-24.6c3-6.6,6.5-11.1,9.1-13.9c1.3-1.4,2.4-2.4,3.2-3
		C778.8,882.5,779.2,882.2,779.2,882.2z"/>
</g>
<g id="XMLID_121_">
	<path id="XMLID_120_" d="M430.1,1184.2c0,0-1.8-1.1-5.1-3.1c-3.3-2-8.2-5.1-14.2-9.2c-6-4.2-13.2-9.4-21.1-15.8
		c-7.9-6.4-16.5-14.1-25.3-23.1c-4.4-4.5-8.7-9.5-12.8-15c-4-5.5-7.8-11.6-10.6-18.3c-0.4-0.8-0.7-1.7-1-2.5
		c-0.3-0.9-0.7-1.7-0.9-2.6c-0.3-0.9-0.6-1.7-0.9-2.7c-0.2-0.9-0.5-1.8-0.7-2.7c-0.3-0.9-0.4-1.8-0.6-2.7c-0.2-0.9-0.4-1.9-0.5-2.8
		c-0.3-1.9-0.6-3.8-0.7-5.7c-0.2-1.9-0.2-3.8-0.3-5.8c0-1,0-1.9,0-2.9c0-1,0.1-2,0.1-2.9c0.2-3.9,0.8-7.8,1.6-11.7
		c1.6-7.8,4.2-15.5,7.7-22.9c3.5-7.4,7.8-14.5,12.7-21.2c9.8-13.5,21.6-25.5,34-36.8c3.1-2.8,6.1-5.7,9.3-8.4
		c3.2-2.7,6.4-5.4,9.5-8.2l2.4-2l2.4-2c1.6-1.3,3.2-2.6,4.9-3.9c3.2-2.6,6.4-5.2,9.7-7.7c3.3-2.5,6.5-5,9.8-7.4
		c3.3-2.4,6.6-4.8,9.9-7.1c3.3-2.4,6.6-4.6,9.9-6.9c3.3-2.2,6.5-4.5,9.8-6.7c13.1-8.7,25.9-16.7,38.3-23.9
		c6.2-3.7,12.2-7.1,18.1-10.5c5.9-3.3,11.6-6.5,17.1-9.5c5.5-3,10.7-5.9,15.8-8.6c5-2.7,9.8-5.2,14.3-7.6c9-4.7,16.9-8.8,23.4-12.1
		c6.5-3.4,11.6-5.9,15.1-7.7c3.5-1.8,5.3-2.7,5.3-2.7s-7.3,4-20.1,11.1c-6.4,3.5-14.2,7.8-23.1,12.7c-8.9,5-18.9,10.6-29.8,16.8
		c-5.4,3.1-11,6.4-16.9,9.8c-5.8,3.5-11.8,7-17.9,10.8c-3,1.9-6.1,3.8-9.3,5.7c-3.1,1.9-6.2,4-9.4,6c-6.4,4-12.7,8.3-19.3,12.6
		c-3.3,2.2-6.5,4.4-9.7,6.7c-3.3,2.3-6.6,4.5-9.8,6.9c-3.2,2.4-6.5,4.7-9.8,7.1c-3.2,2.5-6.5,5-9.7,7.4c-3.3,2.5-6.5,5.1-9.7,7.7
		c-1.6,1.3-3.2,2.6-4.8,3.9l-2.4,2l-2.3,2c-3.1,2.7-6.3,5.4-9.4,8.1c-3.1,2.7-6.1,5.6-9.2,8.4c-12.3,11.2-24,23-33.7,36.1
		c-4.8,6.6-9,13.4-12.4,20.6c-3.4,7.2-6,14.6-7.5,22.1c-1.6,7.5-2.2,15.1-1.6,22.5c0.1,1.8,0.4,3.7,0.6,5.5c0.1,0.9,0.3,1.8,0.5,2.7
		c0.2,0.9,0.3,1.8,0.6,2.7c0.2,0.9,0.4,1.8,0.7,2.7c0.3,0.8,0.5,1.7,0.8,2.5c0.2,0.9,0.6,1.7,0.9,2.5c0.3,0.8,0.6,1.7,1,2.5
		c2.7,6.5,6.2,12.5,10.1,17.9c3.9,5.4,8.1,10.4,12.3,14.9c8.6,9.1,17,16.9,24.6,23.5c7.7,6.6,14.7,12,20.6,16.3
		c5.9,4.3,10.6,7.5,13.9,9.6C428.3,1183.1,430.1,1184.2,430.1,1184.2z"/>
</g>
<g id="XMLID_124_">
	<path id="XMLID_123_" d="M701.2,1123.7c0,0,1.1,0.2,3,0.5c0.9,0.2,2.1,0.4,3.4,0.5c0.7,0.1,1.3,0.2,2.1,0.3
		c0.7,0.1,1.5,0.2,2.3,0.2c1.6,0.2,3.4,0.3,5.2,0.4c0.9,0.1,1.9,0.1,2.9,0.1c1,0,2,0,3,0c2-0.1,4.1-0.1,6.2-0.3
		c2.1-0.1,4.2-0.5,6.4-0.7c2.1-0.4,4.2-0.7,6.3-1.2c2.1-0.4,4.1-1,6-1.5c1-0.3,1.9-0.6,2.8-0.9c0.9-0.3,1.8-0.6,2.7-0.9
		c1.7-0.7,3.4-1.3,4.9-1.9c0.7-0.3,1.5-0.6,2.1-0.9c0.7-0.3,1.3-0.6,1.9-0.9c1.2-0.6,2.3-1.1,3.1-1.5c1.7-0.9,2.7-1.4,2.7-1.4
		s-0.8,0.7-2.3,2c-0.7,0.7-1.7,1.4-2.8,2.1c-0.6,0.4-1.1,0.8-1.8,1.3c-0.6,0.4-1.3,0.8-2,1.3c-0.7,0.4-1.5,0.9-2.3,1.3
		c-0.8,0.4-1.6,0.8-2.5,1.3c-0.9,0.5-1.8,0.8-2.7,1.2c-0.9,0.4-1.9,0.8-2.9,1.2c-2,0.7-4,1.5-6.2,1.9c-2.1,0.6-4.4,1-6.6,1.4
		c-2.2,0.2-4.5,0.6-6.7,0.6c-2.2,0.2-4.4,0-6.5,0c-1.1-0.1-2.1-0.1-3.1-0.2c-1-0.1-2-0.2-2.9-0.4c-0.9-0.2-1.9-0.3-2.8-0.4
		c-0.9-0.2-1.7-0.4-2.6-0.6c-0.8-0.2-1.6-0.4-2.3-0.6c-0.7-0.2-1.4-0.5-2.1-0.7c-1.3-0.4-2.4-0.8-3.3-1.2
		C702.2,1124.1,701.2,1123.7,701.2,1123.7z"/>
</g>
<g id="XMLID_127_">
	<path id="XMLID_126_" d="M711.3,1138.5c0,0,1.1,0,3,0c1,0,2.1,0,3.4,0c1.3,0,2.8,0,4.4,0c1.6,0,3.4-0.1,5.2-0.1
		c1.8,0,3.8-0.2,5.8-0.3c2-0.1,4.1-0.3,6.2-0.5c2.1-0.2,4.2-0.5,6.4-0.7c2.1-0.3,4.2-0.5,6.3-0.9c2.1-0.3,4.1-0.7,6.1-1.1
		c2-0.4,3.9-0.8,5.7-1.2c1.8-0.4,3.5-0.8,5.1-1.2c1.6-0.4,3-0.8,4.3-1.1c1.3-0.3,2.4-0.6,3.3-0.9c1.8-0.5,2.9-0.8,2.9-0.8
		s-0.9,0.6-2.6,1.5c-0.8,0.5-1.9,1-3.1,1.5c-0.6,0.3-1.3,0.6-1.9,0.9c-0.7,0.3-1.4,0.6-2.2,0.9c-0.8,0.3-1.6,0.6-2.4,1
		c-0.8,0.3-1.7,0.6-2.6,0.9c-1.8,0.6-3.7,1.2-5.7,1.7c-2,0.5-4.1,1.1-6.2,1.4c-2.1,0.4-4.3,0.7-6.5,1.1c-2.2,0.2-4.4,0.5-6.5,0.6
		c-2.2,0.2-4.3,0.1-6.4,0.2c-2.1,0-4.1-0.1-5.9-0.2c-0.9-0.1-1.9-0.1-2.7-0.2c-0.9-0.1-1.7-0.2-2.6-0.3c-0.8-0.1-1.6-0.2-2.3-0.3
		c-0.7-0.1-1.4-0.3-2.1-0.4c-1.3-0.2-2.5-0.5-3.4-0.7C712.4,1138.8,711.3,1138.5,711.3,1138.5z"/>
</g>
<g id="XMLID_130_">
	<path id="XMLID_129_" d="M724.9,1153c0,0,0.8-0.1,2.1-0.1c1.4-0.1,3.2-0.2,5.5-0.3c1.1-0.1,2.3-0.2,3.6-0.3c1.3-0.1,2.6-0.3,4-0.4
		c1.4-0.2,2.8-0.3,4.3-0.6c1.4-0.2,2.9-0.5,4.4-0.7c1.5-0.3,2.9-0.6,4.3-0.9c1.4-0.3,2.8-0.7,4.2-1c1.3-0.4,2.7-0.7,3.9-1
		c1.2-0.4,2.4-0.7,3.5-1c2.2-0.6,4-1.2,5.2-1.6c1.3-0.4,2-0.6,2-0.6s-0.6,0.5-1.7,1.3c-0.5,0.4-1.2,0.9-2,1.4
		c-0.8,0.5-1.7,1.1-2.7,1.6c-1,0.6-2.1,1.1-3.4,1.7c-1.2,0.6-2.5,1.1-3.9,1.6c-1.4,0.5-2.8,1-4.3,1.3c-1.5,0.4-3,0.7-4.5,1
		c-1.5,0.2-3.1,0.5-4.6,0.6c-1.5,0.2-3,0.2-4.5,0.3c-1.5,0-2.9,0-4.2-0.1c-1.3-0.1-2.6-0.2-3.7-0.4c-1.2-0.1-2.2-0.3-3.1-0.5
		c-0.9-0.2-1.7-0.4-2.4-0.6C725.6,1153.3,724.9,1153,724.9,1153z"/>
</g>
<g id="XMLID_133_">
	<path id="XMLID_132_" d="M266,1049c0,0,0.1,0.3,0.2,0.9c0.2,0.6,0.5,1.4,1,2.3c0.5,0.9,1.3,2,2.3,3.1c1,1,2.3,2.1,3.9,2.9
		c0.8,0.4,1.6,0.8,2.5,1.1c0.9,0.3,1.8,0.6,2.8,0.8c2,0.5,4.2,0.7,6.4,0.8c1.1,0.1,2.3,0.1,3.5,0.1c1.2,0,2.4,0,3.7,0
		c2.4,0,4.9-0.1,7.3-0.4c1.2-0.1,2.4-0.2,3.7-0.4c1.2-0.1,2.4-0.3,3.6-0.5c1.2-0.2,2.4-0.5,3.5-0.7c1.2-0.2,2.3-0.5,3.4-0.8
		c1.1-0.3,2.2-0.6,3.2-1c1-0.4,2.1-0.7,3.1-1.1c1-0.4,1.9-0.8,2.8-1.2c0.9-0.4,1.8-0.8,2.6-1.2c0.8-0.4,1.6-0.9,2.3-1.3
		c0.7-0.4,1.4-0.9,2-1.3c0.3-0.2,0.6-0.4,0.9-0.6c0.3-0.2,0.6-0.4,0.8-0.6c0.5-0.4,1-0.7,1.5-1.1c1.7-1.4,2.7-2.2,2.7-2.2
		s-0.2,0.3-0.6,0.7c-0.4,0.5-0.9,1.2-1.6,2c-0.4,0.4-0.8,0.9-1.3,1.3c-0.5,0.5-1,1-1.6,1.5c-0.6,0.5-1.2,1.1-1.9,1.6
		c-0.7,0.5-1.5,1.1-2.2,1.6c-0.8,0.5-1.7,1.1-2.6,1.6c-0.9,0.5-1.9,1-2.9,1.5c-1,0.5-2,0.9-3.1,1.4c-1.1,0.4-2.2,0.8-3.3,1.2
		c-2.3,0.7-4.7,1.4-7.2,1.9c-1.2,0.2-2.5,0.5-3.8,0.6c-1.3,0.2-2.5,0.3-3.8,0.4c-2.6,0.2-5.1,0.3-7.7,0.3c-1.3,0-2.5-0.1-3.7-0.1
		c-1.3-0.1-2.5-0.2-3.7-0.3c-2.4-0.3-4.8-0.7-6.9-1.4c-1.1-0.4-2.1-0.7-3.1-1.2c-0.9-0.5-1.9-1-2.7-1.6c-1.6-1.2-2.9-2.5-3.8-3.8
		c-1-1.3-1.5-2.6-1.9-3.7c-0.4-1.1-0.4-2-0.5-2.6C266.1,1049.3,266,1049,266,1049z"/>
</g>
<g id="XMLID_136_">
	<path id="XMLID_135_" d="M266.9,1034.2c0,0,0.1,0.2,0.4,0.5c0.1,0.2,0.3,0.4,0.4,0.6c0.2,0.2,0.4,0.5,0.6,0.8
		c0.5,0.6,1.1,1.2,1.9,1.8c0.8,0.6,1.8,1.2,2.9,1.8c1.1,0.6,2.4,1,3.7,1.4c1.4,0.4,2.8,0.7,4.4,0.9c1.5,0.2,3.1,0.4,4.8,0.4
		c0.8,0,1.7,0,2.5,0c0.8,0,1.7,0,2.5,0c1.7,0,3.4-0.2,5-0.3c1.7-0.2,3.3-0.3,4.9-0.6c3.2-0.4,6.1-1,8.6-1.6c1.2-0.3,2.4-0.6,3.4-0.8
		c1-0.3,1.9-0.5,2.6-0.7c1.5-0.4,2.3-0.6,2.3-0.6s-0.2,0.1-0.5,0.4c-0.3,0.2-0.8,0.6-1.5,1c-1.3,0.8-3.3,1.9-5.7,2.9
		c-1.2,0.5-2.6,1-4,1.5c-1.5,0.5-3,0.9-4.6,1.3c-3.3,0.7-6.8,1.2-10.4,1.3c-0.9,0-1.8,0-2.7,0c-0.9,0-1.7-0.1-2.6-0.1
		c-1.8-0.1-3.5-0.4-5.2-0.8c-3.3-0.8-6.4-2.1-8.6-3.7c-0.6-0.4-1.1-0.8-1.5-1.3c-0.4-0.5-0.9-0.9-1.2-1.3c-0.7-0.9-1.2-1.7-1.5-2.4
		c-0.2-0.4-0.3-0.7-0.4-1c-0.1-0.3-0.2-0.5-0.2-0.7C267,1034.4,266.9,1034.2,266.9,1034.2z"/>
</g>
<g id="XMLID_139_">
	<path id="XMLID_138_" d="M289.3,1015.7c0,0,0.5,0,1.4,0.1c0.9,0.1,2.1,0.2,3.6,0.2c0.7,0.1,1.5,0,2.4,0.1c0.8,0,1.7,0,2.6,0
		c0.9,0,1.8,0,2.8-0.1c0.9,0,1.9-0.1,2.8-0.2c0.9-0.1,1.9-0.2,2.8-0.3c0.9-0.1,1.8-0.3,2.7-0.4c0.9-0.2,1.8-0.3,2.6-0.5
		c0.8-0.2,1.6-0.3,2.3-0.5c1.4-0.3,2.7-0.7,3.5-0.9c0.9-0.2,1.4-0.3,1.4-0.3s-0.4,0.4-1,1c-0.3,0.3-0.8,0.7-1.3,1
		c-0.5,0.4-1.1,0.8-1.8,1.2c-0.7,0.4-1.4,0.8-2.2,1.2c-0.8,0.4-1.7,0.7-2.6,1.1c-0.9,0.3-1.9,0.6-2.9,0.8c-1,0.2-2.1,0.3-3.1,0.5
		c-1.1,0.1-2.1,0.2-3.1,0.1c-1,0-2.1-0.1-3-0.2c-1-0.2-1.9-0.3-2.8-0.5c-0.9-0.2-1.7-0.5-2.4-0.8c-0.7-0.2-1.4-0.5-2-0.8
		c-0.6-0.3-1.1-0.5-1.4-0.8C289.7,1016,289.3,1015.7,289.3,1015.7z"/>
</g>
<g id="XMLID_142_">
	<path id="XMLID_141_" d="M705,789.2l2.3-0.3l2.2-0.5l2.2-0.6l2.1-0.7l2.1-0.9l2-1l2-1.1l1.9-1.2l1.8-1.3l1.7-1.4l1.7-1.5l1.6-1.6
		l1.5-1.6l1.5-1.7l1.4-1.7l1.3-1.8l1.3-1.9l1.2-1.9c0.8-1.3,1.5-2.6,2.2-3.9c0.7-1.3,1.4-2.7,2-4c0.6-1.4,1.2-2.7,1.8-4.1
		c0.6-1.4,1.1-2.8,1.7-4.2c0.5-1.4,1.1-2.8,1.6-4.2c1-2.8,2-5.7,3-8.6l3.8,2.4l-2.7,2.7l-2.7,2.6l-2.8,2.5l-2.9,2.4l-3,2.3l-3,2.3
		l-3.1,2.2l-3.2,2.1l-3.2,2l-3.3,1.9l-3.3,1.8l-3.4,1.7l-3.4,1.6l-3.5,1.5l-3.5,1.4l-3.6,1.3l-1.7-4.2c1.3-0.7,2.6-1.2,3.8-2
		l1.9-1.1c0.6-0.4,1.2-0.8,1.8-1.2c1.2-0.8,2.4-1.7,3.5-2.5c1.1-0.9,2.3-1.8,3.4-2.8c1.1-1,2.2-1.9,3.2-3c1-1,2-2.1,3-3.2
		c1-1.1,1.8-2.3,2.7-3.4c0.8-1.2,1.7-2.4,2.5-3.6l1.2-1.9c0.4-0.6,0.7-1.3,1.1-1.9c0.7-1.3,1.3-2.6,2-3.9c0.6-1.3,1.2-2.7,1.7-4.1
		c0.5-1.4,1-2.8,1.4-4.2c0.4-1.4,0.9-2.9,1-4.2c0-0.3,0-0.7,0-1c0-0.2,0-0.4,0-0.5l-0.1-0.6c-0.2-0.6-0.4-1.3-0.8-1.9
		c-0.7-1.3-1.7-2.4-2.4-3.7c-0.8-1.3-1.5-2.8-1.4-4.3c0.1,1.5,0.9,2.8,1.8,4c0.9,1.2,2,2.2,2.9,3.5c0.4,0.6,0.8,1.4,1.1,2.1l0.2,0.5
		c0.1,0.3,0.1,0.4,0.1,0.6c0.1,0.4,0.1,0.8,0.1,1.2c0,1.6-0.4,3.1-0.7,4.6c-0.3,1.5-0.7,3-1.1,4.5c-0.4,1.5-0.9,2.9-1.4,4.4
		c-0.6,1.4-1.1,2.9-1.8,4.2c-0.3,0.7-0.6,1.4-1,2.1l-1.1,2c-0.7,1.4-1.6,2.6-2.4,4c-0.9,1.2-1.7,2.5-2.7,3.7c-1,1.2-1.9,2.4-3,3.6
		c-1,1.2-2.1,2.2-3.2,3.3c-1.1,1.1-2.3,2.1-3.5,3.1c-1.2,0.9-2.4,1.9-3.7,2.8c-0.6,0.4-1.3,0.9-1.9,1.3l-2,1.2
		c-1.3,0.8-2.7,1.5-4.1,2.2l-1.7-4.2l3.4-1.3l3.4-1.4l3.3-1.5l3.3-1.6l3.3-1.7l3.2-1.7l3.2-1.8l3.1-1.9l3.1-2l3-2.1l2.9-2.2l2.9-2.2
		l2.8-2.3l2.8-2.4l2.7-2.5l2.6-2.5l7.4-7.1l-3.6,9.5c-2.2,5.7-4.3,11.5-7,17.1c-0.7,1.4-1.4,2.8-2.1,4.2c-0.7,1.4-1.5,2.7-2.3,4.1
		c-0.8,1.3-1.6,2.7-2.5,4l-1.4,1.9l-1.4,1.8l-1.5,1.8l-1.6,1.7l-1.7,1.7l-1.7,1.6l-1.8,1.5l-1.9,1.4l-1.9,1.3l-2,1.2l-2.1,1.1
		c-0.7,0.3-1.4,0.7-2.1,1l-2.2,0.8l-2.2,0.7l-2.3,0.5l-2.3,0.4l-2.3,0.2L705,789.2z"/>
</g>
<g id="XMLID_145_">
	<path id="XMLID_144_" d="M658.3,1300.8c0,0,0.5,0.4,1.4,1.2c0.5,0.4,1.1,0.8,1.7,1.5c0.6,0.6,1.3,1.4,2.2,2.2
		c0.7,0.9,1.5,1.9,2.4,3c0.4,0.6,0.8,1.2,1.2,1.8c0.4,0.6,0.9,1.3,1.2,2c1.7,2.8,3.2,6.2,4.4,10c1.2,3.8,2,8.2,2.3,12.8
		c0.3,4.6,0.1,9.5-0.8,14.6c-0.1,0.6-0.2,1.3-0.3,1.9c-0.1,0.6-0.3,1.3-0.4,1.9c-0.2,0.6-0.3,1.3-0.5,1.9l-0.6,1.9l-0.5,1.8
		l-0.7,1.9c-0.4,1.3-1,2.5-1.5,3.7c-2.1,4.9-4.7,9.6-7.7,14c-3,4.4-6.3,8.6-9.8,12.5c-3.5,3.9-7.1,7.4-10.8,10.7
		c-0.9,0.8-1.8,1.6-2.7,2.4c-0.9,0.8-1.8,1.5-2.7,2.3c-1.9,1.5-3.7,3-5.5,4.3c-3.7,2.7-7.3,5-10.8,6.8c-3.5,1.9-6.9,3.2-10,4.2
		c-3.1,1-5.8,1.6-8.1,1.8c-1.1,0.2-2.2,0.2-3,0.3c-0.9,0.1-1.6,0.1-2.2,0.1c-1.2,0-1.9,0-1.9,0s0.6-0.1,1.8-0.4
		c1.2-0.2,2.9-0.7,5-1.4c2.1-0.7,4.6-1.7,7.4-3c2.7-1.4,5.7-3.1,8.8-5.3c3.1-2.1,6.3-4.7,9.6-7.5c1.6-1.4,3.3-2.9,4.9-4.5
		c0.8-0.8,1.7-1.6,2.5-2.4c0.8-0.8,1.7-1.6,2.5-2.5c3.3-3.4,6.7-6.9,9.9-10.7c3.2-3.8,6.3-7.7,9-11.8c2.8-4.1,5.2-8.4,7.2-12.8
		c0.5-1.1,1-2.2,1.4-3.3l0.7-1.6l0.6-1.8l0.6-1.7l0.5-1.7c0.2-0.6,0.3-1.1,0.5-1.7c0.1-0.6,0.3-1.1,0.4-1.7c1-4.5,1.6-8.9,1.7-13.1
		c0.1-4.2-0.2-8.2-0.9-11.9c-0.1-0.9-0.4-1.8-0.6-2.7c-0.2-0.9-0.4-1.7-0.7-2.5c-0.2-0.8-0.5-1.6-0.7-2.4c-0.3-0.8-0.6-1.5-0.8-2.2
		c-0.5-1.4-1.2-2.7-1.7-3.9c-0.6-1.2-1.2-2.2-1.8-3.2c-0.6-0.9-1.2-1.7-1.6-2.5c-0.5-0.7-1-1.3-1.3-1.8
		C658.7,1301.3,658.3,1300.8,658.3,1300.8z"/>
</g>
<g id="XMLID_148_">
	<path id="XMLID_147_" d="M597.9,1437.2c0,0,0.4-0.1,1-0.2c0.7-0.2,1.6-0.4,2.9-0.7c1.2-0.3,2.7-0.7,4.4-1.1c1.7-0.5,3.5-1,5.5-1.7
		c2-0.7,4.1-1.4,6.4-2.3c2.2-0.9,4.5-1.9,6.8-3c2.3-1.1,4.6-2.4,7-3.8c2.3-1.4,4.6-2.9,6.8-4.5c1-0.8,2.3-1.7,3.3-2.5
		c1-0.8,2.1-1.7,3.1-2.6c2-1.8,3.9-3.7,5.7-5.5c1.7-1.9,3.4-3.8,4.9-5.6c1.5-1.8,2.9-3.7,4.1-5.4c1.2-1.7,2.3-3.3,3.2-4.8
		c0.9-1.5,1.7-2.8,2.4-3.9c0.6-1.1,1.1-2,1.5-2.6c0.3-0.6,0.5-0.9,0.5-0.9s0,0.4-0.1,1c-0.1,0.7-0.2,1.7-0.5,2.9
		c-0.2,1.3-0.6,2.8-1.1,4.5c-0.3,0.9-0.6,1.8-0.9,2.7c-0.3,1-0.8,1.9-1.2,3c-0.9,2-1.9,4.2-3.2,6.5c-1.3,2.2-2.8,4.5-4.5,6.7
		c-1.7,2.2-3.7,4.4-5.8,6.5c-1.1,1-2.1,2.1-3.3,3.1c-1.2,1.1-2.2,1.8-3.5,2.8c-2.5,1.8-5,3.4-7.6,4.8c-2.6,1.4-5.3,2.6-7.9,3.6
		c-2.6,1-5.3,1.8-7.8,2.3c-2.5,0.6-4.9,0.9-7.1,1.2c-1.1,0.1-2.2,0.2-3.2,0.2c-1,0-2,0.1-2.9,0.1c-1.8,0-3.4-0.1-4.7-0.3
		c-1.3-0.1-2.3-0.3-3-0.4C598.2,1437.2,597.9,1437.2,597.9,1437.2z"/>
</g>
<g id="XMLID_151_">
	<path id="XMLID_150_" d="M1118.9,454.5c0,0,0.5-0.1,1.3-0.2c0.4-0.1,0.9-0.1,1.5-0.1c0.6,0,1.3,0,2,0c0.7,0,1.5,0.2,2.3,0.3
		c0.8,0.2,1.6,0.4,2.5,0.7c0.8,0.3,1.7,0.7,2.5,1.1c0.9,0.4,1.6,1,2.5,1.5c0.8,0.6,1.5,1.2,2.2,1.8c0.7,0.6,1.3,1.3,1.9,2
		c0.5,0.7,1.1,1.4,1.5,2.1c0.4,0.7,0.8,1.4,1.1,2.1c0.3,0.6,0.5,1.3,0.7,1.8c0.2,0.5,0.3,1,0.4,1.5c0.1,0.8,0.2,1.3,0.2,1.3
		s-0.3-0.4-0.9-1c-0.2-0.3-0.6-0.7-0.9-1.1c-0.4-0.4-0.8-0.9-1.2-1.3c-0.4-0.5-0.9-1-1.5-1.5c-0.5-0.5-1.1-1-1.7-1.6
		c-0.6-0.5-1.2-1.1-1.9-1.6c-0.6-0.5-1.3-1-2-1.5c-0.7-0.5-1.4-1-2.1-1.4c-0.7-0.5-1.4-0.8-2.1-1.3c-0.7-0.4-1.4-0.8-2.1-1.1
		c-0.7-0.3-1.3-0.6-1.9-0.9c-0.6-0.3-1.2-0.5-1.7-0.7c-0.5-0.2-1-0.4-1.3-0.5C1119.4,454.7,1118.9,454.5,1118.9,454.5z"/>
</g>
<g id="XMLID_154_">
	<path id="XMLID_153_" d="M1117.3,463c0,0,0.4-0.2,1-0.4c0.3-0.1,0.7-0.3,1.2-0.3c0.3,0,0.5-0.1,0.8-0.1c0.3,0,0.6,0,0.9,0
		c0.6,0,1.3,0,2,0.1c0.7,0.1,1.4,0.3,2.2,0.6c0.7,0.3,1.5,0.6,2.2,1c0.7,0.4,1.4,0.9,2.1,1.4c0.6,0.6,1.2,1.1,1.7,1.8
		c0.6,0.6,1,1.3,1.4,2c0.3,0.7,0.7,1.4,0.9,2.1c0.2,0.7,0.4,1.3,0.5,2c0,0.3,0.1,0.6,0.1,0.9c0,0.3,0,0.6,0,0.8c0,0.5,0,0.9-0.1,1.3
		c-0.1,0.7-0.3,1.1-0.3,1.1s-0.2-0.4-0.5-1c-0.1-0.3-0.3-0.7-0.5-1.1c-0.2-0.4-0.4-0.8-0.7-1.3c-0.3-0.5-0.6-0.9-0.9-1.4
		c-0.3-0.5-0.8-1-1.1-1.5c-0.4-0.5-0.8-1-1.3-1.4c-0.4-0.5-1-0.9-1.5-1.4c-0.5-0.4-1-0.9-1.6-1.2c-0.5-0.4-1.1-0.7-1.6-1.1
		c-0.6-0.3-1.1-0.6-1.6-0.9c-0.5-0.3-1.1-0.5-1.6-0.7c-0.5-0.2-1-0.4-1.4-0.5c-0.4-0.1-0.8-0.3-1.2-0.3
		C1117.7,463.1,1117.3,463,1117.3,463z"/>
</g>
<g id="XMLID_157_">
	<path id="XMLID_156_" class="st0" d="M636.4,378.9c-1.6-1.3-2.7-3-3.7-4.8c-1-1.8-1.8-3.7-2.3-5.8c-0.2-1-0.3-2.1-0.3-3.2
		c0-1.2,0.2-2.2,0.5-3.3c0.6-2.1,1.6-4.1,3-5.8c1.3-1.7,2.9-3.2,4.7-4.4c0.9-0.6,1.8-1.1,2.8-1.6c1-0.5,1.9-0.9,2.9-1.3
		c2-0.7,4-1.3,6-1.8c2-0.5,4-0.9,6-1.2l-0.9,3.2c-1.4-1.2-2.9-2.5-4.3-3.9c-1.4-1.4-2.7-2.8-3.9-4.5c-0.6-0.8-1.1-1.7-1.6-2.6
		l-0.3-0.6l-0.3-0.7c-0.2-0.5-0.4-1-0.5-1.5c-0.6-2-0.9-4.1-0.7-6.2c0.1-1,0.3-2.1,0.6-3.1c0.4-1,0.8-1.9,1.5-2.8
		c0.3-0.4,0.6-0.7,1-1.2c0.4-0.4,0.8-0.7,1.2-1.1c0.8-0.6,1.7-1.2,2.6-1.6c1.8-0.9,3.7-1.4,5.6-1.7c1.9-0.3,3.8-0.4,5.7-0.5
		c-1.8,0.4-3.7,0.9-5.5,1.5c-1.8,0.6-3.5,1.3-5,2.3c-0.8,0.5-1.4,1-2.1,1.6c-0.3,0.3-0.6,0.6-0.8,0.9c-0.1,0.2-0.2,0.3-0.4,0.5
		l-0.4,0.6c-0.4,0.7-0.7,1.5-0.9,2.3c-0.2,0.8-0.3,1.6-0.3,2.5c0,1.7,0.3,3.4,0.9,5c0.1,0.4,0.3,0.8,0.5,1.2l0.3,0.5l0.3,0.6
		c0.4,0.7,0.9,1.5,1.4,2.1c1.1,1.4,2.3,2.7,3.6,3.9c1.3,1.3,2.7,2.5,4.2,3.7l2.9,2.5l-3.8,0.7c-2,0.4-3.9,0.7-5.8,1.1
		c-1.9,0.4-3.8,0.9-5.6,1.6c-0.9,0.3-1.8,0.7-2.6,1.1c-0.8,0.4-1.7,0.8-2.5,1.3c-1.6,1-3,2.2-4.2,3.6c-1.2,1.4-2.2,3-2.9,4.7
		c-0.3,0.8-0.6,1.8-0.7,2.6c-0.1,0.9-0.1,1.9,0,2.8c0.2,1.9,0.8,3.8,1.5,5.7C634.4,375.5,635.2,377.3,636.4,378.9z"/>
</g>
<g id="XMLID_160_">
	<path id="XMLID_159_" class="st0" d="M881.5,499c0,1.4,0.5,2.8,1.2,3.9c0.7,1.1,1.7,2.1,2.8,2.9c0.5,0.4,1.1,0.7,1.7,1.1
		c0.3,0.2,0.6,0.3,0.9,0.5c0.3,0.1,0.6,0.3,0.9,0.4c1.2,0.5,2.5,0.8,3.8,1c1.3,0.2,2.6,0.2,3.8-0.1c0.3-0.1,0.6-0.1,0.9-0.2
		c0.2,0,0.6-0.2,0.9-0.3c0.5-0.2,1-0.5,1.5-0.9c2-1.3,3.3-3.6,3.2-5.7l-0.2-4.3l3.2,3c3.1,3,6.9,5.1,10.9,6.3c1,0.3,2,0.5,3.1,0.6
		l0.4,0c0,0,0.3,0,0.4,0c0.3,0,0.6,0,0.8,0c0.5,0,1,0,1.5,0c2.1-0.1,4.1-0.5,6-1.3c1.9-0.8,3.7-1.9,5.2-3.4c0.7-0.7,1.4-1.6,1.9-2.4
		c0.6-0.9,1-1.8,1.4-2.8c0.4-1,0.6-2,0.7-3.1c0.1-1.1,0.2-2.2,0-3.2c-0.1-1.1-0.4-2.2-0.8-3.2c-0.2-0.5-0.4-1-0.7-1.5
		c-0.1-0.2-0.3-0.4-0.6-0.4c-0.2,0-0.4,0.5-0.1,0.6c-0.2,0-0.2-0.2-0.2-0.3c0-0.2,0.1-0.3,0.3-0.4c0.3-0.1,0.7,0.1,0.9,0.3
		c0.4,0.5,0.7,0.9,1,1.4c0.6,1,1.1,2.1,1.4,3.3c0.6,2.3,0.6,4.8,0.1,7.2c-0.3,1.2-0.7,2.4-1.2,3.5c-0.6,1.2-1.2,2.1-2.1,3.1
		c-0.8,0.9-1.7,1.8-2.7,2.5c-1,0.8-2.1,1.4-3.2,1.9c-2.2,1-4.7,1.7-7.1,1.9c-0.6,0.1-1.3,0.1-1.9,0.1c-0.3,0-0.6,0-0.9,0l-0.5,0
		l-0.5,0c-1.2-0.1-2.4-0.3-3.6-0.7c-2.4-0.6-4.6-1.6-6.7-2.9c-2.1-1.3-4-2.7-5.7-4.4l3-1.3c0,1.8-0.6,3.5-1.5,4.9
		c-0.9,1.4-2.1,2.6-3.5,3.4c-0.7,0.4-1.4,0.8-2.3,1c-0.4,0.1-0.6,0.2-1.1,0.3c-0.4,0.1-0.8,0.2-1.2,0.2c-1.6,0.2-3.2,0.1-4.7-0.3
		c-1.5-0.3-2.9-0.9-4.2-1.6c-0.3-0.2-0.7-0.4-1-0.6c-0.3-0.2-0.6-0.4-0.9-0.6c-0.6-0.4-1.2-0.9-1.7-1.4c-1.1-1-2-2.2-2.6-3.6
		c-0.3-0.7-0.5-1.4-0.6-2.1C881.3,500.4,881.3,499.7,881.5,499z"/>
</g>
</svg>
