<?xml version="1.0" encoding="utf-8"?>
<!-- Generator: Adobe Illustrator 22.1.0, SVG Export Plug-In . SVG Version: 6.00 Build 0)  -->
<svg version="1.1" id="Layer_6" xmlns="http://www.w3.org/2000/svg" xmlns:xlink="http://www.w3.org/1999/xlink" x="0px" y="0px"
	 viewBox="0 0 1527.1 1502.4" style="enable-background:new 0 0 1527.1 1502.4;" xml:space="preserve">
<style type="text/css">
	.st0{fill:#FFFFFF;}
	.st1{fill:#E84B6C;}
	.st2{fill:none;}
	.st3{fill:none;stroke:#000000;stroke-width:4;stroke-miterlimit:10;}
	.st4{fill:none;stroke:#000000;stroke-width:4;stroke-miterlimit:10;stroke-dasharray:12.1838,12.1838;}
	.st5{fill:none;stroke:#000000;stroke-width:4;stroke-miterlimit:10;stroke-dasharray:12;}
	.st6{fill:none;stroke:#000000;stroke-width:10;stroke-miterlimit:10;}
	.st7{fill:#FFFFFF;stroke:#000000;stroke-width:10;stroke-miterlimit:10;}
	.st8{fill:#B7DFE5;}
	.st9{fill:none;stroke:#000000;stroke-width:9;stroke-miterlimit:10;}
	.st10{fill:none;stroke:#000000;stroke-width:3;stroke-miterlimit:10;}
</style>
<polyline id="XMLID_1512_" class="st0" points="846.8,462.3 891.3,555.5 1363.3,561.7 1410.3,546 1463.6,556.9 1485.2,549.8 
	1499.9,538.4 1502.7,528.5 1517.8,521.1 1514.6,508.5 1434.6,495.9 1383.1,501.9 1318.9,516.6 853.7,462.3 "/>
<polygon id="XMLID_1511_" class="st0" points="711.7,489.2 719.6,411.4 745.3,403.2 760,372.1 783,365.6 792.6,349 820.5,364.7 
	820.5,382.4 831.5,398.6 823.1,408 823.7,471.8 812.2,508.7 775.4,528.5 738.5,519.2 "/>
<polygon id="XMLID_1510_" class="st0" points="678.7,479.9 577.5,493.1 501.3,456.6 445.9,398.6 419.2,329.6 419.2,274.2 
	449.2,224.7 492.8,192.8 538.4,176.5 639.5,162.8 658.2,175.8 727.1,194.1 762.1,192.8 763,186.9 700.2,157.3 804.1,168.4 
	780.3,157.3 752.1,151.1 804.8,151.1 809.6,142.1 773.9,136.1 791.3,136.7 787.8,131.6 739.2,127.5 755.5,120.5 748.9,116.3 
	681.1,111.9 659.8,120.1 597.1,113.7 535.8,121.8 475.3,134.8 419.2,175.8 368.8,240.2 357.8,296.4 357.8,344.6 370.4,391.3 
	419.9,462.3 467.4,501.9 520.9,538.1 593.5,572.4 625.6,580.3 640.7,594.1 650.5,596.6 665.3,574.1 679.4,542.4 "/>
<polygon id="XMLID_1509_" class="st0" points="715.2,723.7 725.6,745.4 855.3,752.2 858,730.1 "/>
<polygon id="XMLID_1508_" class="st0" points="188.1,1096.7 188,1067.6 188,1028 176.6,981.3 168.8,937.3 182.1,889.5 178.4,826.5 
	178,773.1 197.7,757.3 214.4,666.6 236.9,692.7 253.3,711.6 270.4,742.2 273.1,700.3 290.7,697.8 305,715.6 303.9,729.6 
	315.9,693.6 330.4,747.8 334.5,958.6 323.4,1042.8 318.2,1078.4 288.8,1096 234.3,1102.8 "/>
<polygon id="XMLID_1507_" class="st0" points="373.6,1253.5 310,1188.7 168.8,1305.9 91.5,1360 48.5,1360.7 38.5,1373.4 
	26.7,1371.9 26.7,1379 14.6,1384.1 22,1397 60.1,1397 113.8,1393.9 145,1379.8 188.1,1383.3 227,1391.3 250.8,1389.1 271.3,1373.3 
	281.9,1353.7 286.8,1317.9 284.5,1305.9 "/>
<polygon id="XMLID_1506_" class="st0" points="1138.5,1137.5 1121.1,1196.9 1103.1,1237.3 1077.7,1275.5 1061.5,1309.9 
	1061.5,1335.9 1082.7,1345.9 1269.4,1345.9 1331.4,1339.8 1344.4,1335.9 1339.8,1327 1266,1305.9 1203,1279.2 1190.6,1263.3 
	1221.6,1164.2 "/>
<path id="XMLID_1505_" d="M756.6,1282.6c0,32.7-23.6,69.8-56.3,69.8c-32.7,0-68.4-29.8-68.4-62.5c0-32.7,32.8-66.5,65.5-66.5
	C730.1,1223.4,756.6,1249.9,756.6,1282.6z"/>
<polygon id="XMLID_1504_" points="739.5,1267.8 893.9,1268 896.6,1319.8 888.8,1309.9 739.5,1305.9 "/>
<path id="XMLID_1503_" d="M998.2,1289.9c0,30.9-26.9,56-57.7,56s-52.8-37-52.8-67.9s24.4-51,55.3-51
	C973.9,1227,998.2,1259,998.2,1289.9z"/>
<polygon id="XMLID_1502_" class="st1" points="1064.5,1346.9 1055.9,1325.8 1068,1291.8 1092.4,1250.7 1107,1220.6 1133.5,1153.8 
	1194.4,957.4 1185.6,941.2 1115.7,914.2 1046.2,914.2 966.9,937.7 890,1009.9 862.7,1071.2 860.9,1177.3 888,1242.9 892.7,1250.2 
	913.3,1237.4 936.7,1229.9 963.5,1233.9 981.5,1249 1000,1270.6 1002.2,1302.1 987.1,1325.8 "/>
<polygon id="XMLID_1501_" class="st1" points="1194.4,1267.8 1200.4,1278.1 1222.5,1287.9 1239.5,1269.5 1276.5,1205.8 
	1291.2,1151.8 1286.6,1083.3 1262.1,1019.1 1229.8,1143.7 1194.5,1231.9 "/>
<polyline id="XMLID_1500_" points="281.9,1091.3 285.4,1028 295.4,828.7 310,737.8 296,750.7 281.9,863.2 270.9,967.4 263.6,1071.7 
	265,1096.1 279.1,1091.6 "/>
<polyline id="XMLID_1499_" points="251.1,1094.9 247.9,1080.8 253.2,1054.4 246.6,1033.4 247.7,1022.3 254.1,1014.1 245.4,988.4 
	244.3,968.2 243.1,959.2 248.6,948.9 254.5,947.6 257.3,934.8 249.8,916.3 251,902.5 252,891.2 257.3,885.6 250.2,842.4 
	245.8,821.7 255.8,811.8 250,792.1 242.6,750.7 244.5,737.1 254.5,705.5 242.6,676.2 240.8,703.1 234.3,757.3 221.2,800.7 
	223.5,870.3 234.3,903.2 229.3,925.5 221.9,968.7 225.9,1005.9 231.1,1038.4 234.3,1061.9 230.5,1091.6 225.9,1102.8 254.3,1098.2 
	"/>
<polygon id="XMLID_1498_" points="315.9,715.3 323.4,833.4 326.4,968 331.1,899.4 331.1,800.7 323.6,723.7 315.9,697.8 "/>
<polygon id="XMLID_1497_" points="209.3,772.3 228.3,685 230.8,641.5 221.2,628.4 214.4,643.2 214.4,676.2 201.2,711.6 197.7,740.4 
	197.7,757.3 "/>
<line id="XMLID_1496_" class="st2" x1="344.2" y1="1264.8" x2="344.2" y2="1257"/>
<polygon id="XMLID_1495_" points="294.5,1341.4 481.1,1348.9 291.9,1352.4 "/>
<g id="XMLID_1489_">
	<g id="XMLID_2449_">
		<path id="XMLID_2452_" class="st3" d="M951.3,1235.5c-0.7-2.5-1.3-5-1.8-7.6"/>
		<path id="XMLID_2451_" class="st4" d="M946.8,1212.3c-12.9-106.7,70.8-240.8,208.7-272.4"/>
		<path id="XMLID_2450_" class="st3" d="M1163.2,938.2c2.5-0.5,5.1-1,7.7-1.4"/>
	</g>
</g>
<path id="XMLID_1488_" class="st5" d="M1000.4,1324.2c107.3-90.6,166.5-220.6,190.2-379.8"/>
<polyline id="XMLID_1487_" points="860.7,729.6 809.9,738.6 737.4,733.7 715.2,733.7 "/>
<path id="XMLID_1486_" class="st6" d="M895.3,1253.9c-25.2-35.6-40-79-40-125.9c0-120.4,97.6-218,218-218c120.4,0,218,97.6,218,218
	c0,61.5-27.7,120.3-68.7,159.9"/>
<path id="XMLID_1485_" class="st7" d="M1073.2,1346c-32.8,0-63.9-7.2-91.8-20.2"/>
<path id="XMLID_1484_" class="st8" d="M1068,1345.9"/>
<path id="XMLID_1483_" class="st1" d="M715.2,723.7l-64.4-115.2v-8.3l8.9-22l14.6-10.6l9.1-45.5l-4.8-42.2l36.3-10.2V492l16.7,21.6
	l25.2,8.5h24.3l18.2-11l13.8-11.2l12.9-34.7l20.6-2.8l35.2,70.7l9.1,31.5l-6.3,33.1l-31,17.9l5.7,102.4l-5.5,16.3
	c-32.2,8.5-80.1,3.3-138.6-4.6"/>
<polygon id="XMLID_1482_" class="st1" points="182.1,1091.6 214.5,1104.7 254.3,1098.2 289.3,1091.6 318.2,1078.4 323.4,1123.6 
	323.4,1170.5 193.9,1286.5 "/>
<polygon id="XMLID_1481_" class="st1" points="333.4,1274.9 291.1,1302.1 289.3,1326.8 289.3,1339.2 312.2,1339.2 340,1332 "/>
<path id="XMLID_1480_" d="M310.9,1182.4l20.1,34.7l36.3,31l63.7-37.3l21.6-30.8l43.1-38.4l16-30.5l51.1-28l70.3-50.2l62.2-51.1
	l53.8-50.5l47.6-53.6l54.9-17.1l68.6-25.9l61.3,1.3l157.1-12.3l33.3,10.8l9.1,29.9l-41.4,279.3l17.7,11l46.2,4l21.3,6.4l50.4-212.9
	l7.2-71.3l-7.2-80.2l-32.4-60.3l-17.7-16.7c-151.9,7.5-296.5,15.9-387.8,31.4l-121.9-10.5L729,763L581.3,928.3l-130,126.5
	L310.9,1182.4z"/>
<polygon id="XMLID_1479_" points="794.7,354.8 807.5,362.7 813.8,357.7 820.5,364.7 832.9,364.7 839.9,353.1 831.8,334.9 803.5,327 
	781.7,330.6 757.3,335.2 740.4,345.8 722.3,375.2 719.6,409.2 724.5,417.3 740.8,414.3 760.4,401.3 755.6,392.3 750.8,385.5 
	760,372.1 771.2,371.4 784,371.4 "/>
<polygon id="XMLID_1478_" points="735.4,337.9 716.1,317.4 683.1,302.6 659.2,299.2 621.4,302.6 594.5,308.8 567.5,330.6 
	549.2,359.6 543.7,386.1 551.5,409.2 566,428.5 597.5,435.6 621,428.6 644,402.1 655.8,378.8 676.6,355.6 699.1,346.4 719.6,350.7 
	"/>
<line id="XMLID_1477_" class="st9" x1="289.3" y1="1352.4" x2="1481.5" y2="1352.4"/>
<path id="XMLID_1448_" d="M628.8,580.9c-6.3-1.2-12.3-2.3-18.2-3.5c-22.2-4.5-43.4-12-64.1-20.9c-19.9-8.6-39-18.9-57.2-30.8
	c-12.8-8.3-24.8-17.6-36.9-26.9c-14.6-11.3-27.4-24.4-39.5-38.2c-7.2-8.1-14.3-16.3-20.8-25c-19.6-25.8-32.3-54.8-39.3-86.4
	c-3.2-14.6-4.2-29.3-3.2-44.1c0.2-3.5,0.8-7,1.3-10.5c0.5-3.7,0.9-7.3,0.5-11.1c-0.3-3.3,0.9-7,2.2-10.3c3.8-9.2,7.9-18.4,12.2-27.4
	c10.6-21.9,24.1-41.9,40.3-60c7.7-8.6,16.3-16.1,24.9-23.7c23.8-20.9,52-32.7,82.4-40c19.5-4.7,39.3-7.2,59.4-7.9
	c28.3-1.1,56.7-1.2,85-0.5c3.3,0.1,6.7,0,10-0.5c20.7-2.9,41.6-2.9,62.4-2.1c6.4,0.3,12.8,1.4,19.2,2.2c1.6,0.2,3.2,0.7,4.8,1.2
	c3.5,1,6,2.9,6.2,7c3.4,1.2,7,1.2,10.4,1.7c5.1,0.9,10.3,1.7,15.4,2.6c1.8,0.4,3.6,1,5.3,1.8c2.4,1.2,3,3.3,1.7,5.7
	c-0.6,1-1.3,1.9-2.2,3.2c3.4,0.6,6.3,1,9,1.8c3.2,0.9,6.3,2.2,9.3,3.6c1.3,0.6,2.3,1.8,3.2,2.9c1.5,1.8,1.4,3.9-0.1,5.7
	c-1.5,1.9-3.6,3-5.9,3.2c-4.6,0.3-9.1,0.5-13.7,0.6c-2.6,0-5.2-0.2-8,0.5c1.1,0.4,2.2,0.8,3.3,1.2c3.2,1.1,6.4,1.9,9.5,3.2
	c1.9,0.8,3.7,2,5.2,3.4c2.8,2.5,2.2,5.8-1.1,7.7c-0.9,0.5-1.9,0.9-2.9,1.1c-1.8,0.3-3.7,0.6-5.6,0.5c-17.5-0.2-35-1.6-52.3-3.8
	c-5.4-0.7-10.8-1-17.5-1.6c2.3,1.1,3.4,1.8,4.6,2.2c9.3,3.6,18.7,7.2,27.9,10.9c2.3,0.9,4.5,2.2,6.6,3.5c1.5,1,3,2.3,4.1,3.8
	c2.8,3.5,1.9,7.3-2.2,9.2c-2.1,0.9-4.4,1.3-6.6,1.6c-9.4,1.4-18.7,0.6-28-0.7c-23.4-3.3-45.9-10.3-67.7-19.4
	c-5-2.1-9.9-4.4-13.8-8.3c-1.5-1.5-3.2-1.7-5.1-1.6c-7.1,0.4-14.1,0.8-21.2,1.1c-20.7,0.7-41.1,3.3-61.4,7
	c-15.8,2.9-31.3,6.9-46.3,12.9c-26.2,10.4-48.7,26.2-67.6,47.2c-15.7,17.6-24.3,38.1-25.8,61.6c-1.2,18.8,1.9,36.9,8.3,54.6
	c8,22.2,19.7,42.3,34.6,60.5c6.5,7.9,13.4,15.4,20.4,22.8c11.7,12.4,25.6,22,40.1,30.6c13.8,8.2,28.5,14.8,43.6,20.2
	c6,2.1,12.2,2.7,18.5,2c13-1.5,26.1-2.9,39.1-4.6c17.1-2.2,34.3-4.6,51.1-8.6c8.1-1.9,16.3-3.5,24.4-5.4c3.2-0.8,6.3-2,9.5-3.1
	c0.5-3.6,1-6.9,1.3-10.2c0.6-8.3,1.1-16.6,1.6-25c0.7-11.2,1.4-22.5,2.3-33.7c1-13.7,4.8-26.6,10.6-39c0.5-1.1,1-2.2,1.5-3.4
	c-2.4-3.2-5.7-4.5-9.2-5.2c-15.3-3.3-28.6,0.6-39.5,11.6c-5.3,5.3-9.8,11.4-14.3,17.3c-3.5,4.6-6.6,9.7-9.7,14.6
	c-5.8,9-12,17.5-19.3,25.3c-4,4.3-8.2,8.3-13.1,11.5c-10,6.7-21,8.8-32.8,6.4c-12.8-2.6-23.9-8.2-33.4-17.3
	c-9.5-9.1-14.6-20.1-15.4-33.2c-0.7-11.1,0.8-22,4.7-32.6c2.4-6.5,5.6-12.5,10.1-17.9c2.9-3.5,5.9-7,9-10.4
	c14.2-15.7,32-25.2,52.6-29.3c20.9-4.1,41.9-4,62.7,0.9c17.7,4.2,33.8,11.7,46.9,24.8c4.9,4.9,9.3,10.1,12.2,16.5
	c0.2,0.5,0.7,1,1.3,1.9c1.5-1,3.1-1.9,4.5-3c7-4.8,14.5-8.3,22.8-9.6c3.5-0.6,7-0.7,10.6-0.7c3.1-0.1,6.2-0.4,9.2-1.3
	c15.5-4.7,29.7-0.7,42.8,7.6c5.2,3.3,9,8.1,11.1,14c4,11.4-2,21.2-13.9,22.8c-1.2,0.2-2.4,0.3-4,0.5c-1,5.2-0.3,10,2.1,14.5
	c1.1,2,2.5,3.9,3.5,5.9c2.3,5,3.2,9.9-0.5,14.7c-0.6,0.8-0.8,1.9-1,2.9c-0.2,0.8-0.1,1.7-0.1,2.5c-0.4,12.5-0.8,25-1.2,37.5
	c-0.1,3.5-0.4,7.1,1.3,10.6c2.8,1.3,5.9,1.5,9,1.6c27.3,1,54.6,2.1,81.8,3c10.2,0.4,20.4,0.4,30.6,1c13.5,0.8,27,1.9,40.5,3.1
	c9.8,0.8,19.5,1.8,29.2,2.9c15.1,1.7,30.2,3.4,45.3,5.5c22.5,3.1,45,6.5,67.4,9.8c21.2,3.1,42.5,6.3,63.7,9.5
	c22.5,3.4,45,6.5,67.3,10.3c9.4,1.6,18.9,3.3,28.4,4.3c17.1,1.8,34.1,1.5,50.6-4.2c11.2-3.9,22.8-6.5,34.7-7.8
	c6-0.7,11.9-1.9,17.9-2.6c11.4-1.2,22.9-1.1,34.3-0.3c1.9,0.1,3.8,0.2,5.6,0.2c12.6-0.3,24.9,1.2,37.2,3.8c12.6,2.6,25.3,5,38,7.5
	c1.6,0.3,3.3,0.6,4.8,1.3c5.7,2.3,7.1,7.9,3.2,12.6c-1.3,1.6-3.1,2.7-5.1,4.4c-0.6,7.1-6.5,8.9-12.7,10.5c-0.1,0.9-0.3,1.7-0.2,2.5
	c0.4,4.5-1.9,7-5.7,8.7c-0.6,0.2-1.2,0.7-1.7,0.7c-5.1-0.1-8.8,3.1-12.8,5.5c-2,1.2-4.1,2-6.4,2.4c-10.2,1.9-20.3,1.7-30.4-0.8
	c-6.3-1.6-12.6-2.8-18.9-4.2c-4-0.9-8-0.3-11.7,1.1c-8.8,3.3-18.1,4.7-27.2,7c-9.8,2.5-19.5,3.4-29.7,2.8c-16.6-0.9-33.3-0.9-50-1
	c-33.8-0.3-67.5-0.2-101.3-0.6c-36.3-0.3-72.5-0.9-108.8-1.3c-31.1-0.3-62.1-0.5-93.2-0.9c-19.6-0.2-39.2-0.7-58.8-1.2
	c-14.8-0.4-29.6-1-44.4-1.5c-2.7-0.1-5.4,0.2-7.7,0.3c-1.5,1.3-1,2.5-0.9,3.7c0.2,2.3,0.5,4.6,0.7,6.8c0.7,5.9,0.3,11.7-0.9,17.4
	c-1.1,5.4-3.4,10.3-6.7,14.7c-4.8,6.4-10.5,11.8-17.5,15.9c-1.8,1.1-3.6,2.1-5.5,3.2c-0.1,1.2-0.4,2.5-0.4,3.7
	c0.7,13.5,1.5,27.1,2.3,40.6c0.9,15.6,2.3,31.2,1.5,46.9c-0.3,6.5-0.5,12.9-1.2,19.3c-0.4,3.9-1.5,7.8-2.7,11.5
	c-1,2.9-3.7,3.5-6.5,3.6c-1.3-2.7,1.5-4.4,0.8-7.1c-1.1,0-2.3-0.2-3.4,0c-21.9,3.9-43.9,4.2-66.1,2.9c-3.7-0.2-7.5-0.3-11.3-0.2
	c-12.8,0.1-25.4-1.1-37.9-3.4c-3.7-0.7-7.4-0.8-11-1.5c-0.5,3.6-0.5,3.6,1.5,7.8c2.4,0.3,5.1,0.6,7.7,0.9
	c11.6,1.1,23.3,1.9,34.9,3.2c13.1,1.5,26.2,1.5,39.3,1.2c12.5-0.2,25-0.8,37.5-1.4c4.6-0.2,9.1-1.1,13.6-1.6
	c20.7-2.5,41.4-5,62.1-7.4c22.2-2.5,44.4-4,66.7-5.2c20.6-1.1,41.2-2.4,61.8-3.6c22.5-1.4,44.9-3,67.4-4.2
	c20.4-1.1,40.8-1.7,61.3-1.4c6.5,0.1,12.9,0.7,19.4,1c5.6,0.3,11.2,0.4,16.8,0.2c16.6-0.6,30,5.8,39.3,20
	c7.8,11.9,13.4,24.9,17.8,38.5c3.2,9.9,5.2,20.1,7.4,30.3c1.9,8.8,2.6,17.7,3.7,26.6c0.3,2.5,0.3,5,0.3,7.5
	c0.1,21.7-1.2,43.3-3.4,64.9c-1.2,11.6-2.4,23.2-3.8,34.8c-2.1,17.2-5.3,34.2-9,51.1c-6.2,28.3-12.3,56.6-18.8,84.8
	c-10.5,45.7-23.5,90.8-38.8,135.1c-4,11.6-8.2,23.2-12.7,34.6c-1.6,4.1-2.2,7.9-0.9,12c0.7,2.2,1,4.5,1.8,6.6
	c1.7,4.3,4.4,7.5,9.2,8.6c15.9,3.4,30.1,10.9,44.5,18c6,3,12.1,4.4,18.4,5.4c5.6,0.9,11.1,1.6,16.7,2.4c2.3,0.3,4.5,1,6,3
	c1.1,1.4,2.7,1.8,4.4,2.1c4.3,0.9,8.6,1.7,12.8,2.8c3,0.8,5.9,2,7.8,4.8c0.7,1.1,2.2,1.8,3.5,2.3c5,2.1,10.1,4,15.1,6
	c0.8,0.3,1.6,0.6,2.3,1c3.3,1.9,6.6,3.9,6.2,8.5c-0.4,4.9-2.1,8.9-7,10.9c-4.3,1.7-8.8,2.6-13.4,2.8c-11.5,0.6-22.9,0.6-34.3-0.7
	c-9.3-1.1-18.7-0.4-28,1.1c-15.1,2.4-30.2,3.5-45.4,3.8c-23.8,0.5-47.5,0.9-71.3,1.3c-8.3,0.2-16.7,0.5-25,0.5
	c-9,0-17.9-0.4-26.8-1.9c-7.2-1.2-14.3-3-21.1-5.6c-2.1-0.8-4.2-1.9-6.1-3.1c-3.3-2-5.7-4.8-6.8-8.6c-0.9-3.2-1.8-6.4-2.9-9.6
	c-3-8.2-1.3-16.2,1.8-23.7c7.3-17.8,16.9-34.4,28-50.1c1.7-2.4,3.2-4.9,4.5-7.5c10.3-19.8,18.6-40.5,25.6-61.7
	c4.9-14.8,9.6-29.7,14.3-44.6c3.8-12.1,6.8-24.5,9-37c1.5-8,3.6-15.9,4.9-23.9c3.7-21.8,7.2-43.6,10.9-65.3c3-18.1,6-36.2,9.1-54.2
	c2.7-15.6,5.4-31.2,8.1-46.8c2.7-15.4,5.2-30.8,8.4-46.1c1.3-6.1-0.1-10.6-4.7-14.4c-3.5-2.9-7.2-5.7-10.8-8.4
	c-1.8-1.4-4-2.3-5.6-3.9c-3.8-3.7-8.4-4.6-13.3-4.2c-13.3,1.1-26.7,0.7-40,0.8c-18.8,0-37.5-0.4-56.3-0.4c-14.4,0-28.8,0-43.1,0.6
	c-14.6,0.6-29.1,1.6-43.6,3.1c-38,4-75.2,12.4-111.9,23c-4.4,1.3-8.7,2.9-13,4.4c-3,1-5.7,2.3-8.2,4.4c-1.7,1.5-3.9,2.4-5.9,3.5
	c-10.6,5.8-21.2,11.6-31.8,17.4c-4.6,2.5-8.7,5.6-12.4,9.4c-10.4,10.6-20.9,21-31.2,31.6c-13.5,13.9-27,27.8-41.9,40.3
	c-9.4,7.9-18.7,15.9-27.7,24.4c-12.9,12.2-27,23-41.4,33.3c-25.1,17.9-50.3,35.8-75.3,53.8c-12.5,9-24.8,18.3-37.1,27.6
	c-11.6,8.7-21.1,19.5-30,30.8c-7.7,9.8-15.3,19.8-23.3,29.4c-12.2,14.9-26.1,28-41.4,39.8c-26.1,20.1-52.5,39.8-79.8,58.2
	c-3.8,2.6-7.4,5.3-11.3,8.1c0,2.3,0,4.3,0,6.4c0,14.6,0.1,29.2,0.1,43.8c0,1.8-0.2,3.7-0.7,5.5c-0.6,2.5-2.1,4-4.7,5.3
	c-10.9,5.3-22.6,7.1-34.5,8c-2.7,0.2-5.3,0.5-8.1,0.7c-0.7,2.4-1.3,4.4-1.9,6.3c-5.1,15.5-14.7,26.8-30.1,33c-7.4,3-15,4.8-23,5.7
	c-5.5,0.6-10.8-0.6-16.2-1.1c-2.3-0.2-4.6-0.7-6.8-0.7c-9.2-0.1-18.3-1.5-27.3-3.2c-13.7-2.6-27.3-2.5-40.9,0.5
	c-16.3,3.6-32.7,6.7-48.9,10.2c-10.2,2.2-20.4,4.4-30.7,5.5c-11,1.2-22.1,1.2-33.1,0.4c-5.9-0.4-11.4-2.2-15.9-6.5
	c-1.5-1.5-2.7-3.1-3.3-5.2c-1.3-4.5-0.3-7.7,3.7-10.2c2.2-1.4,4.1-2.5,4.7-5.4c0.5-2.1,2.5-3.3,4.4-4.2c2.9-1.3,5.7-2.5,8.7-3.5
	c2-0.7,3.8-1.5,5.1-3.3c2-2.6,5-3.7,8.1-4.4c5.5-1.3,11-2.5,16.5-3.6c8.2-1.5,16.4-2.7,24.6-4.3c2.2-0.4,4.3-1.5,6.3-2.6
	c5.5-3.4,11-6.9,16.3-10.5c24.4-16.7,48.6-33.7,72.4-51.5c2.6-2,5.1-4.3,7.6-6.4c0-3.1,0.2-6.2,0.1-9.3c-0.5-14.8-0.9-29.6-1.6-44.4
	c-1.3-26.6-2.8-53.3-4.1-79.9c-0.3-5.8-0.5-11.7-0.5-17.5c0.1-10.9-1.6-21.6-2.9-32.3c-0.7-5.3-0.8-10.8-0.7-16.2
	c0.1-4.6-0.3-9.1-1.6-13.6c-0.6-2-1.1-4.1-1.2-6.1c-0.3-12.1-0.2-24.2,3.5-35.9c3.1-9.7,2.4-19.4-0.8-28.9
	c-2.6-7.9-5.4-15.8-8.2-23.6c-1.7-4.7-3-9.5-3.5-14.5c-0.3-2.7-0.7-5.4-1.3-8c-1.1-4.8-1-9.5-0.5-14.3c0.3-2.5,0.5-5,0.5-7.5
	c0-5.7,1-11.2,2.7-16.6c1.6-5.2,3.1-10.4,5-15.5c3.3-9.2,4-18.5,2.4-28.3c-1.4-8.2-1.9-16.5-2.5-24.8c-1-13.5-1.7-27-2.6-40.6
	c-0.6-10.5,0.9-20.8,3.7-30.9c1.4-5,3.7-9.4,7.3-12.9c2.5-2.4,5.6-4.2,9.1-6.6c0.1-0.7,0.3-2.1,0.3-3.5c-0.1-11.1,1.1-22,4.8-32.6
	c4-11.7,5.7-23.9,8.5-35.8c0.4-1.6,0.4-3.3,0.6-5c1-8.7,1.8-17.4,3.1-26.1c1.1-7.4,3-14.7,4.5-22c0.1-0.6,0.4-1.2,0.6-1.8
	c1.2-2.9,3.4-3.6,6-2c3.7,2.3,6.1,5.6,7.1,9.9c0.5,2.2,1,4.5,1.1,6.8c0.6,8.3,1.3,16.6,1.3,25c0.1,6.7,0,13.3,2.8,19.6
	c0.7,1.7,1.1,3.5,2,6.6c0.7-6,0.8-10.7,0.7-15.4c-0.1-2.9,0.1-5.8,1.5-8.5c0.9-1.7,3-2.1,4.1-0.5c1.2,1.9,2.3,4,3.2,6.1
	c6.3,14.8,12.3,29.6,17.5,44.8c0.3,1,0.8,1.9,1.4,3.4c1.2-1.4,1.4-2.7,1.7-4c0.6-2.4,1-4.9,1.6-7.3c0.9-3.9,2.5-7.5,4.5-10.9
	c3.5-6,8.8-8.6,15.4-9.1c3.1-0.3,5.7,0.6,8,2.8c4.2,4.1,6.4,9.1,7.4,14.8c0.4,2.2,0.7,4.5,1.2,6.7c0,0.1,0.3,0.2,0.7,0.5
	c0.8-2.6,0.2-5-0.2-7.4c-1.1-6-1.2-12-0.8-18.1c0.1-2.1,0-4.2,0-6.2c0-1.2-0.2-2.5-0.1-3.7c0.1-1.8,1.1-3.1,2.8-3.8
	c1.7-0.7,3.4-0.3,4.6,1c1.2,1.1,2.3,2.4,3,3.9c1.7,3.6,3.4,7.2,4.6,10.9c2.3,7.3,4.4,14.8,6.4,22.2c2.6,9.1,3,18.5,3.9,27.8
	c1,11,2,22,3.2,33c1.8,16.6,3.5,33.1,3.6,49.9c0.1,19.2,0.9,38.3,1.7,57.5c0.6,13.6-0.5,27.1-1.3,40.6c-0.5,7.7-1.3,15.4-1.8,23.1
	c-1.1,19.4-3.6,38.6-6.1,57.8c-1.5,11.8-3,23.6-4.2,35.4c-1,10.2-1.8,20.3-2.5,30.5c-0.2,2.3-0.2,4.7,0.4,6.8
	c2.7,10.1,3.3,20.6,4.5,30.9c1.7,14.3,2.6,28.6,2.9,43c0.1,2.5,0.4,4.9,0.6,7.2c2.2,0.8,3-0.7,4-1.6c7.4-6.8,14.6-13.6,22-20.4
	c44.9-41.7,88-85.4,130.9-129.1c53.1-54.2,106.2-108.4,159-162.9c23.5-24.2,46.4-49.1,69.5-73.7c0.4-0.5,0.8-0.9,1.3-1.4
	c1.7-1.5,2.3-3.4,1.8-5.6c-1.4-6.3-2.4-12.7-4.2-18.9c-8.7-30.2-21.8-58.6-38.1-85.4c-10.7-17.6-21.8-35.1-33-52.4
	C638.8,598.4,634.2,589.5,628.8,580.9z M48.3,1370.8c-3.4,0.3-6.8,0.5-9.7,2.6c-0.4,0-0.8,0-1.2,0.1c-0.2,0.1-0.3,0.4-0.5,0.6
	c0.2,0,0.4,0,0.6-0.1c0.3-0.2,0.7-0.4,1-0.7C42,1373.4,45.3,1372.7,48.3,1370.8l0.4-0.2L48.3,1370.8z M779,333.8
	c1.4,0.1,2.8,0.1,5.2,0.2c-12.3,4.3-12.3,4.3-18.7,4.3c0.5-0.9,1-1.7,1.8-3.1c-1.6,0.3-2.7,0.5-3.8,0.8c-6.6,2.1-12.2,6.2-17.9,10
	c-4.7,3.1-8.2,7-11.1,11.6c-9.8,15.3-12.8,32.3-12.7,50.1c0,0.8,0.3,1.6,0.5,2.2c13.7,3.7,24.3,0.4,33.3-10.1
	c-0.6-0.7-1.1-1.6-1.8-2.4c-2.7-3.3-3.6-7.1-3.1-11.1c0.3-2.7,1.1-5.3,1.9-7.8c2.4-7.5,11.3-12.4,17.6-11.4c3.3,0.5,6.5,0.8,10,1.3
	c3.1-2.8,5.5-6.1,7.5-9.8c1.6-3.1,3.1-6.4,4.8-9.5c0.4-0.8,1.3-1.3,2.9-2.9c-0.7,5.4,2.4,7.4,5.3,9.4c2.9,2,5.9,3.7,9.6,3.3
	c0.7-2-1.3-4,1.3-5.6c0.8,0.8,1.7,1.6,2.5,2.5c1.4,1.5,2.7,3.2,4.1,4.7c2.5,2.5,5.5,3.6,9,3.6c6.4-0.1,10.9-5.5,9.7-11.7
	c-0.6-2.9-1.7-5.6-3.5-7.9c-2.7-3.6-6-6.4-9.9-8.4C809.1,328.4,794.3,327.5,779,333.8c-0.1,0.1-0.3,0.2-0.4,0.2
	C778.7,334,778.9,333.9,779,333.8z M314.7,705.5c-0.1-0.8-0.1-1.6-0.2-2.4c-0.2,0-0.4,0.1-0.5,0.1
	C314.2,704,314.5,704.7,314.7,705.5c0.5,3.2,1.5,6.6,1.2,9.8c-0.5,5.8-1.1,11.7-3.8,17c-1.7,3.4-2.4,6.5-1.2,10.1
	c0.1,0.3-0.2,0.8-0.3,1.2c-0.7,0.2-1.4,0.4-2.2,0.7c0.6,1.9,1.2,3.4,1.7,5c2.4,8.3,4,16.7,2.4,25.3c-0.7,3.9-1.9,7.7-3.4,11.3
	c-2,4.9-3.3,9.8-3.5,15.1c-0.3,6-1.2,12-1.7,18c-1.2,13-0.6,25.9,4.5,38.1c3.2,7.8,5.1,15.9,6,24.1c0.8,8.1,0.7,16.3-2,24.1
	c-1.2,3.5-2.6,7-4.2,10.4c-4.1,8.8-6.4,18-7.9,27.5c-0.6,3.9-1.1,7.8-1.4,11.8c-0.8,10.1,0.2,19.9,3.4,29.6
	c2.3,6.9,3.8,14.1,5.4,21.2c0.6,2.6,0.5,5.4,0.5,8.1c-0.1,3.7-0.3,7.5-0.7,11.2c-0.8,7.2-2.1,14.3-6.1,20.8c-4.1,6.7-7.4,14-10.9,21
	c-3.1,6.3-1.2,12,2.4,17.6c8-2.7,15-6.8,22.5-10.1c0.2-2.3,0.4-4.3,0.5-6.4c0.7-19.2,2.9-38.2,5.3-57.2c2.3-18.4,4.9-36.7,6.2-55.2
	c0.5-6.6,0.8-13.3,1.4-19.9c1.9-21.4,2.7-42.8,1.8-64.3c-0.6-14.6-1-29.1-1.1-43.7c-0.1-15.4-1.5-30.8-3.1-46.1
	c-1.6-15.1-3-30.2-4.4-45.4c-0.8-9.2-2.4-18.2-5.3-26.9C316.3,707.9,315.4,706.8,314.7,705.5z M815,368.7l0.1,0.1
	c-1.4-1.6-2.9-3-5.1-3.4c-4-0.8-7.2-3.1-10.2-5.8c-1.7-1.5-3.4-3.1-5.2-4.8c-0.7,0.8-1.2,1.4-1.7,2.1c-2.5,3.6-4.8,7.3-7.4,10.8
	c-1.3,1.6-2.3,3.2-2.2,5.6c-2.3-0.3-4.2-0.4-6-0.9c-4.5-1.3-8.5-0.2-12.7,1.7c-4.9,2.3-7.2,5.9-8,11.1c-0.6,4.3,0.8,7.9,4.2,10.4
	c1.7,1.2,3.6,2.1,5.5,2.9c1.7,0.8,3.6,1.2,5.3,1.9c0.8,0.4,1.4,1.2,2.5,2c-1.2,0.6-1.9,1.3-2.6,1.4c-3.5,0.1-7,0.1-10.9,0.1
	c-0.6,0.6-1.5,1.4-2.4,2.3c-8.7,8.9-19.1,12.2-31.3,10.3c-0.6-0.1-1.2-0.2-1.9-0.3c-1,0-1.9,0-3.1,0c-0.2,1.2-0.4,2-0.4,2.8
	c-0.4,6.9-0.8,13.7-1.1,20.6c-0.8,15.8-2.3,31.6-4.5,47.3c-0.6,4.2,0.3,7.2,2.8,10.3c15,19.1,34.6,26.5,58.5,23.7
	c7.6-0.9,14.5-3.9,20.3-8.9c4.1-3.5,8-7.3,11.5-11.4c4.5-5.3,7.6-11.4,8.8-18.4c1.8-11.3,2.9-22.7,3.1-34.2
	c0.3-13.3,1.3-26.6,2-39.9c0.1-1.5,0.4-2.8,1.5-4c2.5-2.6,2.2-5.7,0.8-8.7c-1-2.3-2.5-4.3-3.8-6.4c-2.1-3.2-3.2-6.8-3.2-10.6
	c0-1.9-0.1-3.8-0.1-5.6C818.4,370.3,817,369.3,815,368.7z M375.3,1242.9c5.6-4.3,11.7-8,16.7-13.1c1.6-1.6,3.3-3.1,5.2-4.5
	c6.7-5,13.4-10,20.1-14.8c23.1-16.5,42.7-36.5,59.8-59.1c5.5-7.3,11.3-14.5,17-21.6c7.9-9.8,16.6-18.7,26.7-26.2
	c14.3-10.7,28.8-21.3,43.3-31.9c6.7-4.9,13.6-9.7,20.3-14.5c10.9-7.8,21.7-15.5,32.6-23.3c19.5-13.9,39.1-27.7,57-43.8
	c10.2-9.2,20.7-18.2,31.1-27.1c13.6-11.7,27.1-23.5,39-36.9c2.2-2.5,4.6-4.8,6.9-7.3c0.9-0.9,2-1.7,2.5-2.8c1.9-4.2,5.4-6.8,8.6-9.7
	c5.7-5.2,11.3-10.5,17-15.7c2.5-2.2,5-4.4,7.8-6.3c13.6-9.3,27.9-17.5,42.3-25.5c5.6-3.1,11.5-5.7,17.7-8.4c0.1,1.4,0.1,2.3,0.2,3.6
	c1.1-0.4,2.1-0.7,3-1c19.6-6.4,39.5-11.7,59.7-16c15.5-3.3,31.1-5.9,46.8-7.7c11.4-1.3,22.8-2.3,34.2-3c16.4-0.9,32.9-1.8,49.3-1.9
	c19.8-0.1,39.6,0.6,59.4,1c4.6,0.1,9.2,0.1,13.7,0.5c6.5,0.6,12.8,0.1,19.2-1.1c10.2-2,20.3-1.7,29.6,4.2c3.2,2,6.5,3.8,9.7,5.7
	c1.1,0.6,2.2,1.3,3,2.2c3.9,4.8,7.8,9.8,11.6,14.7c1.5,1.9,1.9,4.1,1.6,6.5c-0.6,4.3-0.9,8.7-1.6,13c-3.7,24.7-7.3,49.5-11.2,74.2
	c-4.5,28.6-9.2,57.2-13.8,85.8c-0.5,3.1-1.1,6.1-0.1,9.2c0.4,1.2-0.1,2.9-0.4,4.3c-1.8,8.6-3.6,17.1-5.4,25.7
	c-2.3,11.2-4.4,22.5-6.9,33.6c-2.3,10.2-4.9,20.2-7.3,30.4c-0.4,1.6-0.6,3.2-0.9,5.1c2.4,1.3,4.5,2.5,6.7,3.6
	c17.7,9.1,36.5,13.9,56.2,15.9c5,0.5,9.9,0,15.2-1.4c0.6-1.9,1.3-3.9,1.9-5.8c7.6-24.9,13.8-50.2,19.7-75.6
	c6-25.6,11.4-51.2,17.3-76.8c7.9-34.6,13.3-69.6,16.3-104.9c0.6-6.6,1.7-13.2,1.2-19.9c-0.3-3.9-0.4-7.9-0.5-11.9
	c0-2.9,0.5-5.8,0.2-8.7c-0.4-6-1.2-12-1.8-18c-1.3-13.3-3.3-26.5-6.4-39.5c-3.7-15.9-9.5-31-17.6-45.3
	c-7.3-12.8-18.2-19.7-32.9-20.4c-8.7-0.4-17.4-1.5-26.2-0.3c-1.4,0.2-2.9,0.1-4.4,0.2c-18.5,0.8-37.1,1.5-55.6,2.4
	c-18.3,0.9-36.6,2-54.9,3c-6.9,0.4-13.7,0.9-20.6,1.3c-16.6,1.1-33.3,2.2-49.9,3.2c-18.3,1.1-36.6,1.9-54.9,2.9
	c-6.2,0.3-12.5,0.8-18.7,1.4c-15.1,1.4-30.3,3.1-45.4,4.5c-19.1,1.8-38.1,4.6-57.1,7.1c-8.7,1.1-17.4,1.5-26.2,2.2
	c-1.4,0.1-3.5-0.1-4-0.9c-1.5-2.2-3.4-2.1-5.5-2.2c-7.5-0.5-15-0.6-22.5-1.4c-13-1.5-26-3.5-39-5.3c-0.9-0.1-1.9,0.1-3.2,0.2
	c0.4,2.6,0.8,4.9,1.1,7.1c0.2,1.6,0.5,3.3,0.2,5c-0.8,5.4-2.5,10.5-4.7,15.5c-0.4,0.9-1.1,1.8-1.8,2.5c-3.1,3.3-6.4,6.5-9.5,9.9
	c-31.7,34.9-63.7,69.5-96.6,103.2c-51.4,52.7-103,105.2-154.5,157.7c-25,25.4-50.2,50.6-76.2,75.1c-21.2,20-42.7,39.8-64,59.8
	c-1.5,1.4-3.5,2.4-3.9,4.6C327.3,1207.8,353.3,1232.5,375.3,1242.9z M751,120.7c0-0.4,0-0.8,0-1.2c-0.8-0.2-1.5-0.6-2.3-0.7
	c-8.1-0.8-16.1-2-24.2-2.2c-16.5-0.5-32.9-0.4-49.4,1.1c-4.1,0.4-8.2,1.3-12.3,1.9c-2.3,0.3-4.5,0.8-6.8,0.7
	c-8.5-0.2-17.1-0.7-25.6-0.9c-7.9-0.2-15.9-0.5-23.7,0c-12.7,0.7-25.3,2-38,3.1c-18.5,1.5-36.8,4.6-54.8,9.1
	c-19.5,4.8-38.1,12-55.5,22.1c-2.9,1.7-5.7,3.5-8.3,5.5c-4.7,3.5-9.2,7.2-13.7,10.9c-10.6,8.8-20.5,18.4-29.3,29
	c-16,19.2-28.7,40.4-39.8,62.6c-0.6,1.3-1.3,2.6-1.7,4c-4.2,14.7-7.1,29.6-7.6,44.9c-0.4,10.5,0.9,20.8,2.9,31.1
	c6.3,31.8,19.3,60.7,38.7,86.5c6.6,8.8,13.9,17.2,21.2,25.4c11.8,13.3,24.1,26,38.2,36.9c11.5,8.9,23.1,17.8,35.3,25.9
	c17.6,11.7,35.9,22,55.1,30.7c24.1,10.9,49.1,19.6,74.7,26.5c4.7,1.3,9,3,13.1,5.9c0,1.2-0.5,2.7,0.1,3.5c2.8,3.8,5.8,7.5,9.8,11.3
	c1.2-1.5,2.1-2.6,2.9-3.8c4.2-5.7,8.7-11.2,12.6-17.1c9.7-14.8,14.7-31.2,16.3-48.7c0.4-4.5,1.3-9.1-0.1-13.6
	c-0.5-1.7-0.1-3.7-0.2-5.6c0-2.5,0.2-5,0-7.5c-0.5-4.9-0.7-9.9-3.2-14.7c-4,0.8-7.9,1.5-11.7,2.3c-8.3,1.8-17,1.9-24.9,5.7
	c-0.4,0.2-0.8,0.2-1.2,0.3c-11.4,1.5-22.6,3.8-34.1,4c-5.4,0.1-10.9,0.1-16.2,0.8c-10.2,1.2-19.9-0.4-29.4-3.9
	c-6.1-2.2-12-4.9-18.1-6.9c-6.4-2.1-12.2-5.2-18-8.5c-17.3-9.8-33.5-21.1-47.2-35.7c-5.4-5.8-10.8-11.6-15.9-17.6
	c-17.9-21-31.7-44.4-40.6-70.6c-7.1-20.8-10.2-42.1-7.1-64c3.1-22.5,12.1-42.3,27.3-59.3c25.2-28.4,56.6-47,92.9-57.3
	c18.3-5.2,37-8.1,55.8-10.4c16.6-1.9,33.2-2.8,49.9-2.4c1,0,2-0.4,3-0.6c0.2-1.8,0.4-3.3,0.6-5c0.7,0.4,1.2,0.5,1.3,0.8
	c4.4,7.1,10.8,11.4,18.5,14.1c2.8,0.9,5.4,2.1,8.2,3.1c19.9,7.6,40.1,14,61.2,17.1c7.4,1.1,14.9,1.9,22.4,1.6c2.2-0.1,4.5,0,7.1-1.5
	c-1.7-1-2.8-1.9-4.1-2.5c-5.7-2.5-11.5-4.9-17.3-7.2c-11.7-4.5-23.4-8.7-35-13.4c-4.8-1.9-9.3-4.6-13.9-7.1c-0.7-0.4-1.1-1.5-2.1-3
	c2.5,0.2,4.1,0.2,5.7,0.4c10.8,1,21.6,2.1,32.3,3.1c10.8,1,21.6,1.9,32.3,3.1c11.8,1.4,23.7,2.1,35.5,2c0.3,0,0.5-0.4,1.1-1
	c-1.9-0.7-3.6-1.5-5.3-1.9c-7.9-1.8-15.8-3.8-23.8-5.2c-8.4-1.5-16.8-3.2-25.4-3c-2.5,0.1-5-0.6-7.4-1.1c-2.8-0.6-4.5-2.1-3.9-3.2
	c1-1.7,2.7-1.7,4.4-1.7c1.2,0,2.5,0.2,3.7,0.3c2.3,0.2,4.6,0.5,6.9,0.5c19,0,37.9,0,56.9,0c0.8,0,1.7,0,2.5-0.1
	c0.7-0.1,1.3-0.6,2.5-1.2c-3.7-2.2-7.2-2.8-10.7-3.2c-9.3-1.2-18.6-2.4-27.9-3.6c-10.9-1.5-21.7-4.1-32.8-4.3
	c-1.8,0-3.7-0.3-5.7-1.8c1.3-0.4,1.9-0.8,2.6-0.8c2.3-0.1,4.6-0.2,6.9-0.2c13.3,0.1,26.7,0.2,40,0.3c3.3,0,6.6,0.1,10.6-1.8
	c-1.7-0.3-2.4-0.5-3.1-0.5c-3.3-0.2-6.7-0.2-10-0.5c-11.8-1-23.7-2-35.5-3.1c-7.7-0.7-15.3-1.5-23-2.3c-2.2-0.2-4.4-0.5-7.2-2.7
	C723.8,122.4,737.4,121.5,751,120.7z M854.8,729.7c0.2-1.3,0.5-2.3,0.5-3.3c0.3-6.5,0.6-12.9,0.7-19.4c0.1-6.9,0.1-13.8-0.2-20.6
	c-0.6-14.8-1.5-29.6-2.2-44.3c-0.3-5.8-0.1-11.7-0.2-17.5c0-1.2-0.3-2.4-0.4-3.2c-1.5-1.3-3.4,0.4-4.2-1.8c2.4-3.1,5.6-5.4,8.7-7.8
	c2.8-2.1,5.8-4.1,8.6-6.2c4.6-3.3,8.5-7.4,11.9-11.9c2.8-3.7,4.6-7.9,5.6-12.4c1.9-8.5,1.5-17,0.1-25.5c-0.2-1-0.6-2-1-2.9
	c-9.5-21.3-18.9-42.7-28.4-64c-2.1-4.8-4.5-9.4-6.8-14.1c-0.7-1.5-1.8-2.8-2.6-4c-5.6-1-10.9-1.9-16-2.8c-0.4,0.6-0.6,0.7-0.7,0.9
	c-0.6,3.1-1.1,6.1-1.6,9.2c-3.1,19.5-14.1,33.4-30.3,43.8c-3.7,2.4-7.8,4-12.1,5c-12,2.9-23.9,2.5-35.8-0.9
	c-17.1-5-29.4-16-38.7-30.8c-2.7-4.3-3.5-8.8-1-13.6c1.2-2.3,1.4-4.7,0.6-7.2c-8.4,2.2-16.7,4.4-24.9,6.7c-0.5,0.1-1,0.7-1.1,0.9
	c0.8,5.8,1.9,11.1,2.1,16.5c0.2,11,0.1,22.1-1.2,33.1c-3,25.2-13.6,46.6-31.2,64.6c-1,1-1.7,2.2-2.6,3.3
	c29.3,40.2,55.3,81.8,71.2,128.9c3.4,0.4,6.5,0.7,9.6,1.1c13.8,1.9,27.7,3.5,41.7,3.4c5.8-0.1,11.7-0.2,17.5,0.2
	C811.9,734.7,833,732.8,854.8,729.7z M1432.3,515.7c1.5-1.3,3.5-0.9,5.2-0.8c11,0.6,22.1,1.2,33.1,2c5,0.4,10,0.9,14.9,1.9
	c8.3,1.7,16.6,1,24.9,0.1c0.6-0.1,1.4-0.1,1.8-0.5c0.7-0.7,1.7-1.5,1.7-2.4c0.1-0.8-0.6-2.1-1.3-2.5c-2.7-1.6-5.8-2.1-9-2.3
	c-8.1-0.3-16.2-1.4-24.2-2.7c-9.9-1.7-19.7-3.5-29.6-4.6c-7.4-0.8-15-0.7-22.5-0.9c-16.1-0.5-32-0.5-48,2.5
	c-10.2,1.9-20.5,3.4-30.6,6.3c-6.4,1.9-12.9,3.3-19.4,4.9c-0.6,0.1-1.5,0-1.8,0.4c-1.9,2.5-4.5,1.7-6.9,1.8c-3.3,0.1-6.7,0.2-10,0.2
	c-4.4,0-8.8,0.2-13.1-0.1c-12-0.9-24.1-2.2-36.1-3.2c-19.3-1.6-38.5-4.5-57.7-7.2c-13-1.8-26-3.7-39-5.6c-15.7-2.3-31.3-4.6-47-6.9
	c-14.8-2.2-29.6-4.6-44.5-6.6c-17.7-2.4-35.5-4.8-53.3-6.7c-20.1-2.2-40.2-4.3-60.4-5.7c-21.2-1.4-42.5-1.9-63.7-2.9
	c-12.9-0.6-25.8-1.4-38.7-2.1c-1.1-0.1-2.5-0.7-3.5,1c0.6,1.1,1.2,2.4,1.8,3.6c2.4,4.6,5.1,9.1,7.3,13.8
	c7.7,16.9,15.2,33.8,22.8,50.7c0.8,1.7,1.6,3.3,2.4,5.1c2.4,0,4.5,0,6.5,0c29.8,0.4,59.6,0.9,89.4,1.1c43.6,0.4,87.1,0.6,130.7,1
	c32.3,0.3,64.6,0.8,96.9,1.2c34,0.4,68,0,101.9,1.5c15.8,0.7,31.6,1.5,47.5,2.2c1.6,0.1,3.3,0,5-0.2c4.5-0.5,9.1-1.3,13.6-1.7
	c10.4-0.8,20.7-2,30.6-5.5c5.7-2,11.7-2.3,17.8-0.6c7.2,2.1,14.5,3.9,21.9,5.1c5.1,0.9,10.4,0.7,15.5,0.7c2.9,0,7.1-2,10.2-4
	c-0.3-2.1-2.1-2.4-3.6-2.9c-8.1-2.6-16.3-5-24.4-7.7c-16.7-5.6-33.7-9.3-51-12.1c-8.9-1.5-17.8-1.6-26.4,2.3c-1,0.5-2,0.5-2.8-0.4
	c-0.8-0.8-0.5-2.3,0.4-3.4c1.4-1.7,3.3-2.5,5.3-3.1c6.9-2,13.8-2.9,21-1.9c17,2.3,33.7,5.7,50,10.9c5.4,1.7,10.9,2.8,16.5,3.1
	c4.2,0.3,8.3,0.5,12.5,0.7c10.1,0.5,19.9-1.4,29.5-4.3c1.3-0.4,3-0.7,2.4-3.1c-1,0-2,0-3,0c-6.3,0.3-12.5,0.1-18.7-1.2
	c-4.1-0.8-8.3-1.1-12.4-1.6c-7.2-0.8-14.5-1.5-21.7-2.5c-4.7-0.6-9.5-1.5-14.2-2.3C1434,517.7,1432.7,517.5,1432.3,515.7z
	 M1215.8,1165c-1.3,0-2.6-0.1-3.8,0c-4.2,0.6-8.3,0.4-12.5,0c-14.6-1.4-28.6-5.3-42.4-10.3c-5.7-2.1-10.9-5.1-15.4-9.4
	c-0.6-0.6-1.3-1-2.3-1.7c-3.5,10.5-6.7,20.8-10.3,30.9c-3.5,10-7.3,19.9-11,29.9c-3.8,10.1-7.5,20.2-11.8,30.1
	c-0.8-0.3-0.1-0.1-0.8-0.3c-0.5,1.1-2.2,1.8-2.6,2.9c-1.4,4.9-3.8,9.2-7.1,13.1c-1.1,1.3-2,2.7-2.8,4.1c-3.9,7.1-7.8,14.3-11.5,21.5
	c-4.1,8-8.1,16-11.8,24.1c-2.6,5.7-4.2,11.8-5.2,18c-0.9,5-0.8,9.8,1.6,14.6c1.7,3.4,3.9,5.9,7.5,6.9c5.8,1.6,11.6,3.4,17.5,4.7
	c8.6,1.9,17.4,2,26.1,2.2c8.1,0.1,16.2-0.3,24.4-0.4c26-0.5,52.1-0.9,78.1-1.6c14.8-0.4,29.6,0.2,44.2-2.5c1.4-0.3,2.9-0.2,4.4-0.2
	c3.8,0,7.5,0,11.2,0.1c13.1,0.5,26.2,0.5,39.4-0.2c5.2-0.3,10.4-0.9,15.3-2.8c1.5-0.6,2.3-1.7,2.3-3.4c0-1.5-0.9-2.3-2.1-2.8
	c-7.1-3-14-6.3-21.7-7.9c-9.6-2-19.2-4-28.7-6.2c-8.1-1.9-16.3-3.8-23.4-8.4c-8.4-5.4-17.4-9.9-26.3-14.3c-7.8-3.9-15.5-8.1-24-10.5
	c-5-1.4-9.8-3.4-14.2-6.4c-2.2-4.6-3.5-6.4-6.6-9c-1.9,4.7-3.5,9.5-5.7,13.9c-2.2,4.6-3.9,9.5-8.3,14.1c0.6-6.7,1.9-12.1,3.5-17.4
	c4.3-13.9,8.7-27.8,13.2-41.7c7.3-22.6,14.8-45.1,22.2-67.6C1215.3,1169.3,1216.2,1167.4,1215.8,1165z M367.3,1248.1
	c-1.7-0.9-2.9-1.5-4.1-2.2c-3.8-2.2-7.7-4.2-11.2-6.8c-10.6-8.2-20.2-17.4-28.7-27.8c-3.6-4.4-6.8-9-9-14.2
	c-0.5-1.1-0.7-2.5-2.6-2.8c-1.1,0.9-2.4,1.9-3.6,3c-7.2,6.6-14.4,13.3-21.7,19.8c-14.3,12.8-28.6,25.6-43,38.2
	c-9.4,8.2-19,16.3-28.8,24.1c-18.6,14.8-37.9,28.7-57.5,42c-3.4,2.3-7,4.5-10.4,6.9c-17.2,12.5-34.9,24.3-53.1,35.2
	c-2.3,1.4-4.8,2.4-7.5,3c-4.9,1.1-9.7,2.3-14.5,3.9c-12.5,4.2-25.1,7.8-37.8,11c-4.3,1.1-8.3,2.8-12.1,5c-1.6,0.9-3.3,1.8-3.6,4.2
	c3.7,4.2,8.7,6.1,14.3,6.4c12.9,0.7,25.9,0.2,38.6-1.9c9.2-1.5,18.4-3.6,27.6-5.5c14.7-3,29.4-5.7,44-9.1c14.4-3.3,28.8-4,43.4-1.2
	c6.7,1.3,13.6,2.1,20.4,2.9c7.2,0.8,14.5,1.5,21.8,2.1c3.5,0.3,7.1,0.5,10.6-0.1c6.2-1,12.2-2.5,18.3-3.8c2.3-0.5,4.1-1.8,5.6-3.7
	c1.9-2.4,4.1-4.7,6.2-7c4.3-4.7,7.6-9.9,10.1-15.7c1.6-3.7,2.6-7.5,2.6-11.5c0-3.7-0.3-7.5-0.6-11.2c-0.3-4.2-0.8-8.3-1.2-12.4
	c-0.3-3,0.4-5.7,1.8-8.4c3.3-6.2,7.7-11.3,13.6-15.1c8.6-5.4,17.3-10.8,26.1-16c5.4-3.2,10.7-6.4,14.5-11.6c0.3-0.5,1-0.8,1.5-1.2
	c1.9,0.9,3.5,0.6,5.2-0.6c7.3-5.2,14.7-10.2,22-15.4C365.5,1249.9,366.2,1249.2,367.3,1248.1z M201.3,1274.6
	c0.7-0.3,1.5-0.5,2.1-0.9c3.1-2.4,6.3-4.8,9.3-7.4c26.1-21.7,51.5-44.3,76.5-67.3c3.4-3.1,7-5.8,11-8.2c2.1-1.3,4-2.9,5.7-4.7
	c5.3-5.6,10.4-11.3,15.7-16.9c1.4-1.5,2.1-3,2-5c-0.1-1.2-0.1-2.5-0.1-3.7c-0.7-23.3-2.4-46.6-4.7-69.8c-0.1-1.4-0.4-2.8-0.6-4.3
	c-0.9,0-1.6,0.1-2.1-0.1c-3.7-1.5-6.7-0.1-9.9,1.7c-2.9,1.6-6,2.8-9.1,4.2c-2.8,1.3-5.7,2.4-8.4,4c-3,1.7-6.6,0.6-9.5,2.2
	c-0.3,0.2-0.8,0.2-1.2,0.3c-4.2,1.1-8.4,2.5-12.7,3.2c-7.2,1.1-14.5,1.9-21.7,2.4c-9.8,0.7-19.5,1.1-29.3-0.5
	c-7.9-1.3-15.3-3.9-22.7-6.8c-1.1-0.4-2.2-1.4-3.6-0.1c0.1,0.7,0.2,1.5,0.4,2.2c3.6,13.4,5,27,5.3,40.8c0.1,3.1,0.2,6.2,0.4,9.4
	c1,16.4,2.1,32.8,3,49.3c0.7,13.7,1.2,27.5,1.8,41.2c0.4,9.8,0.7,19.6,1.2,29.3C200.3,1270.7,199.8,1272.7,201.3,1274.6z
	 M730.4,336.7c-2.2-3.8-4.8-6.2-7.3-8.7c-11.6-11.5-25.7-18.5-41.2-22.5c-21.5-5.5-43.3-5.6-65-1c-18,3.8-33.5,12.4-45.9,26.2
	c-2.9,3.2-5.8,6.6-8.6,9.9c-4.6,5.5-7.8,11.8-10,18.6c-3.1,9.5-4,19.2-3.1,29c0.9,9.4,4.7,17.6,11.4,24.4
	c8.6,8.7,18.8,14.2,30.8,16.7c9.9,2,19.1,0.4,27.3-5.5c3.5-2.5,6.8-5.5,9.9-8.6c6-6.1,11.4-12.7,16-19.9c3.4-5.2,6.8-10.5,10.3-15.7
	c4.8-7.3,10.1-14.3,16.1-20.7c2.3-2.4,4.6-4.8,7.3-6.9c10.6-8.1,22.4-11.8,35.7-9.4c3,0.5,6,1.6,9.4,2.5
	C725.6,342.2,727.9,339.6,730.4,336.7z M246.6,1033.4c1.9,3.2,3.9,6.6,5.8,10c4.3,7.7,5.9,15.4,0.5,23.5c-2,3-3.1,6.8-4.4,10.3
	c-0.4,1.1-0.8,2.5-0.5,3.6c0.9,4.6,2.1,9.2,3.2,14c4.3-0.7,8.8-0.2,12.8-2.6c0-1.3,0-2.3,0-3.3c-0.1-8.3-0.5-16.7-0.4-25
	c0.4-33.5,1.1-67.1,4.6-100.5c1.5-14.9,2.9-29.9,4.4-44.8c1.5-14.3,3-28.6,4.6-42.9c1.5-13.3,3-26.5,4.4-39.7
	c0.2-1.9,0.5-3.8,0.3-5.6c-1.6-11.8-2.8-23.6-5.3-35.2c-5.8-27.3-13.1-54.2-21.8-80.8c-0.3-1-0.9-2-1.4-2.9c-0.3,4.7-2,8.8-3.7,12.8
	c-1.8,4.2-3.5,8.5-5.1,12.7c-3.7,9.6-2.5,19.3,0.5,28.8c2.7,8.7,5.9,17.3,8.8,26c1,3,1.7,6,2.7,9c1.6,5.2,0.6,9.8-2.5,14.2
	c-1.3,1.9-2.6,3.8-3.8,5.7c-1.2,2-1.7,4.2-1.6,6.6c0.5,7.9,1.3,15.8,3.4,23.4c1.6,6,3.3,12.1,4.6,18.2c2,9.2,2.2,18.2-3.6,26.4
	c-1.5,2.1-2,4.5-2.1,7.1c-0.1,4.8,0.5,9.5,2,14.2c1.4,4.3,2.4,8.8,3.6,13.2c1.1,3.9,0.8,7.8,0.2,11.8c-0.5,3.5-1.6,6.4-5.1,8
	c-2.6,1.2-4,3.6-4.7,6.3c-0.8,3.2-1.4,6.5-2.2,9.7c-1.3,5.1-0.5,9.9,1.1,14.7c1.1,3.2,2.3,6.3,3.5,9.3c3.2,7.8,5.2,15.8,4.7,24.3
	c-0.2,2.8-0.7,5.3-2.5,7.6C248.9,1025,247.5,1028.8,246.6,1033.4z M270.4,1091.6c5.7-1,10.5-2.3,15.1-4.1c1.6-0.6,2.2-1.8,1.8-3.5
	c-0.2-1-0.6-2-1-3c-2.2-6-1.9-11.8,1.2-17.5c4-7.3,7.8-14.7,11.7-22.1c0.9-1.7,1.9-3.3,2.3-5.1c2.4-10.4,3.5-21,1.7-31.6
	c-1.1-6.7-3-13.4-5.2-19.9c-3.4-10.5-4.3-21.2-3.1-32.1c0.3-2.3,0.6-4.5,0.8-6.8c0.6-5.8,1.8-11.5,3.4-17.1c2-7,4.9-13.7,7.9-20.4
	c1.8-4,3.2-8.2,3.5-12.6c0.8-12.4-0.5-24.5-5.2-36.2c-4.9-12.2-6.1-25-5-38c0.6-6.8,1.5-13.7,2.1-20.5c0.5-5.7,1.6-11.1,4.1-16.3
	c5.5-11.4,4.7-23,1.3-34.7c-0.3-0.9-0.4-2.1-2.2-2.3c-0.5,0.6-1.4,1.2-1.8,2.1c-0.6,1.5-1,3.2-1.4,4.8c-5.8,22.9-8,46.4-11.4,69.6
	c-1.7,11.5-2,23.2-3.6,34.7c-2.6,18.1-4.3,36.4-6.1,54.7c-2,19.1-3.6,38.2-5.6,57.2c-1.8,17.8-2.6,35.7-3.3,53.6
	c-0.7,16.9-1,33.7-1.5,50.6c-0.1,3.5-0.5,7.1-0.6,10.6C270.3,1087.5,270.4,1089.1,270.4,1091.6z M200.1,1091.3
	c0.3-0.4,0.5-0.5,0.5-0.7c0.1-0.8,0.3-1.6,0.2-2.4c-1.2-8,0.4-15.3,5.7-21.6c2.2-2.6,3.5-5.7,3.6-9.1c0.2-3.3,0.3-6.7-0.1-10
	c-1.5-10.9-3-21.9-4.9-32.7c-1-5.4-0.2-10.2,1.8-15.2c6-14.5,6.3-29.1-0.5-43.6c-2.1-4.5-3.8-9.2-5.6-13.9c-2.6-6.6-2-12.8,1-19.3
	c3-6.4,5.5-13.1,5.5-20.4c0-5-0.5-10-0.9-14.9c-0.6-6.3-2.9-12.1-4.8-18.1c-3.7-11.7-7.6-23.4-7.3-35.9c0-1-0.3-2.1-0.3-3.1
	c0-2.9-0.2-5.9,0.3-8.7c1.4-9,3.2-18,4.7-27.1c1.1-6.4,1.9-12.8,0.8-19.3c-0.8-4.6-2.4-8.7-5.7-12.5c-1,0.6-2,1-2.7,1.7
	c-2.7,2.7-4.8,5.8-5.8,9.5c-2.5,9.7-4.2,19.5-3.6,29.6c0.7,10.8,1.2,21.6,2,32.4c0.8,11.8,1.4,23.7,3.4,35.4
	c1.5,8.6,0.8,17-2.1,25.2c-1,2.9-1.8,6-2.8,8.9c-3.1,9.1-5.2,18.3-5.7,28c-0.3,7.8-0.3,15.4,1.2,23c0.8,3.9,1.3,7.8,2.4,11.6
	c1.8,6,4,11.8,6.1,17.7c2.2,6.1,4.5,12.1,5.4,18.6c0.9,6.2,1.6,12.5-0.1,18.6c-2.9,10.1-4.9,20.2-4.6,30.8c0,0.6-0.1,1.2-0.2,1.9
	c-0.4,4,0,7.9,1,11.8c1.5,5.7,2.4,11.4,1.4,17.3c-0.1,0.8,0.2,1.6,0.3,2.6c2,0.8,3.8,1.7,5.8,2.4
	C197,1090.5,198.6,1090.9,200.1,1091.3z M245.3,1095.2c1.3-1.6,1.7-3.1,1.3-4.9c-0.5-2-0.7-4.1-1.4-6.1c-1.2-3.4-0.8-6.6,0.7-9.7
	c1.9-4.2,3.8-8.4,6-12.4c1.4-2.5,1.8-5.1,1.4-7.8c-0.5-3.3-1.6-6.5-3.2-9.4c-1.4-2.5-2.7-5.2-4.3-7.6c-2.1-3.1-2-6.2-0.6-9.5
	c0.8-1.9,1.4-4.1,2.7-5.6c3.2-3.6,3.5-7.8,3.4-12.3c-0.1-3.4-0.3-6.7-1.5-9.8c-1.4-3.9-2.6-7.9-4.2-11.7c-4-9.5-5.4-19.1-2.3-29.2
	c1.7-5.6,4-10.5,9.6-13.1c0.2-0.1,0.2-0.3,0.5-0.7c1.4-6.2,1.7-12.6-0.3-18.9c-1.1-3.4-2.1-6.7-3.1-10.2c-2.3-8.6-3.7-17.1,2.2-25.1
	c2-2.7,2.8-6.1,2.5-9.5c-0.4-4.3-0.9-8.7-1.8-13c-2.8-12.8-6.9-25.3-7.8-38.5c-0.4-5.4,0.8-9.8,3.7-14.1c0.8-1.2,1.8-2.3,2.7-3.4
	c1.6-2,2.4-4.4,2.2-7c-0.1-1.8-0.4-3.7-0.9-5.5c-1.6-5.2-3.3-10.3-4.9-15.5c-1.5-5-2.7-10.1-4.6-14.9c-1.9-4.9-2.8-10-3.5-15.2
	c-0.2-1.3-0.2-2.7-0.3-4c-1,1.1-1.5,2.2-1.7,3.4c-2.1,9.1-4,18.3-6.3,27.4c-2.9,11.6-4.8,23.2-4.1,35.2c0.2,2.7,0.1,5.4-0.1,8.1
	c-0.5,11.3,0.9,22.5,2.3,33.6c1.2,9.9,3.7,19.6,6,29.4c1.7,7.3,3,14.8,2.7,22.3c-0.5,13.1-2,26.1-5.1,39c-3.2,13.2-5,26.6-4.1,40.3
	c0.3,4.4,0.8,8.7,1.3,13.1c1.2,11.2,2.2,22.4,5.1,33.3c1.9,7.3,2.5,14.8,3.4,22.2c0.5,4.1,0.4,8.3-0.6,12.4
	c-1.3,5.7-2.5,11.4-3.6,17.1c-0.5,2.6-1.3,5.2-1.2,8.1C237.4,1097,241.4,1095.5,245.3,1095.2z M224.3,1096.1
	c0.6-1.6,1.1-2.8,1.4-3.9c1.4-6.5,2.6-13.1,4.1-19.6c1.4-5.8,1.5-11.6,0.8-17.4c-0.6-5.2-1.2-10.4-2.4-15.4
	c-3.1-12.6-4.4-25.4-5.9-38.3c-0.6-5.2-1-10.4-1.2-15.6c-0.6-10.7,1.4-21.2,3-31.7c0.3-2.2,0.6-4.6,0.4-6.8
	c-0.4-4.8-1.2-9.5-1.8-14.3c-1.9-14-3.9-28.1-5.7-42.1c-1.2-9.5-2.2-19-3.2-28.6c-1.1-10.4-1.9-20.7-3.1-31.1
	c-1.5-13.2-3.2-26.5-4.8-39.7c-0.2-1.8-0.4-3.6-1.6-5.1c-1.3,7.3-2.7,14.4-3.9,21.6c-1,5.7-2.3,11.5-2.5,17.3
	c-0.2,6.6,0.2,13.4,1.3,19.9c1.2,7.4,3.3,14.6,5.3,21.8c2.1,7.4,4.3,14.8,5,22.5c0.7,7.3,0.9,14.6-1.3,21.7
	c-1.5,4.8-3.1,9.5-4.9,14.2c-1.8,4.6-2.3,9.2-0.8,14c1.6,5.2,3.5,10.2,5.8,15.2c6.9,15.2,7,30.6,0.6,46.1c-1.6,3.9-2.7,7.8-1.5,12.1
	c0.5,1.8,0.8,3.7,1.1,5.5c1.7,9.4,3.6,18.8,4.9,28.3c1.2,8.5,0.1,16.3-5.6,23.6c-5.3,6.6-5.3,14.6-2.5,22.6
	C211.4,1095.1,217.5,1096,224.3,1096.1z M219.4,840c0-9.8,0.1-19.6,0-29.4c-0.1-7.1,0.7-14.1,2.3-21c3.6-15.6,7.2-31.2,10.7-46.9
	c0.4-1.6,0.8-3.3,0.7-4.9c-0.5-4.8,0.3-9.6,0.9-14.3c0.4-3.6,0.5-7-0.1-10.6c-0.9-6-1.9-11.9-2.5-17.9c-0.4-3.6-1.2-7-3-10.1
	c-1.8-3.1-2.6-6.5-2.6-10.2c0-2.1,0-4.2,0-6.2c-0.4-8.9-0.8-17.9-1.3-26.8c-0.1-1.6-0.6-3.3-0.9-4.9c-0.2-0.8-0.4-1.6-2-1.1
	c-1.2,5.7-2.6,11.5-3.6,17.4c-1,6.2-1.5,12.4-2.2,18.6c-0.4,3.5-0.4,7.1-1.2,10.5c-2.9,13.8-5.4,27.8-10.1,41.2
	c-3.3,9.5-3.9,19.5-4.3,29.3c4.7,3.8,5.4,4.6,6.9,10.3c1.6,5.8,3,11.7,4.3,17.6C215.4,800.2,216.7,820.2,219.4,840z M285.5,800.7
	c0.6-1.6,1-2.4,1.1-3.2c0.6-5.4,1.1-10.7,1.7-16.1c0.3-3.1,0.3-6.3,0.9-9.3c1.9-10.4,4.1-20.8,6.1-31.2c0.6-2.9,1.3-5.7,2.9-8.2
	c1.6-2.4,2-5,1.6-7.7c-0.6-4.7-1.1-9.5-1.9-14.2c-0.6-3.7-1.9-7.2-4.2-10.3c-1.5-2-3.3-2.9-5.9-2.6c-3.5,0.5-6.3,1.8-8.3,4.8
	c-2.1,3.2-3.6,6.5-4.4,10.2c-1.7,7.3-3.1,14.6-3.9,22.1c-0.5,4.1,0.1,7.8,1.1,11.6c3.3,12.7,6.6,25.4,9.8,38.1
	C283.2,789.7,284.1,794.7,285.5,800.7z M331.8,1283.1c-1.8,1-2.8,1.5-3.6,2c-9.4,6.5-18.8,13.1-29.2,18.1c-0.4,0.2-0.7,0.4-1.1,0.6
	c-4.4,3-7.2,6.9-7.1,12.4c0,3.3,0,6.7,0,10c0,3.9,0.3,7.8,1.4,11.5c0.8,0.2,1.4,0.4,2,0.4c10.1,0,19.9-1.4,29.6-4.1
	c2.4-0.7,4.7-1.7,6.9-2.8c2.1-1,2.9-2.7,2.8-5.1c-0.5-12.9-0.8-25.8-1.2-38.7C332.4,1286.3,332.1,1285.1,331.8,1283.1z M221.2,859.9
	c0.1,3.2,0.1,5.5,0.4,7.7c2,18.6,4.1,37.1,6.2,55.7c0.1,0.9-0.1,2.1,1.6,2.3c0.2-2.5,0.1-5,0.6-7.5c1.5-8.4,0.3-16.6-1.3-24.7
	C226.3,882.5,223.8,871.6,221.2,859.9z M244.9,689.2c-0.3,0.6-0.7,1.2-0.7,1.7c-0.5,13.2-1.1,26.4-1.6,39.6c2.1-2.7,3.4-5.7,4.9-8.6
	c2.4-4.6,2.9-9.5,2.3-14.6c-0.3-2.9-1.3-5.6-0.8-8.6C249.2,696.5,246.8,692,244.9,689.2z M1476.4,540c2.6,3.4,6.3,2.3,9.7,2.5
	c2.9,0.2,5.8,0.1,7.9-2.5c-0.5-1.6-1.5-2.1-2.9-2c-4.8,0.5-9.5,1-14.2,1.5C1476.8,539.5,1476.7,539.7,1476.4,540z M733.3,340.7
	c-2.9,1.6-4.4,3.9-6.2,6.6c1.4,1,2.6,1.9,4.1,3c1.7-1.6,3.2-2.9,4.9-4.4C735.1,344.1,734.2,342.5,733.3,340.7z M79,1360.1
	c-4.4-0.7-7.2,1.6-10.4,1.3C71.8,1361.6,75,1361.6,79,1360.1z M220.5,850.2c-0.1,0-0.1,0-0.2,0c0,0.9,0,1.9,0,2.8c0.1,0,0.1,0,0.2,0
	C220.5,852.1,220.5,851.2,220.5,850.2z M60.3,1362.6l-0.2,0.1l0.4,0L60.3,1362.6z"/>
<path id="XMLID_1445_" d="M881.7,1313.1c-2-0.1-3.7-0.1-5.3-0.2c-26.4-1.6-52.9-1.6-79.4-1.7c-10.6,0-21.2-0.5-31.9-0.8
	c-2.3-0.1-4.5-0.1-6.8-0.1c-0.7,1.1-1.3,1.9-1.8,2.8c-7.5,13.6-17.8,24.6-31.2,32.5c-14.4,8.6-29.7,10.3-45.7,5.4
	c-4.2-1.3-8.4-2.4-12.6-3.5c-9-2.5-16.8-7.2-23.9-13.2c-11.4-9.7-16.5-22.4-15.8-37.2c0.9-18.2,5.9-35.3,15.9-50.7
	c9.4-14.7,23.3-22.9,40.1-26.4c11.6-2.4,23.1-2.8,34.5,1.3c4.3,1.6,8.5,3.5,12.3,6.1c13.4,9.2,23.4,21.2,29.5,36.3
	c0.5,1.1,0.9,2.3,1.3,3.1c0.5,0.4,0.7,0.6,0.8,0.7c0.2,0.1,0.4,0.2,0.6,0.2c1,0.1,2.1,0.1,3.1,0.1c39.2-0.2,78.3-0.7,117.7,0.5
	c1-2,2-3.8,2.8-5.7c3.3-7.8,8-14.6,13.6-20.8c9.3-10.2,20.7-16.7,34.2-19.4c14.5-2.8,27.9,0.6,39.7,9c19.4,13.8,30,32.7,30.6,56.6
	c0.5,20.4-7.8,36.9-24.6,48.6c-14.8,10.4-31.5,13.9-49.3,11.5c-3.9-0.5-7.8-1.4-11.6-2.5c-4.8-1.3-9.4-3.5-13.4-6.6
	c-3-2.3-6-4.5-8.9-6.9c-5-4.2-9.1-9.1-12.2-14.9C883.5,1316.1,882.7,1314.9,881.7,1313.1z M885.9,1306.4c0.8,0.9,1.3,1.5,1.8,2.2
	c2.9,3.8,5.7,7.7,8.8,11.3c13.9,16.1,31.8,22.2,52.6,20.5c4.7-0.4,9.7-1.1,14-3c21.5-9.1,35.4-27.7,31.9-54.9
	c-2.3-18.4-11.6-32.9-26.7-43.4c-12.6-8.8-26.4-10.8-41-5.2c-15.5,5.9-25.8,17.2-32.7,31.9c-0.4,0.7-0.6,1.6-0.8,2.4
	c-1.7,6.6-2.5,7.3-9.4,7.4c-21.5,0.2-42.9,0.4-64.4,0.6c-15,0.1-30,0.4-45,0.4c-6,0-12.1-0.7-18.1-1.3c-3.4-0.3-4.9-2.1-4.9-5.9
	c0-2.2-0.6-4.1-1.6-6c-6.1-11.9-14.5-21.8-25.9-29.1c-6.8-4.3-14.3-6.6-22.4-7c-8.7-0.4-17,1.1-25.2,3.7c-10.1,3.2-18.3,9-24.4,17.6
	c-2.4,3.4-4.6,7-6.4,10.7c-3.9,7.6-6.5,15.8-8.2,24.2c-1.5,7.6-2.6,15.2-1.3,23c2,13,13.1,25.8,25.8,29.5c1.2,0.3,2.5,0.7,3.4,1.5
	c4.3,3.4,9.4,4.2,14.5,5.2c11.6,2.3,23.2,1.6,34.8,0.2c3.8-0.5,7.2-1.8,10.3-4.2c11-8.6,20.2-18.7,25.6-31.8c1.4-3.4,3.4-5.1,7-4.7
	c1,0.1,2.1,0,3.1,0c8.5,0.1,17.1,0.2,25.6,0.4c9.2,0.1,18.3,0.4,27.5,0.4c19.6-0.1,39.2,0.7,58.7,2.2
	C877.5,1305.5,881.8,1306,885.9,1306.4z"/>
<path id="XMLID_1444_" d="M625.6,553c1.1-0.2,1.7-0.4,2.2-0.3c0.6,0.1,1.2,0.4,1.6,0.8c4.7,5,8.4,10.8,11.2,17.1
	c0.2,0.4-0.1,1.1-0.2,1.9c-0.7-0.2-1.4-0.2-1.8-0.5C635.8,569.5,629.9,560.9,625.6,553z"/>
<path id="XMLID_1443_" d="M775.4,620.2c-1.9,3.1-4.3,4.6-6.9,5.8c-5.9,2.6-12.2,2.9-18.4,2c-10.6-1.5-19.9-5.8-27.3-13.8
	c-3.3-3.6-5.6-7.7-7.1-12.4c-0.2-0.8-0.6-1.7-0.4-2.4c0.2-0.9,0.7-2,1.5-2.5c1-0.7,2,0,2.7,0.8c0.9,1.2,1.7,2.4,2.4,3.7
	c8.6,15.6,27.4,22.4,43.3,19.2C768.3,620,771.5,619.4,775.4,620.2z"/>
<path id="XMLID_1442_" d="M1152.1,1306.5c-2.2,0.4-3.2,0.8-4.2,0.7c-7.8-0.7-14.4-3.7-19.3-10c-3.9-5-4.6-10.5-2.4-16.5
	c2.1-5.7,5.7-10.1,11.1-12.9c0.5-0.3,1.1-0.7,1.7-0.8c0.8,0,1.8,0.1,2.2,0.6c0.4,0.4,0.3,1.7-0.1,2.2c-1,1.3-2.3,2.4-3.5,3.5
	c-2.1,2-3.7,4.5-4.7,7.2c-2.3,6-1.2,10.9,3.6,15.2c2.2,1.9,4.7,3.4,7.2,4.9c1.8,1.1,3.7,1.9,5.5,3
	C1149.8,1304,1150.4,1304.9,1152.1,1306.5z"/>
<path id="XMLID_1441_" d="M237.1,1329c1.3-3.2,3.6-4.5,5.4-6.1c3.4-3,5.4-6.7,6.5-11.1c1.3-5.2,0.2-9.4-4.1-12.7
	c-1-0.8-2-1.5-2.9-2.3c-0.3-0.4-0.5-1.2-0.3-1.7c0.2-0.5,0.9-1.1,1.3-1.1c1.4,0,3,0,4.2,0.6c5.3,2.5,8.5,6.7,8.8,12.6
	c0.4,6.2-1.2,12-5,16.9c-2.8,3.6-6.3,6-11.1,5.7C239.1,1329.8,238.4,1329.4,237.1,1329z"/>
<path id="XMLID_1440_" d="M815,368.7c1.1,2.1,1.6,4.2,1.2,6.6c-0.5,2.9-0.8,5.7-1.3,8.6c-0.1,0.4-0.9,1.1-1.3,1.1
	c-0.7-0.1-1.5-0.5-1.9-1.1c-0.4-0.6-0.6-1.6-0.5-2.4c0.1-2.7,0.3-5.4,0.4-8.1c0.1-2.4,1.5-3.8,3.6-4.6
	C815.1,368.8,815,368.7,815,368.7z"/>
<path id="XMLID_1439_" d="M763,384.4c0.8-1,1.7-1.9,2.3-3c0.5-0.8,0.5-1.9,0.9-3.3c1.1,0.7,2.1,1.1,2.6,1.8c1.7,2.6,3.2,5.3,4.7,8
	c0.8,1.5,0.3,2.8-0.8,3.2c-1.2,0.4-2-0.3-2.5-1.2c-0.7-1.2-1.4-2.5-2.1-3.8c-1.4-0.2-2.8-0.4-4.2-0.6
	C763.8,385.5,763.7,385.2,763,384.4z"/>
<path id="XMLID_1438_" d="M812.1,398.7c0.5,0,0.7-0.1,0.9,0c2.5,2.4,5,4.9,7.4,7.4c0.2,0.3,0,1.1-0.3,1.6c-0.1,0.3-0.7,0.3-1.1,0.4
	c-0.2,0.1-0.4,0-0.6-0.1c-3.7-1.6-5.9-4.4-7-8.2C811.3,399.6,811.9,399,812.1,398.7z"/>
<path id="XMLID_1435_" class="st0" d="M687.9,1289.3c1.4-8,2.8-15.9,4.2-23.9c0.2-1,0.6-2,1-2.9c1.7-3.4,4.5-4,7.7-1.7
	c2.6,2,4.2,4.6,4.9,7.7c1,4.5,1.6,9,0.9,13.6c-1.2,7-3,13.8-5.9,20.3c-0.7,1.5-1.6,3-2.6,4.2c-2,2.4-5,2.2-6.8-0.4
	c-2.2-3.2-2.9-6.9-3.1-10.6c-0.2-2.1,0.1-4.1,0.2-6.2C688.2,1289.4,688,1289.4,687.9,1289.3z M695.2,1297.6c2.3-4,2.9-8.1,4-12
	c1.5-5.1,1.4-10.3,0.1-15.4c-0.2-0.7-0.8-1.2-1.8-2.7c-1.6,8.7-3.1,16.4-4.5,24.2C692.6,1293.8,693.2,1295.7,695.2,1297.6z"/>
<path id="XMLID_1432_" class="st0" d="M944.6,1298.6c0.7-4,1.6-9.3,2.4-14.7c0.4-2.5,0.8-4.9,1-7.4c0.4-4.1,4.3-8.2,8.6-8.7
	c2.3-0.3,4,0.9,5.3,2.7c2.3,3.4,3.4,7.2,2.7,11.3c-1.3,7.4-2.8,14.7-6,21.6c-1.4,2.9-3,5.5-5.6,7.4c-2.4,1.8-4.7,1.5-6.6-0.8
	c-1.3-1.5-2-3.2-2-5.1C944.3,1303.3,944.4,1301.7,944.6,1298.6z M956.5,1275.5c-2.4,0.4-2.6,2.4-2.8,4.2c-0.8,5.9-1.6,11.9-2.4,17.8
	c-0.1,1-0.1,2-0.2,3.5c0.9-0.7,1.6-0.9,1.8-1.4c2.9-6,4.1-12.5,5.1-19C958.3,1278.7,958.2,1276.8,956.5,1275.5z"/>
<path id="XMLID_1431_" class="st0" d="M686,1268.3c-1.4,12.1-2.7,23.3-4.1,34.4c-0.3,2.5-1,4.9-1.8,7.3c-0.4,1.1-1.2,2.2-2.1,3
	c-1.2,1.2-3.7,0.4-4.1-1.2c-0.3-1-0.4-2.1-0.2-3c3.6-14.6,4.4-29.6,6.7-44.4c0.2-1.4,0.5-2.9,1-4.2c0.3-0.6,1.2-1.3,1.8-1.4
	c1.2-0.2,2,0.7,2.1,1.8C685.7,1263.5,685.9,1266.4,686,1268.3z"/>
<path id="XMLID_1430_" class="st0" d="M944.9,1266.9c-0.5,3.8-0.9,7.4-1.6,10.8c-2,9.6-4.1,19.1-6.1,28.6c0,0.2-0.1,0.4-0.1,0.6
	c-0.6,2-1.9,3.2-3.4,3c-1.5-0.2-2.9-1.7-2.9-3.5c0-1.6,0.2-3.3,0.6-4.9c2.4-10.1,4.8-20.2,7.3-30.3c0.5-2.2,1.4-4.3,2.2-6.4
	c0.4-1,1.4-1.7,2.5-1.3c0.6,0.3,1.1,1.2,1.4,1.9C945,1265.9,944.9,1266.6,944.9,1266.9z"/>
<g id="XMLID_1427_">
	<path id="XMLID_2444_" d="M197.7,1108.8c0,0,1.7,0.3,4.7,0.8c1.5,0.3,3.3,0.6,5.4,0.9c2.1,0.3,4.4,0.8,6.9,1.1
		c2.5,0.4,5.3,0.8,8.2,1.1c2.9,0.4,6,0.7,9.2,1c1.6,0.2,3.2,0.2,4.9,0.3c1.6,0.1,3.3,0.2,5,0.2c1.7,0,3.4,0.1,5.1,0.1
		c1.7,0,3.4-0.1,5.1-0.1c1.7,0,3.4-0.2,5.1-0.3c1.7-0.1,3.4-0.2,5-0.5c1.7-0.2,3.3-0.4,4.9-0.7c1.6-0.3,3.2-0.6,4.8-0.9
		c1.6-0.3,3.1-0.8,4.6-1.1c1.5-0.4,3-0.7,4.3-1.2c1.4-0.5,2.7-0.9,4-1.4c1.3-0.4,2.5-1,3.7-1.5c1.2-0.5,2.3-0.9,3.4-1.4
		c1.1-0.5,2-1,3-1.5c0.9-0.5,1.8-0.9,2.6-1.3c0.8-0.4,1.5-0.9,2.1-1.2c2.6-1.5,4.1-2.4,4.1-2.4s-1.4,1-3.8,2.8
		c-0.6,0.4-1.3,0.9-2.1,1.4c-0.8,0.5-1.6,1-2.5,1.5c-0.9,0.5-1.9,1.1-2.9,1.7c-1,0.6-2.2,1.1-3.3,1.7c-1.2,0.5-2.4,1.2-3.7,1.7
		c-1.3,0.5-2.7,1-4.1,1.6c-1.4,0.6-2.9,1-4.4,1.4c-0.8,0.2-1.5,0.5-2.3,0.7c-0.8,0.2-1.5,0.5-2.3,0.6c-1.6,0.4-3.2,0.7-4.9,1.1
		c-1.6,0.3-3.3,0.5-5,0.8c-1.7,0.3-3.4,0.4-5.1,0.6c-1.7,0.1-3.5,0.3-5.2,0.4c-1.7,0-3.5,0.1-5.2,0.1c-1.7-0.1-3.5-0.1-5.2-0.1
		c-1.7,0-3.4-0.2-5.1-0.3c-1.7-0.2-3.3-0.2-4.9-0.5c-3.2-0.4-6.3-0.8-9.3-1.3c-1.5-0.3-2.9-0.5-4.3-0.8c-1.4-0.3-2.7-0.6-4-0.8
		c-2.5-0.5-4.8-1.1-6.9-1.6c-2-0.5-3.8-1-5.3-1.4C199.4,1109.3,197.7,1108.8,197.7,1108.8z"/>
</g>
<polyline id="XMLID_1426_" class="st0" points="344,1256.3 323.2,1277.5 344,1264.1 "/>
<g id="XMLID_1423_">
	<path id="XMLID_1493_" class="st0" d="M729.1,760.6c0,0,2,0.3,5.6,0.9c0.9,0.1,1.9,0.3,2.9,0.5c1.1,0.1,2.2,0.3,3.4,0.4
		c1.2,0.2,2.5,0.3,3.9,0.5c1.4,0.1,2.8,0.3,4.3,0.4c1.5,0.1,3.1,0.3,4.7,0.4c1.6,0.1,3.3,0.2,5.1,0.3c1.7,0.1,3.5,0.2,5.3,0.2
		c1.8,0,3.7,0.1,5.6,0.1c3.8,0,7.7-0.1,11.7-0.2c4-0.1,8-0.4,12.1-0.7c4-0.4,8.1-0.7,12-1.2c4-0.4,7.9-1,11.6-1.5
		c1.9-0.3,3.7-0.6,5.5-0.9c1.8-0.3,3.6-0.5,5.3-0.8c3.4-0.6,6.7-1.1,9.7-1.7c6-1.1,11-2,14.5-2.7c3.5-0.7,5.5-1,5.5-1
		s-1.9,0.7-5.3,1.8c-1.7,0.6-3.8,1.2-6.2,1.9c-1.2,0.4-2.5,0.7-3.8,1.1c-1.3,0.4-2.8,0.7-4.3,1.1c-1.5,0.4-3,0.8-4.6,1.2
		c-1.6,0.4-3.3,0.8-5,1.2c-3.4,0.8-7.1,1.5-10.9,2.2c-3.8,0.6-7.7,1.4-11.7,1.8c-4,0.6-8.1,0.9-12.2,1.3c-4.1,0.2-8.2,0.5-12.3,0.6
		c-4,0.2-8,0-11.9-0.1c-1.9-0.1-3.8-0.2-5.7-0.3c-1.9-0.1-3.7-0.3-5.4-0.5c-1.8-0.2-3.5-0.4-5.1-0.6c-1.6-0.2-3.2-0.5-4.7-0.8
		c-1.5-0.3-3-0.5-4.3-0.8c-1.4-0.3-2.7-0.6-3.9-0.9c-1.2-0.3-2.4-0.5-3.4-0.8c-1-0.3-2-0.6-2.8-0.8
		C731,761.2,729.1,760.6,729.1,760.6z"/>
</g>
<g id="XMLID_1420_">
	<path id="XMLID_1491_" class="st0" d="M499.2,1047.8l-3.2-4l0.5-0.2c0.4,1.4,0.8,2.8,1.2,4.1l0.7,2l0.8,2c0.6,1.3,1.2,2.6,1.8,3.9
		l1,1.9l1.1,1.8l1.2,1.8l1.2,1.7l1.3,1.7l1.4,1.6l1.4,1.5l1.5,1.5l1.6,1.4l1.6,1.3l-2.7,1.2c0.1-4.2,0.4-8.4,0.8-12.5
		c0.4-4.2,0.8-8.3,1.4-12.5c0.6-4.1,1.3-8.3,2.1-12.4c0.4-2.1,0.8-4.1,1.2-6.2c0.4-2.1,0.9-4.1,1.4-6.1l0.7-3l2.8,1.4
		c3,1.5,5.3,4.1,6.8,6.8c1.5,2.7,2.4,5.4,3.4,7.9c0.9,2.6,1.8,5,3,7.2l0.4,0.8l0.5,0.7c0.3,0.5,0.7,0.9,1.1,1.4
		c0.2,0.2,0.4,0.4,0.6,0.6c0.1,0.1,0.4,0.3,0.5,0.4c0.4,0.3,0.7,0.4,0.9,0.5c0.4,0.1,0.5,0.1,1.2-0.5c0.3-0.3,0.7-0.8,1-1.3l1.1-1.7
		l4.6-6.8l9.3-13.5l9.4-13.5c3.1-4.5,6.3-8.9,9.5-13.4c3.2-4.5,6.4-8.9,9.6-13.3c3.2-4.4,6.5-8.8,9.8-13.2
		c-2.8,4.7-5.6,9.4-8.4,14.1c-2.9,4.7-5.7,9.4-8.6,14c-2.9,4.6-5.8,9.3-8.8,13.9l-8.9,13.8l-9,13.8l-4.5,6.9l-1.2,1.7
		c-0.4,0.6-0.9,1.3-1.5,2c-0.6,0.7-1.5,1.3-2.6,1.8c-0.2,0.1-0.4,0.1-0.5,0.2l-0.3,0.1c-0.4,0.1-0.6,0.1-1,0.1c-0.6,0-1.2,0-1.7-0.2
		c-1.1-0.3-2-0.8-2.7-1.3c-0.4-0.3-0.7-0.5-1-0.9c-0.3-0.3-0.6-0.6-0.8-0.9c-0.5-0.6-1.1-1.2-1.5-1.9l-0.7-1l-0.6-1
		c-1.5-2.6-2.4-5.4-3.4-8c-0.9-2.6-1.8-5.1-2.9-7.2c-1.2-2.1-2.6-3.8-4.6-4.8l3.5-1.6l-1.5,6c-0.5,2-0.9,4-1.4,6
		c-0.9,4-1.7,8.1-2.4,12.1l-1,6.1c-0.3,2-0.6,4.1-0.9,6.1c-0.3,2-0.5,4.1-0.7,6.1l-0.6,6.2l-0.4,3.4l-2.4-2.2l-1.6-1.5l-1.6-1.6
		l-1.5-1.7l-1.4-1.7l-1.3-1.8l-1.2-1.8l-1.2-1.9l-1.1-1.9l-1-2l-0.9-2l-0.8-2l-0.7-2.1l-0.6-2.1l-0.5-2.1l-0.4-2.1l-0.3-2.2
		l-0.2-1.4l0.7,1.2L499.2,1047.8z"/>
</g>
<g id="XMLID_1417_">
	<path id="XMLID_1429_" class="st0" d="M1219.7,742.9c0,0,0.8,0.4,2.2,1.1c0.7,0.4,1.5,0.8,2.4,1.4c0.5,0.3,0.9,0.6,1.5,0.9
		c0.5,0.3,1,0.7,1.5,1.1c0.5,0.4,1.1,0.8,1.7,1.2c0.6,0.5,1.1,0.9,1.7,1.4c1.2,1,2.3,2.1,3.5,3.3c1.1,1.2,2.3,2.5,3.4,3.9
		c1.2,1.3,2.2,2.8,3.2,4.3c1,1.5,2,3,2.8,4.5c0.9,1.5,1.6,3.1,2.4,4.6c0.7,1.5,1.3,3,1.8,4.5c0.2,0.7,0.5,1.4,0.7,2.1
		c0.2,0.7,0.4,1.4,0.6,2c0.2,0.6,0.4,1.3,0.5,1.8c0.1,0.6,0.2,1.2,0.3,1.7c0.2,1.1,0.4,2,0.4,2.8c0.2,1.5,0.2,2.4,0.2,2.4
		s-0.4-0.8-1-2.2c-0.3-0.7-0.7-1.6-1.1-2.5c-0.4-1-0.9-2.1-1.5-3.2c-0.5-1.2-1.2-2.4-1.9-3.7c-0.6-1.3-1.5-2.7-2.2-4.1
		c-0.8-1.4-1.6-2.8-2.5-4.2c-0.9-1.4-1.8-2.8-2.8-4.3c-1-1.4-1.9-2.8-3-4.1c-1-1.4-2-2.6-3-3.9c-1.1-1.2-2-2.4-3-3.5
		c-1-1.1-1.9-2.2-2.8-3.1c-0.9-1-1.7-1.8-2.5-2.6c-0.7-0.8-1.4-1.4-1.9-2C1220.3,743.6,1219.7,742.9,1219.7,742.9z"/>
</g>
<g id="XMLID_1414_">
	<path id="XMLID_1425_" class="st0" d="M1211.8,753.5c0,0,1,0.5,2.8,1.5c0.4,0.3,1,0.5,1.5,0.8c0.5,0.4,1.1,0.7,1.6,1.2
		c0.6,0.4,1.2,0.9,1.9,1.3c0.6,0.5,1.2,1.1,1.9,1.7c0.6,0.6,1.4,1.2,2,1.9c0.6,0.7,1.3,1.5,2,2.2c0.3,0.4,0.7,0.8,1,1.2
		c0.3,0.4,0.6,0.9,0.9,1.3c0.6,0.9,1.3,1.8,1.9,2.7c1.1,2,2.3,3.9,3.2,6.1c1,2.1,1.7,4.4,2.4,6.7c0.5,2.3,1.1,4.7,1.3,7
		c0.4,2.3,0.3,4.7,0.4,6.9c0,1.1-0.1,2.2-0.2,3.3c0,0.5-0.1,1.1-0.1,1.6c-0.1,0.5-0.2,1-0.3,1.5c-0.2,1-0.4,2-0.5,2.9
		c-0.2,0.9-0.5,1.8-0.8,2.7c-0.3,0.8-0.5,1.7-0.8,2.4c-0.3,0.7-0.6,1.4-0.9,2.1c-0.3,0.7-0.6,1.3-0.8,1.8c-0.3,0.6-0.6,1-0.9,1.5
		c-1.1,1.8-1.7,2.7-1.7,2.7s0.3-1.1,1-3c0.2-0.5,0.4-1,0.5-1.6c0.1-0.6,0.3-1.2,0.5-1.9c0.2-0.7,0.3-1.4,0.5-2.1
		c0.1-0.8,0.3-1.6,0.4-2.4c0.1-0.8,0.3-1.7,0.4-2.6c0.1-0.9,0.1-1.8,0.2-2.8c0-0.5,0.1-1,0.1-1.5c0-0.5,0-1,0-1.5c0-1,0-2,0-3.1
		c-0.2-2.1-0.3-4.2-0.7-6.4c-0.2-2.2-0.9-4.3-1.4-6.5c-0.7-2.1-1.2-4.3-2.1-6.3c-0.8-2.1-1.8-4-2.7-5.9c-0.5-0.9-1.1-1.8-1.6-2.7
		c-0.3-0.4-0.5-0.9-0.8-1.3c-0.3-0.4-0.6-0.8-0.8-1.2c-0.6-0.8-1.1-1.6-1.6-2.3c-0.5-0.7-1.1-1.4-1.7-2c-0.5-0.6-1.1-1.3-1.6-1.9
		c-0.5-0.5-1-1.1-1.5-1.6c-0.5-0.5-0.9-1-1.4-1.4c-0.4-0.4-0.9-0.8-1.3-1.1C1212.7,754.3,1211.8,753.5,1211.8,753.5z"/>
</g>
<g id="XMLID_1411_">
	<path id="XMLID_1422_" d="M730,711.2c0,0,0.7-0.2,2-0.5c1.3-0.4,3.1-1,5.3-2c2.2-1,4.8-2.4,7.6-4.3c2.8-1.9,5.7-4.3,8.8-7.1
		c1.5-1.4,3.1-2.9,4.6-4.5c1.6-1.6,3.2-3.3,4.9-5c3.2-3.6,6.4-7.3,9.6-11.4c0.8-1,1.6-2,2.4-3.1c0.8-1.1,1.5-2.2,2.3-3.2
		c1.5-2.2,3.1-4.4,4.5-6.7c3-4.5,5.7-9.3,8.3-14.2c1.2-2.5,2.6-4.9,3.7-7.4c1.1-2.5,2.2-5,3.3-7.5c1-2.5,1.9-5,2.9-7.5
		c0.9-2.5,1.7-5,2.6-7.5c0.2-0.6,0.4-1.2,0.6-1.8c0.2-0.6,0.3-1.2,0.5-1.8c0.4-1.2,0.7-2.4,1-3.6c0.3-1.2,0.7-2.4,1-3.6
		c0.3-1.2,0.6-2.4,0.8-3.5c1.2-4.6,1.9-9.1,2.7-13.1c0.3-2.1,0.5-4,0.8-5.9c0.3-1.9,0.6-3.7,0.7-5.4c0.2-1.7,0.3-3.3,0.4-4.7
		c0.1-1.5,0.3-2.8,0.3-4c0.2-4.9,0.4-7.7,0.4-7.7s0.3,2.8,0.7,7.7c0.2,2.5,0.2,5.4,0.2,8.9c0.1,1.7-0.1,3.5-0.2,5.5
		c-0.1,1.9-0.2,4-0.4,6.1c-0.2,2.1-0.5,4.3-0.7,6.6c-0.2,2.3-0.7,4.6-1.1,7c-0.2,1.2-0.4,2.4-0.6,3.6c-0.2,1.2-0.6,2.4-0.8,3.7
		c-0.3,1.2-0.6,2.5-0.9,3.8c-0.2,0.6-0.3,1.3-0.5,1.9c-0.2,0.6-0.4,1.3-0.6,1.9c-0.8,2.5-1.5,5.1-2.4,7.7c-0.9,2.6-1.9,5.2-2.9,7.8
		c-1.1,2.6-2.2,5.1-3.4,7.7c-1.2,2.6-2.5,5.1-3.8,7.6c-2.7,5-5.6,9.9-8.7,14.5c-0.8,1.2-1.5,2.4-2.3,3.5c-0.8,1.1-1.7,2.2-2.5,3.3
		c-0.8,1.1-1.6,2.2-2.5,3.3c-0.9,1-1.7,2.1-2.6,3.1c-3.3,4.1-7,7.8-10.4,11.3c-1.8,1.6-3.5,3.2-5.1,4.8c-1.7,1.6-3.4,3-5.1,4.3
		c-3.3,2.7-6.6,4.8-9.7,6.5c-3,1.7-5.9,2.8-8.2,3.5c-2.4,0.8-4.3,1.1-5.6,1.3C730.7,711.1,730,711.2,730,711.2z"/>
</g>
<g id="XMLID_1408_">
	<path id="XMLID_1419_" d="M764.6,706.5c0,0,0.9-0.8,2.5-2.2c0.8-0.7,1.7-1.6,2.8-2.6c1.1-1,2.2-2.2,3.5-3.5
		c2.4-2.6,5.2-5.7,7.8-9.3c1.3-1.8,2.6-3.6,4-5.6c1.3-1.9,2.6-4,3.7-5.9c1.3-2.1,2.4-4.1,3.5-6.2c1.1-2.1,2.2-4.1,3.1-6.1
		c2-4,3.7-7.8,5.3-11.1c1.5-3.3,2.8-6.1,3.7-8c0.9-1.9,1.5-3,1.5-3s-0.1,1.2-0.5,3.3c-0.2,1.1-0.4,2.3-0.7,3.8
		c-0.3,1.5-0.7,3.1-1.2,4.9c-0.5,1.8-1,3.7-1.7,5.7c-0.6,2-1.4,4.1-2.2,6.3c-0.9,2.2-1.8,4.3-2.9,6.5c-1,2.2-2.3,4.4-3.5,6.5
		c-1.3,2.2-2.7,4.2-4.1,6.2c-1.5,2-3,3.9-4.5,5.6c-1.6,1.7-3.2,3.3-4.8,4.8c-1.6,1.5-3.2,2.7-4.7,3.8c-0.8,0.5-1.5,1.1-2.2,1.5
		c-0.7,0.4-1.4,0.9-2,1.3c-1.3,0.8-2.5,1.4-3.4,1.8c-1,0.5-1.8,0.8-2.3,1C764.9,706.3,764.6,706.5,764.6,706.5z"/>
</g>
<g id="XMLID_1405_">
	<path id="XMLID_1416_" d="M1067.9,500.7c0,0,0.2,0.6,0.4,1.7c0.2,1.1,0.5,2.6,0.7,4.5c0.5,3.7,0.8,8.7,0.8,13.6
		c0,4.9-0.3,9.9-0.8,13.6c-0.2,1.9-0.5,3.4-0.7,4.5c-0.2,1.1-0.4,1.7-0.4,1.7s-0.2-0.6-0.4-1.7c-0.2-1.1-0.5-2.6-0.7-4.5
		c-0.5-3.7-0.8-8.7-0.8-13.6c0-4.9,0.3-9.9,0.8-13.6c0.2-1.9,0.5-3.4,0.7-4.5C1067.7,501.3,1067.9,500.7,1067.9,500.7z"/>
</g>
<line id="XMLID_1404_" class="st10" x1="1375" y1="512.6" x2="1391.3" y2="520.5"/>
<g id="XMLID_1401_">
	<path id="XMLID_1413_" d="M392.1,365.6c0,0,0.1-0.4,0.3-1.2c0.2-0.7,0.6-1.7,1.2-2.9c1.2-2.3,3.3-5.3,6.4-7.3
		c0.4-0.3,0.8-0.5,1.2-0.7c0.4-0.2,0.8-0.4,1.3-0.6c0.9-0.4,1.8-0.6,2.7-0.7c0.9-0.1,1.8-0.1,2.6,0c0.8,0.1,1.6,0.3,2.2,0.5
		c0.7,0.3,1.2,0.5,1.7,0.8c0.5,0.3,0.9,0.6,1.2,0.8c0.6,0.5,0.9,0.9,0.9,0.9s-0.5,0-1.2-0.1c-0.4-0.1-0.8-0.1-1.3-0.1
		c-0.5-0.1-1,0-1.6,0c-0.3,0-0.6,0.1-0.9,0.1c-0.3,0-0.6,0-0.9,0.1c-0.6,0.1-1.2,0.3-1.9,0.5c-0.3,0.1-0.6,0.3-1,0.4
		c-0.3,0.1-0.6,0.3-1,0.5c-0.3,0.1-0.6,0.4-0.9,0.5c-0.3,0.2-0.6,0.4-0.9,0.6c-0.6,0.4-1.2,0.9-1.9,1.3c-0.6,0.5-1.2,0.9-1.8,1.4
		c-0.6,0.5-1.1,0.9-1.7,1.4c-0.5,0.5-1.1,0.9-1.5,1.3c-0.5,0.4-0.9,0.8-1.3,1.1c-0.4,0.3-0.8,0.6-1,0.9
		C392.5,365.4,392.1,365.6,392.1,365.6z"/>
</g>
<path id="XMLID_1400_" d="M1001.9,1297.6c8.4,28.6,42,42.2,77.3,54.8l-77.3-18.4l-20.5-8.3L1001.9,1297.6z"/>
<path id="XMLID_1399_" d="M631.8,1289.9c21.8,36.4,43.7,55,65.5,56l-44.4-4.5l-16.8-22L631.8,1289.9z"/>
<path id="XMLID_1398_" d="M881.1,1305.9h16.5c14.6,25.9,32.4,40,53.5,42.3l-35-6.8L881.1,1305.9z"/>
<path id="XMLID_1397_" d="M715.1,479.4c16.4,27.9,35.8,42.2,57.6,45l-34.2-5.2l-23.4-21.5V479.4z"/>
<line id="XMLID_1396_" class="st3" x1="271.3" y1="1373.3" x2="558" y2="1373.3"/>
<path id="XMLID_1395_" d="M860.7,729.2c-57-1.4-109.9-5-150.6-15.2l5.1,19.3l43.5,1.9l29.3,2h48.9L860.7,729.2z"/>
<g id="XMLID_1392_">
	<path id="XMLID_1410_" class="st0" d="M556.4,371.2c-1.4,4.5-1.6,9.2-0.6,13.6c0.3,1.1,0.6,2.1,1.1,3.2l0.4,0.8
		c0.1,0.1,0.1,0.3,0.2,0.3l0.2,0.4c0.3,0.5,0.6,1,0.9,1.4c1.3,1.8,2.9,3.3,4.7,4.5c1.8,1.2,3.8,2,5.9,2.2c0.5,0,1,0.1,1.5,0.1l0.4,0
		c0,0,0.2,0,0.1,0l0.2,0l0.9-0.1c0.9-0.2,1.9-0.4,2.9-0.8c1.9-0.8,3.6-2.1,4.8-3.7c1.2-1.6,1.9-3.5,2-5.4l3.8,0.2
		c-0.2,2.8,0.9,5.6,2.8,7.9c0.9,1.1,2,2.1,3.3,2.9c1.3,0.8,2.6,1.4,4.1,1.8c2.9,0.9,6,1,9.1,0.6c1.5-0.2,3.1-0.5,4.6-1
		c1.5-0.4,3-1,4.4-1.7c1.4-0.7,2.8-1.4,4.1-2.3c1.3-0.9,2.6-1.9,3.8-2.9c1.2-1.1,2.3-2.3,3.3-3.5c0.3-0.3,0.5-0.6,0.7-0.9
		c0.2-0.3,0.5-0.7,0.7-1c0.4-0.6,0.9-1.3,1.3-2c1.6-2.8,2.8-5.9,3.5-9.1c0.7-3.2,1-6.5,0.7-9.9c0.7,3.3,0.9,6.7,0.5,10.1
		c-0.4,3.4-1.3,6.7-2.8,9.9c-0.4,0.8-0.8,1.5-1.2,2.3c-0.2,0.4-0.4,0.7-0.7,1.1c-0.2,0.3-0.5,0.8-0.7,1.1c-1,1.4-2.1,2.8-3.3,4
		c-2.4,2.5-5.3,4.6-8.4,6.2c-1.6,0.8-3.2,1.5-4.9,2c-1.7,0.6-3.4,1-5.1,1.3c-3.5,0.6-7.2,0.4-10.7-0.5c-1.8-0.5-3.5-1.2-5.1-2.2
		c-1.6-1-3-2.3-4.2-3.7c-1.2-1.5-2.1-3.1-2.8-4.9c-0.6-1.8-0.9-3.8-0.8-5.7l3.8,0.2c-0.1,1.4-0.4,2.7-0.9,4
		c-0.5,1.3-1.2,2.4-2.1,3.5c-1.7,2.1-3.9,3.6-6.3,4.6c-1.2,0.5-2.5,0.8-3.9,0.9l-0.9,0l-0.2,0c-0.2,0-0.2,0-0.3,0l-0.5,0
		c-0.7,0-1.3-0.1-1.9-0.2c-2.6-0.5-4.9-1.6-7-3.1c-2-1.5-3.7-3.4-5-5.5c-0.3-0.6-0.6-1.1-0.9-1.6l-0.2-0.4c-0.1-0.2-0.1-0.3-0.2-0.5
		l-0.3-0.9c-0.4-1.2-0.7-2.4-0.9-3.6C553.5,380.3,554.4,375.4,556.4,371.2z"/>
</g>
<g id="XMLID_1389_">
	<path id="XMLID_1407_" class="st0" d="M743.8,367.6c0,0,0.8,0.2,2.1,0.4c0.7,0.1,1.5,0.2,2.4,0.3c0.9,0.1,2,0.1,3.1,0.1
		c1.1,0,2.4-0.1,3.6-0.3c1.3-0.1,2.6-0.5,3.9-0.8c1.3-0.3,2.7-0.9,4-1.4c1.3-0.6,2.6-1.3,3.9-2c1.3-0.8,2.4-1.7,3.5-2.6
		c1.1-1,2.1-2,3-3c0.9-1.1,1.7-2.1,2.4-3.2c0.7-1.1,1.3-2.1,1.8-3.1c0.5-1,0.9-2,1.3-2.8c0.3-0.9,0.6-1.6,0.8-2.3
		c0.4-1.3,0.6-2,0.6-2s0,0.2,0,0.6c0,0.4,0,0.9-0.1,1.6c0,0.7-0.2,1.5-0.3,2.5c-0.1,0.5-0.2,1-0.3,1.5c-0.1,0.5-0.3,1.1-0.5,1.6
		c-0.4,1.1-0.9,2.3-1.5,3.5c-0.6,1.2-1.4,2.5-2.3,3.7c-0.9,1.2-1.9,2.4-3.1,3.5c-1.2,1.1-2.5,2.1-3.8,3c-1.4,0.8-2.8,1.6-4.3,2.2
		c-1.5,0.6-3,1-4.5,1.3c-1.5,0.3-2.9,0.5-4.3,0.5c-1.4,0.1-2.7,0-3.9-0.1c-1.2-0.1-2.3-0.4-3.2-0.6c-0.9-0.2-1.7-0.5-2.4-0.8
		c-0.7-0.2-1.1-0.5-1.5-0.6C744,367.7,743.8,367.6,743.8,367.6z"/>
</g>
<g id="XMLID_1386_">
	<path id="XMLID_1403_" class="st0" d="M748.9,356.3c0,0,0.3,0.1,0.8,0.2c0.5,0.1,1.2,0.2,1.9,0.2c1.5,0,3.5-0.2,5.2-1
		c0.5-0.2,0.8-0.4,1.2-0.7c0.4-0.3,0.7-0.6,1.1-0.9c0.7-0.6,1.2-1.3,1.7-1.9c0.4-0.6,0.8-1.2,1-1.7c0.2-0.5,0.4-0.7,0.4-0.7
		s0,0.1,0,0.2c0,0.1,0.1,0.3,0.1,0.6c0.1,0.5,0.1,1.3-0.1,2.2c-0.2,0.9-0.6,1.9-1.3,2.8c-0.4,0.5-0.8,0.9-1.2,1.3
		c-0.5,0.4-1.1,0.8-1.6,1c-1.2,0.6-2.4,0.8-3.6,0.8c-1.2,0-2.2-0.3-3.1-0.7c-0.8-0.4-1.4-0.8-1.8-1.2c-0.2-0.2-0.3-0.3-0.4-0.4
		C748.9,356.3,748.9,356.3,748.9,356.3z"/>
</g>
</svg>
