<?xml version="1.0" encoding="utf-8"?>
<!-- Generator: Adobe Illustrator 22.1.0, SVG Export Plug-In . SVG Version: 6.00 Build 0)  -->
<svg version="1.1" id="Layer_6" xmlns="http://www.w3.org/2000/svg" xmlns:xlink="http://www.w3.org/1999/xlink" x="0px" y="0px"
	 viewBox="0 0 1527.1 1502.4" style="enable-background:new 0 0 1527.1 1502.4;" xml:space="preserve">
<style type="text/css">
	.st0{fill:#FFFFFF;}
	.st1{fill:none;stroke:#000000;stroke-width:10;stroke-miterlimit:10;}
	.st2{fill:#E84B6C;}
	.st3{fill:none;stroke:#000000;stroke-miterlimit:10;}
	.st4{fill:none;stroke:#000000;stroke-width:5;stroke-miterlimit:10;}
	.st5{fill:none;stroke:#000000;stroke-width:3;stroke-miterlimit:10;}
	.st6{fill:none;stroke:#FFFFFF;stroke-width:2;stroke-miterlimit:10;}
	.st7{fill:none;stroke:#FFFFFF;stroke-width:2;stroke-miterlimit:10;stroke-dasharray:5;}
	.st8{fill:none;}
</style>
<polygon id="XMLID_1741_" class="st0" points="230.6,720.4 138.2,720.4 138.2,734.4 189.8,750 88.4,802 97.6,817.4 184.6,790.1 
	100.9,845.9 201.3,818.7 130.2,873.1 132.3,887 211.8,829.2 172,877.3 184.6,890.1 297.1,755.8 322.6,735.1 373.9,575.7 
	414.6,605.4 435,613.9 529.4,617.6 604.9,607.5 661,564.3 661,505.8 699.8,548.8 767.2,570.6 834.9,555.9 888.4,526.4 890.8,507 
	922.7,499.7 971,466.4 981,446.9 989,470.1 1002.7,470.1 1016.7,427.4 996.5,414 971,392.8 948.3,374.1 895.5,376.1 867.7,420.9 
	867.7,454.8 770.7,473.8 741.4,461.1 707.2,397.1 640.7,271.3 586.7,231.1 516.4,217.4 492.4,217.4 481.6,170.1 488.1,156.4 
	469.7,140.7 448.1,151.6 458.5,223.6 326.7,260.8 302.8,397.1 275.7,544.9 259.9,618.3 240.9,666.5 "/>
<polygon id="XMLID_1742_" class="st0" points="1171.4,168 1187.9,130.8 1207.1,122 1217.1,135.4 1228.3,124.9 1291.4,169.9 
	1297.8,186.1 1305.3,205.2 1291.4,212.3 1261.3,216.2 1231.9,260.6 1195.1,281.8 1132,269.5 1114.4,249.3 1130.4,208.8 "/>
<polygon id="XMLID_1740_" class="st0" points="685.2,1448 685.7,1466.7 922,1476.6 905.3,1454.5 870.8,1434.1 867.5,1463.3 "/>
<polygon id="XMLID_1743_" class="st0" points="336.2,1441.5 333.3,1468.7 376.1,1468.7 450.2,1470.5 457.7,1444.4 376.3,1448.5 "/>
<polygon id="XMLID_1_" class="st0" points="961.6,518 1012.8,572.3 1072.1,594.9 1122.3,591.9 1190.4,569.1 1142.6,690.7 
	1134.8,822.2 1153.7,1022.5 1190,1200.7 1208.4,1354.6 1201.9,1382.5 1136.7,1378.2 1089.7,1112.2 1099.5,1353.1 1028.6,1355.9 
	1012.9,1334.5 980.7,1077.9 938.4,817.6 942.4,700.1 954.5,589.1 "/>
<line id="XMLID_1713_" class="st1" x1="148.7" y1="1431.9" x2="1012.9" y2="1420.6"/>
<line id="XMLID_1712_" class="st1" x1="1192.5" y1="1421.4" x2="1402.8" y2="1414"/>
<path id="XMLID_1711_" d="M527.1,673.6l-25.2,34.3C495,815,488.3,923.5,477.4,971.5c-4.7,74.9-26.4,232.5-47.7,388.3l-91,5.1
	l59.6-524.5l12.1-189.2l14.8-31.4l58.6,6.5l104.1-19.7l49.7-12l15.1,21.8c37.5,229.5,70.1,482.4,99.6,750.1l-84.8,0.5l-29.3-259.8
	l-71.2-300.5l-21.5-112.2L527.1,673.6z"/>
<polygon id="XMLID_1710_" class="st2" points="1027.1,366.8 1032,331.8 1010.9,368.1 988.8,405.1 1008,416.2 1012.7,436.4 
	1008,459.4 1002.7,470.1 993,470.1 984.6,462.9 971.6,486.5 971,518.7 989,550.8 1018.1,564.1 1030.6,576.5 1064.1,583 
	1082.2,594.5 1114.3,591 1154.7,579.3 1197.9,560.5 1225.1,525.1 1267.1,466.4 1329.7,413.4 1339.4,439.3 1349.2,489.4 
	1349.2,521.5 1337.4,552.8 1315,572 1267.1,594.5 1204.9,594.5 1179.8,591 1160.1,651.2 1201.9,656 1308.8,651.2 1345.2,651.2 
	1391.9,627.9 1417.5,591 1438.5,529.1 1443.3,462.9 1438.5,410.6 1412,351.3 1377.9,298.3 1331.4,274.7 1315.7,262.1 1267.1,258.6 
	1229.4,258.6 1207.1,272.6 1146.7,284.1 1118.6,256.8 1108.9,228.1 1076.6,213.6 1032.7,212.5 965.4,239.8 907.9,290 862.6,332.5 
	839.6,374.3 831.2,434.3 838.2,454.5 862.6,451.1 877.3,397.1 890.8,379 922.5,372.6 960,375.8 993,351.3 1022.2,340.2 "/>
<polygon id="XMLID_1709_" class="st0" points="986,251 982.5,276.5 965.4,292.1 1000.6,297 1008.6,319.7 1023.3,300.5 1058.4,294.2 
	1034.1,272.6 1035.5,254.4 1003.4,262.8 "/>
<polygon id="XMLID_1708_" class="st0" points="1073.4,280.4 1069.9,305.8 1052.8,321.5 1088,326.4 1096,349 1110.7,329.9 
	1145.8,323.6 1121.5,302 1122.9,283.8 1090.8,292.2 "/>
<polygon id="XMLID_1707_" class="st0" points="1163.2,315.4 1159.7,340.9 1142.6,356.5 1177.9,361.4 1185.8,384.1 1200.5,364.9 
	1235.6,358.6 1211.3,337 1212.7,318.8 1180.7,327.2 "/>
<polygon id="XMLID_1706_" class="st0" points="1034,341.4 1030.5,366.9 1013.3,382.6 1048.6,387.4 1056.6,410.1 1071.2,390.9 
	1106.3,384.6 1082.1,363 1083.5,344.9 1051.4,353.3 "/>
<polygon id="XMLID_1705_" class="st0" points="914.1,374.3 886.4,363.3 914.1,351.3 919.1,319.7 935.4,339.1 960,329.8 960,356.9 
	984.6,372.7 965.4,379.8 946.9,374.3 922.5,379.8 "/>
<polygon id="XMLID_1704_" class="st2" points="472.7,124.1 454.7,112.2 423,115.6 383.2,133.2 352.3,174.6 330,333.9 336.4,405 
	362,423.7 410.3,427.4 454.7,415.8 459.6,375.8 453.5,271.3 460,213.6 453.5,162.6 447.8,147.1 "/>
<polygon id="XMLID_1703_" class="st0" points="447,174.6 441.7,163.4 430.6,164.7 423.8,174.6 430.6,186.3 437.6,198.7 "/>
<polygon id="XMLID_1702_" points="1222.3,125 1219.7,101.3 1217.2,61.8 1226.5,32.5 1235.8,26 1249.7,35.3 1260.5,72 1273.5,112.9 
	1293.3,118.5 1305.5,125 1309.7,138.6 1291.8,170.1 1263.5,152.4 1236.7,133.7 "/>
<polygon id="XMLID_1701_" class="st2" points="671.9,1363.3 682.4,1454.5 864.4,1458.1 867.5,1431.9 811.4,1406.9 791.8,1398.1 
	759.8,1364.9 "/>
<polygon id="XMLID_1700_" class="st2" points="343.9,1354.6 429.7,1359.8 424.4,1413.4 439.7,1413.4 451.5,1434.1 451.5,1448.5 
	328.2,1441.5 "/>
<polygon id="XMLID_1699_" points="971,1443.8 982.7,1454.5 1033.4,1449.2 1123.3,1443.8 1137.3,1423 1148.4,1414 1157.6,1426.8 
	1166.6,1438.9 1208.4,1427.8 1208.4,1367.1 1173.7,1379.2 1135.9,1371.3 1118.2,1367.1 1107.6,1370.1 1107.6,1394.7 1103.8,1405.5 
	1086.9,1414 1056,1416.3 1036.9,1409.4 "/>
<polygon id="XMLID_1698_" points="932.3,1379.2 889.3,1394.7 879.7,1403.8 886.7,1415.4 911.3,1418.9 993.2,1409.4 1025.7,1399 
	1041.1,1380.9 1050.8,1374.4 1057.8,1382.5 1057.8,1394.7 1102.6,1374.4 1102.6,1360.8 1098.3,1349.4 1089.7,1349.4 1053.6,1357.4 
	1025,1349.4 1008.8,1337.6 1003.4,1346.3 995.4,1363.3 986.7,1371.3 975.7,1379.2 960.9,1385.2 942.3,1379.2 "/>
<polygon id="XMLID_1697_" class="st0" points="709.9,1380.2 697.4,1395.2 693.9,1404.3 707.9,1418.9 716.9,1427.8 729.4,1427.8 
	746.4,1416.9 752.2,1404.3 742.7,1389.4 728,1380.9 "/>
<polygon id="XMLID_1696_" class="st0" points="357.2,1443.1 373.9,1416.8 389.9,1406 397.5,1415.4 403.2,1424.6 406.7,1445.9 "/>
<g id="XMLID_1693_">
	<path id="XMLID_1695_" d="M989,630.2c0,0,0.5,0.3,1.3,1c0.8,0.6,1.9,1.5,3.2,2.6c0.6,0.5,1.3,1.1,2,1.8c0.7,0.6,1.4,1.3,2.2,2
		c0.7,0.7,1.5,1.3,2.3,2.1c0.8,0.7,1.5,1.4,2.4,2c0.8,0.7,1.6,1.3,2.4,2c0.8,0.6,1.6,1.3,2.4,1.8c0.8,0.6,1.6,1.1,2.3,1.6
		c0.8,0.5,1.5,1,2.2,1.4c0.7,0.4,1.3,0.8,1.9,1.1c0.6,0.3,1.1,0.7,1.6,0.9c0.9,0.5,1.4,0.8,1.4,0.8s-0.6,0.2-1.6,0.3
		c-0.5,0.1-1.2,0.1-1.9,0.1c-0.7,0-1.6,0-2.5-0.1c-0.9-0.1-1.8-0.3-2.9-0.6c-1-0.3-2-0.7-3-1.2c-1-0.5-2-1-3-1.7
		c-1-0.7-1.9-1.4-2.8-2.1c-0.9-0.8-1.7-1.6-2.6-2.4c-0.8-0.9-1.5-1.7-2.2-2.6c-0.7-0.9-1.2-1.8-1.7-2.6c-0.5-0.8-0.9-1.7-1.3-2.5
		c-0.4-0.8-0.7-1.6-0.9-2.2c-0.3-0.7-0.4-1.3-0.6-1.7C989.1,630.8,989,630.2,989,630.2z"/>
</g>
<g id="XMLID_1690_">
	<path id="XMLID_1692_" d="M573.2,1476.6c0,0,1.6-0.1,4.6-0.2c3-0.1,7.4-0.3,13.1-0.5c11.3-0.4,27.3-0.9,46.6-1.3
		c9.7-0.2,20.1-0.5,31.2-0.6c11.1-0.2,22.7-0.4,34.8-0.5c12.1-0.1,24.5-0.3,37.2-0.3c12.7,0,25.5-0.1,38.4-0.1
		c12.9,0,25.7,0.1,38.4,0.1c12.7,0,25.1,0.2,37.2,0.3c12.1,0.1,23.7,0.3,34.8,0.5c11.1,0.2,21.5,0.4,31.2,0.6
		c19.3,0.4,35.4,0.9,46.6,1.3c5.6,0.2,10.1,0.4,13.1,0.5c3,0.1,4.6,0.2,4.6,0.2s-1.6,0.1-4.6,0.2c-3,0.1-7.4,0.3-13.1,0.5
		c-11.3,0.4-27.3,0.9-46.6,1.3c-9.7,0.2-20.1,0.5-31.2,0.6c-11.1,0.2-22.7,0.4-34.8,0.5c-12.1,0.1-24.5,0.3-37.2,0.3
		c-12.7,0-25.5,0.1-38.4,0.1c-12.9,0-25.7-0.1-38.4-0.1c-12.7,0-25.1-0.2-37.2-0.3c-12.1-0.1-23.7-0.3-34.8-0.5
		c-11.1-0.1-21.5-0.4-31.2-0.6c-19.3-0.4-35.4-0.9-46.6-1.3c-5.6-0.2-10.1-0.4-13.1-0.5C574.8,1476.6,573.2,1476.6,573.2,1476.6z"/>
</g>
<g id="XMLID_1687_">
	<path id="XMLID_1689_" d="M245.6,1471c0,0,1.6-0.1,4.6-0.2c3-0.1,7.4-0.3,13.1-0.5c11.3-0.4,27.3-0.9,46.6-1.3
		c9.7-0.2,20.1-0.5,31.2-0.6c11.1-0.2,22.7-0.4,34.8-0.5c12.1-0.1,24.5-0.3,37.2-0.3c12.7,0,25.5-0.1,38.4-0.1
		c12.9,0,25.7,0.1,38.4,0.1c12.7,0,25.1,0.2,37.2,0.3c12.1,0.1,23.7,0.3,34.8,0.5c11.1,0.2,21.5,0.4,31.2,0.6
		c19.3,0.4,35.4,0.9,46.6,1.3c5.6,0.2,10.1,0.4,13.1,0.5c3,0.1,4.6,0.2,4.6,0.2s-1.6,0.1-4.6,0.2c-3,0.1-7.4,0.3-13.1,0.5
		c-11.3,0.4-27.3,0.9-46.6,1.3c-9.7,0.2-20.1,0.5-31.2,0.6c-11.1,0.2-22.7,0.4-34.8,0.5c-12.1,0.1-24.5,0.3-37.2,0.3
		c-12.7,0-25.5,0.1-38.4,0.1c-12.9,0-25.7-0.1-38.4-0.1c-12.7,0-25.1-0.2-37.2-0.3c-12.1-0.1-23.7-0.3-34.8-0.5
		c-11.1-0.1-21.5-0.4-31.2-0.6c-19.3-0.4-35.4-0.9-46.6-1.3c-5.6-0.2-10.1-0.4-13.1-0.5C247.2,1471.1,245.6,1471,245.6,1471z"/>
</g>
<g id="XMLID_1684_">
	<path id="XMLID_1686_" d="M430.6,117.7c0,0-1.2,0.3-3.6,0.8c-1.2,0.2-2.5,0.8-4.2,1.3c-1.6,0.5-3.4,1.5-5.4,2.4
		c-3.8,2.2-8.4,5.1-12.7,9.5c-4.4,4.3-8.7,9.8-12.8,16.1c-4,6.4-7.8,13.7-11.3,21.7c-3.5,7.9-6.5,16.7-9.3,25.7
		c-2.8,9.1-5.1,18.6-7.3,28.4c-1,4.9-2.1,9.8-2.9,14.8c-1,5-1.7,10-2.5,15c-0.8,5-1.4,10.1-2.1,15.1c-0.6,5-1.2,10-1.7,15
		c-1,10-1.8,19.8-2.4,29.3c-0.3,4.8-0.6,9.4-0.8,14c-0.2,4.6-0.5,9.1-0.5,13.4c-0.3,8.7-0.4,17-0.5,24.6c-0.1,3.8,0,7.5,0,11
		c0,3.5-0.1,6.8,0,9.9c0.1,6.2,0.1,11.6,0.2,16.1c0.1,4.5,0.2,8,0.2,10.4c0,2.4,0.1,3.7,0.1,3.7s-0.1-1.3-0.3-3.7
		c-0.2-2.4-0.5-5.9-0.8-10.3c-0.3-4.5-0.6-9.9-0.9-16.1c-0.3-6.2-0.6-13.2-0.8-20.9c-0.1-3.8-0.1-7.8-0.2-11.9
		c-0.1-4.1,0-8.4,0-12.8c0-4.4,0.1-8.9,0.2-13.5c0.1-4.6,0.3-9.3,0.5-14.1c0.2-4.8,0.5-9.6,0.8-14.6c0.3-4.9,0.8-9.9,1.2-14.9
		c0.4-5,1.1-10,1.6-15.1c0.7-5.1,1.3-10.1,2-15.2c0.8-5.1,1.6-10.1,2.6-15.1c0.9-5,2-10,3-14.9c2.2-9.8,4.7-19.5,7.7-28.6
		c3-9.1,6.2-17.9,9.9-25.9c3.7-8,7.8-15.3,12.1-21.7c4.4-6.4,9.1-11.7,13.7-15.9c4.6-4.3,9.4-7.1,13.4-9.1c2.1-0.9,3.9-1.8,5.6-2.2
		c1.7-0.5,3.1-1,4.3-1.1C429.3,117.9,430.6,117.7,430.6,117.7z"/>
</g>
<path id="XMLID_1683_" class="st3" d="M379.5,355.1c3.5-84.6-0.4-199.4,44.2-237.4"/>
<polygon id="XMLID_1682_" points="721.9,1391 717.1,1398.2 707.8,1399.8 715.6,1405 711.1,1413.9 720.7,1409.7 728.5,1415.3 
	727,1406.1 736,1402.5 725.6,1399.5 "/>
<polygon id="XMLID_1681_" points="1263.5,215.1 1257.5,223.4 1257.5,232.8 1263.5,241.6 1269.1,246.8 1282.5,238.1 1293.3,246.8 
	1309.7,245.4 1312.6,230.9 1325.2,222 1329.3,201.8 1318.2,188.6 1296.1,177.1 1288.9,177.1 1297.6,197.5 1298,205.1 1289.6,212.5 
	1275,216.8 "/>
<path id="XMLID_1680_" class="st4" d="M965.4,499.7c45,83.6,127.6,94.9,236.5,55.6"/>
<line id="XMLID_1679_" class="st4" x1="1133.3" y1="573.8" x2="1133.3" y2="585.5"/>
<line id="XMLID_1678_" class="st4" x1="1111.8" y1="577.1" x2="1111.8" y2="591.3"/>
<line id="XMLID_1677_" class="st4" x1="1091.3" y1="577.1" x2="1091.3" y2="589.1"/>
<line id="XMLID_1676_" class="st4" x1="1072.1" y1="575.7" x2="1065.8" y2="589.1"/>
<line id="XMLID_1675_" class="st4" x1="1051.5" y1="573.8" x2="1044.6" y2="584.2"/>
<line id="XMLID_1674_" class="st4" x1="1031.1" y1="564.3" x2="1026.1" y2="573.8"/>
<line id="XMLID_1673_" class="st4" x1="1015.6" y1="555.9" x2="1011.4" y2="561"/>
<line id="XMLID_1672_" class="st4" x1="1002.7" y1="546.6" x2="996.5" y2="554.2"/>
<line id="XMLID_1671_" class="st4" x1="989" y1="535.9" x2="986" y2="539.9"/>
<polygon id="XMLID_1670_" class="st2" points="944,579 894,546.6 883.8,535.9 895.6,521.2 897.1,510 922.5,502.9 935,499.7 
	954.7,510 961.6,518 954.7,550.4 "/>
<polygon id="XMLID_1669_" points="454.7,224 492.4,220.3 478,231.1 457.4,237.3 "/>
<polygon id="XMLID_1668_" points="1183.6,585.5 1179.8,651.2 1157.5,648.7 "/>
<path id="XMLID_1667_" d="M1245.7,570.6"/>
<polygon id="XMLID_1666_" points="961.6,518 933.2,569.1 950,579.7 "/>
<path id="XMLID_1665_" d="M1122.3,248.9c23.6,22.8,53.2,28,86.3,22.8l-54,10.9l-28.7-18.7L1122.3,248.9z"/>
<polygon id="XMLID_1664_" points="998.8,642.2 1048.7,890.1 1027.3,709.5 1013.2,651.2 "/>
<g id="XMLID_1661_">
	<path id="XMLID_1663_" d="M1091,33.5c0,0,0,0.6,0.1,1.7c0,1.1,0.2,2.8,0.2,4.9c0.1,4.2,0.2,10.2,0.1,17.3c-0.1,7.2-0.5,15.5-1,24.4
		c-0.3,4.5-0.6,9.1-1,13.7c-0.4,4.7-0.9,9.4-1.3,14.1c-0.5,4.7-1,9.5-1.6,14.1c-0.6,4.7-1.2,9.2-1.8,13.6c-1.3,8.8-2.7,17.1-4,24.1
		c-1.3,7-2.6,12.9-3.6,17c-0.5,2-0.9,3.6-1.2,4.7c-0.3,1.1-0.5,1.7-0.5,1.7s0-0.6-0.1-1.7c0-1.1-0.2-2.8-0.2-4.9
		c-0.1-4.2-0.2-10.2-0.1-17.3c0.1-7.2,0.5-15.5,1-24.4c0.3-4.5,0.6-9.1,1-13.7c0.4-4.7,0.9-9.4,1.3-14.1c0.5-4.7,1-9.5,1.6-14.1
		c0.6-4.7,1.2-9.2,1.8-13.6c1.3-8.8,2.7-17.1,4-24.1c1.3-7,2.6-12.9,3.6-17c0.5-2,0.9-3.6,1.2-4.7C1090.8,34,1091,33.5,1091,33.5z"
		/>
</g>
<g id="XMLID_1658_">
	<path id="XMLID_1660_" d="M960,41.8c0,0,0.3,0.6,0.8,1.6c0.5,1.1,1.4,2.6,2.3,4.6c1.9,3.9,4.6,9.6,7.6,16.5c3,6.9,6.3,15,9.7,23.7
		c1.7,4.4,3.4,8.9,5.1,13.5c1.7,4.6,3.3,9.3,5,14c1.6,4.7,3.2,9.4,4.7,14.1c1.5,4.7,2.9,9.3,4.3,13.8c2.7,9,5,17.4,6.9,24.7
		c1.9,7.3,3.2,13.4,4.1,17.7c0.5,2.1,0.8,3.9,1,5c0.2,1.2,0.3,1.8,0.3,1.8s-0.3-0.6-0.8-1.6c-0.5-1.1-1.4-2.6-2.3-4.6
		c-2-3.9-4.6-9.6-7.6-16.5c-3-6.9-6.3-15-9.7-23.7c-1.7-4.4-3.4-8.9-5.1-13.5c-1.7-4.6-3.3-9.3-5-14c-1.6-4.7-3.2-9.4-4.7-14.1
		c-1.5-4.7-2.9-9.3-4.3-13.8c-2.7-9-5-17.4-6.9-24.7c-1.9-7.3-3.2-13.4-4.1-17.7c-0.5-2.1-0.8-3.9-1-5C960.2,42.4,960,41.8,960,41.8
		z"/>
</g>
<g id="XMLID_1655_">
	<path id="XMLID_1657_" d="M852.8,76.7c0,0,0.5,0.5,1.3,1.4c0.8,0.9,2.1,2.2,3.6,4c3.1,3.4,7.4,8.4,12.3,14.4
		c5,6.1,10.6,13.2,16.5,21.1c2.9,3.9,6,8,9,12.1c3,4.1,6,8.4,9,12.7c3,4.3,5.9,8.6,8.8,12.8c2.9,4.3,5.6,8.5,8.3,12.6
		c5.3,8.2,10.1,16,14.1,22.8c4,6.8,7.1,12.5,9.3,16.6c1.1,2,1.9,3.6,2.5,4.7c0.5,1.1,0.8,1.7,0.8,1.7s-0.5-0.5-1.3-1.4
		c-0.8-0.9-2.1-2.2-3.6-4c-3.1-3.4-7.4-8.4-12.3-14.4c-5-6.1-10.6-13.2-16.5-21.1c-2.9-3.9-6-8-9-12.1c-3-4.1-6-8.4-9-12.7
		c-3-4.3-5.9-8.6-8.8-12.9c-2.9-4.3-5.6-8.5-8.3-12.6c-5.3-8.2-10.1-16-14.1-22.8c-4-6.8-7.2-12.5-9.3-16.6c-1.1-2-1.9-3.6-2.5-4.7
		C853.1,77.3,852.8,76.7,852.8,76.7z"/>
</g>
<g id="XMLID_1652_">
	<path id="XMLID_1654_" d="M759.4,156.4c0,0,0.6,0.3,1.7,0.9c1.1,0.6,2.8,1.4,4.9,2.5c4.2,2.2,10.1,5.5,17,9.6c7,4.1,15,9,23.5,14.5
		c4.2,2.7,8.6,5.6,13,8.5c4.4,2.9,8.8,6,13.3,9c4.4,3.1,8.8,6.2,13.1,9.3c4.3,3.1,8.5,6.2,12.5,9.2c8.1,6,15.5,11.8,21.8,16.9
		c6.3,5.1,11.4,9.5,14.9,12.6c1.8,1.5,3.1,2.8,4.1,3.7c0.9,0.9,1.4,1.3,1.4,1.3s-0.6-0.3-1.7-0.9c-1.1-0.6-2.8-1.4-4.9-2.5
		c-4.2-2.2-10.1-5.5-17.1-9.6c-7-4.1-15-9-23.5-14.5c-4.2-2.7-8.6-5.6-13-8.5c-4.4-2.9-8.8-6-13.2-9c-4.4-3.1-8.8-6.2-13.1-9.3
		c-4.3-3.1-8.5-6.2-12.5-9.2c-8.1-6-15.5-11.8-21.8-16.9c-6.3-5.1-11.4-9.5-14.9-12.6c-1.8-1.5-3.1-2.8-4.1-3.7
		C759.9,156.8,759.4,156.4,759.4,156.4z"/>
</g>
<g id="XMLID_1649_">
	<path id="XMLID_1651_" d="M706.4,260.1c0,0,0.5,0.1,1.5,0.3c1,0.2,2.5,0.4,4.3,0.8c3.7,0.7,9,1.9,15.2,3.5c6.2,1.6,13.4,3.6,21.1,6
		c3.8,1.2,7.8,2.4,11.7,3.8c4,1.3,8,2.7,12,4.2c4,1.5,8,2.9,11.9,4.4c3.9,1.5,7.8,3,11.5,4.5c7.4,3,14.3,6.1,20.1,8.8
		c5.8,2.7,10.6,5.2,13.9,7c1.7,0.9,3,1.6,3.8,2.1c0.9,0.5,1.3,0.8,1.3,0.8s-0.5-0.1-1.5-0.3c-1-0.2-2.5-0.4-4.3-0.8
		c-3.7-0.7-9-1.9-15.2-3.5c-6.2-1.6-13.4-3.6-21.1-6c-3.8-1.2-7.8-2.4-11.7-3.8c-4-1.3-8-2.7-12-4.2c-4-1.5-8-2.9-11.9-4.4
		c-3.9-1.5-7.8-3-11.5-4.6c-7.4-3-14.2-6.1-20.1-8.8c-5.8-2.7-10.6-5.2-13.9-7c-1.7-0.9-3-1.6-3.8-2.1
		C706.9,260.3,706.4,260.1,706.4,260.1z"/>
</g>
<path id="XMLID_1648_" class="st5" d="M1136.9,591.9c-32.7,282-0.2,530.5,52.6,773.1"/>
<path id="XMLID_1647_" class="st5" d="M1104.1,594.2c-32.7,282-0.2,541.5,52.6,784.1"/>
<path id="XMLID_1646_" class="st5" d="M1062.7,911.1c-11.8-122.5-21.3-241.1-6-319.2"/>
<path id="XMLID_1645_" class="st5" d="M1028.6,579.7c-17.4,16.3-17.3,56.2-17.2,95.9"/>
<path id="XMLID_1644_" class="st5" d="M986,539.9c-70.4,152.5,9,350.8,62.5,819.7"/>
<path id="XMLID_1643_" class="st5" d="M997.9,635.5c6.5,219.1,42.3,459.4,88,706.9"/>
<g id="XMLID_1571_">
	<path id="XMLID_1596_" d="M1215.5,1366c-5.1,1.9-4.9,5.5-4.7,9.9c0.9,14,1.5,28.1,1.9,42.1c0.1,3.7-0.7,7.5-1.3,11.2
		c-0.5,2.9-2.2,4.7-5.3,5.2c-12.1,2.1-24.1,4.5-36.2,6.6c-2.1,0.4-4.4,0.3-6.8,0.4c-1.2-3.3-2.2-6.2-3.3-9.1
		c-0.7-1.9-1.3-3.8-2.2-5.6c-1.2-2.5-3.1-4.3-5.6-5.5c-4.9-2.3-8-1.8-10.9,2.8c-3,4.7-5.5,9.7-7.7,14.8c-3.7,8.5-2.1,7.5-11.5,8.6
		c-17.5,2.1-35,4.2-52.6,4.6c-12.7,0.3-25.4,0.6-38.1,1c-3.3,0.1-6.7,0.5-9.9,1.1c-14.7,2.7-29.3,2.9-43.7-1
		c-2.1-0.6-4.3-1.3-6.3-2.1c-1.2-0.5-2.4-1.2-3.4-2.1c-4.2-4-4.2-8.3,0.3-11.9c6.2-5.1,13.3-9,20.5-12.5
		c15.9-7.6,31.9-15.1,47.8-22.6c4.2-2,8.5-3.9,12.7-6c1.6-0.8,3-1.8,4.4-2.6c0.5-6.3-0.1-8.7-2.9-12c-2.8,0.2-5,1.5-6.9,3.5
		c-3.1,3.2-6.4,6.3-8.2,10.5c-1.4,3.4-4,5-7.5,5.9c-26.9,7.4-53.8,14.4-81.6,17.5c-7.5,0.8-15,2.4-22.5,3.2
		c-8.6,0.8-17.3,1.3-26,1.5c-3.3,0.1-6.6-0.7-9.8-1.6c-4.4-1.2-7.3-4.1-8-8.9c-0.3-1.8-0.6-3.5-0.7-5.3c-0.1-4,1.2-7.5,4.8-9.7
		c5.1-3.2,10.1-6.6,15.4-9.4c24.6-12.6,49.6-24.5,75.1-35.3c9.2-3.9,18.3-8.2,27.5-12.3c1.4-0.6,2.8-1.4,4.2-2.1
		c9-4.8,8-5.3,7.1-13.5c-0.8-7.8-1.2-15.6-1.7-23.3c-0.5-8.2-0.8-16.5-1.6-24.7c-0.7-7.1-2-14.1-3-21.2c-1.7-12.1-3.3-24.3-5-36.4
		c-1.5-10.6-3-21.2-4.5-31.8c-2.1-14.6-4.1-29.1-6.2-43.7c-1.8-12.3-3.7-24.7-5.8-37c-3.3-20.5-6.8-40.9-10.2-61.4
		c-4.3-26.2-8.7-52.3-13-78.5c-5-30.6-10.2-61.1-14.7-91.8c-2.9-19.4-6-38.8-9.3-58.1c-2.6-15.4-4.4-30.9-6.6-46.3
		c-0.2-1.5-0.4-3.1-0.2-4.7c1.8-12.2,0.3-24.5,0.3-36.7c0-4.7,0-9.4,0-14c0-3.3,0.3-6.7,0.3-10c0.2-19,1.8-37.8,3.8-56.7
		c2.2-21.3,5.3-42.5,9.1-63.5c0.2-0.9,0.1-1.7,0.2-2.9c-4.7-2.6-9.4-5-13.9-7.8c-4.6-2.8-9-5.8-13.5-8.7c-4.3-2.8-8.6-5.6-12.8-8.5
		c-4.4-3-8.9-6-13.2-9.2c-4.3-3.2-8.3-6.7-12.6-10.3c-0.6,0.2-1.5,0.4-2.2,0.9c-13.2,8.7-27.8,14.1-42.8,18.7
		c-17.7,5.4-35.6,10.1-54,12.9c-17.3,2.7-34.2,0.8-50.7-5.4c-15.7-5.9-29.6-14.7-41.6-26.2c-5.5-5.2-10.4-11-15.6-16.5
		c-0.7-0.7-1.5-1.4-2.6-2.4c-1.2,2.9-0.7,5.4-1.1,7.7c-0.3,2.4-0.5,4.9-0.8,7.3c-0.6,4.4-1.1,8.9-1.9,13.2
		c-2.3,11.6-7.1,22-14.3,31.3c-6.9,8.9-6,7.2-3.8,16.9c3.2,14.4,6.8,28.6,9.8,43.1c5,24.9,9.7,49.9,14.4,74.9
		c4.4,23.7,8.6,47.4,12.6,71.1c4.5,26.4,8.8,52.8,12.9,79.2c3.2,20.3,6,40.6,8.8,60.9c1.7,12.6,3,25.2,4.5,37.8
		c1.5,11.9,3,23.9,4.5,35.8c1.6,12.4,3.1,24.8,4.7,37.1c2,15.5,4,31,6,46.4c2,15,4.1,30,6.1,45.1c2.1,15.7,4.2,31.4,6.2,47.1
		c2,15,4,30,5.8,45.1c2.3,19.5,4.6,39,6.4,58.5c1.8,19.5,4.2,39,4.6,58.7c0.1,3.1,0.7,6.2,1.3,9.3c0.9,5.2,3.4,9.5,6.9,13.5
		c5.6,6.4,10.8,13,15.9,19.9c5.4,7.3,11.9,13.2,19.8,17.7c2.7,1.6,5.3,3.3,8,4.8c1.3,0.8,2.8,1.4,4.3,1.8c15.1,4.9,30.1,9.8,44.7,16
		c14.7,6.2,28.4,14,41.5,22.9c8,5.4,14.9,12.1,20.5,20c2.2,3.1,4,6.4,4.3,10.4c0.2,3-0.4,4.4-3.2,5c-5.7,1.1-11.4,2.3-17.1,2.7
		c-40.1,2.4-80.3,1.8-120.4,1.3c-12-0.1-24-1.3-36-2.1c-8-0.5-16-1.1-24-1.7c-11.1-0.9-22.2-2-33.3-3c-0.9-0.1-1.8-0.3-2.6-0.4
		c-1.9-0.4-3.2-1.4-3.6-3.4c-0.2-1.1-0.4-2.2-0.6-3.3c-2.2-15.2-4.3-30.5-6.4-45.7c-1.6-11.5-3.2-23-4.7-34.5
		c-1.6-11.9-3-23.9-4.6-35.8c-2-15-4.1-30-6.2-45.1c-2.5-18.3-5.1-36.7-7.7-55c-2.7-19-5.4-38-8.3-56.9c-3.1-20-6.5-40.1-9.9-60
		c-4.2-24.4-8.6-48.7-13.2-73.1c-5.4-28.7-11.1-57.3-16.6-86c-9.5-49.3-20.5-98.2-31.4-147.2c-6.2-27.6-13.4-55-20.3-82.5
		c-4.7-18.6-9.2-37.2-12.1-56.2c-0.2-1.5-0.6-3.1-0.9-4.6c-0.6-2.8-2.1-4.8-4.9-6.1c-7.5,1.9-13,6.3-16.5,13.4
		c-4.8,9.7-7.8,20-8.8,30.7c-1.2,13.5-2,27.1-2.8,40.7c-1,16.7-1.5,33.4-2.8,50.1c-1.2,15.3-3,30.6-4.6,45.9
		c-1.5,14.6-3.2,29.2-4.6,43.9c-1.8,18.4-3.3,36.9-5,55.3c-1.5,16.4-2.9,32.9-4.5,49.3c-1.2,11.8-2.9,23.5-4.4,35.2
		c-2.1,16.4-4.2,32.7-6.3,49.1c-2.9,22.8-5.9,45.5-8.8,68.3c-2,15.9-3.9,31.9-5.8,47.8c-1.5,12.4-3.1,24.8-4.7,37.2
		c-1.5,11.7-2.9,23.4-4.5,35.2c-2,15-3.8,30.1-6,45.1c-2.8,19.4-5.8,38.8-8.8,58.2c-0.6,4-1.4,7.9-2,11.9c-0.3,1.5-0.4,3.1-0.7,5.4
		c0.5,0.3,1.2,0.8,2,1.2c6.4,3.3,10.6,8.7,14.7,14.3c4.9,6.7,8.3,14.2,10.8,22.1c1.7,5.4,2,10.9,1.2,16.5c-0.6,4.4-2.7,8-5.8,11.1
		c-1.3,1.3-3.3,2.2-5.2,2.8c-2.3,0.7-4.8,1.2-7.2,1.3c-10.9,0.4-21.8,1.9-32.7,1.7c-10.7-0.3-21.4,0-32.1,0.1
		c-3.8,0-7.6,0.3-11.4,0.6c-11.6,1-22.6-1.8-33.4-5.4c-2.9-0.9-4.4-2.9-4.6-5.9c-0.3-4.7-1-9.3-0.8-14c0.5-15.6,2.2-31.1,4.2-46.6
		c2.1-15.9,4.1-31.8,6.1-47.8c2.1-16.4,4.1-32.7,6.2-49.1c1.9-15,3.9-30.1,5.9-45.1c1.9-13.9,4-27.8,5.9-41.7
		c2.1-15,4.1-30,6.1-45.1c2-15,4-30.1,6-45.1c2-15.5,4.1-30.9,6.1-46.4c2-15.5,3.9-31,5.9-46.4c1.6-13.1,3.3-26.1,4.7-39.2
		c1.8-16.8,3.5-33.7,5.1-50.6c1.2-12.7,2.1-25.3,3.1-38c1.2-14.9,2.4-29.8,3.6-44.7c0.6-7.6,1-15.1,1.5-22.7c1-16.7,2-33.4,3.1-50.1
		c1.5-23.4,3.2-46.7,4.8-70.1c0.2-2.9,0.1-5.8,0.2-8.7c0.5-16,0.8-32.1,1.6-48.1c0.8-14.1,2.9-27.9,7.9-41.2c0.6-1.6,1-3.4,1.5-5.2
		c-1.2-1-2.1-1.9-3.2-2.6c-5.8-3.7-11.7-7.4-17.5-11.2c-8.2-5.4-15.6-11.8-22.4-19c-0.7-0.8-1.5-1.5-2.8-2.7
		c-0.7,2.2-1.3,3.8-1.7,5.5c-7,29.1-13.9,58.1-20.8,87.2c-0.9,3.9-1.4,7.9-2,11.9c-2.7,20.2-10.8,38.1-23.2,54.1
		c-3.4,4.4-7.5,8.3-12.2,11.3c-5.6,3.6-11.4,7-17,10.5c-1.1,0.7-2.3,1.6-2.8,2.7c-4.2,9-9.9,16.9-15.6,24.9
		c-12.8,18-25.8,35.8-39,53.6c-10.8,14.5-22.1,28.6-34.7,41.6c-2.6,2.7-5.5,5.3-8.5,7.6c-1.9,1.5-4.2,2.5-6.5,3.4
		c-2.6,1.1-5.2,0.9-7.9,0c-4.4-1.5-6.5-4.7-5.7-9.3c0.9-5.5,2.7-10.8,5.4-15.8c2.6-4.7,5.4-9.2,8.1-13.9c0.6-1.1,1.5-2.1,1.3-4.2
		c-1.5,0.9-2.7,1.4-3.6,2.2c-5.8,4.6-11.5,9.2-17.3,13.8c-5.3,4.1-10.5,8.3-16,12.1c-3.1,2.1-6.6,3.7-10,5.4
		c-2.7,1.3-5.6,1.5-8.5,1.2c-5.3-0.6-7.8-4.1-6.5-9.4c0.5-1.9,1.2-3.9,2.2-5.6c2.4-3.8,4.6-7.7,7.6-10.9
		c5.3-5.7,11.2-10.9,16.9-16.2c4.7-4.3,9.7-8.5,14.5-12.7c-1.2-1.2-2-0.4-2.7,0c-12.2,5.6-24.3,11.2-36.5,16.8
		c-5.7,2.6-11.4,5.2-17.2,7.4c-2.4,0.9-5.2,1.3-7.8,1.3c-5.1-0.2-7.6-4.1-5.5-8.9c0.9-2.2,2.4-4.3,4.1-6c3.5-3.4,7.2-6.7,11-9.8
		c9.4-7.6,19.3-14.5,29.5-20.9c2-1.3,4.1-2.6,6.5-4.2c-2.2-0.7-3.5,0.2-4.8,0.7c-11,3.8-22.2,6.6-33.7,8.2
		c-4.4,0.6-8.9,0.8-13.3,0.5c-2.8-0.2-5.7-1.2-8.2-2.5c-3.8-2-4.9-6-2.7-9.7c1.3-2.3,3.1-4.4,5-6.2c6.6-6.4,14.2-11.5,22.5-15.6
		c10-4.9,20.1-9.7,30.3-14.2c10.2-4.5,20.6-8.5,30.9-12.7c1.8-0.7,3.6-1.5,6.4-2.7c-2.3-0.8-3.6-1.3-5-1.6
		c-5.8-1.5-11.7-2.8-17.5-4.4c-6.1-1.7-11.7-4.5-16.5-8.6c-2.2-1.8-4.4-3.9-5.8-6.4c-3.7-6-0.9-13,5.7-15c2.3-0.7,4.8-1.1,7.2-1
		c11.4,0.2,22.7,0.5,34.1,0.8c11.2,0.3,22.3,1.4,33.3,3c4.6,0.7,9.2,1.6,14.2,2.4c0.1-1.5,0.4-2.5,0.2-3.5
		c-2.2-14.2-1.1-28,4.3-41.4c3.8-9.3,7.8-18.5,11.6-27.8c2.2-5.4,4.3-10.7,6.4-16.2c2.1-5.6,4.2-11.3,6.2-16.9
		c0.7-1.9,1.2-3.8,1.6-5.8c4-19.2,8-38.4,12-57.6c5.7-28,11.8-55.9,16.8-83.9c5.7-31.4,10.4-62.9,15.4-94.4c2.3-14.3,4.2-28.7,6-43
		c1-7.5,1.3-15.1,1.9-22.7c0.7-8,1.2-16,2.3-23.9c1.6-11.3,6.6-21.3,14-29.9c2.5-2.9,3.8-5.8,4.3-9.5c1.5-10.8,2.9-21.7,4.7-32.4
		c1.5-9.2,3-18.5,5.2-27.6c7.1-29.2,23.9-51.4,49.4-67.2c3.6-2.2,7.6-3.7,11.4-5.5c1.6-0.7,3.2-1.4,5.4-2.2
		c-0.7-1.2-1.1-2.1-1.7-2.9c-1.4-1.7-3-3.3-4.2-5.1c-1.3-2-1-4.2,0.4-5.5c1.5-1.5,3.3-1.3,5-0.6c1.4,0.6,2.7,1.5,4,2.4
		c1.1,0.8,2,1.7,3.4,2.9c0.6-1.3,1.1-2.2,1.5-3.1c0.4-1,0.7-2.1,1.3-3.1c0.7-1.2,1.9-2.2,3.3-1.6c0.9,0.4,1.9,1.4,2.1,2.3
		c0.5,1.7,0.5,3.5,0.6,5.3c0,0.9-0.2,1.8-0.2,2.7c0,0.9,0,1.7,0,2.4c1.8,1.7,3.6,0.9,5.3,0.7c8-1.1,16-1.4,23.9,0.5
		c6.6,1.6,12.5,4.6,17.9,8.8c5.2,4.1,5.7,8.5,1.8,13.8c-0.7,0.9-1.3,1.8-2.1,2.8c0.8,3.8,2.8,7,4.5,10.3c0.7,1.3,2.1,2.3,3.3,3.2
		c1,0.8,2.2,1.6,3.4,2.1c5.1,1.9,7.2,6.1,5,12.1c-2,5.5-1.2,10.3,0.4,15.5c3.3,11.4,5.1,23.1,5.8,34.9c0.1,1.5,0.4,3.1,0.6,4.6
		c0.1,0.4,0.5,0.7,0.9,1.2c2.5,1,5.2,0.3,7.8,0.1c39.7-3.7,76.3,4.9,108.7,28.8c13.3,9.8,25.1,21.3,35.9,34c17,20,30.6,42.2,43.4,65
		c15.6,27.9,28.8,56.9,39.7,86.9c2.2,6.1,4.9,11.9,8,17.6c1.1,2.1,2.5,3.7,4.5,4.9c6.4,4,12.9,7.9,19.4,11.9c3,1.8,6.3,2.3,9.7,1.8
		c5.9-1,11.9-1.8,17.7-3.5c13.2-4,26.3-8.5,39.4-12.8c0.4-0.1,0.7-0.5,1.5-1c-0.2-0.8-0.3-2-0.8-2.8c-4.5-7.3-5.8-15.3-6.3-23.7
		c-0.4-7.4,0.2-14.7,1.7-22c1.4-6.8,3.1-13.5,4.9-20.1c3.3-11.7,9-22.3,16-32.2c8.1-11.5,17.6-21.9,26.7-32.6
		c12.1-14.3,25.2-27.7,38.5-41c11.9-11.9,25.1-22.1,39.1-31.4c18.6-12.4,37.7-23.9,58.3-32.7c11.1-4.8,22.6-8.2,34.6-10
		c13.1-2,25.8-0.3,38.1,4.4c6.8,2.6,12.7,6.5,17.7,11.7c4.3,4.5,8.3,9.3,12.5,14c1.5,1.6,2.9,3.3,4.8,5.5c0.9-1.6,1.6-2.6,2.1-3.7
		c3.4-8.7,6.4-17.6,10.1-26.2c7.8-18.4,19.9-33.7,34.1-47.5c3.7-3.6,7.4-7.1,11.3-10.4c2-1.7,3.3-3.5,2.9-6.3
		c-0.1-0.9,0-1.8-0.1-2.7c-0.5-7,2.8-12,8.5-15.5c7-4.4,14.5-5.7,22.3-2.3c3.3,1.4,5.9,1.2,8.7-1.5c-0.8-4.1-1.7-8.2-2.2-12.3
		c-1.3-10.2-2.6-20.3-3.3-30.6c-0.7-10.3,0.5-20.5,2.5-30.6c1.4-7,4-13.7,8-19.7c1.6-2.4,3.4-4.7,5.6-6.6c5.6-4.9,12.8-4.9,18.1,0.2
		c2.7,2.6,5.1,5.7,6.8,9.1c2.9,5.7,5.8,11.6,7.7,17.7c4.7,14.9,8.9,29.9,13.3,44.9c1.2,4.1,2.3,8.1,3.5,12.2
		c0.6,1.9,1.9,2.9,3.9,3.1c1.8,0.1,3.6,0.2,5.3,0.4c5.4,0.5,10.6,1.7,15.4,4.3c7.8,4.1,11.8,10.6,12,19.4c0.1,6.6-1.2,12.9-4,18.8
		c-2.4,5-5.2,9.8-7.9,14.7c-0.9,1.7-1.9,3.4-3.1,5.5c1.7,0.8,3.1,1.6,4.4,2.1c7.1,2.9,13.4,7.1,18.7,12.7c2.1,2.2,4.1,4.7,5.7,7.4
		c4.7,8.2,4.8,16.6,0.4,24.9c-2.1,4-4.8,7.5-8.4,10.3c-2,1.6-3.4,3.4-3.5,6.1c-0.1,1.5-0.6,3.1-1.2,4.5
		c-2.9,7.9-10.3,12.1-18.6,10.8c-4.3-0.7-8.2-2-11.6-4.8c-1-0.8-2.1-1.5-3.4-2.4c-1.5,1.2-2.9,2.3-4.4,3.2
		c-3.2,2.1-6.6,2.5-10.2,1.3c-5.4-1.7-9.2-5.3-11.8-10.3c-0.8-1.6-1.4-3.2-2.1-4.7c-1.7-0.6-2.2,0.6-2.8,1.4
		c-4.3,5.4-8.6,10.9-12.8,16.3c-0.7,0.8-1.1,1.8-1.6,2.6c0.6,1.7,1.9,1.5,2.9,1.4c6.9-0.6,13.8-1.3,20.6-1.9
		c22.4-1.9,44.6-1.1,65.8,7.6c13.6,5.5,25.8,13.1,37,22.6c10.1,8.6,19,18.2,27.8,28c1.2,1.3,2.2,2.8,3.2,4.3c2.9,4.5,5.7,9,8.7,13.5
		c11.3,16.6,21.8,33.7,29.1,52.6c6.6,17.1,12,34.5,14.5,52.8c0.2,1.5,0.5,3.1,0.6,4.6c0.7,19.8,2.6,39.6,1.3,59.5
		c-1,16.3-3.6,32.3-7.9,48.1c-3.5,12.9-7.6,25.6-14.3,37.4c-11,19.5-24.7,36.6-42.8,49.9c-14,10.3-29.5,17.6-46.5,21.2
		c-8.9,1.9-18,3.2-27,4.5c-21.2,3.1-42.5,5-64,3.8c-10.5-0.6-20.9-1.3-31.4-2.1c-1.3-0.1-2.7-0.2-4-0.5c-10-2.5-20.2-3.2-30.5-3.8
		c-4.7-0.3-9.3-0.8-14-1.2c-1.3-0.1-2.6,0.1-4.3,0.2c-0.7,1.6-1.6,3.1-2,4.8c-4.3,16.4-7.3,33.1-9.7,49.9
		c-1.7,12.6-3.5,25.2-4.8,37.8c-0.9,8.8-1.8,17.7-1.2,26.7c0.8,11.8,0.4,23.6,0.9,35.4c0.7,18.3,1.5,36.6,2.8,54.8
		c1.1,15.3,3.1,30.6,4.7,45.9c1.1,10.2,2.1,20.4,3.1,30.6c1.1,10.4,2.3,20.8,3.4,31.2c1,9.5,2,19.1,3.2,28.6
		c1.6,13.1,3.1,26.1,4.9,39.2c2.8,20.1,5.7,40.2,8.7,60.2c2.9,19.4,5.9,38.8,8.7,58.2c2,13.5,3.9,26.9,5.8,40.4
		c2.4,16.8,4.9,33.5,7.3,50.3c2.4,16.3,4.9,32.6,7.3,48.9c2,13.4,4,26.9,6.2,40.3c1.2,7.3,2.7,14.4,4.1,21.7
		C1215.2,1363,1215.3,1364.1,1215.5,1366z M1212.6,138.6c-3.2,1.6-6.5,3-9.5,4.9c-12.2,7.9-23.5,17-33.7,27.4
		c-9.7,9.9-18.7,20.3-25.4,32.6c-6.3,11.6-11.6,23.6-16,36c-0.7,1.9-1.1,3.9-1.7,5.8c-0.8,2.7-0.4,5.2,1,7.7
		c1.7,2.9,3.4,5.8,4.5,8.9c1.3,3.3,3.4,5.8,6.3,7.5c2.9,1.6,5.9,3.2,9,4.2c10.4,3.2,21,3.7,31.8,1.9c13.2-2.2,26.1-6,38.9-9.9
		c2.8-0.8,4.7-2.3,6.1-4.8c1.4-2.5,2.8-5.1,4.3-7.6c8.5-13.7,18-26.6,27.6-39.4c0.3-0.4,0.5-0.7,0.8-1.1c2.7-3.1,3.7-3.5,7.5-2.3
		c2.1,0.7,4.2,1.5,6.4,2c6.2,1.5,12.4,1.3,18.4-1.1c8.2-3.2,8.8-9.7,4.7-16.2c-0.5-0.7-1.2-1.4-1.7-2c-2.4-2.7-4.6-5.4-7.1-8
		c-2.4-2.5-3.4-5.1-1.4-8.4c1.4-2.3,0.6-4.3-1.1-6c-0.9-1-1.9-1.9-3-2.7c-5.6-4.7-11.1-9.6-17-14.1c-6.2-4.7-12.6-9.2-19.1-13.4
		c-5.9-3.9-12.6-5.5-19.5-6.7c-1.2-0.2-2.8-0.1-3.9,0.5C1217.4,135.5,1215,137.2,1212.6,138.6L1212.6,138.6z M1018.1,656.1
		c0.5,3.2,0.9,5.6,1.4,8c2.4,13.4,5.1,26.7,7.1,40.2c2.9,19.9,6.5,39.6,11,59.1c4.3,18.7,8.1,37.5,11,56.4c2,13.2,4.1,26.4,6.2,39.6
		c1.7,10.8,3.5,21.6,5.1,32.3c2.7,17.9,5.2,35.7,7.9,53.6c1.9,13,4,26,6,39c2.5,16.8,5,33.5,7.5,50.3c2,13,4,26,6,39
		c2.5,16.5,5,33.1,7.5,49.6c2,13.4,4,26.9,6,40.3c1.6,11,3.1,22.1,4.6,33.1c2,14.4,3.9,28.7,5.8,43.1c2,15.7,4,31.4,5.9,47.1
		c1.7,14.4,3.4,28.8,5,43.2c0.9,8.2,1.7,16.4,2.4,24.6c0.2,2.8,1.4,4.6,3.9,5.7c2.2,1,4.5,2,6.8,2.8c5.9,2.1,11.8,4,17.7,6.2
		c4.3,1.6,8.6,2.2,13.1,1.7c2.7-0.3,5.3-0.7,7.9-1.2c8.6-1.8,16.6-5,24.4-8.9c1.9-1,3.5-2.1,3.5-4.4c0.1-7.8,0.6-15.6-0.9-23.3
		c-3-15.5-6.1-31.1-8.6-46.7c-3.5-21.8-6.6-43.6-9.8-65.5c-3.5-23.6-7-47.2-10.4-70.8c-2.8-19-5.6-37.9-8.3-56.9
		c-3.4-23.6-7-47.2-10-70.8c-3.1-24.3-5.6-48.7-8.2-73.1c-2.1-19.5-3.9-39-5.9-58.5c-1.9-19.3-3.3-38.6-3.7-58.1
		c-0.1-3.6-0.4-7.1-1.1-10.6c-0.9-4.1-1.4-8.4-1.4-12.6c0.1-13.4,0.6-26.7,0.8-40.1c0.4-17.6,2-35.2,4.2-52.6
		c2-16.4,4.5-32.7,8.3-48.8c4.6-19.6,10.1-38.8,17.5-57.5c3.6-9.1,7.7-18,11.5-27.1c0.6-1.5,2.1-3,0.9-4.9c-2-1.1-3.5,0.3-5.1,0.9
		c-11.6,4.1-23,8.5-34.6,12.3c-13.4,4.4-27.3,6.7-41.5,5.7c-13.6-0.9-27-3-40.3-6.1c-15.4-3.6-29.6-9.7-42.3-19.3
		c-5.3-4-11.1-7.4-16.5-11.4c-3.9-2.9-7.7-6.1-11.1-9.5c-6.6-6.8-11.3-14.9-15.1-23.5c-0.5-1.1-0.4-2.7-2.5-2.6
		c-0.4,1.2-0.8,2.5-1.1,3.8c-3.1,15.1-6.4,30.1-9.3,45.2c-2.5,12.9-4.7,25.9-6.6,38.9c-1.9,12.8-3.1,25.7-4.7,38.5
		c-2,16.2-3.3,32.4-3.5,48.7c-0.3,21.9-0.1,43.7,0.1,65.6c0.1,7.6,0.6,15.2,1.7,22.7c2.1,14.3,4.8,28.6,7,42.9
		c1.4,9.2,4.8,18.1,3.8,27.6c0,0.4,0.1,0.9,0.2,1.3c3,19.4,5.9,38.8,9,58.1c5.1,30.8,10.3,61.5,15.5,92.3
		c3.8,22.9,7.7,45.7,11.5,68.6c3,18.3,6,36.5,8.9,54.8c1.7,11,3.2,22.1,4.8,33.1c2,14.8,4,29.6,5.9,44.4c1.1,8.8,1.8,17.7,3,26.6
		c1.7,12.4,3.1,24.8,3.8,37.2c0.4,7.6,1.1,15.1,1.6,22.7c0.8,12.2,1.7,24.5,2.2,36.7c0.2,5.1,2.3,8.4,6.6,10.6
		c6.7,3.4,13.7,5.2,21.2,5.6c9.4,0.4,18.7-1.4,27.8-3.3c4.8-1,9.5-2.3,14.2-3.7c2.9-0.9,3.5-1.9,3.4-5c-0.1-2.9-0.3-5.8-0.6-8.7
		c-1.6-13.7-3.3-27.4-4.7-41.2c-1.6-15.3-3-30.6-4.5-45.9c-2.1-21.5-4.2-43-6.1-64.6c-1.7-19.1-3-38.2-4.5-57.3
		c-0.5-6.2-1-12.4-1.5-18.7c-1.2-13.3-2.3-26.6-3.5-40c-1-11.3-2.1-22.6-3.3-33.9c-1.2-11.3-2.4-22.6-3.7-33.9
		c-1.1-9.7-2.2-19.5-3.4-29.2c-1-8.6-2.1-17.3-3.3-25.9c-1.9-14.6-3.8-29.2-5.9-43.7c-3.2-22.1-6.7-44.1-9.9-66.1
		c-2.6-17.6-5.2-35.3-9-52.7c-3.4-16.1-6.8-32.3-9-48.6c-1.2-9.3-2.4-18.5-4.9-27.6c-4.6-17.3-7.7-34.8-8.3-52.7
		c-0.1-3.2-1-6.1-2.3-9c-1.7-3.6-3.2-7.3-4.6-11.1c-0.8-2.3-1.3-4.7-1.6-7.2c-0.1-0.9,0.6-2.3,1.3-2.7c1.2-0.7,2,0.5,2.5,1.5
		c0.5,1,0.9,2.1,1.2,3.1c1.7,5.9,4.5,11.2,7.7,16.3c4.7,7.6,10.6,13.8,19.5,16.5c1.7,0.5,3.2,1.6,4.6,2.5c0.4,0.2,0.4,1.2,0.4,1.8
		c0,0.3-0.5,0.8-0.9,0.8c-2.9,0.7-5.8,0.5-8.6-0.5C1024.9,659.1,1022.1,657.8,1018.1,656.1z M429.7,1359.8c1.5-3.2,1.7-6.5,2.1-9.8
		c1.6-13.5,3.2-27,4.8-40.5c1.5-12.8,3.1-25.7,4.6-38.5c1.6-13.5,3.2-27,4.8-40.5c1.5-12.4,3-24.8,4.6-37.2
		c1.9-15.5,3.9-31,5.9-46.4c2-15.9,4.1-31.8,6.1-47.8c1.6-12.6,3.1-25.2,4.7-37.8c2-15.3,4.3-30.5,5.9-45.8
		c2.2-20.2,3.9-40.4,5.8-60.6c0.6-6.4,1-12.9,1.6-19.3c1.1-12.2,2.2-24.4,3.4-36.6c1.4-14.2,3.1-28.4,4.6-42.6
		c1.6-15.3,3.4-30.6,4.7-45.9c1.2-15.1,1.8-30.3,2.7-45.4c0.8-13.1,1.7-26.3,2.8-39.4c1.1-12.8,4.6-25,10.6-36.4
		c5.4-10.2,13.6-16.3,25.3-17.3c0.6-0.1,1.2-0.4,2.1-0.7c0.2-2.9,0.2-5.7,0.5-8.6c0.2-1.8,0.6-3.5,1.1-5.2c0.4-1.3,1.6-2.5,3-2
		c0.9,0.3,1.7,1.4,2.1,2.3c0.4,1.2,0.4,2.6,0.5,4c0.5,5.1,0.6,10.3,1.4,15.3c3.4,20.7,7.9,41.1,13.5,61.4
		c6,22.2,12.5,44.2,17.8,66.5c11.3,47.7,22,95.6,31.7,143.7c6.3,31,12.4,62.1,18.3,93.2c4.5,23.4,8.7,46.9,12.9,70.4
		c4.7,26.3,9.4,52.7,13.5,79.1c4.1,26,7.6,52.1,11.2,78.1c3.7,27.2,7.1,54.4,10.6,81.6c0.3,2.2,0.3,4.5,2.6,6.2
		c1.1,0.1,2.4,0.3,3.8,0.3c20.3,0.2,40.6,0.3,60.9,0.4c0.9,0,1.8,0.1,2.7-0.1c1.3-0.2,2.5-0.7,3.7-1c0.2-1.2,0.4-2,0.5-2.9
		c0-0.9,0.1-1.8-0.2-2.7c-2.6-11-2.5-22.1-2.3-33.3c0.1-3.3-0.3-6.7-0.7-10c-1.5-11.5-3.2-23-4.8-34.4c-1.7-12.4-3.2-24.8-4.9-37.1
		c-1.9-14.4-4-28.7-6-43.1c-1.6-11.3-3.1-22.5-4.6-33.8c-2-14.8-4-29.6-5.9-44.4c-1.9-14.6-3.9-29.2-5.8-43.7
		c-1.7-12.6-3.3-25.2-4.9-37.8c-1.6-12.4-3.2-24.8-4.7-37.1c-1.6-12.6-3.1-25.2-4.7-37.8c-1.5-11.9-2.8-23.9-4.4-35.8
		c-2.4-17.7-4.9-35.3-7.5-53c-2.8-18.7-5.6-37.5-8.7-56.2c-3.1-18.9-6.6-37.8-9.9-56.7c-5.9-33.8-11.6-67.7-17.7-101.5
		c-3.4-18.9-7.5-37.6-11.4-56.4c-0.3-1.6,0-3.7-2.3-4.7c-0.8,0.5-1.9,0.9-2.7,1.5c-9.4,6.6-19.7,11.3-30.6,14.8
		c-16.2,5.2-33,7.8-49.8,9.9c-9.5,1.2-19,2.2-28.6,3.2c-8.9,0.9-17.8,1.9-26.7,2.2c-11.6,0.4-23.2,0-34.8,0.1c-4.4,0-8.8-1.1-13.3,0
		c-1.4,0.4-3.1-0.2-4.6-0.6c-1.9-0.5-3.8-1.3-5.7-1.9c-5.1-1.4-10.1-3.2-15.7-3.9c-0.7,1.3-1.5,2.4-1.8,3.7c-1.1,3.6-2.1,7.3-2.9,11
		c-3,13.6-3.3,27.4-3.7,41.2c-0.6,21.6-0.1,43.3-1.6,64.9c-0.7,9.6-1.1,19.1-1.7,28.7c-0.4,6.9-1,13.8-1.5,20.7
		c-0.7,9.1-1.5,18.2-2,27.3c-0.7,11.8-1.1,23.6-1.7,35.4c-0.4,7.1-0.9,14.2-1.5,21.4c-1.1,14.4-2.3,28.9-3.5,43.3
		c-1,12.7-2,25.3-3.2,38c-1.5,16.2-3.3,32.4-5,48.6c-1.4,12.6-3,25.2-4.5,37.8c-1.5,12.4-3.1,24.8-4.7,37.2
		c-1.6,12.2-3.1,24.3-4.7,36.5c-2,15.5-4.1,30.9-6.1,46.4c-1.6,11.9-3.1,23.9-4.7,35.8c-2.4,17.2-4.9,34.4-7.3,51.6
		c-2,14.1-3.8,28.3-5.8,42.4c-2.8,20.5-5.6,41.1-8.4,61.6c-0.1,0.8,0.2,1.7,0.3,2.5c0.8,0.4,1.4,1,2,1c10.4,1.1,20.8,2.4,31.2,3.2
		c14.9,1.1,29.9,0.6,44.8,0.3C427.8,1360.3,428.7,1360,429.7,1359.8z M984.9,467.7c-5.4,6.3-10.7,17.8-12.3,26.1
		c-0.3,1.5-0.4,3.1-0.6,4.6c-0.5,5.6,0.4,11,2.2,16.4c5.2,15.7,13.7,28.9,27.8,38.2c6.9,4.5,13.6,9.3,20.4,14
		c8.9,6.2,18.7,10.4,29.1,13.1c10.8,2.8,21.8,4.7,32.9,5.9c15,1.6,29.9,1.7,44.4-2.8c20.9-6.4,41.6-13.4,60.7-24.4
		c5.2-3,9.2-6.6,12.4-11.7c16.4-25.6,34.1-50.2,53.8-73.3c14.6-17.2,30.3-33.3,48.3-47.1c5.8-4.5,11.6-9.1,17.4-13.6
		c1.1-0.8,2.1-1.6,3.3-2.3c5.2-3,10.5-6,15.8-8.7c5.4-2.8,11.2-4.3,17.3-5c1.5-0.2,3.2-0.3,4.1,1.6c-0.7,1.8-2.5,2.2-4.1,2.9
		c-4.5,1.9-9,3.8-13.5,5.7c-2,0.9-4.1,1.8-4.6,4.3c1.5,1.9,3.6,2,5.4,2.5c4.1,1.3,8.1,2.6,11.5,5.2c2,1.6,2.8,3.4,2,4.4
		c-1.2,1.5-2.8,1.2-4.3,0.8c-4.1-1.1-8.1-2.4-12.2-3.6c-1.2-0.3-2.5-1.2-3.7,0.3c0.2,4.7,2,9,3.9,13.3c1.2,2.6,2.2,5.4,2.9,8.1
		c1.9,7.8,3.6,15.6,5.4,23.4c4.1,17.9,7,35.9,4.2,54.3c-2,13.7-6.4,26.3-15.3,37.2c-5.7,7-12.3,12.9-19.4,18.4
		c-16.4,12.6-34.8,21-55.2,24.3c-15,2.4-30.2,2.6-45.3-0.3c-1.7-0.3-3.5-0.7-5.3-0.8c-8.7-0.6-17.3-2.1-25.6-4.5
		c-1.4-0.4-3-0.6-4.9-0.9c-1.5,2.6-3.2,5-4.3,7.7c-5.1,12.6-10.4,25.2-13.8,38.4c-0.3,1-0.3,2.1-0.5,3.6c2.7,0.9,5.2,1.9,7.8,2.4
		c4.8,0.9,9.7,1.7,14.5,2.1c13.1,1,26.2,1.8,39.4,2.5c3.5,0.2,7.1-0.2,10.7-0.3c2.2-0.1,4.5-0.5,6.7-0.2c13.1,1.2,26.3,1.2,39.4,1
		c15.9-0.3,31.5-2.7,47.2-5c9.3-1.4,18.3-3.7,26.8-8c32.8-16.4,54.2-43,67.2-76.6c6.4-16.7,10.4-34.2,11.9-52
		c1.5-17.3,2.7-34.7,0.4-52.1c-1.3-10.2-2.7-20.3-4.9-30.3c-6.3-27.8-16.5-54.1-30.4-79c-4.8-8.6-9.9-16.9-16.3-24.4
		c-1-1.2-2.1-2.4-2.6-3.8c-1-2.9-2.9-5-4.9-7.1c-4.5-4.7-8.9-9.4-13.5-13.9c-6.9-6.7-14.3-12.8-22.4-17.9
		c-13.5-8.6-28.1-14.4-44.1-16.6c-9.1-1.2-18.2-1.3-27.4-1.1c-10.7,0.3-21.4,1.1-32.1,1.5c-2.1,0.1-3.9,0.8-5.5,2.1
		c-6,4.8-13,7.7-20.3,9.9c-7.4,2.3-15.3,3-22.4,6.5c-0.2,0.1-0.4,0.1-0.6,0.2c-9.6,2.4-19.3,3.6-29.2,2.6c-4.7-0.5-9.3-1.2-13.9-1.9
		c-9.6-1.5-17.1-6.4-22.1-14.7c-2.4-4-4.2-8.3-5.9-12.7c-1.1-2.7-2.2-5.3-4.3-7.5c-6.7-7.1-13.3-14.4-20.2-21.4
		c-5.7-5.9-12.6-9.8-20.6-12c-9.9-2.7-19.8-2.9-29.8-1.3c-14,2.3-27,7.4-39.7,13.6c-14.1,6.9-27.5,14.8-40.6,23.3
		c-17.6,11.4-34.1,24.3-49.2,39c-9.6,9.3-18.3,19.5-27.2,29.5c-2.5,2.8-4.5,6.1-8.5,7.3c-0.9,0.3-1.7,1.4-2.4,2.3
		c-6.7,8.4-13.6,16.5-19.8,25.2c-17.3,24.3-23.6,51.6-20.9,81.1c0.4,4.4,0.9,8.9,3.6,12.7c5.9,0.8,11.6,0.3,17.2-1.8
		c0.2-1,0.6-1.9,0.6-2.7c0.2-3.5,0.1-7.1,0.6-10.6c2.2-14.1,6.2-27.4,16.5-38c0.5-0.5,0.8-1,1.3-1.6c5.9-7,12.4-13.5,20.5-18
		c0.9-0.5,1.5-1.4,2.6-2.4c-3.2-2.8-6.1-5.2-8.9-7.7c-2.1-1.9-5.3-3.3-4.8-6.7c0.6-4.1,4.4-4.7,7.6-5.4c4.3-1.1,8.7-1.7,13.1-2.6
		c1.7-0.4,3.3-0.9,4.9-1.3c0.3-1.3,0.7-2.1,0.8-3c0.4-4.2,0.6-8.5,1.3-12.6c0.7-4.6,1.5-9.3,2.9-13.7c1.2-3.8,4.8-4.7,8.1-2.3
		c1.8,1.3,3.4,2.9,4.8,4.6c2.9,3.4,5.6,6.9,8.4,10.4c1,1.2,2.1,2.2,3.4,3.4c3.1-1.7,6-3.3,9-4.9c3.2-1.6,6.3-3.4,9.6-4.6
		c6.7-2.6,9.3-0.6,8.6,6.5c-0.6,6.4-1.6,12.8-3.8,19c-0.5,1.4-0.6,2.9-1,4.7c3.2,1.7,6.1,3.2,9.3,4.9c2-1.4,3.8-2.6,5.6-3.9
		c14.9-11,30.4-21.1,46.4-30.4c6.7-3.9,13.6-7.5,21.3-9.5c8.2-2.1,14.5-7.5,21.2-12.4c0-1.4,0.3-2.6,0-3.6c-1.5-5.3-0.6-10.6,0-15.9
		c0.3-2.4,0.9-4.8,1.7-7.1c1.1-3.2,4.3-4.8,7.5-3.8c1.4,0.4,2.8,1.4,3.9,2.4c2.4,2.4,4.6,4.8,6.7,7.4c2.1,2.6,4.4,3.5,7.6,2.2
		c1.2-0.5,2.6-0.8,3.8-1.1c7.8-1.9,15.6-3.9,23.4-5.6c3.2-0.7,4.8,1,4.2,4.1c-0.8,3.9-1.9,7.8-2.7,11.7c-0.3,1.5-0.2,3-0.3,4.6
		c2.1,1.1,3.9,1.9,5.6,2.9c5.3,3.3,10.7,6.4,15.8,10c2.3,1.6,4.3,3.9,6.1,6.1c2,2.5,1.6,4.9-0.8,7.1c-1,0.9-2.1,1.6-3.3,2.2
		c-3.5,2-7.4,3.2-11.4,3.5c-5.6,0.4-11.1,0.5-16.7,0.8c-1.3,0.1-2.6,0.2-4,0.3c-2.6,4.3-5.1,8.5-7.8,12.6c-2.1,3.2-4.2,6.3-6.7,9.2
		c-3.1,3.4-6.7,2.6-8.3-1.6c-0.5-1.5-0.9-3-1.2-4.5c-1.1-4.3-2.1-8.7-3.3-13c-0.5-1.7-1.2-3.2-1.8-4.7c-1.1-0.3-1.7-0.5-2.3-0.6
		c-10.4-1.3-20.8-2.5-30.9-5.7c-1-0.3-2.2-0.1-3.3,0c-6.2,0.5-8.9,4.9-11.2,9.4c4.8,5,9.2,9.7,13.6,14.3c1.5-0.4,2.5-0.7,3.6-0.9
		c7.1-1.9,14.2-3.9,21.3-5.7c2.6-0.7,5.2-1,7.9-1.3c1.7-0.2,3,1.1,2.9,2.9c-0.1,1.3-0.3,2.7-0.6,4c-0.7,3-1.6,6-2.2,9.1
		c-0.7,3.8-0.3,4.7,3.1,6.4c5.8,2.9,11.5,6,16.6,10c2.3,1.8,4.5,3.7,6.4,5.8c3.6,4,3.1,6.9-1.5,9.9c-3,2-6.3,3.4-9.9,3.8
		c-4.9,0.6-9.7,1-14.6,1.3c-2.9,0.2-5.7,0.1-8.6,0.2c-1.2,1.7-2.2,3.1-3.2,4.6c-3,4.7-5.9,9.4-9,14.1c-1.1,1.6-2.5,3.2-4,4.4
		c-2.1,1.7-5.1,1.1-6.3-1.3c-0.9-1.8-1.4-3.8-1.9-5.7c-1.4-5.2-2.7-10.3-4.1-15.5c-0.5-2-1.7-3.1-3.7-3.2c-1.3-0.1-2.7-0.1-4-0.3
		c-8.2-0.8-16.3-2.4-24.3-4.5c-4.1-1.1-6.6-3.4-6.8-8.1c7-3.5,13.5-7.7,19.7-12.5c-0.3-5.7-0.6-11.2-0.9-16.7c0-0.3-0.6-0.6-1.2-1.2
		c-1.1,1.2-2.4,2.4-3.3,3.8c-4.4,6.2-8.6,12.5-13.2,18.5c-7,9.5-11.1,20.3-14.8,31.3c-0.6,1.9-0.9,3.9,0.7,5.7
		c3.6,1.2,7.3,2.1,10.8,3.6c6,2.4,9.8,6.9,11.1,13.3c0.3,1.3,0.6,2.6,0.8,3.9c1.5,14.6-0.8,28.5-8.4,41.2c-0.9,1.5-1.9,3.1-3.1,4.3
		c-2.9,3.1-6.5,4-10.4,2.2c-2.2-1-4.2-2.5-6-4.1C987.6,471.4,986.5,469.7,984.9,467.7z M390.3,433.8c-0.3,2-0.6,3.5-0.7,5
		c-0.1,3.6,0,7.1-0.2,10.7c-0.3,4.9-1.2,9.7-1.2,14.6c-0.2,16.1-2.1,32-4.6,47.9c-2.9,18.3-6.2,36.5-9.6,54.7
		c-0.6,3.5,0,6.1,2.2,8.6c1,1.2,2,2.4,3.1,3.5c10.6,10.7,22.3,19.8,35.9,26.5c4.8,2.4,4.7,2.4,10,1.9c4.3,5.4,5.5,6.2,12.7,7.2
		c4.9,0.7,9.7,1.3,14.6,1.5c20.7,1,41.5,0.5,62.1-1.5c11.3-1.1,22.6-2.3,33.9-3.7c9.7-1.2,19.4-2.8,29.1-4.3
		c1.2-0.2,2.2-1.1,3.6-1.8c-2.3-4.9-5.3-8.8-7.8-12.9c-2.6-4.3-6.2-8.2-7.7-13c1-2.1,2.2-3.6,5.1-3.3c1.4,1.8,3.1,3.9,4.6,6
		c4.4,6.2,8.7,12.4,13,18.7c1.6,2.4,3.6,3.1,6.3,2.4c14.8-4,28.6-10,40.2-20.3c10.2-9.1,15.9-20.8,18.9-33.9
		c2.4-10.9,1.5-21.7-0.6-32.5c-3.1-16.2-8.2-32-13.6-47.5c-9-25.7-19.8-50.7-30.2-75.8c-3.9-9.5-7.9-18.9-10.7-28.8
		c-0.9-3.1-2.4-5.7-5-7.7c-3-2.3-6.1-4.5-9.2-6.6c-5-3.3-10.2-6.4-15.3-9.6c-1.7-1.1-2.4-2.6-1.9-3.8c0.5-1.3,2.1-2.3,3.9-2
		c2,0.3,4,0.7,5.7,1.6c4.4,2.1,8.7,4.5,13,6.8c0.9,0.5,2,0.7,3.3,1.1c0-3.2-0.1-5.8,0-8.5c0.1-3.3,0.2-6.7,0.7-10
		c0.4-2.8,2.1-4.5,3.6-4.2c2.1,0.5,2.6,2.3,2.9,4.1c0.7,4.2,1.1,8.4,1.7,12.6c0.3,2.2,0.7,4.4,1.7,6.4c3.6,7.5,6.1,15.3,7.8,23.4
		c2.2,10.4,6.3,20,10.8,29.4c0.5,1,1,2.3,1.9,2.6c3.5,1.4,3.7,4,3.4,7.1c-0.3,3.5,0.9,6.4,3.5,8.7c5.3-2.6,10.1-5.4,15.3-7.4
		c5.1-2,10.2-4.3,15.7-4.6c2.4,5.3,2.2,6.2-2.2,7.7c-2.5,0.9-5.1,1.5-7.7,2.3c-3.4,1-6.9,1.9-10.3,3.1c-3.1,1.1-6.3,2.2-8.9,4.8
		c0.3,1.1,0.4,2.2,0.8,3.2c7.6,18.3,14.5,36.9,20.9,55.7c1.7,5,4.5,9.8,7.7,14c2.4,3.2,4.7,6.4,7,9.7c2.6,3.9,5.6,7.5,8.4,11.2
		c0.6,0.8,1.6,1.4,2.7,2.2c3.2-2.6,4.9-6,7.3-8.9c2.3-2.8,4.2-5.7,6.5-8.5c2.3-2.9,3.6-6.7,7-8.7c2.4,0.7,4.2,1.8,4.8,4.8
		c-1.3,2-2.7,4.3-4.3,6.4c-3.6,4.8-7.4,9.5-11,14.3c-1.6,2.1-3.6,3.9-4.2,6.6c0.4,0.7,0.7,1.4,1.1,1.9
		c15.4,15.8,33.3,27.6,54.8,33.2c9.7,2.5,19.7,4,29.8,2.8c17.1-2.1,33.7-6.4,50.3-10.9c1.2-0.3,2.1-1.2,3.4-2
		c-2-3.5-3.8-6.6-5.5-9.7c-1.6-2.9-3.3-5.8-4.8-8.8c-1.6-3.1-4.1-5.7-5-9.2c4.6-3.2,5.5-3.2,7.9,0.1c1.7,2.3,3.3,4.8,4.7,7.3
		c2.8,4.8,5.5,9.7,8.3,14.5c0.8,1.3,1.7,2.5,2.7,3.8c1.3-0.3,2.4-0.4,3.4-0.7c8.7-2.8,17.3-6,25.4-10.3c6.9-3.7,13.4-8,18.9-13.6
		c3.3-3.4,6-7.2,7.7-11.6c1.1-2.7,1-5.1-1.1-7.4c-5.6-5.9-9.2-13.1-13-20.2c-3.5-6.4-7.8-12.5-11.7-18.7c-2.1-3.3-5.3-4.8-9-4.7
		c-3.3,0-6.7,0.1-10,0.8c-6.3,1.4-12.5,3.1-18.7,5.1c-13.4,4.3-26.6,9.2-40.3,12.1c-5.6,1.2-11.4,1.9-17.7,2.9
		c-0.8,1.7-1.7,3.6-2.6,5.6c-1.8,3.8-3.5,7.7-5.4,11.5c-0.6,1.2-1.3,2.3-2.1,3.4c-0.9,1.2-2.2,1.6-3.5,1c-1-0.4-1.9-1.1-3.2-1.9
		c0.9-2,1.7-3.8,2.5-5.6c1.9-4.3,4-8.5,5.8-12.8c0.6-1.4,0.6-2.9,1-4.7c-5.2-3.4-9.9-7.2-15.2-10c-2.1-1.1-4.4-2.5-5.9-4.3
		c-6.5-7.9-12.7-15.9-16.5-25.8c-9.2-23.9-19.5-47.4-31.7-70c-11.6-21.4-23.4-42.6-37.7-62.3c-11.7-16.1-25.1-30.8-40.5-43.4
		c-1-0.8-1.9-1.9-3.8-1.2c-0.4,0.7-0.9,1.7-1.4,2.7c-3.1,6.7-6.2,13.3-9.3,20c-0.7,1.4-1.4,2.8-2.2,4.1c-1,1.5-2.2,1.9-4.1,1.1
		c-1.1-0.5-2-1.5-3-2.4c0.4-1.1,0.5-2,0.9-2.8c2.2-4.6,4.6-9.2,6.8-13.8c1.9-4,3.5-8.2,5.2-12.3c0.8-1.9,0.4-3.5-1.3-4.7
		c-2.2-1.5-4.4-3-6.7-4.4c-13.6-7.9-28.2-13.3-43.5-16.8c-16.6-3.8-33.6-4.2-50.5-4.5c-2.6-0.1-4.8,0.7-6.9,2.2
		c-8.3,6-17.7,9.5-27.6,11.3c-5.5,1-6.1,2.6-6.5,7.6c-0.3,3.1-0.2,6.3-0.7,9.3c-1.5,10.2-1,20.5-0.5,30.7
		c0.5,10.9,1.6,21.8,2.5,32.7c0.5,6.9,1.1,13.8,1.6,20.7c0.6,9.3,1.5,18.7,1.7,28c0.2,11.8-1.2,23.6-2.6,35.3
		c-0.5,4.8-2.2,9-3.9,13.3c-1,2.5-2.8,3.9-5.3,4.6c-6.8,2-13.7,4-20.5,6.1c-11.8,3.7-23.8,5.7-36.2,6
		C394.1,433.4,392.6,433.6,390.3,433.8z M451.7,409.7c0.5-3.2,1.1-6.1,1.4-8.9c1.7-18.7,1.3-37.4-0.1-56.1
		c-1.1-15.3-2.6-30.7-3.5-46c-0.5-9.1-0.3-18.3-0.3-27.4c0-11.8-0.4-23.6,1.4-35.4c0.3-1.8,0.4-3.6,0.4-5.3
		c-0.2-13.4,0.2-26.8-0.8-40.1c-0.9-12.9-1.6-25.8-2.1-38.7c-0.3-7.3-0.5-6.4,4.7-10.7c1.4-1.1,2.9-2.1,4.3-3.2
		c3.6-3,7.3-5.9,10.8-9c0.9-0.8,1.5-2,2.1-2.9c-0.5-0.8-0.6-1.2-1-1.5c-9.6-7.9-20.7-10.1-32.7-8c-5,0.9-9.8,2.9-15,2.9
		c-0.6,0-1.3,0.4-1.9,0.6c-3.1,1.1-6.3,2.2-9.4,3.4c-7.1,2.8-14,5.9-20.1,10.5c-10.8,8.2-19.5,18.2-26,30.2
		c-6.1,11.1-9.7,23-11.7,35.4c-2.3,14.5-4.5,29.1-6.5,43.7c-1.7,11.9-3.2,23.9-4.5,35.8c-1.2,10.6-2.2,21.3-2.9,32
		c-0.9,12.7-1.9,25.4-2,38.1c-0.1,13.1,0.5,26.3,1.3,39.4c0.4,6.6,0.7,13.4,2.9,20.1c11.2,6.5,23.3,10.9,35.9,13.8
		c9.5,2.2,19.1,2,28.6,1.1c15.2-1.5,29.6-6.4,43.8-11.8C449.7,411,450.5,410.4,451.7,409.7z M273,605.3c1.2,0.2,1.5,0.3,1.7,0.2
		c1.2-0.5,2.4-1.1,3.6-1.7c8.3-4.6,17.1-7.7,26.2-9.7c1.2-0.3,2.6-0.2,3.9-0.3c1.3,2.5,1.9,4.8,1.1,7.5c-1.4,0.6-2.7,1.4-4.2,1.7
		c-9.2,2.1-17.9,5.4-26.3,9.6c-3,1.5-6.7,2.3-8.7,4.6c-2,2.3-2.5,6.1-3.5,9.3c-3.6,11.9-6.8,24.1-14.1,34.5
		c-0.3,0.4-0.5,0.8-0.6,1.2c-3.3,9-6.8,17.9-9.7,27.1c-1.4,4.4-2.2,9.2-2.3,13.8c-0.2,6.2,0.3,12.5,2.1,18.5c0.6,2,1.7,3.5,3.5,4.6
		c11.4,7,22.4,14.7,34.3,20.8c3.9,2,7.6,4.5,11.4,6.7c4.8-1.7,8.3-4.9,12.2-7.4c13.3-8.3,20.6-21.2,26.8-35c0.4-1,0.6-2.1,0.8-3.2
		c5.3-22.3,10.6-44.7,15.8-67c2.2-9.3,4.2-18.7,6.4-28c0.7-3,0.8-5.5-1.7-8c-1.8-1.9-3.1-4.3-4.4-6.7c-4.6-8.5-9.5-16.7-15.1-24.5
		c-0.5-0.7-1-1.5-1.4-2.3c-1-1.5-0.8-3,0.5-4.2c0.8-0.7,1.7-1.3,2.8-2.1c1.5,1.5,2.8,2.6,3.9,3.9c5.6,6.7,10.2,14,14.5,21.7
		c1,1.8,1.5,4.2,4.1,5.3c1.8-2.6,2-5.6,2.6-8.3c7.4-32.4,13.2-65.1,18.5-97.9c0.9-5.9,2.3-11.8,1.3-17.9c-0.5-3.5-0.9-7.1-0.8-10.6
		c0.1-8.9-1.6-17.8-0.5-26.7c0.2-1.8-0.7-3-2.3-3.6c-0.6-0.2-1.3-0.4-1.9-0.5c-11.3-2.9-22-7.3-32.4-12.4c-3.5-1.7-5.8-4.1-6.8-7.7
		c-1.5-5.4-3.2-10.7-4.2-16.2c-2.8-14.2-4-28.7-4-43.2c0-9.8,0.6-19.6,1-29.4c0.6-15.8,2-31.6,4-47.3c0.1-0.8,0-1.6,0-3.3
		c-2.2,2.4-2.7,4.5-3.4,6.6c-2.7,7.7-3.4,15.7-3.6,23.7c-0.3,12.9-0.9,25.8-2.7,38.7c-2.9,21.4-5.8,42.8-9,64.2
		c-2.1,13.9-4.5,27.7-6.9,41.5c-0.6,3.4,0,5.9,2.9,8.2c6.8,5.4,13.3,11.1,20,16.7c4.4,3.6,4.5,4.4,1,9.2c-0.2,0.3-0.7,0.5-1.3,1
		c-1-0.5-2.4-0.9-3.4-1.7c-3.1-2.5-6.2-5.1-9.2-7.8c-3.2-2.8-6.2-5.8-9.3-8.6c-0.8-0.8-1.8-1.3-3.4-0.1
		C295.1,510.4,284,557.7,273,605.3z M1189.1,585.5c5.3,2.5,10.2,2.5,15,3.1c14.4,1.8,28.9,2.5,43.4,2.4c2.7,0,5.4-0.2,8-0.6
		c11.7-1.9,23.1-5,34.1-9.5c13.8-5.6,26.1-13.6,36.6-24.2c8.1-8.3,14.3-17.7,16.5-29.3c1-5,1.8-10.1,2.2-15.2
		c0.8-10.3,0.2-20.5-1.4-30.7c-3.1-19-8.6-37.3-16.1-55.1c-0.5-1.1-1.4-2.1-2.2-3.3c-1.3,0.8-2.3,1.3-3.2,1.9
		c-19,13.5-35.8,29.4-51.4,46.7c-17.5,19.4-33,40.4-48.1,61.7c-5.1,7.1-9.6,14.5-12.2,22.9c-0.6,2-1.7,3.7-3.6,4.6
		c-3.7,1.9-6,5.2-8.1,8.7c-2.3,3.8-4.7,7.6-7,11.4C1190.6,582.3,1190,583.7,1189.1,585.5z M198.9,810.1c-0.4,0.9-0.6,1.6-1,2.1
		c-4.5,5.2-8.8,10.7-13.7,15.6c-7.7,7.8-15.8,15.2-23.7,22.7c-4.5,4.3-9.3,8.4-13.5,12.9c-3.2,3.4-5.9,7.2-8.7,11
		c-0.5,0.7-1.5,1.8-0.1,3c3.4-1,6.4-2.9,9.3-5c3.8-2.8,7.5-5.6,11.2-8.5c10.7-8.4,21.2-17,32.1-25.2c6.4-4.8,13.3-9,20.1-13.2
		c2.8-1.7,6-2.9,9.1-4.2c0.7-0.3,1.6,0,3.2,0c-1.9,3.5-3.8,6.1-6.2,8.5c-1.7,1.7-3.6,3.4-4.9,5.4c-7.5,11.3-15.1,22.7-22.3,34.2
		c-2.3,3.7-3.9,8-5.6,12.1c-0.7,1.6-1.3,3.4,0,5.5c0.9-0.2,2.1-0.2,2.9-0.8c2-1.4,4-2.8,5.7-4.6c3.6-3.7,7.1-7.4,10.5-11.3
		c13.9-16,26.8-32.8,39.1-50.1c12.3-17.2,24.5-34.6,38.5-50.6c0.7-0.8,1.5-1.7,0.5-3.1c-0.7-0.1-1.6-0.2-2.4-0.3
		c-11-0.4-20.2-4.8-28-12.5c-4.1-4.1-7.7-8.6-10.6-13.7c-0.9-1.6-1.8-3.1-2.6-4.7c-1.1-2.2-2.6-3.4-5.1-3.7
		c-5.3-0.6-10.6-1.7-15.9-2.3c-18-1.9-36-3.3-54.1-3.2c-4.7,0-9.4,0.1-14,0.2c-1,0-2,0.5-3.7,0.9c1.4,1.7,2.1,3.1,3.2,4
		c3.8,3.2,8.3,5.3,13,6.7c5.1,1.5,10.4,2.7,15.5,4c6.7,1.7,13.4,3.3,20,5.3c2.5,0.7,4.9,2.2,7.1,3.5c1.1,0.7,2.1,2,1.4,3.4
		c-0.4,0.9-1.5,1.8-2.4,2c-7.7,1.6-14.7,5.1-22,7.8c-20.3,7.5-39.9,16.7-59.4,26.1c-7.7,3.7-14.8,8.3-21.2,13.9
		c-1,0.8-1.8,1.8-2.7,2.8c1.8,2.2,3.9,1.8,5.8,1.6c3.5-0.4,7.1-1,10.6-1.6c14.1-2.5,27.6-7.1,41-12.1c6.7-2.5,13.4-4.9,20.2-7
		c3.8-1.2,7.8-1.8,11.7-2.6c1.3-0.3,2.7,0,3.2,1.8c-1.1,1.8-2.1,3.7-3.4,5.5c-0.8,1-1.9,1.8-3,2.6c-13.6,9-27.4,17.6-40.8,26.9
		c-9,6.2-17.5,13.1-26.1,19.8c-1.3,1-3,1.9-3.3,4.6c2.6-1.1,4.9-2,7-3c14.8-6.9,29.5-13.7,44.3-20.6c9.8-4.7,20.2-8.3,29.3-14.6
		C196,807,197.7,808,198.9,810.1z M868,450.4c1.9,0.6,3.8,1.4,5.7,1.9c11.1,2.9,18.1,10,21.9,20.6c2.5,7.2,4.4,14.5,5.6,22
		c0.4,2.6,0.4,5.3,1.8,8.1c1.6-0.4,3.1-0.7,4.5-1.3c7.4-3.2,14.8-6.3,22.1-9.6c10.6-4.8,20.5-10.9,29.7-18
		c6.8-5.2,12.6-11.3,17.1-18.6c3.3-5.3,6.2-10.8,8.5-16.7c0.6-1.6,1.5-3.2,2.4-4.7c0.6-1,2.4-0.9,2.8,0.2c0.7,1.9,1.5,3.7,1.8,5.7
		c0.5,4.2,0.8,8.4,1.1,12.6c0.2,3.3,0.2,6.7,0.6,10c0.4,3.1,2,5.3,5.5,5.6c0.6-0.6,1.2-1,1.6-1.5c7.2-11.7,9.6-24.3,7.7-37.8
		c-0.8-5.6-4-8.7-9.1-10.3c-5.2-1.6-10.5-1.9-15.9-1.4c-9.4,0.7-17.1,4.6-22.5,12.6c-1,1.5-2,3-3.1,4.4c-0.7,0.9-1.4,1.7-2.3,2.4
		c-0.4,0.3-1.3,0.4-1.8,0.1c-0.5-0.2-1-0.9-1.1-1.5c-0.1-0.8-0.1-1.8,0.3-2.6c3-7.6,7.3-14.2,14.7-18.4c4.1-2.3,8.6-3.7,13.1-4.9
		c1.2-0.3,2.8,0.1,3.3-1.9c-0.8-1.2-1.8-2.4-2.5-3.8c-2.6-5.7-7.7-7.8-13.1-9.5c-2.3-0.7-4.4-0.5-6.4,0.8c-1.3,0.9-2.6,1.7-3.8,2.7
		c-5.3,4.4-10.2,9.3-14.5,14.8c-3.1,4.1-6.2,8.2-9.4,12.2c-0.8,1-1.8,1.7-2.8,2.7c-1.4-2.3-0.2-3.9,0.6-5.4c5-8.7,10-17.4,15.2-26
		c2.2-3.6,5.4-6.5,9-8.9c1.2-0.8,2.4-1.8,3.9-2.8c-3.1-4.6-7-7.5-12.1-8.1c-5.5-0.6-10.6,0.6-14.9,4.4c-8.3,7.3-15,15.8-20.3,25.5
		c-2,3.7-4,7.5-6,11.2c-0.4,0.7-1.3,1.5-1.9,1.4c-1.5-0.1-1.5-1.6-1.3-2.6c0.5-2.4,1.1-4.8,1.9-7.1c3-7.7,6.8-15,11-22.1
		c0.9-1.4,1.5-3.1,2.3-4.9c-1.4-0.3-2.2-0.7-3-0.7c-13.2-0.4-24,4.5-31.6,15.4c-6.7,9.6-11.4,20.2-13.5,31.8
		c-1.1,6.1-1.8,12.3-2.6,18.5C867.6,447.8,867.9,448.9,868,450.4z M1203.8,1425.4c0.2-1.9,0.4-3,0.4-4.1
		c-0.5-14.9-1.1-29.8-1.7-44.8c0-0.7,0-1.4-0.2-2c-0.4-1.2-0.9-2.4-1.4-3.7c-1.8,0.4-3.4,0.5-4.9,1c-2.3,0.7-4.6,1.6-6.9,2.5
		c-7.2,3-14.7,5.2-22.5,6c-12.8,1.3-24.9-0.5-35.8-7.7c-2.3-1.5-4.7-2.5-7.5-2.5c-4.8,0-7.8,2.9-8.2,7.7c-0.1,1.1-0.1,2.2-0.2,3.3
		c-0.1,4.5-1.1,8.8-3.4,12.8c-0.9,1.5-1.5,3.2-2.2,4.9c-1.3,3.2-3.5,5.6-6.1,7.8c-3.5,2.9-7.4,4.9-11.7,6.4
		c-11.6,4.1-23.4,5.4-35.5,3.3c-5.9-1-11.7-2.5-18.2-3.9c-0.3,0.1-1.4,0.5-2.4,0.9c-18,8.4-35.9,16.8-53.9,25.2
		c-1.4,0.7-2.8,1.5-3.8,2.6c-0.8,0.8-1.2,2.1-1.9,3.4c4.9,2.3,9.8,2.9,14.6,3.7c4.8,0.8,9.7,1,14.5-0.7c1.9-0.7,3.9-1,5.9-1.2
		c8.9-0.9,17.7-2,26.6-2.6c18.2-1.1,36.5-1.8,54.7-3c9.8-0.6,19.5-1.9,29.2-3c2.2-0.2,4.3-0.9,6.3-1.4c1.1-2.7,1.8-5,2.9-7.2
		c1.5-3.2,2.9-6.6,4.9-9.5c4.4-6.6,10.5-8.4,18.1-6c5.9,1.9,9.8,6,12.3,11.5c0.9,2,1.7,4,2.7,6.3
		C1180.3,1429.6,1192,1428.6,1203.8,1425.4z M816.5,1428.1c-0.4,0.1-0.9,0.1-1.3,0.2c-5,1.2-6.4,0.3-7.3-4.6c-0.2-1-0.5-1.9-0.8-3.3
		c-1.9,0.7-3.4,1.2-4.8,1.7c-2.9,0.9-5.8,1-8-1.6c-2.1-2.4-1.1-5,0.1-7.5c0.8-1.7,2.6-3.2,1.5-5.8c-1.9-0.6-4.1-1.1-6.2-1.8
		c-4.7-1.4-9.4-2.8-14-4.4c-5.9-2.1-11.3-5.2-16.4-8.9c-5.3-3.9-7.4-9.3-7.2-15.7c0.1-2,0.7-4,0.8-6c0.1-1.2-0.4-2.5-0.6-4.1
		c-1.9,0-3.4,0-5,0c-5.1,0-10.3,0.1-15.4-0.1c-16-0.4-32.1,0.3-48.1-1.2c-1.9-0.2-4-0.6-6.1,1.1c-0.1,0.8-0.5,1.9-0.4,2.9
		c1.6,18.8,3.6,37.6,5.6,56.6c1.9,1.1,3.6,2.1,5.4,3.1c3.1,1.8,6.2,3.6,9.2,5.4c3.4,2,5.8,4.9,7.1,8.6c0.4,1,0.8,2.1,1.1,3.1
		c0.6,1.7,1.8,2.5,3.5,2.5c1.3,0,2.7,0.1,4-0.1c11.2-1.4,22.2,0,33.3,1c4.9,0.5,9.7,1.7,14.5,2c11.6,0.6,23.1,1,34.7,1.1
		c17.6,0.2,35.2,1,52.7,2.7c3.5,0.3,7.1,0.5,10.7,0.5c1.5,0,2.9-0.5,4.6-0.9c0.8-6.8,0.9-13.2,0.2-19.9c-5.8-3.3-11.7-6.1-18.3-8.1
		c-1.2,1.4-2.3,2.8-3.5,4c-1.5,1.6-3.1,3.3-4.8,4.6c-2.3,1.8-4.9,2-7.4,0.1c-1-0.8-2.1-1.6-3-2.4
		C820,1433.5,820,1433.5,816.5,1428.1z M1098.3,1349.4c-10.4,4.6-20.5,7.1-30.8,9.1c-3.5,0.7-7,1-10.6,0.3c-2.9-0.6-5.8-0.6-8.5,0.8
		c-1.9,1-3.8,0.7-5.8,0.4c-10.4-1.5-19.3-6.3-27.7-12.3c-3.1-2.2-5.1-1.8-7.1,1.5c-0.5,0.8-0.7,1.6-1.2,2.4
		c-3.5,5.7-6.9,11.5-10.5,17c-1.2,1.8-2.9,3.4-4.7,4.7c-6.2,4.4-12.7,8.3-19.9,10.8c-3.6,1.3-7.3,1.7-11.2,1.5
		c-6.7-0.4-13.3-1.5-19.7-3.3c-3.2-0.9-5.9-0.6-8.9,0.8c-13.4,6.5-27,12.8-40.5,19.1c-4.5,2.1-5,3.1-4.1,7.7
		c0.7,3.5,1.7,4.6,5.2,5.1c1.5,0.2,3.1,0.3,4.7,0.3c8.7,0,17.3-0.9,25.9-2.2c22.7-3.4,45.4-6.8,68-10.2c3.5-0.5,7.1-1,10.5-2.1
		c7-2.2,13.9-4.7,21.2-6.1c3.2-0.6,5.7-2.2,7.2-5.3c2.3-4.7,6.2-8.1,9.9-11.6c2.4-2.4,5.6-3.6,8.9-4.4c5.6-1.4,8.9,0.1,11.3,5.5
		c1.1,2.4,1.8,5,2.7,7.6c4.1-0.1,8.1-0.5,11.8-2.2c3.7-1.7,7.3-3.3,10.9-5c3.6-1.7,7.3-3.4,10.9-5c2.2-1,3.5-2.6,3.5-5.2
		c-0.1-5.3-0.1-10.7-0.2-16C1099.4,1352.1,1098.8,1351.1,1098.3,1349.4z M359.1,1440.8c1.5-2.3,2.5-4,3.6-5.7
		c3.6-5.9,7.1-11.9,10.8-17.7c1.5-2.4,3.3-4.8,5.4-6.7c8.4-7.5,20.1-5.6,25.6,4.2c1.8,3.3,3,7,3.9,10.6c0.9,4.1,1.1,8.4,1.6,12.6
		c0.5,4.5,1.4,5.5,5.8,5.5c6.7,0,13.4-0.2,20.1-0.6c4.4-0.2,8.8-0.9,13.4-1.4c0.4-4.8-2.2-8.3-3.8-12.1c-2.9-6.4-4.5-8.3-8.3-11.3
		c-1.2,1.5-2.3,3.2-3.7,4.6c-3,3-7.1,2-8.3-2.1c-0.6-2.3-1-4.9-0.7-7.2c0.9-9.1,2.1-18.1,3.2-27.2c0.6-5.1,1.2-10.2,1.6-15.3
		c0.1-1.2-0.4-2.4-0.6-3.7c-1.1,0.1-1.8,0-2.4,0.2c-8.5,2.6-17,3.2-25.8,2c-5.3-0.7-10.6-1-16-1.5c-6.4-0.5-12.9-1-19.3-1.5
		c-4.2-0.3-8.4-0.7-12.6-1c-1.7-0.1-3.6-0.7-5.4,1.2c-1.4,6.3-2.4,13.1-3,20c-0.6,7.3-1.3,14.7-2.1,22c-0.8,7.1-2,14.1-2.9,21.2
		c-0.3,2.6-1,5.3,0.7,8C345.8,1439.8,352.3,1439.6,359.1,1440.8z M1279,156.4c0.3-0.3,0.7-0.6,1-0.8c-0.5-2.6-1-5.2-1.6-7.8
		c-3.3-13.1-6.5-26.3-10-39.4c-4.5-16.5-9.1-33-13.8-49.5c-2.2-7.5-4.8-14.8-8.7-21.7c-1.4-2.5-3-4.9-4.9-7.1
		c-2-2.3-4.3-2.3-6.4-0.3c-1.5,1.3-2.8,2.9-3.8,4.6c-1.7,3.1-3.3,6.3-4.6,9.6c-2.8,6.9-3.4,14.2-3.9,21.6c-1.1,17,1.2,33.7,3.4,50.5
		c0.9,7.1,4.5,11.4,11,13.6c0.4,0.1,0.8,0.3,1.3,0.5c8,2.4,15.1,6.5,21.8,11.4c5.4,3.9,10.6,8.1,15.9,12.2
		C1276.6,154.6,1277.8,155.5,1279,156.4z M935,499.7c-1.2,0.3-2.1,0.5-2.9,0.8c-9.1,4.2-18.5,7.5-28.2,10.2
		c-2.7,0.7-4.2,2.2-5.2,4.6c-2.3,5.4-5.8,10-9.9,14.1c-0.9,0.9-1.5,2.1-2.2,3c7,7.1,52.7,37,60.4,39.5c0.4-0.5,1-1,1.1-1.5
		c3.6-16.7,7.1-33.4,10.6-50.3C950.7,513.4,943,506.7,935,499.7z M685.7,1466.7c1.7,0.3,2.8,0.6,3.8,0.7c11.6,0.5,23.2,1,34.7,1.6
		c10,0.5,20,1.2,30,1.8c12.7,0.7,25.4,1.7,38.1,1.8c38.6,0.3,77.2,0.2,115.7,0.2c1,0,2.3,0.3,3.1-1.3c-0.6-1.1-1.2-2.5-2-3.8
		c-1.4-2.3-3.3-3.4-6.2-2.9c-2.4,0.4-4.9,0.4-7.3,0.3c-4.9-0.2-9.8-0.5-14.7-0.8c-9.3-0.6-18.7-0.9-28-1.9
		c-18.6-1.9-37.4-2.6-56.1-3.4c-16.7-0.7-33.4-1.1-50.1-1.7c-2-0.1-4-0.3-6-0.5c-6.9-0.7-13.7-1.8-20.6-2
		c-10.2-0.3-20.5,0.1-30.8,0.2c-1.2,0-2.5,0.6-3.8,1c-0.2,1.6-0.4,2.9-0.4,4.2C685.4,1462,685.6,1464,685.7,1466.7z M1058.4,405.1
		c1-1.4,2.1-2.7,3-4.2c2.1-3.2,4-6.4,6.1-9.6c1-1.6,2.4-2.6,4.3-2.8c7.1-0.8,14.1-1.7,21.2-2.7c2-0.3,3.9-0.8,5.8-1.3
		c1.8-0.6,2.1-2.2,0.6-3.6c-0.8-0.8-1.7-1.5-2.6-2.1c-5.4-3.5-10.8-7.1-16.2-10.5c-5.1-3.2-5.8-4.7-4.4-10.3
		c0.6-2.3,1.6-4.6,1.1-6.9c-0.8-0.2-1.2-0.5-1.6-0.5c-7.3,2-14.7,3.7-21.8,6.2c-3.5,1.2-6,1-8.5-1.5c-2.7-2.7-5.4-5.3-8.1-7.9
		c-0.8-0.7-1.4-1.8-3.1-1.3c-0.1,0.7-0.5,1.5-0.4,2.3c0.3,5.5,0.6,11.1,1.1,16.6c0.3,3.2-0.6,5.5-3.5,7.2c-3.3,1.9-6.4,4.1-9.5,6.2
		c-0.8,0.6-1.4,1.4-2.4,2.4c1.1,0.5,1.6,0.9,2.2,1c7.7,0.9,15.5,1.8,23.2,2.8c2,0.2,3.9,0.7,5.8,1.3c1.6,0.5,2.6,1.7,2.6,3.5
		c-0.2,5.3,2.3,9.9,3.9,14.7C1057.1,404.4,1057.7,404.6,1058.4,405.1z M1116.5,289.5c-1.5,0.2-2.8,0.3-4,0.6
		c-4.8,1.2-9.5,2.4-14.2,3.7c-1.7,0.5-3.5,0.9-5,1.8c-3.2,1.9-6,1.3-8.5-1.2c-2.7-2.6-5.4-5.3-8.2-7.9c-0.8-0.7-1.3-1.9-2.9-1.3
		c-0.2,0.5-0.5,1.2-0.5,1.8c0,3.8,0,7.6,0.2,11.4c0.7,12.5,2.2,9.2-8.3,16.3c-2.2,1.4-4.6,2.5-6.7,5.1c1.7,0.5,2.8,1.1,4,1.3
		c5.7,0.7,11.5,1.3,17.3,2c3.1,0.4,6.2,0.8,9.2,1.5c1.8,0.4,3.4,1.6,3.4,3.7c-0.1,4.8,2.2,9.1,3.3,13.6c0.2,0.9,0.3,2.3,2.3,2.4
		c2.5-4,5.2-8,7.6-12.3c1.9-3.2,4.3-4.6,8.1-4.9c7.3-0.6,14.6-1.8,21.9-2.8c1.7-0.2,3.6-0.4,4.8-2.5c-1-1-1.9-2.3-3.1-3.1
		c-5.7-3.8-11.5-7.6-17.4-11.3c-4.9-3.1-5.7-4.8-4.3-10.4C1115.9,294.7,1117.1,292.5,1116.5,289.5z M460.9,231.1
		c11.4-0.8,23.7-5.4,29.8-11.2c-0.2-1.5-0.4-3.3-0.8-5c-2.5-10.4-4.9-20.8-7.6-31.2c-2.2-8.5-0.9-8.2-9.8-10.4
		c-1.3-0.3-2.6-0.7-3.8-1.3c-1.4-0.7-2.8-1.4-4-2.4c-0.6-0.5-1-1.6-0.8-2.3c0.2-0.7,1-1.6,1.7-1.7c1.5-0.3,3.1-0.3,4.6-0.1
		c1.5,0.2,3,0.7,4.6,1c3,0.6,5.2-0.7,6.8-3.1c1.9-2.7,1.3-8.1-2.5-9.9c-4.4-2-7.3-5.7-10-9.6c-0.7-1.1-1.7-1.9-2.8-3.1
		c-3,2.4-5.8,4.7-8.6,6.8c-2.7,2.1-3.6,4.4-3,8.1c1.7,11,3.3,22,4.1,33.1c0.9,12.2,0.9,24.5,1.4,36.7
		C460.4,227.2,460.7,229,460.9,231.1z M336.7,1463.8c3.2,1.2,6.3,0.8,9.4,0.6c11.5-0.7,23.1-1.7,34.6-2c19.4-0.5,38.7-0.3,58,1
		c6,0.4,9.1-2.3,11.2-7.3c0.5-1.2,1-2.5,1.3-3.8c0.9-3.4-0.2-4.6-3.6-4.3c-5.8,0.5-11.5,1-17.3,1.6c-17.1,1.8-34.2,0.5-51.3-0.9
		c-12-1-23.8-2.8-35.8-4.3c-3.3-0.4-5.3,0.9-5.8,4c-0.6,3.7-1,7.5-1.3,11.3C336.2,1461,336.5,1462.3,336.7,1463.8z M1283,234.1
		c1.9,2.1,3.3,3.5,4.6,4.9c3.1,3.2,6.9,4.8,11.3,4.9c4.7,0.1,8.2-2.3,9.5-6.8c0.6-2.1,1-4.3,1.2-6.6c0.2-1.9,1-3.4,2.6-4.4
		c3.3-2,5.5-5.1,7.5-8.4c4.9-8,4.6-14.9-1.5-22.1c-5.7-6.8-12.8-11.6-21.2-14.6c-0.9-0.3-1.7-0.4-2.3,1.1c1.1,1.3,2.4,2.8,3.6,4.3
		c2.5,2.9,4.7,6,5.7,9.7c3.4,11.4-0.8,18.1-8.6,22.7c-1,0.6-2,1-3,1.4c-8.6,3.3-17.3,4.1-25.8-0.3c-0.6-0.3-1.2-0.4-2.2-0.7
		c-1,1.1-2.3,2-2.9,3.3c-2.6,5.3-0.7,13.2,4,17c4,3.2,6.7,3.2,10.7,0C1278.4,238.2,1280.4,236.4,1283,234.1z M973.6,373.2
		c-2.5-3-4.9-4.5-7.5-5.9c-2.8-1.4-5.4-3.1-8-4.8c-2.5-1.7-3.4-4.1-2.8-7c0.4-1.7,1-3.4,1.5-5.1c1.4-4.5,2.8-8.9,4.2-13.4
		c0.3-1,0.9-2.1-0.7-3.2c-1.8,0.8-3.8,1.7-5.7,2.7c-4.4,2.2-8.7,4.5-13,6.8c-3,1.6-4.2,1.5-6.5-0.8c-1.3-1.2-2.4-2.7-3.5-4.1
		c-2.7-3.5-5.3-7.1-8.1-10.7c-0.6-0.8-1.5-1.4-2.8-2.6c-0.5,2.2-1,3.6-1.1,5.1c-0.6,6.7-1.1,13.3-1.6,20c-0.2,3.5-1.8,5.8-5.4,6.6
		c-4.1,0.9-8.2,1.8-12.4,2.8c-0.9,0.2-1.8,0.8-3.2,1.5c3.6,3.6,6.7,6.7,10.8,8.7c1.4,0.7,2.9,1.3,4.4,1.5c3.7,0.5,7.5,0.8,11.3,1.2
		c2.1,0.2,4-0.1,5.7-1.2c1.3-0.8,2.7-1.6,4.1-2.3c8.7-4.2,17.1-4.2,25.4,1c1.5,0.9,3,2,4.6,2.8C966.4,374.3,969.6,375,973.6,373.2z
		 M1118.2,1362.1c-0.4-4.3-0.6-8.8-1.3-13.1c-1.9-11.7-4.1-23.3-5.9-34.9c-2.6-16.5-5-33-7.4-49.6c-2-14.1-3.8-28.3-5.7-42.4
		c-2.5-18.5-5-37.1-7.7-55.6c-0.8-5.7-1.2-11.4-3.3-18.2c0,2.7-0.1,4.1,0,5.4c1.1,13.1,2.2,26.2,3.3,39.3c0.4,5.1,0.8,10.2,1.3,15.3
		c1.1,12,2.3,23.9,3.5,35.9c1,10.6,2,21.3,3.1,31.9c1.1,11.1,2.3,22.2,3.6,33.2c1.2,10.2,1.6,20.4,3.8,30.5c1.8,8.3,3.3,16.6,3,25.2
		c0,0.6,0.4,1.2,0.7,2.1C1112.7,1366.3,1115.3,1364.5,1118.2,1362.1z M366.8,1440.4c1.3,0.7,1.8,1.2,2.4,1.3
		c10.4,0.7,20.8,2.1,31.2,1.7c0.8,0,1.7-0.4,2.4-0.6c1.2-5.9-0.3-18-2.8-23.6c-3.6-8-11.7-9.5-17.8-3.3c-1.7,1.7-3.1,3.8-4.3,5.9
		C374.1,1427.8,369.9,1433.4,366.8,1440.4z M988.5,397.1c0.7-1.5,1.1-2.5,1.5-3.5c1.3-3.3,2.4-6.7,3.9-9.9
		c6.7-15.2,16.1-28.7,27-41.1c0.4-0.5,1-0.9,1.3-1.5c0.4-0.6,1.7-1,0.5-2c-14.2,7.6-37.3,23.4-41.2,28.1c1,1.8,2,3.7,3,5.5
		c-1.4,3-4,4-6,5.6c-2.2,1.8-5.5,1.7-7.6,4c2.2,3.5,6,4.1,8.6,6.5C982.3,391.4,985,393.9,988.5,397.1z M1086.9,1388.6
		c0.8,1.7,1.3,2.9,1.8,4.1c0.5,1.2,1.2,2.4,1.6,3.7c0.3,1.2,0.6,2.6,0.4,3.9c-0.1,0.7-1,1.6-1.7,1.8c-0.7,0.2-1.8,0-2.4-0.5
		c-0.7-0.5-1.2-1.3-1.5-2.1c-0.8-1.6-1.3-3.3-2.1-4.9c-1.5-3-2.8-3.4-5.8-1.5c-1.1,0.7-1.9,1.7-3,2.6c0.7,1.5,1.3,2.6,1.8,3.8
		c0.5,1.2,1.2,2.5,1.2,3.8c0,0.9-0.8,2.2-1.5,2.6c-0.8,0.3-2.2,0-2.9-0.6c-0.8-0.6-1.3-1.8-1.9-2.7c-1-1.4-2-2.8-3.3-4.4
		c-6.8,2.9-13.1,5.8-20,9.9c2.3,0.7,3.7,1.5,5.1,1.6c7.1,0.2,14.2,0.7,21.3,0.3c6.7-0.3,13.1-2.5,19.2-5.3c3.9-1.8,7.4-4.2,9.3-8.2
		c1.4-2.8,2.7-5.6,3.9-8.5c1.1-2.5,1.8-5,0.6-7.9c-0.9,0.1-1.9-0.1-2.6,0.2C1098.6,1382.7,1092.7,1384.6,1086.9,1388.6z
		 M1290.6,165.1c5.3-5.7,11.1-16.5,12.4-23c0.4-2.2,0.9-4.4,1-6.6c0.2-4.2-1-8-4.7-10.4c-5-3.3-10.5-4.4-16.9-3.9
		C1285.2,135.9,1287.9,150.2,1290.6,165.1z M974.5,1364.2c0.4,1.7,0.7,3,1,4.3c0.2,1.2-0.1,2.4-1.3,2.7c-1,0.3-2.4,0.4-3.1-0.2
		c-1.3-1-2.3-2.6-3.7-4.1c-1.1,0.6-2.2,1.1-3.5,1.8c0.4,1.1,0.7,2,1,2.7c0.6,1.3,0.6,2.7-0.6,3.6c-1.2,0.9-2.5,0.7-3.7-0.2
		c-1.4-1-2.7-2.1-3.9-3c-7.3,2.6-7.3,2.6-10.2,5.7c3.5,0.5,6.8,1.2,10,1.5c4,0.3,8,0.5,11.9-1c10.7-4.3,20.8-9.3,26.1-20.3
		c0.1-0.2,0.3-0.4,0.3-0.6c0.3-0.8,0.9-1.6-0.4-2.4c-5.7,2.5-11.6,5.1-17.5,7.8C976.4,1362.7,975.7,1363.4,974.5,1364.2z M961.1,510
		c0.5-3,0.8-5.4,1.2-7.8c0.4-2.2,0.8-4.4,1.1-6.6c0.4-2.4,0.9-4.8,1-7.3c0.1-2.2,1.6-4.5,0.5-7.3c-3.9,2.7-7.4,5-10.8,7.4
		c-3.3,2.4-7.5,3.8-10.2,7C947.6,500.6,954.7,506.7,961.1,510z M870.8,1456.1c7.5,1.4,20.3,2.3,26.7,1.9c0.5,0,0.9-0.6,1.4-1
		c-4.9-5-12.2-10.1-23-16c-1.5-0.8-3.1-1.3-5.1-2.2C870.8,1444.9,870.8,1450.3,870.8,1456.1z M760.4,1369.9c-1.6,3-1.7,3.4-1.8,6.1
		c-0.4,5.6,1.5,10.1,6.6,12.8c3.7,2,7.5,3.9,11.3,5.8c0.6,0.3,1.5,0,2.7,0c-5.8-8.1-11.1-15.7-16.6-23.3c-0.4-0.5-1-0.9-1.5-1.3
		C760.9,1369.9,760.6,1369.9,760.4,1369.9z M685.2,1448c3.4,1.5,6.7,0.6,10,0.7c4.7,0.1,5.2-2.3,2.8-5.9c-0.9-1.4-2.3-2.7-3.7-3.7
		c-2.1-1.6-4.4-2.9-6.7-4.2c-0.9-0.5-2-0.5-3.3-0.8C683.7,1439.1,683.6,1443.6,685.2,1448z M1187.7,140.1c5-2,10.3-5.6,13.4-9.1
		c-4-0.5-7.2,0.9-10.1,3.1C1189.3,135.4,1187.4,136.8,1187.7,140.1z M268,750c-0.1,0.2-0.8,0.9-0.9,1.7c-0.1,0.7,0.2,1.9,0.7,2.3
		c2.7,2,5.4,2.3,6.7,1c0.3-0.3,0.5-0.9,0.4-1.2c-0.9-2.4-3.1-2.9-5.2-3.7C269.4,749.9,269.2,750,268,750z M262.7,745.9
		c-2.6-1.1-4.2-4.1-8.1-3.6c0.5,3.1,2.7,4.4,4.4,6.1C260.3,749.7,261.2,749.1,262.7,745.9z M883.8,472.4c-0.2-2.3-1.4-3.8-2.9-5.1
		c-1.4-1.3-2.7-1.1-3.7,1.1c0.9,1.5,1.8,3.2,3,4.7C881.3,474.4,882.5,473.9,883.8,472.4z M799.6,1416.9c2.6-0.1,4.2-1.1,5.5-2.7
		c0.6-0.8,0.7-1.7-0.2-2.3c-0.7-0.4-1.9-0.9-2.4-0.5C800.8,1412.6,799.4,1414.2,799.6,1416.9z M888.1,486.5c0.8-3.5-0.1-5.9-2-8.2
		c-0.8,0.6-1.7,1-1.7,1.4C884.3,482.3,885.4,484.5,888.1,486.5z M383.2,442.3c0.2,0,0.4,0,0.6,0c0.3-2.6,0.7-5.1,0.7-7.7
		c0-1.2-0.9-1.9-2.6-1C382.3,436.4,382.8,439.3,383.2,442.3z M827.7,1421.1c-0.4-0.3-0.8-0.6-1.2-0.8c-2,1.1-1.9,3.2-1.7,5.4
		C825.8,1424.2,826.8,1422.6,827.7,1421.1z M814,1420.1c0.3,0.3,0.7,0.6,1,0.9c0.8-0.7,1.6-1.3,2.3-2.1c0.6-0.7,1-1.6-0.2-2.1
		c-0.4-0.2-1.3,0.2-1.6,0.6C814.8,1418.2,814.5,1419.2,814,1420.1z M430.5,1415.4c0.6-0.4,0.8-0.5,0.9-0.7c0.5-0.9,1.3-1.9,0.3-3
		c-0.1-0.1-0.5-0.2-0.6-0.1c-1.2,0.6-1.2,1.7-1.1,2.9C430.1,1414.6,430.2,1414.8,430.5,1415.4z M835,1427.8c1.1-0.8,2-1.6,2.1-3
		c0-0.3-0.3-0.9-0.6-1c-0.3-0.1-0.9,0.1-1.1,0.3C834.6,1425.1,833.6,1426.1,835,1427.8z M1085.9,1142.3c0.1,0,0.3-0.1,0.4-0.1
		c-0.1-0.8-0.1-1.6-0.2-2.5c-0.1,0-0.2,0-0.2,0C1085.9,1140.6,1085.9,1141.5,1085.9,1142.3z"/>
	<path id="XMLID_1593_" d="M1138.6,353.6c5.7-3.6,11.1-7.2,16.6-10.5c2.9-1.8,3.8-4.1,3-7.3c-1.7-6.9-0.6-13.8,1.3-20.4
		c1.7-6.1,7.2-7.3,11.8-2.9c2.1,2,4.1,4.1,5.8,6.5c2.6,3.5,5.4,4.5,9.8,3c5.6-2,11.6-3.3,17.4-4.8c3.2-0.8,6.5-1.4,9.8-1.9
		c1.7-0.3,3.1,1,3.1,2.7c-0.1,1.5-0.3,3.1-0.6,4.6c-0.6,2.6-1.4,5.2-1.9,7.8c-0.3,1.7-0.3,3.5-0.4,5.4c2.2,1.2,4.1,2.2,6.1,3.2
		c5.6,2.8,10.8,6.2,15.7,10.1c1.4,1.1,2.7,2.3,3.9,3.6c3.4,3.7,2.9,8-1.2,10.8c-4,2.7-8.5,3.9-13.2,4.3c-5.5,0.4-11.1,0.5-16.7,0.7
		c-0.9,0-1.8,0.1-3.1,0.2c-1.1,1.7-2.3,3.5-3.5,5.4c-2.8,4.3-5.5,8.7-8.3,12.9c-1,1.5-2.1,2.9-3.4,4.1c-3,2.9-6.3,2-7.8-1.9
		c-0.6-1.7-0.9-3.4-1.4-5.2c-1.5-5.6-3-11.2-4.5-16.8c-3.8-1.5-7.6-1.3-11.3-2c-6.8-1.2-13.5-2.6-20.3-4
		C1141.5,360.3,1139,358.1,1138.6,353.6z M1149.4,354.7c2.5,0.6,3.9,1.1,5.3,1.3c5.8,0.7,11.5,1.3,17.3,2c2.7,0.3,5.3,0.6,7.9,1.1
		c2.9,0.6,4.4,2.2,4.6,5.6c0.3,5.1,2.2,9.8,4.4,15.2c1.2-1.6,2.1-2.5,2.8-3.6c1.9-3,3.9-6,5.6-9.1c1.9-3.5,4.7-4.8,8.6-5.2
		c7.3-0.6,14.6-1.8,21.9-2.9c1.4-0.2,2.7-1.1,3.9-1.7c-0.2-2.6-1.9-3.5-3.3-4.4c-5.2-3.5-10.3-7-15.7-10.2
		c-6.4-3.8-6.9-4.7-5.1-11.7c0.5-2.1,1.5-4.1,1-6.8c-1.3,0.2-2.4,0.3-3.4,0.6c-5.2,1.3-10.4,2.6-15.5,4c-1.5,0.4-3.1,0.8-4.4,1.6
		c-3.2,2-5.9,1.4-8.5-1c-2.9-2.7-5.8-5.6-8.7-8.3c-0.8-0.7-1.4-1.8-3-1.1c-0.5,5.2-0.2,10.5,0.5,15.8c1.1,8.5,0.6,8-5.5,11.9
		C1156.8,349.7,1153.5,352,1149.4,354.7z"/>
	<path id="XMLID_1590_" d="M997.5,301.3c-4.5-0.6-9-1-13.3-1.8c-6.1-1.1-12.2-2.6-18.3-3.9c-3.7-0.8-5.7-3.2-5.9-7.3
		c6.4-4.1,12.9-8.2,19.6-12.4c0-1.3,0.2-2.4,0-3.4c-1.3-5.3-0.5-10.6-0.2-15.9c0.2-2.4,0.8-4.8,1.6-7.1c1.6-4.8,6.8-6.2,10.7-2.9
		c2,1.7,3.7,3.8,5.6,5.8c1.7,1.8,3.3,3.6,5,5.5c1.6-0.3,3.2-0.4,4.7-0.8c6.2-1.7,12.4-3.5,18.7-5.1c3-0.8,6.1-1.3,9.2-1.7
		c2.7-0.4,4.2,1.2,3.7,4c-0.3,2-0.9,3.9-1.4,5.8c-0.8,3.2-1.5,6.5-2.3,10c1.8,1,3.2,2,4.8,2.8c6.1,2.9,11.8,6.3,17,10.5
		c2.1,1.7,4,3.5,5.7,5.6c2.7,3.2,2.3,6-1.1,8.6c-3.6,2.8-7.8,4.3-12.3,4.8c-5.3,0.5-10.7,1.2-16,1c-4.6-0.1-7.4,1.5-9.6,5.5
		c-2.4,4.5-5.4,8.7-8.2,13c-1.1,1.6-2.4,3.2-3.9,4.5c-2.6,2.3-5.6,1.5-7-1.7c-0.5-1.2-0.8-2.5-1.1-3.8c-1.3-4.9-2.6-9.9-3.9-14.8
		C998.8,304.3,998.1,302.9,997.5,301.3z M1005.3,296.1c0.5,6.5,2.6,13.4,5.5,17.8c1.1-1.5,2.1-2.9,3.1-4.4c1.9-3,3.8-6,5.6-9.1
		c1.4-2.3,3.4-3.3,6-3.6c6-0.6,11.9-1.3,17.9-2.1c2.6-0.3,5.3-0.9,7.9-1.5c0.8-0.2,1.4-0.9,2.5-1.7c-1.6-1.5-2.7-2.8-4.1-3.8
		c-5.2-3.5-10.3-7-15.7-10.2c-6.3-3.8-6.9-4.9-5.2-11.7c0.3-1.1,0.7-2.1,0.9-3.2c0.2-1,0-2.1,0-3c-0.7-0.2-1.2-0.5-1.6-0.4
		c-7.3,1.9-14.8,3-21.8,6c-3,1.3-5.6,1.2-8-1c-2.9-2.7-5.8-5.6-8.7-8.3c-0.7-0.7-1.2-2-2.8-1.4c-0.2,0.5-0.5,1.2-0.5,1.8
		c0.2,5.8,0.3,11.6,0.9,17.3c0.3,3-0.4,5.2-3,6.8c-2.5,1.5-4.9,3.1-7.3,4.7c-1.8,1.2-4,2-5.5,4.5c1.8,0.4,3.2,0.9,4.7,1.1
		c7.3,0.9,14.6,1.7,21.9,2.5C1000.6,293.6,1003.1,293.8,1005.3,296.1z"/>
	<path id="XMLID_1589_" d="M441.5,563.6c0.4-0.7,0.7-1.6,1.2-2.2c11.6-12.9,23.1-25.8,34.7-38.7c0.4-0.5,1.1-0.7,1.6-0.9
		c2.2,0.3,3,1.9,4,3.3c0.9,1.2,0.8,2.5,0,3.7c-0.6,0.9-1.4,1.8-2.1,2.6c-9.6,10.5-19.3,20.9-28.9,31.4c-1.8,1.9-3.8,3.7-5.5,5.3
		C443.4,567.8,442.3,566,441.5,563.6z"/>
	<path id="XMLID_1588_" d="M413.2,476.1c-3.8-5-3.8-5.3-0.8-8.5c10.2-11.2,21.1-21.6,32.4-31.7c1.1-1,2.5-1.7,3.6-2.5
		c2.6,0.9,4.1,2.3,5.2,5c-3.4,5.1-8.8,8.4-13.1,12.7c-4.3,4.2-8.7,8.2-13.1,12.3C422.8,467.7,418.7,472.4,413.2,476.1z"/>
	<path id="XMLID_1587_" d="M520.6,260.8c1.2,1.9,1.9,3,2.5,4.2c0.6,1.3,0.2,2.6-0.8,3.7c-1,0.9-2,1.8-3,2.6
		c-10.3,8.3-21.4,15.3-32.7,21.9c-1.4,0.8-2.7,1.7-4.2,0.2c-1.2-1.3-1-2.7,0.9-4.6c1.9-1.8,4-3.6,6.1-5.2
		c8.5-6.5,17.1-12.9,25.6-19.3C516.6,263.2,518.3,262.3,520.6,260.8z"/>
	<path id="XMLID_1586_" d="M536.9,415.8c-1.1-1.4-2.5-2.9-3.4-4.6c-5.3-9.8-10.5-19.6-15.6-29.5c-0.5-1-0.9-2-1.3-3.1
		c-0.6-1.8-0.1-2.9,1.6-3.8c1.8-0.9,3.2-0.9,4.2,0.5c1.1,1.4,2,2.9,2.9,4.5c5.2,9.3,10.3,18.7,15.4,28.1c0.1,0.2,0.2,0.4,0.3,0.6
		C543.4,413,543,413.8,536.9,415.8z"/>
	<path id="XMLID_1585_" d="M592.1,526.4c-2.6-4.4-3.2-9.1-4.9-13.5c-1.6-4.2-3-8.4-4.6-12.5c-1.6-4.3-3.9-8.4-5.3-13
		c1-0.7,1.6-1.4,2.4-1.8c2.3-1,3.4-0.7,4.6,1.1c1.1,1.7,2.2,3.4,3,5.2c3.4,8.4,6.8,16.9,10,25.4c0.6,1.6,1,3.6,0.5,5.1
		C597.3,524.7,595.2,525.8,592.1,526.4z"/>
	<path id="XMLID_1582_" d="M439.2,209.9c-2.8-2.5-1-5.8-2.5-8.9c-0.8-0.6-2.1-1.5-3.3-2.4c-4.6-3.5-7.5-8.2-9.4-13.5
		c-2.5-7.3-0.1-13.6,4.9-19c3.8-4,9.9-4.6,14.8-1.8c1.5,0.8,2.4,2.1,2.6,3.7c0.3,2.9,0.9,5.8,0.6,8.6c-1.1,8.6-2.6,17.2-4,25.7
		c-0.3,1.9-1.1,3.9-1.8,5.7C440.8,208.7,440,209.2,439.2,209.9z M440.1,184.1c1.7-3.7,1.3-7.8,1.6-11.7c0.1-1.5-0.8-2.5-2.3-2.8
		c-3.9-0.7-6.5,0.6-7.9,4.3c-1.3,3.4-1.4,7,0.2,10.3c1.3,2.5,3,4.9,4.6,7.2c0.4,0.6,1.4,0.8,2.4,1.3c1.4-3.1,1.2-5.9,1.4-8.7
		L440.1,184.1z"/>
	<path id="XMLID_1581_" d="M290.7,707.9c-0.3-0.4-0.9-0.9-1.1-1.5c-5.1-13.2-10.2-26.5-15.2-39.8c-0.1-0.3,0.2-0.8,0.4-1.7
		c1-0.3,2.2-0.7,3.5-1c1.7-0.4,3.1,0.3,3.9,1.8c0.7,1.1,1.3,2.3,1.8,3.6c4.1,9.9,8.2,19.7,12.1,29.6c2,5,1.5,5.9-3.1,8.5
		C292.3,707.7,291.6,707.7,290.7,707.9z"/>
	<path id="XMLID_1580_" d="M1223.1,152c3.5-0.7,7-1.5,10.5-2c1.3-0.2,2.7-0.2,3.9,0.1c0.7,0.2,1.5,1.1,1.7,1.8
		c0.1,0.7-0.4,1.8-1,2.2c-1.2,0.9-2.7,1.5-4.1,2.1c-1.4,0.6-3,0.9-4.5,1.3c-5.8,1.9-7,3.3-8.8,10.7c1.7,0.3,3.4,0.5,5.1,0.8
		c1.7,0.3,3.6,0.2,4.5,2.5c-1.2,2.5-3.7,3-6.1,3.1c-4.5,0.1-8.9-0.7-12.9-2.7c-6.5-3.1-7.4-11.1-4.4-16.7c0.2-0.4,1.2-0.7,1.7-0.6
		c0.5,0.1,1.2,0.8,1.2,1.3c0.2,1.5,0.3,3.1,0.3,4.6c0,3.6,1.6,5.9,5.6,7c0.1-0.9,0.3-1.7,0.1-2.4c-0.8-3.9,0.7-7,3.5-9.6
		c1.3-1.2,2.6-2.4,3.9-3.6L1223.1,152z"/>
	<path id="XMLID_1579_" d="M1245.3,163.6c2.9,2.1,5.6,2.5,8.6,2.3c1.5-0.1,3.1-0.2,4.6,0c0.7,0.1,1.7,0.9,1.9,1.5
		c0.2,0.7-0.1,1.9-0.7,2.3c-1.2,1-2.5,1.9-4,2.2c-4,0.9-8,0.6-11.7-1.3c-5.7-2.8-6.7-9.4-2.2-13.8c0.3-0.3,0.7-0.5,1.1-0.7
		c1.4-0.8,3.6,0.4,3.4,1.9C1246.2,159.8,1245.7,161.5,1245.3,163.6z"/>
	<path id="XMLID_1578_" d="M1223.2,151.9c-2.2,0.2-4.5,0.6-6.6,0.5c-5.1-0.4-7.7-4.8-6.1-9.6c0.5-1.5,1.4-2.8,2.1-4.2l-0.1,0.1
		c4.5,0.5,4.5,0.5,4.8,6.8c1,0,2,0.2,3,0c2-0.3,3.9-0.9,5.9-1.1c1-0.1,2,0.5,3.2,0.8c-0.7,4-3.9,5.1-6.3,6.9L1223.2,151.9z"/>
	<path id="XMLID_1577_" d="M1282.1,197.3c0.5,1,1,1.8,1.2,2.6c0.3,1.2-0.5,2.3-1.6,2.4c-0.4,0-0.9,0.1-1.3,0c-3.1-1-6.1-0.5-9,0.9
		c-0.6,0.3-1.9-0.1-2.3-0.6c-0.3-0.5,0-1.6,0.2-2.4c0.1-0.4,0.5-0.8,0.8-1c3.4-3.2,7.3-5.7,11.7-7.3c0.9-0.3,2.5-0.1,3,0.5
		c1.1,1.3-0.1,2.4-1.2,3.2c-0.4,0.3-0.7,0.6-1,0.9C1282.6,196.5,1282.5,196.7,1282.1,197.3z"/>
	<path id="XMLID_1574_" d="M723.8,1431.9c-0.7,0-1.3,0-2,0c-9.8-0.7-24.2-10.1-28.7-18.8c-2.6-5.1-2.8-10.3,0-15.3
		c1.1-1.9,2.5-3.7,3.6-5.6c1.1-1.9,2.3-3.8,3-5.9c2.1-6.1,6.6-9.4,12.5-10.9c5.5-1.4,11.1-1.2,16.5,0.7c8.4,3,15.5,7.9,20.7,15.1
		c1.5,2.1,2.8,4.6,3.8,7c2.7,6.5,1.9,12.6-2.1,18.4C744.5,1426.2,735.5,1431.4,723.8,1431.9z M722,1424.9c9.4-0.5,15.7-3.9,20.6-9.9
		c4.8-5.8,5.2-10.8,1.1-17.2c-5.6-8.7-13.7-13.8-24.1-15.1c-3.3-0.4-6.1,0.4-8.7,2.4c-5.4,4.2-9.3,9.6-12.4,15.6c-1.6,3-1.1,6,0.3,9
		C701.4,1415.5,716.3,1425.7,722,1424.9z"/>
	<path id="XMLID_1573_" d="M472.7,156.1c-0.2,1.1-0.1,1.7-0.3,2c-0.5,0.7-1.1,1.4-1.8,1.7c-0.4,0.2-1.4-0.1-1.8-0.5
		c-2.1-2-2.6-4.6-1.9-7.3c0.2-0.7,1.1-1.6,1.8-1.7c0.7-0.1,1.9,0.4,2.2,0.9C471.8,152.9,472.3,154.8,472.7,156.1z"/>
	<path id="XMLID_1572_" d="M440.2,184c-0.8,0.3-1.6,0.6-2.5,0.9c-1.7-3.5-4.3-6.5-1.5-10.3c2.9,2.4,2.9,2.5,4,9.6
		C440.1,184.1,440.2,184,440.2,184z"/>
</g>
<path id="XMLID_1570_" class="st6" d="M565.2,644.6c14.6,69,71.1,57.1,56.5-11.9L565.2,644.6z"/>
<path id="XMLID_1569_" class="st6" d="M432.1,640.9c-17.1,68.5,39,82.4,56,14L432.1,640.9z"/>
<line id="XMLID_1568_" class="st7" x1="429.4" y1="673" x2="486.1" y2="664.6"/>
<line id="XMLID_1567_" class="st7" x1="567" y1="652.5" x2="622.2" y2="666.5"/>
<g id="XMLID_1564_">
	<path id="XMLID_1566_" class="st0" d="M1115.9,248.9c0,0,0.2,0.5,0.5,1.5c0.2,0.5,0.4,1.1,0.7,1.8c0.3,0.7,0.6,1.5,1,2.4
		c0.7,1.8,1.7,4,3,6.4c1.3,2.4,2.9,5,4.9,7.6c2.1,2.6,4.6,5.1,7.6,7.3c3,2.2,6.6,3.9,10.4,5.2c3.9,1.3,8,1.9,12.3,2.3
		c4.3,0.3,8.7,0.2,13.1-0.2c4.4-0.4,8.8-1,13.1-1.8c2.2-0.4,4.3-0.9,6.4-1.3c2.1-0.5,4.2-1,6.2-1.5c2-0.5,4-1.1,6-1.6
		c2-0.5,3.8-1.1,5.7-1.6c1.9-0.5,3.6-1.1,5.4-1.7c1.7-0.5,3.4-1,5-1.6c3.2-1.1,6.2-2,8.7-2.9c2.6-0.9,4.9-1.6,6.7-2.3
		c3.7-1.3,5.9-2,5.9-2s-2,1-5.6,2.8c-1.8,0.9-4,1.9-6.5,3c-2.5,1.2-5.4,2.4-8.5,3.7c-3.1,1.3-6.6,2.7-10.3,4c-1.8,0.6-3.7,1.3-5.7,2
		c-2,0.6-4,1.2-6,1.9c-4.1,1.2-8.4,2.3-12.8,3.2c-2.2,0.4-4.4,0.9-6.7,1.2c-2.3,0.4-4.5,0.6-6.8,0.9c-4.6,0.3-9.2,0.5-13.8,0.1
		c-4.6-0.4-9-1.3-13.2-2.8c-4.2-1.5-7.9-3.6-11.1-6.2c-3.2-2.5-5.7-5.4-7.7-8.3c-1.9-2.9-3.3-5.8-4.4-8.3c-1-2.6-1.8-4.9-2.3-6.8
		c-0.5-1.9-0.9-3.4-1-4.5C1116.1,249.4,1115.9,248.9,1115.9,248.9z"/>
</g>
<g id="XMLID_1561_">
	<path id="XMLID_1563_" class="st0" d="M402.9,919.8c0,0,1.1-0.2,3-0.5c1-0.2,2.1-0.3,3.5-0.5c1.4-0.2,2.9-0.3,4.6-0.4
		c1.7-0.2,3.5-0.2,5.4-0.3c1.9,0,4-0.1,6.1,0c2.1,0.1,4.3,0.2,6.5,0.4c2.2,0.2,4.4,0.4,6.7,0.7c2.2,0.3,4.4,0.7,6.6,1.1
		c2.2,0.5,4.3,0.9,6.3,1.4c2,0.5,4,1,5.9,1.6c1.9,0.5,3.6,1.1,5.2,1.7c1.6,0.5,3,1.1,4.3,1.6c1.3,0.5,2.4,0.9,3.3,1.3
		c1.8,0.8,2.8,1.2,2.8,1.2s-1.1-0.3-2.9-0.9c-0.9-0.3-2.1-0.7-3.4-1.1c-1.3-0.4-2.8-0.9-4.4-1.3c-1.6-0.5-3.3-1-5.2-1.4
		c-1.9-0.5-3.8-0.9-5.9-1.4c-2-0.5-4.2-0.9-6.3-1.3c-2.2-0.4-4.4-0.8-6.6-1c-2.2-0.4-4.4-0.6-6.6-0.8c-2.2-0.2-4.3-0.4-6.4-0.5
		c-2.1-0.1-4.1-0.1-6-0.2c-1.9,0-3.7,0-5.4,0.1c-3.3,0.1-6.1,0.2-8.1,0.4C404,919.7,402.9,919.8,402.9,919.8z"/>
</g>
<g id="XMLID_1558_">
	<path id="XMLID_1560_" class="st0" d="M402.9,929.2c0,0,1.1-0.2,3-0.5c1-0.2,2.1-0.3,3.5-0.5c1.4-0.2,2.9-0.3,4.6-0.4
		c1.7-0.2,3.5-0.2,5.4-0.3c1.9,0,4-0.1,6.1,0c2.1,0.1,4.3,0.2,6.5,0.4c2.2,0.2,4.4,0.4,6.7,0.7c2.2,0.3,4.4,0.7,6.6,1.1
		c2.2,0.5,4.3,0.9,6.3,1.4c2,0.5,4,1,5.9,1.6c1.9,0.5,3.6,1.1,5.2,1.7c1.6,0.5,3,1.1,4.3,1.6c1.3,0.5,2.4,0.9,3.3,1.3
		c1.8,0.8,2.8,1.2,2.8,1.2s-1.1-0.3-2.9-0.9c-0.9-0.3-2.1-0.7-3.4-1.1c-1.3-0.4-2.8-0.9-4.4-1.3c-1.6-0.5-3.3-1-5.2-1.4
		c-1.9-0.5-3.8-0.9-5.9-1.4c-2-0.5-4.2-0.9-6.3-1.3c-2.2-0.4-4.4-0.8-6.6-1c-2.2-0.4-4.4-0.6-6.6-0.8c-2.2-0.2-4.3-0.4-6.4-0.5
		c-2.1-0.1-4.1-0.1-6-0.2c-1.9,0-3.7,0-5.4,0.1c-3.3,0.1-6.1,0.2-8.1,0.4C404,929.2,402.9,929.2,402.9,929.2z"/>
</g>
<g id="XMLID_1555_">
	<path id="XMLID_1557_" class="st0" d="M619.1,936.7c0,0,1.1-0.3,2.9-0.9c0.9-0.3,2.1-0.6,3.4-1c1.3-0.4,2.8-0.8,4.4-1.2
		c1.6-0.4,3.4-0.8,5.3-1.2c1.9-0.4,3.9-0.8,5.9-1.1c2.1-0.3,4.2-0.6,6.4-0.9c2.2-0.3,4.4-0.5,6.6-0.7c2.2-0.1,4.5-0.3,6.7-0.4
		c2.2-0.1,4.4-0.1,6.5-0.1c4.2,0,8.1,0.2,11.4,0.4c1.7,0.1,3.2,0.2,4.5,0.4c1.4,0.1,2.5,0.2,3.5,0.3c1.9,0.2,3,0.4,3,0.4
		s-1.1,0-3.1-0.1c-1.9-0.1-4.7-0.1-8.1-0.2c-1.7,0-3.5,0-5.4,0c-1.9,0-3.9,0.1-6,0.1c-2.1,0.1-4.2,0.1-6.4,0.2
		c-2.2,0.1-4.4,0.3-6.6,0.4c-2.2,0.2-4.4,0.3-6.6,0.6c-2.2,0.2-4.3,0.5-6.4,0.8c-2.1,0.3-4.1,0.6-5.9,0.9c-1.9,0.3-3.7,0.6-5.3,0.9
		c-3.3,0.6-6,1.2-7.9,1.6C620.2,936.4,619.1,936.7,619.1,936.7z"/>
</g>
<g id="XMLID_1552_">
	<path id="XMLID_1554_" class="st0" d="M619.1,945.3c0,0,1.1-0.3,2.9-0.9c0.9-0.3,2.1-0.6,3.4-1c1.3-0.4,2.8-0.8,4.4-1.2
		c1.6-0.4,3.4-0.8,5.3-1.2c1.9-0.4,3.9-0.8,5.9-1.1c2.1-0.3,4.2-0.6,6.4-0.9c2.2-0.3,4.4-0.5,6.6-0.7c2.2-0.1,4.5-0.3,6.7-0.4
		c2.2-0.1,4.4-0.1,6.5-0.1c4.2,0,8.1,0.2,11.4,0.4c1.7,0.1,3.2,0.2,4.5,0.4c1.4,0.1,2.5,0.2,3.5,0.3c1.9,0.2,3,0.4,3,0.4
		s-1.1,0-3.1-0.1c-1.9-0.1-4.7-0.1-8.1-0.2c-1.7,0-3.5,0-5.4,0c-1.9,0-3.9,0.1-6,0.1c-2.1,0.1-4.2,0.1-6.4,0.2
		c-2.2,0.1-4.4,0.3-6.6,0.4c-2.2,0.2-4.4,0.3-6.6,0.6c-2.2,0.2-4.3,0.5-6.4,0.8c-2.1,0.3-4.1,0.6-5.9,0.9c-1.9,0.3-3.7,0.6-5.3,0.9
		c-3.3,0.6-6,1.2-7.9,1.6C620.2,945.1,619.1,945.3,619.1,945.3z"/>
</g>
<path id="XMLID_1551_" class="st0" d="M1431.4,541.1c-53-8.4-81.7,38.8-51.5,83C1405,604.2,1422.3,576.7,1431.4,541.1z"/>
<path id="XMLID_1550_" class="st0" d="M844.6,375.5c0,0-8,20.2-10,34.6c-2,14.4,3.5,36.8,3.5,36.8
	C862.8,424.7,868.5,402,844.6,375.5z"/>
<g id="XMLID_1546_">
	<line id="XMLID_1549_" class="st8" x1="1288.7" y1="168.1" x2="1277.2" y2="103.9"/>
	<path id="XMLID_1548_" class="st0" d="M1288.7,168.1c0,0-1.2-3.9-2.6-9.9c-0.7-3-1.5-6.5-2.3-10.2c-0.4-1.9-0.8-3.8-1.2-5.8
		c-0.4-2-0.7-4-1.1-6c-0.3-2-0.7-4-1-6c-0.4-2-0.6-3.9-0.9-5.8c-0.6-3.8-1.1-7.3-1.4-10.4c-0.7-6.1-1-10.2-1-10.2s1.2,3.9,2.6,9.9
		c0.7,3,1.5,6.5,2.3,10.2c0.4,1.9,0.8,3.8,1.2,5.8c0.4,2,0.7,4,1.1,6c0.3,2,0.7,4,1,6c0.3,2,0.6,3.9,0.9,5.8
		c0.6,3.8,1.1,7.3,1.4,10.4C1288.4,164.1,1288.7,168.1,1288.7,168.1z"/>
</g>
<g id="XMLID_1542_">
	<line id="XMLID_1545_" class="st8" x1="1059.8" y1="239.9" x2="1059.5" y2="265.7"/>
	<path id="XMLID_1544_" class="st0" d="M1060.1,239.9c0,0,0.2,1.6,0.5,4c0.1,1.2,0.3,2.6,0.4,4.1c0.2,1.5,0.3,3.1,0.4,4.7
		c0.1,1.6,0.4,3.2,0.5,4.7c0,1.5-0.3,2.9-0.5,4.1c-0.3,1.2-0.6,2.2-1,2.9c-0.3,0.7-0.6,1.1-0.6,1.1l-0.4,0c0,0-0.2-0.4-0.5-1.1
		c-0.3-0.7-0.6-1.7-0.9-2.9c-0.3-1.2-0.5-2.6-0.5-4.1c0-1.5,0.4-3.1,0.6-4.7c0.2-1.6,0.3-3.2,0.5-4.7c0.2-1.5,0.4-2.9,0.5-4.1
		c0.3-2.4,0.6-4,0.6-4L1060.1,239.9z"/>
</g>
<g id="XMLID_1538_">
	<line id="XMLID_1541_" class="st8" x1="944" y1="302.6" x2="973.6" y2="309.9"/>
	<path id="XMLID_1540_" class="st0" d="M944.1,302.4c0,0,1.9,0.2,4.7,0.6c1.4,0.2,3.1,0.4,4.9,0.7c1.8,0.3,3.7,0.6,5.5,0.9
		c1.9,0.3,3.8,0.4,5.5,0.8c1.7,0.4,3.3,1,4.6,1.7c1.3,0.6,2.4,1.2,3.1,1.7c0.7,0.5,1.1,0.8,1.1,0.8l-0.1,0.4c0,0-0.5,0.1-1.4,0.2
		c-0.9,0.1-2.1,0.1-3.6,0.1c-1.5-0.1-3.1-0.3-4.9-0.7c-1.7-0.5-3.5-1.3-5.3-1.8c-1.8-0.6-3.6-1.2-5.3-1.8c-1.7-0.6-3.3-1.2-4.6-1.6
		c-2.7-1-4.5-1.7-4.5-1.7L944.1,302.4z"/>
</g>
<g id="XMLID_1534_">
	<line id="XMLID_1537_" class="st8" x1="1187.7" y1="309.9" x2="1210" y2="299.8"/>
	<path id="XMLID_1536_" class="st0" d="M1187.6,309.7c0,0,1.3-0.9,3.3-2.1c1-0.6,2.1-1.3,3.4-2.1c1.2-0.8,2.6-1.5,3.9-2.3
		c1.3-0.7,2.6-1.7,3.9-2.3c1.3-0.6,2.6-0.9,3.8-1.2c1.2-0.2,2.2-0.3,2.9-0.3c0.7,0,1.2,0.1,1.2,0.1l0.2,0.4c0,0-0.2,0.4-0.7,0.9
		c-0.5,0.6-1.2,1.2-2.1,2c-0.9,0.7-2.1,1.5-3.4,2.1c-1.3,0.6-2.9,0.9-4.3,1.4c-1.5,0.5-2.9,1-4.3,1.4c-1.4,0.5-2.7,0.8-3.8,1.2
		c-2.2,0.7-3.7,1.1-3.7,1.1L1187.6,309.7z"/>
</g>
<g id="XMLID_1530_">
	<line id="XMLID_1533_" class="st8" x1="1122.3" y1="368.1" x2="1130.3" y2="384.1"/>
	<path id="XMLID_1532_" class="st0" d="M1122.5,368c0,0,0.7,0.9,1.7,2.3c0.5,0.7,1.1,1.5,1.7,2.3c0.6,0.9,1.2,1.8,1.9,2.7
		c0.6,0.9,1.4,1.8,1.9,2.7c0.5,0.9,0.7,1.9,0.8,2.8c0.1,0.9,0.1,1.6,0.1,2.2c0,0.6-0.1,0.9-0.1,0.9l-0.4,0.2c0,0-0.3-0.1-0.8-0.4
		c-0.5-0.3-1.1-0.8-1.7-1.4c-0.6-0.6-1.3-1.4-1.7-2.3c-0.4-0.9-0.6-2.1-1-3.2c-0.4-1.1-0.8-2.1-1.1-3.1c-0.3-1-0.6-2-0.9-2.8
		c-0.5-1.6-0.8-2.7-0.8-2.7L1122.5,368z"/>
</g>
<g id="XMLID_1526_">
	<line id="XMLID_1529_" class="st8" x1="1068.7" y1="265.7" x2="1075.2" y2="254.4"/>
	<path id="XMLID_1528_" class="st0" d="M1068.6,265.6c0,0,0.2-0.8,0.5-2c0.2-0.6,0.4-1.3,0.6-2.1c0.2-0.8,0.5-1.5,0.8-2.3
		c0.3-0.8,0.4-1.7,0.8-2.3c0.4-0.7,0.9-1.2,1.5-1.6c0.6-0.4,1.1-0.7,1.5-0.8c0.4-0.2,0.7-0.2,0.7-0.2l0.4,0.2c0,0,0.1,0.3,0.2,0.8
		c0.1,0.5,0.1,1.1,0.1,1.7c-0.1,0.7-0.2,1.4-0.6,2.1c-0.4,0.6-1.1,1.2-1.6,1.8c-0.5,0.6-1,1.3-1.6,1.9c-0.5,0.6-1,1.1-1.5,1.6
		c-0.9,0.9-1.5,1.5-1.5,1.5L1068.6,265.6z"/>
</g>
<g id="XMLID_1522_">
	<line id="XMLID_1525_" class="st8" x1="948.3" y1="319.7" x2="961.6" y2="315.4"/>
	<path id="XMLID_1524_" class="st0" d="M948.3,319.5c0,0,0.8-0.5,1.9-1.2c0.6-0.3,1.2-0.8,2-1.1c0.7-0.4,1.5-0.8,2.3-1.2
		c0.8-0.4,1.5-1,2.3-1.3c0.8-0.3,1.6-0.3,2.3-0.2c0.7,0.1,1.3,0.2,1.8,0.4c0.5,0.2,0.7,0.3,0.7,0.3l0.1,0.4c0,0-0.1,0.3-0.4,0.7
		c-0.3,0.4-0.7,0.9-1.2,1.4c-0.5,0.5-1.2,0.9-2,1.2c-0.8,0.2-1.7,0.2-2.6,0.3c-0.9,0.1-1.7,0.3-2.6,0.4c-0.8,0.1-1.6,0.2-2.3,0.2
		c-1.3,0.1-2.2,0.2-2.2,0.2L948.3,319.5z"/>
</g>
<g id="XMLID_1518_">
	<line id="XMLID_1521_" class="st8" x1="970.5" y1="260.1" x2="973.6" y2="273.3"/>
	<path id="XMLID_1520_" class="st0" d="M970.7,260c0,0,0.4,0.8,1,1.9c0.3,0.6,0.6,1.3,1,2c0.3,0.7,0.7,1.5,1,2.3
		c0.3,0.8,0.8,1.5,1.1,2.3c0.2,0.8,0.1,1.5,0,2.2c-0.1,0.7-0.3,1.3-0.6,1.7c-0.2,0.4-0.4,0.7-0.4,0.7l-0.4,0.1c0,0-0.3-0.2-0.7-0.4
		c-0.4-0.3-0.8-0.7-1.3-1.3c-0.4-0.6-0.8-1.2-1-2c-0.2-0.8,0-1.7-0.1-2.5c-0.1-0.9-0.1-1.7-0.1-2.5c0-0.8,0-1.6,0-2.2
		c0-1.3,0-2.2,0-2.2L970.7,260z"/>
</g>
<g id="XMLID_1514_">
	<line id="XMLID_1517_" class="st8" x1="1078.7" y1="405.1" x2="1075.2" y2="423"/>
	<path id="XMLID_1516_" class="st0" d="M1078.9,405.1c0,0,0,1.2,0,2.9c0,0.9,0,1.9-0.1,3c0,1.1-0.1,2.2-0.2,3.4
		c-0.1,1.1,0,2.3-0.1,3.4c-0.2,1.1-0.6,2-1,2.8c-0.5,0.8-0.9,1.4-1.3,1.9c-0.4,0.4-0.7,0.7-0.7,0.7l-0.4-0.1c0,0-0.2-0.3-0.4-0.9
		c-0.2-0.6-0.4-1.3-0.5-2.2c-0.1-0.9-0.1-1.9,0.1-3c0.2-1,0.8-2.1,1.1-3.2c0.4-1.1,0.7-2.2,1.1-3.2c0.4-1,0.7-2,1-2.8
		c0.6-1.6,1.1-2.7,1.1-2.7L1078.9,405.1z"/>
</g>
</svg>
