<?xml version="1.0" encoding="utf-8"?>
<!-- Generator: Adobe Illustrator 22.1.0, SVG Export Plug-In . SVG Version: 6.00 Build 0)  -->
<svg version="1.1" id="Layer_6" xmlns="http://www.w3.org/2000/svg" xmlns:xlink="http://www.w3.org/1999/xlink" x="0px" y="0px"
	 viewBox="0 0 1527.1 1502.4" style="enable-background:new 0 0 1527.1 1502.4;" xml:space="preserve">
<style type="text/css">
	.st0{fill:#FFFFFF;}
	.st1{fill:#F9F9F9;}
	.st2{fill:#E84B6C;}
	.st3{fill:none;stroke:#E84B6C;stroke-width:2.3657;stroke-miterlimit:10;stroke-dasharray:3.9429;}
</style>
<polygon id="XMLID_2689_" class="st0" points="959.4,1290.6 968,1329 1071,1366.3 1151.2,1378 1185.4,1380.9 1186.9,1371.8 
	1059.7,1293.6 1046.6,1273.2 "/>
<polyline id="XMLID_2688_" class="st0" points="673.9,1298.5 650.9,1283.8 519.9,1358.6 507,1371.8 521.7,1382.4 655.2,1366.3 
	684.1,1360.1 673.9,1302.3 "/>
<polygon id="XMLID_2687_" points="655.2,1253.3 650.9,1283.8 671.9,1295 "/>
<polygon id="XMLID_2686_" class="st0" points="696.3,695.1 741.7,669.6 782.9,658.7 840.1,647.7 887.6,645.2 854.3,543.4 
	845.8,516.2 856.3,493.5 871,475.9 1024.5,445.2 1092.5,417.3 1180.4,372.6 1239.6,321.1 1273.4,270.3 1273.8,239.7 1236.5,237.9 
	1198.7,228.8 1180.4,259.5 1156.7,292.7 1083.4,333.9 1019.4,355.5 896.2,390.7 794.5,420.7 764.3,406.6 667.8,434.7 612.5,415.3 
	559.6,406.3 522.3,409.8 413.1,454.6 401.4,465.7 418.9,532.5 491.1,504.2 591.4,504.2 638.4,562.6 "/>
<polygon id="XMLID_2685_" class="st0" points="280,643.9 238,593.7 211.8,534.7 206.5,523.8 234.9,508.5 255.6,493.5 284,496.5 
	327.3,577.3 354.6,582.1 379.2,582.1 408.6,566 413.1,551.1 431.9,543.4 452.2,539.1 469.5,536.2 491.9,543.4 539.8,596.9 
	559.6,643.9 545.2,676 511.6,691.5 544.8,782.6 491.9,806.1 438.6,813.3 436.3,799.9 441.5,756.8 446.6,724.6 431.9,701.2 
	441.5,691.5 441.5,683.8 427.9,673.9 423.1,663.6 408.8,664.5 399.9,671.9 293.8,653.4 "/>
<polygon id="XMLID_2684_" points="422.3,530.7 441.5,516.2 452.7,516.2 465.9,536.8 442.4,536.8 418.9,548.7 "/>
<polygon id="XMLID_2683_" class="st0" points="320.7,564.8 301.8,529.8 291.5,489.2 299.1,442.4 320.7,416.5 344.6,407.7 
	367.7,406.3 390.3,427.2 402.4,457.9 418.9,514 418.9,539.4 408.6,566 383.9,582.3 345.2,583.4 "/>
<polygon id="XMLID_2682_" class="st1" points="438.4,422.6 438.4,434.1 427.9,437.5 422.5,450.3 423.1,465.7 438.4,471.3 
	448.5,480.5 449.7,494.9 453.8,518 476.5,538.5 501.5,554 518,572.4 528.2,578.8 544.6,562.6 556.5,543.4 559.6,523.8 553.3,484.4 
	537.7,441.2 553,431 553,415.3 540.4,406.6 528.2,406.6 519.2,393.3 514.6,390.7 504.7,400.9 492.4,410.3 478.7,396.4 474.5,418.4 
	"/>
<polygon id="XMLID_2681_" class="st1" points="633,419.5 663.1,400.9 661.2,357.9 647.1,354.4 633,337.5 650,317.6 648.1,307.7 
	618.3,303.9 612.5,296 612.5,284.7 637.8,278.5 619.8,278.5 605.8,262.2 626.6,254.5 654.2,249.6 634.4,237.9 626.6,228.8 
	626.6,219.3 649.6,212.5 697.7,224.6 734.6,240.1 749.7,271.2 755.2,303.4 776.2,301.8 786.4,316 786.4,330.5 764.3,345.9 
	766.9,371.3 832.6,356.1 881.9,343.8 930.5,335.6 956.2,333.9 978.9,338.9 1018.8,349.5 1044.8,368.1 1053.7,377.8 1030.5,379.4 
	999.2,365.7 983.6,361.5 1000.2,381.1 1010.8,400.9 1019.2,422.9 1006.3,422.6 1000.8,434.1 989.8,431 981.2,437.5 964.3,435.2 
	936.6,394.7 924.6,415.3 924.6,434.1 914.7,435.2 908.7,412.3 911.6,382.6 836.9,406.6 788.5,415.3 776.2,417.3 754.9,429.6 
	733.1,439.3 700.5,445.2 671.7,441.8 "/>
<polygon id="XMLID_2680_" class="st1" points="280,643.9 250.9,609.1 221.4,629.4 196.2,667.4 188,693 191.9,718.9 221,734 280,734 
	348.9,730.6 354,716.1 362.4,705.4 375.7,703.3 375.7,695.1 399.9,686.1 397.8,670.7 283.7,654.8 "/>
<polygon id="XMLID_2679_" class="st1" points="383.1,715.3 379.2,725.1 336.6,746.1 309.3,766.1 291.5,783.8 287.1,793.7 
	300.7,793.7 300.8,799.3 291.5,813.3 281,827.3 287.9,837.7 308.5,827.3 304.6,841.6 295.8,865.1 306.9,865.1 370.5,793.7 
	352.9,835.1 330.7,881.7 334,889.6 414.4,798 415.3,826.5 427.9,835.1 439.3,788.1 441.5,756.8 446.6,724.6 427.9,686.1 407,693.5 
	399.9,703.3 383.1,705.9 "/>
<polygon id="XMLID_2678_" class="st1" points="511.6,691.5 548.4,749 584.8,793.7 618.6,833.2 648.3,839.6 676.9,829.7 692.8,811.7 
	696.3,783.8 686.9,611 700.4,615.2 714,608.9 718,577.3 713.3,548.7 706.7,533.4 693.1,539.4 680.3,532.5 664.7,535.8 680.3,489.2 
	680.3,457.9 666.9,461.4 650.8,496.3 643.5,539.4 629.4,521 603.7,484.7 584.2,477.6 577.2,483.4 586,504.2 624.5,548.7 620,564.5 
	603.7,556.6 580.6,548.7 569.2,555 565.5,562.6 572.5,573.8 618.3,591.7 633,604.3 634,745.5 629.2,752.2 613.2,725.4 571.3,652.9 
	559.6,643.9 551.2,662.7 534.1,681.1 "/>
<polygon id="XMLID_2677_" class="st1" points="287.9,489.2 273.3,441 289.3,385.7 322.7,349.5 393,303.9 426.9,282.7 460,263.4 
	472.9,217.9 470.5,192.5 449.7,174.2 428.9,169.5 414,176.6 405.5,184.7 414,195.3 434,208.6 442.9,215.9 419.9,227.9 441.5,243.8 
	370.5,253.2 378.6,243.8 362.4,232 352.9,219.4 364.9,209.6 385.8,197.6 393.8,190.6 399.9,181.5 383.1,176.6 362.4,172.2 
	341,184.7 319,215.9 295.2,204.2 267.4,187.9 251.8,194.1 261.5,205.8 283.6,219.4 291.5,228.8 278.8,230.4 253,222.4 244.2,228.9 
	255.9,243.8 289.3,247.8 299.1,258.1 282.7,258.1 253,269.9 259.5,277 307.7,280.1 281,295.3 253,326 229.5,349.5 196.2,400.9 
	188,439 194.3,499.9 206.5,523.8 224.8,510.3 259.5,496.3 "/>
<polygon id="XMLID_2676_" class="st1" points="1074.5,183.9 1072.7,176.1 1076.1,154.6 1130.7,133.9 1185.1,109.1 1176.9,70.4 
	1198.7,81.4 1234.7,114.8 1269.9,143.7 1286.8,196.3 1273.8,239.7 1260.5,245.7 1224.3,238.1 1195.3,230.4 1208.6,207 1158.9,231.7 
	1118.4,256.5 1110.2,247.6 1152.7,217.8 1188.5,190.1 1104.3,221.2 1084.6,220.3 1093.1,203 1080.5,203 "/>
<polygon id="XMLID_2675_" class="st2" points="535.9,736.1 598.4,909.2 900.4,1046.9 900.4,1034.2 925.5,996 946.1,971.5 
	683.9,823.1 659.6,835.1 643.8,841.4 608.8,825.8 556.5,763.4 "/>
<path id="XMLID_2674_" d="M703.1,783.8c73-31.4,144.3-53.7,211-50.4l32,83.9l44.6,178.5L853.4,919l-16.5-101.7L817,772.1l-11,9.6
	l-0.8,112.4l-125-63.9l12.6-24.1L703.1,783.8L703.1,783.8z"/>
<path id="XMLID_2673_" d="M946.1,967.9l-37.5,49.9l-2.3,32.7l172.5,81l41.8,15.5l21.4-1l28.4-51.6l27.1-52.5l11.9-34.9
	c2.6-7.8-6.1-14.4-12.9-9.7l-85.3,59.2L946.1,967.9z"/>
<path id="XMLID_2672_" d="M1057,786.1l43.1,25.5l32.7,28.3l37.8,45.5l0,0c8.8,15.2,28.5,19.9,43.2,10.3l76-49.5l38.7-28.1l0,0
	c7.3-6,2.5-17.8-6.9-16.9l-101.4,9.6l-99.8-80.6l-16.6-14.2C1082.3,719.6,1057.3,754.3,1057,786.1z"/>
<path id="XMLID_2671_" class="st2" d="M696.3,788.1l92.6-39.1l41-15.6l54.8-3.9l66.1,6.7l56.3,22.6l52.2,20.4l9.1-32.2l27.1-31
	l-35.5-23l-41.1-21.1l-72.8-24.2l-52.2-2.6c-17.9-3.2-47.5,0.1-88.6,9.6l-69.2,17.1l-33,19.6l-6.8,3.6L696.3,788.1L696.3,788.1z"/>
<polygon id="XMLID_2670_" points="316.8,1317.3 300.8,1393.6 295.7,1420.2 316.8,1433.5 341.8,1435.8 350.4,1421 357.6,1404 
	371.4,1403.8 374.7,1413.9 378.3,1429.6 394.7,1441.1 452.9,1463.2 494.4,1473.4 529,1467 535.1,1467 397.4,1323.7 373.6,1337 
	340.1,1329.9 321.5,1317.3 "/>
<polygon id="XMLID_2669_" points="685.1,1342.4 700,1435.1 727.5,1441.1 745.5,1441.1 740.1,1421 745.5,1405.3 759.5,1406.1 
	775.2,1424.9 783.8,1431.1 937.1,1435.8 774.2,1323.7 761.3,1331.5 743.9,1345.1 720.7,1348.9 "/>
<path id="XMLID_2668_" d="M1195.3,230.4l7.8-16.4l-61.8,34.4l-19.6,9.4l-8.6-3.3l5.3-14.4l27.6-17.6l20.5-12.7l-8.4-6.9l-29.3,11
	l-34.4,10.1l-6-10.1v-7l-7.8-4l-6,6.9l13.9,54.9c9,6.9,17.1,7.3,24.8,5.5l74.3-31.3L1195.3,230.4z"/>
<polygon id="XMLID_2667_" points="1072.7,166.6 1056.4,77.1 1056.4,56.7 1088.3,42.6 1162.4,26.2 1171.8,46.5 1185.1,109.1 
	1148.3,124 1085.8,150.6 "/>
<polygon id="XMLID_2666_" points="692.8,447.6 714.2,447.6 733.1,443.5 729.4,465.7 719.8,474.1 706.2,474.1 700.5,465.7 "/>
<polygon id="XMLID_2665_" points="737.4,443.5 750.5,454.6 769.5,467.7 776.2,465.7 782.7,455.6 776.2,440 766.9,424.9 747.2,437.5 
	"/>
<polygon id="XMLID_2664_" points="472.9,416.5 451.3,419.5 438.4,417.3 442.9,396.6 453.7,381 472.9,371.3 489.4,368.1 506.1,376.7 
	514.6,390.7 494.2,411.7 477.3,398.6 "/>
<polygon id="XMLID_2663_" class="st2" points="486.1,361.5 479.5,336.2 492.1,335.6 503,339.9 497.1,355.1 "/>
<polygon id="XMLID_2662_" points="479.5,336.2 501.5,345.9 567.5,254.2 592.1,222.2 615.2,192.4 626.6,163.1 626.6,141.6 
	614.8,131.5 592.5,128.3 567.9,135.3 544.4,152.2 512.7,192.4 491.2,242.1 481.7,276.5 "/>
<polygon id="XMLID_2661_" points="681.2,948.8 800.6,995.8 790.1,1081.5 768.9,1232.3 759.5,1293.4 751.1,1293.4 716.1,1208.5 
	673.9,1114 "/>
<path id="XMLID_2660_" d="M889.3,1041.8l125.1,56.2l21.3,128.2l10.9,47.1c-2.2,6.3-5.7,9.4-10.9,8.5c-8.9,6.4-17.6,11.1-25.4,10
	c-6.7,4.3-15,4.5-24,3.1c-8,1.1-17.8-0.3-28.3-2.8l-50.6-166.1l-12.3-69.6L889.3,1041.8z"/>
<polygon id="XMLID_2659_" class="st2" points="804.5,96.5 867.8,119.6 822.5,174.4 888.2,161.7 878,198 910.3,188.5 908.7,258.1 
	984.7,177.3 1034,112.1 1056.4,72 "/>
<path id="XMLID_2658_" class="st2" d="M382.8,140.2c-8.5-4.6-12.2-12.1-17.2-20.4c-5-8.3-10.3-18-3.7-25c9-9.6,25.6-6.4,36.6-13.6
	c8.3-5.5,11.8-15.7,15.5-25c3.7-9.2,9.5-19.1,19.1-21.4c6.3-1.5,13.3,0.9,17.4,5.9c4.1,5,5,12.4,2.3,18.3c-1.8,3.8-4.8,6.8-7.5,10.1
	c-10.6,13.1-14.2,30.2-19.7,46.2c-2.9,8.4-6.5,16.9-12.8,23.2c-6.3,6.3-15.8,10.2-24.3,7.6c-1.2-4.1-3.3-7.9-6.3-11"/>
<path id="XMLID_2657_" class="st0" d="M389.3,823.3l24.5-0.6l11.6,10.1l8.4-21.1l32.2,2.8l43.7-16.3l36.8-10.1l86.5,217.8
	l131.2,313.1l4.1,6.3l-24.4,19.9l-42.2,2.3l-17.5-9.8c-31.6-96.9-104.3-266.5-178.3-438.5l-17-18l-19.4,7.6l-23,149.8l-25.9,187.6
	l-23.2,97.6l-32.6,11.4l-21.8-11.4l-30.3-13.6l44.9-252.7l6.8-84.1l18.6-130.5L389.3,823.3z"/>
<circle id="XMLID_2656_" class="st2" cx="470.2" cy="449.9" r="7.5"/>
<circle id="XMLID_2655_" class="st2" cx="511.8" cy="434.7" r="7.5"/>
<path id="XMLID_2654_" class="st2" d="M481.7,443.5c4.7,11.4,14.4,17.1,21.2-1L481.7,443.5z"/>
<path id="XMLID_2653_" class="st2" d="M341,462.1h23.8c0,0-11.3,9.2-16.8,9.2C342.6,471.3,341,462.1,341,462.1z"/>
<path id="XMLID_2652_" d="M629.3,746.1c-6.2-4.4-13-13.5-20.8-30.1l-52-88.2l-31.6-50.5l18.8-11.7l15.7-16.3l0.3-25.5l-3.2-23.9
	L585,509l21.5,20.8l20.5,21.5l-6.4,13.7l-24.1-11.1l-22.9-2.3l-9.4,7.6l4.1,10.6l31.1,12.5l25,20.9l8.6,4.2v96.1l5.2,26.1L633,749
	L629.3,746.1z"/>
<g id="XMLID_2649_">
	<path id="XMLID_2721_" class="st2" d="M815.1,77.1c0,0,0.8-0.2,2.4-0.5c1.6-0.2,3.9-0.6,6.9-0.9c6-0.7,14.5-1.6,24.8-2.6
		c5.1-0.5,10.7-1,16.6-1.4c5.9-0.5,12.1-1,18.5-1.4c6.4-0.4,13-1,19.8-1.4c6.7-0.4,13.6-0.8,20.4-1.3c6.8-0.4,13.7-0.7,20.4-1.1
		c6.7-0.4,13.4-0.6,19.8-0.9c6.4-0.3,12.6-0.5,18.5-0.7c5.9-0.2,11.5-0.4,16.6-0.5c20.6-0.6,34.3-0.5,34.3-0.5s-13.7,1.5-34.2,3.2
		c-5.1,0.4-10.7,0.9-16.6,1.3c-5.9,0.4-12.1,0.9-18.5,1.4c-6.4,0.4-13,0.9-19.8,1.3c-6.7,0.4-13.6,0.8-20.4,1.2
		c-6.8,0.4-13.7,0.7-20.4,1.1c-6.7,0.4-13.4,0.6-19.8,1c-6.4,0.3-12.6,0.6-18.5,0.8c-5.9,0.2-11.5,0.4-16.6,0.6
		c-10.3,0.3-18.9,0.6-24.9,0.8c-3,0.1-5.4,0.2-7,0.3C815.9,76.9,815.1,77.1,815.1,77.1z"/>
</g>
<circle id="XMLID_2648_" class="st2" cx="369.1" cy="63.8" r="16.7"/>
<path id="XMLID_2647_" d="M337.6,589.5l-0.6,14.8c-0.2,6,7.1,9,11.2,4.6l18.4-20c1.7-1.8,4.2-2.5,6.6-1.8l32.9,10
	c5.7,1.7,10.4-4.5,7.4-9.5l-7.4-12.1c-2-3.3-6.4-4.1-9.4-1.8l-9.5,7.3c-1,0.7-2.1,1.2-3.3,1.3l-28.4,2.7c-0.6,0.1-1.2,0-1.7-0.1
	l-8.5-1.5C341.3,582.8,337.8,585.6,337.6,589.5z"/>
<polygon id="XMLID_2646_" points="684.5,857.1 695.6,893 713.8,867.3 "/>
<polygon id="XMLID_2645_" points="562.5,796.6 573.6,832.5 591.8,806.8 "/>
<polygon id="XMLID_2644_" points="727.5,711.4 738.6,747.4 756.8,721.6 "/>
<polygon id="XMLID_2643_" points="928.1,645.1 939.3,681.1 957.5,655.3 "/>
<polygon id="XMLID_2642_" points="981.3,715.1 992.5,751 1010.7,725.3 "/>
<polygon id="XMLID_2641_" points="816.5,652.9 827.6,688.8 845.8,663.1 "/>
<polygon id="XMLID_2640_" points="764.2,959.3 785.1,991.4 793.5,969.5 "/>
<polygon id="XMLID_2639_" points="734.9,867.3 755.8,899.4 764.2,877.5 "/>
<polygon id="XMLID_2638_" points="774.2,713.4 795.1,745.5 803.5,723.6 "/>
<polygon id="XMLID_2637_" points="868.6,638.7 889.4,670.8 897.9,648.9 "/>
<polygon id="XMLID_2636_" points="1046.7,713.4 1067.6,745.5 1076.1,723.6 "/>
<polygon id="XMLID_2635_" points="846.8,943.5 839,980.4 867.5,966.7 "/>
<polygon id="XMLID_2634_" points="862.1,681.1 854.3,717.9 882.8,704.3 "/>
<polygon id="XMLID_2633_" points="761.8,662.7 754.1,699.5 782.5,685.9 "/>
<polygon id="XMLID_2632_" points="1002.2,672.8 1006.1,710.2 1029,688.5 "/>
<polygon id="XMLID_2631_" points="815.3,992.2 827.9,1013.8 844.7,1002.4 "/>
<polygon id="XMLID_2630_" points="881.6,949.3 894.2,970.9 911,959.5 "/>
<polygon id="XMLID_2629_" points="907.5,678 920,699.6 936.8,688.2 "/>
<polygon id="XMLID_2628_" points="708.1,738.3 701.9,762.4 721.8,766.1 "/>
<polygon id="XMLID_2627_" points="949,711.5 942.8,735.6 962.8,739.3 "/>
<polygon id="XMLID_2626_" points="699.3,691.5 693.1,715.7 713.1,719.3 "/>
<polygon id="XMLID_2625_" points="892.8,981.9 904,1017.9 922.2,992.1 "/>
<polygon id="XMLID_2624_" points="851.5,1019.7 885.6,1035.7 878.8,1004.9 "/>
<polygon id="XMLID_2623_" points="620.8,844.5 600.5,876.2 632,873.4 "/>
<polygon id="XMLID_2622_" points="661.8,900.3 639.2,925.5 673,929.3 "/>
<polygon id="XMLID_2621_" points="812,896.2 791.7,927.9 823.1,925.2 "/>
<polygon id="XMLID_2620_" points="731.7,904.8 713.9,937.9 745,932.8 "/>
<circle id="XMLID_2619_" cx="758.2" cy="510.3" r="6.1"/>
<circle id="XMLID_2618_" cx="772.6" cy="556.6" r="6.1"/>
<circle id="XMLID_2617_" cx="788.6" cy="615.2" r="6.1"/>
<polyline id="XMLID_2616_" class="st2" points="836.9,345.9 842.7,401.4 875.7,394.7 875.7,343.8 836.9,345.9 "/>
<path id="XMLID_2615_" d="M321.7,1296.4c-14,0.3-27.4,0.5-40.2,0.8c-13.8,0.3-26.8,0.6-39.1,0.9c-24.5,0.5-45.9,1.2-63.5,1.7
	c-17.6,0.5-31.5,1-40.9,1.3c-9.4,0.4-14.5,0.5-14.5,0.5s5,0.2,14.5,0.6c9.4,0.3,23.3,0.9,40.9,1.5c17.6,0.6,39,1.3,63.5,1.9
	c12.3,0.3,25.3,0.7,39.1,1.1c12.3,0.3,25.1,0.6,38.5,0.9C319.4,1303.9,320,1299.9,321.7,1296.4z"/>
<path id="XMLID_2614_" d="M631.5,1292.9c-14.4,0.1-28.6,0.1-42.8,0.2c-19.4,0.1-38.6,0.3-57.5,0.4c-37.7,0.3-74.2,0.7-108.8,1.2
	c-7.3,0.1-14.6,0.2-21.8,0.3c0.5,2.3,0.6,4.6,0.1,6.8c-0.6,2.9-1.9,5.4-3.6,7.4c8.3,0.2,16.7,0.3,25.3,0.5
	c34.6,0.6,71.1,1.1,108.8,1.5c18.9,0.2,38.1,0.4,57.5,0.6c3.9,0,7.8,0.1,11.7,0.1C606.7,1302.3,619.8,1296.6,631.5,1292.9z"/>
<path id="XMLID_2613_" d="M960.1,1293.7c-4.4,0-8.8-0.1-13.3-0.1c-9.7-0.1-19.5-0.2-29.3-0.3c-9.8-0.1-19.7-0.1-29.6-0.2
	c-39.6-0.3-79.9-0.4-120.2-0.5c-3.2,0-6.4,0-9.6,0c2.1,6.6,2.5,13.2,2.3,19.9c2.4,0,4.9,0,7.3,0c40.3,0,80.5,0,120.2-0.1
	c9.9,0,19.8-0.1,29.6-0.1c9.8-0.1,19.6-0.1,29.3-0.2c5.7,0,11.4-0.1,17-0.1C960.6,1307.1,959.1,1300.7,960.1,1293.7z"/>
<path id="XMLID_2612_" d="M1397.5,1303c-9.4-0.3-23.3-0.9-40.9-1.5c-17.6-0.6-39-1.3-63.5-1.9c-12.3-0.3-25.3-0.7-39.1-1.1
	c-13.8-0.3-28.2-0.6-43.3-1c-15.1-0.3-30.8-0.7-47.1-1c-16.3-0.3-33.1-0.6-50.4-0.9c-14.4-0.2-29.1-0.5-44.1-0.7
	c6.7,4.6,12.7,10.4,18.7,16c8.6-0.1,17-0.2,25.4-0.3c17.3-0.3,34.1-0.5,50.4-0.8c16.3-0.3,32-0.6,47.1-0.9
	c15.1-0.3,29.6-0.6,43.3-0.8c13.8-0.3,26.8-0.6,39.1-0.9c24.5-0.5,45.9-1.2,63.5-1.7c17.6-0.5,31.5-1,40.9-1.4
	c9.4-0.4,14.5-0.6,14.5-0.6S1406.9,1303.4,1397.5,1303z"/>
<g id="XMLID_2500_">
	<path id="XMLID_2551_" d="M1285.4,184.4c-4.8-27.6-18.3-50.2-39.9-67.9c-5.3-4.3-10.1-8.9-14.6-14c-6.3-7.1-13.4-13.2-21.7-17.7
		c-6.8-3.7-13.6-7.2-20.4-10.7c-2.6-1.4-5.3-2.7-7.9-4c-0.5-2.3-1-4.3-1.5-6.3c-0.8-3.3-1.6-6.6-2.5-9.8c-1-3.8-2.2-7.6-3.2-11.4
		c-1.1-4.2-2.2-8.3-3.3-12.5c-0.6-2.5-2-4.4-4.1-5.8c-0.6-0.4-1.2-0.9-1.8-1.3h-6.8c-0.7,0.3-1.3,0.8-2,0.8
		c-4.3,0.2-8.5,1.2-12.7,2.2c-10,2.4-20.1,4.7-30.1,7c-11.1,2.6-22.3,5.1-33.4,7.7c-6.8,1.6-13.3,4.2-19.1,8
		c-6.6,4.2-11.4,9.7-11.9,18c-0.1,1.1,0.1,2.3-1,3c-0.4,0.1-0.7,0.3-1.1,0.3c-0.4,0-0.9,0-1.3,0c0.6,1.7,1.1,3.4,1.5,5.1
		c0.4,0.6,0.4,1.1,0.3,1.5c0.2,1.2,0.3,2.4,0.4,3.6c0.5,2.6,0.4,5.3-0.4,7.9c-0.1,0.9-0.3,1.8-0.5,2.8c0.4-0.8,0.8-1.6,1.2-2.4
		c0.3-0.6,0.8-1.1,1.6-2c0.5,1.3,0.9,2.2,1.1,3c3.2,14.1,6.4,28.2,9.5,42.3c2.2,9.7,3.8,19.5,6.9,29c0.9,2.7,0.9,4.9-0.2,7.6
		c-2.4,6.2-2.2,12.2,2.9,16.9c0.5,2.4,0.8,4.7,1.3,6.9c3.9,17.4,7.7,34.8,10.8,52.3c1.3,7.2,3.2,14.3,6.4,20.9
		c1.2,2.5,2.8,4.9,4.5,7.1c1.8,2.3,4.4,3.7,7.3,3.9c6,0.4,12,0.7,17.8-1.7c1.9-0.8,3.9-1.5,5.7-2.3c21.8-9.7,43.1-20.3,63.7-32.4
		c0.6-0.4,1.2-1,2,0c-6,11.9-12.9,23.2-21.5,33.5c-15.8,18.6-35,32.8-56.2,44.5c-23.5,13-48.2,23.5-73.5,32.5
		c-2.5,0.9-5,1.6-7.4,2.3c-1.5-0.9-2.8-1.6-4.1-2.4c-8.1-4.8-16.6-8.8-25.7-11.3c-7.9-2.3-15.9-4.4-23.9-6.5
		c-5.3-1.4-10.6-2.5-16.1-2.5c-1.3,0-2.6-0.4-3.9-0.6c-4.5-0.7-8.9-0.9-13.4-0.6c-7.7,0.4-15.1,2.6-22.8,3.1c-3,0.2-6,0.5-9,0.9
		c-13.2,2-26.3,4.1-39.5,6.2c-20.8,3.3-41.2,7.9-61.6,13.2c-11.6,3-23.2,6.2-34.8,9.2c-1.5,0.4-3.1,1.3-4.8,0.6
		c-1.5-4.1-2.4-9.4-2.2-13.5c1.4-0.7,2.8-1.5,4.3-2.2c3.7-1.8,7.3-4,10.3-6.8c15.6-14.5,8.8-37.2-8.1-43.1c-4-1.4-8.1-1.6-12.2-1.2
		c-1.6,0.1-3.3,0.4-4.9,0.5c-0.3-0.7-0.7-1.2-0.7-1.7c-0.5-3-0.8-5.9-1.3-8.9c-1.3-8.3-2.7-16.7-5.3-24.7
		c-4.1-12.5-11.7-22.1-22.8-29c-7.9-4.9-16.2-8.6-25.3-10.7c-9-2.1-18-3.6-27.2-4.4c-3.9-0.3-7.8-0.8-11.7-1.4
		c-4.6-0.7-9.2-1.9-13.8-2.6c-5.6-0.8-11.2-0.9-16.9-0.4c-2.8,0.2-5.5,1-8,2.5c-4.1,2.4-5.8,6.6-4.1,11.1c0.9,2.4,2.4,4.7,3.9,6.8
		c2.2,3.1,5.1,5.5,8.4,7.5c3.5,2.2,7.1,4.1,10.7,6.2c0.6,0.4,1.4,0.7,0.9,1.6c-3.7,0.5-7.5,1-11.2,1.6c-6.7,1.1-13.2,3-19.3,5.9
		c-2.6,1.2-5,2.6-6.8,4.8c-2.4,3-2.8,6.7-0.6,9.9c1.3,1.8,2.9,3.5,4.7,4.7c2.3,1.6,4.9,2.7,7.4,4.1c0.6,0.3,1.6,0.2,1.4,1.7
		c-1,0.5-2.2,1-3.2,1.7c-2.7,1.7-5.6,3.2-8,5.2c-7.1,5.9-6.7,12.1,0.9,17.5c3.9,2.7,8.2,4.6,12.9,5.4c5.7,0.9,11.5,2.1,17.3,0.6
		c0.7-0.2,1.5-0.2,2.2-0.2c0.9,0,1.7,0.2,2.8,0.4c0.1,1.6,0.3,2.9,0.3,4.2c0,1.3-0.3,2.6-0.4,3.7c-0.9,0.5-1.5,0.9-2.2,1.2
		c-5.6,2.6-9.1,7.1-11.6,12.5c-1.8,3.9-2.1,7.9-0.6,12c2,5.8,6,9.9,11.1,13c2.9,1.8,6.1,2.9,9.6,2.7c1.3-0.1,2.6-0.4,4.2,0.9
		c0.6,2.9,0.3,6.3,0.7,9.6c0.4,3.2,0.3,6.4,0.6,9.6c0.3,3.4,0.7,6.7,1.1,10.1c0.4,3.3,1.6,6.6,0.8,10.2c-0.8,0.3-1.6,0.7-2.5,1.1
		c-8.7,3.9-17.7,7.2-25.3,13.4c-1.3-0.4-2.6-0.7-3.8-1.1c-11.5-3.5-23.1-6.6-34.9-8.6c-12-2.1-24.1-3.4-36.4-3.7
		c-2.2-0.1-4.5,0.1-6.7,0.3c-3.2,0.3-6.4,0.6-9.5,0.9c-3.1,0.3-6.2,0.8-9.5,1.2c-1.6-3.3-3.1-6.5-4.7-9.6
		c-3.4-6.7-7.3-13.1-12.5-18.7c-4.5-4.9-9.7-8.8-16.1-11.1c-0.8-0.3-1.7-0.7-2.3-1c-0.2-1.4,0.5-2,1.1-2.7c3.5-4,6.4-8.4,9.1-12.8
		c3-4.8,6-9.5,8.8-14.4c3.9-6.6,8.6-12.8,13.4-18.8c4-5,8.2-9.8,11.7-15.1c7.6-11.4,16.1-22.1,24.4-33.1c7-9.3,14.2-18.4,21.7-27.4
		c11-13.3,22.1-26.5,31.2-41.3c0.7-1.1,1.5-2.1,2.2-3.2c4.6-6.9,8.5-14.1,12.1-21.6c3.1-6.4,4.1-13.2,4.2-20.2
		c0.1-8.4-3.2-15.3-9.6-20.7c-3.3-2.8-7-5.1-11.2-6.4c-9.4-3.1-19.1-3.8-28.9-1.9c-6.5,1.2-12.5,3.9-18.2,7.3
		c-21.8,13.1-39.1,30.8-53,52c-5.8,8.8-10.8,18-15.8,27.2c-2.3,4.3-4.4,8.7-6,13.3c-2.2,6.2-4.6,12.3-6.8,18.5
		c-1.9,5.5-3.6,11-5.2,16.6c-2.8,10.2-4.1,20.6-5.5,31c-0.9,7.3-1.2,14.6-0.9,21.9c0.3,7.9,1.1,15.7,2.2,23.5c1,7.2,2,14.5,4,21.6
		c0.6,1.9,1.1,3.8,1.6,5.7c-0.6,0.4-0.9,0.6-1.3,0.7c-1.1,0.3-2.2,0.6-3.3,0.8c-18.9,5.1-32.2,16.4-38.5,35.2
		c-2.9,8.6-4.6,17.4-4.8,26.5c0,1.5-0.2,2.9-0.4,4.6c-1.7,1-3.2,2-4.9,2.8c-4.2,1.9-7.7,4.6-10.2,8.6c-0.8,1.3-1.8,2.4-2.9,3.4
		c-2.1,2.1-4.3,4.2-6.5,6.2c-0.5,0.5-1.1,1.1-2.1,0.5c-2-4.8-4.1-9.8-6.2-14.8c-3.9-9.3-9.6-17.4-16.5-24.7
		c-5.8-6.2-12.8-10.3-21-12.6c-3.9-1.1-7.8-1-11.7-1c-1.2,0-2.6,0.6-3.9-0.9c-0.3-3.5,1.4-6.3,3.9-8.7c2.6-2.5,5.6-2.7,8.9-1.7
		c0.9,0.3,1.7,0.8,2.5,1.2c1.7,0.8,3.3,1.8,5.1,2.3c5.4,1.7,10.3,4.3,14.8,7.9c1.3,1,2.9,1.7,4.4,2.3c1.7,0.7,3.6,1,5.4,1.5
		c2.6,0.7,5.1,0.9,7.8,0.3c2.5-0.6,5.1-1.1,7.7-1.5c4.3-0.6,8.4-1.7,12.5-3.1c8.9-3,15-9,19.4-17c2.2-4,1.9-7.9-0.3-11.8
		c-0.5-0.8-1-1.6-1.6-2.3c-3.3-4.5-6.7-9-10-13.6c-0.9-1.2-1.4-2.6-1.9-4c-0.5-1.4,0-2.6,1.2-3.5c2.3-1.6,4.6-3.2,6.9-4.9
		c1.3-1,2.7-2,3.8-3.3c2.9-3.3,2.6-8.1-0.7-11.1c-1-0.9-2.1-1.7-3.3-2.1c-4.7-1.6-9.6-2.4-14.4-0.8c-3.7,1.3-7.3,3-10.7,4.9
		c-1.9,1.1-3.7,2.6-5.2,4.3c-3.8,4.6-4.5,9.8-2,15.2c0.5,1.2,1.3,2.3,2.1,3.4c2.3,3.2,4.7,6.3,6.9,9.6c2.1,3.1,4,6.3,5.9,9.6
		c1.6,2.7,1,5.4-0.8,7.9c-3,4.1-6.8,6.4-12,5.9c-2.2-0.2-4.5-0.4-6.7-0.6c-4.9-0.5-9.5-1.9-13.6-4.8c-4.3-3-8.7-5.9-13.1-8.7
		c-1.4-0.9-2.9-1.8-4.3-2.6c-7.3-4-16.6-1.9-21.8,3.4c-1.4,1.5-2.8,3.1-3.9,4.8c-4.7,8.1-9.3,16.3-10.8,25.8
		c-0.1,0.9-0.5,1.8-0.7,2.8c-2.4,1.5-4.7,3.1-7.2,4.5c-4.4,2.6-8.3,5.8-11.8,9.5c-8.5,9.1-14.2,19.8-17.7,31.6
		c-2.3,7.6-3.2,15.4-2.8,23.4c0,0.9,0.4,1.9-0.6,2.5c-0.2,0-0.4,0-0.5-0.1c-0.2-0.5-0.4-1-0.6-1.6c-4.7-16.5-5.6-33.2-4.1-50.2
		c1.1-12.4,5.1-23.8,11.3-34.5c4.4-7.5,9.2-14.6,14.9-21.1c11.5-13.3,24.7-24.7,39-34.8c13.2-9.3,27.1-17.6,41.4-25.1
		c6.5-3.4,13-6.7,19.8-9.4c6.8-2.8,13.4-5.9,19.5-9.9c1.9-1.2,3.5-2.7,5.9-3c1-0.1,2-1.1,2.8-1.8c5.9-5.3,11.7-10.5,17.5-15.9
		c1.5-1.4,2.9-3,4.1-4.6c4.6-6.2,8.5-12.8,12.1-19.6c3.7-6.9,6-14.1,6.6-21.9c1-11.1-1.4-21.3-7.5-30.5
		c-6.5-9.9-15.5-16.8-26.6-20.7c-5.9-2.1-12-2.9-18.3-1.9c-7.2,1.2-13.7,3.9-18.9,9.1c-0.5,0.5-1.2,0.9-2.2,0.2
		c-0.1-2.5-0.1-5.1-0.3-7.7c-0.3-3.1,0.6-5.8,1.9-8.6c10.2-20.9,20.4-41.8,30.3-62.9c2.6-5.4,4.5-11.1,6.6-16.7
		c1.5-3.9,2.1-8,2.1-12.1c0-1.7-0.2-3.4-1.8-4.7c-2.4-0.8-5-0.4-7.6-0.2c-8.2,0.5-16.5,1-24.7,1.6c-5.8,0.4-11.6,0.9-17.4,1.5
		c-10.6,1-21.3,2-31.9,3.1c-8,0.8-16.1,1.5-24,3.2c-0.9,0.2-1.7,0.6-2.3,0.8c-1,1.8-0.6,3.3,0,4.7c0.9,1.9,1.9,3.7,3,5.4
		c13,21.9,28.4,41.9,45.6,60.6c4.2,4.6,8.1,9.4,11.8,14.3c0.7,0.9,1.5,1.9,1.5,2.9c0.3,3.9,0.7,7.8-0.3,11.7c-0.8-0.1-1.4,0-1.8-0.2
		c-6.9-2.9-14.2-3.5-21.5-4.2c-6-0.6-12,0.1-17.8,2.1c-17.8,6.5-30.8,18.3-38.6,35.6c-0.4,1-0.9,2-1.5,3.2c-1.4-0.7-2.6-1.3-3.6-1.9
		c-4-2.5-7.9-5.1-11.9-7.6c-7-4.4-14.1-8.6-21.8-11.7c-3.6-1.5-7.4-2.7-11.2-3.6c-2.5-0.6-5.2-0.8-7.8-0.6c-4.1,0.2-6.9,2.9-7.8,6.8
		c-1.1,4.9-0.2,9.4,3.1,13.2c2.1,2.4,4.5,4.6,7,6.5c4.7,3.7,9.7,7.1,14.5,10.7c0.5,0.4,0.9,0.9,2.1,2c-4.6-1-8.2-1.9-11.8-2.6
		c-3.3-0.6-6.6-1.2-10-1.6c-3.5-0.4-6.7,0.6-9.5,2.6c-4.1,3-4.3,8.7-0.9,11.8c1,0.9,2,1.7,3,2.6c4.3,3.4,9.1,6,14.2,7.8
		c7.7,2.8,15.6,5.5,23.3,8.3c0.4,0.1,0.7,0.6,1.2,1.1c-5.5,1-10.6,1.8-15.7,2.9c-6.4,1.3-12.8,2.9-18.9,5.6c-1.7,0.7-3.4,1.5-5,2.6
		c-2.7,1.9-3.1,5.4-0.9,7.9c1.1,1.2,2.6,2.2,4.1,2.9c1.7,0.8,3.5,1.3,5.4,1.6c5.6,0.9,11.1,1.6,16.7,2.3c5.8,0.7,11.6,1.3,17.3,2
		c0.6,0.1,1.6,0,1.6,1.4c-1.1,0.9-2.4,2-3.7,3.1c-9.4,7.7-18.8,15.6-27.6,24.1c-11.9,11.5-23.2,23.6-34,36.1
		c-5.3,6.1-10.1,12.6-14.8,19.1c-5.6,7.8-10.3,16.1-14.1,24.9c-3.2,7.2-5.9,14.7-7.3,22.4c-1.1,6.3-1.9,12.6-2.7,18.9
		c-1.7,13.9-1.1,27.7,0.7,41.5c1.7,13.3,5.4,26.1,9.7,38.7c6.6,19.4,15.5,37.8,25.3,55.8c6.4,11.9,13.6,23.3,21.4,34.4
		c1,1.5,2.3,2.8,2.7,4.5c-0.3,0.5-0.4,0.7-0.6,0.8c-1.4,0.9-2.8,1.9-4.2,2.8C224,625.2,207.7,640.7,195,660
		c-7.2,10.9-11.3,22.8-12.9,35.7c-0.1,0.7-0.1,1.5,0,2.2c1.2,8,4.1,15.2,9.8,21.1c3.1,3.1,6.5,5.7,10.2,7.9
		c5.9,3.4,12.3,5.6,18.9,7.2c11.9,2.8,24,4.1,36.2,4.5c12.8,0.5,25.5-0.7,38.3-1.4c4.5-0.2,9-0.7,13.5-1.2
		c6.7-0.8,13.4-1.8,20.1-2.5c4.2-0.5,8.5-0.9,12.9,0c0.6,2.1,1.3,4.1,0.8,6.4c-1.1,0.6-2.2,1.3-3.3,2c-15.1,8.1-28.9,18.2-41.7,29.6
		c-5.3,4.7-10.3,9.8-14.6,15.6c-1.6,2.1-3,4.3-3.5,7c-0.7,3.3,0.7,6,3.9,7.1c1.2,0.4,2.5,0.6,3.8,0.7c3.7,0.3,7-0.8,10.4-2.2
		c0.8-0.3,1.7-1.6,3-0.3c-1.9,2.3-4,4.5-5.8,6.8c-3.5,4.4-7,8.9-10.1,13.5c-3.1,4.5-4.8,9.7-5.5,15.2c-0.3,2.3,0,4.5,0.9,6.6
		c2,4.9,6.5,6.5,11,3.8c2.1-1.3,3.8-3,5.7-4.5c1.3-1,2.5-2.1,3.8-3.2c0.9,1.5-0.1,2.5-0.5,3.4c-1.8,5.3-3.2,10.8-4,16.4
		c-0.4,2.6-0.5,5.2-0.4,7.8c0.2,2.9,2,4.7,4.9,5.5c2.7,0.7,5.2,0,7.5-1.4c3-1.7,5.5-4,7.6-6.6c2.6-3.2,5.1-6.5,7.7-9.7
		c5.5-6.7,10.9-13.4,16.5-20c6.5-7.5,13.3-14.8,20-22.2c0.5-0.5,1-0.9,1.6-1.4c0.7,1.3-0.2,2-0.6,2.8c-4.9,9.3-9.9,18.6-14.8,27.8
		c-3.9,7.3-7.8,14.6-11.5,21.9c-2.5,4.9-4.4,10-5.7,15.3c-0.6,2.4-1,4.8-1.2,7.2c-0.2,2.7,1.6,4.6,4.2,5.1c2.5,0.4,4.9,0.1,7-1.3
		c1.5-1.1,3.2-2.1,4.5-3.4c4.7-4.6,9.4-9.2,13.9-13.9c6.6-6.9,13.1-14,19.7-20.9c0.5-0.5,1-1.1,2-0.4c-0.1,1.2-0.1,2.5-0.2,3.8
		c-1.2,9.7-2.5,19.3-3.7,29c-1.3,10.4-2.7,20.8-4,31.3c-1.3,10.8-2.6,21.6-3.8,32.4c-1,9.1-2,18.3-3,27.4
		c-0.9,7.8-1.6,15.7-2.6,23.5c-1.3,10.4-2.7,20.8-4,31.3c-1.7,12.8-3.3,25.7-5,38.5c-1.7,12.6-3.4,25.3-5.3,37.9
		c-1.6,11.1-3.3,22.3-5,33.4c-2,12.6-4,25.2-6.1,37.8c-3.2,18.7-6.4,37.3-9.7,56c-3.1,17.7-6.4,35.4-9.6,53.2
		c-2.8,15.7-5.6,31.4-8.2,47.1c-3,17.8-5.7,35.6-8.8,53.3c-1.2,7-1.3,14.2-4.2,20.9c-0.2,0.3-0.2,0.7-0.2,1.1
		c-0.3,5.4-0.6,10.9,0.2,16.3c0.3,1.9,1.2,3.5,2.7,4.8c3.5,3.2,7.5,5.6,12,7.2c4.3,1.5,8.6,2.7,13.1,3.2c7.7,0.9,15.3,0.7,22.8-2.5
		c0.4-1.2,0.7-2.5,1.1-3.7c1.6-4,3.1-8.1,4.9-12c2-4.3,5-8,8.6-11c1.6-1.3,3.2-2.7,5.4-2.7c2,0.8,2.8,2.5,3.6,4.2
		c2.5,5.3,4.5,10.8,4.6,16.7c0.1,4.2,2.1,7,5.6,9c1.3,0.7,2.6,1.5,3.7,2.4c4.8,3.9,10.2,7,15.6,10c9.3,5,19.2,8.5,29.2,11.6
		c19,5.9,38.4,10.1,58.3,12.3c3.5,0.4,7.1,0.3,10.5,1.8h14.6c3.3-0.7,6.6-1.3,9.9-2.1c4.2-1,8.5-1.4,12.2-3.7
		c1.5-3.2,0.8-5.9-1.3-8.4c-0.8-1-1.6-2.1-2.4-3.1c-6.5-7.5-12.8-15.3-19.6-22.5c-27.8-29.6-56.1-58.5-85.3-86.7
		c-7.2-6.9-14.4-13.7-21.6-20.6c-0.8-0.8-1.5-1.6-2.2-2.4c0.2-1.3,0.2-2.5,0.4-3.6c2.7-12.8,5.5-25.7,8.2-38.5
		c5.2-25,10.7-49.9,15.5-75c7.3-38.3,14.2-76.7,20.2-115.3c3.1-19.8,6-39.7,9-59.5c3-19.9,5.3-39.8,7.3-59.8
		c1.7-17.2,4.5-34.2,7.4-51.2c1.4-8.5,2.9-17,4.4-25.5c0.3-1.8,0.9-3.7,1.7-5.3c2.6-5.1,7.9-6.1,12.2-2.3c0.6,0.5,1.1,1.1,1.6,1.6
		c7.1,7.1,12.7,15.3,16.3,24.7c0.7,1.8,1.4,3.5,2.1,5.2c5.4,14.4,11.7,28.5,18.4,42.3c10.1,20.7,19.6,41.8,28.8,63
		c7.7,17.5,15.6,34.9,23.3,52.5c7.6,17.6,14.8,35.3,22.4,52.8c16.7,38.1,32.9,76.5,48.1,115.3c1.7,4.3,2.4,8.4,1.4,13
		c-1.6,7.1-2.6,14.4-3.8,21.7c-2.2,1.5-4.3,3.1-6.6,4.4c-6.4,3.6-12.8,7.1-19.3,10.4c-10.5,5.4-21.2,10.5-31.3,16.6
		c-16.7,10.1-33.4,20.2-49.9,30.6c-10.3,6.5-20.4,13.3-30.6,20c-2.2,1.5-4.1,3.3-5.3,5.7c-2.3,4.5-1.3,8.2,3.2,10.3
		c2.9,1.3,6,2.4,9.1,2.9c7.8,1.3,15.7,1.5,23.6,0.8c3.2-0.3,6.4-0.4,9.5-0.6c8.4-0.5,16.9-1,25.3-1.6c5.6-0.4,11.2-1.1,16.8-1.8
		c7.6-0.9,15.3-1.8,22.9-2.7c7.3-0.9,14.5-2,21.8-2.9c4.8-0.6,9.7-0.8,14.5-1.6c10.5-1.7,21-3.7,31.6-5.6c0.9-0.2,1.8-0.2,2.7-0.4
		c1.7,5.1,1.9,10.2,2.7,15.1c2.2,14.1,4.2,28.2,6.2,42.3c0.4,3,0.8,6,1.1,8.9c0.3,3.3,1.9,5.5,5.1,6.6c3.5,1.2,7,2.6,10.5,4.1
		c8.8,3.7,18,5,27.5,4.7c3-0.1,5.9-0.5,8.5-1.3c1.3-2.1,1-3.8,0.5-5.7c-1.3-4.7-2.5-9.4-3.4-14.2c-1.1-5.9-0.4-11.6,2.3-17
		c1.9-3.8,3.5-4.4,7.1-1.9c7.4,5,13.5,11.4,18.1,19c2.4,3.8,5.3,6,10,5.6c1.1-0.1,2.2,0.2,3.3,0.4c2.6,0.5,5.1,1.1,7.7,1.5
		c15.8,2.6,31.7,3.8,47.6,4.5c14.6,0.6,29.3,0.6,43.9,1c12.8,0.3,25.5,0.8,38.3,1.1c5.4,0.1,10.9,0.1,16.3,0c1.2,0,2.5-0.5,3.7-0.8
		c1-3.7,0.3-6.5-3-8.4c-1.8-1-3.5-2.2-5.3-3.3c-15.3-9.5-30.7-18.9-45.9-28.6c-24.9-15.8-49.2-32.5-73.4-49.3
		c-11.4-7.9-23-15.6-34.5-23.3c-2.5-1.7-5.5-2.9-7.4-5c-2-2.3-2.9-5.6-4.3-8.5c-2-4.4-3.9-8.9-5.5-12.5c1.1-5.5,2.5-10,2.9-14.6
		c0.7-9.2,2.6-18.2,4.1-27.3c2.8-16.3,5.7-32.5,8.2-48.8c2.3-14.5,4-29,6.1-43.5c2.8-19.5,4.7-39.1,6.5-58.7
		c0.5-5,0.9-10.1,1.4-15.1c1-11,2-22,3-33.1c0.7-7.5,1.3-15,1.8-22.4c0.6-8.8,1.1-17.6,1.6-26.4c0.1-1.5-0.2-2.9-0.3-4.4
		c-1.9-1.1-3.5-2.1-5.2-2.9c-0.8-0.4-1.6-1.1-2.8-0.1c-0.5,2.1-0.7,4.5-0.8,7c-0.5,7.1-0.8,14.2-1.3,21.4
		c-0.8,11.8-1.7,23.6-2.6,35.4c-0.4,4.7-0.8,9.3-1.3,14c-1,10.5-2,20.9-3,31.4c-0.9,9.3-1.8,18.7-2.9,28c-1.1,9.7-2.4,19.4-3.7,29
		c-1.7,12.5-3.5,24.9-5.3,37.3c-1.6,10.8-3.3,21.5-5.1,32.2c-1.1,6.6-2,13.3-4.1,19.8c-0.8,2.5-1,5.2-1.5,7.7
		c-1.1,5.6-1,11.2-1.2,16.8c0,0.8,0.3,1.9-1.1,2.6c-0.6-1.1-1.2-2.2-1.7-3.4c-3.6-7.7-7-15.4-10.7-23c-22-46.3-40.9-93.9-60-141.4
		c-0.7-1.8-1.1-3.5-1-5.5c0.4-9.4,0.5-18.8,1-28.1c1.1-22.5,2.3-45,3.5-67.5c0.5-8.8,1.1-17.6,1.7-26.4c0.5-7.9,0.9-15.7,1.2-23.6
		c0.1-2,0.5-4.1-0.5-6.2c-2.1-1.3-4.1-3-7-3.5c-0.2,0.8-0.6,1.5-0.6,2.2c-0.3,3.6-0.6,7.1-0.7,10.7c-0.5,10.9-1,21.8-1.6,32.6
		c-0.4,7.1-0.8,14.2-1.2,21.4c-0.6,10.9-1.4,21.7-1.9,32.6c-0.6,11.2-0.9,22.5-1.4,33.8c0,0.5-0.3,0.9-0.7,1.8
		c-1-1.7-1.4-3.1-1.9-4.4c-18.3-49-36.6-98.1-54.9-147.1c-3.2-8.6-6.6-17.2-9.9-25.7c-0.3-0.9-0.7-1.8,0.4-2.7c0.9,0.3,2,0.6,3,1.1
		c4.4,2,8.9,4,13.2,6.2c13,6.7,26,13.5,39,20.1c5.8,3,11.8,5.9,17.8,8.3c3.8,1.6,7.7,3,11.3,5c6.4,3.6,13.1,6.5,20,9
		c3,1.1,5.8,2.5,8.7,3.9c2.9,1.3,5.7,2.8,8.7,4.1c21.6,9.6,43.3,18.9,64.4,29.6c1.2,0.6,2.4,1.1,3.6,1.6c2.1,0.8,4.3,1.4,6.3,2.4
		c24.8,11.6,49.6,23.3,74.4,34.9c2.2,1,4.2,2.6,6.4,3.4c5.2,1.8,9.9,4.4,14.8,6.8c4.5,2.3,9.1,4.6,13.6,6.8
		c-2.9-3.5-6.2-7.8-5.8-12.3c-0.4-0.2,1-0.5,0.6-0.8c-1-5.3-0.7-10,0.7-14.8c2.1-7.1,4.9-13.8,8.7-20.1c3.9-6.4,8-12.7,12.2-18.9
		c2.9-4.4,6.2-8.5,9.3-12.7c0.8-1,1.7-2,2.7-3.1c0.3,0.1,0.5,0.2,0.7,0.3c0.3-0.7,0.7-1.4,1.2-2c1.5-1.8,3.2-3.4,4.7-5.2
		c-5.6-3-11.1-5.9-16.7-8.9c-26.1-14-52.3-27.9-78-42.8c-3.6-2.1-7.1-4.2-10.7-6.2c-20-10.8-39.9-21.6-59.9-32.3
		c-23.2-12.3-46.7-24.2-69.3-37.5c-4.5-2.7-9.2-5-13.9-7.5c-1.1-0.6-2.4-0.9-3.6-1.4c-0.8,0.5-1.5,0.8-2.1,1.2
		c-0.6,0.4-1.2,0.9-1.7,1.5c-1.4,1.5-1.2,3,0.6,4.2c1,0.6,2,1.1,3,1.6c2.3,1.2,4.7,2.4,7,3.7c10.4,5.6,20.8,11.2,31.2,16.9
		c8.1,4.4,16.1,8.9,24.1,13.4c3.1,1.7,6.1,3.6,9.3,5.3c7,3.7,14.1,7.1,21,10.8c13.7,7.4,27.4,14.9,41,22.4
		c26.2,14.6,52.4,29.4,78.6,44c8,4.5,16.2,8.7,24.3,13.1c1.1,0.6,2.5,0.9,3,2.7c-0.9,1.2-1.8,2.6-2.8,3.9
		c-4.4,5.9-8.9,11.6-13.1,17.6c-3.7,5.4-7.4,10.9-10.5,16.6c-4.9,8.9-8.6,18.4-9,28.8c0,0.3-0.4,0.5-0.9,1c-1.3-0.5-2.6-1.1-3.9-1.7
		c-11.3-5.4-22.6-11-34-16.3c-27.1-12.5-54.2-25-81.3-37.4c-18.4-8.4-36.8-16.9-55.3-25.1c-6.3-2.8-12.9-5.1-19.3-7.8
		c-18.7-7.9-36.9-16.7-54.9-26.1c-14.3-7.5-28.8-14.6-43.8-20.5c-1.4-0.5-2.7-1.2-3.9-1.8c-0.6-1.2-1.1-2.2-1.5-3.3
		c-3-7.3-5.9-14.6-8.9-21.9c-9.6-23.7-18.9-47.4-28.8-70.9c-8.3-19.7-15.8-39.8-23-59.9c-0.2-0.6-1.2-1.5,0-2.3
		c0.4,0.4,0.9,0.8,1.2,1.2c10.8,13.5,21.5,27,32.3,40.5c6.5,8.2,13,16.5,19.6,24.7c4.9,6,10.3,11.4,16.1,16.5
		c7.8,6.8,16.7,11.4,26.8,13.6c7.5,1.6,14.9,1.6,22.3,0.1c7.4-1.6,14.2-4.6,20.5-8.8c7-4.8,12.5-10.8,15.7-18.6
		c2.4-5.8,4-11.7,4.3-18c0.1-2.7,1.2-4.5,3.6-5.9c6.5-3.9,13.1-7.3,20.1-10.1c20.3-7.9,40.5-15.9,60.8-23.7
		c18.2-7,36.8-12.9,56.1-16.3c11.7-2.1,23.4-3.4,35.2-3.8c10.7-0.4,21.4,0.6,32.1,1.2c1.9,0.1,3.7,0.3,5.4,1.4
		c7.9,13.7,7.8,13.8,12.6,27.6c13.1,37.2,23,75.3,30.7,114c5,25,10.5,49.9,15.7,74.9c1,4.6,2.4,9.1,4.3,13.4c0.4,1,1.1,2,1.8,2.8
		c0.9,1.1,2.2,1.4,3.6,1.1c1.5-0.3,2.2-1.5,2.3-2.9c0.2-1.5,0.2-3,0.1-4.5c-0.2-1.7-0.7-3.3-1-5c-3.6-16.5-7.3-33-10.8-49.5
		c-4.5-21.1-8.9-42.2-13.5-63.3c-4.6-20.5-10.3-40.7-17-60.7c-2.2-6.6-4.9-13-6.9-19.6c-2.7-8.6-5.8-17.1-9.8-25.1
		c-0.3-0.6-0.4-1.4-0.6-2.3c1,0,1.7-0.2,2.4-0.1c2.4,0.3,4.8,0.7,7.2,1.1c22.6,3.9,44.7,9.8,66.1,18c19.9,7.6,39,16.7,56.9,28.2
		c0.4-1.1,0.9-2.2,1.6-3.1c0.1-0.1,0.1-0.2,0.2-0.3c0.7-1.3,1.3-2.7,1.8-4.2c-0.2-0.1-0.4-0.2-0.5-0.4c0.1-1,0.1-1.8,0.3-2.5
		c0.6-2,1.3-3.9,1.8-5.9c3.8-15.8,12.9-28.6,23.6-40.4c2.7-2.9,5.7-5.4,9.2-7.4c0.4-0.4,0.8-0.7,1.2-1c0.8-0.5,1.6-0.9,2.5-1.2
		c0.8-1,1.7-1.9,3-2.4c0.6-0.5,1.1-1.1,1.7-1.6c-3.3-2.2-6.7-4.4-10-6.5c-9.9-6.1-19.8-12.2-30-17.7c-20.3-11.1-41.1-20.9-62.7-29.1
		c-21.1-8-42.6-14.6-64.9-18.3c-10.7-1.8-21.5-3.3-32.4-4.1c-3.2-0.2-6.5-0.3-9.5-1.3c-2.8-0.9-5.5-1-8.3-0.8
		c-5.8,0.3-11.6,0.9-17.4,1.1c-14.5,0.5-28.8,2.5-42.8,6.2c-13.6,3.6-27.2,7.3-40.9,10.3c-10.3,2.2-20.2,5.5-30.1,9.2
		c-4.2,1.6-8.4,3.2-12.6,4.9c-14.6,6-29.3,11.6-43,19.6c-0.6,0.3-1.4,0.4-2.3,0.7c-0.5-13-0.9-25.7-1.7-38.5
		c-0.6-10.7-2.3-21.3-4.2-31.8c0-0.2,0.1-0.4,0.2-0.5c0.1-0.1,0.3-0.1,0.7-0.3c0.6,0.5,1.2,1.2,1.9,1.8c5.4,4.3,10.8,3.9,15.4-1.2
		c0.7-0.8,1.5-1.7,2-2.7c1.2-2.5,2.6-5,3.3-7.7c3.5-13.4,7-26.9,7.3-40.9c0.1-7-0.4-13.9-2.6-20.5c-1.3-3.8-3-7.3-5.7-10.3
		c-2.3-2.7-5.3-4.1-8.9-4.2c-2.9-0.1-5.6,0.5-8.1,1.8c-1.1,0.6-2.3,1.2-3.5,1.9c-1.3-1.4-2.3-2.7-3.5-3.9c-3-3.3-6.7-4.7-11.1-3.8
		c-0.9,0.2-1.7,0.8-3-0.1c0-0.5-0.1-1.2,0-1.9c0.5-2,1.1-4,1.6-6c4-14.1,6.9-28.4,8.1-43.1c0.3-3.7,0.4-7.5,0-11.2
		c-0.2-2.8-1-5.6-2.1-8.1c-2-4.5-6.9-6.1-11.4-3.9c-1,0.5-2,1.1-2.8,1.9c-3.7,3.2-7.1,6.7-9.5,11c-3,5.3-5.4,10.7-6.9,16.6
		c-2.1,8.4-4,16.8-5.9,25.2c-1.5,6.8-3.2,13.5-3.6,20.5c0,0.3-0.4,0.5-0.8,1c-0.5-0.5-1.1-0.9-1.5-1.4c-1.6-2.3-3.1-4.7-4.7-7
		c-4.4-6.5-8.8-13.1-13.3-19.6c-5.2-7.4-11.7-13.7-18.5-19.6c-4.8-4.2-10.3-7.5-16.6-9.2c-1.8-0.5-3.7-0.7-5.5-0.6
		c-2.6,0.2-4.6,1.7-5.3,4.4c-1,3.6-1.8,7.3,0.4,10.9c0.7,1.1,1.1,2.4,1.5,3.6c0.9,3,1.7,6.1,2.5,9.2c0,0.1-0.1,0.3-0.3,0.5
		c-1.2,0.8-2.5,0.3-3.7-0.2c-5.3-2.1-10.9-2.9-16.5-3.4c-1.1-0.1-2.2-0.3-3.4-0.4c-0.5-1.2-1-2.2-1.2-3.2c-0.6-2.6-0.9-5.2-1.5-7.7
		c-1.4-5.6-3-11.2-4.6-16.8c-0.8-2.7-1.2-5.6-2.5-8c-3-5.5-2.3-11.6-3.3-17.4c5.3-2.9,9.2-6.9,12.2-11.8c1.6-2.6,2.7-5.3,2.9-8.4
		c0.4-4.9-0.6-9.3-3.7-13.2c-0.6-0.8-1.8-1.5-0.9-3c1,0,2.1-0.1,3.3,0c10.5,0.6,21,1.5,31.3,3.3c15.7,2.8,31.2,6.6,46.1,12.4
		c9.4,3.7,18.6,8,27.9,12c1.2,0.5,2.4,1.2,3.4,1.9c5.5,4.1,11.9,6.4,18.3,8.4c1.4,0.4,2.8,0.9,4.2,1.4c0.5,2.6,0.8,5,1.3,7.4
		c0.6,2.8,1.4,5.5,3.1,7.8c3.1,4.3,6.6,8.2,11,11.2c3,2.1,6.2,3.6,9.7,4.5c3.9,1,7.5,0.4,10.5-2.4c1.4-1.3,2.7-2.6,3.9-4.1
		c3.6-4.5,5.6-9.7,6.3-15.4c0.2-2,0.2-4.1,1.5-6.2c0.9,0.7,1.8,1.4,2.6,2.1c5,4,9.8,8.1,14.9,12c2.5,1.9,5.4,3.4,8.2,4.9
		c2.5,1.4,5.3,2,8.1,2.4c3.2,0.5,5.9-0.5,8.3-2.6c1.8-1.7,3.1-3.7,3.8-6.1c1-3.3,1.2-6.7,0.8-10c-0.9-8.1-3.1-15.8-7.5-22.8
		c-0.9-1.4-1.7-2.8-2.6-4.4c2.2-2.5,4.9-3.7,7.3-5.4c1,0.2,1.9,0.5,2.8,0.7c4.6,0.9,9.2,1.9,14,1.1c6.7-1,13.3-2.2,19.8-4.4
		c15.6-5.4,31.5-10,47.3-14.5c13.7-3.9,27.6-7.3,40.7-13c0.4-0.2,1,0.1,1.8,0.2c-0.3,1.1-0.5,2-0.7,2.8c-0.6,3.5-1.5,7-1.9,10.5
		c-1.2,11.5,2.5,21.5,10.2,29.9c1.4,1.5,3.1,2.8,4.8,3.8c5.7,3,10.1,0.6,10.7-5.8c0.3-3.9,0.7-7.9,1-11.8c0.5-6,2-11.8,4.2-17.4
		c0.3-0.6,0.4-1.5,1.8-1.3c1,1.3,2.2,2.7,3.3,4.2c4.4,5.6,8.6,11.4,13.1,16.9c3.3,4,7,7.8,10.7,11.6c3.6,3.7,8.1,6,13.1,7.4
		c4.7,1.4,8.9-0.2,11.9-4.2c0.7-0.9,1.2-1.8,1.9-2.8c1.9,0.9,3.5,1.7,5.2,2.4c5,1.8,9,0.2,11.2-4.5c0.6-1.3,1.1-2.7,1.7-4.1
		c0.8,0.1,1.4,0.1,1.9,0.2c5.1,1.4,6.9,0.5,8.5-4.3c0.2-0.5,0.4-1.1,0.5-1.6c0.9-5.2,1.4-10.4,0.7-15.7c-1.2-8.7-4.3-16.7-9.2-24
		c-2.5-3.7-5.4-7.2-8.1-10.8c-0.6-0.8-1.7-1.4-1.5-2.8c1.2-0.4,2.1,0.5,3.1,0.9c6.2,2.7,12.3,5.5,18.6,8.1
		c5.4,2.2,10.8,4.2,16.6,5.4c2,0.4,4.1,0.6,6.1,0.7c1.9,0.1,3.7-0.7,5.3-1.7c2.8-1.8,3.8-4.8,2.4-7.9c-0.8-1.7-1.8-3.3-3-4.7
		c-2.6-2.9-5.5-5.6-8.3-8.4c-0.9-0.9-1.9-1.8-2.7-2.6c0.8-1.9,2.6-1.8,3.9-2.3c19.2-6.5,37.9-14.3,56.1-23.3
		c15-7.4,29.5-15.6,43-25.5c13.9-10.2,26.2-21.9,36.5-35.7c3-4,5.8-8.3,8.4-12.6c4.9-8,8.9-16.5,12.9-25c0.5-1.1,0.7-2.6,2.2-3.1
		c0.2,0,0.4,0,0.6,0.1c1.5,0.8,2.9,1.7,4.4,2.4c14.5,7.7,29.9,11.9,46.4,11.7c5.1-0.1,10.1-0.9,15.1-1.9c1.3-0.2,2.6-0.7,3.7,0.3
		c0,0.4,0.2,0.8,0.1,1.1c-0.5,1.8-0.9,3.6-1.5,5.4c-6.7,20.1-15.9,38.9-28.2,56.2c-4,5.6-8.4,11.1-13.1,16.2
		c-15.9,17.4-33.9,32.4-53.8,45.2c-27.2,17.5-55.6,32.6-85.3,45.6c-18.2,8-36.7,15.3-55.5,21.7c-17.7,6.1-35.7,11.6-53.9,16
		c-8.8,2.1-17.4,4.7-26.2,6.5c-21.6,4.6-43.4,8.7-65.3,11.9c-4.8,0.7-9.6,1.9-14.1,3.6c-4.4,1.7-8.6,3.6-13,5.4
		c-8.1,3.3-13.6,9.1-16.6,17.3c-1.7,4.6-2.9,9.4-2.9,14.3c0,7.1,0.2,14.3,2.9,21c0.8,2.1,1.4,4.3,2.1,6.4
		c9.8,29.7,19.7,59.5,29.5,89.2c0.5,1.6,0.7,3.3,2.6,4.8c2.2,0,4.7-0.4,7.2-1.8c-0.1-2.2-0.9-4.1-1.5-6.1
		c-4.1-12.3-8.2-24.6-12.3-36.8c-6.6-19.7-13.2-39.5-19.9-59.2c-1.6-4.7-2.6-9.4-2.3-14.3c0.8-11.8,0.6-12.9,7.7-22.9
		c1.5-2.1,3.2-3.6,5.5-4.5c4.3-1.8,8.8-3.3,13.4-4c13.3-2.2,26.4-5.4,39.8-7.6c8.1-1.4,16.2-3.2,24.3-4.6c19.6-3.5,38.9-8.5,58-13.9
		c19.5-5.5,38.8-11.7,57.7-19c17-6.5,33.8-13.5,50.3-21.1c18.6-8.5,36.6-18.3,54.3-28.6c21.5-12.5,41.6-26.9,59.8-43.9
		c9.6-9,18.8-18.4,26.4-29.2c15.8-22.1,27.3-46.2,33.8-72.5C1287.1,223.3,1288.8,204,1285.4,184.4z M696.3,699.3
		c1.1-2,2.7-2.6,4.2-3.3c6.3-3,12.5-6,18.9-8.8c15-6.4,30.2-12.4,45.6-17.8c15.8-5.5,31.9-9.8,48.2-13.2c13.8-2.9,27.5-5.9,41.3-8.6
		c4-0.8,8.2-1.2,12.3-1.4c6.9-0.5,13.9-0.8,20.8-1.1c2.2-0.1,4.5-0.1,6.7,0.1c9,0.9,17.9,1.8,26.8,3c6.7,0.9,13.4,1.9,20,3.2
		c18.1,3.4,35.5,9.2,52.7,15.7c19,7.2,37.4,15.6,55.4,25c13.5,7,26.7,14.5,39.4,22.8c0.8,0.5,1.5,1.1,2.7,2c-0.9,0.9-1.4,1.4-2,1.9
		c-0.7,0.6-1.5,1.1-2.3,1.7c-13.4,10.4-27.2,32.3-30.4,48.2c-0.4,2-0.7,4-1.1,5.8c-1.5,0.3-2.4-0.5-3.3-1
		c-31.4-18.2-65.1-30.6-100.5-38.4c-13-2.9-26.1-5.1-39.4-6.2c-7.1-0.6-14.2-1.2-21.3-1.6c-13.3-0.7-26.7-0.1-39.9,1.9
		c-14.1,2.1-28,5.4-41.6,9.6c-21.3,6.6-42,15-62.7,23.4c-7,2.8-13.9,5.7-20.8,8.5c-7.6,3.1-15.1,6.7-22,11.3c-0.9,0.6-1.9,1-3.2,1.7
		c-1-2.7-0.4-5.1-0.7-7.4c-0.3-2.2-0.5-4.5-0.8-6.7c-0.3-2.4-0.7-4.8-0.9-7.3c-0.2-2.2-0.1-4.5-0.3-6.7c-0.2-2.4-0.7-4.8-0.9-7.3
		c-0.2-2.4,0-4.9,0-7.3c0-2.2-0.1-4.5-0.2-6.7c-0.1-2.4-0.2-4.9-0.2-7.3c-0.1-2.2-0.1-4.5-0.2-6.8c-0.1-2.4-0.3-4.9-0.4-7.3
		c-0.1-2.2,0-4.5,0-6.8C696.3,703.8,696.3,701.4,696.3,699.3z M693.1,599.3c0.2-1.3,0.7-2.5,1.2-3.7c1.7-4.6,2.9-9.3,3.5-14.2
		c1-8.2,2.2-16.4,0.6-24.6c-0.6-2.9-1.2-5.9-1.9-8.8c-0.3-1.4-0.8-2.9-1.2-4.4c1.8-2.5,3.8-3.4,6-4c2.5-0.7,4.6,0.1,6,2
		c1.3,1.8,2.4,3.8,3.1,5.9c2.2,6.3,2.8,12.8,2.7,19.4c-0.3,13-3.4,25.6-6.6,38.2c-0.5,2-1.3,3.9-2.1,5.8c-0.8,1.7-1.8,3.3-4.1,4.2
		c-0.7-0.5-1.7-1.1-2.3-1.9c-2.5-3.1-3.7-6.9-5-10.6C692.8,601.7,692.9,600.4,693.1,599.3z M488.2,361.5c-2.2-5.6-2.5-11.1-3.5-16.3
		c-0.5-2.5-0.8-5.1-0.3-7.7c4.7,0.2,12.1,2,15.7,3.8C497.9,347.5,492.7,356.5,488.2,361.5z M504,335.6c-4.9-0.1-16.4-2.7-20.6-4.7
		c-0.8-3.3-1.5-6.4-1-9.7c2-0.5,3.3,0.6,4.8,1.3c1.5,0.7,3.1,1.4,4.6,2.1c1.7,0.8,3.4,1.5,5.1,2.3c1.5,0.7,3.1,1.3,4.7,1.9
		c1.5,0.6,3,1.3,4.5,1.9C506.4,333.1,504.8,334.2,504,335.6z M482.8,289.1c1.2-8.9,2.4-17.9,4.8-26.6c1.6-5.8,3.4-11.5,5.3-17.2
		c1.2-3.6,2.7-7,3.8-10.6c4.6-14.4,12.2-27.4,19.8-40.3c6.1-10.4,13.4-19.9,21.5-28.8c10.3-11.3,22.1-20.8,35.4-28.4
		c5.8-3.3,12.1-5.2,18.7-5.6c6-0.4,12,0.5,17.8,2.3c4.5,1.5,8.4,4.1,11.5,7.8c2,2.4,3.2,5.1,3.4,8.2c0.4,6.6-0.1,13.1-3,19.3
		c-3.3,7-6.9,13.7-11.2,20.2c-0.9,1.4-2,2.7-2.9,4.2c-7.9,13.3-17.6,25.3-27.4,37.1c-12.9,15.4-24.7,31.7-36.7,47.7
		c-2.8,3.7-5.4,7.7-8.1,11.5c-3.4,4.9-6.9,9.8-10.4,14.7c-4,5.7-8.1,11.3-12.1,17c-1,1.4-2,2.7-3.2,4.4c-9.7-2.8-18.1-7.4-27-10.6
		c-1.3-1.3-1.2-2.9-1.2-4.4C481.6,303.7,481.8,296.4,482.8,289.1z M442.9,413.4c1-5.5,2.3-11,4.7-16.1c7.1-15.1,19.4-23.3,35.7-25.7
		c4.6-0.7,9,0.3,13,2.5c6.6,3.5,11.5,8.9,15.4,15.3c-4.9,7.7-11.8,12.6-19.8,16.5c-2.8-1.3-4.9-3.4-7.4-5.1c-2-1.4-3.9-2.9-5.9-4.2
		c-0.6-0.4-1.4-0.5-2.1-0.7c-0.3-0.1-0.7,0.1-1.3,0.3c-2.6,4.9-0.3,10.6-1.9,16c-1.4,1-3.2,1.4-5.1,1.5c-4.5,0.4-8.9,0.8-13.4,1.1
		c-3.2,0.2-6.4,0.4-9.5,0.5c-0.7,0-1.4,0-2.2,0C443.1,414.4,442.8,413.9,442.9,413.4z M413.1,454.6c1.4,0.2,1.1,1.1,1.2,1.7
		c1.5,9.8,5.4,14.1,15,16.4c2.7,0.6,5.5,1,8.5,1.5c1.9,6,3.8,12,5.8,18.1c1.9,5.8,4,11.7,6.1,17.7c-0.6,0.4-1,0.8-1.5,1
		c-7.7,3.1-14.9,7-22.1,11c-1.4,0.8-2.7,2.1-4.7,1.5c-2.3-21.8-6.3-43.2-12.8-64.1C409.9,457.4,411.5,455.8,413.1,454.6z
		 M452.7,516.2c2.9,5,5.5,9.5,8,13.8c-0.5,1.5-1.5,1.5-2.4,1.6c-1.7,0.2-3.4,0.4-5,0.3c-5.4-0.4-10.4,1-15.1,3.5
		c-3.3,1.8-6.5,3.7-9.8,5.5c-1.5,0.8-2.9,1.6-4.7,2.5c-0.4-0.8-1-1.4-1-2c-0.4-3.5-0.5-7.1-0.4-10.7c5.1-2.5,10.2-4.9,15.1-7.4
		C442.3,520.9,447.1,518.4,452.7,516.2z M338.5,395.5c2.3-4.7,4.6-9.4,7.2-14c1.9-3.3,4.3-6,8.3-7.2c2.5-0.7,4.8-0.6,7.1,0.4
		c1.5,0.7,3,1.6,4.4,2.5c4.2,2.8,8.5,5.5,12.6,8.5c4.5,3.2,9.5,5.1,14.9,6.1c4.7,0.9,9.3,1.1,14,0.8c8.4-0.4,16.5-7.8,18.1-16
		c0.5-2.9-0.1-5.6-1.1-8.2c-1.7-4.2-4.2-8-6.8-11.6c-2.3-3.2-4.5-6.4-6.9-9.6c-2.7-3.6-2.6-6.9,1.1-11c5.5-6.2,12.2-6.7,19.5-5.1
		c0.7,0.1,1.2,0.8,1.6,1.1c0.4,1.3-0.1,2.1-0.9,2.7c-2.4,1.8-4.8,3.5-7.3,5.3c-1.1,0.8-2.2,1.5-3.1,2.4c-2.3,2.3-3.2,5-2.3,8.2
		c0.6,2.4,1.5,4.6,3,6.6c3.4,4.7,6.8,9.4,10.2,14.1c0.8,1.2,1.4,2.6,2.2,3.9c-1.1,4.3-3.5,7.5-6.5,10.5c-3.8,3.8-8.5,6.1-13.7,7.3
		c-5.1,1.3-10.2,2.3-15.4,3.2c-3.6,0.6-9.7-1.1-12.7-3.4c-4.8-3.6-10-6.6-15.8-8.3c-1.1-0.3-2.2-0.7-3.1-1.3
		c-3.2-2.2-6.9-2.6-10.7-2.9c-1.9-0.1-3.7,0.2-5.4,1.2c-5.5,2.9-8.7,7.6-9.9,13.6c-0.3,1.3-0.3,2.6-0.7,3.9
		c-0.4,1.3-1.3,2.2-3.6,1.3C337.3,398.6,337.7,397,338.5,395.5z M297.3,458.8c2.9-13.5,8.9-25.4,18.6-35.3c2.5-2.6,5.3-4.8,8.4-6.5
		c4.1-2.3,8.1-4.8,12.3-6.8c2.5-1.2,5.3-1.7,8-2.4c12.5-3.2,23,0.8,31.8,9.5c5.9,5.8,10.6,12.6,14.2,20.1c3.4,7.1,6,14.5,8.7,21.9
		c6,16.9,9.2,34.4,12.2,51.9c1,5.9,1.9,11.9,2.3,17.8c0.8,11.1-0.9,21.7-7.7,30.9c-2.1,2.9-4.4,5.6-6.8,8.2
		c-7.2,7.7-16.4,11.6-26.7,13.3c-10.9,1.8-21.3-0.1-31.1-5.1c-2.2-1.1-4.3-2.3-6.4-3.5c-7.7-4.8-8.6-5.6-12.9-13.6
		c-8.8-16.6-17.1-33.4-24.2-50.8c-1.2-2.8-1.9-5.6-2-8.7c-0.2-4.9-0.6-9.7-1-15.1C296.3,476.4,295.4,467.5,297.3,458.8z
		 M405.7,196.6c3.4,1.4,6.4,2.8,9.5,4c3.2,1.1,6.4,1.9,9.6,3c5.2,1.8,9.7,4.8,13.3,9c0.7,0.8,1.2,1.8,1.9,2.9
		c-1.1,0.8-1.9,1.5-2.8,2.1c-5.8,3.4-11.6,6.8-17.3,10.3c-1.8,1.1-3.4,1.3-5.3,0.6c-1.4-0.5-2.8-0.9-4.3-1.3
		c-2.3-0.6-3.4-2.1-3.7-4.3c0-0.4-0.1-0.7-0.1-1.1c-0.3-7.5-0.7-14.9-1-22.4C405.4,198.5,405.6,197.6,405.7,196.6z M423.6,238.5
		c0.2,0.1,0.3,0.6,0.5,0.8c-0.1,0.1-0.2,0.3-0.3,0.4c-0.1,0.1-0.3,0.2-0.5,0.2c-12.3,0.4-24.5,2-37.5,3.8c0.8-1.1,1-1.5,1.3-1.7
		c5.6-3.4,11.2-6.7,16.9-10.1C410.7,233.6,417,236.5,423.6,238.5z M396.3,149.3c-17.4-19.9-34.1-40.4-49.3-62.1
		c-1.3-1.8-2.7-3.5-3.5-6.4c32.3-3,64-5.9,95.9-8.8c0,0.9,0.2,1.6,0,2.2c-1.2,3.6-2.2,7.2-3.7,10.6c-4.2,9.4-8.7,18.7-13.1,28
		c-5.6,11.7-11.3,23.3-16.9,34.9c-1.1,2.4-2.7,4-5.1,4.5C398.6,151.8,397.4,150.6,396.3,149.3z M398.2,197.6c0.3,3.4,0.7,6.6,1,9.7
		c0.4,4.8,0.7,9.7,1.2,14.6c0.3,3-0.7,5.2-3.1,6.7c-4.8,2.9-9.7,5.7-14.5,8.6c-2.9,1.7-5.8,1.4-8.7,0.4c-2.8-0.9-5.5-2.3-8.2-3.6
		c-3.5-1.6-6.1-4.2-7.9-7.7c-1-1.9-1.3-3.9-1.3-6c0.1-2.2,0.8-4,2.2-5.6c2.8-3.2,6.1-5.6,10.1-6.9c3.7-1.2,7.5-2.4,11.2-3.6
		c5.4-1.7,10.7-3.3,15.7-6.1C396.5,197.8,397.3,197.8,398.2,197.6z M265.7,206.6c-2.3-1.7-4.4-3.6-5.6-6.2c-0.8-1.6-0.7-2.2,0.4-4.8
		c2.4-0.6,4.8-0.3,7.1,0.5c3.9,1.3,7.9,2.5,11.6,4.4c5.9,2.9,11.6,6.2,17.3,9.5c3.4,1.9,6.8,4.1,10.1,6.1c2.9,1.8,5.8,3.4,9.3,3.5
		c0.7,0,1.3,0.6,2.2,1.1c0.4,5.5,0.7,10.5,1.1,15.8c-0.8,0-1.6,0.1-2.2,0c-2.2-0.6-4.3-1.2-6.5-1.9c-1.1-0.4-2.3-0.7-3-1.4
		c-2.5-2.4-5.8-3.3-8.9-4.8c-3.2-1.6-6.5-3-9.4-5C281.2,217.8,273.4,212.2,265.7,206.6z M263.2,238.5c-3.3-1.4-6.4-3.2-9.1-5.5
		c-0.5-0.4-0.8-1.1-1.1-1.6c0.8-1.2,1.8-1.1,2.7-1.1c4.2-0.1,8.2,1,12.2,1.8c12.1,2.6,24.1,5.4,36.3,7.8c4.6,0.9,9.2,1.9,13.6,3.4
		c1.2,0.4,2.3,1,3.5,1.6c0.4,2.4,1.8,4.4,1.5,7.1c-3.9,1.2-7.8,2-12,1.8c-0.4,0-0.8-0.1-1.1-0.3c-2.6-1.8-5.6-2-8.5-2.7
		C288.1,248,275.6,243.5,263.2,238.5z M208.4,515.4c-5.1-14.3-9.3-28.9-11.1-44.1c-1.8-15-1.4-29.9,0.8-44.9
		c1.9-13.8,6-26.7,12.7-38.8c3.2-5.7,6.6-11.4,10.4-16.7c4.6-6.4,9.5-12.6,14.7-18.5c11.6-13.3,23.7-26.2,36.5-38.3
		c6.7-6.3,13.7-12.3,20.7-18.3c6.1-5.2,12.5-10.2,18.7-15.4c1-0.8,1.8-1.8,2.5-2.5c-0.3-1.4-1-2.1-1.9-2.4c-2.5-0.7-5.1-1.4-7.7-0.8
		c-1.5,0.3-3,0.4-4.4,0.8c-2.4,0.7-4.8,0.7-7.3,0.5c-9.9-1.1-19.8-2.2-29.6-3.4c-0.7-0.1-1.3-0.5-2-0.7c0.3-1.3,1.4-1.4,2.2-1.7
		c7-2,14.2-3.6,21.4-4.9c6.6-1.2,13.3-2.5,19.9-3.6c4.4-0.8,8.9-1.3,13.3-2c2.2-0.3,4.4-0.5,6.5-0.7c1.9,1,2,2.9,2.6,4.4
		c1.3,3.1,2.6,6.3,4.7,8.9c0.8,1,1.9,1.7,2.7,2.4c1.2-0.6,1.1-1.4,0.9-2c-3.8-9.8-5.8-20.2-7.8-30.5c-0.8-4-1.7-8.1-2.5-12.1
		c-1-4.8-0.8-9.7-0.8-14.6c0-1.7,0.4-3.3,1.1-4.9c7.4-14.3,18.6-24.3,33.9-29.6c5.6-1.9,11.5-1.7,17.3-1.1c4.3,0.4,8.5,1.3,12.7,2.3
		c2.6,0.6,4.9,2,6.2,4.4c0.3,0.5,0.3,1,0.5,1.9c-0.8,0.7-1.5,1.5-2.4,2.1c-3.2,2.1-6.6,3.6-10.2,4.7c-4.5,1.4-8.9,2.8-13.4,4.4
		c-2.5,0.9-4.9,2-7.2,3.1c-2.9,1.4-5.3,3.5-7.5,5.8c-3.7,3.7-5,8.3-4.9,13.3c0,1.1,0.3,2.2,0.7,3.3c2.6,8.1,7.9,13.4,16.1,16
		c1.2,0.4,2.4,0.8,3.5,1.2c0.1,1.7-1.2,2-1.9,2.7c-1.4,1.3-2.9,2.4-4,3.8c-0.8,1-1.5,2.2-0.6,3.6c0.9,1.4,2.1,1.3,3.5,1.1
		c4.8-0.8,9.6-1.6,14.4-2.3c7.4-1.1,14.8-2.2,22.3-3c9-0.9,17.9-1.5,26.9-2.2c5.4-0.4,11.3-1.6,15.3-3.1c0.7-1.9-0.1-3.3-1.7-4.2
		c-1.3-0.7-2.7-1.2-4.1-1.7c-4.8-1.7-9.5-3.3-15.4-5.3c2-1.4,3-2.2,4-2.9c3.9-2.6,7.8-5.2,11.7-7.8c1.9-1.3,1.9-1.3,5.4-1.6
		c0.1-1,0.5-2.1,0.3-3.1c-0.9-5-3.6-9-7.4-12.3c-3.6-3.1-7.6-5.4-12.2-6.9c-3.6-1.1-7.2-2.1-10.8-3.3c-1.8-0.6-3.5-1.3-5.2-2.2
		c-3.7-2-3-6.8-0.8-8.7c0.8-0.7,1.8-1.4,2.7-2c8-4.6,16.6-6,25.5-3.1c11.7,3.8,20.9,10.9,26.8,21.8c2.5,4.5,3.7,9.4,3.9,14.5
		c0.4,9.6-1.5,18.6-6.2,27.1c-5,8.9-10.5,17.3-16.4,25.6c-1,1.3-2.2,2.6-3.5,3.6c-5.4,4.1-10.8,8.1-16.3,12
		c-1.2,0.9-2.6,1.6-3.9,2.2c-11.9,5.5-23.9,10.8-35.8,16.4c-6.6,3.1-13.1,6.5-19.4,10.2c-9.4,5.5-18.8,11-27.5,17.6
		c-13.3,9.9-25.8,20.6-36.8,33.1c-7.6,8.6-14,18.1-19.4,28.3c-5.5,10.6-9.1,21.8-9.9,33.8c-0.4,5.6-0.9,11.2-0.9,16.8
		c-0.1,10.7,1.5,21.3,4,31.8c1.2,4.7,2.5,9.4,3.8,14.1c0.2,0.9,0.4,1.8,0.7,3c-4.4,1-8.7,0-12.9,0.8c-4.4,0.9-8.9,1.6-13.2,2.7
		c-4.2,1.1-8.3,2.4-12.3,3.9c-4,1.6-8,3.3-11.7,5.4c-3.9,2.2-7.7,4.6-11.4,7.2c-3.5,2.5-6.8,5.2-10.4,8
		C209.2,517,208.7,516.2,208.4,515.4z M338.3,726.7c-6,0.3-12,0.7-18,1c-1.1,0.1-2.2,0.2-3.4,0.2c-15.2,0.5-30.4,1-45.6,1.4
		c-7.1,0.2-14.3,0.3-21.4-0.2c-11.2-0.8-22.4-2-33.2-5.6c-4.3-1.4-8.4-3.2-12.2-5.6c-2.9-1.8-5.5-4-7.7-6.6c-3.9-4.6-5.9-9.9-5.7-16
		c0.3-8.4,2.6-16.3,6.3-23.8c3.9-8,9-15.2,14.5-22.1c10.3-12.8,22.5-23.6,36-32.9c1.1-0.7,2.2-1.3,3.6-2.1c0.8,0.8,1.7,1.5,2.4,2.4
		c6.4,8.1,12.8,16.2,19.2,24.3c0.4,0.5,0.7,1.2,1.2,2.2c-6.4-0.4-11.7-3.9-17.8-3.4c-0.1,0-0.2,0.3-0.6,0.7c0.5,1,0.9,1.7,1.5,2.9
		c-3,0-5.8,0-8.6,0c-1.3,0-2.6,0.2-3.9,0.4c-1.1,0.2-2.3,1.7-1.9,2.4c0.4,0.8,1.1,1.7,1.9,1.9c2.2,0.6,4.4,0.9,6.6,1.1
		c11,1.3,21.9,2.9,32.7,5.5c4,1,8.1,1.4,12.2,2.2c1.3,0.2,2.7,0.3,3.8,0.8c5.7,2.7,11.8,3.6,17.9,4.8c11.9,2.5,23.9,4.7,35.9,6.9
		c11.6,2.2,23.2,4.6,34.6,7.5c2.2,0.5,4.4,0.7,7,1.1c0.8,0.9,0.8,2.3,0.4,3.7c-0.4,0.1-0.7,0.4-1,0.4c-3-0.6-6-0.2-8.9,0.4
		c-5.5,1.2-9,4.5-10.5,9.8c-0.6,2.1-0.8,4.4-1.3,6.8c-0.6,0.9-1.8,0.9-2.8,1.2c-1.1,0.2-2.2,0.3-3.3,0.4
		c-8.1,1.3-13.4,6.9-14.2,15.1c-0.1,1.1-0.1,2.2-0.2,3.3c-3,2.4-5.9,4.7-9.1,7.2C342.8,726.7,340.5,726.6,338.3,726.7z M397.5,690.1
		c2.5,2.1,3.2,4.9,2.2,8.1c-0.9,3.1-3.1,4.5-6.1,4.9c-0.9,0.1-1.9,0.1-2.8,0.2c-2.9,0.1-5.6-0.5-8-2c-1.2-0.7-2-1.6-2.2-3
		c-0.7-3.9,1.1-8.4,5.6-10.4C390.8,685.9,394.2,687.4,397.5,690.1z M361.3,721.5c-1.9-1.8-2.3-4.3-1.7-6.8c2-7.7,9-9.7,14.4-8.4
		c3.4,0.8,5.2,3.6,5.2,7.7c0.3,3.9-3.6,8.8-7,10C368,725.5,364.1,724.2,361.3,721.5z M363.4,730c-5,2.5-9.1,4.9-13.7,6.1
		c-1.2-1.4-0.8-2.7-0.3-3.9c1.3-2.9,3.4-5.3,6.4-7.1C358.1,726.6,360.4,728.1,363.4,730z M370.7,845.9c-7.2,7.9-14.4,15.9-21.7,23.7
		c-3.3,3.6-6.9,6.9-10.5,10.2c-0.6,0.6-1.5,1.1-2.7,1.9c-0.1-1.2-0.3-1.8-0.2-2.4c1.3-5.3,3.2-10.4,5.7-15.2c3.4-6.7,7-13.3,10.4-20
		c4.7-9.2,9.3-18.4,13.9-27.6c3-6,5.9-12.1,8.8-18.2c0.9-1.8,1.9-3.7,2-6.1c-2.1-1.3-4.1-1.6-6.2-0.1c-0.8,0.5-1.5,1.2-2.2,1.8
		c-7.8,6.5-15.5,13-22,20.9c-2.4,2.9-5,5.6-7.6,8.3c-8,8.7-15.6,17.7-22.6,27.3c-2.3,3.2-4.9,6.2-7.5,9.2c-1.8,2.1-1.9,2-5.2,3.3
		c-0.1-0.8-0.3-1.5-0.2-2.2c0.7-3.9,1.3-7.8,2.2-11.6c1.7-7.2,4.7-13.9,9.2-19.8c3.7-5,7.5-9.9,11.4-14.7
		c8.2-10.1,16.4-20.1,24.7-30c1.7-2,3.6-3.8,5.4-5.8c0.7-0.8,1.2-1.7,1.8-2.7c-0.7-0.2-1-0.5-1.3-0.5c-3.3,0.9-6.4,2.1-9,4.4
		c-1.9,1.6-3.7,3.1-5.6,4.7c-7.5,6-14.4,12.6-20.7,19.9c-9,10.3-18.2,20.5-28.4,29.7c-1.3,1.1-2.5,2.2-3.9,3.3
		c-0.3,0.2-0.7,0.2-1.1,0.3c-0.9-0.3-0.8-1.2-0.8-1.8c0-3.7,1.2-7.1,3-10.1c2.1-3.6,4.2-7.1,6.8-10.3c6.3-7.7,12.8-15.2,19.5-22.6
		c5-5.6,10.2-11,16-15.8c1.3-1.1,2.5-2.3,3.6-3.5c4.5-4.9,9.5-9.1,14.7-13.1c1.3-1,3-1.7,3.5-3.5c-0.4-1.3-1.5-1.8-2.7-1.4
		c-1.9,0.7-3.9,1.5-5.5,2.7c-4.3,3-8.7,5.9-12.7,9.3c-4.6,3.9-9.4,7.5-14.4,10.7c-4.6,2.9-9.1,6-13.7,8.9c-4.6,2.8-9.4,5.5-14.7,7
		c-0.6,0.2-1.3-0.1-1.9-0.1c-0.2-1.8,0.9-2.7,1.7-3.8c3.9-5.1,8.3-9.7,13-14c13.2-11.8,27.4-22.2,42.9-30.8
		c6.9-3.8,13.8-7.6,20.7-11.5c0.7-0.4,1.3-0.8,2-1.1c1.9-0.8,4-1.3,5.6-2.4c3.8-2.7,7.4-5.8,10.8-8.5v-12.1c1.3-1.2,2.4-0.7,3.5-0.6
		c2.6,0.1,5.2-0.1,7.8-0.6c5.7-1.2,8.6-5,9.8-10.3c0.3-1.4,0.4-2.9,0.7-4.6c5.7,0.4,11.1,0.8,16-2c0.7,0.3,1.3,0.5,1.6,0.9
		c8.4,8.9,14.5,19.1,16.9,31.3c1.1,5.4,1.1,10.9,0.4,16.3c-0.7,5.4-1.6,10.8-3.5,15.9c-0.8,2.2-1.2,4.7-1.5,7.1
		c-1.1,7.4-2.1,14.9-3,22.3c-0.3,2.2-0.4,4.5-0.6,6.7c-0.9,11-2,22.1-4.5,32.9c-0.5,2.2-1.3,4.3-2,6.4c-0.2,0.6-0.9,1-1.4,1.5
		c-4.7-6.5-7.1-15.4-6.6-23.7c0.4-6.6-0.3-10.8-2.8-17.6c-1-0.6-1.8-0.1-2.4,0.7c-3.6,4.4-7.2,8.7-10.6,13.1
		c-4.6,5.9-9.1,12-13.7,17.9c-1.8,2.4-3.8,4.6-5.7,6.9c-0.5,0.6-1,1.1-1.4,1.8C379,837.1,374.8,841.4,370.7,845.9z M403.7,671.9
		c0.6-0.7,1.1-1.6,1.8-2.1c3.7-2.4,7.7-2.9,11.9-2c2.1,0.4,3.6,1.9,4.5,3.9c1.1,2.7,1.5,5.4,1.2,8.3c-0.2,2.3-1.2,3.9-3.7,4.2
		c-0.4,0-0.7,0.3-1.3,0.6c0,0.9-0.1,1.4-0.1,2.1c-2.8,2-5.9,1.7-9,0.6c-5.2-1.7-6.9-4.5-6.6-11c1-0.5,2.1-1.2,3.4-1.9
		C405.1,673.7,404.5,672.9,403.7,671.9z M427.9,686.1c0.6-2.3,1.1-4.6,1.7-6.9c2-0.4,3,0.8,4.1,1.8c1.6,1.4,2.5,3.3,3,5.3
		c0.5,2.4,1,4.8-1.8,6.6C432.4,690.8,430,688.8,427.9,686.1z M412.8,810.4c0,2-0.1,4-0.2,6.2c-2.7,1-5.2,0.9-7.7,0.2
		c1.4-3.7,3-5.9,7.1-9.9c0.2-0.3,0.5-0.5,0.7-0.8c-0.2,0.3-0.3,0.7-0.5,1C412.4,808.2,412.8,809.3,412.8,810.4z M422.2,1356.3
		c-0.7,0.7-1.5,1.5-2.3,2.2c-3.7,2.9-7.4,5.7-11,8.7c-1.3,1.1-2.3,2.5-3.2,3.9c-0.9,1.3-0.4,3,0.8,4c1,0.9,2.5,1.1,3.6,0.2
		c1.1-0.7,2.1-1.6,3.1-2.5c4.1-3.6,8.2-7.2,12.3-10.7c0.4-0.3,1-0.5,1.6-0.9c3.4,2.6,6.3,5.7,9.3,9.2c-1.3,0.9-2.3,1.7-3.3,2.4
		c-4,2.8-8.1,5.4-12.1,8.3c-1.5,1.1-2.7,2.6-3.8,4c-0.9,1.1-0.5,2.6,0.4,3.6c0.9,0.9,2.5,1.4,3.6,0.8c1-0.5,1.9-1.2,2.8-1.9
		c5.1-3.9,10.1-7.8,15.2-11.6c0.4-0.3,1-0.6,1.4-0.9c3.5,2.2,9.3,7.9,12,12c-0.6,0.6-1.2,1.3-2,1.7c-3.7,2.2-7.5,4.3-11.2,6.6
		c-2.2,1.3-4.5,2.7-6.6,4.3c-1.3,0.9-1.4,2.8-0.6,4.1c0.8,1.3,2.4,1.9,3.9,1.3c1-0.4,2-0.9,3-1.5c5.8-3.5,11.6-6.9,16.6-11.6
		c0.3-0.2,0.7-0.4,1.3-0.7c0.8,0.6,1.7,1.2,2.5,2c4.6,4.7,9.1,9.4,13.8,14.1c17.9,18,35.8,35.9,53.6,53.9c0.9,0.9,2.2,1.5,2.2,3.3
		c-5,1.7-10.2,2-15.4,2.3c-11.7,0.6-23.3-0.4-34.7-2.5c-18.3-3.3-36.3-7.7-54-13.6c-8.2-2.7-16.2-6-23.9-9.9
		c-6.5-3.3-12.9-6.8-19.7-10.4c-0.2-1.8-0.3-3.1-0.4-4.4c-0.4-6.5-2.4-12.5-5.2-18.3c-0.7-1.5-1.7-3-2.7-4.3
		c-2.8-3.4-6.6-4.4-10.6-2.5c-2.3,1.1-4.5,2.7-6.5,4.3c-4.6,4-8,8.9-10.5,14.4c-1.3,2.7-2.2,5.6-3.4,8.3c-0.6,1.4-1.1,2.7-1.7,4.1
		c-3.1,1.1-6.1,0.8-9,0.6c-6.6-0.6-13-2.1-19.1-4.5c-3.3-1.3-6.3-3.3-9-5.7c-1.5-1.3-2.4-2.9-2.3-4.9c0.1-2,0-4.1,0.5-6.1
		c4.1-17,7.3-34.1,10.6-51.2c2.4-12.3,4.6-24.7,7-37c0.2-1.1,0.7-2,1.2-3.3c1.7,1,3.1,2,4.6,2.7c10.8,5.4,21.7,10.2,33.5,12.8
		c12.5,2.7,24.6,1.6,36.3-3.6c0.7-0.3,1.4-0.6,2.1-0.9c0.2-0.1,0.4,0,0.6-0.1C402.4,1334.7,417,1349.4,422.2,1356.3z M684.1,1360.1
		c-2.2,1.5-4.8,1.8-7.4,2c-5.6,0.4-11.2,0.6-16.8,1.2c-9.1,0.9-18.3,1.9-27.4,3c-7.5,0.9-14.9,1.8-22.3,2.7
		c-7.8,0.9-15.6,1.9-23.5,2.8c-5.8,0.7-11.6,1.2-17.4,1.7c-7.8,0.7-15.7,1.4-23.6,1.9c-8.8,0.6-17.6,1.4-26.4,0.5
		c-2.8-0.3-5.5-1.1-8.2-1.8c-0.5-0.1-0.9-0.7-1.5-1.2c0.4-0.8,0.8-1.7,1.3-2.4c1.8-2,3.9-3.6,6.3-4.6c8.9-3.7,16.8-9,25-14.1
		c17.2-10.6,34.5-21.3,51.8-31.9c1.7-1.1,3.6-2,5.5-3.1c1.1,0.9,2.2,1.5,3.1,2.4c4.9,4.7,9.8,9.3,14.6,14.1c1.8,1.8,3.3,4.1,4.9,6.2
		c0.5,0.6,0.8,1.3,1.3,1.8c0.6,0.5,1.4,0.9,2,0.3c0.5-0.5,0.9-1.3,0.9-1.9c-0.1-0.9-0.4-1.9-0.9-2.6c-1.7-2.3-3.3-4.6-5.2-6.6
		c-4.5-4.5-9.2-8.8-13.9-13.2c-0.8-0.8-1.6-1.5-2.4-2.3c3.3-3,5.3-4,10.1-5.6c1.1,0.9,2.5,1.9,3.7,3.1c5.4,5.5,10.7,11,16,16.6
		c0.3,0.3,0.5,0.6,0.8,0.8c0.7,0.7,1.5,1.2,2.5,0.7c0.9-0.4,1.2-1.9,0.5-2.9c-1.2-1.7-2.4-3.3-3.9-4.8c-3.9-4-8-8-12-11.9
		c-1.1-1-2.3-1.9-3.2-2.7c0.5-2.4,2-2.6,3.6-3.1c4.6,2.9,8.8,6.7,12.9,10.6c2.3,2.2,4.4,4.6,6.6,6.9c0.6,0.7,1.3,1.3,2.1,1.8
		c0.4,0.2,1.2,0.1,1.5-0.2c0.4-0.3,0.7-1.1,0.5-1.4c-0.7-1.3-1.4-2.7-2.4-3.7c-4-4-8.1-7.8-12.2-11.7c-1.5-1.4-3.1-2.6-5.3-4.4
		c5.1-2.9,9.4-5.1,13.5-7.7c4.1-2.6,8.1-5.5,12.4-8.4c2.5,1.9,5.2,4.2,8.1,6.2c2.9,2,6.1,3.6,9.6,5.7c1.6,2.3,2.5,5.4,3.3,8.4
		c4.5,16.9,8.5,33.8,11.4,51C684.2,1358.8,684.1,1359.3,684.1,1360.1z M653,1282.1c0.4-5.3,1.7-10.7,2.8-16.2
		c0.6,0.3,1.1,0.4,1.2,0.7c3.1,8,6.3,16.1,9.3,24.1c0.1,0.3-0.2,0.7-0.3,1C662.3,1290.8,658.2,1287.8,653,1282.1z M770,1329.9
		c0.8,0.5,1.6,0.9,2.3,1.5c1.4,1.3,2.8,2.3,4.6,3.2c2,0.9,3.8,2.3,5.7,3.6c3.5,2.4,7.1,4.9,10.3,7.2c0.3,1.5-0.6,2.1-1.2,2.7
		c-4.4,4.1-8.8,8.2-13.1,12.3c-1.2,1.2-2.5,2.3-3.6,3.5c-0.5,0.5-0.9,1.2-1.3,1.8c-0.6,1.1-0.2,2.7,0.7,3.6c0.9,1,2.5,1.4,3.6,0.7
		c1.1-0.7,2.2-1.5,3.1-2.4c5.2-4.9,10.4-9.8,15.5-14.7c0.9-0.9,1.9-1.7,3-2.7c2.4,1.3,4.6,2.7,6.6,4.8c-0.6,0.8-1.1,1.6-1.7,2.2
		c-2.8,3-5.8,5.9-8.6,8.9c-1.9,2.1-3.7,4.2-5.5,6.4c-0.6,0.7-0.9,1.6-1.1,2.5c-0.3,1.1,0,2.2,1.1,3c1,0.7,2.1,1.1,3.1,0.4
		c1.2-0.8,2.3-1.8,3.3-2.9c5-5.4,9.9-10.8,15-16.4c3.2,0.9,5.3,3.3,7.6,4.8c0.4,1.6-0.5,2.2-1.2,2.8c-2.7,2.3-5.5,4.5-8.1,7
		c-3.2,3.1-6.3,6.4-9.4,9.7c-0.7,0.8-1.3,1.9-1.6,2.9c-0.5,1.4,0,2.6,1.1,3.5c1,0.8,2.7,1.1,3.7,0.3c0.9-0.6,1.8-1.4,2.5-2.2
		c5.6-7.1,13-12.4,19.5-18.6c2.2,0,3.5,1.5,5,2.5c17.5,11.6,34.9,23.5,52.5,34.8c12.6,8.1,25.6,15.7,38.4,23.4
		c1.6,1,3.2,1.9,5.4,3.2c-1.1,0.5-1.4,0.8-1.7,0.8c-3.8-0.1-7.5-0.1-11.3-0.3c-19.1-1.3-38.2-1.8-57.4-2.2
		c-11.6-0.3-23.2-1.1-34.8-1.7c-7.3-0.4-14.6-1-21.9-1.5c-3.6-0.3-7.1-0.7-10.7-0.9c-3.3-0.2-6.7-0.3-10.2-0.4
		c-1.1-1.7-2.1-3.3-3-4.9c-3.8-6.3-8.5-11.9-14.1-16.7c-2.4-2-5.1-3.9-7.9-5.3c-5.7-2.9-10-1.7-13.5,3.7c-2.8,4.3-4.3,9.1-4.8,14.3
		c-0.4,5.5,0.3,10.9,2.2,16c0.7,1.9,1.4,3.8,2.1,5.6c-0.7,1.3-1.7,1-2.5,1c-4.7,0.2-9.4-0.5-13.9-1.6c-5.1-1.2-10.1-2.9-15.1-4.5
		c-1.2-0.4-2.4-1.1-3.6-1.6c-2.1-0.9-3.1-2.4-3.4-4.7c-1.1-8-2.3-16-3.4-24c-2.3-16.9-4.5-33.8-7.8-50.6c-0.4-1.8-0.5-3.6-0.7-5.2
		c0.9-1.1,1.6-0.6,2.3-0.4c7.8,1.8,15.6,1.9,23.5,0.9c4.6-0.6,9.3-1,14-1.5c9.1-0.8,17.6-3.5,25.9-7.1c4.2-1.8,7.8-4.4,11-7.7
		C767.7,1332.2,768.7,1331.1,770,1329.9z M549.2,792.6c10.8,26.8,21.6,53.6,32.2,80.4c12.5,31.6,24.8,63.2,37,94.9
		c7.9,20.5,15.6,41,23.4,61.5c0.5,1.4,1.1,2.8,1.5,4.2c4.5,16.7,10.3,32.9,17.2,48.8c12.9,29.8,24.8,60,36.7,90.2
		c10.3,26.4,22,52.2,33.7,78c10,21.9,20.1,43.6,31.5,64.8c0.6,1.2,1.2,2.3,1.7,3.5c0.6,1.4,1,2.8,1.5,4.4c-7,7.8-15.5,12.9-26,14.4
		l0.1-0.1c-1.6,0.6-3.1,1.5-4.7,1.7c-13.4,1.9-26.7,4-40.3,2.8c-2.3-0.2-4.5-0.4-6.8-1.8c-0.3-0.8-0.7-1.8-1-2.9
		c-2.5-8.8-4.9-17.7-7.5-26.5c-9.5-31.6-21.3-62.5-33.5-93.1c-12.1-30.3-25.1-60.2-38.2-90.2c-7.6-17.5-14.9-35.2-22.6-52.8
		c-7.4-16.8-15.1-33.5-22.5-50.4c-9.5-21.7-19.2-43.2-29.6-64.4c-6.7-13.7-12.8-27.6-18.2-41.8c-0.7-1.9-1.6-3.8-2.3-5.7
		c-3.9-10.6-10.6-19.3-18.5-27.3c-0.5-0.5-1.1-1.1-1.6-1.6c-7.6-6.5-19.2-4-23.1,5.2c-1.8,4.3-2.9,8.9-4.3,13.4
		c-0.2,0.7-0.4,1.5-0.3,2.2c0.7,7.3-1.5,14.1-2.8,21.1c-3.1,17-5.8,34-7.7,51.2c-2.3,20.7-5,41.3-7.9,62c-2.6,18.4-5.5,36.7-8.5,55
		c-4.9,29.4-9.8,58.8-15.1,88.2c-5.6,30.8-11.9,61.5-18.3,92.2c-3.1,15.1-5.7,30.2-8.5,45.3c-0.3,1.7-0.3,3.4-1.3,4.7
		c-18.8,7.4-36.8,5.1-54.6-3.6c-1-5.3,1.6-10.3,1.6-16.1c-3.7,4.6-2.7,10-4.9,14.7c-5.8-1.1-10.6-4.1-15.3-7.7
		c-0.2-2.7,0.5-5.2,1-7.8c4-22.3,8.1-44.7,12.1-67c2.9-15.9,5.7-31.7,8.4-47.6c2.1-12.4,4.1-24.8,6-37.2c2.6-16.5,5.2-33,7.6-49.5
		c1.8-12.4,3.3-24.9,4.9-37.4c1.2-9.5,2.5-19,3.8-28.5c1-7.4,2-14.9,2.9-22.3c1-8,1.9-16,2.7-24c1-9.7,2-19.4,3-29.1
		c0.9-9,1.8-17.9,2.8-26.9c0.9-8.8,1.9-17.5,2.9-26.3c1-9,2-17.9,2.9-26.9c0.5-4.9,1-9.7,1.4-14.6c0.5-7.3,1-14.6,1.3-21.9
		c0.1-2.6,0.8-4.7,2.4-6.7c3.9-4.8,7.6-9.7,11.6-14.9c2.3-0.1,4.7-0.1,7.2-0.2c2.4,0,4.8,0,7.4,0c0.6,1.4,1,2.6,1.5,3.8
		c1.1,2.6,2.1,5.2,3.2,7.8c0.6,1.4,1.4,2.7,2.2,3.9c3.6,5,7.6,4.7,10.4-0.5c2.1-4,3.7-8.2,4.7-12.6c0.5-2,0.9-4,1.3-5.8
		c1.2-1.5,2.8-1.6,4.2-1.8c8.2-1,16.4-2,24.6-3c0.5-0.1,1.1,0.1,1.9,0.2c0.9,3.1,0.9,6.3,1.3,9.4c0.5,3.4,1.1,6.7,2.6,9.8
		c0.6,1.2,1.3,2.3,3.2,2c0.2-0.5,0.6-1.2,0.6-1.9c-0.2-1.7-0.4-3.3-0.8-5c-1.2-4.7-1.8-9.6-2-14.3c0.6-1.4,1.8-1.6,2.9-1.7
		c11.1-1.1,21.7-4,32.1-7.9c7-2.6,14.1-5.2,21-8.1c5-2.1,9.7-4.8,14.6-7.3c1.1-0.6,2.3-1.1,3.3-1.6
		C548.3,789.3,548.6,791.1,549.2,792.6z M544.7,780.7c0.2,0.5,0.1,1.1,0.1,1.9c-0.7,0.4-1.5,1-2.3,1.4c-12.9,5-25.9,10-38.8,15
		c-10.2,3.9-20.9,6-31.6,7.9c-8.9,1.5-17.7,3.4-26.5,5.1c-2.2,0.4-4.4,0.9-6.9,1.4c-0.1-1.3-0.4-2.4-0.2-3.4c2-13,2.6-26.1,3-39.3
		c0-1.9,0.4-3.7,1.3-5.4c5-9.1,6.8-19.1,7.4-29.2c0.7-10.7-1.8-20.9-7.1-30.3c-1.6-2.8-3.2-5.5-5-8.4c0.5-0.6,0.9-1.2,1.5-1.6
		c3.1-2.4,3.6-5.6,2.8-9.1c-1.4-6.3-4.9-10.8-11.2-12.9c-0.7-0.2-1.4-0.6-2.2-0.9c-0.6-1.4-1.1-2.8-1.8-4.1
		c-3.6-7.3-11.1-10.1-18.5-6.7c-4.2,1.9-8.6,3.9-10.8,8.6c-1.5-0.1-2.8-0.1-4-0.4c-17.2-4.7-34.7-7.9-52.2-11.1
		c-18.1-3.3-36-7.1-54.3-11.5c-30.4-37.8-57.6-77.9-75.4-123.6c5.2-5.9,22.1-16,34-20.6c11.1-4.4,31.3-8.1,38.2-7
		c0.5,1.2,1.2,2.5,1.7,3.8c7.8,21,17.8,40.9,28.6,60.5c2.4,4.4,5.2,8.7,8,12.9c3,4.6,6.7,8.6,10.8,12.2c1.4,1.2,3,2.2,4.6,3.2
		c0.6,0.4,1.4,0.5,2.1,0.6c1.3,0.2,2.5-1.3,2-2.6c-0.3-0.7-0.7-1.3-1.1-2c-0.2-0.4-0.3-0.9-0.4-1.3c5,1.5,9.7,3.4,14.6,4.2
		c19.5,3.3,36.9-1.1,50.9-15.7c4.5-4.6,8-9.9,10.3-16c0.4-1,0.8-2.1,1.3-3.4c4.1-0.4,7.7-2.5,11.4-4.2c2.9-1.3,5.7-2.8,8.6-4.3
		c4.7-2.5,9.6-4.2,14.7-5.5c5.9-1.5,11.6-1.1,17.2,0.8c14.9,5.2,28.5,12.6,38.9,24.9c6.4,7.6,12.6,15.3,18.8,23.1
		c1.9,2.3,3.5,4.9,5,7.5c8.7,14.9,17.3,29.9,25.9,44.9c0.6,1.1,1.1,2.3,1.8,3.6c-5.2,11.2-11.4,21.6-20.7,29.9
		c-6.9,6.2-15.1,9.7-24.2,11.2c-0.7,0.1-1.5,0-2.7,0c-0.9-2.1-1.7-3.8-2.4-5.6c-9.2-23.4-19.5-46.4-31.1-68.6
		c-2.4-4.5-4.5-9.1-6.9-13.6c-0.8-1.5-1.9-2.7-3-4c-0.4-0.5-1.8,0.1-1.8,0.7c0.1,1.3,0,2.7,0.4,3.8c1.5,4.1,3,8.1,4.8,12
		c3.9,8.5,7.9,17,12,25.5c8.6,18.1,15.9,36.9,23.5,55.4c9,22,18.2,44,27.3,66c0.6,1.6,1.2,3.2,2.1,4.6
		C540.7,767.4,542.3,774.2,544.7,780.7z M583.7,481.9c1,0.1,1.7,0,2.4,0.2c4.4,1.7,8.5,4.1,12,7.2c6.5,5.7,12.9,11.6,17.9,18.6
		c4.4,6.1,8.5,12.4,12.8,18.5c4,5.7,8.1,11.3,12.1,16.9c0.5,0.7,1.2,1.4,1.7,1.9c1.6,0.6,2.4-0.3,3.2-1.1c1.3-1.4,1.8-3.2,2.1-5.1
		c2-14.5,6-28.6,9-43c1.3-6.1,3-12,5.4-17.7c2.4-5.8,5.5-11.1,10.4-15.2c0.4-0.4,0.9-0.7,1.4-0.9c0.3-0.2,0.7-0.1,1.3-0.2
		c0.3,0.6,0.9,1.2,1,1.9c0.6,3.7,1.2,7.4,0.7,11.2c-0.9,5.9-1.4,11.9-2.3,17.9c-1.2,8.2-3.5,16.1-5.5,24.1
		c-1.9,7.8-4.2,15.6-5.4,23.6c-0.2,1.7-1,3.2-1.4,4.9c-0.8,3.3-1.3,6.6-0.6,10c0.1,0.5,0.2,1.1,0.6,1.6c0.3,0.4,0.9,0.8,1.4,0.8
		c0.5,0,1.3-0.3,1.4-0.6c0.6-1.2,1-2.4,1.3-3.7c1.2-6,4.4-10.7,8.6-14.9c1.3-1.3,2.9-2.4,4.8-2.8c1.6,0.1,2.7,1.1,3.7,2.3
		c2,2.5,3.4,5.4,4.3,8.5c2.6,8.9,3.5,17.9,2.6,27.2c-1.4,13.9-6,26.6-12.3,38.9c-0.4,0.8-1.1,1.4-1.8,2.2c-2.7-3.4-3.1-7.2-3.6-10.8
		c-0.4-3-0.9-5.9-1.1-8.9c-0.2-2.4,0-4.9,0.1-7.3c0.3-3.9,0.7-7.8,1-11.8c0-0.5-0.2-1-0.4-1.7c-0.6,0.4-1.2,0.5-1.5,0.9
		c-2.2,2.9-3.4,6.3-4.2,9.8c-1.9,9.2-3,18.5-1.6,28c0.5,3.2,1.4,6.2,3.4,8.8c2.9,3.7,6.9,4.7,10.9,2.5c1.7-0.9,3.3-2.2,5.3-3.5
		c0.3,1.6,0.5,2.8,0.6,4.1c1.6,19.7,2.4,39.3,2.6,59c0.2,16.7,0.5,33.4,1.2,50.1c0.4,11.2,1.5,22.5,3.3,33.6c0.3,2,0.3,4,0.2,6.1
		c-0.3,4.5-0.1,9-0.2,13.5c-0.2,5.6-0.8,11.2-2.3,16.7c-2.4,9.2-7.6,16.2-15.6,21.2c-19,12.1-40.7,9.3-55.4-1.9
		c-5.1-3.9-9.6-8.4-14-13c-1.9-2-3.9-4-6.1-5.9c-4.1-3.6-7.6-7.7-10.9-12.1c-4.4-5.8-8.9-11.7-13.6-17.2
		C559,757,544.3,738,530,718.6c-1.5-2.1-2.7-4.4-4.1-6.7c-0.5-0.8-1-1.6-1.7-2.2c-2.8-2.6-4.6-5.9-6-9.4c-1.1-2.8-2.2-5.6-3.6-9
		c1.8-0.5,3-1,4.3-1.2c10.3-2,19-6.8,26.3-14.2c6-6.1,10.7-13.1,14.6-20.6c0.9-1.6,1.7-3.3,2.6-4.8c1.9,0.2,2.1,1.8,2.7,2.8
		c6.7,11.9,13.2,24,20.2,35.8c8.1,13.7,16.6,27.2,25.1,40.7c3,4.8,6.3,9.4,9.6,13.9c2.4,3.3,5.2,6.3,9.4,8.2
		c-0.5,1.3-1.1,2.6-1.7,4.1c0.8,0,1.4,0.3,1.8,0.1c3.2-1.7,5.8-4.2,7.7-7.3c0.9-1.5,1.3-3.6,1.4-5.4c0.1-5.8-0.1-11.6-0.3-17.4
		c-0.1-2.6-0.5-5.2-0.5-7.9c0.3-14.1-1.2-28.1-1.8-42.2c-0.2-4.7-0.5-9.4-0.5-14.1c-0.1-5.8-0.2-11.6-0.1-17.5
		c0.2-9.2-0.8-18.4-1.1-27.5c-0.2-4.9,0-9.7,0-14.5c-1-1-1.7-1.9-2.5-2.6c-5.5-4.6-10.9-9.2-16.5-13.6c-1.9-1.5-4.1-2.6-6.4-3.5
		c-5.7-2.3-11.6-4.4-17.3-6.8c-5.6-2.3-11-4.7-16.5-7.1c-2.1-0.9-3.9-2.2-5.1-4.3c-2.2-3.8-0.6-8.3,3.6-9.6c2.1-0.7,4.3-1.3,6.6-0.9
		c6.3,0.9,12.5,2.3,18.5,4.6c7.4,2.9,14.3,6.6,21.2,10.4c2.5,1.4,5.1,2.4,7.5,3.8c2.1,1.2,4.2,1.5,6.5,0.9c4.4-1,9-0.9,13.4-0.7
		c3,0.1,6,0.7,8.9,1c0.7,0.1,1.5,0.2,1.9-0.9c-1.6-2.1-4.2-2.1-6.4-2.5c-2.2-0.4-4.5-0.3-6.7-0.4c-2.4-0.1-4.8,0.1-7.5-0.1
		c1.8-1.9,2.1-2.1,4.2-2.8c1.6-0.5,3.2-0.8,4.7-2.3c-2.9-1.3-5.3,0.1-7.6,0.9c-2.5,0.9-4.8,2.1-7.3,3.3c-2.5-1.7-4.9-3.4-7.4-5.2
		c-0.2-3.6,1.1-6.8,2-10c0.5-1.8,1.1-3.6,1.6-5.3c-0.5-0.8-0.8-1.5-1.3-2.1c-4.2-4.8-8.4-9.6-12.6-14.4
		c-5.2-6.1-10.4-12.3-15.5-18.6c-2.4-2.9-4.5-6-6.6-9.1c-4-6-6.5-12.7-8-19.7C583.6,484.1,583.7,483.1,583.7,481.9z M559.7,507.6
		c-0.2-0.9-0.4-1.8-0.7-2.9c0.9-0.2,1.6-0.5,2.3-0.4c8.1,0.7,15.8,2.9,23.7,4.8c11,15.5,23.7,29.5,36.3,44.1
		c-0.5,2.4-0.8,5.2-2.4,7.8c-1.3-0.7-2.4-1.3-3.6-1.8c-9-4.6-18.3-8.7-28.3-10.7c-4.5-0.9-8.9-1.4-13.4-0.5
		c-3.2,0.6-6.1,1.8-8.2,4.4c-5.1,6.1-4.5,14.3,1.6,19.6c1.5,1.3,3.4,2.4,5.2,3.3c8.9,4.4,18.1,8.2,27.5,11.4c2.8,1,5.8,1.5,8.6,2.3
		c7,6.1,13.9,12.1,20.7,18.1c0,5.1,0,10,0,14.9c0,3.8,0,7.5-0.1,11.3c0,4.1,0,8.3-0.1,12.4c-0.1,13.5,0.1,27,1.2,40.5
		c0.5,6.4,1.1,12.7,1.4,19.1c0.6,10.3,1.1,20.6,1.5,30.9c0.1,3.2,0.3,6.4-0.5,9.3c-1.7,1.2-3.1,0.9-4.3-0.2
		c-1.7-1.5-3.3-3.1-4.6-4.9c-1.5-1.9-2.8-4-4-6.1c-17.9-29.7-35.8-59.5-52.2-90.1c-4.1-7.6-8.6-15-12.9-22.5
		c-4.8-8.3-9.6-16.6-14.5-24.8c-3-5-6.3-9.8-9.5-14.6c-0.7-1.1-1.3-2.1-2.2-3.5c1.3-0.6,2.3-1.1,3.3-1.5c13.1-5.6,22.3-15,27.8-28
		c1.7-4,2.4-8.3,2.7-12.6C562.8,526.8,561.8,517.2,559.7,507.6z M549.2,427.7c-2.9,5.3-6.3,10.2-11.6,13.5c-0.9,0.6-1.7,1.4-3,2.3
		c0.6,1.9,1.1,3.3,1.6,4.7c0.9,2.8,2.1,5.6,2.7,8.6c2.8,13,7.3,25.6,9.6,38.8c0.7,3.7,2,7.2,3.4,10.7c4.5,10.9,5.3,22.2,3.5,33.7
		c-0.6,3.7-2,7.2-3.9,10.5c-4,7-9.5,12.6-16.1,17c-4.1,2.7-7.2,3.8-12.8,4.7c-1-1.1-2.1-2.3-3.3-3.6c-3.4-3.8-6.7-7.6-10.2-11.3
		c-8.4-8.8-18.4-15.4-29.1-20.9c-1.8-0.9-3.7-1.9-5.7-2.4c-2.9-0.8-4.9-2.5-6.6-4.9c-2.1-2.9-4.1-5.8-5.7-9
		c-1.6-3.4-3.3-6.7-4.9-10.1c-0.8-1.7-1.5-3.4-2-5.2c-3.2-11.4-6.4-22.8-9.6-34.1c-0.2-0.9-0.7-1.7-1.1-2.8c-2-0.4-4-0.8-6-1.1
		c-2.4-0.4-4.8-0.6-7.2-1.2c-1.8-0.4-3.6-1.1-5.2-2c-2.3-1.2-3.7-3.3-3.8-5.9c-0.1-2.4-0.2-4.9,0.2-7.3c0.9-5.2,3.9-8.8,9-10.5
		c3-1,6-1.9,9.1-2.9c1.5-5.1,0-10.3,1.3-15.5c1.1-0.2,2.1-0.5,3.2-0.5c4.3-0.1,8.6,0.1,12.9-0.2c4.7-0.3,9.3-0.9,14-1.4
		c1.1-0.1,2.1-0.7,3.2-1c3.1-5.6,1.7-11.8,2.5-17.9c2.4,0.8,3.7,2.4,5.3,3.6c1.8,1.3,3.5,2.9,5.2,4.3c1.6,1.3,3.2,2.5,5,3.8
		c6.1-2.2,10.9-5.8,15.1-10.5c1.2-1.4,2.3-2.9,3.6-4.3c0.7-0.8,1.6-1.5,2.6-2.5c0.7,1,1.4,1.6,1.8,2.4c1.6,3.2,3.1,6.4,4.6,9.6
		c0.5,1,0.8,2.1,1.3,3.1c1.1,2.1,2.1,2.6,4.6,2.1c2-0.4,4-0.9,6-1.6c3.2-1.1,6.3-0.8,9.2,0.8c3.3,1.9,6.3,4.1,7.7,7.9
		C550.9,421.9,550.8,424.9,549.2,427.7z M661.2,428.2c-7.3-3.3-14.6-6.6-21.9-9.9c-0.3-0.1-0.5-0.5-0.8-0.9c0.3-0.4,0.6-0.9,1.1-1.1
		c6.4-3.5,12.9-6.7,20.2-10c1.7,7.6,2.3,14.6,3.3,21.8C662.2,428.1,661.6,428.4,661.2,428.2z M727,461.5c-1.1,3.5-3.2,6.3-5.7,9
		c-2,2.1-4.5,2.7-7.2,1.7c-1.9-0.7-3.8-1.5-5.6-2.6c-4-2.5-7.3-6-9.9-9.9c-2-3-2.9-6.3-2.4-10.4c3.1,0.3,5.9,0.6,8.7,0.7
		c2.8,0.1,5.6,0.2,8.4,0c2.6-0.1,5.2-0.7,7.8-0.9c2.7-0.2,5.3-1.5,8.2-0.9C729,453.2,728.3,457.4,727,461.5z M776.2,455.1
		c0.1,2.2-0.2,4.5-0.7,6.7c-0.7,2.9-2.5,4.1-5.3,3.8c-1.3-0.1-2.6-0.4-3.8-0.8c-1.7-0.7-3.4-1.5-5-2.5c-7.2-4.4-13.7-9.7-19.8-15.6
		c-0.5-0.5-0.9-1.2-1.8-2.3c3.6-1.7,6.6-3.1,9.6-4.7c3-1.5,5.9-3.2,8.8-4.9c2.9-1.6,5.6-3.6,8.6-5.3c0.7,0.8,1.4,1.2,1.7,1.8
		C773.3,438.6,775.9,446.5,776.2,455.1z M767,422c-11.8,8.2-24.5,14.6-38.2,18.8c-10.8,3.3-21.8,3.3-32.9,1.8
		c-4.4-0.6-8.8-1.7-13.2-2.6c-2.1-0.4-3.8-1.3-5.4-2.8c-1.4-1.3-3-2.2-4.3-3.2c-4.1-26.7-8.2-53.2-12.4-79.7
		c-0.1-0.3-0.4-0.6-0.7-0.9c-1.6-1-3.3-0.4-4.9-0.4c-6.5,0-11.5-3-15.3-8.1c-2.5-3.3-2.9-6.8-1-10.6c1.9-3.8,4.2-7.1,8.1-9.1
		c1.7-0.9,3.1-2,4.8-3.1c1.2-4.4-0.1-9,0.8-13.4c1-0.9,1.9-1.7,2.9-2.7c-0.5-0.5-0.8-1.2-1.2-1.3c-4.3-0.6-8.5-1.3-12.8-1.7
		c-5.2-0.4-10.5-0.5-15.7-0.9c-5-0.4-9.4-2.3-13.1-6.2c0.4-0.9,0.6-1.9,1.2-2.4c2-1.7,4-3.5,6.3-4.7c3.9-2.2,8.1-4,12.1-5.9
		c2.9-1.4,6-1.8,9.2-2.1c12-0.9,23.8-2.8,35.5-5.6c1.9-0.5,4-1,5.3-2.8c-1.2-1.4-2.7-1.6-4.1-1.7c-1.3-0.1-2.6-0.1-3.9,0
		c-7.5,0.5-15,0.8-22.4,1.5c-7.1,0.7-14.2,0.9-21.4,0.5c-5.1-0.3-10-1.6-14.2-4.8c-0.6-0.4-1.1-1-1.6-1.6c-0.2-0.3-0.3-0.7-0.4-1.1
		c0.5-1.6,2-2.1,3.3-2.8c5.1-2.5,10.5-4,16-5.1c6.4-1.3,12.9-2.2,19.5-2.5c3.9-0.1,7.9-0.7,11.8-0.8c2.6-0.1,5.2,0.2,7.8,0.5
		c5.6,0.6,11.2,1.4,16.8,1.3c2.2,0,4-0.6,5.2-3c-0.9-0.7-1.6-1.5-2.6-1.9c-3.8-1.8-7.7-2.8-11.9-3.2c-7.3-0.7-14.4-2.4-21.4-4.5
		c-7.8-2.3-15-5.9-21.8-10.4c-2.2-1.4-4.1-3.3-5.9-5.1c-1.4-1.4-2.7-3.1-2.8-5.3c0.2-1.3,1.2-1.9,2.3-2.3c2.9-0.9,5.7-1.2,8.8-0.6
		c6.4,1.2,13,2,19.5,2.8c13.8,1.6,27.5,3.3,41,6.7c7.9,2,15.3,5.1,22.2,9.3c10.4,6.2,17.5,15.1,21.1,26.8c2.1,7,3.3,14.2,4.5,21.4
		c0.6,3.7,1.3,7.4,2,11.1c0.1,0.7,0.2,1.5,0.5,2.2c0.8,2.2,3,3.6,5.2,3.4c1.1-0.1,2.2-0.5,3.3-0.6c3.7-0.5,7.5-0.8,11.2,0.2
		c6.4,1.8,10.9,5.8,12.5,12.4c1.6,6.7,0,12.7-5,17.5c-3.7,3.5-8.2,5.9-12.7,8.2c-1.3,0.7-2.7,1.3-4.3,2c0,1.4-0.1,2.1,0,2.8
		c2.7,16.5,4.6,33,8.5,49.3c1.5,6.2,3.1,12.3,5.7,18.5C772.4,416.9,770.1,419.8,767,422z M1043.7,374.9c0.4,0.5,0.6,1.2,1.1,2.2
		c-3,0.1-5.2-0.6-7.5-1.3c-8.6-2.6-17-5.8-25.3-9.5c-9.3-4.2-19-6.9-28.9-9.3c-1.1-0.3-2.2-0.5-3.3-0.4c-0.6,0-1.1,0.7-1.9,1.3
		c1.7,1.5,3.2,2.6,4.5,3.8c5.9,5.5,11.6,11.3,16.5,17.6c3.8,4.9,7.1,10.1,9.7,15.8c3.4,7.6,4.6,15.4,3.4,23.6
		c-1,0.5-1.4-0.2-1.8-0.8c-2.2-3.7-4.4-7.4-6.7-11.1c-4.9-7.8-10.5-15.1-17-21.7c-4.2-4.3-8.8-8.2-13.9-11.4
		c-1.7-1.1-3.5-2.3-5.7-2.1c-0.8,0.5-0.9,1.3-0.4,1.9c1,1.4,2,2.7,3.1,3.9c3.9,4.3,7.9,8.6,11.8,12.8c7.6,8.1,13.9,17.2,19.6,26.7
		c2.1,3.5,2.2,6.6,0.8,10.1c-1.7,4-4,4.6-7.1,1.5c-1.6-1.6-2.9-3.4-4.2-5.3c-1.7-2.4-3.3-5-5-7.5c-5.3-8-11.2-15.5-18.1-22.2
		c-5-4.8-10.5-9.1-16.8-12.2c-1.3-0.7-2.7-1.3-4.2-1.7c-0.8-0.2-1.8,0.1-3,0.2c0.3,1,0.3,1.8,0.6,2.3c0.9,1.2,2,2.3,3.1,3.3
		c2.2,2,4.5,4,6.9,5.8c9.7,7.4,17.5,16.4,24.3,26.4c2.3,3.4,4.5,6.9,6.9,10.5c-0.6,1.6-1,2.7-1.5,3.7c-1.5,3-3.2,3.7-6.4,2.6
		c-3.2-1.1-6.2-2.6-8.6-5.1c-3.2-3.4-6.6-6.7-9.6-10.3c-4.2-5.1-8.1-10.3-12.1-15.5c-3.1-4-6.3-7.9-10.3-11.2
		c-2.7,1-4.3,2.9-5.8,5.1c-4.7,7-7.3,14.8-7.9,23.2c-0.1,1.9-0.2,3.8-0.4,5.6c-0.2,1.6-0.5,3.3-0.8,4.8c-1.4,0.3-2.1-0.3-2.8-1
		c-5.4-5.8-8.9-12.4-9.2-20.6c-0.2-5.1,0.3-10.1,1.5-15.1c0.6-2.4,1.2-4.7,1.8-7.1c0.6-2.3,1.4-4.6,2.1-7.2
		c-0.9-0.3-1.6-0.7-2.2-0.6c-0.7,0.1-1.4,0.5-2,0.8c-3.1,1.8-6.3,3.1-9.8,4.1c-24.1,7-48.5,13.2-72.3,21c-4.8,1.6-9.6,3.1-14.3,5
		c-7.8,3-15.9,4.3-24.2,4.8c-3.4,0.2-6-1.1-7.6-3.8c-1.5-2.6-3-5.3-3.7-8.2c-2.4-9.2-4.6-18.6-6.7-27.9c-0.2-1,0-2.2,0-3.6
		c1.4-0.5,2.7-1.2,4.1-1.6c21.9-6,43.8-11.8,66-16.6c15.2-3.3,30.5-6.1,45.9-8.5c15.5-2.5,31.1-4.8,46.6-7.8
		c9.6-1.9,19-1.6,28.5,0.2c14.6,2.8,28.9,6.4,42.8,11.7c12,4.7,22.7,11.6,32.2,20.2C1040.5,371.3,1042.1,373.1,1043.7,374.9z
		 M1066.7,123.3c-2.1-9.9-4.5-19.7-6.8-29.6c-1-4.6-2.3-9.1-2.9-13.7c-0.6-4.1-0.4-8.2-0.6-12.3c-0.3-6,3-9.9,7.7-12.8
		c5.5-3.3,11.4-5.6,17.7-6.9c11.9-2.5,23.8-5,35.7-7.7c11-2.5,21.9-5.1,32.4-9.3c3.9-1.5,7.3-0.7,10.8,1c1.4,0.7,2.3,1.8,2.8,3.3
		c0.2,0.7,0.4,1.4,0.6,2.2c4.3,16.7,8.2,33.5,11.4,50.5c1.2,6.4,2.8,12.8,4.2,19.2c0.2,0.9,0.3,1.8,0.5,3.2c-1,0.3-1.5,0.6-2,0.6
		c-10.1,1.3-19.8,4.2-29.4,7.5c-13.5,4.6-27.1,9-40.1,14.8c-5.3,2.4-10.5,5.1-15.6,7.8c-6.5,3.5-12.2,8.1-17.2,13.5
		c-0.5,0.5-1.1,1-1.6,1.5c-0.1,0.1-0.3,0.1-0.6,0.2c-1.2-0.2-1.2-1.2-1.4-2.1C1070.6,143.9,1068.8,133.6,1066.7,123.3z M1082.9,214
		c-0.6-1.9-1.1-3.9-1.9-6.9c2.3,0.9,3.4,1.3,4.8,1.8c-0.8,1.9-1.5,3.6-2.1,5.1C1083.2,214,1082.9,214,1082.9,214z M1083.9,219.3
		c-0.1-0.2,0.2-0.5,0.3-0.7c0.1,0.2,0.1,0.3,0.2,0.5c0,0.3,0.1,0.6,0.1,0.9C1084.2,219.8,1084,219.6,1083.9,219.3z M1128.6,260.8
		c-5.1,3.6-10.7,6.2-16.5,8.1c-3.5,1.1-7.4,1.3-11.1,1.4c-4.1,0.1-6.4-2.7-8-6.1c-0.6-1.3-0.9-2.9-1.2-4.3
		c-2.3-11.4-4.6-22.8-6.8-34.2c-0.3-1.8-0.3-3.6-0.5-5.4c1.1,1,2.1,2,3.2,2.9c2.9,2.5,6.2,3.9,10.2,4c6.3,0.1,12.2-1.1,18.1-3.2
		c11.7-4.3,23.7-8.2,35-13.7c0.5-0.2,1-0.3,1.7-0.4c-0.6,1.4-1.9,1.9-2.9,2.6c-7.8,5.5-15.6,10.9-23.5,16.4
		c-2.8,1.9-5.5,3.8-8.2,5.9c-5.5,4.3-8,10.2-8.7,17c-0.1,1.3,0.1,2.6,0.4,3.9c0.7,3.8,3.2,5.8,6.9,6.4c2.6,0.4,5.2,0.3,7.8-0.5
		c1.2-0.4,2.5-0.7,3.8-1c0.8-0.3,1.6-0.6,2.3-0.9C1130.3,260.6,1129.4,260.7,1128.6,260.8z M1130.7,259.5c0.4-1,1.3-1.1,2.2-1.1
		C1132.5,259.4,1131.7,259.6,1130.7,259.5z M1198.4,219.5c-1.8,4.1-3.6,8.2-5.5,12.3c-0.9,0.3-1.5,0.7-2.2,0.9
		c-5.6,1.1-10.7,3.3-15.8,5.7c-12.3,6-24.5,12.1-36.8,18.1c-1.6,0.8-3.2,2-5.1,2c1-0.8,2-1.6,3-2.3c4.9-3.2,9.8-6.3,14.6-9.4
		c8.1-5.4,16.1-11,24.4-16.1c7.1-4.4,14.6-8.4,22-12.5c0.4-0.2,1-0.2,1.7-0.3C1198.6,218.5,1198.6,219,1198.4,219.5z M1274.7,236.9
		c-0.2,0.9-0.6,1.7-0.9,2.8c-25.1,6.7-48.3,1.2-70.2-10.5c-0.9-1.5-0.1-2.5,0.3-3.5c1.4-3.9,2.8-7.7,4.1-11.7
		c0.6-1.8,0.9-3.7,0.9-5.5c0.1-2.9-2.6-4.4-5.1-3.1c-0.5,0.3-1,0.6-1.4,0.9c-5.9,4.1-12.2,7.3-18.6,10.6
		c-12.7,6.6-24.7,14.3-36.4,22.5c-5.9,4.1-11.7,8.1-18.1,11.3c-2.7,1.3-5.5,2.5-8.3,3.5c-2.6,0.9-4-0.5-3.4-3.2
		c0.8-4.4,2.8-8.2,6.5-10.8c3.5-2.5,7.1-4.9,10.6-7.5c10.2-7.3,20.5-14.6,30.7-22c3-2.2,5.7-4.9,8.7-7.1
		c6.8-5.3,13.8-10.4,20.7-15.6c0.8-0.6,2.1-0.9,2.1-2.6c-2.1,0.3-4,0.8-6,1.3c-13.7,3.4-26.8,8.4-39.6,14.3
		c-9.2,4.2-18.5,8.2-28,11.8c-3.5,1.3-6.9,2.8-10.4,4.2c-4.4,1.7-8.9,2.8-13.7,3c-2.2,0.1-4.1-0.5-5.8-1.7c-1.8-1.3-2.4-2.9-1.5-4.9
		c1.5-3.3,3.3-6.1,7-7.6c3.8-1.5,7.5-3.5,11-5.6c15.7-9.2,32.5-15.3,50.2-19.2c6.2-1.4,12.4-3,18.5-4.8c6.1-1.8,12-4.4,17.3-8
		c1.2-0.8,2.5-1.6,3.2-3.5c-1.1-0.1-1.7-0.2-2.4-0.1c-5.9,1.2-11.8,2.3-17.6,3.7c-12,2.9-24.1,5.8-36,8.9
		c-11,2.8-21.2,7.4-31.1,12.8c-5.1,2.8-10.2,5.7-15.3,8.5c-1.6,0.9-3.3,1.8-5.1,2.3c-3.5,1.2-6.7,0.4-9.4-2.1
		c-1.8-1.6-2.1-3.3-1.2-5.6c1.8-4.4,4.5-8.3,7.6-11.7c1.1-1.2,2.7-2,4.2-2.7c6.4-2.7,12.8-5.3,19.3-7.8c20.5-7.9,41-15.7,61.4-23.6
		c4.2-1.6,8.2-3.7,12.3-5.7c0.8-0.4,1.5-1,2.2-1.4c0-1.4-1-1.2-1.6-1.2c-6.4,0.1-12.7,1.2-18.8,3.2c-6.8,2.1-13.5,4.4-20.2,7
		c-12.8,4.8-25.6,9.8-38.3,14.8c-5.8,2.3-11.5,4.7-17,7.4c-3.9,1.9-7.5,4.3-11.1,6.6c-1.4,0.9-2.8,1.8-4.6,1.8c-1.9,0-3.3-1-3.5-3
		c-0.1-1.3,0.1-2.6,0.4-3.9c1.3-4.2,3.5-7.9,6.5-11c4.9-5,10.4-9.2,16.4-12.7c8.3-4.8,17.1-8.6,26.1-11.9
		c18.6-7,37.4-13.5,56.4-19.3c3.9-1.2,7.9-2.4,11.9-4.5c-0.9-1.1-1.9-1.9-2.4-2.9c-0.5-1.2-0.6-2.6-0.7-3.9c-0.1-1.3,0-2.5,0-4.4
		c9,1,17.1,3,25.7,5.6c-0.4-1.1-0.4-1.7-0.7-1.9c-3.7-3.5-8-6.2-12.4-8.7c-1.3-0.7-2.8-1-4.3-1.2c-3.3-0.6-6.6-1.1-10-1.7
		c-1.4-5.1-2.4-9.9-2.8-15.4c1.5,0.7,2.5,1.2,3.4,1.7c4.2,2.4,8.4,4.9,12.7,7.2c6.8,3.6,13.3,7.7,19.5,12.3
		c7.6,5.6,14.4,12.1,20,19.6c1.7,2.3,3.6,4.3,5.7,6.2c15.2,14.2,25.6,31.3,31,51.4c2.1,8,3,16.2,3.2,24.5
		C1278.6,213.6,1277.5,225.4,1274.7,236.9z"/>
	<path id="XMLID_2548_" d="M959.4,1290.6c24.9,9.1,60.4,3.2,84-13.7c-0.6-2.5-2-4.7-3.3-6.9c-2.7-4.4-4.2-9.1-5.3-14.1
		c-4.7-21.6-8.7-43.4-12.6-65.2c-4.5-25.1-9.1-50.2-14.2-75.2c-0.4-2.1-1.1-4.3-0.9-6.5c3.4-0.1,3.4-0.1,9.5,2.7
		c0.4,1.3,1,2.9,1.3,4.5c3.5,18,7.1,36.1,10.3,54.2c5,27.7,9.7,55.4,14.5,83.1c0,0.2,0.1,0.4,0.1,0.6c1.1,12.4,7.8,22.1,15,31.5
		c1.2,1.6,3,2.8,4.8,3.9c11.5,7.1,23,14.2,34.6,21.1c20.2,12,40.2,24.2,59.7,37.2c5.6,3.7,11.1,7.7,16.5,11.7c3,2.3,5.7,4.9,8.4,7.5
		c1.1,1,2,2.2,2.9,3.4c2,2.7,2.9,5.7,1.4,9c-0.2,0.5-0.4,1-0.7,1.6c-2.1,1.2-4.5,1.7-7,1.7c-6.7-0.1-13.5-0.2-20.2-0.5
		c-6.4-0.3-12.7-0.8-19.1-1.2c-11.4-0.8-22.7-2.6-33.9-4.8c-28.7-5.8-57-13.3-84.7-22.7c-13.5-4.6-26.8-9.7-40.2-14.5
		c-3.2-1.1-6.4-2-10.1-3.2c-3.2-4.5-6.2-9.7-8.4-15.3c-0.9-2.4-1.9-4.9-2.6-7.4c-2.5-8.8-5.7-17.5-9.1-26
		c-9.5-23.9-16.7-48.6-23.6-73.3c-12.5-45.4-24.3-91-35.7-136.6c-2.1-8.4-4-16.8-5.9-25.2c-0.3-1.4-1.4-9-0.5-10.6
		c3,0.7,3.6,0.3,6.5,2c0.5,1.6,3.5,11.3,4,13.1c9.5,41.5,20.4,82.7,31.1,123.8c5.6,21.4,11.5,42.7,17.7,64
		c3.9,13.3,8.7,26.4,13,39.5C957.8,1285.8,958.7,1288.3,959.4,1290.6z M1047.4,1280.4c-0.9,0.5-1.8,1-2.5,1.5
		c-10.4,7-21.7,11.8-33.8,15c-16.2,4.2-32.2,4.4-48.1-1.3c-0.4-0.2-1,0-1.9,0c1.6,5.7,3.1,11.2,4.7,16.5c1.7,5.5,3,11.2,5.6,16.3
		c0.9,0.4,1.5,0.8,2.2,1c7.8,2.6,15.7,5.1,23.5,7.8c32.6,11.4,65.4,21.8,99.2,29.1c12.5,2.7,24.9,5.3,37.6,7.1
		c11.5,1.6,23,3,34.6,4.4c3.2,0.4,6.4,0.4,9.5,0.4c1.3,0,2.6-0.4,2.9-2.1c-0.4-1.7-1.8-2.8-2.9-4c-4.8-5.1-10.6-9-16.3-12.8
		c-17.2-11.4-34.6-22.5-52.3-33.1c-1.1-0.7-2.3-1.2-3.5-1.9c-2.6,1.2-4.7,2.7-6.8,4.3c-5.3,4.1-10.6,8.3-16,12.5
		c-0.7,0.6-1.5,1-2.4,1.3c-0.4,0.1-1.1-0.2-1.4-0.5c-0.3-0.3-0.5-1.1-0.3-1.5c0.5-1,1.2-1.9,2-2.6c2.9-2.4,5.8-4.7,8.9-6.9
		c3.9-2.8,8-5.5,12.3-8.4c-3.3-2.7-6.5-4.8-10.5-6c-2.5,1.9-5.2,3.7-7.6,5.8c-4.7,4.3-9.2,8.8-13.9,13.2c-0.3,0.3-0.6,0.6-0.9,0.7
		c-0.5,0.1-1.2,0.2-1.6-0.1c-0.4-0.3-0.7-0.9-0.7-1.4c0.1-0.7,0.3-1.5,0.8-2.1c0.8-1,1.7-2,2.6-2.9c5.5-4.9,10.7-10,16.6-14.3
		c0.4-0.3,0.6-0.8,1-1.4c-3.3-2.4-6.6-4.4-10.1-6.3c-5.8,2.5-11.1,5.7-15.9,9.7c-2.9,2.4-5.7,4.8-8.6,7.2c-0.5,0.4-1.3,0.6-1.9,0.8
		c-1.1-1.7-1.3-2.1-0.9-2.6c0.6-0.7,1.1-1.6,1.8-2.1c5.8-4.8,11.4-9.8,18.1-13.3c1.1-0.6,2.5-0.9,2.9-2.3c-0.2-0.3-0.3-0.7-0.5-0.9
		c-4.4-3.4-8.9-6.9-13.4-10.3c-2.7-2-5.2-4.3-7.3-6.9C1050.8,1284.6,1049.1,1282.6,1047.4,1280.4z"/>
	<path id="XMLID_2547_" d="M804.8,877.5c-3.2-0.5-3.2-0.5-7-3.2c-0.9-1.7-0.4-3.6-0.2-5.5c1-10.8,2-21.7,3.1-32.5
		c0.8-8.4,1.9-16.8,2.8-25.2c0.8-7.1,1.5-14.2,2.1-21.3c0.2-2.8-0.5-5.6,0.6-8.3c1.4-3.5,3.2-6.8,5.7-9.6c2.4-2.6,4.6-2.8,7.6-1
		c2.7,1.6,4.4,3.7,5.4,6.8c10.7,33.4,20.2,67.1,29,101.1c1.4,5.3,2.7,10.5,4.1,15.8c0.4,1.6,0.8,3.2,0.7,4.8
		c-0.5,0.2-0.7,0.4-0.8,0.3c-2.7-1.3-5.3-2.6-8.1-4c-0.6-1.9-1.2-3.7-1.7-5.4c-8.9-34.3-17.7-68.6-26.6-102.9
		c-0.5-1.8-1-3.6-1.4-5.4c-0.4-2-1.6-3.3-3.5-3.9c-1.3,0.2-1.9,1.1-2.3,2.1c-0.4,1-0.6,2.2-0.7,3.3c-0.9,10.3-1.6,20.6-2.6,30.8
		c-0.9,9.7-1.9,19.4-2.9,29.1c-0.6,5.8-1,11.6-1.5,17.4c-0.4,5-0.8,10.1-1.2,15.1C805.2,876.5,804.9,877,804.8,877.5z"/>
	<path id="XMLID_2546_" d="M749.7,469.3c-0.1,3.8-4.3,6-7.8,4.2c-2.2-1.2-3.7-3.1-4.4-5.5c-0.5-1.7,0-3.3,1.3-4.6
		c3.1-2.9,6.6-2.6,9.1,0.7C749,465.6,749.8,467.7,749.7,469.3z"/>
	<path id="XMLID_2545_" d="M558.6,949.4c0.5-0.8,1.3-0.9,1.8-0.3c0.8,0.8,1.4,1.7,2,2.7c3.1,5.7,6.1,11.5,9.2,17.3
		c0.2,0.3,0.4,0.7,0.3,1c-0.1,0.5-0.3,1.2-0.7,1.3c-0.4,0.2-1.2,0.1-1.5-0.2c-0.7-0.6-1.2-1.4-1.6-2.2c-3.1-6.1-6.2-12.3-9.3-18.5
		C558.6,950.2,558.7,949.8,558.6,949.4z"/>
	<path id="XMLID_2544_" d="M644.7,1067.7c3.9,7,6.9,13.2,9.3,19.6c0.4,1.1,0.7,2.2-0.2,3.2c-0.3,0-0.8,0.1-1-0.1
		c-0.4-0.3-0.8-0.8-1-1.3c-2.3-5.3-4.6-10.6-6.9-16c-0.4-1-0.8-2.1-1-3.2C643.8,1069.5,644.2,1069,644.7,1067.7z"/>
	<path id="XMLID_2543_" d="M603.9,986.5c0.6-0.3,1-0.5,1.7-0.8c2.7,5.9,5.3,11.7,7.9,17.5c0.2,0.5,0.2,1.1,0.2,1.6
		c0,0.3-0.3,0.9-0.5,0.9c-0.5,0.1-1,0-1.5-0.1c-0.3-0.1-0.5-0.5-0.7-0.8c-2.3-5.3-4.5-10.7-6.7-16.1
		C604,988.1,604,987.3,603.9,986.5z"/>
	<path id="XMLID_2542_" d="M672.4,1143.2c1.2,0,1.7,0.9,2.1,1.6c3.3,5.3,5.7,11,7.4,17c0.3,1.1-0.1,1.8-1.2,2.1
		c-0.3-0.2-0.8-0.3-0.9-0.6c-2.7-6.4-5.3-12.8-7.9-19.2c-0.1-0.1,0.1-0.3,0.2-0.5C672.1,1143.4,672.3,1143.3,672.4,1143.2z"/>
	<path id="XMLID_2541_" d="M637.2,1146c-0.2-0.1-0.4-0.2-0.5-0.3c-3.2-5.9-6.4-11.7-9.6-17.6c-0.4-0.7-0.5-1.4,0.6-2.1
		c0.5,0.4,1.2,0.7,1.5,1.2c3,5.1,6,10.3,8.9,15.5c0.3,0.6,0.4,1.4,0.5,2.1C638.6,1145.7,638,1146,637.2,1146z"/>
	<path id="XMLID_2540_" d="M651.4,1190.3c0.5,0.2,1.1,0.3,1.4,0.7c3.5,4.6,5.5,9.8,6.7,15.3c0.1,0.3,0,0.8-0.1,1.1
		c-0.3,0.4-0.7,0.8-1.2,1c-0.2,0.1-0.7-0.2-0.9-0.4c-0.3-0.2-0.5-0.6-0.6-0.9c-1.1-5-3.1-9.6-5.4-14.2
		C650.9,1192,650.5,1191.2,651.4,1190.3z"/>
	<path id="XMLID_2539_" d="M576.1,894.1c0.4,0.1,0.7,0,0.8,0.1c3.7,4.3,6.6,9.1,8.3,14.5c0.2,0.7,0.3,1.5,0.3,2.2
		c0,0.8-0.5,1.3-1.4,1.4c-0.2-0.1-0.3-0.1-0.5-0.2c-0.2-0.1-0.3-0.2-0.4-0.3c-0.1-0.1-0.3-0.3-0.3-0.5c-2.4-5.5-4.7-11-7.1-16.5
		C575.7,894.7,575.9,894.5,576.1,894.1z"/>
	<path id="XMLID_2538_" d="M377.3,1134.7c2,0.4,1.9,1.5,1.8,2.3c-0.2,3.7-0.5,7.4-0.9,11.1c-0.3,2.6-0.7,5.1-1.2,7.7
		c-0.2,1-0.8,1.7-1.9,1.5c-0.2-0.3-0.6-0.6-0.5-0.9C375.5,1149.3,376.4,1142.1,377.3,1134.7z"/>
	<path id="XMLID_2537_" d="M528.3,881.2c3.5,5,6.5,9.3,8.3,14.3c0.3,0.9,0.4,1.8,0.5,2.7c0,0.3-0.3,0.9-0.5,0.9
		c-0.5,0.1-1.1,0.1-1.5-0.2c-0.4-0.3-0.7-0.9-0.9-1.4c-1.8-3.7-3.7-7.4-5.5-11.1c-0.5-1-1-2-1.3-3.1
		C527.3,883,527.7,882.5,528.3,881.2z"/>
	<path id="XMLID_2536_" d="M602.5,1065.9c-0.6-0.4-1-0.5-1.2-0.8c-0.8-1.5-1.6-3-2.3-4.5c-2-4.4-4-8.8-5.9-13c0.8-1.1,1.6-0.8,2-0.2
		c0.8,1,1.5,2.1,2.1,3.3c2.1,4.2,4.1,8.4,6,12.6C603.7,1064.2,603.8,1065.1,602.5,1065.9z"/>
	<path id="XMLID_2535_" d="M400,918.2c-0.4-5.5,1.1-18.6,2.5-22.9c1.2,0.4,0.9,1.5,0.9,2.3c-0.3,6.7,0,13.5-2.1,20
		C401.2,917.8,400.7,917.9,400,918.2z"/>
	<path id="XMLID_2534_" d="M394.1,974.5c0.7,0.2,1,0.3,1.3,0.5c0.1,0.1,0.3,0.3,0.3,0.4c0.7,6.8,1.8,13.6,0,20.3
		c-0.2,0.7-1.3,0-1.5-0.7c-0.2-0.5-0.2-1.1-0.2-1.7c-0.1-4.6-0.2-9.3-0.2-13.9C393.8,977.8,394,976.2,394.1,974.5z"/>
	<path id="XMLID_2533_" d="M414.9,847.5c0.2,0.3,0.5,0.6,0.6,0.9c0.1,5.2,0.2,10.5,0.3,15.7c0,0.4-0.1,0.8-0.3,1.1
		c-0.2,0.3-0.5,0.5-0.8,0.6c-0.3,0-0.7-0.2-0.9-0.4c-0.2-0.2-0.4-0.6-0.4-1c0-5.1-0.1-10.1,0-15.2
		C413.2,848.2,413.6,847.4,414.9,847.5z"/>
	<path id="XMLID_2532_" d="M685.1,1265.3c1.3,0.4,1.9,0.4,2.2,0.8c3.3,4,6.3,8.3,8.4,13.1c0.2,0.5,0.2,1.2,0,1.6
		c-0.2,0.3-0.9,0.6-1.3,0.5c-0.5-0.1-0.9-0.6-1.2-1.1c-2.5-4.2-4.9-8.4-7.3-12.5C685.6,1267.1,685.5,1266.6,685.1,1265.3z"/>
	<path id="XMLID_2531_" d="M386.9,1070.8c1.1,4.3,0.4,11.5-2,21.3c-1,0.2-1.4-0.5-1.4-1.2c0-1.7-0.1-3.4,0.2-5
		c0.7-4.8,1.6-9.6,2.5-14.4C386.2,1071.3,386.6,1071.1,386.9,1070.8z"/>
	<path id="XMLID_2530_" d="M536.4,827.3c0.9,0.8,1.7,1.3,2.2,2c2.4,3.6,3.8,7.7,5,11.8c0,0.2,0.1,0.4,0,0.5
		c-0.3,0.4-0.6,0.9-1.1,1.1c-0.2,0.1-0.8,0-1-0.2c-0.4-0.4-0.8-0.8-1-1.3c-1.6-4-3.1-8-4.6-12C535.8,828.8,536.2,828.2,536.4,827.3z
		"/>
	<path id="XMLID_2529_" d="M711.4,1233.1c1.4,0,1.9-0.2,2.1,0c3.3,3.4,5.6,7.4,7.2,11.9c0.1,0.3,0.1,0.9-0.1,1.1
		c-0.4,0.3-0.9,0.4-1.4,0.6c-0.1,0-0.4-0.1-0.5-0.2C716.2,1242.2,714.1,1237.9,711.4,1233.1z"/>
	<path id="XMLID_2528_" d="M739.9,1337.5c-0.6-0.4-1.6-0.6-1.8-1.1c-2.3-4.7-4.4-9.4-6.5-14.2c-0.4-1,0-1.8,1.5-1.8
		c0.4,0.5,0.9,1.1,1.2,1.7c1.8,4.1,3.6,8.2,5.4,12.3c0.5,1.1,0.6,2.1,0.1,3.2L739.9,1337.5z"/>
	<path id="XMLID_2527_" d="M399.7,1232.3c0.1,0.6,0.4,1.3,0.3,1.9c-0.2,3.3-2.7,12.7-4.3,16.3c-0.4-0.5-1-0.9-0.9-1.2
		c0.1-1.7,0.4-3.3,0.6-5c0.1-0.5,0.3-1.1,0.5-1.6c1-3.4,1.9-6.8,2.9-10.2C399,1232.4,399.4,1232.4,399.7,1232.3z"/>
	<path id="XMLID_2526_" d="M372.1,1310.1c-1.1-3.1-0.9-7.1,0.6-12.8c0.6-2.2,0.8-2.5,2.5-3.9c0.2,0.3,0.6,0.6,0.6,0.8
		c-1,5.1-1.9,10.2-3,15.3C372.8,1309.7,372.4,1309.9,372.1,1310.1z"/>
	<path id="XMLID_2525_" d="M426.5,1089.1c-1.2,5.1-2.5,10.1-3.7,15.2c-0.1,0.5-0.5,1-0.7,1.4c-1,0.3-1.5-0.2-1.5-1
		c0-0.6,0-1.1,0.1-1.7c1.2-4.3,2.4-8.6,3.7-12.9c0.2-0.6,0.8-1.1,1.3-1.6C425.9,1088.7,426.2,1088.9,426.5,1089.1z"/>
	<path id="XMLID_2524_" d="M409.9,1157.3c0.9,0.6,1.1,0.6,1.1,0.7c0.7,4.3-1.2,8.4-1.4,12.6c-0.1,1.4-0.9,2.8-1.3,4
		c-1.2,0.1-1.8-0.3-1.7-1.2c0.5-3.5,1.1-6.9,1.8-10.4C408.8,1161.3,409.3,1159.6,409.9,1157.3z"/>
	<path id="XMLID_2523_" d="M435.3,1010.2c0.2,0.9,0.5,1.2,0.4,1.5c-0.4,4.4-0.8,8.8-1.2,13.3c-0.1,1-0.4,1.8-1.8,1.7
		c-1.6-2.3-0.6-4.9-0.4-7.4C432.8,1014.2,433.2,1013.1,435.3,1010.2z"/>
	<path id="XMLID_2522_" d="M436.7,911c2.2,0.4,2.3,1.9,2.3,3.1c0,3.6,1.1,7.3-1.3,10.8c-0.6-0.5-1.3-0.8-1.3-1.2
		C436.2,919.5,436.7,915.3,436.7,911z"/>
	<path id="XMLID_2521_" d="M358.8,1246.5c0.7,5.2,0.5,9.7-1.4,14.4c-0.6-0.4-1.3-0.7-1.3-0.9c0.4-4,0.8-8.1,1.3-12.1
		C357.5,1247.6,357.9,1247.4,358.8,1246.5z"/>
	<path id="XMLID_2520_" d="M700,1323.3c-0.5,0.1-1.2,0.5-1.4,0.4c-0.7-0.6-1.4-1.4-1.6-2.2c-1-3-1.8-6.1-2.6-9.1
		c-0.1-0.4,0.2-1,0.3-1.6C697.3,1312.8,697.4,1313.1,700,1323.3z"/>
	<path id="XMLID_2519_" d="M378.2,1220.9c-1.2-1.4-2-1.8-2.1-2.4c-0.6-3.8-0.5-7.7,0.4-11.5c0.1-0.3,0.5-0.4,0.8-0.6
		c1.1,2,1.1,1.9,1,6.6C378.1,1215.2,378.2,1217.4,378.2,1220.9z"/>
	<path id="XMLID_2518_" d="M697.6,710.9c0.2,0.2,0.4,0.4,0.6,0.6c-0.2,0.2-0.4,0.3-0.7,0.5c0,0-0.3-0.2-0.3-0.3
		C697.3,711.4,697.5,711.2,697.6,710.9z"/>
	<path id="XMLID_2517_" d="M720.9,319.3c0,3.8-2,6.6-5.2,7.6c-0.7,0.2-1.6,0.2-2.1-0.1c-0.5-0.3-1-1.3-0.8-1.8
		c0.2-0.8,0.9-1.6,1.5-2.2c1.9-1.8,2.1-3.8,0.9-6.1c-0.9-1.6-1.7-3.3-2.7-4.9c-0.6-1-1.3-1.8-1.9-2.7c-1.1-1.7-1.1-2.7-0.3-3.5
		c0.8-0.8,2-0.6,3.4,0.7c2.1,2.1,4,4.4,5.3,7.1c0.5,1,1,2,1.4,3.1C720.7,317.6,720.8,318.8,720.9,319.3z"/>
	<path id="XMLID_2516_" d="M722,337.5c0.7,0.5,1.5,1,2.1,1.7c1.6,1.9,1.6,3.7,0.2,5.6c-1,1.4-2.4,2.4-4.1,2.7
		c-0.6,0.1-1.3-0.2-2.4-0.4c1-1.7,1.9-3.1,2.7-4.5c-0.6-2.3-3.4-1.5-4.1-3c-1.1-2,0.6-3,0.8-4.7c-0.9-0.4-1.8-0.8-2.8-1.2
		c-0.6-1.1,0-1.8,0.8-2.3c1.3-0.9,2.8-1,4.3-0.5c1.8,0.5,2.8,1.8,2.8,3.7C722.4,335.3,722.2,336.2,722,337.5z"/>
	<path id="XMLID_2515_" d="M764.3,318.5c0-3.6,0.7-6.5,2.7-8.9c0.3-0.3,1.1-0.5,1.5-0.4c0.4,0.1,0.9,0.8,0.9,1.2
		c0,1.1-0.2,2.2-0.5,3.3c-0.8,2.6-0.8,5.1,0,7.8c0.3,1.1,0.4,2.2,0.5,3.3c0,0.4-0.4,1.1-0.8,1.2c-0.4,0.1-1.1-0.1-1.5-0.4
		c-1.4-1.1-2-2.7-2.4-4.3C764.4,320.2,764.4,319.1,764.3,318.5z"/>
	<path id="XMLID_2514_" d="M727.5,310.4c-0.4,0.8-0.7,1.7-1.2,2.4c-0.6,1-2.5,0.9-2.8-0.1c-1-3-1.8-6-2.5-9
		c-0.2-0.9,0.8-1.8,1.7-1.8c0.7-0.1,1.6,0.2,2,0.6C726.5,304.7,726.9,307.5,727.5,310.4z"/>
	<path id="XMLID_2513_" d="M650,342.4c0,0.2,0.1,0.9-0.2,1.3c-0.5,0.8-1,1.5-1.8,2c-0.7,0.4-2-0.7-2.2-2c-0.6-2.7-1.1-5.5-1.6-8.3
		c-0.1-0.4,0.3-1.3,0.7-1.4c0.6-0.2,1.5-0.3,2.1,0c0.6,0.3,1.2,0.9,1.5,1.6C649.6,337.6,650.1,339.8,650,342.4z"/>
	<path id="XMLID_2512_" d="M700.5,311.2c-0.1,0.6-0.2,1-0.3,1.3c-0.3,1-2,1.5-2.7,0.8c-2-2.1-3-4.6-2.7-7.5c0-0.5,0.5-1,0.8-1.4
		c0.5-0.7,1.9-0.7,2.4-0.1C699.6,306.4,700.1,308.9,700.5,311.2z"/>
	<path id="XMLID_2511_" d="M356.7,457.8c0.3-2,0.5-3.2,0.7-4.6c-0.8-2.5-2.6-4.4-4.5-6.2c-0.8-0.8-1.8-1.4-2.4-2.3
		c-0.4-0.5-0.5-1.6-0.2-2c0.3-0.5,1.2-0.7,1.9-0.8c0.5-0.1,1.1,0.1,1.6,0.4c3.9,2.1,6.6,5.4,8.2,9.6c0.9,2.4-0.3,4.8-2.7,6
		C358.8,458.1,358,457.8,356.7,457.8z"/>
	<path id="XMLID_2510_" d="M329.2,440.9c0.4,0,0.6,0,0.8,0.1c1.9,0.9,4.2,4.7,4.1,6.8c-0.1,1.2-1.8,2.1-3,1.5
		c-2.6-1.3-4.1-4.1-3.6-6.9c0.1-0.3,0.3-0.7,0.5-0.9C328.3,441.2,328.9,441.1,329.2,440.9z"/>
	<path id="XMLID_2509_" d="M368.9,441c-0.7-0.2-1.1-0.2-1.4-0.3c-1.7-1-2.7-2.6-2.6-4.6c0-0.6,0.7-1.4,1.2-1.7
		c0.6-0.3,1.6-0.3,2.1,0c1.7,1.1,2.6,2.8,2.2,4.8C370.3,439.9,369.4,440.4,368.9,441z"/>
	<path id="XMLID_2508_" d="M491.9,436.9c0.3-1.3,0.7-2.7,1-4c-0.7-1.8-2.3-2.5-3.7-3.4c-0.9-0.6-1.9-1.2-2.7-2c-0.3-0.3-0.1-1,0-1.5
		c0.1-0.3,0.6-0.4,0.9-0.6c0.2-0.1,0.4-0.1,0.5-0.1c3.2,0.7,5.9,2.3,8.1,4.7c2.5,2.8,0.8,6.8-3,7.5
		C492.8,437.6,492.5,437.2,491.9,436.9z"/>
	<path id="XMLID_2507_" d="M428.9,454.6c1.2-1.8,2.4-3.6,3.5-5.5c1.3-0.1,1.7,0.9,1.9,1.7c0.7,2.7,0.7,5.5,0,8.3c-0.7,0-1.2,0-1.8,0
		c-0.3-1.1-0.6-2.2-0.9-3.2C430.9,455.3,429.2,456.3,428.9,454.6z"/>
	<path id="XMLID_2506_" d="M469.2,427.2c0.8,0.3,1.4,0.3,1.7,0.7c1.4,1.3,2.1,3,2,5c-0.1,1.3-1.8,2.2-2.9,1.6
		c-1.8-1.2-2.9-3.3-2.4-5.2C467.8,428.5,468.6,427.9,469.2,427.2z"/>
	<path id="XMLID_2505_" d="M536.2,420.4c0.8-1.2,1.6-2.3,2.7-3.9c0.8,1.7,1.4,3,2.1,4.5c1,0.7,2.2,1.5,3.4,2.4
		c0.2,0.2,0.3,0.7,0.1,1c-0.1,0.3-0.6,0.6-0.9,0.5C540.7,424.4,538.1,423.2,536.2,420.4z"/>
	<path id="XMLID_2504_" d="M501.2,419.5c0.2,0.1,0.9,0.2,1.2,0.6c0.7,0.8,1.3,1.8,1.7,2.8c0.2,0.6,0.1,1.5-0.3,2
		c-0.6,0.8-1.6,0.9-2.5,0.5c-1.5-0.6-2.3-1.8-2.6-3.3C498.4,420.8,499.7,419.4,501.2,419.5z"/>
	<path id="XMLID_2501_" d="M1088.3,72.7c0,0.1,0,0.5-0.1,0.8c-0.5,4.4-3.7,8-7.3,7.8c-3.6-0.1-8.5-3.8-8.2-9c0-0.6,0.1-1.1,0.1-1.7
		c0.5-3.6,2.6-6.3,5.7-6.8c3.4-0.6,6.2,0.6,8.4,3.3C1088.2,68.7,1088.4,70.5,1088.3,72.7z M1077.9,73.8c-0.1,1.8,0.6,2.8,1.8,3.2
		c1.6,0.4,2.8-0.2,3.6-1.7c0.2-0.5,0.5-1,0.6-1.5c0.5-2.1-0.9-4-3.2-4.3c-1.3-0.2-2.4,0.9-2.7,2.9
		C1077.9,72.9,1077.9,73.4,1077.9,73.8z"/>
</g>
<path id="XMLID_2499_" class="st2" d="M324.2,658.7c50.6-2.6,102.3-15,154.8-34.3l-11.5-26.6c-59.2,22.4-121.4,36.3-186.7,41.6
	C281.7,647.9,305.7,652.6,324.2,658.7z"/>
<path id="XMLID_2498_" class="st2" d="M478.6,610.9c17-3.5,33.2-11.3,48.4-22.9l9.4,15.1c-9.7,14.6-27,22.7-47.8,27.8L478.6,610.9z"
	/>
<path id="XMLID_2497_" class="st2" d="M223.2,550l15.5,28.8c25.2-3.9,48-14.5,69.1-30l-15.7-32.5C270.9,534.6,247.9,545.6,223.2,550
	z"/>
<g id="XMLID_2494_">
	<path id="XMLID_2719_" d="M357.4,43.1c0,0,0.8,1,2.2,2.7c1.4,1.7,3.3,4.2,5.5,7.2c1.1,1.5,2.3,3.2,3.5,4.9c1.2,1.8,2.6,3.6,3.8,5.6
		c1.3,2,2.7,3.9,4,6c1.3,2.1,2.7,4.2,4,6.3c1.3,2.1,2.6,4.3,3.9,6.4c1.3,2.1,2.5,4.2,3.6,6.2c1.2,2,2.3,4,3.3,5.9
		c1,1.9,2,3.7,2.9,5.4c1.7,3.3,3.1,6.2,4,8.2c0.9,2,1.4,3.2,1.4,3.2s-0.8-1-2.2-2.7c-1.4-1.7-3.3-4.2-5.5-7.2
		c-1.1-1.5-2.3-3.2-3.5-4.9c-1.2-1.8-2.5-3.6-3.8-5.6c-1.3-2-2.7-3.9-4-6c-1.3-2.1-2.7-4.2-4-6.3c-1.3-2.1-2.6-4.3-3.9-6.4
		c-1.3-2.1-2.5-4.2-3.6-6.2c-1.2-2-2.3-4-3.3-5.9c-1-1.9-2-3.7-2.9-5.4c-1.7-3.3-3.1-6.2-4-8.2C357.9,44.3,357.4,43.1,357.4,43.1z"
		/>
</g>
<g id="XMLID_2491_">
	<path id="XMLID_2717_" class="st0" d="M392,1390c0,0,1.7-2.2,4.3-5.4c2.6-3.2,6.2-7.5,9.9-11.6c3.8-4.1,7.7-8.2,11.3-10.8
		c0.9-0.7,1.8-1.2,2.7-1.8c0.9-0.5,1.7-0.9,2.5-1.1c0.4-0.1,0.7-0.3,1.1-0.3c0.4-0.1,0.7-0.1,0.9-0.2c0.5-0.1,0.8-0.1,0.8-0.1
		l-0.1,7c0,0-0.1,0-0.2,0c-0.1,0-0.1,0-0.2,0c-0.1,0-0.3,0-0.5,0.1c-0.4,0-0.9,0.2-1.6,0.4c-0.7,0.3-1.4,0.6-2.3,1
		c-3.4,1.7-7.8,5-12.1,8.4c-4.3,3.4-8.4,7.1-11.5,9.8C394.1,1388.2,392,1390,392,1390z"/>
</g>
<g id="XMLID_2488_">
	<path id="XMLID_2651_" class="st0" d="M788.8,1393.2c0,0,1.2-2.5,3-6.2c1.8-3.7,4.3-8.7,7-13.6c2.7-4.9,5.7-9.7,8.6-13.1
		c0.7-0.9,1.5-1.6,2.2-2.3c0.8-0.7,1.4-1.2,2.2-1.7c0.4-0.2,0.6-0.4,1-0.6c0.4-0.1,0.6-0.3,0.9-0.4c0.5-0.2,0.8-0.3,0.8-0.3l1.5,6.9
		c0,0-0.1,0-0.2,0c-0.1,0-0.1,0-0.2,0c-0.1,0-0.3,0.1-0.4,0.2c-0.3,0.1-0.8,0.4-1.4,0.8c-0.6,0.4-1.3,0.9-2,1.5
		c-2.9,2.4-6.5,6.6-9.9,10.9c-3.4,4.3-6.6,8.8-9,12.2C790.4,1390.9,788.8,1393.2,788.8,1393.2z"/>
</g>
<path id="XMLID_2487_" class="st2" d="M785.3,502.7c13.8,60.2,58.2,51,44.4-9.2L785.3,502.7z"/>
<line id="XMLID_2486_" class="st3" x1="785.3" y1="498.4" x2="826.5" y2="488.6"/>
<polygon id="XMLID_2485_" class="st2" points="1133.9,741.1 1129.3,759.3 1142.6,755.8 1142.6,773.4 1157.1,769.5 1158.6,788.1 
	1178.3,776.9 "/>
<polygon id="XMLID_2484_" class="st2" points="982.4,987.4 985.4,1011.6 998.3,1004.9 1005.3,1023.7 1020.9,1013.8 1022.9,1030 
	1043.8,1020.3 "/>
</svg>
