<?xml version="1.0" encoding="utf-8"?>
<!-- Generator: Adobe Illustrator 22.1.0, SVG Export Plug-In . SVG Version: 6.00 Build 0)  -->
<svg version="1.1" id="Layer_6" xmlns="http://www.w3.org/2000/svg" xmlns:xlink="http://www.w3.org/1999/xlink" x="0px" y="0px"
	 viewBox="0 0 1527.1 1502.4" style="enable-background:new 0 0 1527.1 1502.4;" xml:space="preserve">
<style type="text/css">
	.st0{fill:#E84B6C;}
	.st1{fill:none;stroke:#000000;stroke-width:4;stroke-miterlimit:10;}
	.st2{fill:none;}
	.st3{fill:#FFFFFF;}
	.st4{fill:none;stroke:#000000;stroke-width:3;stroke-miterlimit:10;}
	.st5{fill:none;stroke:#000000;stroke-width:6;stroke-miterlimit:10;}
	.st6{fill:none;stroke:#FFFFFF;stroke-miterlimit:10;}
	.st7{fill:none;stroke:#000000;stroke-width:5;stroke-miterlimit:10;}
	.st8{fill:none;stroke:#FFFFFF;stroke-width:4;stroke-miterlimit:10;}
	.st9{fill:none;stroke:#000000;stroke-miterlimit:10;stroke-dasharray:5;}
</style>
<path id="XMLID_208_" class="st0" d="M577.4,598c-21.9-9.4-38.7-28.1-50.4-48.9c-21.9-39.1-27-87.3-13.8-130.1
	c12.5,18.2,25,36.3,37.6,54.5c5.2-42.8,17.5-84.7,36.3-123.5c2.2,21.5,10.5,42.2,23.6,59.4c18.3-49.5,37.3-98.7,57.2-147.5
	c5.3,51.3,13.3,102.2,24.1,152.6c13.8-28.6,27.6-57.3,41.4-85.9c5.2-10.8,10.6-21.9,19-30.5c2.8,44.6,2.3,89.5-1.6,134
	c33.9-16.4,63.1-42.5,83.1-74.5c12.9,48.4-6.3,98.9-25.2,145.2c24.9-3.5,50.2-3.7,75.1-0.8c-22,31.2-44.1,62.4-66.1,93.6
	c12.7-0.6,25.3-1.2,38-1.8c-11.3,12.2-23.7,25-39.9,28.6c-18.3,4.1-36.8-4.5-53.6-12.8c-5.9-2.9-12-5.9-16.9-10.4
	c-4.1-3.7-7.3-8.4-11.2-12.2c-20.1-19.4-45-9.6-71,0.8c-25.9,10.4-61.5,20.5-88.5,13.2"/>
<line id="XMLID_207_" class="st1" x1="594.8" y1="431.4" x2="634.5" y2="530.4"/>
<line id="XMLID_206_" class="st1" x1="490.3" y1="505.8" x2="550" y2="554"/>
<line id="XMLID_205_" class="st1" x1="520.2" y1="311" x2="544.7" y2="398.4"/>
<line id="XMLID_204_" class="st1" x1="694.9" y1="340" x2="689.8" y2="452"/>
<line id="XMLID_203_" class="st1" x1="732.8" y1="553.1" x2="786.2" y2="480.9"/>
<line id="XMLID_202_" class="st1" x1="824.4" y1="536.6" x2="883.8" y2="471.2"/>
<line id="XMLID_201_" class="st1" x1="737.6" y1="452" x2="794.8" y2="340"/>
<line id="XMLID_200_" class="st1" x1="716.6" y1="247.2" x2="711.8" y2="283.6"/>
<line id="XMLID_199_" class="st1" x1="594.8" y1="257.8" x2="603" y2="289.2"/>
<line id="XMLID_198_" class="st1" x1="889.3" y1="345.7" x2="864.5" y2="389.9"/>
<line id="XMLID_197_" class="st1" x1="490.3" y1="385.8" x2="506" y2="401.7"/>
<circle id="XMLID_196_" cx="591.7" cy="250" r="4.5"/>
<circle id="XMLID_195_" cx="549.3" cy="409.9" r="4.5"/>
<circle id="XMLID_194_" cx="799.4" cy="332.8" r="4.5"/>
<circle id="XMLID_193_" cx="803.9" cy="463.2" r="4.5"/>
<circle id="XMLID_192_" cx="569.6" cy="569" r="4.5"/>
<circle id="XMLID_191_" cx="759.5" cy="288.2" r="4.5"/>
<g id="XMLID_188_">
	<path id="XMLID_190_" class="st2" d="M1030.4,710.1"/>
</g>
<polygon id="XMLID_187_" class="st0" points="213.7,1397.8 251.7,1404.5 258.5,1358 274.1,1397.2 494.8,1419.7 458.6,1386.4 
	391.9,1345.9 340.5,1319.4 268.2,1319.4 224.6,1302.2 217.5,1356.3 "/>
<polygon id="XMLID_186_" class="st0" points="441.4,1302.2 427.1,1361 472.2,1368.3 481.5,1326.7 484.8,1371.6 700.7,1397.2 
	635.9,1347 507.3,1285.7 "/>
<polygon id="XMLID_185_" class="st3" points="427.1,1361 414.6,1375.1 411.1,1405.3 478.4,1413.2 491.8,1416.9 "/>
<polygon id="XMLID_184_" class="st3" points="625.2,1341.9 613.1,1369.7 613.1,1390.2 689.4,1390.3 "/>
<path id="XMLID_183_" class="st3" d="M362.8,186.5l31.1,4.1l32.8-10l16.7-26.3l16.7-23l-6.4-24.5l-20.2-11.1L417.2,97l-24.9,32.7
	l-54,14.5l-26.1-12.1l-8.1-1.3l-19.9,4.8l-5.5,15.8l-13.1-5.5l-11.1-2.8l-8.4,9.5l-5.5,18.7l-0.9,24.5l5.9,10.6l-15.9,5.6L214,224.3
	l7.2,11.9l9.7,3.2l-3.3,11.2l-4.6,20.4l17.9,14.8l20.3-10.6l-3.8,134.2l-21.2,93.3l-3.4,70.8l43.3,60.8
	c46.8,19.7,96.3,24.5,147.3,21.5L568,674.7l35.4,1.3l51.6-16.4l11.5-22.2l14.3-19.3l26.1-8l42.2,3.9l4-6.8l-13.4-19.3l-24.2-9.3
	l-17.2,1.8L603,605.6l-15.8-5.7l-20.1-12.2H440.6l17-66.9l5.7-92.3l-22.8-42.7l-13.3-36.5l-21.7-18.7l23.9-28.8l-47.8-18.2l-10-70.4
	L362.8,186.5z"/>
<path id="XMLID_182_" class="st3" d="M1126.7,567.6l27.9-5.7c50.5,257.8,117.5,504.8,199.3,742.1l-31.7,22.6l-56.8,2.4l-30.7-2.9
	c-57.7-221.5-112.5-446.1-162.1-565.4l-13.6,3.9l-46.9,569.9l-17.9,0.6l2.4,60.1l-22.3-5.2l-22.7-23.3l-22.4,27.5l-153,16.4
	l-6.6-6.2l19.1-19.9l110.4-42.7l58.3-636l53.3-20.3l48.8-15.5l35-32.8L1126.7,567.6z"/>
<polygon id="XMLID_181_" class="st3" points="1045.8,184.6 1040.2,198.9 1037.4,202.8 1028.6,205.7 1022.7,209.6 1022.7,217.6 
	1030.4,229.3 1037.4,229.3 1025.6,323.7 1039.3,327.8 1064.1,323.7 1097.2,311 1119,288.5 1126.8,271.3 1130.1,236.6 1145.5,229.8 
	1153.7,223.2 1153.7,212 1149.3,202.8 1134.6,198.9 1126.8,188.3 1105.1,162.9 1082.8,162.9 "/>
<path id="XMLID_180_" d="M1028.8,330.6l25.5-5.3l42.9-14.3l40.2-31.9l11.2,8.6v17.1l15.2,18.8l10,45.7l-12.2,114.8l-10.3,82
	l-21.3,3.6l-42.6,74l-58.6,42L940.5,706l-122.2-5.3l-43.8-17.3l-8.1-31.9c3.1-13.6,6-27.3,19.9-33.4l81.2-4.3l80.1-2.5l-1.1-38.7
	l45.6-54.3l13.9-38.5l-6.3-54.5l3.1-18l34.4-28.6l-2.3-27.1L1028.8,330.6z"/>
<polygon id="XMLID_179_" points="930.4,689.4 917.5,799.6 934.7,804.6 954.7,792.5 965.5,689.4 "/>
<polygon id="XMLID_178_" class="st3" points="917.5,799.6 910.2,833.2 911.5,862 928,895.8 937.9,892.7 944.7,882 953.3,799.6 
	941.5,804.6 924.7,804.6 "/>
<path id="XMLID_177_" class="st3" d="M773.6,618l-32.2-11.5h-35.8l-27.4,13.8l-7.5,11.3l-12.6,30.7l-25.6,7.7l-29.5,3.3l-22.3,1.7
	l-2.1,10.2l8.6,12.4l7.5,2.9l8.3,9.5l8.2,9.4h22.3l16.9-0.2l1.2,6.4h17.2h21.5l5.2,6.7c0,0,9.1-1,10.6,0c1.5,1,17.7-6.5,21-6.7
	s39.3-25.2,39.3-25.2l9.4-13.7l-2.2-13.4l-4.1-20V634l5.1-12.5l1.2-3"/>
<path id="XMLID_176_" d="M1115.9,1401.8l32.9-20l64.4-31.5l31.5-15.1h40.8l43.7-16.2l18.4-5.9l5.2,32.2l9.5,36.6l-14.7,9.7l-7.6-1.2
	l-20.8-30.1c0,0-9.1,31.2-16.5,33.9c-7.4,2.6-59.1,7.1-59.1,7.1l-85.9,9.5l-35.6,2.1L1115.9,1401.8z"/>
<line id="XMLID_175_" class="st2" x1="773.6" y1="1405.5" x2="791.5" y2="1412.8"/>
<polygon id="XMLID_174_" points="779.7,1408 838,1407.3 908.9,1394.3 937.3,1389.5 957.6,1368.3 974.4,1396.4 998.6,1390.3 
	994.4,1338.7 960.4,1338.7 915.6,1335.1 903.8,1338.7 869.4,1353.3 818.2,1373.1 795.8,1386.4 779.7,1397.2 "/>
<line id="XMLID_173_" class="st4" x1="349.8" y1="1326.7" x2="328.3" y2="1359.5"/>
<line id="XMLID_172_" class="st4" x1="365" y1="1332.7" x2="343.5" y2="1365.5"/>
<line id="XMLID_171_" class="st4" x1="377.6" y1="1339.2" x2="356.1" y2="1372.1"/>
<line id="XMLID_170_" class="st4" x1="553.5" y1="1311.8" x2="532" y2="1344.7"/>
<line id="XMLID_169_" class="st4" x1="568.7" y1="1317.9" x2="547.2" y2="1350.7"/>
<line id="XMLID_168_" class="st4" x1="581.3" y1="1324.4" x2="559.8" y2="1357.2"/>
<path id="XMLID_167_" d="M268,623.3l33.3,27.5l122,4.9l31.6,1.2l101.7,622.7l-42.3,26.3c-33.1,14.4-65,14.2-95.6-4.5l-28.5-410
	l-37.5,428.7l-50.8,14.3l-60.5-15.7l-24-33.5L268,623.3z"/>
<polygon id="XMLID_166_" points="989.1,161.4 995.5,180 1013.1,184.6 1039.2,180.4 1072.9,168.2 1094.7,162.9 1112.9,175.4 
	1123.7,194 1134.6,198.9 1131.8,177.5 1126.5,153.9 1111.1,140.3 1089.7,131.3 1061,134.2 989.1,159.6 "/>
<polygon id="XMLID_165_" points="1126.8,236.6 1134.6,246.9 1140.6,251.2 1149.3,250.3 1153.7,243.9 1138.7,235.3 "/>
<polygon id="XMLID_164_" class="st0" points="1039.3,361.5 1024.9,330.6 996.4,346 985.9,357.2 988.7,398.4 971.6,416.5 
	937.7,463.9 917.1,494 926.8,573.4 937.7,573.4 972.3,546.7 992,518.3 1006.7,471.9 1002.7,407.3 1017.9,396.7 1040.2,378.8 "/>
<path id="XMLID_163_" d="M1051.3,395.1"/>
<path id="XMLID_162_" class="st0" d="M1056.8,215.8c3.4,13.9,29.1,7.7,25.7-6.2l-24,6.2"/>
<path id="XMLID_161_" class="st0" d="M222.2,1297.9"/>
<g id="XMLID_212_">
	<path id="XMLID_211_" d="M930.9,1005.1c0.1-0.3-0.3-0.5-0.5-0.4c-0.3,0-0.5,0.2-0.5,0.5c0,0.5,0.5,0.9,1,1.2c1,0.7,2.1,1.3,3.1,1.8
		c2.1,1.1,4.4,2,6.7,2.6c1.1,0.3,2.3,0.6,3.5,0.9c1.2,0.2,2.3,0.4,3.5,0.5c2.3,0.3,4.7,0.4,7.1,0.3l1.7-0.1l1.8-0.2
		c1.1-0.1,2.3-0.3,3.5-0.5c2.3-0.4,4.6-1,6.8-1.7c4.5-1.4,8.8-3.3,13-5.5l1.5,4.7l-3.1,0.4l-3.1,0.2l-3.1,0l-3.1-0.2l-3.1-0.4
		l-3.1-0.6l-3-0.8l-3-1l-2.9-1.2l-2.8-1.3l-2.7-1.5l-2.6-1.7l-2.5-1.8l-2.4-2l-2.3-2.2l-2.1-2.3l-4.2-4.6l6.3,0
		c3.3,0,6.6-0.1,9.9-0.2c3.3-0.1,6.6-0.2,9.9-0.4c3.3-0.2,6.6-0.4,9.9-0.7l4.9-0.4l4.9-0.5l0,4.3l-2.9-0.5L974,989l-2.8-0.8
		l-2.8-0.9l-2.7-1l-2.7-1.1l-2.6-1.3l-2.5-1.4l-2.4-1.5l-2.4-1.6l-2.3-1.7l-2.2-1.8l-2.1-1.9l-2-2l-1.9-2.1l-1.8-2.2l2.1,1.9
		l2.1,1.8l2.2,1.7l2.3,1.6l2.3,1.5l2.4,1.4l2.4,1.3l2.5,1.2l2.5,1.1l2.6,1l2.6,0.9l2.6,0.8l2.7,0.6l2.7,0.5l2.7,0.4l2.7,0.3
		l15.8,1.7l-15.7,2.6c-3.3,0.5-6.6,1-9.9,1.5c-3.3,0.4-6.7,0.8-10,1.1c-3.3,0.3-6.7,0.6-10,0.7c-3.3,0.2-6.7,0.3-10.1,0.3l2.1-4.6
		l1.9,2l2,1.9l2.1,1.8l2.2,1.6l2.3,1.5l2.4,1.4l2.5,1.2l2.6,1.1l2.6,0.9l2.7,0.7l2.7,0.6l2.7,0.4l2.8,0.3l2.8,0.1l2.8-0.1l2.8-0.3
		l13.9-1.3l-12.4,6c-4.5,2.2-9.2,3.9-14.1,5.1c-2.4,0.6-4.9,1.1-7.4,1.4c-1.2,0.1-2.5,0.2-3.8,0.3l-1.8,0l-1.9,0
		c-2.5-0.1-5-0.4-7.5-0.9c-1.2-0.3-2.4-0.6-3.6-0.9c-1.2-0.4-2.4-0.8-3.5-1.3c-1.2-0.5-2.3-1-3.4-1.6c-1.1-0.6-2.2-1.2-3.2-1.9
		c-1-0.7-2-1.5-2.9-2.3c-0.5-0.4-1-0.9-0.9-1.7c0-0.4,0.5-0.6,0.8-0.6C930.6,1004.5,931.1,1004.7,930.9,1005.1z"/>
</g>
<g id="XMLID_215_">
	<path id="XMLID_214_" d="M1148.9,958.5c1,0.2,2,0.3,2.9,0.4c1,0.1,1.9,0.2,2.9,0.2c1,0,1.9,0,2.9-0.1c1-0.1,1.9-0.2,2.9-0.3
		c0.9-0.1,1.9-0.3,2.8-0.5c0.9-0.2,1.9-0.4,2.8-0.7c0.9-0.3,1.8-0.5,2.7-0.8c0.9-0.3,1.8-0.6,2.6-0.9l1.4-0.6l1.3-0.6
		c0.9-0.4,1.7-0.8,2.6-1.2c1.7-0.9,3.4-1.8,5-2.8c3.3-1.9,6.5-4.1,9.8-6.3l10.2-6.9l-6.2,10.7c-2.5,4.3-5.4,8.4-8.7,12.1
		c-1.6,1.9-3.4,3.7-5.2,5.4c-1.8,1.7-3.7,3.3-5.7,4.8l-1.5,1.1c-0.5,0.4-1,0.7-1.5,1.1c-1.1,0.7-2.1,1.4-3.3,2
		c-1.1,0.6-2.3,1.1-3.5,1.6c-1.2,0.4-2.4,0.9-3.7,1.1c-1.2,0.3-2.6,0.4-3.8,0.5c-1.3,0-2.6-0.1-3.9-0.4c-1.3-0.3-2.4-0.9-3.5-1.5
		c-0.3-0.2-0.6-0.4-0.8-0.7c-0.2-0.3-0.4-0.7-0.3-1.1c0.2-1.1,1.9-0.3,1.2,0.2c0.3-0.2-0.1-0.5-0.3-0.5c-0.1,0-0.3,0-0.3,0.1
		c0,0-0.1,0.1-0.1,0.2c0,0.4,0.6,0.7,1,0.9c1.1,0.3,2.2,0.6,3.4,0.6c1.1,0.1,2.3-0.1,3.3-0.2c1.1-0.2,2.2-0.6,3.2-1
		c1.1-0.4,2.1-0.9,3.1-1.4c1-0.6,1.9-1.2,2.9-1.8c0.9-0.6,1.9-1.4,2.7-2.1c0.4-0.3,0.9-0.8,1.3-1.2l1.3-1.2c0.8-0.8,1.7-1.6,2.5-2.4
		c0.8-0.8,1.6-1.7,2.4-2.5c1.6-1.7,3.1-3.5,4.6-5.3c2.9-3.6,5.7-7.4,8.1-11.4l4,3.8c-3.3,2.2-6.8,4.2-10.4,6.1
		c-1.8,0.9-3.7,1.8-5.5,2.5c-1,0.4-1.9,0.7-2.9,1.1l-1.5,0.5l-1.4,0.4c-1,0.3-2,0.5-3,0.7c-1,0.2-2,0.4-3,0.5c-1,0.1-2,0.2-3.1,0.3
		c-1,0.1-2,0.1-3.1,0c-1,0-2-0.1-3-0.3c-1-0.1-2-0.3-3-0.5c-1-0.2-2-0.5-2.9-0.9C1150.7,959.3,1149.8,959,1148.9,958.5z"/>
</g>
<g id="XMLID_218_">
	<path id="XMLID_217_" d="M1155.7,992.9c0,0,0.9-0.3,2.4-0.7c0.8-0.2,1.7-0.5,2.6-0.8c1-0.3,2.1-0.6,3.3-1.1
		c1.2-0.4,2.5-0.9,3.8-1.4c1.4-0.5,2.7-1.2,4.1-1.7c1.4-0.7,2.9-1.3,4.3-2.1c1.4-0.7,2.8-1.6,4.3-2.4c1.4-0.9,2.8-1.8,4.1-2.7
		c1.3-0.9,2.6-1.9,3.8-2.9c1.2-1,2.4-1.9,3.4-2.9c1.1-1,2.1-1.9,3-2.8c0.9-0.9,1.8-1.7,2.5-2.5c0.7-0.8,1.4-1.4,1.9-2
		c1-1.1,1.7-1.8,1.7-1.8s-0.2,0.9-0.7,2.4c-0.2,0.8-0.6,1.7-1,2.6c-0.2,0.5-0.5,1-0.7,1.6c-0.3,0.6-0.6,1.1-0.9,1.7
		c-0.3,0.6-0.7,1.2-1.1,1.8c-0.4,0.6-0.9,1.2-1.3,1.8c-0.9,1.3-2,2.5-3.2,3.8c-1.2,1.2-2.5,2.5-3.9,3.5c-1.4,1.2-2.9,2.1-4.4,3.2
		c-1.6,0.9-3.2,1.8-4.8,2.5c-1.6,0.8-3.3,1.3-4.9,1.9c-1.6,0.4-3.2,0.9-4.8,1.1c-0.8,0.1-1.5,0.2-2.2,0.3c-0.7,0.1-1.4,0.1-2.1,0.2
		c-0.7,0-1.3,0.1-1.9,0.1c-0.6,0-1.2-0.1-1.8-0.1c-1.1,0-2-0.1-2.8-0.3C1156.5,993.1,1155.7,992.9,1155.7,992.9z"/>
</g>
<g id="XMLID_219_">
	<path id="XMLID_220_" d="M578.2,673.3c-3.3,1.2-6.5,1.7-10.1,1.4c-4.4-0.4-8.8,0.2-13.2,0.2c-4.8,0-9.6-0.2-14.4-1
		c-4.9-0.8-9.9-0.9-14.9-1.3c-9.9-0.9-19.9-1.7-29.8-2.7c-9.6-0.9-19.1-2-28.6-3c-0.6-0.1-1.1-0.1-1.7-0.1c-1.3,0.1-2.2,1-2.1,2.2
		c0.1,1,0.2,1.9,0.4,2.8c4.3,17,6.7,34.3,8.9,51.6c2.6,20,6,39.9,9.5,59.8c2.6,15.1,5,30.3,7.4,45.5c2.2,13.3,4.3,26.5,6.4,39.8
		c3.4,20.9,6.8,41.7,10.1,62.6c3,18.8,5.9,37.6,8.7,56.4c1.8,12,3.2,24,4.9,36c2.8,19.6,5.7,39.2,8.7,58.7c2.9,19,5.8,38,8.8,57
		c2.4,15.6,4.9,31.1,7.3,46.7c1.8,12,3.6,23.9,5.2,35.9c2.4,17.9,4.6,35.8,6.9,53.7c0.2,1.3,0.2,2.7,0.2,4c0,4-1.7,6.9-5.5,8.6
		c-3.5,1.6-6.8,3.6-10.2,5.4c-0.6,0.3-1.2,0.8-2.2,1.6c1.4,0.9,2.5,1.7,3.6,2.3c6.6,3.2,13.1,6.5,19.7,9.5
		c24.7,11.3,48.4,24.4,71.5,38.5c7,4.3,14.2,8.5,21.2,12.8c15,9.1,29.1,19.4,42.9,30.1c1.4,1,2.6,2.3,3.6,3.7
		c1.3,1.8,0.9,3.8-0.8,5.1c-2,1.6-4.1,2.8-6.8,2.8c-2.1,0-4.2,0.1-6.3-0.1c-11.1-0.8-22.2-1.4-33.3-2.9c-8.2-1.1-16.4-1.8-24.6-2.8
		c-8.8-1-17.5-2-26.3-3c-7.2-0.8-14.5-1.6-21.7-2.6c-12.4-1.7-24.7-3.4-37.1-5.2c-5.9-0.8-11.8-1.4-17.7-2.5
		c-9.1-1.7-18.1-3.6-27.1-5.5c-3.4-0.7-6.7-1.5-10.2-1.2c-3.4,0.3-6.8-2.6-7.3-6.1c-0.6-4-1-8-1.2-12c-0.3-4.7-0.7-9.4-1.9-14.1
		c-0.3,1.1-0.8,2.1-0.9,3.2c-0.5,4.4-0.9,8.8-1.3,13.2c-0.1,1.5-0.3,3.1-0.4,4.6c-0.3,5.2-3.4,7.9-8.1,9.2c-4.1,1.2-8.3,1.4-12.6,1
		c-0.9-0.1-1.8-0.2-2.9,0.3c2.2,1.5,4.3,3,6.5,4.5c9.8,6.5,18.9,13.9,26.9,22.6c3.6,4,7,8.2,10.3,12.4c0.8,1,1.2,2.3,1.9,3.5
		c-2.8,3.5-5.9,4.8-10.2,4.1c-6.6-1-13.4-1.3-20-2c-6.9-0.7-13.8-1.4-20.6-2c-4.6-0.4-9.2-0.9-13.8-1.3c-6.7-0.5-13.4-0.9-20.1-1.5
		c-10.1-0.9-20.3-2-30.4-3c-4.2-0.4-8.4-0.9-12.6-1.3c-6.9-0.6-13.8-1.1-20.7-1.5c-10.9-0.5-21.9-0.6-32.8-1.4
		c-11.9-0.9-23.7-2.3-35.5-3.7c-4-0.5-8-0.9-12-0.2c-2-0.9-2.6-2.7-3.3-4.5c-1.6-4.3-3.1-8.7-4.7-13c-0.3-0.9-0.7-1.7-1.6-2.5
		c0,4,0.1,7.9,0,11.9c-0.1,3.1-0.3,6.1-0.8,9.2c-0.6,3.4-1.7,4.3-5.2,3.9c-6.3-0.7-12.6-1.6-18.9-2.4c-7-0.9-13.1-4.2-19.6-6.5
		c-0.7-0.3-1.3-0.8-2-1.1c-2.8-1.4-3.8-3.5-3.5-6.6c0.5-4.6,0.8-9.2,1.3-13.8c1.4-13.2,2.8-26.4,4.5-39.5c1.6-12,3.2-24,6.6-35.7
		c0.5-1.6,0.4-3-0.4-4.4c-0.6-1.2-1.1-2.5-1.7-3.7c-2.4-4.9-4.1-9.9-2.4-15.5c0.9-15.7,3.4-31.3,5.3-46.9
		c1.7-13.9,3.5-27.8,5.2-41.7c1.4-11.1,2.7-22.1,4-33.2c1-8.6,1.9-17.2,2.8-25.8c1-9.5,2-19.1,3-28.6c0.5-4.6,1-9.2,1.4-13.8
		c1.3-16.1,2.6-32.2,3.9-48.2c1-12.1,2-24.1,3-36.2c0.6-8,1-16.1,1.5-24.2c0.7-10.9,1.3-21.9,2-32.8c0.4-7.1,0.8-14.2,1.2-21.3
		c0.5-10.2,0.9-20.3,1.4-30.5c0.7-13.8,1.3-27.6,2-41.4c0-0.8,0.1-1.5,0.1-2.3c0.5-15.9,0.9-31.9,1.6-47.8c0.4-10,1.2-19.9,1.8-29.9
		c0.4-6.9,0.9-13.8,1.2-20.7c0.5-10,1.1-20,1.4-29.9c0.5-14.8,0.9-29.6,1.4-44.4c0.5-13.4,1.1-26.9,2-40.3c0.4-5.2-1-9.1-4.6-12.9
		c-6.9-7-11.9-15.4-16.2-24.3c-8.6-17.8-13.9-36.6-15.8-56.3c-1.6-16.4-0.6-32.6,2.7-48.7c5.3-25.7,13.6-50.4,24.2-74.4
		c1.8-4.1,2.8-8.2,3-12.8c0.4-10.7,1.4-21.5,1.8-32.2c0.4-10.6,0.6-21.1,0.7-31.7c0.3-20.6,0.5-41.1,0.7-61.7c0-1.9,0.2-3.8-0.5-6.1
		c-1.6,1.2-2.8,2-3.9,3c-2.9,2.4-6,4.3-9.6,5c-1.9,0.4-3.9,0.7-5.7,0.2c-8.2-2.2-14.6-6.7-17.9-14.8c-1.8-4.3-1.6-8.7,0.3-12.9
		c1.2-2.6,2.8-5,4.3-7.5c0.6-0.9,1.2-1.8,2.2-3.2c-1.9-0.2-3.2-0.2-4.4-0.6c-2.2-0.7-4.4-1.4-6.4-2.4c-8.8-4.6-10.6-11.8-5-20.1
		c4.6-6.8,11.1-11,18.9-13.4c0.7-0.2,1.5-0.3,2.3-0.5c0.5-0.2,1-0.5,1.8-0.8c0.1-1,0.4-2.1,0.4-3.2c-0.1-3.7,0.4-7.3,2.3-10.6
		c1.3-2.4,1.3-4.5,0.4-7.1c-3.1-8.5-3.6-17.4-1.4-26.1c4.1-16,14.8-23,28.6-24.2c3.2-0.3,6.4,0.8,9.7,1.2c1.1,0.2,2.2,0.4,3.1,0.6
		c2.2-1,2.9-2.9,4-4.4c4.3-5.5,9.8-9,16.6-10.7c5.4-1.4,10.3-0.7,14.9,2.2c13,8.1,27.3,9.8,42.1,8.3c5.8-0.6,11.2-2.7,16.4-5.1
		c8.7-4,15.9-10,23-16.2c7.8-6.9,15.7-13.6,23.7-20.1c2.8-2.3,6.1-4.1,9.4-5.6c4.9-2.2,9.7-1.8,14.3,1.3c3,2,5,4.7,5.9,8.3
		c0.4,1.5,0.6,3,0.8,4.5c0.2,1.8,0.8,3.3,2.4,4.4c2.9,2,4.3,4.6,4.5,8.2c0.2,4,1.3,7.9,1.7,11.9c1,8.8-0.9,17.2-4.9,25.1
		c-6.3,12.7-15.6,22.3-28.3,28.5c-13.3,6.5-27.3,10.3-42.1,10.8c-7,0.2-13.8-0.9-20-4.4c-0.4-0.2-1-0.3-1.7-0.5
		c0.1,0.7,0,1.3,0.2,1.8c9.1,22.2,14.2,45.4,17.2,69.1c0.5,4.4,0.9,8.8,1.2,13.2c0.2,2.7,1.1,4.8,3.6,6.1c1,0.5,1.9,1.3,2.9,1.8
		c9,4.7,18.2,9.2,27.2,14c5.1,2.7,9.8,6,14.3,9.3c0.3,2.9-1.1,4.8-2.3,6.7c-3.7,5.6-7.4,11.2-11.1,16.8c-0.4,0.6-0.7,1.3-1.2,2.1
		c0.5,0.9,0.9,1.8,1.6,2.4c12.7,12.6,21.8,27.8,29.2,44c8,17.5,14.4,35.6,17.8,54.6c2.2,12,2.7,24.1,1.8,36.2
		c-1.1,15.5-3,31-5.7,46.3c-3,16.8-6.2,33.6-9.4,50.4c-0.8,4.3-1.8,8.7-2.6,13c-0.2,1.1,0,2.2,0,3.5c4.9,0.8,9.4,1.4,14,1.7
		c7.9,0.5,15.7,1.3,23.5,1.9c5.2,0.4,10.3,0.9,15.5,1.4c11.7,1.1,23.3,2.2,35,3.3c2.1,0.2,4.3,0.3,6.3-0.1
		c7.5-1.5,14.9-0.4,22.3,0.9c10.8,2,20.6,6.1,28.7,13.8c1.5,1.4,3.1,2,5.2,1.6c2.4-0.4,4.9-0.4,8-0.7c8.4-8.1,19.7-11.3,31.1-14.1
		c8.6-2.1,17.2-4.1,25.8-5.9c5.8-1.3,11.5-3.1,17.2-4.9c20.5-6.4,16.2-5.8,35-0.2c6.8,2,13.5,4.6,19.7,8c4.2,2.3,8.2,5,11.4,8.7
		c3.4,4,6.3,8.2,7.1,13.7c1.3,0.4,2.5,1,3.8,1.3c6.4,1.5,12.6,3.5,18.3,6.7c2.1,1.2,4.2,1.6,6.6,1.2c9.5-1.6,19.1-2.1,28.7-2
		c12.5,0.1,25,0.6,37.5,0.8c7.1,0.1,14.2-0.4,21.3-0.4c12.3-0.1,24.6-1.2,36.7-2.9c10.8-1.6,21.5-4.1,32.1-6.9
		c0.7-0.2,1.4-0.5,2.2-0.7c1.9-0.5,2.9-1.7,3.1-3.6c0.2-2.3,0.6-4.6,0.9-6.9c0.8-6.1,1.5-12.2,2.2-18.3c0.1-0.7-0.1-1.5-0.2-2.6
		c-1.4,0.4-2.4,0.7-3.4,1.1c-2.9,1-5.7,2.2-8.6,3.1c-3.3,1-6.1-0.3-7.6-3.4c-0.3-0.5-0.5-1.1-0.6-1.6c-4.3-13.2-9-26.2-10.8-40
		c-2.6-20.5-0.3-40.2,10.1-58.6c8.9-15.8,19.5-30.4,31.2-44.2c7.9-9.2,16.2-18,24.3-27c1.3-1.4,2.6-2.8,3.9-4.4
		c-0.4-1.4-0.7-2.6-1.2-3.9c-2.3-5.9-3.9-12.1-5.2-18.3c-2.4-11.2,1.1-20.5,9.2-28.2c3.2-3,6.9-5.6,10.5-8.1
		c6.5-4.5,13-8.9,19.7-13.1c3.3-2.1,4.6-4.8,5-8.5c2-17.9,4.1-35.9,6.2-53.8c1.2-10.1,2.4-20.2,3.5-30.3c0.1-0.9,0.1-1.9,0.2-3.1
		c-1.4-0.7-2.8-1.3-4.1-2c-6.8-3.5-10.1-9.3-10.2-16.8c-0.1-5.2,2-9.4,6.9-11.7c2.9-1.4,6-2.5,9.1-3.4c2.5-0.7,4.2-1.9,4.6-4.5
		c0.4-2.4,1.7-4.7,0.9-7.2c-1.6-1.1-3.1-0.3-4.5,0.1c-3.9,1-7.8,2.1-11.7,3.1c-5.5,1.5-11,1.6-16.6,1.1
		c-10.1-0.9-17.3-5.8-20.6-15.7c-1.1-3.3-2-6.6-1.8-10.1c0.2-3.1,1.3-5.6,4.3-6.9c2.5-1.1,4.8-2.6,7.3-3.4
		c12.2-3.7,23.9-8.4,35.7-13.1c13.8-5.5,28-9.5,42.7-11.9c10.4-1.7,20.3-0.1,29.7,4.5c2.9,1.4,5.8,3.1,8.5,4.8
		c12.1,7.8,19.5,18.8,22.4,32.9c0.8,4.1,1.3,8.4,1.7,12.6c0.2,1.9-0.1,3.8-0.3,5.7c-0.1,1.3-0.3,2.6-0.5,4c2.1,0.6,3.9,1.1,5.7,1.7
		c3.5,1.1,6.8,2.8,9.7,5c10.5,8.3,10.1,24.6-0.7,32.5c-1.8,1.3-3.9,2.4-6,3.6c0.9,1.8,2.7,2,4.2,2.9c1,0.6,2.1,1,3.2,1.4
		c6.2,1.9,5.3,6.3,2,10.2c-3.5,4.1-8.4,5.3-13.7,3.9c-1.8-0.5-3.6-1.2-5.3-1.8c-1.9,3.9-3.2,14-2.6,20.2c1.4,0.2,2.8,0.4,4.3,0.6
		c6.8,0.7,11.3,4.7,12.7,11.4c0.9,4.4,0.8,8.8,0.1,13.2c-0.3,2.1,0.1,3.6,1.6,5.2c14.3,14.8,23.2,32.4,26,52.9
		c1.3,9.3,1.8,18.7,1,28.2c-0.8,8.9-2.8,17.4-4.1,26.2c-1.2,7.8-2.2,15.6-3.1,23.4c-1.8,15.9-4.7,31.5-8.8,47
		c-1.5,5.8-2.3,11.7-2.9,17.6c-0.8,8.4-1.9,16.8-2.7,25.2c-0.7,7.4-1.4,14.9-2,22.4c-0.3,3.1-0.5,6.1-0.6,9.2
		c-0.1,2.1,0.1,4.2,0.1,6.3c0,0.4,0.2,0.8,0.2,1.1c-0.6,7.7,2.2,14.7,4,22c11.4,47,22.8,94.1,34.5,141.1c11.7,47,23.4,94,35.8,140.8
		c14.7,55.5,29,111.2,45,166.4c6.2,21.4,11.8,43,18.1,64.4c7.3,24.9,15,49.7,22.8,74.4c6.5,20.7,13.6,41.3,20.3,61.9
		c5.8,17.9,10.4,36.2,14.7,54.5c1.3,5.6,2.9,11.2,4.2,16.8c1.1,4.4,0.3,8.3-3.6,11.2c-0.3,0.2-0.4,0.6-0.5,0.7
		c2.5,11.4,5.2,22.6,7.4,33.9c1.8,9,3,18.2,4.8,27.2c0.8,4.1,0.1,7.6-2.4,10.8c-0.7,0.9-1.5,1.7-2.3,2.7c-6.9,0.6-13.7,1.1-20.6,1.8
		c-2.7,0.3-4.5-0.6-5.5-3.1c-0.8-2-1.4-4-2.3-5.9c-1.7-3.7-3.4-7.3-5.3-10.8c-1-1.8-2.2-3.6-4.8-4.5c-0.7,0.9-1.7,1.8-2.3,2.9
		c-3.2,6.3-6.4,12.7-9.6,19c-0.5,1-1.2,2.1-2.1,2.7c-3.2,2.1-6.5,3.8-10.6,4c-12.4,0.8-24.9,2.1-37.3,3c-16.5,1.3-32.8,3.9-49.1,6.2
		c-11.2,1.6-22.4,3.3-33.6,4.9c-13.3,1.9-26.7,3.3-40.2,3.4c-4,0-8.1-0.1-11.9-1.5c-7.5-2.9-9.1-8-4.1-14.3c1.3-1.6,2.9-3.1,4.4-4.5
		c5.2-4.6,11-8.4,17-11.9c6.3-3.7,12.6-7.4,19.1-10.7c21.5-10.8,43-21.4,65.1-30.9c3.7-1.6,7.5-3,11.2-4.6c1.6-0.7,3.1-1.4,5-2.2
		c-1.3-1.2-2.6-2.1-3.3-3.2c-0.8-1.3-1.2-2.8-1.6-4.3c-7.1-21.5-14.6-42.9-21.3-64.6c-10.3-32.8-19.8-65.9-28.8-99.1
		c-3.4-12.4-7.2-24.7-10.6-37.1c-9.2-33.3-18.4-66.7-27.4-100.1c-12-44.1-23.8-88.3-35.7-132.5c-0.7-2.6-1.6-5.2-2.7-7.6
		c-10.4-22.8-18.4-46.4-25.2-70.5c-4.2-14.8-8.5-29.6-12.7-44.3c-0.6-2-1-4.1-2.4-6.3c-0.7,0.7-1.4,1.1-1.6,1.7
		c-0.6,1.4-1.1,2.9-1.5,4.4c-3.8,15.5-7.8,30.9-9.2,46.9c-1.6,18.4-3.9,36.7-5.6,55c-1.4,14.7-2.5,29.5-3.5,44.2
		c-0.9,13.8-1.5,27.6-2.3,41.4c-0.8,14.4-1.5,28.8-2.4,43.2c-1,15.5-2.1,31-3.4,46.6c-0.8,10.3-2,20.6-2.9,31
		c-0.9,9.9-1.8,19.9-2.7,29.8c-1,10.9-2.1,21.8-3,32.7c-0.6,6.3-1,12.6-1.5,19c-0.6,7.8-1.3,15.7-1.9,23.5
		c-0.4,5.2-0.9,10.3-1.3,15.5c-0.9,11.3-1.7,22.6-2.6,33.9c-0.8,8.8-1.7,17.6-2.6,26.4c-0.7,6.9-1.3,13.8-1.9,20.7
		c-1,11.5-2.1,23-3,34.4c-0.4,4.4-0.5,8.8-0.6,13.2c-0.1,5.6-2.4,8.9-7.7,10.9c-0.9,0.3-1.9,0.5-2.8,0.8c-1.2,0.4-1.8,1.4-2,2.6
		c-0.1,0.6-0.1,1.1-0.2,1.7c-0.4,6.3-0.8,12.7-1.1,19c-0.5,7.9-0.9,15.7-1.4,23.6c-0.2,3-0.3,6.2-2.4,9c-7.3,1.1-14.7,1.4-22.2,1.2
		c-1.6-0.1-3-0.7-4.1-1.8c-1.9-1.9-3.8-3.8-4.9-6.3c-1.6-3.5-3.4-6.9-5.2-10.3c-0.7-1.4-1.6-2.6-2.5-3.9c-0.3-0.4-0.9-0.7-1.6-1.2
		c-1,0.8-2.1,1.5-3.1,2.4c-5.3,4.8-10.3,9.8-15.8,14.3c-4.5,3.7-10,5.8-15.7,7c-5.6,1.2-11.4,1.8-17.1,2.5c-8.6,1.1-17.2,2-25.7,3
		c-7.4,0.9-14.9,1.6-22.3,2.6c-12.4,1.7-24.7,3.5-37,5.4c-10.8,1.6-21.6,3.3-32.7,2.9c-3.7-0.1-7.3-0.7-10.6-2.3
		c-1.4-0.6-2.8-1.4-4-2.3c-3.1-2.5-3.8-5.9-1.7-9.2c1.6-2.4,3.5-4.6,5.8-6.3c4.4-3.4,9-6.6,13.7-9.5c13.2-8.3,27.3-14.9,41.3-21.7
		c21-10.2,42.9-17.9,64.9-25.4c1.8-0.6,3.5-1.3,5.5-2c-0.5-2-2.3-2.1-3.4-2.9c-1.6-1.1-2.2-2.6-1.9-4.5c0.8-4,1.7-7.9,2.2-11.9
		c1.2-9.5,2.3-19.1,3.4-28.6c1-8.6,1.9-17.2,2.9-25.8c1-8.8,1.9-17.6,2.8-26.4c1.1-11.3,2.1-22.6,3.1-33.9
		c0.5-5.7,0.9-11.5,1.2-17.2c0.5-7.5,1-15,1.5-22.4c0.6-8.8,1.3-17.6,1.9-26.4c0.4-5.9,0.8-11.9,1.3-17.8c1.3-15.5,2.5-31,3.9-46.5
		c1.3-14.2,2.8-28.3,4.1-42.4c0.6-6.5,0.9-13,1.5-19.5c0.8-9.2,1.8-18.4,2.7-27.5c0.9-9.2,1.9-18.3,3-27.5
		c1.4-12.4,2.8-24.8,4.2-37.2c0.9-7.8,1.8-15.6,2.6-23.5c0.3-2.7,0.7-5.3,0.9-8c0.3-2.7,0.8-5.3,0-8c-0.6-0.5-1.2-1.1-1.8-1.4
		c-5.2-2.8-8.2-7.4-10.1-12.8c-2.4-6.8-2.9-13.9-3.6-21c-0.1-1.1,0.1-2.3,0.6-3.4c0.3-0.7,1.2-1.5,2-1.7c1-0.3,1.9,0.6,2.1,1.5
		c0.5,2.2,0.9,4.5,1.3,6.8c1,4.9,1.8,9.8,3.3,14.6c0.8,2.7,2.5,5.1,4,7.6c0.5,0.9,1.7,1.3,2.8,2.1c1.6-1.7,1.7-3.7,1.9-5.5
		c0.4-3.8,0.8-7.6,1.1-11.5c0.9-10.5,1.7-21.1,2.7-31.6c0.3-3.4,0.7-6.9,1-10.3c0.1-1.3,0-2.6,0-4.4c-1.4,0-2.5-0.2-3.6,0
		c-6.9,1.6-13.7,1.6-20.5-0.1c-0.4-0.1-0.8,0-1.4,0.1c-1.2,1.7-1.2,3.9-1.5,5.9c-1.1,7.2-2.1,14.4-3.3,21.6c-0.9,5-0.8,10-0.1,14.9
		c1.3,9.5,3.1,19,5.9,28.2c1.9,6.5,4.7,11.2,9.4,15.7c2-0.9,1.4-3.4,2.8-4.7c0.4-0.4,1-0.8,1.4-0.7c0.7,0.1,1.6,0.6,1.8,1.1
		c1,2.9,0.6,5.7-1.4,8.1c-1.9,2.2-6,2.7-8.4,0.6c-4.5-4.1-9.3-8.1-10.7-14.6c-0.7-3-1.9-5.8-3.1-8.7c-1.9-4.9-3.1-9.9-3-15.2
		c0-2.9-0.3-5.7-0.6-8.6c-0.6-6.9-0.8-13.8,0-20.7c1.5-12,2.6-24.1,4.1-36.1c1.6-13.3,3.3-26.7,5.2-40c1.6-11.4,3.4-22.8,5.1-34.2
		c0.3-2.1,0.7-4.2,1.2-6.2c0.2-0.9,0.7-1.8,1.2-2.6c0.9-1.4,3.3-1.1,3.8,0.5c0.4,1.4,0.5,3,0.3,4.5c-1,8.8-2,17.6-3.1,26.3
		c-1.8,14.5-3.6,29-5.4,43.5c-0.4,3.4-0.9,6.9-1,10.3c-0.2,3.2,0.6,4.1,3.7,4.9c4.2,1.2,8.4,0.9,12.6,0.3c3-0.4,5.9-1.5,8.8-2.2
		c1.6-2.8,1.7-5.8,2-8.6c1.7-17.2,3.3-34.4,5-51.6c0.8-8.4,2-16.8,2.9-25.2c0.2-1.9,0.2-3.8,0.3-5.9c-1.1-0.3-2-0.9-2.9-0.8
		c-9.8,0.6-19.6,1.2-29.3,2.1c-15,1.5-30,1.2-44.9,0.8c-12.7-0.3-25.3-1.5-37.9-2.9c-11.9-1.3-23.4-4.1-34.9-7.3
		c-3.5-1-7-1.9-10.6-2.7c-6.4-1.5-12.7-3.1-18.7-6.2c-1.3,1.2-2.4,2.2-3.4,3.3c-15.4,16.6-33.6,29.1-54.4,37.9
		c-7.1,3-14.3,4.4-21.9,2.6c-0.9-0.2-1.9-0.2-2.9-0.3c-3.6-0.3-6.8-1.4-9.4-3.9c-0.5-0.5-1.2-0.9-1.9-1.5c-3.6,0.8-7.1,1.6-10.7,2.3
		c-5.9,1.2-11.8,1.1-17.7-0.1c-4.8-1-9.3-2.6-12.8-6.1c-2-2.1-4.2-2.5-6.8-1.9c-4.5,1.1-9.2,1-13.8,0.9c-3.9-0.1-7.6-1-11.2-2.5
		c-5.7-2.4-10.2-6.5-12.4-12.2c-1.5-3.8-4-5.2-7.6-6.1c-2.4-0.6-4.8-1.4-7.1-2.3c-3.5-1.4-6.3-3.7-8.5-6.7
		c-3.2-4.5-3.5-9.2-0.7-14.1C575.9,676.4,577.1,674.8,578.2,673.3c0.1-0.1,0.2-0.2,0.4-0.3C578.4,673.1,578.3,673.2,578.2,673.3z
		 M585.1,669.8c1.5-0.5,3.4-0.1,4.7-2.3C587.4,667.4,586.3,668.8,585.1,669.8l-0.4,0.3L585.1,669.8z M1247.1,1349.1
		c-2.2,0.6-4.1-0.1-5.8-1.6c-1.5-1.4-3.2-2.6-4.8-3.9c-3.2,1.1-6.1,1.9-8.4,4.2c0.3,0.7,0.4,1.3,0.7,1.7c0.6,0.8,1.3,1.4,1.9,2.2
		c1.1,1.4,3.2,2.6,1.7,4.9c-0.8,1.2-2.3,0.6-4.7-1.8c-0.8-0.8-1.6-1.7-2.4-2.5c-3-2.7-4.7-2.6-8.2,1c0.9,0.9,1.8,1.9,2.7,2.9
		c0.6,0.7,1.3,1.4,1.6,2.3c0.2,0.6,0,1.6-0.4,2c-0.4,0.4-1.5,0.8-2,0.5c-1.2-0.6-2.2-1.4-3.3-2.3c-1.5-1.2-2.5-3-5-3.5
		c-2.2,1.1-4.9,2.2-7.4,3.6c-2.3,1.2-2.9,3.6-1.6,5.9c1.5,2.7,3.8,4.3,6.9,4.6c4.7,0.5,9.2,0,13.4-2.3c7.1-3.8,14-8,20.2-13.2
		C1244,1352.5,1245.4,1350.7,1247.1,1349.1c2.6-2.8,5.2-5.5,7.7-8.3c0.9-0.9,1.5-2,2.6-3.6c-6.2-1.2-10.7,1-15.4,4.2
		c1.2,1.2,2.1,2.2,3.1,3.1C1246.5,1345.8,1247.2,1347.3,1247.1,1349.1z M270.9,637.2c-0.2,1.9-0.3,2.9-0.3,3.8
		c-0.4,19-0.9,38-1,57.1c-0.1,22.9-0.9,45.7-2.3,68.5c-1,16.9-1.6,33.8-2.4,50.7c-0.5,10.7-0.7,21.5-1.2,32.3
		c-0.7,17.8-1.5,35.7-2.3,53.5c-0.7,14.2-1.5,28.4-2.3,42.6c-0.8,14.8-1.6,29.5-2.4,44.3c-0.4,7.7-0.9,15.3-1.5,23
		c-0.4,5.6-0.8,11.1-1.3,16.7c-0.6,7.7-1.3,15.3-1.9,23c-0.5,6.5-1,13-1.6,19.5c-1,10.5-2,21-3,31.5c-0.9,9.2-1.7,18.4-2.7,27.5
		c-1.7,15.3-3.4,30.5-5.3,45.8c-2,16-4,32-6.2,48c-2.7,19.6-5.6,39.2-8.5,58.7c-0.4,2.4-0.1,4.5,1.5,6.5c1.7,2.1,3.2,4.3,4.8,6.5
		c9.5,12.8,22.1,21.2,37.3,25.8c10,3,20.3,4.7,30.7,4.2c12.7-0.7,25.1-3.4,37.2-7.4c2.4-0.8,4.7-1.6,7.1-2.4
		c1.9-0.6,2.7-1.9,2.9-3.9c0.4-4.2,0.9-8.4,1.4-12.6c1.9-16.4,3.8-32.8,5.8-49.2c1.9-16.6,3.9-33.2,5.8-49.8c2-17,3.9-34,5.8-50.9
		c1.6-15.1,3-30.2,4.5-45.3c0.5-5.5,0.9-11.1,1.4-16.6c0.6-7.3,1.3-14.5,1.8-21.8c0.6-8.2,1-16.5,1.6-24.7
		c0.4-5.7,0.9-11.5,1.3-17.2c0.6-7.5,1.2-14.9,1.8-22.4c0.6-8,1-16.1,1.5-24.2c1-13.8,2.1-27.6,2.9-41.4c0.7-13.4,1.1-26.9,1.6-40.3
		c0.1-2.1,0.1-4.2,0.2-6.3c0.6-13,1.3-26.1,1.9-39.1c0.5-10.6,1-21.1,1.5-31.7c0.4-6.9,0.8-13.8,1.3-20.7c0.6-8,1.2-16.1,1.8-24.1
		c0.5-7.9,0.9-15.7,1.5-23.6c0.9-12.1,2.1-24.1,3.1-36.1c0.9-10.7,1.7-21.4,2.6-32.2c0-0.6,0-1.2,0.3-1.7c0.3-0.6,0.9-1.5,1.4-1.6
		c0.6-0.1,1.5,0.4,1.9,0.9c1.3,1.6,1.4,3.6,1.4,5.5c-0.2,6.1-0.5,12.3-0.7,18.4c-0.1,2-0.8,4.1,0.4,6.5c1.2-0.8,2.2-1.3,2.9-2.1
		c3.8-3.8,7.6-7.7,11.3-11.5c0.9-0.9,1.9-1.9,2.9-2.7c0.3-0.2,1.2-0.1,1.5,0.2c0.3,0.3,0.5,1,0.3,1.5c-0.2,0.7-0.6,1.4-1.1,2
		c-5.3,7-10.1,14.5-17.1,20.1c-1.8,1.4-2.6,3.1-2.8,5.4c-0.4,8.2-1,16.5-1.3,24.7c-0.5,11.5-0.8,23-1.3,34.6c0,1-0.1,1.9-0.2,2.9
		c-0.6,9.6-1.3,19.2-1.8,28.8c-0.6,12.3-1.1,24.6-1.6,36.9c0,1-0.2,1.9-0.2,2.9c-0.4,15.3-2.4,30.6-0.8,46
		c0.6,6.1,1.2,12.2,1.7,18.4c1,10.5,2.1,21,3.1,31.5c0.6,7.3,0.9,14.6,1.5,21.8c0.9,11.7,2,23.3,3.1,35c0.8,9.2,1.8,18.3,2.7,27.5
		c1.1,11.3,2.2,22.6,3.2,33.8c0.5,5.7,0.9,11.5,1.4,17.2c1,10.9,2.1,21.8,3,32.7c0.9,10.3,1.7,20.7,2.6,31c0.4,5,0.9,9.9,1.3,14.9
		c1,11.7,2.1,23.3,3,35c0.6,8.4,0.9,16.9,1.4,25.3c0.4,6.3,0.9,12.6,1.3,19c0.6,9.4,1.3,18.8,1.9,28.2c0.5,8.4,1,16.9,1.3,25.3
		c0.1,3,1.4,4.7,4.1,5.4c1.5,0.4,3,0.8,4.4,1.2c10.5,2.8,21.1,3.9,31.9,3.8c11.6-0.1,22.9-2,34.1-5.2c16.7-4.8,32.2-12.5,47.6-20.4
		c1-0.5,1.8-1.3,2.8-2.1c-0.1-1.4-0.2-2.8-0.4-4.1c-1.7-11-3.6-22-5.3-33c-2.5-15.6-4.8-31.1-7.3-46.7c-3.6-22.2-7.3-44.3-10.8-66.5
		c-3.8-24.1-7.6-48.2-11.3-72.3c-1.9-12.5-3.5-25.1-5.2-37.7c-1.3-9.3-2.4-18.7-3.8-28c-2.8-19-5.7-38-8.7-56.9
		c-3.6-22.8-7.3-45.5-11-68.3c-2.1-12.9-4.2-25.8-6.2-38.7c-2.3-14.2-4.4-28.5-6.7-42.7c-2-12.3-4.2-24.6-5.9-37
		c-2.2-16.2-3.8-32.4-6.1-48.6c-1.4-9.7-3.4-19.3-5.4-28.9c-0.9-4.2-1.5-4.6-5.8-4.8c-6.5-0.4-13-1-19.6-1.1
		c-16.5-0.3-33-1.2-49.5-2.3c-9.8-0.7-19.5-1.8-29.2-3.2c-6.3-0.9-12.5-1.9-18.8-2.8c-10.6-1.5-21.3-2.9-31.8-5.4
		c-9.7-2.3-18.6-5.9-26.8-11.6C273.6,638.6,272.6,638.2,270.9,637.2z M1347.5,1306.6c-0.3-1.5-0.6-2.8-0.9-4.1
		c-1.4-5.2-2.9-10.4-4.3-15.6c-5.2-19.7-10.6-39.3-17.2-58.6c-2.9-8.5-6-17.1-8.8-25.6c-7.9-24.1-16.1-48.1-23.5-72.4
		c-9.4-31.3-18.1-62.8-27.2-94.1c-15.3-52.6-29.1-105.6-43.1-158.5c-10-37.7-19.3-75.6-29-113.3c-16.1-62.9-31.4-126-46.3-189.2
		c-0.4-1.6-1.1-3.2-1.5-4.5c-2.2-1.2-4.2-0.6-6.1-0.8c-4.3-0.3-7,1.5-8.1,5.7c-0.2,0.9-0.8,1.8-1.1,2.6c-6.9,15.9-15.2,31-25.4,45.1
		c-12.1,16.8-25.9,31.9-42.5,44.4c-8.8,6.6-18.2,12.2-27.8,17.5c-9.1,5.1-18.8,8.9-28.9,11.3c-7.8,1.9-15.8,3.4-23.7,5
		c-4.1,0.8-8.3,1.3-12.5,2c-2.6,0.5-3.3,1.2-3.7,3.7c-0.2,0.9-0.2,1.9-0.3,2.9c-1.3,11.8-2.5,23.7-3.8,35.5c-1,9.9-2.1,19.9-3,29.8
		c-1,9.9-1.8,19.9-2.7,29.8c-1.4,14.3-2.7,28.7-4.2,43c-1.3,12.8-2.6,25.6-4,38.4c-1.7,15.1-3.6,30.1-5.2,45.2
		c-1.4,12.4-2.7,24.8-3.9,37.2c-1.5,15.1-3,30.2-4.5,45.3c-0.5,5.4-1,10.7-1.5,16.1c-1,10.5-2,21-3,31.5c-0.9,9.9-1.9,19.9-2.7,29.8
		c-1.1,12.2-2.1,24.5-3,36.7c-0.6,7.7-1,15.3-1.5,23c-0.4,5.6-0.9,11.1-1.3,16.7c-0.6,7.5-1.2,14.9-1.8,22.4
		c-0.9,10.7-1.6,21.5-2.7,32.2c-1.2,11.7-2.7,23.3-4.1,34.9c-2.5,21.5-4.5,43.2-9.1,64.4c-0.3,1.2,0.1,2.6,0.1,4.1
		c2.2,0.6,4.2,1.3,6.3,1.7c8.9,1.6,17.8,3.2,26.7,4.5c7.4,1.1,14.9,2,22.3,2.4c9,0.5,18.1,0.5,27-1.1c6-1.1,12.1-2.2,18.1-3.5
		c3.1-0.7,3.7-1.5,3.9-4.8c0.3-4.4,0.6-8.8,0.7-13.2c0.2-5.2,0.3-10.4,0.6-15.6c0.5-8.6,1.2-17.2,1.8-25.9c0.5-7.3,1-14.6,1.5-21.8
		c0.4-5,0.8-10,1.3-14.9c0.7-8.2,1.3-16.5,2-24.7c0.5-6.3,1-12.6,1.5-19c1-11.9,2-23.7,3-35.6c0.9-11.1,1.7-22.2,2.7-33.3
		c1.4-15.5,2.9-31,4.4-46.5c0.5-5.4,1-10.7,1.5-16.1c0.6-6.7,1.3-13.4,1.8-20.1c0.6-7.7,1-15.3,1.5-23c1-14.8,2.1-29.5,3-44.3
		c0.7-11.1,1.1-22.3,1.6-33.4c0-1,0.1-1.9,0.2-2.9c1-12.8,1.9-25.7,3-38.5c1.2-14,2.4-27.9,3.9-41.9c1.3-13,2.8-26,4.3-38.9
		c1.4-11.6,2.8-23.3,6.2-34.6c0.8-2.6,1.3-5.2,1.9-7.8c0.8-3,1.5-6,2.5-8.9c0.9-2.8,2.2-5.3,4.5-7.2c0.7-0.6,1.3-1.4,1.9-2.2
		c-0.5-2-0.9-3.8-1.5-5.7c-4.3-13.7-7.8-27.8-13.2-41.1c-0.8-2-1.4-4-2-6c-0.5-1.7-0.9-3.3-1.2-5c-0.2-0.9,0-1.9,1.3-2.1
		c3,2.8,3.1,3.1,4.9,8.2c7.2,21.1,15.6,41.8,24.9,62c2.7,5.9,5.6,11.8,7.8,17.9c5.6,15.3,10.9,30.8,16.3,46.2
		c1.8,5.3,3.6,10.6,5,15.9c11.1,40.6,22.3,81.1,33.3,121.8c13,48.2,25.8,96.5,38.8,144.7c4.7,17.4,9.8,34.8,14.7,52.2
		c9.2,32.7,18.3,65.5,27.7,98.2c6,20.7,12.4,41.2,18.6,61.8c0.2,0.7,0.5,1.5,0.7,2.2c0.5,2,1.9,2.8,3.8,2.8c0.8,0,1.5,0.1,2.3,0.1
		c10-0.2,20,0.3,29.9-1c7.6-0.9,15.2-1.9,22.7-3.7c15.7-3.8,30.7-10,45.4-16.5C1346.3,1307.8,1346.7,1307.3,1347.5,1306.6z
		 M382,368.2c-1,2.6-1.4,4-2.1,5.3c-3.8,7.1-7.7,14.2-11.5,21.3c-3.5,6.6-7,13.2-10.5,19.9c-2.5,4.8-4.7,9.7-7.4,14.3
		c-13.3,23.5-24.8,47.7-34.4,72.9c-3.4,8.9-5.2,18-5.9,27.5c-0.5,6.8,0.6,13.4,3.1,19.7c2.8,7.1,7.8,11.7,15,14.1
		c1.6,0.5,3.3,1,5,1.4c12.7,3,25.6,5.1,38.6,6.8c7.8,1,15.6,1.8,23.5,2.7c5.7,0.6,11.4,1.3,17.2,1.8c7.3,0.6,14.6,1.1,21.8,1.5
		c1.5,0.1,3-0.3,4.7-0.5c1.7-6.6,3.6-12.8,4.8-19.2c0.1-0.7,0.1-1.5,0.1-2.3c-0.2-6.2,0.9-12.3,1.9-18.3c1.8-11.4,3.8-22.7,5.4-34.1
		c1.5-10.5,2.5-21,3.7-31.5c2-17.9,1-35.7-3.5-53.2c-4.8-18.7-12.1-36.5-20.8-53.6c-4-7.9-9.2-15.1-14.7-22c-2.2-2.7-4.6-3.5-8-2.9
		c-7.3,1.4-14.6,0.1-21.7-1.3c-7.4-1.4-14.3-4.3-20.4-8.9c-1.1-0.8-2.3-1.4-3.5-2.1c-9.6-5.2-19.3-10.4-28.9-15.7
		c-18.2-9.9-36.4-19.9-54-31c-2.6-1.6-5.2-3.3-7.8-4.9c-0.7-0.4-1.7-0.5-2.5-0.7c-0.3,0.7-0.7,1-0.7,1.4
		c1.4,37.8,1.5,75.7-0.2,113.5c0,0.2,0.1,0.4,0.2,0.5c0.1,0.1,0.3,0.2,0.7,0.4c0.4-0.6,0.8-1.1,1.2-1.8c5.3-9.2,10.6-18.3,15.8-27.5
		c1.1-2,2-4.2,2.9-6.3c2.7-6.1,5.3-12.3,8.2-18.4c1.1-2.4,2.8-4.6,4.4-6.7c0.5-0.6,1.7-1,2.5-0.9c1.1,0.2,1.1,1.3,1.1,2.3
		c0.1,1-1.3,2,0,3.1c1.5-1.5,2.9-3.1,4.5-4.5c1.6-1.3,3.6-1.2,4.7-0.1c1.1,1,1.3,2.6,0.4,4.3c-0.7,1.3-1.7,2.5-2.6,3.8
		c-4.1,5.8-8.4,11.5-12.3,17.4c-22.9,35.2-40.6,72.8-52.8,112.9c-5.2,16.9-9.2,34.1-10.5,51.9c-0.7,9.5-0.2,18.8,0.9,28.2
		c2.1,17.5,7.3,34.1,15.1,50c3.8,7.6,8.3,14.7,14,21c11,12.3,24.4,20.4,40.7,23.5c3.6,0.7,7.2,1,10.8,1.7c8.3,1.6,16.6,3.2,24.9,4.6
		c15,2.4,30.1,4,45.2,4.9c13.2,0.9,26.5,1.1,39.7,1.6c1.3,0.1,2.7,0.1,4,0.2c7.7,0.3,15.4,0.6,23,0.9c1.3,0.1,2.7,0.2,4,0.3
		c4.6,0.6,9.1,1.3,13.7,1.8c9.5,1,19.1,1.8,28.7,2.8c8.6,0.9,17.2,2,25.7,3.1c8.2,1,16.4,2.1,24.6,3.1c9.3,1.2,18.4,0.9,27.1-3
		c1.4-0.6,2.9-1.3,4-2.3c6.8-6.5,12.2-13.8,14.4-23.2c1.8-7.7,1.5-15.2-2.3-22.4c-4.6-8.6-11.2-15.2-20.1-19
		c-9.4-4-19.3-6.5-29.7-6.3c-8.1,0.1-16.1,0.1-24.2-0.1c-12.1-0.4-24.2-0.9-36.3-1.5c-5.8-0.3-11.5-0.8-17.2-1.3
		c-6.9-0.6-13.8-1.3-20.7-1.8c-7.5-0.6-15-0.9-22.4-1.5c-5.2-0.4-10.3-0.8-15.5-1.3c-9-0.9-17.9-2-26.9-3
		c-13.2-1.5-26.3-3.5-39.2-6.3c-5.1-1.1-10.2-2.1-15.1-3.6c-8.7-2.6-16.3-6.8-19.9-15.9c-0.8-2.1-2.2-4.1-3.1-6.2
		c-0.9-2.1-1.6-4.3-2-6.6c-2-10.9-1.6-21.9,1.5-32.5c1.9-6.6,4.1-13.2,6.7-19.6c11.5-28.8,25.3-56.4,42.1-82.5
		c7.7-12,15.4-23.9,24.1-35.2C378,371.4,378.9,369.7,382,368.2z M942.4,695.9c3-1.2,5.3-0.8,7.5-0.7c5.2,0.1,10.5,0.1,15.4-1.6
		c4.1-1.5,8.2-1.8,12.5-2c14.7-0.7,28.9-3.8,42.4-9.7c5.3-2.3,10.3-5.2,15.3-8c19.8-10.9,36.6-25.2,51.3-42.3
		c13.2-15.5,23.8-32.5,32.6-50.8c1-2.1,2-4.1,3.9-5.6c2.5-1.9,3.5-4.5,3.5-7.6c0-3.5,1-6.8,2.2-10.1c8.8-23.6,16.3-47.6,23.1-71.8
		c4.9-17.6,8.6-35.4,10.9-53.6c1.4-11,3-22.1,4.7-33.1c2.3-14.3,2.8-28.6,0.8-43c-2.3-15.9-8.3-30.3-18.3-42.9
		c-0.7-0.9-1.6-1.5-2.3-2.1c-3.6,1.8-6.8,3.6-10.2,4.9c-7.2,2.8-14.4,5.4-21.7,7.8c-3.5,1.1-5.9,3.1-7.8,6.2
		c-3.7,5.9-7.7,11.5-11.5,17.2c-0.4,0.6-0.6,1.3-0.9,1.9c1.9,1.1,3.2-1.7,5.2,0c-0.7,1.1-1.5,2.2-2.2,3.3
		c-3.6,5.5-7.5,10.7-9.9,16.8c-5.6,13.9-10.4,28.1-13.4,42.8c-4.3,20.7-8.3,41.4-12.6,62.1c-3.2,15.2-6.7,30.4-11.9,45.1
		c-8.3,23.4-22,43-41.4,58.5c-8.3,6.6-17.2,12.2-26.4,17.4c-5.1,2.9-9.6,7-15.6,8.4c-15.8,7.4-32.4,12-49.4,15.2
		c-11,2.1-22,3.7-33.1,4c-10.9,0.4-21.9,0.1-32.8,0.1c-2.9,0-5.8-0.2-8.6-0.4c-6.9-0.5-13.8-1.2-20.7-1.7c-7.7-0.6-15.3-0.9-23-1.6
		c-3.1-0.3-6.1-0.1-9.1,0.5c-1.7,0.3-3.4,0.8-5.1,0.9c-2.4,0.2-3.8,1.5-4.8,3.5c-3.1,6.5-5.6,13.1-6.6,20.2
		c-0.4,3.2-0.7,6.5-0.4,9.7c0.7,6.3,2.5,12.4,5.5,18.1c2,3.7,4.1,7.4,6,11.2c1.1,2.2,2.7,3.3,5.3,3.9c10.1,2.2,20.2,4.8,30.3,7.2
		c3.4,0.8,6.8,1.3,10.2,1.7c9.2,1,18.3,2,27.5,2.7c11.7,0.8,23.4,1.5,35.1,1.9c9.2,0.3,18.4,0.1,27.6-0.7c8.5-0.8,17.2-0.9,26.4-1.3
		C945.6,697.5,944.4,696.9,942.4,695.9z M431.2,1312.2c-1.3-0.7-2.2-1.3-3.2-1.8c-1.9-1-3.8-1.9-5.7-2.8c-2.5-1.2-3.5-3.3-3.5-6.1
		c0-2.3,0-4.6-0.3-6.9c-2-14.7-3.4-29.4-4.5-44.1c-0.4-5.7-0.9-11.5-1.3-17.2c-0.7-8.6-1.3-17.2-1.9-25.9c-0.5-7.7-1-15.3-1.5-23
		c-0.4-5.2-0.9-10.3-1.4-15.5c-0.6-6.3-1.2-12.6-1.8-18.9c-0.9-10.5-1.7-21.1-2.7-31.6c-0.9-10.5-2-21-3-31.5
		c-1.2-13.4-2.3-26.8-3.4-40.2c-1.3-14.7-2.8-29.4-3.9-44.2c-1-13-1.4-26.1-2.2-39.1c-0.4-6.6-0.8-13.1-1.2-19.7
		c-0.5,3.9-0.7,7.7-0.9,11.5c-0.6,8.8-1.3,17.6-1.9,26.4c-0.5,7.9-1,15.7-1.5,23.6c-0.4,5.4-0.8,10.7-1.2,16.1
		c-0.6,7.8-1.3,15.7-1.9,23.5c-0.6,7.9-1,15.7-1.5,23.6c-0.4,5.6-0.8,11.1-1.3,16.7c-1,10.9-1.9,21.8-3,32.7
		c-0.9,9.6-1.7,19.1-2.8,28.7c-1.3,11.5-2.7,22.9-4.1,34.3c-1.9,16.2-3.6,32.4-5.7,48.6c-2.6,19.8-5.4,39.6-8.1,59.4
		c-0.4,3-1.2,6.1-1.2,9.1c0.1,7.5-0.9,14.9-1.9,22.4c-0.2,1.3,0,2.6,0,4c1.5,0.6,2.7,1.2,4,1.6c7.9,3,15.9,5.8,23.7,9
		c13.9,5.7,27.1,12.7,40.4,19.7c0.9,0.5,1.8,1.6,2.9,0.8c0.2-3.4,0.2-6.6,0.5-9.8c0.7-9,2.8-17.8,5.3-26.5
		C430,1316.8,430.5,1314.6,431.2,1312.2z M419.5,1364.2c-5.4-2.9-10-5.6-14.8-8.1c-20.6-10.9-41.8-20.2-63.8-28
		c-2.5-0.9-4.8-0.8-7.3-0.1c-4.4,1.3-8.9,2.6-13.3,3.6c-14.1,3.4-28.4,4.3-42.8,1.8c-17.9-3.2-33.7-10.3-46.5-23.5
		c-0.7-0.8-1.2-2.1-3-1.6c-0.5,3.5-1,7-1.4,10.6c-1,9.2-1.8,18.3-2.7,27.5c-1.3,12.6-2.7,25.2-4,37.8c-0.2,1.5-0.2,3.1-0.2,4.6
		c-0.1,1.7,0.6,3.1,2.2,3.7c2.6,1.2,5.2,2.6,8,3.1c5.4,1.2,11,1.9,16.5,2.7c2,0.3,4.1,0.3,6.5,0.4c0-1.3,0-2.2,0-3.2
		c-0.1-11.1-0.1-22.3-0.2-33.4c0-1.7,0.1-3.5,0.4-5.2c0.1-0.8,0.8-1.6,1.4-2.8c1.6,1.5,2.7,2.7,4,3.8c3.9,3,5.5,7.1,6.5,11.8
		c1.6,8.1,4.3,15.9,7.2,23.7c0.5,1.2,1.2,2.3,2,3.7c2.2,0,4.3,0,6.4,0c4.2,0.1,8.4,0.2,12.7,0.4c13.2,0.6,26.5,1.3,39.7,1.9
		c11.1,0.5,22.2,0.9,33.4,1.4c5,0.3,9.9,0.9,14.9,1.3c8.2,0.7,16.4,1.5,24.6,2.2c1.1,0.1,2.2-0.2,3.5-0.3c0.4-4.9,0.9-9.4,1.3-14
		c0.3-4.5,1.3-8.7,3-12.8C415.4,1373.1,417.4,1368.9,419.5,1364.2z M696.9,653.5c-0.3,4.7-2.2,7.4-4.1,10
		c-5.1,7-11.7,12.8-18.3,18.2c-7.9,6.4-16.9,11.3-26.2,15.5c-9,4.1-18.5,6.5-28.4,6.4c-4,0-8.1-0.1-12.1,0c-0.9,0-2-0.3-2.7,1.1
		c2.4,5,6.7,7.6,12,8.4c3.2,0.5,6.5,0.5,9.8,0.4c8.4-0.2,16.4-2.3,24.2-5c17.2-5.9,33.3-14,46.2-27.3c0.8-0.8,1.7-1.5,2.7-2.2
		c0.2-0.2,0.7,0.1,1.4,0.1c-0.4,0.9-0.5,1.8-1,2.5c-1.9,2.6-3.7,5.4-5.9,7.8c-4.6,4.9-9.3,9.7-14.2,14.3c-2.1,2-4.5,3.6-7,5
		c-6.6,3.6-13.6,6.3-20.8,8.5c-0.8,0.3-1.9,0.3-1.8,1.9c2.1,1.3,4.4,1.9,6.9,2.2c6.7,0.6,13.4,0.5,20-1.5c3.5-1.1,7-2.1,10.4-3.4
		c7.6-3.1,15.2-6.4,22.8-9.7c1.9-0.8,3.6-2.1,6.3-1.9c-0.6,1-0.8,1.7-1.3,2.2c-4.9,4.3-9.5,9-15.4,12.1c-1.9,1-3.5,2.3-5.2,3.6
		c-0.6,0.4-1.4,0.8-0.8,2.1c5.2,0.4,10.5,1.8,15.8,0.2c3.3-1,6.6-2.1,9.7-3.5c7.6-3.3,14.7-7.5,21.6-12.1
		c11.6-7.9,22.4-16.9,33.1-25.9c0.5-0.5,0.8-1.2,1.3-2c-0.9-1.8-1.8-3.5-2.5-5.2c-1.4-3.2-2.9-6.3-4.1-9.5
		c-2.9-8.3-3.8-16.8-1.7-25.5c1.2-5.1,2.9-9.9,5.1-14.7c0.7-1.5,1.3-3.1,2-4.9c-1.4-0.8-2.5-1.6-3.7-2c-7.1-2.5-14.3-4.3-21.7-5.6
		c-1.5-0.3-3.1-0.3-4.6,0.1c-4,1-8,0.8-12,0c-3.2-0.6-6.5-0.9-9.7-1.6c-8.6-1.7-17.2-1.4-25.8,0.1c-5.7,1-11.1,3.1-16.4,5.5
		c-1.9,0.9-3.1,2.2-3.1,4.4c0,0.6-0.1,1.1-0.1,1.7c-0.5,10.5-4.2,19.9-10.4,28.3c-7.3,9.8-16.5,17.2-28.4,20.5
		c-7,2-14.2,3.6-21.6,2.3c-0.9-0.2-1.9-0.1-2.9-0.1c-3.6,0.2-7.3,0.4-10.9,0.7c-4,0.4-8,0.6-12,1.4c-2.4,0.4-4.9,1.3-7,2.6
		c-4.5,2.8-4.9,7.4-1.2,11.2c2.6,2.7,5.9,3.3,9.4,3.9c7.8,1.3,15.7,1.2,23.6,1.1c12.1-0.2,23.6-3.1,34.1-9.1
		c5.7-3.3,11.3-6.5,16.8-10.1c9.2-6.2,18.6-12.3,26.1-20.7C693.9,655.1,695,654.7,696.9,653.5z M1031.2,323.1c1,0.3,1.9,0.7,2.8,0.7
		c2.9-0.1,5.8,0,8.6-0.6c19.2-3.6,37.8-8.9,55-18.3c4.4-2.4,9-4.5,12.3-8.4c4.2-5,8.3-10.1,12.5-15.1c1.6-1.9,2.2-3.9,2.2-6.4
		c0-4.4,0-8.8,0.2-13.3c0.3-8.3,0.7-16.5,1-24.8c0-0.6,0.1-1.2,0.1-1.7c0.1-1.9,0.9-3.3,2.8-3.9c2.6-0.8,5.1-1.6,7.7-2.4
		c2-0.6,4.1-0.9,6.1-1.7c6.5-2.7,9.8-8.9,8.5-15.9c-1.2-5.9-8.2-10.9-14.1-10c-1.9,0.3-3.8,0.5-5.7,0.5c-5.5,0.1-7.1-1-9.2-6
		c-1-2.3-1.8-4.7-2.9-6.9c-6.9-14.3-23.4-25.7-43.4-18.7c-6.9,2.4-13.7,5.1-20.5,7.6c-2.4,0.9-3.8,2.5-4.4,4.9
		c-1.2,4.3-2.4,8.5-3.5,12.8c-1,3.7-2.2,7.4-2.6,11.2c-1.7,14.7-3.2,29.4-4.8,44.1c-1.2,10.9-2.5,21.8-3.9,32.6
		c-1.6,12.4-3.3,24.8-4.9,37.1C1030.9,321.3,1031.1,322.1,1031.2,323.1z M1042.2,355.9c0.2,1.7,0.2,3.1,0.6,4.4
		c3.1,11.4-4.6,26.2-13.9,31.1c-4.3,2.2-8.5,4.5-13,6.1c-4.2,1.5-7.4,3.8-9.9,7.4c-1.2,1.7-1.7,3.2-1.2,5.3c2,9.6,2.4,19.4,2.8,29.2
		c0.6,15.6-0.1,31.1-2.3,46.6c-1.3,8.9-2.9,17.8-5.6,26.5c-3,9.8-7.6,18.9-13.9,27c-1.8,2.4-3,4.9-3.4,7.8c-0.2,1.5-0.5,3-0.7,4.6
		c-1.6,10-3.3,20.1-4.9,30.1c-0.3,1.8-0.9,3.7,0.4,5.8c1.1-0.5,2.2-0.9,3.1-1.5c5.4-3.3,10.8-6.6,16.1-10.1
		c8.1-5.5,15.5-12,22.2-19.2c10.7-11.6,18.1-25.2,23.6-39.9c4.7-12.6,7.9-25.7,10.9-38.8c4.9-21.9,9.5-43.9,14.3-65.9
		c2.1-9.4,4.5-18.7,8-27.7c2.7-7,5.8-13.8,8.6-20.7c0.4-1,1.5-1.9,0.5-3.5c-0.8,0.4-1.6,0.8-2.3,1.3c-3.9,2.4-7.8,5-11.7,7.3
		c-4,2.4-8.7,2.2-11.8-0.5c-4-3.5-8.6-6.6-10-12.2c0-0.2-0.2-0.3-0.3-0.5c-0.6-1.1-1.6-1.6-2.9-1.3
		C1044.4,354.9,1043.5,355.3,1042.2,355.9z M374.4,293.5c-0.7-9.2-1.2-18.2-2.1-27.2c-1.4-13.8-3.6-27.4-6.9-40.9
		c-2.4-10.1-5.1-20.1-8.9-29.8c-3.2-8.3-7.4-16-12.8-23.1c-6.3-8.3-14.5-14.2-23.9-18.4c-1.5-0.7-3.2-1-4.5-1.5
		c-2.3,1.2-2.7,3.3-3.7,4.8c-7.5,11.5-16.7,21.1-29.9,25.9c-1.5,0.6-2.5,1.4-3.4,2.9c-1.5,2.5-2.1,2.7-4.6,2
		c-0.7-0.2-1.5-0.5-2.2-0.7c-8.6-2.1-18.2,0.2-23.6,9.8c-3.5,6.2-2.8,12.1,1.5,17.1c5.5,6.4,12.4,10.8,20.9,12.3
		c2.6,0.5,5.3,0.7,8,1.2c1,0.2,1.9,1,3.2,1.7c-1.1,0.9-1.7,1.7-2.5,2c-1.6,0.6-3.3,1-5,1.3c-4.2,0.8-4.7,1.3-4.3,5.2
		c0.4,3.5,0.5,6.9,0.1,10.3c-0.1,0.7,0.2,1.5,0.3,2c0.3,0.4,0.4,0.6,0.6,0.6c33.8,12.6,67.1,26.6,99.9,41.7c0.5,0.2,1.1,0.4,1.6,0.6
		c0.4,0.1,0.7,0.2,1.1,0.2C373.4,293.8,373.6,293.7,374.4,293.5z M439.4,1314.1c-0.5,0.8-1.1,1.4-1.2,2.1c-1.7,7.9-3.5,15.7-5,23.7
		c-0.8,4.1-1.1,8.4-1.3,12.6c-0.3,4.4,0.5,5.4,4.5,6.9c3.1,1.1,6.2,2.1,9.2,3.2c6.7,2.3,13.5,2.5,20.5,2.2c2.3-0.1,3.1-0.9,3.2-3.2
		c0.2-3.5,0.1-6.9,0.3-10.4c0.3-7,1.9-13.7,4.6-20.1c0.8-1.9,1.9-3.8,3.3-5.3c2.4-2.7,6.1-2.1,7.5,1.2c1.1,2.6,1.9,5.5,2.2,8.3
		c0.7,5.9,0.9,11.9,1.4,17.8c0.3,3.4,0.4,6.9,0.8,10.3c0.4,3.5,1.2,4.2,4.6,4.8c4.7,0.8,9.4,1.6,14.2,2.3c7.8,1.2,15.5,2.5,23.3,3.5
		c11,1.4,22.1,2.6,33.1,3.9c13.3,1.7,26.6,3.4,39.9,5.1c0.7,0.1,1.5-0.2,2.5-0.3c0.9-4.2,1.6-8.3,2.6-12.3c1-3.9,2-7.9,3.5-11.5
		c1.6-3.8,3.9-7.4,5.9-11.2c-1.3-1-2.3-1.9-3.4-2.6c-11.9-7.4-24.1-14.4-36.6-20.7c-15.5-7.7-31.2-14.9-45.9-24.1
		c-1.8-1.1-3.5-1.3-5.4-0.3c-0.7,0.4-1.4,0.7-2.1,1c-15.1,7-30.7,12.2-47.3,14c-10.4,1.2-20.7,1.2-31-0.1
		C444.8,1314.7,442.2,1314.5,439.4,1314.1z M1125.8,1404.4c2.2,1.3,4.3,1.1,6.4,1.1c6.9,0,13.8-0.2,20.7-1.1
		c13.5-1.8,27.1-3.1,40.5-5.1c19.7-3,39.4-6.2,59.3-8c12.2-1.1,24.5-2.2,36.8-2c1.3,0,2.7-0.1,4,0c3.3,0.4,5.5-1.2,7-4
		c2.2-4.1,4.3-8.1,6.5-12.2c1.9-3.6,3.6-7.2,5.7-10.7c2.3-3.9,4.5-4.3,8.7-2.1c3.1,1.7,5.6,4,7.7,6.8c3.2,4.2,5.6,8.7,7.2,13.7
		c0.5,1.6,1.2,3.1,2,5c5.4-0.6,10.4-1.2,15.6-3.3c-0.1-1.8-0.1-3.5-0.4-5.2c-1.8-12-3.6-23.9-5.4-35.9c-1-6.5-2.1-12.9-3.2-19.3
		c-0.2-1.1-0.8-2-1.3-3.2c-1,0.2-1.8,0.2-2.5,0.4c-2.9,1.1-5.7,2.3-8.6,3.4c-20.6,8.3-41.8,14.3-64.3,14.1c-2.6,0-4.4,0.9-5.8,3
		c-2.4,3.4-4.9,6.9-7.6,10.1c-8.1,9.5-18.3,16.3-29.3,22.1c-4,2.1-8.3,3.2-12.7,3.4c-6.8,0.2-13.1-1.8-16.3-9.3
		c-0.3-0.8-0.9-1.6-1.4-2.6c-1.3,0.5-2.4,0.7-3.4,1.2c-17.7,8.4-35.3,16.9-51.9,27.5c-3.6,2.3-6.9,4.8-10.3,7.4
		C1128,1400.6,1126.3,1401.7,1125.8,1404.4z M247.4,184.5c0.9-0.1,1.5,0,2-0.2c3.6-1.9,7.3-3.5,11.4-3.9c0.6-0.1,1.2-0.2,1.6-0.5
		c3.6-2.5,7.9-3,12-3.6c6.1-0.9,11.3-3.7,16-7.4c6.8-5.4,12.9-11.5,17.4-19c0.7-1.2,1.5-2.3,2.3-3.3c1-1.3,2.4-2,4-1.7
		c2.6,0.5,5.3,0.9,7.8,1.8c8.9,3.4,17.1,7.8,23.6,15c2.6,2.9,5.2,5.7,7.4,8.8c2.4,3.5,5.4,5.9,9.2,7.6c1.6,0.7,3.2,1.4,4.7,2.1
		c4.2,2,8.7,2.8,13.4,2.8c15.3,0.1,29.6-3.8,43.2-10.6c13.3-6.7,21.7-17.5,26.6-31.2c2.1-5.8,2.7-12,1.9-18.2
		c-0.3-2.3-0.5-4.6-0.8-6.9c-0.1-0.7-0.4-1.3-0.9-2.6c-0.9,1.4-1.4,2.1-1.9,3c-1.3,2.6-2.5,5.2-3.9,7.7c-0.5,1-1.3,2-2.7,1.8
		c-1.3-0.2-2.8-2.1-2.7-3.3c0-0.8,0.2-1.5,0.4-2.2c0.8-2.4,1.5-4.8,2.4-7.1c1.7-4.1,1.8-8.3,1.1-12.5c-0.8-4.7-5-7.1-9.5-5.1
		c-2.6,1.1-5.1,2.7-7.3,4.5c-7.2,6.1-14.2,12.4-21.2,18.6c-4.2,3.7-8.1,7.7-12.6,11c-16.1,11.9-33.8,18.1-54,14.5
		c-9.7-1.7-19.1-4.4-26.1-12.1c-0.8-0.9-2.3-1.3-3.6-1.5c-1.5-0.2-3.1-0.1-4.6,0.2c-8.1,2-14.3,6.4-17.5,14.4c-1,2.5-2.4,4.8-3.9,7
		c-1.1,1.7-3.3,1.2-4-0.8c-0.5-1.4-0.8-2.9-1.2-4.3c-3.9-2.3-7.9-2-11.9-1.2c-5.2,1.1-9.9,3.2-13.3,7.5c-3.6,4.6-6.1,9.8-6.1,15.8
		c0,4,0.1,8.1,0.3,12.1C246.4,182.4,247,183.4,247.4,184.5z M849.2,1362.5c-1,0.3-1.9,0.4-2.8,0.8c-19.8,8.9-39.2,18.6-57.4,30.6
		c-2.9,1.9-5.6,4.1-8.3,6.2c-0.6,0.5-0.8,1.5-1.2,2.2c1.9,2,4.1,1.8,6.2,2c9.1,0.6,18-0.4,26.9-1.9c7.8-1.3,15.5-2.8,23.3-3.9
		c15.2-2.1,30.4-4,45.7-5.7c12.8-1.5,25.6-2.6,38.4-3.9c3.7-0.4,7.1-1.4,10-3.9c5.5-4.8,11.1-9.5,16.7-14.2c1.6-1.4,3.1-2.9,4.8-4.1
		c6.3-4.2,9.8-2.4,12.2,2.7c2.5,5.2,5.2,10.3,7.8,15.4c0.9,1.7,1.8,3.4,2.8,5.2c1.9,0.1,3.6,0.2,5.3,0.2c1.9-0.1,3.8-0.3,5.7-0.6
		c1.7-0.2,3.5,0,5.1-1.9c0.1-1.4,0.3-3.3,0.4-5.2c0.2-2.5,0.2-5,0.5-7.5c0.9-9.4,1.9-18.7,2.7-28.1c0.2-1.7,0.7-3.5-1-5.1
		c-0.9,0.1-2.1,0-3.2,0.2c-6.7,0.9-13.3,1.7-20.1,1.8c-13.7,0.1-27.2-1.7-40.6-4.1c-2.8-0.5-5.6-1.2-8.6-0.9
		c-0.9,1.1-1.7,2.2-2.5,3.3c-8.7,11.3-19.5,20.1-31.8,27.1c-6.7,3.8-13.9,5.3-21.6,4.7c-6.3-0.5-11.4-3-14.3-9.1
		C850.2,1364,849.7,1363.3,849.2,1362.5z M745.7,604.6c0.2-2.2-1.2-3.6-2.4-5c-3-3.5-6.7-6.3-10.8-8.5c-7.6-4.2-15.9-6.8-24-9.6
		c-4-1.4-7.8-1.6-11.9-0.5c-7.6,2-15.2,4.1-23,5.2c-1.3,0.2-2.6,0.7-3.9,1.1c-3.9,1.1-7.7,2.3-11.6,3.4c-8.5,2.3-17.1,4.5-25.6,6.7
		c-6,1.6-11.6,3.9-16.6,7.8c-1,0.8-1.8,1.8-2.8,2.8c0.7,1.3,1.2,2.3,1.8,3.2c3.5,5.5,4.9,11.6,5,18.1c0,7-1.5,13.7-3.9,20.2
		c-1.9,5-3.6,10-5.4,15c1.3,2.1,3.3,2,5.2,2c3.8,0,7.7-0.2,11.5-0.3c7.3-0.2,14-2.3,20-6.4c9.7-6.5,16.6-15.3,20.8-26.2
		c0.8-2.1,1.3-4.4,1.8-6.7c0.2-0.9,0.2-2-1-2.4c-2.4-0.2-4.1,2.6-7.3,1.7c1.5-1.7,2.5-3,3.7-4.3c2.1-2.2,4.5-4.2,6.4-6.7
		c1.9-2.6,4.4-4.2,7.3-5.4c11.6-5.1,23.7-7.6,36.4-6.2c4.2,0.5,8.3,1.3,12.5,1.9c4,0.6,8,1.2,12,1.6
		C742.1,607.4,744.4,606.9,745.7,604.6z M992,163.4c0.1,4.1,0.8,6.1,2.4,9.5c2.5,5.1,6.7,7.9,12.1,8.6c5,0.7,10,0.9,14.9-0.4
		c6.7-1.7,13.4-3.5,19.9-5.7c8.7-3,17.2-6.5,25.8-9.8c2.7-1,5.4-2,8.1-2.9c14.9-4.4,28-1.3,39.5,9.2c4.3,3.9,7.8,8.5,10.3,13.8
		c0.7,1.4,1.5,2.6,2.4,3.8c0.3,0.3,1.1,0.5,1.5,0.4c0.4-0.2,0.8-0.8,1-1.3c0.2-0.7,0.2-1.5,0.1-2.3c-0.4-3.4-0.9-6.8-1.4-10.3
		c-1-6.9-3.2-13.4-7.1-19.2c-4.8-7.1-11.4-11.7-18.7-15.8c-9-5-18.5-6.1-28.4-4.5c-13.3,2.2-26.2,5.8-38.7,10.8
		c-13.2,5.3-26.4,10.5-40.1,14.4C994.3,162.2,993.1,162.9,992,163.4z M925.9,536.6c1.4-0.6,2.2-0.9,3.1-1.3c5-2.4,10-4.9,15.1-7.2
		c14.4-6.4,28.8-12.7,43.3-18.8c3.2-1.3,5-3.3,5.5-6.7c1.1-6,2.3-12.1,3.4-18.1c0.3-1.4,0-3,0-4.7c-2.8-0.2-4.8,1-6.8,1.9
		c-10.9,4.7-21.9,9.4-32.7,14.3c-10,4.5-19.8,9.4-29.7,14c-2.9,1.3-3.9,3.2-3.9,6.3c0,6,0.7,11.9,1.5,17.8
		C924.8,534.7,925.3,535.4,925.9,536.6z M383.9,329.2c-0.1-1.2-0.1-2.1-0.3-3c-1-5.5-2.1-10.9-2.9-16.4c-0.3-2.4-1.4-3.7-3.6-4.7
		c-5.3-2.3-10.5-4.6-15.8-7c-14.9-6.7-29.7-13.5-44.7-20.1c-15.1-6.6-30.7-12.3-45.5-19.7c-0.6-0.3-1.4-0.3-2.1-0.5
		c-1.8,5.5-1.4,6.8,2.5,9.4c0.6,0.4,1.3,0.8,2,1.2c8,4.7,15.9,9.4,23.9,14c26.9,15.3,54.6,29.1,80.9,45.5
		C379.8,328.8,381.3,329.7,383.9,329.2z M998.3,450.6c-1.5,0.4-2.6,0.6-3.7,1c-4,1.4-7.9,2.9-11.9,4.2c-8.1,2.6-15.7,6-23.3,9.9
		c-5.3,2.7-10.8,5-16.2,7.5c-2.1,0.9-4.2,1.8-6.4,2.6c-2.5,0.9-4.1,2.7-5.3,5c-3.6,6.7-5.5,13.9-6.9,21.3c-0.2,1,0.3,2.1,0.5,3.6
		c2-0.9,3.6-1.5,5.1-2.2c15.7-8.1,31.8-15.4,48.1-22.1c5.3-2.2,10.6-4.6,15.9-6.7c2.2-0.9,3.5-2.2,3.7-4.6
		c0.3-5.7,0.8-11.5,1.1-17.2C999,452.3,998.7,451.7,998.3,450.6z M484.8,1413.1c-0.7-1.1-1-1.8-1.5-2.4
		c-5.8-6.4-11.9-12.5-18.7-17.8c-12-9.4-25-17-38.1-24.7c-0.9-0.5-2.1-0.7-3-1c-6.6,8.5-11,26-7.9,37.6c1,0.2,2.1,0.6,3.2,0.7
		c8.8,0.8,17.6,1.4,26.3,2.3c12.4,1.4,24.7,2.7,37,5.3C482.7,1413.3,483.5,1413.1,484.8,1413.1z M247.2,241.3
		c-1.3,3.3-1.3,3.3-3.8,4.8c-5.3,3.4-9.3,8-12,13.7c-2.2,4.5-1.3,8.6,2,12.2c1.2,1.2,2.6,2.2,4,3.3c3.9,2.9,7.8,2.7,11.7-0.1
		c4.8-3.4,8.4-7.8,11.4-12.8c0.7-1.3,1.1-2.9,1.2-4.4c0.3-6.9,0.3-13.8,0.5-20.7c0.1-3.1-1.2-4.9-4.1-6.1
		c-6.2-2.4-11.4-6.4-15.6-11.5c-0.4-0.4-0.8-0.9-1.1-1.3c-1-1.1-2.3-1.5-3.7-1.2c-7.9,1.8-14.2,5.7-18,13c-1.3,2.6-0.8,4.3,1.5,5.9
		c2.9,2,6.2,3.1,9.7,3.2c3.1,0.1,6.1,0.1,9.2,0.2C242.6,239.5,245,240,247.2,241.3z M623.8,1350.9c-2,1.4-3.1,3.6-4.2,5.8
		c-3.3,6.8-4.8,14.1-6.4,21.4c-0.2,0.9-0.2,1.9-0.2,2.9c0.1,2.1,0.9,3,3.2,3.4c0.6,0.1,1.1,0.1,1.7,0.1c8,0.8,16,1.6,24,2.6
		c13.7,1.7,27.3,3.6,41,5.3c1,0.1,2.1-0.1,3.4-0.1C681.6,1385.3,636.8,1356.8,623.8,1350.9z M1113.7,303.9c-1.1,0.4-1.5,0.5-1.8,0.7
		c-10,8.4-21.4,14.3-33.7,18.3c-6.9,2.2-14,4.1-21,6.2c-1.8,0.5-3.6,1.1-5.7,1.7c0,1.7-0.3,3.3-0.1,4.7c0.9,5.7,1.8,11.4,4,16.8
		c0.7,1.8,1.4,3.6,2.3,5.2c2.3,3.8,5.3,5,9.3,3.2c3.1-1.4,6.2-3.1,9-5c6.6-4.5,11.8-10.5,16.1-17.1c7-10.8,13.9-21.7,20.9-32.5
		C1113.3,305.6,1113.3,305,1113.7,303.9z M990.3,389.9c1-0.4,2.3-0.8,3.5-1.3c10.9-4.8,21.8-9.6,32.6-14.4c1.6-0.7,3-1.7,4.6-2.4
		c3.2-1.4,4.2-3.9,3.6-7c-0.8-4.3-1.9-8.6-3-12.8c-0.3-1-1-2-1.6-3c-1.2,0.3-2.1,0.4-3,0.8c-4.1,1.6-8.2,3.3-12.3,4.9
		c-8.6,3.3-17.2,6.5-25.8,9.8c-2.3,0.9-3.1,1.9-3,4.3c0,1,0.2,1.9,0.3,2.9c0.6,4.7,1.2,9.5,1.9,14.2
		C988.3,387.2,988.5,388.8,990.3,389.9z M930.9,558.2c2.8,0.1,5-1.2,7.2-2.2c8.2-3.3,16.2-7,24.4-10.1c4.8-1.8,9-4.1,12.3-8
		c0.9-1,1.9-1.9,2.8-2.9c5.1-6,8.7-12.9,11.9-21.1c-1.9,0.6-2.9,0.9-3.9,1.3c-13.9,5.9-27.9,11.7-41.8,17.8c-4.9,2.1-9.7,4.7-14.5,7
		c-2.2,1.1-3,2.8-2.5,5.2c0.9,3.7,1.8,7.4,2.8,11.1C929.9,557.1,930.5,557.6,930.9,558.2z M937.7,471.2c1.8-0.6,2.9-0.8,3.8-1.3
		c4.5-2.2,8.9-4.5,13.4-6.7c4.6-2.3,9.2-4.9,13.9-6.9c5.3-2.2,10.8-4,16.2-6c4-1.5,7.9-3.1,11.8-4.6c2.1-0.8,2.9-2.3,2.7-4.5
		c-0.3-4.4-0.4-8.8-0.7-13.2c-0.1-0.9-0.5-1.7-0.8-2.8c-1.7,0.4-3,0.6-4.2,1.1c-11.1,4.3-22.1,8.7-33.2,13.1c-1.9,0.7-3.2,2-4.4,3.5
		c-6.2,8.1-12.2,16.2-17.4,25C938.4,468.8,938.3,469.7,937.7,471.2z M423.3,304.3c-3.6-1.7-6.3-3-9.1-4.2c-2.6-1.2-5.3-2.3-7.8-3.6
		c-2.7-1.4-5.4-2.9-8.1-4.4c-2.5-1.4-5-2.8-7.6-4.1c-2.7-1.3-5.1-3.3-8.3-4.5c-0.5,3.6-1.2,6.8-0.8,10.1c1.3,0.8,2.6,1.6,4,2.4
		c0.1,1.6,0.2,3.1,0.4,4.6c0.3,2.7,0.7,5.3,1,8c0.2,1.6,1.1,2.9,2.5,3.6c1.2,0.6,2.4,1.3,3.6,1.8c4.9,1.8,9.3,4.4,13.6,7.4
		c0.9,0.6,1.9,1.1,3.1,1.8C414.3,317,419,311.3,423.3,304.3z M950.3,599.8c1.1,0.1,1.8,0.3,2.2,0.1c4.4-1.8,8.8-3.7,13.2-5.7
		c2.2-0.9,3.1-2.6,3.1-5c-0.1-8.3,1.1-16.4,2.2-24.6c0.4-3,0.8-6.1,1.2-9.1c0.1-1,0-1.9-1.3-2.4c-0.5,0.2-1.1,0.3-1.5,0.6
		c-4.6,3.8-9.2,7.6-13.7,11.4c-1.8,1.5-2.3,3.4-2.5,5.6c-0.6,6.1-1.4,12.2-2,18.3C950.8,592.4,950.6,595.8,950.3,599.8z
		 M915.6,1337.6c-2.1-1.2-3.5-1-5-0.4c-4.8,1.9-9.6,3.8-14.4,5.8c-0.6,0.3-1.2,0.8-2.1,1.4c1.1,1.2,2,2.1,2.8,3.1
		c0.5,0.6,1,1.2,1.2,1.9c0.1,0.6-0.2,1.5-0.5,2c-0.2,0.4-1.1,0.6-1.5,0.4c-0.9-0.3-1.7-0.8-2.5-1.4c-1.2-0.9-2.4-1.9-3.5-2.9
		c-1.1-0.9-2.4-1.2-3.8-0.7c-1.3,0.6-2.6,1.3-4.3,2.1c1.9,2.3,3.5,4.1,5.1,6c1,1.3,1,3,0,3.6c-1.1,0.8-2.2,0.3-3.1-0.5
		c-1-0.9-1.9-1.9-2.8-2.9c-1.5-1.5-3-2.9-4.7-4.5c-1.6,0.7-2.9,1.2-4.6,2c1.6,2,2.9,3.6,4.1,5.3c1.3,1.7,1.3,3.3,0.2,4
		c-1.1,0.6-2.3,0.4-3.6-1c-1.5-1.5-2.7-3.2-4.3-4.6c-0.8-0.7-2.2-1.4-3-1.1c-3.3,1.1-6.4,2.5-9.5,3.9c-1.2,0.5-1.4,1.8-0.9,3
		c0.8,1.9,2.2,3.1,4,3.9c3.6,1.5,7.2,2.4,11.2,1.7c5.3-0.9,10.4-2.6,15-5.5c3.7-2.4,7.5-4.7,10.9-7.5c6.1-4.9,12-10.2,17.9-15.3
		C914.4,1339.3,914.8,1338.6,915.6,1337.6z M1142.4,284.4c-3.6,0-6.4,1.8-9.6,2.4c-2.5,0.4-4.1,2-4.9,4.4
		c-2.8,8.2-6.6,15.9-10.6,23.6c-0.4,0.8-1.1,1.7,0.4,2.7c6.5-2.7,13.2-5.6,20-8.2c3.3-1.3,4.8-3.7,4.9-7c0.2-5,0.3-10,0.4-15
		C1143.1,286.4,1142.7,285.5,1142.4,284.4z M988.7,359.8c1,0,1.4,0.1,1.7,0c11.9-4.7,23.8-9.5,35.7-14.2c0.8-0.3,1.5-1,2.6-1.8
		c-1.9-4.2-2.6-8.8-5.7-12.3c-0.8,0.4-1.3,0.6-1.8,0.9c-6.8,4.9-13.7,9.8-20.5,14.8c-2.3,1.7-4.6,3.5-6.7,5.3
		C991.9,354.5,990,356.6,988.7,359.8z M990.7,401.7c-8.3,9.8-16.1,19.2-24,28.5c-0.2,0.2,0,0.7,0.1,1.2c0.5,0,1.1,0.1,1.6-0.1
		c8.7-3.4,17.4-6.8,26.1-10.2c1-0.4,1.9-1.1,3-1.7c0.8-5.4-1.6-10.2-1.5-15.5C994.2,403.1,992.7,402.5,990.7,401.7z M600.8,610.3
		c0,1.9,1.3,3.4,2.1,5.1c1.5,3.1,2.7,6.3,3.1,9.8c1.3,12.1-1.5,23.2-8.7,33.1c-0.7,0.9-1.4,1.8-2.1,2.7c-0.6,0.8-0.8,1.9,0,2.6
		c0.7,0.6,1.7,1.1,2.5,1.1c1.1-0.1,2.2-0.6,3.1-1.3c2.8-2,4.5-4.8,5.4-7.9c1.7-5.7,3.3-11.4,4.3-17.2c0.7-4.1,0.9-8.4,0.6-12.6
		c-0.3-5.5-2.4-10.4-6.6-14.2C603.6,610.6,602.6,609.5,600.8,610.3z M992,395c0.8,0.9,1.2,1.5,1.8,1.9c3.9,2.7,8,1.3,11.4-0.6
		c6.6-3.6,12.8-7.8,19.1-11.8c1.6-1,2.9-2.4,4.3-3.8c0.5-0.5,0.9-1.3,0.1-2C1024.7,379.6,996.4,392,992,395z M1146,561.6
		c0.3-0.9,0.8-1.8,0.9-2.7c0.6-9.5,1.2-19,1.7-28.5c-4.1,10.1-7.6,20.4-11.2,30.6c-0.2,0.5,0,1.1,0.1,1.9
		C1140.5,563.2,1143.2,562.7,1146,561.6z M1045.8,347.7c-1-5.8-1.8-10.8-2.6-15.5c-0.7-0.4-1.1-0.7-1.4-0.7c-3-0.3-6-0.5-9.1-0.7
		c1,4.2,5.9,15.7,8,18.7C1042.2,348.8,1043.8,348.3,1045.8,347.7z M1035.4,223.8c1-7.2,2-13.9,2.1-21c-3.6-0.3-6.2,1.3-8.8,2.8
		c-2,1.1-2.8,3-3,5.2C1025.3,216.9,1028.5,221.5,1035.4,223.8z M932.9,568.6c3.2,1,5.4-0.4,7.3-1.8c5-3.5,9.8-7.3,14.6-11.1
		c0.5-0.4,1.4-0.8,0.8-1.7c-0.4,0-0.8-0.1-1.1,0c-6.9,2.7-13.9,5.5-20.8,8.3c-0.8,0.3-1.5,1-2.5,1.7
		C931.9,565.8,932.5,567.3,932.9,568.6z M405.5,332.3c-4-5.3-8.9-8.3-13.8-11.2c-0.5-0.3-1.4-0.2-2.3-0.3c-0.3,3.9,0.8,7.1,1.5,10.2
		C396.1,332.9,399.3,333.3,405.5,332.3z M1135.2,236.6c-0.9,2.7-0.8,4.5,0.2,6.3c1.3,2.3,3.2,3.8,5.6,4.7c3.7,1.6,5.9,0.9,8.3-2.6
		C1144.9,242.1,1140.4,239.4,1135.2,236.6z"/>
	<path id="XMLID_264_" d="M451.7,437.4c-0.2,0.7-0.4,1.6-0.9,2.4c-1,1.8-3.4,2.2-4.8,0.7c-2.1-2.2-3-4.8-2.5-7.8
		c0.2-1.4,1.1-2.6,2.6-2.7c1-0.1,2.3,0.3,3.1,1C451,432.6,451.6,434.8,451.7,437.4z"/>
	<path id="XMLID_265_" d="M430.9,376.4c4.1,0.2,6.7,4.7,4.8,8.3c-1,1.9-3.1,2.5-4.8,1.4c-2-1.3-3.3-3.2-3.6-5.6
		C427,378.3,428.8,376.3,430.9,376.4z"/>
	<path id="XMLID_266_" d="M440.6,501.9c0-2.4,1.1-4,2.8-4.3c2.4-0.4,4.6,1.1,5.1,3.4c0.2,0.7,0.2,1.5,0,2.2
		c-0.5,2.7-2.5,4.6-4.4,4.4c-1.8-0.2-3.2-1.9-3.5-4.6C440.6,502.7,440.6,502.3,440.6,501.9z"/>
	<polygon id="XMLID_267_" points="1118.7,430.3 1118.7,429.9 1119,430.1 	"/>
	<path id="XMLID_268_" d="M1139.5,211.8c1.9,0.2,3.2,0.2,4.5,0.6c0.9,0.2,1.8,1,1.5,2.1c-0.2,0.7-0.7,1.5-1.3,1.7
		c-1,0.4-2.2,0.7-3.3,0.7c-2.2,0.1-3.6,1.1-4.3,3.2c-0.3,0.9-0.8,1.7-1.3,2.5c-0.7,1-2.4,0.8-2.7-0.4c-0.4-1.4-1-3.1-0.7-4.4
		c0.9-3.5,2.1-6.9,3.4-10.3c0.4-1,1.4-1.8,2.3-2.4c0.5-0.3,1.6-0.3,2.1,0c0.5,0.3,1.1,1.3,1,1.9
		C1140.6,208.4,1140,209.9,1139.5,211.8z"/>
	<path id="XMLID_269_" d="M1062.3,201.9c0.5-4.8,2.7-9.1,6.3-12.8c0.9-0.9,2.1-1,3.2-0.3c1.1,0.7,1.3,1.9,0.9,3
		c-0.5,1.2-1.1,2.4-1.7,3.6c-1.8,3.3-2.9,6.6-1.9,10.4c0.2,0.5,0.2,1.2,0.1,1.7c-0.2,0.7-0.6,1.6-1.1,1.8c-0.8,0.3-2,0.3-2.6-0.1
		C1063,207.6,1062.5,205,1062.3,201.9z"/>
	<path id="XMLID_270_" d="M1064.1,188.9c-0.1,0.6-0.2,1.8-0.6,2.8c-0.5,1.3-1.5,2.2-3,2.3c-1.5,0.1-2.9-0.8-3.5-2.3
		c-0.9-2.4,0.3-5.6,2.7-6.8C1061.9,183.8,1064.2,185.6,1064.1,188.9z"/>
	<path id="XMLID_271_" d="M1084,194.7c0,3-1.5,5-3.8,4.8c-2-0.2-3.2-2-3.1-4.8c0.1-2.7,1.5-4.5,3.4-4.5
		C1082.6,190.2,1084,192,1084,194.7z"/>
	<path id="XMLID_272_" d="M343.1,194.8c-0.1,5.4-3.4,9.5-8.1,10.2c-1.3,0.2-2.7,0.1-3.9-0.4c-0.9-0.4-1.8-1.4-2.3-2.3
		c-0.5-1.2,0.4-2.2,1.3-2.9c0.4-0.4,1-0.7,1.5-0.9c3.8-1.6,3.7-5.2,2.2-7.7c-1.6-2.6-3.5-5-5.3-7.5c-0.8-1.1-1.9-1.9-2.5-3.1
		c-0.4-0.7-0.3-1.9,0-2.7c0.4-1.2,1.6-1.7,2.8-1.5c0.9,0.1,1.9,0.4,2.7,0.9c5.5,3.9,9.5,8.9,11.3,15.4
		C343,193.3,343,194.3,343.1,194.8z"/>
	<path id="XMLID_273_" d="M332.7,213c-6.6-0.9-12.2-3.3-17.2-7c-0.2-0.1-0.3-0.3-0.4-0.4c-1.8-1.9-2.6-4.2-1.5-5
		c1.7-1.2,3.2-0.3,4.8,0.5c4.7,2.2,9.3,4.4,14,6.6c0.3,0.2,0.7,0.3,1,0.5c1.6,0.9,2.4,2.3,1.7,3.1
		C334.5,212.2,333.4,212.6,332.7,213z"/>
	<path id="XMLID_274_" d="M261.9,206c-2.3,0-4,0.2-5.6-0.1c-0.7-0.1-1.5-1.1-1.7-1.9c-0.2-0.5,0.5-1.4,1-1.8
		c1.1-0.8,2.3-1.3,3.8-2.1c-0.4-1.5-0.9-2.9-1-4.3c-0.1-0.6,0.3-1.6,0.8-1.9c0.5-0.3,1.6-0.4,2.1,0c0.9,0.6,1.9,1.3,2.5,2.3
		c2.3,3.6,3.6,7.5,4.3,11.7c0.1,0.6,0.1,1.1,0,1.7c-0.1,2-1.2,3.6-2.3,3.4c-1.6-0.2-2-1.6-2.4-2.8
		C262.8,208.8,262.4,207.6,261.9,206z"/>
	<path id="XMLID_275_" d="M321.8,180.3c0,2.7-0.8,4-1.9,4.4c-1.5,0.4-2.6-0.2-3.5-1.3c-2-2.6-3-5.7-3.1-9c0-1.4,0.6-2.6,2.1-3.1
		c1.4-0.5,3.2,0,3.9,1.5C320.4,175.6,321.2,178.5,321.8,180.3z"/>
	<path id="XMLID_276_" d="M343.2,179.2c-0.1,0.4-0.2,1.1-0.4,1.8c-0.3,1-1.9,1.6-2.9,1.1c-2.7-1.4-4.6-6.2-3.6-8.9
		c0.4-1.1,1.3-2,2.5-1.9c0.9,0.1,1.9,0.5,2.5,1.1C342.9,174.2,343.2,176.5,343.2,179.2z"/>
	<path id="XMLID_277_" d="M1027.2,213.3c1.6-2.8,2.8-4.8,4.1-7c0.6,0.2,1.3,0.2,1.6,0.6c2,2.9,2.7,6.2,1.9,9.7c-0.1,0.3-0.5,0.5-1,1
		C1031.3,216.4,1029.6,214.3,1027.2,213.3z"/>
</g>
<line id="XMLID_278_" class="st5" x1="1352.7" y1="1373.1" x2="1516" y2="1369.2"/>
<line id="XMLID_279_" class="st5" x1="994.3" y1="1381.7" x2="1157.6" y2="1377.8"/>
<line id="XMLID_280_" class="st5" x1="472.2" y1="1394.3" x2="799.6" y2="1386.4"/>
<line id="XMLID_281_" class="st5" x1="9.7" y1="1405.3" x2="230.7" y2="1400"/>
<g id="XMLID_284_">
	<path id="XMLID_283_" class="st3" d="M390.8,996.9c0,0-0.2-3-0.4-8.3c-0.2-5.3-0.5-12.9-0.7-22c-0.1-4.5-0.2-9.5-0.3-14.7
		c-0.1-5.2-0.2-10.7-0.2-16.4c0-5.7-0.1-11.6,0-17.5c0-6,0.1-12,0.1-18.1c0.1-6.1,0.2-12.1,0.3-18.1c0.1-6,0.3-11.8,0.4-17.5
		c0.1-5.7,0.3-11.2,0.5-16.4c0.2-5.2,0.4-10.1,0.6-14.7c0.8-18.2,1.8-30.3,1.8-30.3s0.7,12.1,1.1,30.3c0.1,4.5,0.2,9.5,0.3,14.7
		c0.1,5.2,0.2,10.7,0.2,16.4c0,5.7,0.1,11.6,0,17.5c0,6-0.1,12-0.1,18.1c-0.1,6.1-0.2,12.1-0.3,18.1c-0.1,6-0.3,11.8-0.4,17.5
		c-0.1,5.7-0.3,11.2-0.5,16.4c-0.2,5.2-0.4,10.1-0.6,14.7c-0.4,9.1-0.9,16.7-1.2,22C391.1,993.9,390.8,996.9,390.8,996.9z"/>
</g>
<g id="XMLID_287_">
	<path id="XMLID_286_" class="st3" d="M940.4,604c0,0,1.2-0.3,3.4-1c2.3-0.6,5.5-1.8,9.5-3.3c2-0.9,4.2-1.8,6.5-2.9
		c1.2-0.6,2.4-1.2,3.6-1.8c0.6-0.3,1.3-0.6,1.9-1c0.6-0.4,1.3-0.7,1.9-1.1c1.3-0.8,2.6-1.5,4-2.3c1.3-0.9,2.7-1.8,4.1-2.7
		c0.7-0.5,1.4-0.9,2.1-1.4c0.7-0.5,1.4-1,2.1-1.5c1.4-1.1,2.9-2.1,4.3-3.2c5.8-4.6,11.7-9.9,17.6-15.9c5.9-6,11.6-12.8,17.3-20
		c5.7-7.2,11-15.1,16.2-23.2c5.2-8.1,10-16.7,14.7-25.4c4.6-8.7,9-17.5,12.9-26.4c1-2.2,2-4.4,2.9-6.6c1-2.2,1.9-4.4,2.9-6.6
		c1.8-4.4,3.7-8.7,5.3-13c1.7-4.3,3.3-8.5,4.8-12.7c1.6-4.2,3.1-8.3,4.4-12.3c0.7-2,1.4-4,2.1-5.9c0.6-2,1.3-3.9,1.9-5.8
		c1.3-3.8,2.5-7.4,3.6-11c2.2-7.1,4.2-13.6,5.9-19.4c1.6-5.8,3.1-10.9,4.2-15c2.3-8.4,3.5-13.2,3.5-13.2s-0.9,4.9-2.4,13.4
		c-0.9,4.2-1.9,9.4-3.2,15.3c-0.7,2.9-1.4,6.1-2.2,9.4c-0.8,3.3-1.7,6.7-2.6,10.4c-0.9,3.6-2,7.3-3.1,11.2
		c-1.1,3.9-2.3,7.8-3.6,11.9c-1.2,4.1-2.6,8.3-4,12.5c-1.4,4.3-3,8.6-4.6,12.9c-1.6,4.4-3.4,8.8-5.1,13.3c-1.8,4.4-3.7,8.9-5.7,13.4
		c-4,9-8.3,17.9-12.9,26.8c-4.8,8.8-9.7,17.4-15.1,25.7c-1.3,2.1-2.7,4.1-4.1,6.1c-1.4,2-2.7,4-4.2,5.9c-1.4,1.9-2.9,3.9-4.3,5.8
		c-1.5,1.9-2.9,3.7-4.4,5.6c-5.9,7.3-12,14-18.2,19.9c-6.2,5.9-12.5,11.1-18.6,15.5c-1.5,1.1-3.1,2.1-4.6,3.1
		c-0.7,0.5-1.5,1-2.2,1.5c-0.8,0.4-1.5,0.9-2.2,1.3c-1.5,0.9-2.9,1.7-4.3,2.5c-1.4,0.7-2.8,1.4-4.2,2.1c-0.7,0.3-1.3,0.7-2,1
		c-0.7,0.3-1.3,0.6-2,0.9c-1.3,0.6-2.6,1.1-3.8,1.6c-2.4,1-4.8,1.7-6.8,2.5c-4.2,1.2-7.5,2.1-9.8,2.5
		C941.6,603.7,940.4,604,940.4,604z"/>
</g>
<g id="XMLID_290_">
	<path id="XMLID_289_" d="M343.1,430.1c0,0,0.7-0.8,2-2c1.3-1.3,3.2-3,5.6-5c4.7-4,11.2-9,18-13.5c6.8-4.5,13.9-8.7,19.4-11.5
		c2.7-1.4,5.1-2.5,6.8-3.2c1.7-0.7,2.7-1.1,2.7-1.1s-0.7,0.8-2,2c-1.3,1.3-3.2,3-5.6,5c-4.7,4-11.2,9-18,13.5
		c-6.8,4.5-13.9,8.7-19.4,11.5c-2.7,1.4-5.1,2.5-6.8,3.2C344.1,429.7,343.1,430.1,343.1,430.1z"/>
</g>
<line id="XMLID_291_" class="st6" x1="328.1" y1="682.5" x2="323.3" y2="765.5"/>
<line id="XMLID_292_" class="st6" x1="276.3" y1="761.5" x2="271.6" y2="844.6"/>
<line id="XMLID_293_" class="st6" x1="356.8" y1="803.6" x2="352" y2="886.6"/>
<line id="XMLID_294_" class="st6" x1="321.7" y1="883.9" x2="316.9" y2="967"/>
<line id="XMLID_295_" class="st6" x1="393.2" y1="712.4" x2="388.5" y2="795.4"/>
<line id="XMLID_296_" class="st6" x1="339.8" y1="1009.2" x2="335" y2="1092.3"/>
<line id="XMLID_297_" class="st6" x1="256.7" y1="1057.1" x2="251.9" y2="1140.2"/>
<line id="XMLID_298_" class="st6" x1="280.6" y1="915.2" x2="275.8" y2="998.3"/>
<line id="XMLID_299_" class="st6" x1="322" y1="1172.1" x2="317.3" y2="1255.1"/>
<line id="XMLID_300_" class="st6" x1="358.5" y1="1117.8" x2="353.7" y2="1200.9"/>
<line id="XMLID_301_" class="st6" x1="298.8" y1="1103.5" x2="294" y2="1186.6"/>
<line id="XMLID_302_" class="st6" x1="301.2" y1="1255.1" x2="297.2" y2="1324.4"/>
<line id="XMLID_303_" class="st6" x1="250.1" y1="1202.7" x2="245.4" y2="1285.7"/>
<line id="XMLID_304_" class="st6" x1="447.4" y1="1196.9" x2="459.5" y2="1279.9"/>
<line id="XMLID_305_" class="st6" x1="482.7" y1="1103.5" x2="494.8" y2="1186.6"/>
<line id="XMLID_306_" class="st6" x1="422.5" y1="1007" x2="434.6" y2="1090.1"/>
<line id="XMLID_307_" class="st6" x1="488.8" y1="940.4" x2="500.9" y2="1023.5"/>
<line id="XMLID_308_" class="st6" x1="440.6" y1="801.2" x2="452.7" y2="884.3"/>
<line id="XMLID_309_" class="st6" x1="442" y1="912.1" x2="454.1" y2="995.1"/>
<line id="XMLID_310_" class="st6" x1="526" y1="1179.7" x2="538" y2="1262.8"/>
<line id="XMLID_311_" class="st6" x1="485.8" y1="1228.8" x2="497.9" y2="1311.8"/>
<line id="XMLID_312_" class="st6" x1="418.6" y1="1113.7" x2="424.7" y2="1204.8"/>
<line id="XMLID_313_" class="st6" x1="447.4" y1="675.9" x2="459.5" y2="759"/>
<g id="XMLID_316_">
	<path id="XMLID_315_" class="st3" d="M1008.7,157.7c0,0,1.4,0.8,3.8,2.1c1.2,0.6,2.7,1.2,4.4,1.9c0.9,0.3,1.8,0.6,2.8,0.9
		c0.5,0.2,1,0.3,1.5,0.5c0.5,0.1,1.1,0.3,1.6,0.4c1.1,0.2,2.3,0.6,3.5,0.8c1.2,0.2,2.5,0.4,3.8,0.6c1.3,0.2,2.7,0.3,4,0.5
		c0.7,0.1,1.4,0.1,2.1,0.2c0.7,0,1.4,0.1,2.1,0.1c1.4,0.1,2.9,0.2,4.4,0.2c1.5,0,3,0.1,4.5,0.1c3,0,6.1,0.1,9.2-0.1
		c3.1,0,6.2-0.1,9.2-0.3c3.1-0.1,6.1-0.3,9-0.4c2.9-0.2,5.7-0.3,8.4-0.4c2.7-0.1,5.2-0.2,7.5-0.3c4.7-0.2,8.6-0.2,11.3-0.3
		c2.7,0,4.3,0,4.3,0s-6.1,1.3-15.4,2.7c-4.6,0.7-10.1,1.4-15.9,2c-2.9,0.2-5.9,0.6-9,0.8c-3.1,0.2-6.2,0.4-9.4,0.4
		c-3.1,0.1-6.3,0-9.4-0.1c-3.1-0.1-6.2-0.4-9.1-0.7c-1.5-0.2-2.9-0.3-4.3-0.6c-1.4-0.3-2.8-0.5-4.1-0.8c-1.3-0.3-2.6-0.7-3.9-1
		c-1.2-0.3-2.4-0.8-3.5-1.2c-2.3-0.7-4.2-1.9-6-2.7c-1.7-1-3.1-1.9-4.2-2.7C1009.9,158.7,1008.7,157.7,1008.7,157.7z"/>
</g>
<g id="XMLID_319_">
	<path id="XMLID_318_" class="st3" d="M998.8,178.5c0,0,0.6-0.1,1.7-0.1c0.5,0,1.2,0,1.9-0.1c0.7,0,1.5-0.1,2.4-0.1
		c0.9,0,1.8-0.1,2.8-0.2c1-0.1,2-0.1,3.1-0.2c0.5-0.1,1.1-0.1,1.6-0.2c0.5-0.1,1.1-0.2,1.6-0.2c0.5-0.1,1.1-0.2,1.6-0.3
		c0.5-0.1,1.1-0.2,1.6-0.4c0.5-0.1,1.1-0.2,1.6-0.4c0.5-0.2,1-0.3,1.5-0.5c1-0.4,2-0.7,2.9-1.2c1-0.4,1.8-0.9,2.7-1.4
		c0.8-0.5,1.6-0.9,2.3-1.5c0.7-0.5,1.4-0.9,1.9-1.4c0.6-0.4,1.1-0.8,1.5-1.2c0.8-0.7,1.3-1.1,1.3-1.1s-0.2,0.6-0.6,1.6
		c-0.2,0.5-0.5,1.1-0.9,1.7c-0.2,0.3-0.4,0.7-0.6,1c-0.2,0.3-0.5,0.7-0.8,1.1c-0.5,0.8-1.3,1.5-2.1,2.3c-0.8,0.7-1.7,1.5-2.7,2.1
		c-1,0.7-2.1,1.2-3.3,1.7c-0.6,0.2-1.2,0.5-1.8,0.7c-0.6,0.2-1.2,0.3-1.8,0.5c-1.2,0.3-2.5,0.5-3.7,0.6c-1.2,0.1-2.5,0.1-3.6,0.1
		c-1.2,0-2.3-0.2-3.3-0.3c-1-0.2-2-0.4-2.9-0.6c-0.9-0.2-1.7-0.5-2.4-0.8c-0.7-0.2-1.3-0.5-1.8-0.7
		C999.4,178.8,998.8,178.5,998.8,178.5z"/>
</g>
<g id="XMLID_322_">
	<path id="XMLID_321_" d="M1032.7,708.9c0,0,0.7,0.6,1.9,1.7c1.2,1.1,2.8,2.7,4.6,4.7c3.7,4,8.2,9.6,12.4,15.5
		c4.1,5.9,7.9,12.1,10.4,16.9c1.3,2.4,2.2,4.5,2.9,6c0.6,1.5,1,2.4,1,2.4s-0.7-0.6-1.9-1.7c-1.2-1.1-2.8-2.7-4.6-4.7
		c-3.7-4-8.2-9.6-12.4-15.6c-4.1-5.9-7.9-12.1-10.4-16.9c-1.3-2.4-2.2-4.5-2.9-6C1033,709.7,1032.7,708.9,1032.7,708.9z"/>
</g>
<path id="XMLID_323_" class="st7" d="M1160.9,618.6l-43,12.2c14.8,35.5,24.6,83.9,62.1,61.1"/>
<g id="XMLID_326_">
	<path id="XMLID_325_" d="M313.1,147.8c0,0,1.6,0.4,4.3,1.2c0.7,0.2,1.4,0.4,2.3,0.7c0.8,0.2,1.7,0.4,2.6,0.6c0.9,0.2,1.9,0.5,3,0.7
		c1,0.2,2.2,0.4,3.3,0.7c1.2,0.2,2.4,0.5,3.6,0.7c1.3,0.2,2.6,0.4,3.9,0.6c2.6,0.5,5.5,0.8,8.4,1.2c2.9,0.3,5.9,0.6,9,0.8
		c1.5,0.1,3.1,0.2,4.7,0.3c1.6,0.1,3.1,0.1,4.7,0.2l2.4,0.1l2.4,0c1.6,0,3.1,0,4.7,0.1c3.1-0.1,6.1,0,9.1-0.2c3-0.1,5.8-0.3,8.5-0.4
		c1.4,0,2.7-0.2,4-0.3c1.3-0.1,2.5-0.2,3.7-0.3c1.2-0.1,2.3-0.2,3.4-0.3c1.1-0.1,2.1-0.2,3.1-0.3c1.9-0.3,3.6-0.4,5-0.6
		c2.8-0.4,4.4-0.6,4.4-0.6s-1.4,0.8-4,2c-1.3,0.6-2.9,1.2-4.8,1.9c-1.9,0.7-4,1.4-6.4,2.1c-2.4,0.6-4.9,1.3-7.7,1.8
		c-2.8,0.5-5.7,1.1-8.7,1.4c-3,0.4-6.2,0.6-9.4,0.8c-1.6,0.1-3.2,0.1-4.9,0.1c-1.6,0-3.3,0-4.9-0.1c-1.6-0.1-3.3-0.1-4.9-0.3
		c-1.6-0.1-3.3-0.3-4.9-0.5c-1.6-0.1-3.2-0.4-4.8-0.7c-1.6-0.3-3.1-0.5-4.6-0.8c-3-0.7-5.9-1.3-8.6-2.2c-1.3-0.4-2.7-0.8-3.9-1.2
		c-1.2-0.5-2.4-1-3.6-1.4c-1.1-0.5-2.2-0.9-3.3-1.4c-1-0.5-2-1-2.9-1.5c-0.9-0.5-1.7-0.9-2.5-1.3c-0.7-0.4-1.4-0.9-2-1.2
		C314.4,148.7,313.1,147.8,313.1,147.8z"/>
</g>
<g id="XMLID_329_">
	<path id="XMLID_328_" d="M334.4,159.3c0,0,1.1,0.3,2.9,0.8c0.9,0.3,2.1,0.6,3.3,0.9c1.3,0.3,2.7,0.7,4.3,1.1
		c1.6,0.4,3.3,0.8,5.1,1.3c1.8,0.5,3.7,0.9,5.7,1.3c2,0.5,4,0.8,6.1,1.3c2.1,0.4,4.2,0.8,6.3,1.1c2.1,0.4,4.2,0.7,6.3,1
		c2.1,0.2,4.2,0.6,6.2,0.7c2,0.2,3.9,0.4,5.8,0.5c0.9,0.1,1.8,0.1,2.7,0.1c0.9,0,1.7,0.1,2.5,0.1c1.6,0,3.1,0.1,4.4,0
		c1.3-0.1,2.5,0,3.4-0.1c1.9-0.1,3-0.2,3-0.2s-1,0.4-2.9,1c-0.9,0.3-2.1,0.6-3.4,0.9c-1.3,0.3-2.8,0.5-4.5,0.8
		c-1.6,0.2-3.4,0.4-5.4,0.5c-1,0-1.9,0.1-2.9,0.1c-1,0-2,0-3.1,0c-1,0-2.1-0.1-3.2-0.1c-1.1-0.1-2.2-0.1-3.2-0.2
		c-2.2-0.2-4.4-0.5-6.6-0.9c-2.2-0.4-4.3-0.9-6.5-1.3c-2.1-0.5-4.2-1.1-6.2-1.7c-2-0.6-3.9-1.2-5.7-1.9c-1.8-0.6-3.4-1.3-5-2
		c-1.5-0.6-2.9-1.3-4.1-1.9c-1.2-0.6-2.2-1.2-3.1-1.6C335.3,159.9,334.4,159.3,334.4,159.3z"/>
</g>
<line id="XMLID_330_" class="st8" x1="848.9" y1="1353.6" x2="860.3" y2="1372.1"/>
<line id="XMLID_331_" class="st8" x1="861.3" y1="1348.3" x2="872.7" y2="1366.8"/>
<line id="XMLID_332_" class="st8" x1="872.7" y1="1344.3" x2="884.1" y2="1362.9"/>
<line id="XMLID_333_" class="st8" x1="1183.6" y1="1357.6" x2="1195" y2="1376.1"/>
<line id="XMLID_334_" class="st8" x1="1196" y1="1352.3" x2="1207.4" y2="1370.8"/>
<line id="XMLID_335_" class="st8" x1="1207.4" y1="1348.3" x2="1218.8" y2="1366.8"/>
<g id="XMLID_338_">
	<path id="XMLID_337_" class="st3" d="M1047.8,647.6c0,0,1.6-0.7,4.3-1.7c0.7-0.2,1.4-0.6,2.2-1c0.8-0.4,1.6-0.8,2.5-1.2
		c0.9-0.4,1.8-1,2.7-1.6c1-0.6,2-1.2,3-1.8c1-0.7,2-1.5,3.1-2.2c0.5-0.4,1.1-0.8,1.6-1.1c0.5-0.4,1.1-0.9,1.6-1.3
		c1.1-0.9,2.2-1.8,3.3-2.7c1-1,2.2-2,3.3-3.1c1.1-1,2.2-2.2,3.2-3.3c1.1-1.1,2.2-2.2,3.2-3.5c1-1.2,2.1-2.4,3.1-3.7
		c1-1.3,2-2.6,3-3.9c1-1.3,1.9-2.6,2.9-3.9c0.9-1.4,1.9-2.6,2.7-4c1.7-2.7,3.4-5.4,4.9-8.1c0.7-1.3,1.5-2.6,2.2-3.9
		c0.7-1.3,1.3-2.6,2-3.9c0.3-0.6,0.6-1.2,1-1.9c0.3-0.6,0.6-1.2,0.8-1.8c0.6-1.2,1.1-2.4,1.6-3.5c0.6-1.1,1-2.2,1.4-3.3
		c0.4-1,0.9-2,1.2-3c0.8-1.9,1.4-3.5,1.9-4.9c1-2.7,1.7-4.3,1.7-4.3s-0.2,1.7-0.6,4.6c-0.2,1.5-0.4,3.2-0.9,5.2
		c-0.5,2-0.9,4.3-1.7,6.7c-0.8,2.4-1.4,5.1-2.6,7.8c-0.5,1.4-1.1,2.8-1.6,4.2c-0.6,1.4-1.3,2.8-2,4.3c-1.3,2.9-3,5.7-4.7,8.7
		c-0.8,1.4-1.8,2.8-2.8,4.2c-0.9,1.4-1.9,2.8-3,4.2c-1.1,1.3-2.1,2.7-3.2,4c-1.1,1.3-2.3,2.5-3.4,3.8c-1.1,1.3-2.3,2.4-3.5,3.5
		c-1.2,1.1-2.3,2.3-3.6,3.3c-1.3,1-2.5,2-3.7,3c-1.3,0.9-2.5,1.7-3.8,2.5c-0.6,0.4-1.2,0.8-1.8,1.2c-0.6,0.3-1.2,0.7-1.9,1
		c-1.2,0.6-2.4,1.3-3.5,1.9c-1.2,0.5-2.3,1-3.4,1.4c-1.1,0.4-2.1,0.9-3.1,1.1c-2,0.6-3.8,1.1-5.2,1.3
		C1049.5,647.4,1047.8,647.6,1047.8,647.6z"/>
</g>
<g id="XMLID_341_">
	<path id="XMLID_340_" class="st3" d="M1081.9,361.8c0,0,0.6,0.8,1.6,2.3c0.5,0.7,1.1,1.7,1.6,2.8c0.3,0.6,0.6,1.2,0.9,1.8
		c0.3,0.6,0.6,1.3,0.9,2.1c0.7,1.4,1.2,3,1.7,4.8c0.5,1.7,1,3.6,1.3,5.5c0.4,1.9,0.7,3.9,0.9,6c0.2,2,0.3,4.1,0.3,6.2
		c0,2.1-0.1,4.2-0.3,6.2c-0.1,1-0.2,2-0.3,3c-0.1,1-0.2,2-0.4,2.9c-0.3,1.9-0.7,3.8-1.1,5.5c-0.4,1.7-0.9,3.3-1.3,4.8
		c-0.4,1.5-0.9,2.8-1.4,4c-0.4,1.2-0.9,2.2-1.2,3c-0.7,1.7-1.2,2.6-1.2,2.6s0-1,0.1-2.8c0-0.9,0.1-2,0.2-3.2
		c0.1-1.2,0.2-2.6,0.3-4.1c0.2-3,0.4-6.5,0.6-10.2c0.1-1.9,0.2-3.8,0.2-5.7c0-1.9,0.1-3.9,0.1-5.9c0-1,0-2,0-2.9c0-1,0-2-0.1-2.9
		c-0.1-1-0.1-1.9-0.1-2.9c-0.1-0.9-0.1-1.9-0.2-2.8c-0.1-1.8-0.4-3.6-0.5-5.3c-0.3-1.7-0.4-3.3-0.7-4.8c-0.3-1.5-0.5-2.8-0.7-4
		c-0.2-1.2-0.4-2.3-0.6-3.1C1082.1,362.8,1081.9,361.8,1081.9,361.8z"/>
</g>
<g id="XMLID_344_">
	<path id="XMLID_343_" d="M258.1,573.5c0,0,0.1,0.7,0.2,1.9c0,0.6,0.2,1.3,0.2,2.1c0.1,0.8,0.3,1.7,0.4,2.6c0.1,0.5,0.2,1,0.4,1.5
		c0.1,0.5,0.2,1,0.4,1.5c0.2,0.5,0.3,1.1,0.5,1.6c0.2,0.5,0.4,1.1,0.6,1.6c0.5,1.1,0.9,2.2,1.5,3.3c0.5,1.1,1.2,2.2,1.8,3.3
		c0.7,1.1,1.3,2.2,2,3.2c0.7,1.1,1.4,2.1,2.1,3.1c0.7,1,1.4,1.9,2.1,2.8c0.7,0.9,1.3,1.7,1.9,2.5c1.3,1.5,2.2,2.9,3,3.9
		c0.7,0.9,1.1,1.5,1.1,1.5s-0.6-0.3-1.7-0.9c-0.5-0.3-1.2-0.6-1.8-1.1c-0.7-0.5-1.5-1-2.3-1.6c-0.8-0.6-1.7-1.3-2.6-2.1
		c-0.9-0.8-1.8-1.7-2.7-2.6c-0.9-1-1.8-2-2.6-3.1c-0.9-1.1-1.6-2.3-2.3-3.5c-0.7-1.2-1.4-2.5-1.9-3.8c-0.3-0.6-0.5-1.3-0.7-1.9
		c-0.2-0.7-0.4-1.3-0.6-1.9c-0.1-0.7-0.3-1.3-0.4-1.9c-0.1-0.6-0.2-1.3-0.2-1.9c-0.2-1.2-0.1-2.4-0.1-3.4c0.1-1.1,0.2-2,0.4-2.9
		c0.2-0.8,0.3-1.6,0.6-2.1C257.9,574.1,258.1,573.5,258.1,573.5z"/>
</g>
<polygon id="XMLID_345_" points="270.6,251.2 267,265.4 374.4,331.5 387.1,332.8 381.6,300.9 "/>
<polygon id="XMLID_346_" points="385,276.8 377.7,308.3 407.9,327.8 429.4,301.8 "/>
<g id="XMLID_349_">
	<path id="XMLID_348_" class="st3" d="M1028.8,330.6c0.6,2.3,1.3,4.5,1.8,6.8l1.8,6.8l1.7,6.8l1.6,6.8c1.1,4.6,2.1,9.1,3.1,13.7
		c1,4.6,2,9.1,3,13.7l-4.1-1.5c4.3-3.5,8.5-7.1,12.8-10.6l12.9-10.5l13-10.4c4.3-3.5,8.7-6.9,13-10.3l6.5-5.1
		c2.2-1.7,4.4-3.4,6.6-5.1c4.4-3.4,8.8-6.7,13.3-10c4.4-3.3,8.9-6.6,13.4-9.9c4.5-3.3,9-6.5,13.6-9.7c-4,3.8-8.2,7.5-12.3,11.2
		c-4.1,3.7-8.3,7.4-12.5,11c-4.2,3.7-8.4,7.2-12.6,10.8c-2.1,1.8-4.2,3.6-6.3,5.4l-6.4,5.3c-4.2,3.6-8.5,7.1-12.8,10.6l-12.9,10.5
		l-13,10.4c-4.3,3.5-8.7,6.8-13.1,10.3l-3.4,2.6l-0.7-4.1c-0.8-4.6-1.6-9.2-2.3-13.9c-0.7-4.6-1.5-9.2-2.1-13.9l-1-7l-0.9-7l-0.9-7
		C1029.3,335.3,1029,333,1028.8,330.6z"/>
</g>
<g id="XMLID_352_">
	<path id="XMLID_351_" class="st3" d="M814.9,614.3c0,0-0.4,1.3-1.1,3.6c-0.2,0.6-0.4,1.2-0.6,1.9c-0.2,0.7-0.4,1.4-0.6,2.2
		c-0.5,1.5-1,3.3-1.4,5.2c-0.2,1-0.5,2-0.7,3c-0.2,1-0.4,2.1-0.6,3.2c-0.2,1.1-0.4,2.2-0.6,3.4c-0.2,1.2-0.4,2.3-0.6,3.6
		c-0.1,1.2-0.3,2.4-0.4,3.7c-0.2,1.2-0.2,2.5-0.3,3.8l-0.1,1.9l-0.1,1.9c0,1.3-0.1,2.6-0.1,3.9c0,1.3,0,2.6,0,3.9
		c0,1.3,0.1,2.6,0.1,3.9c0.1,2.6,0.3,5.1,0.4,7.6c0.2,2.5,0.4,4.8,0.7,7.1c0.2,2.3,0.5,4.4,0.7,6.4c0.5,4,0.9,7.3,1.2,9.6
		c0.3,2.3,0.4,3.7,0.4,3.7s-0.6-1.2-1.5-3.4c-0.5-1.1-1-2.4-1.5-4c-0.6-1.6-1.2-3.3-1.8-5.3c-0.3-1-0.6-2-0.9-3
		c-0.3-1.1-0.5-2.2-0.8-3.3c-0.6-2.3-1-4.7-1.5-7.2c-0.2-1.3-0.4-2.6-0.5-3.9c-0.1-0.7-0.2-1.3-0.3-2c-0.1-0.7-0.1-1.3-0.2-2
		c-0.1-1.3-0.2-2.7-0.3-4.1c0-1.4,0-2.7-0.1-4.1c0-1.4,0.1-2.8,0.2-4.1c0-1.4,0.2-2.7,0.4-4.1c0.2-2.7,0.8-5.3,1.3-7.9
		c0.3-1.3,0.6-2.5,0.9-3.7c0.3-1.2,0.6-2.4,1.1-3.5c0.4-1.1,0.8-2.2,1.2-3.2c0.4-1,0.9-2,1.3-2.9c0.4-0.9,0.8-1.8,1.2-2.7
		c0.5-0.8,0.9-1.6,1.3-2.3c0.4-0.7,0.8-1.4,1.1-2c0.4-0.6,0.8-1.1,1.1-1.6C814.1,615.4,814.9,614.3,814.9,614.3z"/>
</g>
<polygon id="XMLID_353_" points="594.8,606.6 605.3,605 611.3,616.6 616.8,632.8 610.7,656.1 603,664.7 589.8,664.7 594.8,651.4 
	598.2,627.6 594.8,610 "/>
<line id="XMLID_354_" class="st9" x1="1121.5" y1="639.8" x2="1163.1" y2="628.5"/>
</svg>
