<?xml version="1.0" encoding="utf-8"?>
<!-- Generator: Adobe Illustrator 22.1.0, SVG Export Plug-In . SVG Version: 6.00 Build 0)  -->
<svg version="1.1" id="Layer_6" xmlns="http://www.w3.org/2000/svg" xmlns:xlink="http://www.w3.org/1999/xlink" x="0px" y="0px"
	 viewBox="0 0 1527.1 1502.4" style="enable-background:new 0 0 1527.1 1502.4;" xml:space="preserve">
<style type="text/css">
	.st0{fill:#FFFFFF;}
	.st1{fill:#E84B6C;}
	.st2{fill:none;stroke:#FFFFFF;stroke-miterlimit:10;}
	.st3{fill:none;stroke:#000000;stroke-width:4;stroke-miterlimit:10;}
	.st4{fill:none;stroke:#000000;stroke-width:5;stroke-miterlimit:10;}
	.st5{fill:none;stroke:#FFFFFF;stroke-width:4;stroke-miterlimit:10;}
	.st6{fill:none;stroke:#000000;stroke-width:2;stroke-miterlimit:10;}
</style>
<path id="XMLID_610_" class="st0" d="M848.4,356.4l-80.9-76.2l-14.2-21.6l-33.1-21.8l-54.8-17l-10.5-19.6l-13.4,10.8l-97.5,137
	l13.5-2.7l13.8-1.4l15.1,12.5l42.7-5.6l18-6.4l48,14.8l29,21.9l47.7,59.2l-5.4,43.1l-60.5,32.7l-45.4,2.4l-39.1-14.5l-52.5-38.3
	l7.5-15.3l-5.7-20.8l-10.7-6.8l-25.2,9.6l-31.2-4.3l-26.9,8.9l-15.7,29l-9.7,17.6l-16.5,27.4l2.4,9.9l31.9-2.1l4.6,17.7l-63.7,27
	L339.4,620L318,668.9l-42,89.2l1.8,54.7l22.8,49.5l70.2,43.9l99,1.8l77.6-35.6l171.3-111.5L713,621.3l39.6,0.1l46.3-23.2l50-28.7
	l24.8-48.2l1.4-61.7l2.6-45.6L848.4,356.4z M437.7,817.6l-18-19.3l-12.2-33.6l4.1-37.1l5.5,9.6l29,52.1l11.6,28.3L437.7,817.6
	L437.7,817.6z"/>
<polygon id="XMLID_609_" points="590.3,1411.9 565.4,1340.1 549.8,1302.2 471.1,1317.2 402.3,1312.9 344.5,1316.6 323.5,1333.7 
	323.5,1358.6 338.8,1399.4 370.9,1445.8 415.8,1477.3 465.8,1485.2 520.7,1478.9 530.2,1478.9 461.5,1411.9 535.3,1425.2 "/>
<polygon id="XMLID_608_" points="1035.4,1251.5 1035.4,1458.1 1045.2,1471.6 1099.5,1478.9 1313.6,1484.3 1322.3,1478.9 
	1314.3,1460.2 1259.2,1434.9 1147.1,1383.4 1153.2,1338.4 1162.7,1256 1153.2,1219.9 "/>
<polygon id="XMLID_607_" points="1031.5,1445.8 1033.2,1467.3 1079.6,1469.4 1065.4,1459.5 "/>
<polyline id="XMLID_606_" class="st0" points="573.2,281.9 433.6,171.2 427.1,127.6 468.9,125.8 623,240.3 573.2,281.9 "/>
<g id="XMLID_603_">
	<path id="XMLID_605_" d="M134.6,1470.3c0,0,20.9-0.4,57.5-1.1c18.3-0.3,40.5-0.7,66-1.1c25.5-0.4,54.2-0.8,85.6-1.1
		c31.4-0.4,65.3-0.8,101.3-1c35.9-0.3,73.8-0.6,113.1-0.8c19.6-0.1,39.5-0.2,59.7-0.3c20.2-0.1,40.6-0.1,61.2-0.2
		c41.2-0.1,83-0.1,124.8-0.2c41.8,0.1,83.6,0.1,124.8,0.2c10.3,0,20.5,0,30.7,0.1c10.2,0.1,20.4,0.1,30.4,0.1
		c20.2,0.1,40.1,0.2,59.7,0.3c39.2,0.1,77.1,0.5,113.1,0.8c18,0.2,35.5,0.3,52.4,0.4c16.9,0.2,33.2,0.4,48.9,0.6
		c31.4,0.3,60.1,0.7,85.6,1.1c25.5,0.4,47.7,0.8,66,1.1c36.6,0.7,57.5,1.2,57.5,1.2s-20.9,0.4-57.5,1.2c-18.3,0.3-40.5,0.7-66,1.1
		c-25.5,0.4-54.2,0.8-85.6,1.1c-15.7,0.2-32,0.4-48.9,0.6c-16.9,0.1-34.4,0.3-52.4,0.4c-35.9,0.3-73.8,0.6-113.1,0.8
		c-19.6,0.1-39.5,0.2-59.7,0.3c-10.1,0-20.2,0.1-30.4,0.1c-10.2,0-20.5,0-30.7,0.1c-41.2,0.1-83,0.1-124.8,0.2
		c-41.8-0.1-83.6-0.1-124.8-0.2c-20.6-0.1-41-0.1-61.2-0.2c-20.2-0.1-40.1-0.2-59.7-0.3c-39.2-0.1-77.1-0.5-113.1-0.8
		c-35.9-0.2-69.9-0.6-101.3-1c-31.4-0.3-60.1-0.7-85.6-1.1c-25.5-0.4-47.7-0.8-66-1.1C155.5,1470.8,134.6,1470.3,134.6,1470.3z"/>
</g>
<path id="XMLID_602_" class="st1" d="M490.3,902.4l40.4-25.5l33.5,12.7l40.4,24l61.6-7.8l55.7-11.7l40.3-36.6l23-12.5h49.7l92.7,11
	l48.5,22.1l59.3,35.3l39.2,49.7l31.5,55.5l42.4,118.7l4.8,82.5l0,18.4l-28.1,16.1l-32.9,10.1l-51.8-7.3
	c-12.8-76.7-29.1-149.6-69-196.9c-13.7-21.4-37.7-42.9-72.1-64.4l-96.4-30.5l-77.9-2.6l31.9,73.1l35,101.6l27.3,67l2.5,53.4
	l-7.9,61.4l-63.3,62.8l-46.9,7.2l-98.7,31.6l-20.2-7.8l-33.1-54.6v-51.1l61.3-25.3l16-0.4l7.7-37.3l6.3-61.5l-30-69.9l-76.7-135.2
	L490.3,902.4z"/>
<polygon id="XMLID_601_" points="522.3,425.8 510.1,432.5 490.5,425.8 493.4,442.4 474.8,461.6 450.2,481 446.7,496.3 442.2,507.9 
	442.2,520.8 451.3,526.6 472,523.2 474.1,528.4 430.7,541.6 396.4,562.9 363.7,592.3 332.8,640.7 304.2,682.8 294.1,677.3 
	278.7,646.2 276.1,610.1 292.2,596.1 326.3,581.3 357.9,571 368.8,550.8 379.8,488.4 386.9,453.1 418.4,429.1 472,413.9 
	507.9,418.8 "/>
<path id="XMLID_600_" d="M810.6,741.9c0,94-66.3,163.4-160.3,166c-106.3,3-171.6-71.5-171.6-165.6s61.6-158.5,155.6-158.5
	S810.6,647.9,810.6,741.9z"/>
<polygon id="XMLID_599_" class="st1" points="800,148.7 791.3,153.8 780.2,159.6 771.2,159.6 765.6,163.1 754.8,166 760.5,176.5 
	772.5,187.1 785.3,176.5 800,168.7 818.2,204 835,219.5 831.6,232.8 823.7,233.3 818.7,241.7 821.4,247.7 828.7,247.7 838.4,247.7 
	842.4,241.4 842.4,231.7 845,226.4 880.4,232.4 901.9,232.4 916,226.4 923.1,231.7 923.1,247.7 927.6,258.6 938.6,262.6 
	951.7,258.6 955.3,244.8 952.1,234.9 942.4,234.9 934.7,220.8 950.1,204 974.3,157.7 974.3,130.8 980.6,121.6 991.5,130.8 
	999.5,119.7 999.5,103.5 990,101.7 981.6,107.1 969.2,113.8 950.1,84.9 919.3,72.2 901.3,64.8 907.7,48.6 916.3,43.8 907.5,26.3 
	893.7,31.7 884.4,39.1 888.2,52.1 888.2,59.8 861.3,62.4 835,74 825.2,90.4 802.7,83.3 800,64.7 787,65 778.1,72.1 775.7,82.4 
	780.2,91.4 792.4,95.7 802.1,95.7 813,103.5 "/>
<path id="XMLID_598_" class="st0" d="M689.1,727.5c0,21.3-24.9,46.3-46.2,46.3c-21.3,0-31-25-31-46.3c0-21.3,17.3-38.6,38.6-38.6
	C671.8,688.9,689.1,706.1,689.1,727.5z"/>
<path id="XMLID_597_" class="st2" d="M496.6,432.6"/>
<path id="XMLID_596_" class="st2" d="M417.7,499.7"/>
<path id="XMLID_569_" d="M1304.4,1484.7c-7.4,0.5-14.8,1.6-22.2,1.8c-17.3,0.5-34.6,1.2-51.9,0.7c-17.1-0.6-34.2-0.6-51.3-0.8
	c-19.8-0.3-39.5-0.5-59.3-1c-15.9-0.4-31.7-1.5-47.3-4.8c-10.9-2.3-21.5-5.5-31.3-11.1c-1.6-0.9-3.3-1.8-4.8-2.8
	c-3.9-2.6-5.6-6.1-5.6-11c0.1-8.6-0.5-17.3-0.5-25.9c0.2-26,0.8-51.9,1-77.9c0.2-20.4,0.6-40.8,0-61.2c-0.6-19.1-2.1-38.2-3.6-57.3
	c-1.1-14.6-4.3-28.9-7.3-43.2c-3.5-16.5-7.2-33-12.2-49.1c-9-29.1-21.8-56.5-40.3-80.9c-19.1-25.3-43.1-44.6-71.8-58.1
	c-24.7-11.7-50.6-19.8-77.3-25.3c-15.9-3.3-32-6-48.4-5.9c-2.2,0-4.5-0.8-6.7-0.9c-10.7-0.5-21.4-0.5-32,1.3
	c-0.6,0.1-1.1,0.5-1.9,0.9c0.3,1,0.5,2,0.9,2.9c11.8,27.2,23.5,54.5,35.4,81.6c11.3,25.6,21.6,51.6,30.8,78.1
	c2.1,6,3.9,12.1,5.1,18.4c0.4,2.4,1.3,4.8,2.2,7.1c4.8,12.5,9.9,24.9,13.5,37.8c5.3,19,8.4,38.2,8.8,57.9
	c0.5,28.7-6.4,55.5-21.3,80.1c-7.8,12.9-18.6,23-30.7,31.8c-15,10.8-31.6,18.6-48.8,24.9c-23,8.5-46.8,14.5-70.7,19.9
	c-16.5,3.7-33.2,6.3-49.9,8.3c-28.7,3.5-57.4,5.2-86.3,3.7c-15.2-0.8-30.4-2.1-45.5-4.4c-1-0.2-2-0.1-3.8-0.2
	c0.8,1.3,1.1,2.3,1.8,2.8c5.3,4.6,10.5,9.3,16,13.6c8,6.2,16.3,11.9,24.2,18.1c6,4.7,11.7,9.7,17.4,14.8c2.4,2.2,4.7,4.6,5.8,8.3
	c-1,0.6-1.9,1.6-3,1.8c-6.6,1.5-13.2,3.1-19.9,4.2c-15.4,2.7-31,4.6-46.7,4.2c-28.5-0.7-54.1-9.9-77.2-26.3
	c-8.3-5.9-15.2-13.3-21.4-21.3c-18.2-23.1-33.4-48-43.8-75.6c-2.9-7.7-3.5-15.8-1.7-23.7c1.7-7.5,5.6-14.1,12.4-18.5
	c7.7-5,15.9-8.6,25.2-9.2c7.4-0.5,14.8-1.5,22.1-2c19.7-1.1,39.5-3,59.3-1.6c11.4,0.8,22.6,0,33.9-0.3c4.1-0.1,8.2-0.8,12.3-1.1
	c10.7-0.8,21.4-1.4,32-2.3c23.6-2,47.1-5.2,69.8-12.4c7.3-2.3,14.3-5.2,21-8.9c11.7-6.5,19.7-16,24.1-28.6c4.5-13,6-26.4,5-40.2
	c-1.9-25.9-8.5-50.7-17.6-74.9c-5.4-14.3-11.9-28.1-19.3-41.4c-6.4-11.5-13-22.9-19.7-34.3c-16.3-27.4-31.5-55.5-46.8-83.5
	c-7.2-13.2-14.4-26.4-21.8-39.5c-2.9-5.2-6.3-10.2-9.9-14.9c-3.5-4.6-5.9-9.9-8.3-15c-1.4-2.9-2.6-6-4.2-9.8c-3,0.8-5.9,1.6-8.9,2.5
	c-19.9,5.9-40.1,9.3-60.8,9.3c-17,0-33.6-2.4-49.8-8c-11.7-4.1-23.2-8.4-34.1-14.4c-13.9-7.6-26.2-17.1-36.1-29.6
	c-11.6-14.6-18.9-31.3-22.8-49.5c-3.9-18.1-4-36.3-1.8-54.7c2.1-17.3,7.8-33.6,13.5-50c2.6-7.6,5.8-14.9,8.9-22.7
	c-0.6-0.7-1.2-1.5-2-2.1c-12.9-9.8-20.4-22.9-23.7-38.6c-1.5-7.1-2.6-14.2-1.3-21.4c0.7-3.8,1.2-7.7,1.9-11.5
	c1.1-6.4,4.4-11.5,9.4-15.5c7.6-6.2,15.9-11.1,25.4-13.6c7-1.9,14-3.5,21-5c11.4-2.5,20.9-8.4,29.2-16.5c4.1-3.9,6.9-8.6,8.7-14
	c3.1-9.7,5-19.5,6-29.6c1.2-11.5,2.3-22.9,3.5-34.4c0.7-6.6,2.5-12.9,4.7-19.2c2.9-8.2,8.2-14.7,14.4-20.6
	c8.3-7.9,17.9-13.9,28-19.1c11.7-5.9,24.1-9.7,36.9-11.9c7-1.2,14.2-1.8,21.5-0.2c4.1,0.9,8.6,0.6,12.9,0.9c14.1,1,27,5.2,38.4,13.8
	c0.7,0.5,1.3,1,2,1.4c0.3,0.2,0.8,0.3,1.5,0.6c1.5-0.9,3.2-2,5-2.9c5.8-2.9,11.8-4.8,18.4-3c4.4,1.2,8,3.2,10.7,6.8
	c4.6,6.1,7.1,12.8,5.7,20.8c-0.7,4-0.8,8.2-1.1,12.6c1.6,1.4,3.2,3,4.9,4.4c7.5,6.1,15.2,12,22.7,18.1c4.6,3.8,9.1,7.7,13.5,11.7
	c1.7,1.6,3.5,2.8,5.6,3.7c12.2,5,24.8,9,37.7,11.9c5.8,1.3,11.8,1.5,17.8,1.1c23.7-1.4,44.9-9.7,64.7-22.2c3.1-2,6-4.3,8.9-6.7
	c7.4-6.2,11.6-14.2,13.9-23.5c0.9-3.5,1.1-7,0-10.4c-1.4-4.5-2.8-9.1-5-13.3c-11.1-21.1-24.7-40.4-41.4-57.5
	c-7.3-7.4-15.6-13.5-24.5-18.6c-1.9-1.1-4.1-2-6.2-2.6c-10.9-3.2-21.8-6.3-32.6-9.5c-2.5-0.7-4.9-0.5-7.1,1c-0.5,0.4-1.1,0.6-1.6,1
	c-8,6.6-17.5,8.9-27.4,10.1c-3.5,0.4-7,0.9-10.4,1c-13.7,0.5-24.9-4.7-33.8-14.9c-1.2-1.4-2.4-2.8-3.8-4.4c-1.2,1-2.3,1.9-3.4,2.8
	c-1.6,1.3-3.1,2.7-4.8,3.9c-2.6,1.8-5.5,2.9-8.7,2.8c-8.9-0.1-14.5-6.9-9.6-16.1c3-5.6,6.5-11,9.9-16.4c5.8-9.2,11.8-18.4,17.7-27.6
	c0.9-1.4,1.7-2.8,2.7-4.5c-0.7-0.8-1.3-1.6-2.1-2.2c-27.6-21.8-55.3-43.7-82.9-65.5c-15-11.9-30.1-23.7-45.2-35.4
	c-2.6-2-5.5-3.5-8.2-5.5c-2.3-1.7-4.5-3.6-6.5-5.6c-2.3-2.4-2.3-5.8-2.4-8.8c-0.3-10.9-1.4-21.8-2.6-32.6c-0.5-4.3,2.4-7.5,6.9-7.6
	c9.7-0.2,19.4-0.5,29-0.6c2.7,0,5.3,0.5,8,0.7c2.3,0.2,4.2,1.2,6.1,2.6c22.1,16.2,44.2,32.4,66.5,48.3
	c15.8,11.2,31.7,22.3,46.8,34.4c8.2,6.6,16.3,13.3,24.4,19.9c0.9,0.8,1.9,1.5,2.8,2.2c2.5-0.8,3.6-2.9,5.1-4.6
	c7.3-8.2,14.7-16.1,23.1-23.2c2.8-2.4,5.7-4.7,8.7-6.9c1.5-1.1,3.2-1.9,4.5-2.6c0.8,0.2,1.2,0.2,1.6,0.4c7.2,3.8,9.1,7.4,8.1,15.5
	c-0.3,2.6-0.8,5.2-1.3,7.9c0.8,0.2,1.5,0.5,2,0.4c6.7-1.9,12.7,0.2,18.2,3.7c2.7,1.7,5.2,3.1,8.5,2.9c1.4-0.1,2.8,0.4,4.2,0.8
	c3.2,0.9,6.4,1.7,9.4,3c3,1.3,5.8,3.1,8.7,4.6c1.2,0.6,2.6,1.5,3.9,1.5c8.8-0.2,15.4,3.6,20.5,10.5c0.5,0.7,0.9,1.4,1.2,1.8
	c1.5-0.1,2.3-0.1,3.1-0.3c5.1-1.4,9.3,0.4,13.1,3.7c4.2,3.8,7.1,8.5,9.4,13.6c1.5,3.5,0.6,6.9-0.6,10.4c2.4,3.2,5.8,5.3,8.9,7.4
	c7.6,5,14.5,10.9,21.2,17c9,8.1,17.9,16.4,26.6,24.9c12,11.7,22.7,24.4,31.6,38.7c12.8,20.7,21.5,43,27.3,66.6
	c0.3,1.4,0.7,2.8,1,4.2c3.7,14.6,3.8,29.3,1.8,44.1c-0.6,4.1-1.5,8.1-2,12.2c-0.4,2.8-0.8,5.8-0.4,8.6c0.4,2.9,0,5.6-0.4,8.5
	c-3.6,24.5-15.4,44.5-33.7,60.8c-7.1,6.3-14.4,12.4-21.7,18.4c-12.4,10.1-26.5,17.4-41.1,23.6c-9.7,4.1-19.6,7.5-30,9.5
	c-1.2,0.2-2.3,0.6-3.7,1c1,2.4,2.8,3.4,4.3,4.7c13.8,12.2,25.6,26.2,35,42.1c7.7,13,13.8,26.7,17.1,41.5c1.2,5.6,2.1,11.3,2.7,17.1
	c3.7,31,0.7,61.3-9.5,90.7c-2.1,6-5.2,11.6-7.9,17.4c-0.7,1.5-1.5,2.9-2.1,4.2c1.2,1.9,2.8,1.1,4.1,1c12.1-1,24.3-1.1,36.4-0.8
	c15.6,0.5,31.3,1.4,46.8,3.1c11.7,1.3,23.3,3,34.8,5.3c13.5,2.7,27,5.8,40,10.5c24,8.6,45.2,21.7,64.3,38.5
	c18.8,16.6,35.2,35.3,49.4,55.9c11,15.9,20.9,32.6,30,49.7c10.3,19.3,19.5,39.1,27.8,59.3c5.9,14.3,11,28.8,16.1,43.4
	c1.7,5,2.2,10.4,3.3,15.7c2.4,11.9,5,23.8,7.2,35.7c3.1,16.6,5.5,33.3,7.3,50.1c2.4,21.5,3.4,43.1,3,64.8c-0.2,12.3-1,24.7-1.7,37
	c-0.4,6.8-0.8,13.6-1.5,20.3c-1.5,16.4-3.9,32.7-7,48.9c-0.3,1.4-0.3,2.8-0.4,4.2c0.7,0.5,1.1,1,1.6,1.2c23.5,9.9,47,19.9,70.6,29.7
	c23,9.6,45.5,20.4,67.7,31.6c6.4,3.3,12.6,7.1,18.1,11.7c3.2,2.6,6.1,5.5,8.9,8.5c2.4,2.6,7,15.7,7.8,19.2 M483.1,461.7
	c-0.3,0.4-0.7,0.8-1,1.1c-2.3,1.3-4.6,2.6-6.9,4c-6.1,3.8-12.2,7.7-18.2,11.7c-2.2,1.4-4.5,2.9-5.8,5.3c0.2,2.1,1.1,3.6,2.8,4.6
	c18.7-4.5,49.7-13.3,55.5-18.6c-0.7-0.7-1.2-1.6-2.1-2c-1.8-1-3.7-1.8-5.5-2.7c-1.3-0.6-2.6-1.2-3.8-2c-0.4-0.3-0.8-1.2-0.6-1.6
	c0.3-0.6,1-1.2,1.7-1.5c0.5-0.2,1.2-0.1,1.8,0c3.5,0.4,6.8,1.4,9.9,3.3c1.9,1.2,3.8,2.4,5.5,3.4c7-2.4,23.5-13.4,27.6-18.3
	c-5.2-4.6-10.4-9.2-15.8-13.6c-2.7-2.2-5.2-2.7-8.5-1.5c-6.6,2.4-13.3,2.4-19.9-0.1c-0.9-0.3-1.9-0.3-3.2-0.4c0,1.2,0,2,0,2.8
	c0.6,8.6-2.4,15.7-8.7,21.5C486.3,458.5,484.7,460.2,483.1,461.7z M1038.8,1249.5c1.5,0.7,2.8,1.4,4.1,1.9c3.7,1.2,7.5,2.2,11.3,3.2
	c21.4,5.6,42.4,4.4,62.8-4.5c10-4.4,20-8.8,29.6-13.9c4.6-2.4,7-5.6,6.6-11.3c-0.7-11.5-1.9-23-3.6-34.4c-2.2-14.7-4.6-29.3-7-43.9
	c-1.3-7.5-2.3-15.1-4.3-22.4c-5.5-20.1-13-39.5-20.8-58.8c-8.2-20-17.2-39.6-27.5-58.7c-8.8-16.4-18.2-32.3-28.7-47.6
	c-14.4-21-31.1-40-50.3-56.7c-19.2-16.7-40.7-29.4-65-37.1c-12.6-4-25.4-6.9-38.4-9.3c-14-2.6-28.1-4.4-42.2-5.6
	c-14.8-1.2-29.6-2-44.4-1.8c-10.9,0.2-21.8-0.1-32.7,1.3c-2.8,0.3-5,1.2-6.9,3.3c-9.8,11-21.3,20-34,27.5c-31,18.4-64,31-100.3,34.2
	c-16.1,1.4-32.1,0.9-48-2.3c-21.2-4.3-40.1-13.4-56.9-27c-1.6-1.3-3.2-2.4-4.8-3.6c-1.5,0.7-2.6,1.2-3.6,1.8
	c-8.4,4.9-17.1,9.1-26.2,12.4c-2.1,0.8-4.2,1.6-6.3,2.5c-1.1,0.5-2,1.2-2.8,1.7c0.1,0.9,0,1.3,0.2,1.7C504.3,913,510,924,517.3,934
	c3.4,4.7,6.5,9.5,9.6,14.4c1,1.5,1.5,3.3,2.2,5c0.8,1.9,1.3,3.9,2.3,5.6c4.6,8.3,9.4,16.5,14,24.7c13.8,24.9,27.6,49.7,42.3,74
	c7.2,12,14.3,24.1,21.1,36.3c16,29,28.3,59.5,34.9,92c2.8,14.2,4.8,28.4,4.3,42.9c-0.4,10.6-2.4,20.8-5.9,30.8
	c-5.5,15.6-15.7,26.9-30.6,33.9c-6.1,2.9-12.5,5.3-19,7.4c-11.2,3.7-22.7,5.8-34.4,7.5c-1.2,0.2-2.3,0.6-3.6,0.9
	c-0.2,1.2-0.5,2.2-0.5,3.2c-0.2,9.1-0.3,18.1,1,27.1c3.8,25.3,14.7,47,32.7,65.1c1.7,1.7,3.7,3.2,5.6,4.8c2.2,1.8,4.7,2.4,7.5,2
	c11.6-1.8,23.2-3.3,34.8-5.4c19.4-3.7,38.6-8.3,57.6-13.8c16.5-4.7,32.5-10.4,48.1-17.6c10.3-4.8,20.1-10.4,29.2-17.2
	c8.5-6.3,16.3-13.3,22.3-22.1c13-18.9,20.3-39.9,22.4-62.7c1.1-12.3,0.7-24.7-0.7-37c-2.2-19.8-6.9-38.9-14-57.4
	c-1.8-4.8-3.5-9.7-5-14.6c-5.7-18.9-11.3-37.9-17-56.8c-3.8-12.7-8.4-25-14.9-36.5c-9.3-16.4-16.4-33.7-23.1-51.2
	c-5.4-14.3-11-28.4-18.2-41.9c-1.5-2.7-3.4-5.1-4.7-7.9c-1.3-2.7-1.7-5.8-2.9-8.6c-1.9-4.6-4.1-9-6.1-13.5
	c-2.8-6.2-5.6-12.4-8.4-18.6c-0.7-1.5-1.4-3.1,0-4.6c1-1.1,3.2-0.4,4.8,1.4c0.9,1.1,1.8,2.3,2.6,3.5c1.6,2.6,3.2,5.3,4.6,8
	c3.5,6.8,6.8,13.6,10.3,20.4c0.9,1.8,1.9,3.6,2.8,5.1c2.4,1,4.5,0.4,6.5,0.2c2.3-0.2,4.5-0.6,6.7-0.7c10.1-0.7,20.1-1.2,30.2-0.2
	c10.9,1.1,21.8,1.5,32.6,3.1c19.2,2.8,38,7.1,56.5,12.9c17.3,5.4,34.3,11.8,50.3,20.3c25.8,13.6,48,31.8,65.9,55
	c20,25.9,33.8,55,43.4,86.1c5.7,18.5,9.8,37.4,13.7,56.4c2.1,10.3,4.3,20.5,5.3,31C1037,1234.2,1037.9,1241.5,1038.8,1249.5z
	 M628.2,905.9c15.4-0.1,28-1.2,40.6-4c26.2-5.8,50.5-16.1,73.5-29.8c3.5-2.1,7-4.4,10.3-6.8c3.3-2.4,6.6-4.9,9.7-7.6
	c3.3-2.8,6.9-5.5,9.2-9c2.3-3.4,4.8-6.4,7.8-9c1.1-0.9,1.7-2.3,2.5-3.5c4.7-7.1,8.3-14.7,11.1-22.7c6.3-18.5,9.1-37.6,9.9-57
	c0.4-9.1-0.5-18.1-1.4-27.1c-0.8-7.8-1.9-15.5-4.2-23.1c-3.7-12.3-9.2-23.8-15.9-34.7c-14.2-23.1-33.3-41.2-56-55.8
	c-28.2-18.1-59.2-27.3-92.9-27.6c-9.3-0.1-18.5,0.4-27.7,1.4c-14.6,1.6-28.8,5-42.2,11.1c-17.1,7.8-31.8,18.9-44.8,32.3
	c-4.6,4.8-8.6,10-12.1,15.6c-5,8.1-9,16.6-12.5,25.5c-0.5,1.1-0.8,2.3-1.1,3.5c-1,4.2-1.9,8.4-3,12.6c-2.2,8.8-4.8,17.5-5.4,26.6
	c-0.9,16-1.2,32.1,0.7,48.1c1,8,2.2,15.9,4.5,23.6c2.3,7.6,4,15.6,8.4,22.4c0.5,0.8,0.5,2,0.8,2.9c0.3,1,0.6,1.9,1.1,2.8
	c1.5,2.9,3.2,5.8,4.7,8.7c8.2,15.4,18.2,29.4,30.7,41.6c11.4,11.1,24.1,20.6,38.6,27.4C591.4,902.8,610.7,906.3,628.2,905.9z
	 M615.7,507.7c0,3.9,0,6.8,0,9.6c0,3.1-0.2,6.2-1.5,9.1c-2.3,5.1-4.7,10.1-7.2,15c-0.7,1.4-2,2.7-3.3,3.5
	c-9.9,5.6-20.2,10.2-31.5,12.4c-11.2,2.1-22.6,2-33.9,0.9c-13.1-1.2-25.4-5.1-36.6-12.1c-2.6-1.6-5.1-3.4-7.7-5.1
	c-7.6-5.2-11.3-6-20.3-4.4c-23.2,4.3-44.6,13-63.7,27c-15,11-28.7,23.4-41.6,36.8c-13.7,14.3-26,29.8-36.9,46.4
	c-4.7,7.2-9.3,14.6-13.5,22.1c-4.3,7.7-8.1,15.7-12,23.5c-0.7,1.5-1.2,3-1.8,4.5c2.7,7.7,7.2,14.1,13.6,18.9c3.9,3,8.1,5.7,12.5,7.8
	c12.5,6.1,25.7,10,39.4,12c6.9,1,13.9,1.8,20.9,2.4c4,0.4,8.1,1,12.4,0.1c0.7-2.1,1.4-4.1,2-6c1.4-4.1,2.8-8.2,4-12.3
	c3.7-12.3,11.5-21.7,20.5-30.3c2.2-2.1,4.7-4.1,7.2-5.8c5.1-3.5,10.3-6.8,15.5-10.1c0.8-0.5,1.5-1.5,3-0.7c-0.4,0.7-0.8,1.3-1.2,1.9
	c-0.5,0.8-1.8,1.1-1.3,2.3c2.5,0.3,4.2-2.4,7.2-1.4c-2.1,3.6-4.5,6.4-7.5,8.6c-6.4,4.8-12.8,9.8-19.5,14.2c-7.2,4.7-12.2,11-15,19
	c-3,8.5-3.8,5.8,0.8,15c4,7.9,8.6,15.5,13.1,23.1c5,8.6,9.9,17.1,13.4,26.4c0.6,1.7,1.6,3.4,2.4,5c3.6,6.9,7.2,13.9,10.8,20.8
	c1,2,2,4,2.9,5.8c7.7,1,21-0.8,26.1-3.6c0.1-0.4,0.2-0.8,0.1-1.2c-0.5-1.8-1.1-3.5-1.7-5.3c-4.2-12.3-7.4-24.8-8.3-37.9
	c-0.2-3.1-0.8-6.1-1.4-9.2c-1.3-6.1-2.2-12.2-2.3-18.4c-0.2-11.7-0.5-23.5,0.5-35.2c0.4-4.3,0.7-8.7,1.8-12.8
	c7.6-26.9,21.1-50.4,41.3-69.9c18.4-17.8,39.7-30.6,64.7-36.9c10.6-2.7,21.4-3.8,32.3-4.8c16.1-1.5,32.1-0.6,48,2
	c25.1,4.1,48.3,13.4,69.6,27.4c2.6,1.7,5.2,3.4,7.6,5.2c2,1.5,4,1.9,6.4,1.4c2.2-0.5,4.4-0.9,6.7-1.4c14.1-3.1,27.4-8.8,41-13.6
	c1.3-0.5,2.6-1.2,3.8-2c6.7-4.4,13.7-8.4,20.1-13.3c8.8-6.8,17.2-14.1,25.6-21.4c7-6.1,13.1-13.1,18-21.1
	c4.2-6.8,8.2-13.8,12.3-20.7c0.7-1.2,1.3-2.6,1.7-4c0.2-0.8-0.1-1.8-0.1-2.6c-7.7,1.3-15,2.6-22.3,3.8c-9.8,1.6-19.7,2-29.5-0.1
	c-21.4-4.5-39.6-14.8-53.8-31.6c-0.9-1.1-1.9-2-3.1-3.3c-1.2,1.2-2.2,2.2-3.2,3.2c-4.7,5.3-10.1,9.7-16,13.5
	c-17.4,11.1-36.2,18.6-56.7,21.9c-11.7,1.9-23.4,2.2-35-0.8c-6.6-1.7-13.1-3.6-19.5-6C629.8,512.7,622.8,511.8,615.7,507.7z
	 M1040.4,1257.2c-1.6,2.2-1,4.3-0.9,6.3c0.4,9.9,1,19.7,1.2,29.6c0.7,33.6-0.6,67.1-2,100.6c-0.8,19.1-1.7,38.2-3.3,57.3
	c-0.4,4.4,1.4,7.7,5.1,9.7c6.2,3.3,12.4,6.4,19.2,8.3c17.5,5.2,35.5,6.8,53.7,7.2c17.7,0.4,35.4,0.7,53.1,1
	c31.3,0.5,62.6,1.2,93.9,1.5c16.7,0.2,33.4,0,50-0.1c1.8,0,3.7,0.5,5.2-1c-0.6-3.9-0.5-4.4-2.7-6.7c-2.8-3-5.7-5.9-8.9-8.5
	c-5.6-4.5-11.9-8.1-18.3-11.4c-29.3-15-59.3-28.6-89.8-41c-13.7-5.6-27.2-11.8-40.3-18.7c-4.2-2.2-7.9-5-11.8-8.2
	c4.1-24,7.4-48.1,8.9-72.3c2.1-36,2.3-65,0.7-72.6c-0.4,0-0.9-0.2-1.2,0c-2.8,1.7-5.6,3.5-8.3,5.3c-3.3,2.1-6.4,4.6-9.8,6.4
	c-8.7,4.7-17.9,8.5-27.4,11.3c-10.5,3.1-21.3,4.8-32.3,3.7c-10.1-1-19.9-3.1-29.4-6.7C1043.4,1257.8,1041.8,1257.6,1040.4,1257.2z
	 M546.6,1312.9c-1.6,0.1-2.8,0.1-4,0.2c-5.3,0.6-10.6,1.4-16,1.7c-18.5,0.9-37,2-55.5,2.4c-21.4,0.5-42.8,0.5-64.3,0.3
	c-15.9-0.1-31.7,1.2-47.4,3.7c-6.9,1.1-13.8,2.7-19.8,6.5c-3,1.9-6,3.9-7.6,7.1c-4.3,8.3-6.2,16.7-2.5,26
	c9.7,24,22.8,46.1,38.2,66.9c5.4,7.3,11.2,14.3,17.9,20.5c13.6,12.5,30,20.3,47.4,25.7c17.4,5.4,35.3,5.6,53.3,4.5
	c8-0.5,16-1.4,24-2.1c4.1-0.4,8.2-0.9,12.3-1.3c0.2,0,0.4-0.1,0.6-0.2c0.1-0.1,0.2-0.4,0.4-0.9c-0.6-0.6-1.2-1.4-2-1.9
	c-7.3-5.7-14.5-11.5-22-17c-14.5-10.6-28.7-21.5-41.1-34.6c-2.1-2.2-4.5-3.4-7.5-4c-5.4-1.1-10.8-2.5-16.2-3.8
	c-1.8-0.4-3.5-0.9-5.9-2.7c3.3,0,5.6-0.1,7.8,0c11.1,0.6,22.2,1.5,33.2,2.5c15,1.2,30,2.5,45,3.1c23.3,1,46.5,0,69.7-2.3
	c0.7-0.1,1.3-0.5,2.2-0.8c-3.7-3.3-7.3-6.1-10.3-9.4c-8.8-9.4-15.8-20-20.5-32.1c-6.4-16.3-9.8-33.1-8.8-50.7
	C547.3,1318,547.8,1315.7,546.6,1312.9z M491.6,818.3c-7.9,1.5-15,2.9-22.1,4.1c-7.1,1.2-14.4,1.4-21.6,0.3
	c-11.8-1.7-21.1-7.9-28.4-17.1c-7.2-9-11.8-19.3-13.5-30.7c-0.5-3.3-0.6-6.6-1.6-9.7c-1.5-5-2.3-10-2.3-15.2c0-1-0.5-1.9-0.7-3.1
	c-1.2-0.1-2.2-0.4-3.2-0.3c-8.2,0.1-16.4-0.4-24.7-1.3c-13.6-1.5-26.7-5-39.3-10.4c-13.1-5.6-24.7-13.1-32.6-25.5
	c-0.3-0.4-1-0.6-1.7-1c-0.5,0.8-1,1.5-1.3,2.2c-4.7,12.8-8.9,25.7-11.6,39c-3.8,18.9-4,38-0.5,57.1c6.2,33.1,23.2,58.6,52.8,75.2
	c14.8,8.3,30.6,14.3,47,18.4c19.9,4.9,40,4.7,60.2,2c16.8-2.3,33.1-6.5,49.2-11.7c10.2-3.3,20.1-7.4,30.1-11.2
	c1.7-0.6,3.2-1.6,4.7-2.4c-0.5-2.7-2.5-3.7-3.8-5.2c-4.4-5.2-9.1-10.1-13.2-15.5c-7.6-9.8-13.7-20.5-19.1-31.7
	C493.8,822.4,492.7,820.5,491.6,818.3z M634.1,305.2c-0.6,0.2-0.9,0.2-1,0.3c-1.2,0.8-2.3,1.7-3.5,2.6c-8.8,6.9-18.6,12.2-28.7,16.8
	c-1.8,0.8-3.9,1.1-5.9,1.5c-0.4,0.1-1.2-0.5-1.4-0.9c-0.2-0.4-0.2-1.4,0.1-1.7c1.1-1.2,2.3-2.3,3.7-3.2c5-3.6,10.2-7,15.2-10.6
	c4-2.8,8.1-5.6,12-8.7c1.8-1.4,3.2-3.2,4.6-4.9c0.5-0.7,0.9-2.2,0.5-2.9c-1.7-2.8-3.5-5.6-5.7-7.9c-1.2-1.3-3.3-1.6-5.2-0.9
	c-2.3,0.8-4.7,1.5-7,2.5c-7.4,3.3-14.1,7.6-20.7,12.3c-5.1,3.6-9.5,7.9-13.3,12.8c-5.1,6.7-6,14-2.1,21.4
	c6.6,12.5,18.4,21.7,35.3,20c6.1-0.6,12.2-1.8,18.3-3c6.3-1.2,12.2-3.8,18-6.4c3.2-1.4,6.3-1.7,9.6-1.1c12.3,2.4,24.6,5,36.4,9.4
	c3.8,1.4,7.6,3.2,11.3,4.9c2.5,1.1,4.7,2.7,6.1,5.1c1.3,2.2,3.4,3.5,5.3,5c4.2,3.3,8.5,6.5,12.3,10.3c15.7,15.7,28.4,33.6,39.2,53
	c1.7,3.1,3.1,6.3,4.5,9.5c4.5,10.3,4.6,20.7,0.5,31.2c-0.8,1.9-1.5,3.8-2.2,5.8c0.9,1.1,1.5,2.2,2.4,3c4.2,3.9,8.4,7.9,12.9,11.5
	c11.3,9,24.2,15,38.3,17.8c15.2,3,30.3,1.6,45.2-2.7c0.6-0.2,1-0.6,1.6-1c1.9-4.2,2.3-8.7,2.9-13.2c1.7-11,1.7-22.2,1.7-33.3
	c0-11.9-1-23.7-4.3-35.4c-10.1-35.8-27.7-67.1-54.3-93.4c-14.4-14.2-29-28-44-41.5c-3.6-3.3-7.8-6-11.8-9
	c-11.3,5.3-16.9,14.4-18.8,26.5c1.7,1.1,3.2,2.1,4.8,3.1c12.9,8.1,19.7,20,22,34.8c0.5,3.5,0,7-1.2,10.3c-1.8,4.8-5.1,7.9-10,9.2
	c-3,0.8-6.1,1.4-9.2,0.7c-3.4-0.8-6.8-1.5-10.2-2.5c-9.9-3.2-18.9-8.1-27.8-13.3c-9.8-5.7-19.5-11.5-29.3-17.1
	c-14-7.9-28.5-14.9-41.8-23.9C637.5,306.8,635.6,306,634.1,305.2z M417.9,524.6c2.3-0.1,3.5-0.4,4.6-0.2c3.8,0.5,6.3-1.4,8.3-4.2
	c2-2.7,3.2-5.7,3.9-9c1.4-6.4,2.3-13,4.5-19.2c4-11.2,11.1-20,21.8-25.8c5.4-3,10.6-6.3,15.7-9.8c3-2.1,5.8-4.7,8.2-7.4
	c5.7-6.5,6-16.2,0.6-24.2c-0.5,1.1-1,1.9-1.3,2.8c-1.6,3.9-4.1,7.2-7.5,9.6c-9.2,6.6-19,12.3-29.9,15.7c-2.7,0.8-5.6,1.1-8.5,1.4
	c-1,0.1-2.1-0.2-2.3-1.8c2.4-1.9,5.5-2.3,8.4-3.2c11.8-3.6,22.1-9.9,32.2-16.8c3.3-2.3,5.7-5.3,6.1-9.5c-1.1-2.7-3.5-3.5-5.9-4
	c-1.6-0.3-3.3-0.4-4.9-0.3c-8.2,0.4-16.4,1.1-24.3,3.7c-17.1,5.5-32.6,13.8-45.9,25.9c-5.7,5.2-10.5,11.1-13,18.5
	c-2,5.6-3.5,11.4-4.1,17.4c-1.2,11.5-2.4,22.9-3.5,34.4c-1,10.3-3.1,20.3-6,30.2c-2.3,7.8-6.5,14.1-12.4,19.5
	c-9.5,8.6-20.2,14.8-32.9,17.4c-6.9,1.4-13.6,3.1-20.4,4.8c-7.5,1.9-14.2,5.5-20.4,10.1c-1.8,1.3-3.6,2.7-4.5,5
	c-3.9,10.7-7.1,21.4-4.9,33.1c2.5,13.3,7.6,25.1,17.6,34.6c1.5,1.4,3.1,2.6,4.8,4c0.8-1,1.4-1.5,1.8-2.2c3.8-6.6,7.5-13.2,11.4-19.8
	c10.2-17.3,22.1-33.2,35.2-48.4c13.1-15.1,27.5-29,43-41.6c23-18.6,48.5-31.6,78.1-36c0.8-0.1,1.5-0.5,2.8-1
	c-1.2-1.3-2.1-2.3-2.9-3.1c-13.9,7.2-21.5,6.3-34-4.2c-1.3,1.5-2.5,3.2-3.9,4.6C428.7,530.4,423.9,530.3,417.9,524.6z M610.9,239.4
	c-0.8-0.6-1.8-1.2-2.8-2c-4.1-3.2-8.2-6.3-12.2-9.5c-16-13-32.6-25.1-49.6-36.8c-26.2-18.2-52.2-36.7-76.5-57.5
	c-2.5-2.2-5.1-3-8.4-2.7c-7.8,0.6-15.6,0.8-23.4,1.3c-1.4,0.1-2.8,0.3-4.2,0.4c-0.7,2.8,0,5.2,0.2,7.6c0.7,7.8,1.7,15.6,2.2,23.3
	c0.2,3.6,1.6,6,4.5,8.2c14,10.4,28,20.9,41.8,31.7c25.5,19.9,51,39.8,75.4,61c5.4,4.7,10.9,9.4,16.4,14.1c1.5,1.3,3.2,2.4,4.8,3.5
	c4.3-4.2,14.6-18.6,16.2-22.6c-0.2-0.3-0.4-0.8-0.7-1c-9.1-7.1-18.1-14.3-27.3-21.2c-18.8-14-37.7-27.9-56.6-41.9
	c-1.5-1.1-3-2.2-4.4-3.4c-12-9.4-23.9-18.8-35.9-28.3c-4.7-3.7-9.3-7.5-13.8-11.4c-0.8-0.7-2.2-1.4-1.3-3.3c1.2,0.6,2.6,0.9,3.7,1.7
	c5.2,3.7,10.4,7.4,15.5,11.2c16.5,12.2,32.7,25,49.5,36.9c24.8,17.6,48.9,36.4,71.9,56.4c0.6,0.5,1.3,0.8,2,1.1
	C601.6,252.8,608,244.5,610.9,239.4z M580.8,481c-3,3.7-5.5,7.2-8.5,10.3c-7.9,8.4-16.4,16.2-25.6,23.2
	c-7.8,5.9-16.2,10.6-25.6,13.4c-6.3,1.9-12.6,3.7-18.9,5.6c-0.9,0.3-1.8,0.6-3.6,1.1c1.9,1.4,3.1,2.5,4.4,3.3
	c19.6,12.3,41.2,14.6,63.7,11.9c10.4-1.3,19.7-5.7,29-10.1c4.6-2.1,7.7-5.4,9.6-9.9c1-2.5,1.9-5,2.7-7.6c1.6-5,0.9-10.2,1.1-15.3
	c0.1-3.6-1.2-6.3-4.1-8.4c-7.6-5.7-15.1-11.4-22.7-17.1C581.8,481.1,581.4,481.1,580.8,481z M474.8,490.8c0.8,1.3,1.4,2.3,2.1,3.3
	c5.2,6.4,10.9,12.3,17.6,17.2c4.6,3.4,9.2,6.9,13.7,10.5c1.8,1.5,3.6,1.9,5.7,1c5.5-2.3,11.1-4.3,16.3-7.1c13-7,23.6-17,34-27.4
	c0.3-0.3,0.4-0.7,0.8-1.6c-2-3-4.8-5.8-7.3-8.7c-2.7-3.1-5.4-6.2-8.1-9.3c-2.5-2.9-4.4-6.4-7.7-8.5c-6.2,4.2-12.2,8.2-18.3,12.2
	c0.6,3.5,3.7,7.3-1,10.5c-2.7-1.9-2.7-5.9-6.1-7c-4.5,1.8-9,3.8-13.6,5.6c-4.6,1.7-9.3,3.2-14,4.8
	C484.4,487.9,479.5,488.4,474.8,490.8z M711.6,240.4c-1.1-0.9-1.6-1.5-2.3-1.9c-3.5-1.7-7.3-2.8-11.3-2.8c-2.9,0-5.8,0-8.6-0.6
	c-2.7-0.6-4.9,0-7.1,1.1c-10.3,5.2-19,12.4-25.5,21.9c-6.8,10-8.6,21.2-6.2,33.1c0.7,3.6,1.9,7.2,4.1,10.3c3.1,4.5,6.9,4.8,10.9,1
	c2.9-2.8,4.7-6.2,6-10c1.5-4.3,2.8-8.6,4.2-12.9c2.3-7,6.3-12.9,11.9-17.7c6.1-5.2,12-10.6,18-16
	C707.5,244.4,709.2,242.6,711.6,240.4z M737,253.8c-2.5-3.4-5.5-5.8-9-7.7c-3.6-1.9-7.1-1.7-10.6,0.2c-4.2,2.3-7.8,5.3-11.2,8.6
	c-2.6,2.6-5.1,5.4-7.9,7.7c-9.5,7.9-14.2,18.4-16.8,30.1c-0.4,2-0.4,4.1-0.1,6.1c0.7,4.8,2.4,9.2,6.5,12.2
	c4.9,3.6,10.3,3.2,14.4-1.3c1.9-2.1,3.6-4.5,4.9-7.1c2.5-4.7,4.7-9.6,6.9-14.5c2.5-5.7,5.3-11.1,9.3-15.9c0.9-1.1,1.7-2.3,2.3-3.6
	c1.7-3.8,4.2-7,7-10.1C734.1,257.1,735.4,255.6,737,253.8z M674.5,305.6c-1.6,1.5-3,2.6-4.3,3.9c-1.4,1.4-3.6,1.9-4.4,4.2
	c1.6,0.9,2.8,1.6,4,2.3c15.7,8.1,31.1,16.8,46.2,26c5.6,3.4,11.5,6.5,17.5,9.2c4.7,2.1,9.6,3.7,14.6,4.9c7.3,1.7,13.3-1.4,12.1-11.1
	c-1.5-12.1-7.3-21.7-17.2-28.7c-0.9-0.7-2.1-1-3.5-1.7c-1.1,3.3-2,6.2-3.1,9.1c-1.7,4.7-4,9-7.9,12.3c-5.8,4.8-12.3,3.7-16.1-2.9
	c-2.2-3.8-3.3-7.9-4.3-12.2c-0.2-1.1-0.5-2.2-0.8-3.8c-1.7,1-2.9,1.8-4.1,2.5c-2.4,1.3-5,2-7.7,2c-7.9,0-13.7-3.7-17.9-10.2
	C676.5,309.6,675.6,307.8,674.5,305.6z M622.3,274.7c0.4-2.2,0.7-3.8,0.9-5.5c1.5-10.3,5.6-19.3,13.6-26.3c1.2-1.1,2.3-2.3,3.6-3.4
	c5.7-4.6,9.7-10.6,14.1-16.3c2.8-3.7,4.1-8.1,4.8-12.6c0.3-1.8,0.3-3.7-0.8-5.4c-1-1.5-3-1.9-4.3-0.7c-0.5,0.4-0.9,0.9-1.3,1.3
	c-7.3,8.3-14.7,16.6-22,25.1c-3.3,3.9-7.3,7.3-9.5,12.1c-0.3,0.7-1.2,1.1-1.7,1.7c-1.7,1.8-3.5,3.5-4.9,5.5
	c-8.5,11.4-17,22.8-25.5,34.2c-1,1.3-1.9,2.7-2.6,4.2c-0.3,0.6,0,1.4,0,2.8C598,284.3,608.8,276.9,622.3,274.7z M413.3,737.1
	c-2,9.3-1.8,17.4-1.4,25.4c0.4,7.2,2.1,14.3,4.3,21.1c3.4,10.6,10,19.3,19.7,25.3c2.9,1.8,6.2,3.1,9.5,4.4c2.2,0.8,4.7,1.3,7.5,0.2
	c-0.7-1.5-1.2-2.8-1.8-4c-4.3-8.4-9.2-16.6-12.9-25.3C431.2,768.2,421.5,753.9,413.3,737.1z M761.8,272.6
	c-1.7-5.9-4.6-10.3-8.4-14.1c-3.9-3.8-8-3.2-12.3-0.4c-1.8,1.2-4,3-3.7,5.3c0.3,2.7-1,4.4-2.4,6c-2.9,3.3-4.8,7.1-6.5,11.1
	c-2.8,6.4-5.7,12.8-8.4,19.2c-1.3,3-2.5,6.1-3.5,9.2c-2,6.1-1.3,12.2,1.2,18c2.1,4.7,4.5,4.9,7.4,0.5c1.6-2.4,2.8-5,3.7-7.7
	c1.8-5.5,3.2-11,4.9-16.5c1.1-3.5,2.1-7.1,3.5-10.5c4-9.8,11.1-16.1,21.2-19.1C759.3,273.4,760.3,273.1,761.8,272.6z M466.3,492.6
	c-9.1-0.4-15.9,5.6-21.1,11.1c-0.6,0.6-1,1.3-1.4,2c-3.3,5.7-1,12.8,5.1,15.4c3.9,1.6,7.8,2.2,12,0.5c2.7-1.1,5.4-1.8,8.2-2.7
	c4.6-1.4,8.8-0.9,12.5,2.7c2.5,2.4,5.4,4.4,8.2,6.4c0.9,0.7,2.3,1.3,3.4,1.1c2.7-0.6,5.6-1,8.6-3.4c-6.4-5.4-13.4-9.5-18.9-15.1
	C477.1,505,472,498.9,466.3,492.6z M637.2,286.5c3.1-1.2,3.9-3.6,4.1-6.4c1.2-14.4,7.2-26.3,18-36c5.2-4.7,10.6-9.1,16.8-12.5
	c0.8-0.4,1.4-1.1,2.3-1.9c-4.9-2.1-7.5-2.2-11.5-0.2c-2.9,1.5-5.8,3.2-8.3,5.3c-6.2,5.3-12.4,10.8-18.3,16.5c-6.2,6-8.5,13.8-9,22.3
	C631.1,279.1,633.6,283,637.2,286.5z M567.6,455.7c2.3-4.5,2.6-10.8,0.9-15.5c-2.2-6-5.9-10.6-12.7-11.1c-4.8-0.4-9.4,0.7-13.3,3.9
	c-0.1,0.1-0.1,0.4-0.2,0.7c0.2,0.4,0.4,1.1,0.8,1.4c7.6,6.7,15.2,13.3,22.8,19.9C566.4,455.4,567.1,455.5,567.6,455.7z M575.3,476.3
	c-0.7-0.9-1.1-1.7-1.7-2.2c-7.4-6.5-14.9-13-22.3-19.5c-0.5-0.4-1-0.8-1.6-0.9c-0.5-0.1-1.4,0-1.6,0.4c-0.4,0.6-0.7,1.4-0.7,2.2
	c0,0.5,0.5,1.1,0.9,1.5c6.3,7.3,12.6,14.7,18.9,22c0.7,0.9,1.8,1.4,3,2.3C572.1,480.1,573.7,478.3,575.3,476.3z M565.9,318.9
	c-5.2,7.3-10.5,14.5-15.7,21.8c-1.4,1.9-0.6,4,1.5,5c2.1,1,4.2,0.7,5.8-0.6c2.7-2.1,5.2-4.6,7.7-6.9c1.5-1.4,1.9-3.1,1.3-5
	C565.2,328.6,565.5,324,565.9,318.9z M493.4,422.4c3.2,4.2,6.8,4.9,10.3,5.9c3.7,1.1,7.4,1.4,11.7-1
	C508.3,424.4,501.8,422.4,493.4,422.4z M642.2,293.6c-3.9,1.1-4.2,4.2-5,7.2c2.7,1.6,5.2,2.6,8.6,2.6
	C644.7,299.9,643.9,296.6,642.2,293.6z"/>
<path id="XMLID_564_" d="M794.9,177.2c-1,0.1-1.8,0.3-2.7,0.3c-2.7,0.1-4.6,1.4-5.9,3.8c-2.4,4.2-6.4,6.3-11.1,7.1
	c-9.1,1.5-19.1-5-21.4-13.9c-0.7-2.9-0.6-5.7,0.9-8.4c2.8-5,6.7-8.8,11.9-11.2c3-1.4,6-1.8,8.9,0.1c2.7,1.7,5.4,1.6,8.3,0.8
	c2.8-0.7,5.5-1.4,8.6-2.2c1-8.7,1.9-17.3,4.3-25.6c2.4-8.3,6.4-16,10.1-23.7c-1.3-2.6-3.6-3.7-5.7-5.2c-1.5,0.4-3.1,0.9-4.7,1.3
	c-7.1,1.9-13.5,0.1-19.1-4.4c-5.4-4.4-8-11.8-2.8-19.3c3.4-5,7.7-9.1,13.1-12c6-3.3,10.8-2.1,15.5,2.9c2.4,2.6,4.1,5.7,4.5,9.2
	c4.1,2.6,8.1,5.2,12.3,7.9c1.8-1.7,3.4-3.3,5-4.9c8.9-8.8,19.1-15.6,30.8-20.2c4.6-1.8,9.3-3.2,14.3-3.8c3.5-0.5,7-0.6,10.4,0
	c1.6,0.3,3.2,0.3,4.6,0.4c1.7-1.7,1.9-3.5,1.2-5.3c-0.3-0.8-0.8-1.5-1.1-2.2c-3.5-7.9-1.7-15.6,4.8-21.2c4.5-3.8,9.5-4.6,15-2.3
	c4.3,1.8,7.7,4.7,10,8.8c3,5.4,2.6,9.5-1.3,14.2c-0.5,0.6-1.1,1.3-1.7,1.8c-3.8,2.7-4,6.4-3.1,10.3c6.7,2,13.2,3.7,19.6,6
	c6.2,2.2,12,5.5,17.4,9.3c5.6,4,10.6,8.6,14.5,14.2c3.8,5.4,7.1,11,10.9,16.9c1.8-0.4,3.8-0.8,5.9-1.2c0.6-1.1,1.3-2.1,1.7-3.2
	c1.4-3.1,3.8-4.7,7.1-5.3c3.1-0.6,6.2-0.5,9.2,0.1c7.3,1.5,11.6,6.2,12.2,13.6c0.5,6.4-1.4,12.3-5.2,17.4c-3.7,4.9-12,6.4-17.4,3.5
	c-0.9-0.5-1.6-1.4-2.6-1.6c-1.1-0.3-2.3-0.1-3.8-0.1c0.3,6,0.8,11.7,1,17.4c0.2,5.8-0.2,11.5-1.4,17.2c-1.2,5.7-2.8,11.2-5.5,16.3
	c-2.7,5.1-5.5,10.2-8.8,14.9c-3.3,4.7-7.1,9.1-11.1,13.2c-4,4.1-8.5,7.7-12.7,11.5c0.9,4.7,1,5,4.2,9.8c1.7,0.2,3.5,0.3,5.3,0.8
	c8.9,2.2,12.6,9.8,8.8,18.1c-2.3,5.2-5.6,9.6-10,13.2c-6.7,5.6-14,5.7-20.9,0.4c-2.3-1.8-4.2-4-5.5-6.6c-2.2-4.3-2.7-8.6-0.2-13
	c0.5-0.9,0.9-1.8,1.4-2.8c-1.4-2.8-2.7-5.6-4.6-7.7c-2.7-0.7-4.7,0.6-6.8,1.3c-9.9,3.1-20,4.7-30.4,4.8c-10.8,0-21.3-1.8-31.4-5.6
	c-1.5-0.6-3.1-1.1-4.6-1.6c-2.3,1.7-2.4,3.7-1.9,6.2c1.3,6.2-0.8,11.1-6,14.1c-1.4,0.8-3,1.4-4.6,1.5c-2.4,0.2-5,0.3-7.4,0
	c-6.2-0.9-10.6-4.5-12.8-10.3c-2.1-5.6,2.4-13.2,8.6-15c1.8-0.5,3.6-0.6,5.9-1c0.5-1.2,1.2-2.7,1.7-4.1c-0.6-0.7-0.9-1.3-1.3-1.7
	c-1.4-1.2-3-2.2-4.4-3.4c-11.5-9.2-20-20.6-25.1-34.5c-0.6-1.7-1.4-3.4-2.1-5.1C795.6,177.9,795.4,177.8,794.9,177.2z M804.9,174.4
	c0.4,1.5,0.5,2.3,0.8,3.1c3.4,10.6,9,20,17.2,27.4c25.6,23.2,54.9,29.4,87.7,18.5c1.1-0.4,2-1.2,3-1.8c-0.6-2.5-1.2-4.7-1.8-7
	c1.7-1.5,3.2-2.8,6.1-2.4c2.6,4.3,4.7,9.2,6.7,14.1c2,4.9,5.8,9,6.7,14.2c-1.2,1.9-2.2,3.4-3.1,5c-1.6,2.8-1.2,5.6,0.8,8.1
	c1,1.3,2.2,2.4,3.6,3.3c3.6,2.4,6.2,2.3,9.6-0.4c3.5-2.7,6-6.2,7.9-10.2c1.7-3.7,1.2-5.3-2.1-7.8c-2.6-2-5.6-2.2-8.4-2.1
	c-7.9-13.4-12.7-23.2-13.8-28.8c1.3-1.4,2.9-2.6,5.5-2.3c1.1,1.6,2.3,3.2,3.4,4.8c2.5-0.2,3.8-1.9,5.3-3.2
	c7.7-6.6,14.1-14.4,19.5-23c9.7-15.5,11.3-32.4,8.9-50c-0.4-2.6-0.7-5.3-1.2-7.9c-0.9-5.5-2.1-10.9-5.5-15.6
	c-1.1-1.5-1.9-3.2-2.7-4.8c-8.4-16.8-22-27.4-39.6-33.2c-3.9-1.3-7.9-2.4-12.3-2.3c-0.8,2.2-1.4,4.3-2.3,6.3c-0.2,0.5-1.3,1-2,1
	c-0.6-0.1-1.4-0.8-1.7-1.4c-0.3-0.7-0.2-1.6-0.2-2.4c0.4-7.6,0.8-15.2,1.1-22.8c0.1-1.8,0.7-3.1,2.2-4.2c1.3-1,2.6-2,3.7-3.3
	c1.1-1.3,1.4-2.9,0.5-4.6c-1.4-2.9-3.7-4.9-6.7-6.1c-3.1-1.3-7-0.5-9,2.2c-2.3,3.1-3.8,6.6-1.6,10.3c1.3,2.3,1.6,4.6,1.4,7.1
	c-0.8,7.2-1.6,14.3-2.4,21.5c-0.1,0.6-0.2,1.3-0.6,1.7c-0.3,0.4-1,0.8-1.5,0.8c-0.5,0-1.3-0.4-1.5-0.8c-0.4-1.1-0.6-2.4-0.7-3.6
	c-0.2-2.2,0.4-4.5-0.7-6.6c-2.6-1.3-5.2-1.3-7.9-1.1c-7.9,0.4-15.5,1.8-23.1,3.7c-2.3,0.6-4.6,1.7-6.7,3
	c-8.3,5.2-15.2,11.9-21.6,19.2c-1.2,1.4-2.4,2.7-3.8,4.1c-5.9-3.2-11.5-6.2-17.1-9.3c-0.7-0.4-1.4-0.8-2.1-1.2
	c-1.7-1.1-2.4-2.7-2.5-4.7c-0.1-3.2-2-5.3-4.3-7.1c-1.2-0.9-2.6-1.2-4.1-0.5c-5.3,2.4-9.2,6.1-12,11.1c-1.2,2-0.9,4,0.4,5.8
	c0.8,1.1,1.8,2.3,3,3c4.4,2.8,9.2,3.4,14.1,1.4c1.3-0.5,2.6-1.1,4.1-1.7c4.6,3.2,9.2,6.4,13.7,9.6c0.7,0.5,1.2,1.1,2.1,1.9
	c-0.6,1.5-1,3-1.7,4.4c-2.3,4.6-4.9,9.1-7,13.7c-3.3,7.4-5.1,15.2-6.1,23.2c-0.3,2.4-0.8,4.9,0.4,7.5c1.3-0.1,2.5-0.2,3.6-0.3
	c1.8-0.2,3.7-0.6,5.5-0.6c3,0,4.8,1.1,4.8,2.8c0,1.5-1.4,2.9-3.8,3.5c-0.4,0.1-0.8,0.1-1.2,0.2c-4.6,1.1-9.3,2-13.7,3.5
	c-5.5,1.8-11.2,2.6-16.9,3.5c-1.9,0.3-3.6,0.1-5.2-1.2c-3.9-3.3-6.8-2.3-10.4,0.8c-1.7,1.4-3,3.4-4.3,5.2c-1.1,1.6-1,3.4-0.3,5.3
	c1.3,3.7,4,5.6,7.5,6.7c4.6,1.5,12.2-0.5,13.8-4.2c1.3-2.8,3.3-4.1,5.9-4.8c2.6-0.8,5.1-1.8,7.7-2.1c5.8-0.7,11.3-2.1,16.8-3.8
	c1.4-0.4,2.8-0.8,4.2-0.9c0.6,0,1.6,0.6,1.9,1.2c0.3,0.6,0.1,1.7-0.4,2.2c-0.8,0.9-1.8,1.7-2.9,2.2c-1.9,0.9-3.8,1.5-5.8,2.2
	C808.4,173,806.9,173.6,804.9,174.4z M976.1,121.6c1.7,0,3.1,0.1,4.5,0c2.1-0.2,4.1-0.1,5.8,1.4c0.6,0.5,1.4,0.9,2.2,1.2
	c3,1.4,5.8,0.8,7.6-1.9c2.1-3.1,3.4-6.6,3.3-10.4c-0.1-4.4-2-6.9-6.3-7.9c-1.2-0.3-2.4-0.3-3.7-0.4c-2.8-0.2-5.3,0.9-6,3.4
	c-1.1,4.1-4.1,5.4-7.5,6.5c-0.6,0.2-1,0.6-1.5,0.9C973.7,116.8,975.1,118.8,976.1,121.6z M831.6,232.8c-3.1,0.2-5.6,0.1-7.9,0.6
	c-3.9,0.8-6.5,5.3-4.9,8.4c1.5,2.9,3.8,4.9,7.3,4.8c1.8-0.1,3.7-0.3,5.5-0.8c3.8-1,5.4-2.7,5.1-6.6c-0.3-3.8,0.3-7.3,1.9-10.9
	c-1.2-0.6-2.2-1.2-3.5-1.8C833.8,228.7,832.7,230.7,831.6,232.8z"/>
<path id="XMLID_563_" d="M981.6,210.8c0.4-3.8,2.1-5.5,3.1-7.4c2.7-4.8,5.7-9.5,8.2-14.4c3.5-6.8,5.7-14,5.2-21.8
	c-0.1-1.1,0.3-2.3,0.6-3.8c2.5,1.6,2.1,3.8,2.4,5.7c1.4,9.5-0.9,18.2-5.5,26.5C992.3,201.5,988.3,206.4,981.6,210.8z"/>
<path id="XMLID_562_" d="M882.5,41.3c-2.5,0-4.3,0.2-6.1,0c-7.5-1.2-14.8-0.1-21.9,2c-1.2,0.3-2.4,0.8-3.6,1
	c-1.1,0.2-2.7,1.1-3.1-0.6c-0.2-0.9,0.7-2.4,1.5-3c5.4-4.3,11.8-5.6,18.5-5.4c4.6,0.2,8.9,1.7,12.9,3.9
	C881.3,39.4,881.7,40.2,882.5,41.3z"/>
<path id="XMLID_561_" d="M988.1,176.5c0.8,0.5,1.6,0.8,1.6,1.2c0.2,1.6,0.4,3.3,0.2,4.8c-2,11.9-8.7,20.5-18.9,26.5
	c-0.8,0.5-1.9,0.6-2.6,0.8c-1.1-1-0.8-1.8-0.3-2.4c1.9-2.1,3.9-4.1,5.8-6.3c2.7-3.1,5.5-6,7.9-9.3c2.5-3.5,4.2-7.5,5-11.8
	C987.1,178.9,987.6,177.8,988.1,176.5z"/>
<path id="XMLID_560_" d="M878.3,46.9c-1.5,1.7-3.6,1.7-5.5,2c-3.2,0.6-6.5,1.1-9.7,1.8c-4.7,1-9,2.7-12.7,5.9
	c-0.8,0.7-1.6,1.3-2.5,1.7c-0.5,0.2-1.3,0.2-1.7-0.1c-0.4-0.3-0.6-1.1-0.5-1.6c0.3-1,0.7-1.9,1.3-2.7c2.2-2.8,4.9-4.9,8.2-6.3
	c6.2-2.6,12.6-3.4,19.3-2.7c1,0.1,2,0.5,2.9,0.9C877.7,46,877.9,46.5,878.3,46.9z"/>
<polygon id="XMLID_559_" points="411.8,126.9 412.1,126.5 412.3,126.9 "/>
<path id="XMLID_558_" d="M483.1,461.7c3.3-0.6,5.4,1.3,6.9,3.8c0.7,1.1,0.6,2.4-0.3,3.4c-0.9,1-2.2,1.1-3.4,0.6
	c-3-1.2-4.3-3.5-4.2-6.7C482.5,462.5,482.8,462.1,483.1,461.7z"/>
<path id="XMLID_555_" d="M610.1,745.9c-0.6,0.6-1,1.1-1.6,1.7c-2.2-1.9-2.7-4.6-3.1-7.1c-0.9-5.3-1-10.7,0.4-15.9
	c3.6-13,10.3-24.2,20.9-32.8c3.7-3,7.8-5.3,12.4-6.9c7.3-2.5,14.6-2.9,21.8-0.4c12.8,4.5,23.3,12.3,30.2,24.2
	c3.6,6.2,5.5,12.8,5.1,20.1c-0.2,3.8-1,7.3-2.5,10.8c-7.3,16-19.1,27.2-35.3,33.6c-15.9,6.3-32.2,0.9-41.5-13.5
	c-2-3.1-3.5-6.5-5.1-9.8C611.1,748.6,610.7,747.3,610.1,745.9z M612.9,727.9c0.3,11.6,3,20.7,8.7,28.9c6.8,9.8,19.3,16.5,33.6,11
	c13.2-5,23.3-13.5,29.8-26.3c5.1-10.1,4.5-19.8-1.3-29.3c-4.8-8-11.9-13.5-20.1-17.7c-9.6-4.9-19-4.4-28.2,1
	c-2.8,1.7-5.4,3.8-7.8,5.9c-4.8,4.3-8.4,9.5-11.5,15.2C613.9,720.6,612.6,724.9,612.9,727.9z"/>
<path id="XMLID_552_" class="st0" d="M499.6,764.2c0.6-3.2,1.1-7.3,2.1-11.2c0.4-1.5,1.3-3.1,2.4-4.2c4.3-4.6,9.7-7.3,16-6
	c7.2,1.5,12.8,5.6,15.2,13c0.9,2.7,0.7,5.3-0.5,7.8c-4.4,9.4-12.1,14.4-22,15.9c-5.9,0.9-11.4-3.6-12.6-9.5
	C499.9,768.4,499.9,766.7,499.6,764.2z M504.5,764.7c0.3,1.1,0.6,3.4,1.5,5.4c1.2,2.7,3.7,4.1,6.5,3.6c7-1.2,12.6-4.6,16.3-10.9
	c1.2-2.2,1.2-4.2,0-6.4c-2.3-4-5.9-6.5-10.3-7.1c-4.2-0.5-8.3,0.8-10.9,4.4C505.5,756.5,504.6,760,504.5,764.7z"/>
<path id="XMLID_549_" class="st0" d="M569.1,861.7c-0.2-4,1.4-7.5,3.8-10.6c0.5-0.6,1.1-1.3,1.8-1.6c3.6-1.5,7.1-3.2,10.8-4.2
	c8.3-2.3,17.5,3.1,19.3,10.9c0.3,1.2,0.5,2.4,0.4,3.6c-0.6,9.2-9.4,17.9-18.5,18.4c-5.4,0.2-10.1-1.7-13.8-5.6
	C570,869.6,569,865.9,569.1,861.7z M586.1,872.4c2.3-0.1,4.8-0.4,6.8-1.9c3.2-2.5,5.1-5.8,6-9.7c0.7-2.8-0.4-5.2-2.7-7
	c-3.2-2.4-6.7-3.3-10.4-1.8c-3.4,1.4-6.5,3.3-9.7,5.1c-1.8,1-2.2,2.8-2.1,4.8C574.4,868.2,579.1,872.4,586.1,872.4z"/>
<path id="XMLID_546_" class="st0" d="M721.8,861.5c-9.6,0-16.4-7.7-15.7-16.5c0.2-2.5,0.6-4.9,0.9-7.3c0.6-4.8,4-8.3,8.8-9
	c2.3-0.3,4.5,0,6.6,0.8c5.2,2.2,9.7,5.4,13.3,9.7c3.9,4.7,4,8.4,0.4,13.4C732.4,857.9,727.4,861.3,721.8,861.5z M732.2,846.4
	c-2.4-4.4-6.1-7-10-9.2c-4.6-2.6-6.9-1.7-9.2,3.1c-1.1,2.3-1.4,4.7-1,7.2c1.1,6.6,7.5,9.9,13.4,6.9
	C728.5,852.7,731,850.4,732.2,846.4z"/>
<path id="XMLID_543_" class="st0" d="M773,732.8c-6.5-0.1-11-2.7-13.7-8.3c-5.9-12.2,0.7-21.5,9.4-25.8c4.6-2.3,9.2-2.3,13.5,0.5
	c2.4,1.6,4.7,3.4,6.5,5.6c3.8,4.7,4.5,10,1.6,15.5c-3,5.7-6.9,10.3-13.4,11.9C775.4,732.5,774,732.7,773,732.8z M772.7,727.5
	c3.6,0.1,6.8-1.4,9-4.8c0.9-1.4,1.7-2.8,2.4-4.3c2-4.3,1.4-7.2-1.9-10.6c-4.4-4.5-9.8-5.1-15-1.4c-1.2,0.8-2.2,1.9-3.2,2.9
	c-3.7,3.6-3.2,7.7-1.4,11.9C764.5,725.4,767.6,727.6,772.7,727.5z"/>
<path id="XMLID_540_" class="st0" d="M698,646.2c-5.1-0.2-8.9-1.4-12.4-3.8c-4.6-3.3-6.2-8.3-4.2-13.5c1.4-3.9,3.7-7.3,6.6-10.2
	c4-4,8.9-5,14.2-3.6c3.8,1,7.2,2.9,10.2,5.6c4.8,4.4,5.5,8.5,2.5,14.2C711,641.9,705.2,645.9,698,646.2z M697.4,640.7
	c6-0.2,9.9-3.3,12.3-8.6c1.2-2.7,0.8-4.5-1.5-6.6c-2.5-2.2-5.4-3.6-8.6-4.6c-1.9-0.6-3.7-0.2-5.4,0.6c-3.9,1.8-6.5,4.9-7.9,8.9
	c-1.2,3.4-0.2,6,2.9,7.9C691.7,640,694.4,640.8,697.4,640.7z"/>
<path id="XMLID_537_" class="st0" d="M576.7,636.6c-8,0.1-15.5-6-16.8-13.7c-0.1-0.8-0.2-1.7,0-2.4c1.7-7.1,5.2-12.9,12.3-15.9
	c10.6-4.5,21.7,5.3,22.4,14c0,0.6,0,1.2,0,1.8C593.6,628.4,584.6,636.5,576.7,636.6z M576.6,632c1-0.3,2.2-0.5,3.4-0.9
	c3.3-1.1,5.4-3.6,7.2-6.4c2.7-4.3,2.4-7.5-1.1-11.1c-1.3-1.3-2.9-2.3-4.5-3.2c-2.3-1.3-4.6-1.3-7.1-0.3c-4.5,1.9-7.2,5.4-9.1,9.6
	c-1.2,2.8-0.7,5.7,1.6,8C569.5,630.3,572.8,631.5,576.6,632z"/>
<path id="XMLID_536_" class="st0" d="M564.3,795.2c1,1.9,1.8,3.3,2.7,5c-4.3,4.1-9.3,7-13.9,10.3c-4.6,3.3-8.8,7.4-14.3,9.9
	c-0.7-0.6-1.5-1.2-2.1-1.9c-0.7-0.9-0.7-1.9,0-2.8c0.4-0.5,0.8-0.9,1.3-1.3c7.5-5.7,15-11.4,22.5-17
	C561.4,796.7,562.6,796.2,564.3,795.2z"/>
<path id="XMLID_535_" class="st0" d="M519.9,683.5c0.6-1.4,1.1-2.6,1.7-4.1c10.5,2.2,20.5,4.9,29.8,9.8c0.3,2.7-0.9,4.2-2.8,5.5
	c-0.8-0.2-1.7-0.1-2.3-0.5c-7.8-4.2-16.6-5.9-24.7-9.4C521,684.6,520.5,684,519.9,683.5z"/>
<path id="XMLID_534_" class="st0" d="M655,856c-0.7-5.5-1.4-10.5-2.1-15.6c-0.8-4.8-2.5-9.5-2.6-14.4c3.6-1.5,4.7-1.3,5.4,1.3
	c2.1,8.2,4.1,16.4,4.6,24.8C660.6,855.9,660,856.4,655,856z"/>
<path id="XMLID_533_" class="st0" d="M718.6,678.8c2.9-4.7,15-15.5,21.9-19.3c2.1,1.2,2.1,1.2,3.1,3.2c-0.2,0.4-0.3,0.8-0.6,1
	c-6.4,5.1-12.8,10.2-19.3,15.3c-0.6,0.5-1.4,0.9-2.1,1.2C720.2,680.8,719.2,680,718.6,678.8z"/>
<path id="XMLID_532_" class="st0" d="M733.4,764.6c0.9,0,1.3-0.1,1.7,0c7.4,1.2,14.3,3.7,21,7.1c1.5,0.8,1.8,2,1.2,3.7
	c-0.5,1.4-1.5,2-2.8,1.7c-1-0.3-1.9-0.7-2.9-1c-4.8-1.8-9.7-3.5-14.5-5.3c-1.5-0.6-3.1-1.1-4.4-2.1c-0.6-0.4-0.7-1.8-0.5-2.7
	C732.2,765.4,733.1,764.9,733.4,764.6z"/>
<path id="XMLID_531_" class="st0" d="M634.6,618.8c-0.1-1.8-0.3-3.7-0.3-5.5c0-0.8,0.3-1.6,0.7-2.3c0.5-1.1,2.5-1.1,3.1,0
	c0.4,0.7,0.7,1.5,0.9,2.3c1.2,7,2.4,14.1,3.5,21.2c0.1,0.8-0.3,2.3-0.9,2.6c-1,0.5-2.4,0.5-3.4,0.1c-0.7-0.3-1.3-1.6-1.5-2.5
	c-0.7-3.6-1.2-7.3-1.7-10.9C634.6,622,634.7,620.4,634.6,618.8C634.6,618.8,634.6,618.8,634.6,618.8z"/>
<path id="XMLID_530_" d="M514.8,455.3c-0.5,0.4-1.1,1.4-1.9,1.6c-3.2,0.8-6.7-1.4-7.5-4.6c-0.3-1.3,0.7-3,2.1-3.3
	c2.4-0.4,7,2.8,7.5,5.2C514.9,454.5,514.8,454.7,514.8,455.3z"/>
<path id="XMLID_529_" d="M451.2,504.1c5.1,2.4,10.2,4.7,14.6,8.4c0.4,0.4,0.9,0.9,1,1.5c0.1,0.5,0.1,1.3-0.2,1.6
	c-0.3,0.4-1.2,0.7-1.6,0.5c-2.2-1.1-4.3-2.3-6.2-3.4c-6.4,2-6.4,2-8.6,0.1c0.8-1.1,1.6-2.2,2.5-3.5c-0.8-1.4-1.7-2.9-2.5-4.4
	C450.5,504.7,450.8,504.4,451.2,504.1z"/>
<path id="XMLID_528_" d="M873.8,127.1c-0.4,0-0.8,0-1.2-0.1c-3.2-0.3-5.6,0.9-7,3.9c-0.6,1.3-1.3,2.6-2.1,3.7c-0.8,1.2-3,1-3.6-0.4
	c-0.5-1.1-1-2.3-0.9-3.5c0.6-8.4,10.6-13.8,18-9.8c0.2,0.1,0.4,0.2,0.5,0.3c1.4,1,2.5,2.1,2.3,4c-0.2,1.3-1.6,1.9-4.1,1.8
	C875,127.2,874.4,127.1,873.8,127.1z"/>
<path id="XMLID_527_" d="M882.8,111c0.3-2,1-3.1,2.5-3.6c1.3-0.5,2.6-0.1,3.3,0.9c1.7,2.5,3.4,5.1,4.7,7.8c0.7,1.4,0,2.8-1.2,3.8
	c-1.1,0.9-2.7,0.9-4,0C885,117.5,883.3,114.4,882.8,111z"/>
<path id="XMLID_526_" d="M846.2,125.8c0.7,0.4,2,0.7,2.7,1.5c2,2.1,3.2,4.7,3.7,7.6c0.3,1.5-0.2,2.8-1.6,3.7
	c-1.5,0.9-2.8,0.4-3.9-0.6c-2.4-2-3.9-4.7-4.5-7.7C842.2,128.1,843.8,125.9,846.2,125.8z"/>
<path id="XMLID_525_" d="M840.8,123.3c-0.4,0-2.3,0-4-0.4c-0.8-0.2-1.8-1.3-1.8-2c0-0.7,0.9-1.9,1.6-2.1c3.5-1.1,7.2-1,10.8-0.4
	c0.6,0.1,1.2,0.4,1.6,0.8c0.4,0.4,0.9,1,0.9,1.4c-0.1,0.7-0.6,1.7-1.1,1.9c-1.3,0.5-2.7,0.6-4.1,0.8
	C843.8,123.4,843,123.3,840.8,123.3z"/>
<path id="XMLID_524_" d="M884.4,97c-0.6,4.3-2.2,8-5.8,10.4c-0.4,0.3-1.4,0.3-1.7,0.1c-0.5-0.5-1.1-1.5-0.9-2.1
	c0.9-3.7,2.9-6.7,5.5-9.4c0.3-0.3,1.2-0.4,1.7-0.3C883.6,95.9,884,96.5,884.4,97z"/>
<g id="XMLID_521_">
	<path id="XMLID_523_" class="st0" d="M469.7,426.7l0.5,0.7l0.4,0.8l0.3,0.8l0.3,0.9c0.1,0.6,0.2,1.2,0.3,1.8c0,0.6,0,1.2-0.1,1.8
		c-0.1,0.6-0.2,1.2-0.4,1.8l-0.3,0.9l-0.4,0.8l-0.5,0.8l-0.5,0.8l-0.6,0.7l-0.7,0.7l-0.7,0.5l-0.8,0.5l-0.9,0.4l-0.9,0.3
		c-0.6,0.2-1.2,0.3-1.9,0.3c-0.6,0.1-1.3,0.1-1.9,0c-0.6-0.1-1.3-0.2-1.9-0.3c-0.6-0.2-1.2-0.4-1.8-0.6l-0.9-0.4l-0.8-0.5l-0.8-0.6
		l-0.7-0.7l1.6-0.3c-0.4,1.3-0.5,2.6-0.3,4.1c0.2,1.4,0.5,2.9,0.7,4.4c0.2,1.6,0.3,3.2,0,4.9c-0.1,0.8-0.4,1.7-0.8,2.5
		c-0.4,0.8-1,1.6-1.7,2.1c-0.7,0.6-1.6,1-2.5,1.2c-0.8,0.2-1.7,0.3-2.5,0.4c-1.6,0.1-3.1,0.1-4.6,0.1c-3.1,0-6.2-0.2-9.2-0.6
		l1.3-0.7c-0.9,1.9-0.8,4.2-0.4,6.7c0.2,1.2,0.3,2.5,0.4,3.9c0,0.7,0,1.4-0.1,2.1c0,0.2,0,0.3-0.1,0.6l-0.1,0.5
		c-0.1,0.3-0.2,0.7-0.3,1.1c-0.8,2.7-2.5,4.9-4.1,6.9c-0.8,1-1.7,1.9-2.6,2.8c-0.9,0.9-1.8,1.8-2.7,2.7c-3.6,3.6-7.5,6.9-11.5,10
		c-2,1.6-4.1,3-6.2,4.5c-2.1,1.4-4.2,2.8-6.4,4.1c4-3,8-6.2,11.8-9.5c3.8-3.3,7.4-6.8,10.9-10.5c1.7-1.8,3.4-3.7,5-5.6
		c1.6-1.9,2.9-3.9,3.5-6.1c0.1-0.3,0.1-0.5,0.2-0.8l0.1-0.5c0-0.1,0-0.3,0-0.4c0.1-0.6,0.1-1.1,0-1.7c-0.1-1.2-0.2-2.4-0.4-3.7
		c-0.2-1.3-0.3-2.6-0.3-4c0-1.4,0.3-2.9,0.9-4.2l0.4-0.8l0.9,0.1c2.9,0.4,5.9,0.6,8.9,0.7c1.5,0,3,0,4.4-0.1c1.4-0.1,2.7-0.3,3.6-1
		c0.9-0.7,1.5-1.8,1.8-3.2c0.3-1.3,0.2-2.7,0.1-4.2c-0.2-1.5-0.5-3-0.6-4.6c-0.1-1.6,0-3.3,0.6-4.9l0.5-1.4l1,1.1l0.5,0.6l0.6,0.5
		l0.7,0.5l0.7,0.4c0.5,0.2,1,0.4,1.5,0.6c0.5,0.2,1,0.3,1.6,0.3c0.5,0.1,1.1,0.1,1.6,0.1c0.5,0,1.1-0.1,1.6-0.2l0.8-0.2l0.8-0.3
		l0.7-0.3l0.7-0.5l0.6-0.5l0.6-0.6l0.5-0.6l0.5-0.7l0.4-0.7l0.3-0.8c0.2-0.5,0.4-1.1,0.5-1.6c0.1-0.6,0.2-1.1,0.2-1.7
		c0-0.6,0-1.1-0.1-1.7l-0.2-0.9l-0.3-0.8l-0.3-0.8L469.7,426.7z"/>
</g>
<path id="XMLID_520_" class="st3" d="M254.2,626.2c-1.2-17.4,9.3-34,23.3-44.3c14-10.3,31.2-15.4,48.1-19.6
	c9.5-2.3,19.7-4.8,26.5-11.9c5.8-6.1,8.2-14.7,8.7-23.1c0.4-8.4-0.9-16.8-1.5-25.1c-0.9-12-0.2-24.6,5-35.5
	c4.9-10.3,13.3-18.5,22.3-25.6c10.3-8.1,21.5-15.3,34-19.2c12.5-4,26.3-4.6,38.6,0.1"/>
<path id="XMLID_519_" class="st3" d="M1037.9,919.9c-1.5,13-12,26.1-31.3,39.1l45.5-20.4c-1.5,13-15.5,19.4-34.8,32.5"/>
<path id="XMLID_518_" class="st3" d="M1059.2,944.8c-1.5,13-12,26.1-31.3,39.1"/>
<path id="XMLID_517_" class="st3" d="M723.3,1312.9c8.4,19.2,21.1,34.2,42.7,40.6c-11-20-18.6-33.3-16.9-58
	c16.7,18.9,32.8,30.8,48,33.3"/>
<path id="XMLID_516_" d="M501.7,540.1c0,0,19.9,7.7,45.7,4.5s61.6-41.9,61.6-41.9l2.9,21l-7.2,14.5l-15.7,12.7h-27.6H533
	L501.7,540.1z"/>
<path id="XMLID_515_" d="M473.5,820.4c5.8,22.9,26,45.8,50.6,68.6l16.4-10.9l-27.9-44.5l-12.9-25.8l-26.1,9.7"/>
<path id="XMLID_514_" d="M298.9,699.7l-4.2,12.3c27.8,29.8,76.3,67.5,113.2,48.9l-5.6-18.6l-50.3-1.4l-35.6-20.6L298.9,699.7z"/>
<path id="XMLID_513_" d="M767.5,475.9c39.1,28.6,74.4,36.3,107.7,32c0,0-42,6.4-44.1,6.4s-46.8-19.2-46.8-19.2L767.5,475.9z"/>
<polygon id="XMLID_512_" points="704.8,925.8 774.5,964.4 722.5,967.6 "/>
<polygon id="XMLID_511_" points="614.7,315.2 746.7,364.5 668,318.9 634.1,305.2 "/>
<polygon id="XMLID_510_" points="586.5,295.9 647.8,232 626.8,264 626.8,279.1 610.9,281.9 "/>
<polygon id="XMLID_509_" points="563.6,279.1 610.9,236.5 610.9,247.7 582.1,286.5 "/>
<polygon id="XMLID_508_" points="446.7,680.4 432.6,764.6 411.6,727.5 419.9,699.7 "/>
<g id="XMLID_505_">
	<path id="XMLID_507_" class="st0" d="M813.5,175.2c0,0,0.3,0.3,0.9,0.9c0.6,0.6,1.5,1.4,2.5,2.6c0.5,0.6,1.1,1.2,1.7,1.9
		c0.7,0.6,1.3,1.3,2.1,2.1c0.7,0.7,1.5,1.5,2.3,2.4c0.8,0.8,1.7,1.6,2.6,2.5c0.9,0.9,1.8,1.8,2.8,2.7c1,0.9,2.1,1.8,3.1,2.7
		c0.5,0.5,1,1,1.6,1.4c0.6,0.4,1.1,0.9,1.7,1.4c1.2,0.9,2.3,1.9,3.5,2.8c1.3,0.9,2.5,1.7,3.8,2.7c1.3,0.8,2.7,1.6,4,2.4
		c1.3,0.9,2.8,1.5,4.2,2.2l2.1,1.1c0.7,0.3,1.5,0.6,2.2,0.9l2.2,0.9l1.1,0.5c0.4,0.1,0.8,0.2,1.1,0.4c1.5,0.4,3,1,4.5,1.5
		c3.1,0.6,6,1.6,9,1.9c0.7,0.1,1.5,0.2,2.2,0.4c0.7,0.1,1.5,0.2,2.2,0.3c1.5,0.1,2.9,0.2,4.3,0.4c1.4,0.2,2.8,0.1,4.1,0.2
		c1.4,0.1,2.7,0.1,3.9,0.1c2.5,0,4.8-0.1,6.9-0.1c0.5,0,1,0,1.5,0c0.5,0,1-0.1,1.4-0.1c0.9,0,1.7-0.1,2.5-0.1
		c1.5-0.1,2.7-0.1,3.6-0.1c0.8,0,1.3,0,1.3,0s-0.4,0.2-1.1,0.6c-0.7,0.3-1.8,0.9-3.2,1.5c-1.4,0.6-3.1,1.5-5.2,2.1
		c-2.1,0.7-4.4,1.5-7,2.1c-1.3,0.3-2.7,0.5-4.1,0.8c-1.4,0.3-2.9,0.6-4.5,0.7c-1.5,0.1-3.1,0.2-4.8,0.4c-0.4,0-0.8,0.1-1.2,0.1
		l-1.3,0c-0.8,0-1.7-0.1-2.5-0.1c-1.7-0.1-3.5-0.1-5.2-0.4c-1.8-0.3-3.5-0.5-5.3-0.9c-1.8-0.5-3.5-0.9-5.3-1.5
		c-0.4-0.1-0.9-0.2-1.3-0.4l-1.3-0.5l-2.6-1c-0.9-0.4-1.7-0.7-2.6-1.1l-2.4-1.3c-1.6-0.9-3.3-1.7-4.7-2.8c-1.5-1-3-2-4.4-3.1
		c-1.3-1.1-2.7-2.3-3.9-3.4c-0.7-0.6-1.2-1.2-1.8-1.8c-0.6-0.6-1.1-1.2-1.7-1.8c-1.1-1.2-2.2-2.4-3.1-3.6c-0.9-1.2-1.9-2.4-2.7-3.6
		c-0.8-1.2-1.6-2.4-2.3-3.5c-0.7-1.1-1.4-2.2-2-3.3c-0.6-1.1-1.1-2.1-1.6-3.1c-0.5-1-0.9-1.9-1.3-2.7c-0.3-0.9-0.7-1.6-0.9-2.4
		c-0.6-1.4-1-2.6-1.3-3.3C813.6,175.6,813.5,175.2,813.5,175.2z"/>
</g>
<circle id="XMLID_504_" class="st0" cx="855.8" cy="186.1" r="3.1"/>
<circle id="XMLID_503_" class="st0" cx="909.7" cy="186.1" r="3.1"/>
<circle id="XMLID_502_" class="st0" cx="926.8" cy="139" r="3.1"/>
<circle id="XMLID_501_" class="st0" cx="888.2" cy="139" r="3.1"/>
<circle id="XMLID_500_" class="st0" cx="818.2" cy="125.1" r="3.1"/>
<circle id="XMLID_499_" class="st0" cx="861.3" cy="83.4" r="3.1"/>
<circle id="XMLID_498_" class="st0" cx="946.5" cy="113.8" r="3.1"/>
<circle id="XMLID_497_" class="st0" cx="920.6" cy="86.5" r="3.1"/>
<circle id="XMLID_496_" class="st0" cx="952.7" cy="152.5" r="3.1"/>
<circle id="XMLID_495_" class="st0" cx="943.4" cy="184" r="3.1"/>
<path id="XMLID_494_" class="st0" d="M1042.3,1452.1l1.4,9.9c0.1,0.4,0.6,0.8,1.2,0.8c14,16.2,232.3,25.6,263,10.2
	c6.4,0-2.3-10.1-5-14.1l0,0c-0.2-0.3,1,3.8-30.3,6.6c-85.5,0.8-166-1.4-229.1-14.2C1042.8,1451.2,1042.3,1451.6,1042.3,1452.1z"/>
<g id="XMLID_492_">
	<path id="XMLID_493_" class="st0" d="M495.1,1473.4c-49.5,0-86.9-12.2-114.3-37.1c-29.9-27.2-41.6-58.7-50.5-90.3l10-11.8
		c22.3,78.8,59.3,130.4,167.4,126l11.4,13.1C514.6,1473.6,499.4,1473.4,495.1,1473.4z"/>
</g>
<g id="XMLID_489_">
	<path id="XMLID_491_" class="st0" d="M472.4,1407.6c0,0-2.5-2.3-6.1-5.9c-1.8-1.8-3.8-3.9-6-6.3c-1.1-1.2-2.2-2.4-3.3-3.6
		c-1.1-1.2-2.2-2.5-3.3-3.8c-1.1-1.3-2.2-2.6-3.3-3.8c-1.1-1.3-2.1-2.5-3.1-3.7c-2-2.4-3.8-4.8-5.4-6.8c-3.1-4-5-6.8-5-6.8
		s2.5,2.3,6.1,5.9c1.8,1.8,3.8,3.9,6,6.3c1.1,1.2,2.2,2.3,3.3,3.6c1.1,1.2,2.2,2.5,3.3,3.8c1.1,1.3,2.2,2.6,3.3,3.8
		c1.1,1.3,2.1,2.5,3.1,3.7c2,2.4,3.8,4.8,5.4,6.8C470.5,1404.8,472.4,1407.6,472.4,1407.6z"/>
</g>
<g id="XMLID_615_">
	<path id="XMLID_488_" class="st0" d="M471,1406c0,0-1.7-3.1-3.8-7.9c-1.1-2.4-2.3-5.2-3.6-8.3c-0.6-1.5-1.3-3.1-1.9-4.7
		c-0.6-1.6-1.3-3.2-1.9-4.9c-0.6-1.6-1.2-3.3-1.8-4.9c-0.6-1.6-1.2-3.2-1.7-4.8c-1.1-3.1-2.1-6-2.9-8.6c-1.6-5-2.5-8.5-2.5-8.5
		s1.7,3.1,3.8,7.9c1.1,2.4,2.3,5.2,3.6,8.3c0.6,1.5,1.3,3.1,1.9,4.7c0.6,1.6,1.3,3.2,1.9,4.9c0.6,1.6,1.2,3.3,1.8,4.9
		c0.6,1.6,1.2,3.2,1.7,4.8c1.1,3.1,2.1,6,2.9,8.6C470.2,1402.6,471,1406,471,1406z"/>
</g>
<g id="XMLID_618_">
	<path id="XMLID_617_" d="M299.9,817.6c0,0,0.3,0.8,0.7,2.1c0.2,0.7,0.4,1.5,0.6,2.4c0.3,0.9,0.6,2,0.9,3.1c0.3,1.1,0.7,2.3,1,3.6
		c0.4,1.3,0.8,2.6,1.2,3.9c0.5,1.3,0.9,2.7,1.5,4c0.3,0.7,0.5,1.4,0.8,2l1,2c0.3,0.7,0.7,1.3,1.1,1.9c0.3,0.6,0.7,1.2,1.1,1.8
		c0.8,1.2,1.7,2.2,2.5,3.2c0.5,0.5,0.9,0.9,1.4,1.4c0.5,0.4,1,0.8,1.4,1.2c0.4,0.4,1,0.7,1.5,1.1c0.5,0.3,0.9,0.7,1.4,1
		c1,0.5,1.8,1.1,2.7,1.5c0.8,0.4,1.6,0.8,2.2,1c1.3,0.5,2,0.8,2,0.8s-0.8,0.1-2.2,0.2c-0.7,0.1-1.6,0-2.6-0.1c-1,0-2.1-0.3-3.3-0.6
		c-0.6-0.1-1.2-0.4-1.9-0.6c-0.6-0.3-1.3-0.5-1.9-0.9c-0.6-0.4-1.3-0.7-2-1.1c-0.6-0.4-1.2-0.9-1.9-1.4c-0.7-0.5-1.2-1.1-1.8-1.7
		c-0.6-0.6-1.1-1.2-1.6-1.9c-0.5-0.7-1.1-1.3-1.5-2.1c-0.4-0.7-0.9-1.4-1.3-2.2l-1.1-2.3c-0.3-0.8-0.6-1.6-0.8-2.3l-0.4-1.2
		c-0.1-0.4-0.2-0.8-0.3-1.2c-0.2-0.8-0.4-1.5-0.5-2.3c-0.2-1.5-0.5-3-0.6-4.4c-0.1-1.4-0.2-2.7-0.2-3.9c0-1.2,0.1-2.3,0.1-3.3
		c0.1-1,0.2-1.8,0.3-2.5C299.8,818.4,299.9,817.6,299.9,817.6z"/>
</g>
<g id="XMLID_621_">
	<path id="XMLID_620_" d="M746.7,316c0,0,0.8,0.4,2.1,1.1c0.6,0.4,1.4,0.9,2.3,1.3c0.9,0.5,1.8,1.1,2.9,1.7c1.1,0.6,2.2,1.3,3.4,1.9
		c0.6,0.3,1.2,0.6,1.9,1c0.7,0.3,1.3,0.6,2,0.9c1.3,0.6,2.7,1.2,4.1,1.7c0.7,0.3,1.4,0.5,2.1,0.8l2.2,0.6c0.7,0.3,1.5,0.3,2.2,0.5
		c0.4,0.1,0.7,0.2,1.1,0.3l1.1,0.2l1.1,0.2c0.4,0.1,0.7,0.1,1.1,0.1c0.7,0.1,1.4,0.1,2.2,0.2c1.4,0,2.8,0.1,4.2,0c0.7,0,1.3,0,2-0.1
		c0.6-0.1,1.3-0.1,1.8-0.2c1.2-0.1,2.3-0.3,3.3-0.4c1-0.1,1.9-0.2,2.6-0.4c1.5-0.2,2.3-0.3,2.3-0.3s-0.6,0.6-1.8,1.5
		c-0.3,0.2-0.6,0.5-1,0.8c-0.4,0.3-0.8,0.5-1.3,0.8c-0.9,0.5-1.9,1.2-3.2,1.6c-0.6,0.3-1.2,0.5-1.9,0.8c-0.7,0.2-1.4,0.4-2.1,0.6
		c-1.5,0.5-3.1,0.7-4.8,0.9c-1.7,0.1-3.4,0.2-5.2,0l-1.3-0.1l-1.3-0.2c-0.9-0.2-1.8-0.3-2.7-0.6c-0.9-0.3-1.7-0.5-2.6-0.8
		c-0.8-0.3-1.6-0.7-2.5-1c-0.8-0.3-1.6-0.8-2.3-1.2c-0.8-0.4-1.5-0.8-2.2-1.3c-0.7-0.5-1.4-0.9-2-1.4c-0.6-0.5-1.2-1-1.8-1.5
		c-1.2-1-2.1-2-3-2.9c-0.9-0.9-1.6-1.9-2.3-2.7c-0.7-0.8-1.1-1.6-1.5-2.2C747.1,316.8,746.7,316,746.7,316z"/>
</g>
<g id="XMLID_624_">
	<path id="XMLID_623_" d="M507.2,518l3.3-1.2l3.3-1.3l3.2-1.5l3.1-1.6l3-1.8l3-1.9c1.9-1.3,3.8-2.7,5.7-4.2c0.9-0.8,1.8-1.5,2.7-2.3
		c0.9-0.8,1.8-1.5,2.6-2.3c0.8-0.8,1.7-1.6,2.5-2.4c0.8-0.8,1.7-1.6,2.5-2.5c0.8-0.9,1.6-1.7,2.4-2.6l2.3-2.6c1.5-1.8,3-3.6,4.5-5.4
		l1.5,1.8c-2,1.2-4,2.4-6,3.5c-2,1.1-4.1,2.2-6.2,3.2c-2.1,1-4.2,2-6.3,2.9c-2.1,0.9-4.3,1.8-6.5,2.5c-4.4,1.5-8.8,2.8-13.3,3.9
		c-1.1,0.2-2.3,0.5-3.4,0.8c-1.1,0.2-2.3,0.5-3.4,0.7c-2.3,0.4-4.6,0.8-6.8,1.1l-6.4,0.9l5.7-3c2-1,3.9-2.1,5.8-3.2
		c1.9-1.1,3.9-2.2,5.7-3.3c0.9-0.6,1.9-1.1,2.8-1.7c0.9-0.6,1.9-1.2,2.8-1.8c1.9-1.2,3.7-2.4,5.5-3.7c1.8-1.3,3.5-2.6,5.3-4
		c0.9-0.7,1.7-1.4,2.6-2.1c0.8-0.7,1.7-1.4,2.5-2.2c0.8-0.7,1.6-1.5,2.4-2.3c0.8-0.8,1.6-1.6,2.3-2.4c0.8-0.8,1.5-1.6,2.2-2.5
		c0.7-0.8,1.4-1.7,2.1-2.6c-0.6,0.9-1.2,1.8-1.9,2.7c-0.7,0.9-1.3,1.8-2.1,2.6c-0.7,0.9-1.4,1.7-2.2,2.5c-0.7,0.8-1.5,1.6-2.3,2.4
		c-0.8,0.8-1.6,1.6-2.4,2.3c-0.8,0.8-1.6,1.5-2.5,2.3c-1.7,1.5-3.4,2.9-5.2,4.3c-1.8,1.4-3.6,2.7-5.4,4c-0.9,0.7-1.8,1.3-2.8,1.9
		c-0.9,0.6-1.9,1.2-2.8,1.8c-1.9,1.2-3.8,2.4-5.7,3.5c-1.9,1.1-3.9,2.2-5.8,3.3l-0.7-2.1c2.2-0.4,4.5-0.7,6.7-1.2
		c2.2-0.4,4.4-0.9,6.7-1.5c4.4-1.1,8.8-2.4,13-3.9c2.1-0.8,4.3-1.6,6.3-2.5c2.1-0.9,4.2-1.8,6.2-2.8c2-1,4.1-2,6.1-3.1
		c2-1.1,4-2.2,6-3.3l5.9-3.4l-4.3,5.1c-1.5,1.8-3.1,3.6-4.7,5.4c-0.8,0.9-1.6,1.7-2.4,2.6c-0.8,0.9-1.7,1.7-2.5,2.5
		c-0.8,0.9-1.7,1.6-2.6,2.5c-0.9,0.8-1.8,1.6-2.7,2.4c-0.9,0.8-1.8,1.5-2.7,2.3c-0.9,0.8-1.9,1.5-2.8,2.2c-1.9,1.4-3.9,2.7-5.9,4
		c-1,0.6-2.1,1.2-3.1,1.8l-3.2,1.6l-3.3,1.5l-3.3,1.3c-1.1,0.4-2.2,0.8-3.4,1.1L507.2,518z"/>
</g>
<g id="XMLID_627_">
	<path id="XMLID_626_" d="M407.5,144.9c0,0-0.1-0.6-0.4-1.7c-0.3-1.1-0.6-2.8-0.8-5c-0.1-2.2-0.1-4.9,0.4-8c0.2-1.5,0.6-3.1,1-4.8
		c0.5-1.7,1.1-3.4,1.9-5.2c1.5-3.5,3.7-7.2,6.5-10.6c2.8-3.4,6.3-6.7,10.4-9.3l1.6-1c0.3-0.2,0.5-0.3,0.9-0.5l0.8-0.4
		c1.1-0.5,2.1-1.1,3.3-1.6c1.2-0.5,2.4-1,3.6-1.4l1.8-0.6l1.8-0.5c4.9-1.3,10.1-2,15.3-1.9c5.2,0.1,10.3,0.8,15.2,2
		c4.9,1.2,9.6,3,13.8,5.1c4.4,2.1,8.2,4.6,11.8,7.1c3.5,2.6,6.6,5.3,9.3,7.9c2.7,2.6,5.1,5.1,7,7.5c2,2.3,3.6,4.4,4.9,6.2
		c1.3,1.8,2.3,3.2,2.9,4.1c0.6,1,1,1.5,1,1.5s-0.4-0.5-1.2-1.3c-0.8-0.9-2-2.1-3.5-3.7c-1.5-1.5-3.4-3.4-5.6-5.5
		c-2.2-2.1-4.7-4.3-7.6-6.6c-2.9-2.3-6.1-4.6-9.6-6.9c-3.5-2.2-7.4-4.4-11.4-6.2c-4.2-1.9-8.5-3.3-13.1-4.4
		c-4.6-1.1-9.3-1.6-14.1-1.7c-4.7-0.1-9.5,0.5-14,1.6l-1.7,0.4l-1.6,0.5c-1.1,0.3-2.2,0.7-3.2,1.1c-1,0.3-2.1,0.9-3.2,1.4l-0.8,0.4
		l-0.7,0.4l-1.4,0.8c-3.8,2.2-7.1,5-9.9,8c-2.8,3-5,6.2-6.8,9.3c-1.7,3.2-2.9,6.3-3.7,9.1c-0.8,2.8-1.1,5.4-1.3,7.6
		c-0.1,2.1-0.1,3.8,0,5C407.4,144.2,407.5,144.9,407.5,144.9z"/>
</g>
<g id="XMLID_630_">
	<path id="XMLID_629_" d="M408,111.4c0,0,0-0.4,0.1-1c0.1-0.7,0.1-1.6,0.4-2.9c0.1-0.6,0.2-1.3,0.5-2.1c0.2-0.7,0.5-1.5,0.7-2.4
		c0.3-0.8,0.7-1.7,1.1-2.6c0.4-0.9,0.9-1.8,1.4-2.8c1.1-1.9,2.4-3.9,4.1-5.8c1.6-1.9,3.6-3.8,5.8-5.5c2.2-1.7,4.7-3.2,7.3-4.5
		c2.7-1.3,5.4-2.3,8.4-3.1c2.6-0.6,5.8-1.1,8.7-1.3c2.9-0.1,5.8,0,8.5,0.3c2.7,0.3,5.3,0.8,7.7,1.5c1.2,0.3,2.4,0.7,3.5,1
		c1.1,0.4,2.2,0.8,3.2,1.2c1,0.4,1.9,0.8,2.8,1.2c0.9,0.4,1.7,0.9,2.5,1.3c1.5,0.8,2.8,1.6,3.9,2.3c1.1,0.6,1.8,1.3,2.4,1.6
		c0.5,0.4,0.8,0.6,0.8,0.6s-0.3-0.1-1-0.3c-0.6-0.2-1.5-0.6-2.7-1c-1.1-0.4-2.6-0.9-4.2-1.4c-1.6-0.5-3.5-1-5.5-1.5
		c-2-0.5-4.2-0.9-6.5-1.3c-2.3-0.4-4.8-0.6-7.3-0.7c-2.5-0.1-5.1,0-7.8,0.1c-2.7,0.3-5.1,0.6-7.9,1.3c-2.4,0.6-5,1.5-7.4,2.5
		c-2.4,1.1-4.6,2.3-6.7,3.7c-2.1,1.4-4,2.9-5.7,4.4c-1.7,1.6-3.2,3.2-4.5,4.8c-0.6,0.8-1.2,1.6-1.7,2.4c-0.5,0.8-1,1.5-1.4,2.2
		c-0.4,0.7-0.8,1.4-1.1,2.1c-0.4,0.6-0.6,1.3-0.9,1.8c-0.5,1.1-0.8,2-1.1,2.6C408.1,111,408,111.4,408,111.4z"/>
</g>
<g id="XMLID_633_">
	<path id="XMLID_632_" d="M531.1,309c0,0-0.4,0.2-1.1,0.6c-0.7,0.4-1.5,1.3-2.3,2.5c-0.8,1.2-1.4,2.9-2,4.9c-0.5,2-1.1,4.4-1.7,6.9
		c-0.6,2.5-1.1,5.2-1.6,8.1c-0.5,2.9-0.7,5.9-0.7,9c0,3.1,0.3,6.3,1,9.4c0.7,3.1,1.9,6.1,3.5,8.8c0.4,0.7,0.8,1.3,1.3,2l0.3,0.5
		l0.4,0.4c0.3,0.3,0.6,0.7,0.8,0.9c1,1.1,2.2,2.2,3.4,3.1c2.5,1.9,5.3,3.4,8.2,4.5c2.9,1.1,5.8,1.9,8.6,2.3c2.9,0.5,5.6,0.7,8.2,0.8
		c5.1,0.2,9.5,0,12.5-0.2c3.1-0.1,4.8-0.2,4.8-0.2s-1.7,0.5-4.7,1.2c-3,0.7-7.3,1.7-12.6,2.1c-1.3,0.1-2.7,0.2-4.2,0.2
		c-1.4,0-3,0-4.5-0.2c-3.1-0.3-6.4-0.8-9.7-1.9c-1.6-0.5-3.3-1.2-4.9-2c-1.6-0.8-3.2-1.7-4.7-2.8c-1.5-1.1-2.9-2.3-4.3-3.8
		c-0.4-0.4-0.6-0.7-0.9-1l-0.5-0.6l-0.4-0.6c-0.6-0.8-1.1-1.5-1.6-2.3c-2-3.3-3.2-6.8-4-10.4c-0.8-3.6-0.9-7.2-0.7-10.6
		c0.2-3.4,0.8-6.6,1.5-9.6c0.7-3,1.6-5.7,2.5-8.2c0.9-2.5,1.8-4.7,2.7-6.7c0.9-2,1.9-3.7,3-4.8c1.1-1.2,2.2-1.8,3-2.1
		C530.6,309,531.1,309,531.1,309z"/>
</g>
<g id="XMLID_636_">
	<path id="XMLID_635_" d="M505.5,344c0,0-0.1-0.1-0.3-0.3c-0.2-0.2-0.5-0.5-0.8-0.9c-0.3-0.4-0.7-1-1.1-1.6c-0.3-0.7-0.7-1.4-1-2.3
		c-0.6-1.8-0.9-4-0.8-6.3c0-1.2,0.2-2.4,0.4-3.6c0.3-1.2,0.6-2.3,1.1-3.6c0.4-1,1-2.2,1.5-3.3c0.6-1,1.2-2,1.8-2.9
		c1.3-1.8,2.7-3.4,3.9-4.6c1.3-1.2,2.4-2.2,3.2-2.8c0.8-0.6,1.4-0.9,1.4-0.9s-0.2,0.6-0.5,1.6c-0.4,1-0.9,2.3-1.6,3.9
		c-0.7,1.5-1.6,3.3-2.4,5.2c-0.4,0.9-0.9,1.9-1.3,2.8c-0.4,1-0.8,1.8-1.2,3c-0.3,0.9-0.7,1.9-1,2.9c-0.3,1-0.5,1.9-0.8,2.9
		c-0.4,1.9-0.7,3.7-0.7,5.3c0,0.8-0.1,1.6,0,2.2c0,0.7,0.1,1.3,0.1,1.8c0,0.5,0.1,0.9,0.1,1.2C505.5,343.9,505.5,344,505.5,344z"/>
</g>
<path id="XMLID_637_" class="st4" d="M784.3,631.3c16.1-0.5,31.3-7.6,45.2-15.8c29.3-17.5,55.4-41.7,70.6-72.2
	c15.2-30.5,18.5-67.8,4.5-98.9"/>
<path id="XMLID_638_" class="st4" d="M791.3,652.7c39.9-6,77-29,100.3-62"/>
<path id="XMLID_639_" class="st4" d="M248.2,799.6c11.8,49.9,46.4,93.9,92,117.2c45.7,23.3,101.6,25.4,148.9,5.6"/>
<path id="XMLID_640_" class="st4" d="M288.7,909.4c40.4,45.3,109,63.1,166.4,43.3"/>
<line id="XMLID_641_" class="st4" x1="715.2" y1="142.1" x2="784.3" y2="135.9"/>
<line id="XMLID_642_" class="st4" x1="909.7" y1="261.5" x2="913.5" y2="313.4"/>
<line id="XMLID_643_" class="st4" x1="860" y1="255.9" x2="848.9" y2="286.5"/>
<line id="XMLID_644_" class="st4" x1="777.4" y1="204" x2="760.3" y2="217.9"/>
<line id="XMLID_645_" class="st4" x1="794.3" y1="27.9" x2="822.7" y2="51.6"/>
<line id="XMLID_646_" class="st4" x1="969.2" y1="232" x2="991.5" y2="261.5"/>
<line id="XMLID_647_" class="st5" x1="615.2" y1="935.9" x2="655.4" y2="951.5"/>
<line id="XMLID_648_" class="st5" x1="698.4" y1="1046.5" x2="674.4" y2="1080"/>
<line id="XMLID_649_" class="st5" x1="567" y1="1003.1" x2="605.3" y2="1007"/>
<line id="XMLID_650_" class="st5" x1="660.4" y1="1214.8" x2="686.4" y2="1199.3"/>
<line id="XMLID_651_" class="st5" x1="732.2" y1="1147" x2="770.5" y2="1168.4"/>
<line id="XMLID_652_" class="st5" x1="711.8" y1="974.4" x2="674.4" y2="995"/>
<line id="XMLID_653_" class="st5" x1="655.4" y1="1160.7" x2="673.4" y2="1140.1"/>
<line id="XMLID_654_" class="st5" x1="785.1" y1="878.2" x2="802.9" y2="899.7"/>
<line id="XMLID_655_" class="st5" x1="736.2" y1="925.8" x2="760.2" y2="908"/>
<line id="XMLID_656_" class="st5" x1="881.3" y1="904.2" x2="893.3" y2="932"/>
<line id="XMLID_657_" class="st5" x1="949.1" y1="916.9" x2="976.5" y2="904.2"/>
<line id="XMLID_658_" class="st5" x1="897.1" y1="854.3" x2="912.2" y2="878.2"/>
<line id="XMLID_659_" class="st5" x1="981.7" y1="988.2" x2="1006.6" y2="1015.6"/>
<line id="XMLID_660_" class="st5" x1="739.6" y1="1063.3" x2="751.4" y2="1095.5"/>
<line id="XMLID_661_" class="st5" x1="789.4" y1="1238.2" x2="760.2" y2="1257.7"/>
<line id="XMLID_662_" class="st5" x1="711.8" y1="1229.4" x2="711.8" y2="1274.9"/>
<line id="XMLID_663_" class="st5" x1="590.3" y1="1334.2" x2="629.8" y2="1322.9"/>
<line id="XMLID_664_" class="st5" x1="686.4" y1="1372.7" x2="686.4" y2="1334.2"/>
<line id="XMLID_665_" class="st5" x1="664.4" y1="1268" x2="664.4" y2="1291.2"/>
<line id="XMLID_666_" class="st5" x1="610" y1="1381" x2="629.8" y2="1362.1"/>
<line id="XMLID_667_" class="st5" x1="635.3" y1="1019.1" x2="639.2" y2="1056"/>
<line id="XMLID_668_" class="st5" x1="520.7" y1="910.5" x2="556.8" y2="925.8"/>
<line id="XMLID_669_" class="st5" x1="932.8" y1="959" x2="916.5" y2="988.2"/>
<line id="XMLID_670_" class="st5" x1="834.9" y1="935.9" x2="834.9" y2="959"/>
<line id="XMLID_671_" class="st5" x1="1071.8" y1="1007" x2="1059.2" y2="1027.6"/>
<line id="XMLID_672_" class="st5" x1="1027.9" y1="1088.6" x2="1052.1" y2="1088.6"/>
<line id="XMLID_673_" class="st5" x1="1105.3" y1="1088.6" x2="1084.7" y2="1130.3"/>
<line id="XMLID_674_" class="st5" x1="1052.1" y1="1190.7" x2="1084.7" y2="1199.3"/>
<line id="XMLID_675_" class="st5" x1="1128.5" y1="1190.7" x2="1121.6" y2="1219.9"/>
<line id="XMLID_676_" class="st5" x1="1128.5" y1="1147" x2="1105.3" y2="1150.4"/>
<line id="XMLID_677_" class="st3" x1="529" y1="904.2" x2="642.9" y2="1118.2"/>
<path id="XMLID_678_" class="st3" d="M711.8,953.2c112.8-30,224.4,0,294.8,110.7"/>
<line id="XMLID_679_" class="st6" x1="454.4" y1="155.6" x2="586.4" y2="258.6"/>
<path id="XMLID_680_" class="st6" d="M757,483.5c33.5,35,71.2,53.6,118.5,34.5"/>
<path id="XMLID_681_" class="st6" d="M306,692.4c16.5,23.3,40.2,40.3,101.5,44.7"/>
</svg>
