<?xml version="1.0" encoding="utf-8"?>
<!-- Generator: Adobe Illustrator 22.1.0, SVG Export Plug-In . SVG Version: 6.00 Build 0)  -->
<svg version="1.1" id="Layer_6" xmlns="http://www.w3.org/2000/svg" xmlns:xlink="http://www.w3.org/1999/xlink" x="0px" y="0px"
	 viewBox="0 0 1527.1 1502.4" style="enable-background:new 0 0 1527.1 1502.4;" xml:space="preserve">
<style type="text/css">
	.st0{fill:#FFFFFF;}
	.st1{fill:#FFFFFF;stroke:#FFFFFF;stroke-miterlimit:10;}
	.st2{fill:none;stroke:#000000;stroke-width:3;stroke-miterlimit:10;}
	.st3{fill:none;stroke:#000000;stroke-miterlimit:10;}
	.st4{fill:#E84B6C;}
	.st5{fill:none;stroke:#000000;stroke-width:2;stroke-miterlimit:10;}
	.st6{fill:none;stroke:#FFFFFF;stroke-width:4;stroke-miterlimit:10;}
	.st7{fill:none;stroke:#000000;stroke-width:6;stroke-miterlimit:10;}
	.st8{fill:none;stroke:#000000;stroke-width:5;stroke-miterlimit:10;}
	.st9{fill:none;stroke:#000000;stroke-width:10;stroke-miterlimit:10;}
	.st10{stroke:#000000;stroke-width:3;stroke-miterlimit:10;}
	.st11{fill:none;}
	.st12{fill:none;stroke:#000000;stroke-width:7;stroke-miterlimit:10;}
</style>
<path id="XMLID_833_" class="st0" d="M1146.7,624.2l-34.7-87.4l-65.4-93.2l-51-35.8l13.4-33.8l-17.1-31.5l-39.3-9.2l-3.2-52
	L889.6,172l-16.2-14.1l-1.7,5.9l-14.1,100l-43.8-18.1l-0.7,14.3l-15,0.9l-2.8,26l-6.7,18.1h-15.9l24.4-116.7l6,1l12.9-15l-5.1-13.2
	l-6.6-11l-7.1,5v-14.4l-21.5-41.4l-60.3-16l-56,55.9l-18.1,32.1v38.5l14,23.1l-12.6,27.3l-34.6-3.2L563.6,272l-18.1,16l-33.3,4.1
	l-83.6,18.6l-118,53.8L269,407.7l-35.5,43.2l-30.8,72.7l-21.5,50.6v50.1l33.2,45.3l27.4,42.7l61.2,11.7l62.4-4.4l77.7-37.9
	l39.8-23.8l46.5,14.8L638,690.9l129.4,0.2l68.4-29.1l-5.8-49l12-56.2l8.1-22.6l28.7,22.6l27.9,87.8l37.9,109.2l47.1,58.9l54.6,14.8
	l41.5-27.6l41-38.1l24.8-74.7L1146.7,624.2z M443.1,496.8l-29.7,22.4L342.2,541l-16.8-8l41.6-47.7l35.6-19.3l42.8-10.5L443.1,496.8z
	"/>
<polygon id="XMLID_832_" class="st0" points="477.4,835.6 461.2,828.8 443.6,843.8 432.8,864.7 385.2,860.2 290.7,843.4 
	249.4,847.5 234.7,862.7 238.5,890.4 262.8,924.1 296.5,940.4 339.2,955 354.4,965.6 408.9,1022.6 454.4,1022.6 520.3,1010.5 
	536.2,989.5 503.2,948.5 491.1,900.3 "/>
<polygon id="XMLID_831_" points="244.6,860.2 257.2,846.7 323.7,849.2 442.4,869.1 482.6,878.5 493.8,910.9 501.7,928.2 
	474.9,933.9 403.1,931.3 323.7,909.6 269.8,881.8 "/>
<polygon id="XMLID_830_" points="442.4,874.1 439.1,852.5 448.2,839.9 469.7,827.8 477.6,850.9 483.7,881.8 "/>
<path id="XMLID_829_" class="st1" d="M274.8,878.5"/>
<polyline id="XMLID_828_" class="st1" points="132,1204.6 160.2,1182 291.7,1140.6 335.1,1139.1 579.7,1344.7 603.4,1382.9 
	604.4,1408 556.3,1438.6 432.3,1482.6 395.2,1478.4 132,1204.6 "/>
<polygon id="XMLID_827_" class="st1" points="1226.2,1260.1 1232.8,1279.3 1223.1,1303 1395.9,1349.7 1397.8,1341.2 1399.4,1326.4 
	1388.9,1310.4 "/>
<polygon id="XMLID_826_" class="st1" points="1180.9,1331.6 1180.7,1348.8 1167,1359.4 1310.5,1444 1319.8,1440.1 1304.6,1418 "/>
<g id="XMLID_823_">
	<polygon id="XMLID_825_" points="959.7,963 1383.8,971.2 959.7,976.6 	"/>
</g>
<polygon id="XMLID_822_" points="24.8,966.7 343.2,960.8 354.4,974.2 "/>
<path id="XMLID_821_" class="st2" d="M241,881.8c85.8,51.2,165.4,72.7,268.2,68.2"/>
<line id="XMLID_820_" class="st3" x1="709" y1="691.1" x2="706" y2="749.3"/>
<polygon id="XMLID_819_" points="1282.5,1144.1 1222.3,1258.2 1309.1,1276.3 1391.7,1306 1399.4,1321.3 1397.8,1341.2 1414.9,1306 
	1435.8,1235.6 1439.8,1209.1 1430.8,1193.6 "/>
<polygon id="XMLID_818_" points="653.7,139.1 646.9,98.7 662.2,60.5 680.8,48.4 715.3,40.9 777.4,42.9 790,27.5 805.7,25.8 
	829.2,32.9 832.2,47.9 832.2,59 843.3,58.7 843.3,69.6 843.3,90.2 833.1,112.8 816.6,120 768.1,107.3 720,97.2 711.5,94.2 
	686.3,120 "/>
<path id="XMLID_817_" class="st4" d="M500.2,660l69.6,23l69.6,17.8l69.5-9.7h74.3l61-31.6l6.9,63l66.2,103.6L1021.8,962l58.8,115.9
	l57.4,93.5l3.6,48.3l-20.3,38.4l-25.9,34.4l-54.8,4.3l-51.5-21.1l8,37.5l-36.7,36.7c-9.4,21-26.5,23.9-45.5,22.4
	c-12.7,6.2-27.8,8.3-47.3,3.2l-84.4-27.5l-127.4-98.2L415.2,1034l36-6.4l69.2-17.1l9.1-14.3l-20-34.4l-32.2-88.3l0.3-100.6
	L500.2,660z"/>
<polygon id="XMLID_816_" class="st4" points="167.4,1223.6 306.2,1164 341.7,1193.8 203.6,1253.8 "/>
<polygon id="XMLID_815_" class="st4" points="248,1298.4 386.8,1238.7 422.3,1268.5 284.2,1328.5 "/>
<polygon id="XMLID_814_" class="st4" points="212.7,1261.4 273.8,1232.7 303.2,1261.4 241.3,1290.8 "/>
<polygon id="XMLID_813_" class="st4" points="296.4,1339.5 357.6,1310.8 387,1339.5 325.1,1368.9 "/>
<polygon id="XMLID_812_" class="st4" points="833.3,532.7 760.1,503.7 755.9,534.8 "/>
<polygon id="XMLID_811_" class="st4" points="763.4,498 763.4,477.6 822.2,487.8 "/>
<polygon id="XMLID_810_" class="st4" points="761.7,464.2 766,437.6 849.5,459.5 775.6,459.5 "/>
<polyline id="XMLID_809_" class="st4" points="770.3,417.1 778.4,371 884.7,407.7 889.6,417.1 843.3,409.6 775.6,417.1 "/>
<polygon id="XMLID_808_" class="st4" points="778.4,360.9 790.5,295.1 952.7,292.2 935.9,385.2 878.8,369.6 822.2,359.9 "/>
<polyline id="XMLID_807_" class="st4" points="1222.3,1309.3 1176.1,1328.6 1301,1405.7 1315,1428.7 1312.8,1444.2 1495.5,1386.3 
	1506.6,1372.1 1495.1,1340.8 1422.8,1295.6 1399.4,1347.8 1383.7,1356.6 1226.2,1310 1218.6,1308.6 "/>
<g id="XMLID_804_">
	<path id="XMLID_806_" d="M227.5,659.5c0,0,1,1.2,2.7,3.4c0.9,1.1,1.8,2.5,3.1,3.9c1.2,1.4,2.6,3.1,4.1,4.8c0.8,0.8,1.6,1.7,2.5,2.6
		c0.9,0.9,1.6,1.9,2.6,2.8c1.9,1.8,3.8,3.8,6.1,5.5c2.1,1.9,4.6,3.4,6.9,5.1c1.3,0.7,2.6,1.4,3.8,2.2c0.6,0.4,1.3,0.7,2,1l2,0.9
		c1.3,0.7,2.7,1.1,4.1,1.5l2.1,0.7c0.7,0.2,1.4,0.3,2.1,0.5c0.7,0.1,1.4,0.3,2.1,0.4l1,0.2c0.4,0.1,0.7,0.1,1.1,0.1
		c1.4,0.2,2.8,0.3,4.2,0.5c2.8,0,5.5,0.2,8.1-0.1c1.3-0.1,2.6-0.2,3.8-0.3c1.2-0.2,2.4-0.4,3.5-0.5c2.3-0.3,4.3-0.9,6.2-1.2
		c1.9-0.4,3.5-0.8,4.8-1.2c2.6-0.7,4.2-1.1,4.2-1.1s-1.3,0.8-3.7,2.2c-0.6,0.3-1.3,0.7-2,1.1c-0.7,0.4-1.6,0.7-2.5,1.1
		c-1.8,0.8-3.8,1.8-6.1,2.4c-1.2,0.4-2.4,0.8-3.6,1.1c-1.3,0.4-2.6,0.5-4,0.8c-2.7,0.7-5.7,0.8-8.8,1c-1.5-0.1-3.1-0.1-4.7-0.2
		c-0.4,0-0.8,0-1.2-0.1l-1.2-0.2c-0.8-0.1-1.6-0.3-2.4-0.4c-0.8-0.2-1.6-0.2-2.4-0.5l-2.4-0.7c-1.6-0.5-3.2-0.9-4.7-1.7l-2.3-1
		c-0.8-0.3-1.5-0.7-2.2-1.1c-1.4-0.9-2.8-1.7-4.2-2.6c-2.6-2-5.2-3.8-7.3-6c-0.5-0.5-1.1-1.1-1.6-1.6l-0.8-0.8l-0.7-0.8
		c-0.9-1.1-1.8-2.2-2.7-3.3c-1.8-2.1-3.1-4.4-4.5-6.3c-1.3-2-2.3-4-3.2-5.7c-1-1.7-1.6-3.2-2.1-4.5
		C228.1,660.9,227.5,659.5,227.5,659.5z"/>
</g>
<polygon id="XMLID_803_" points="296.2,538.7 345.3,503.7 329.4,538.7 308.6,546 "/>
<path id="XMLID_802_" d="M1046.1,652.1l-0.3,3.1c-15.2,8.6-13.2,29.3-5.4,54.1l-27.2-68.4l9-6.6"/>
<line id="XMLID_801_" class="st5" x1="288.1" y1="852.5" x2="296.5" y2="892.7"/>
<path id="XMLID_800_" d="M456.5,971.6l4.7,23.6c-26.4-22.1-68.5-32.2-112.7-40.6C372,951.7,424.9,951.1,456.5,971.6z"/>
<path id="XMLID_799_" d="M415.2,1030.2l-14.3-17.4c45.5,4.8,90.7-0.5,135.4-23.4l-15.9,21.1l-51.8,17.1L415.2,1030.2z"/>
<path id="XMLID_798_" d="M500.2,660c107.8,34.9,222,37,344.1-0.5l-51.5,31.1l-101.2,10.2l-123.8-9.7L500.2,660z"/>
<path id="XMLID_797_" d="M878.9,546.2c41.6,10.6,78.8-3.9,112.8-36.9l-15.6,25.5l-45.3,19.3l-40,2.7L878.9,546.2z"/>
<g id="XMLID_794_">
	<path id="XMLID_796_" class="st0" d="M1369.3,1279.3c-9.1-2.8-18.1-5.7-27.2-8.6l-27.1-8.7l-54.2-17.7l-9.1-3l9.6-0.4
		c11.5-0.5,23-0.9,34.5-1.3l34.5-1.2l34.5-1.1l34.5-1l-0.8,4.3l-27.7-12.1l-27.6-12.2c-9.2-4.1-18.4-8.2-27.6-12.3l-27.6-12.4
		l-6.9-3.1l7.5,0.4l20.4,1.2l20.4,1.3l20.4,1.3l20.4,1.4l-20.4-0.5l-20.4-0.6l-20.4-0.6l-20.4-0.7l0.6-2.7l27.8,11.8
		c9.3,3.9,18.6,7.8,27.8,11.8l27.8,11.9l27.7,12l9.1,3.9l-9.9,0.3l-34.5,1.1l-34.5,1l-34.5,0.9c-11.5,0.3-23,0.6-34.5,0.8l0.5-3.4
		l53.8,18.9l26.8,9.6C1351.4,1272.8,1360.4,1276,1369.3,1279.3z"/>
</g>
<path id="XMLID_793_" class="st6" d="M477.6,739.1c144.5,7.1,289.5,14.6,372.5-26.9"/>
<path id="XMLID_792_" class="st6" d="M470.1,824.9c74.6-16.8,153.3-27.3,243.6-20.3c59.7-15.8,118.2-27.6,171-21.1"/>
<path id="XMLID_791_" class="st6" d="M505.2,940.4c82.5-32.7,166.9-52.4,253.6-55.3c65.9-20.4,128.5-29.8,185.9-22.4"/>
<path id="XMLID_790_" class="st6" d="M563.3,1043.8c70.8-43.4,159.1-65.9,261.4-71.8c65-21.3,125.9-33.7,177.6-25.5"/>
<path id="XMLID_789_" class="st6" d="M669.2,1144.1c73.1-36.3,147-60.7,221.6-73.7c58.4-22,116.6-29.4,174.8-22.1"/>
<path id="XMLID_788_" class="st6" d="M791.6,1211.6c46.6-24.1,103.1-35.4,163.4-41.8l162-32.8"/>
<path id="XMLID_787_" class="st6" d="M1008.3,1264.2c31.2-38.3,82-51.3,141.8-52.6"/>
<path id="XMLID_786_" class="st6" d="M986.7,1242.7c-90.3,17.5-162.3,46.5-197.5,98.6"/>
<path id="XMLID_785_" class="st6" d="M727.9,1190.2c-30.8,11.8-50.2,38.5-62.9,74"/>
<path id="XMLID_784_" class="st6" d="M622.8,1112.8c-28.8,12.9-48,33.9-59.4,61.6"/>
<path id="XMLID_783_" class="st6" d="M556.4,1027.6c-37.2,17.9-65.2,38.2-78.8,62.3"/>
<path id="XMLID_782_" d="M975.4,1204.6l20.4,68.7l42.1,22.3l42.6-2C1032.5,1283.5,997.8,1253.3,975.4,1204.6z"/>
<path id="XMLID_781_" d="M757.4,799.9l-12.6,37.5l139.8,210.9C830.1,959,776.8,870.4,757.4,799.9z"/>
<polygon id="XMLID_780_" points="842,356.8 936.9,379.2 935.3,391.1 "/>
<polygon id="XMLID_779_" points="857.9,260.2 867.9,238.9 952.7,287.9 "/>
<polygon id="XMLID_778_" points="796.3,278.8 798.9,290.9 940.4,290.9 "/>
<polygon id="XMLID_777_" points="421.2,454.4 465,438.9 438,493.1 438,456 "/>
<g id="XMLID_774_">
	<path id="XMLID_776_" d="M608.9,659.5c0,0,2.8-1,7.8-2.6c2.5-0.8,5.5-1.8,8.9-3c3.4-1.2,7.3-2.4,11.5-4c4.2-1.5,8.8-3.1,13.5-5
		c2.4-0.9,4.8-1.9,7.3-2.9c2.5-1,5-2.1,7.5-3.2c1.3-0.5,2.6-1.1,3.9-1.6c1.3-0.6,2.6-1.2,3.9-1.8c1.3-0.6,2.6-1.2,3.9-1.8
		c1.3-0.6,2.6-1.2,3.9-1.9c2.6-1.3,5.2-2.7,7.8-4c2.6-1.3,5.1-2.9,7.7-4.4l3.8-2.2l3.7-2.4c1.2-0.8,2.5-1.6,3.7-2.4
		c1.2-0.8,2.5-1.6,3.6-2.5c2.3-1.7,4.7-3.4,7-5.1c2.3-1.7,4.4-3.6,6.5-5.3c1-0.9,2.1-1.7,3.1-2.7c1-0.9,1.9-1.9,2.9-2.8
		c1-0.9,1.9-1.8,2.9-2.7c0.9-0.9,1.9-1.8,2.7-2.7c3.3-3.8,6.7-7.2,9.3-10.8c1.4-1.8,2.7-3.4,3.9-5c1.1-1.7,2.2-3.3,3.2-4.8
		c1-1.5,1.9-2.9,2.8-4.2c0.9-1.3,1.5-2.6,2.1-3.7c2.5-4.6,4-7.2,4-7.2s-1.2,2.8-3.2,7.6c-0.5,1.2-1,2.6-1.8,4
		c-0.8,1.4-1.6,2.9-2.4,4.5c-0.9,1.6-1.8,3.3-2.8,5.1c-1.2,1.7-2.4,3.5-3.6,5.4c-2.4,3.9-5.6,7.5-8.9,11.6c-0.8,1-1.7,2-2.7,2.9
		c-0.9,1-1.9,1.9-2.8,2.9c-1,1-1.9,2-2.9,3c-1,1-2.1,1.9-3.1,2.8c-2.1,1.8-4.3,3.8-6.5,5.7c-2.3,1.8-4.7,3.6-7,5.3
		c-1.2,0.9-2.4,1.7-3.7,2.5c-1.2,0.8-2.5,1.6-3.8,2.5l-3.8,2.5l-3.9,2.3c-2.6,1.5-5.2,3-7.9,4.4c-2.7,1.3-5.4,2.7-8,4
		c-2.6,1.3-5.4,2.4-8,3.6c-1.3,0.6-2.7,1.2-4,1.7c-1.3,0.6-2.7,1-4,1.6c-2.6,1-5.2,2-7.7,3c-2.6,0.9-5.1,1.7-7.5,2.6
		c-4.9,1.7-9.5,3-13.8,4.3c-4.3,1.3-8.3,2.3-11.8,3.2c-3.5,0.9-6.6,1.6-9.2,2.2C611.8,658.8,608.9,659.5,608.9,659.5z"/>
</g>
<g id="XMLID_771_">
	<path id="XMLID_773_" d="M626,624.2c0,0,1.6-0.8,4.5-2.1c2.9-1.3,6.9-3.1,11.9-5.2c4.9-2.1,10.6-4.6,16.7-7.2
		c3.1-1.3,6.2-2.8,9.4-4.2c1.6-0.7,3.2-1.5,4.8-2.2c1.6-0.8,3.2-1.5,4.7-2.3c1.6-0.8,3.2-1.6,4.7-2.4c1.5-0.8,3.1-1.7,4.6-2.5
		c1.5-0.8,3-1.7,4.4-2.6c1.4-0.9,2.9-1.7,4.3-2.6c1.4-0.9,2.7-1.8,4-2.7c1.3-0.9,2.5-1.9,3.7-2.7c0.6-0.5,1.2-0.9,1.8-1.3
		c0.6-0.5,1.1-0.9,1.6-1.4c1.1-0.9,2.2-1.8,3.1-2.6c0.9-0.9,1.8-1.8,2.7-2.6c0.9-0.8,1.7-1.6,2.4-2.5c0.7-0.8,1.4-1.6,2-2.3
		c0.6-0.7,1.2-1.3,1.6-2c1.8-2.5,2.9-4,2.9-4s-0.7,1.6-2.1,4.5c-0.3,0.7-0.8,1.5-1.3,2.3c-0.5,0.8-1.1,1.7-1.7,2.6
		c-0.6,1-1.3,1.9-2.1,2.8c-0.8,1-1.6,2-2.5,3c-0.9,1-1.9,2-2.9,3.1c-0.5,0.5-1,1.1-1.6,1.6c-0.6,0.5-1.1,1-1.7,1.5
		c-1.2,1-2.4,2.1-3.7,3.1c-1.3,1-2.7,2-4,3c-1.3,1-2.8,1.9-4.3,2.9c-1.5,1-2.9,1.9-4.5,2.8c-1.5,0.9-3.1,1.8-4.7,2.7
		c-1.6,0.8-3.2,1.7-4.8,2.5c-1.6,0.8-3.2,1.6-4.9,2.3c-1.6,0.7-3.2,1.5-4.9,2.2c-3.2,1.4-6.5,2.7-9.6,3.9c-3.1,1.2-6.2,2.3-9.1,3.3
		c-2.9,1-5.7,1.9-8.2,2.7c-2.6,0.8-4.9,1.5-7,2.1c-2.1,0.6-3.9,1.1-5.4,1.5C627.7,623.8,626,624.2,626,624.2z"/>
</g>
<line id="XMLID_770_" class="st7" x1="337.9" y1="1387.4" x2="498.2" y2="1310.4"/>
<line id="XMLID_769_" class="st7" x1="360.2" y1="1411.9" x2="520.5" y2="1334.8"/>
<line id="XMLID_768_" class="st7" x1="387" y1="1434.5" x2="547.3" y2="1357.4"/>
<line id="XMLID_767_" class="st7" x1="410.5" y1="1460" x2="570.8" y2="1382.9"/>
<path id="XMLID_766_" class="st8" d="M709,693.9c-8.9,18.2-2.6,38.4,4,59.9"/>
<circle id="XMLID_765_" cx="727.2" cy="711.8" r="7.7"/>
<polygon id="XMLID_764_" points="556.8,443.6 608.9,485.3 615.9,466 "/>
<polygon id="XMLID_763_" points="1156.9,1356.6 1170.4,1356.6 1310.5,1444 1286.3,1444.2 1185.3,1379.6 "/>
<polygon id="XMLID_762_" points="1219.7,1310.4 1195,1324.6 1374.6,1356.6 "/>
<polygon id="XMLID_761_" points="292.3,967.5 580.7,1190.2 415.2,1030.2 376.8,984.9 354.4,965.6 "/>
<polygon id="XMLID_760_" points="132,1204.6 131,1238.7 370.8,1468.2 410.5,1484.8 319.8,1399.5 "/>
<path id="XMLID_759_" d="M965,1174.4c36.2,59.7,72.8,116.2,115.4,119.3l-57.7-11.8l-43.5-51L965,1174.4z"/>
<path id="XMLID_758_" class="st9" d="M575.8,195.8l-28.9-38.1c0,0,40.8-25.5,28.8-54.3c-11.9-28.8-43-22.7-43-22.7
	s-31,9.2-33.4,28.9"/>
<circle id="XMLID_757_" class="st10" cx="585.2" cy="214.6" r="8.6"/>
<path id="XMLID_729_" d="M1130.4,1141.5c-18.5-33.6-37-67.3-55.7-100.7c-6.1-10.9-12.9-21.5-19.8-32c-16.8-25.7-35.4-50.1-54.3-74.2
	c-25.9-33.1-52.1-65.9-77-99.8c-8-10.9-15.7-22-22.8-33.5c-8.2-13.1-16.3-26.2-24.5-39.3c-0.6-1-1.2-2.1-1.7-3.2
	c-2.8-5.9-5.6-11.8-8.3-17.7c-5.9-13-10.9-26.3-13.7-40.4c-2.7-13.7-5.1-27.5-8.3-41.2c-2.9-12.8-4.2-25.7-5.3-38.7
	c-0.3-3.6-0.3-7.3,0-10.9c1.7-22.5,5.8-44.5,12.2-66.1c0.4-1.3,1-2.6,1.4-3.6c4.7-2.2,8.4-0.8,11.9,1.7c3.4,2.4,6,5.6,8.2,9.1
	c4,6.4,7,13.2,9.3,20.4c4.7,14.7,9.6,29.4,13.9,44.2c3.8,12.7,7.1,25.6,10.4,38.4c2.8,11,4.9,22.1,7.8,33.1
	c6,22.7,13.9,44.7,25.4,65.3c12.2,21.8,27.9,40.5,47.1,56.4c7.7,6.4,16.3,11.2,25.3,15.4c3.8,1.8,8.4,2.1,12.6,3.1
	c2.1,0.5,4.3,0.8,6.4,1.4c5.3,1.4,10.4,0.9,15.6-1c23.2-8.6,43.9-21.2,61.1-39.1c32.1-33.2,48.2-72.8,46.5-119.3
	c-0.5-12.6-2.5-24.9-5.3-37.2c-6.2-26.4-15.1-51.9-27-76.3c-10.2-20.9-21.7-40.9-34.3-60.4c-6.7-10.3-13.7-20.5-21.6-30
	c-18.2-22-38.3-42.2-60.5-60.1c-1.7-1.3-3.2-2.8-5-4.4c1-2.2,1.8-4.2,2.7-6.1c2.2-4.8,4.3-9.7,5.3-15c2.2-11.2-0.3-21.1-7.9-29.6
	c-5.2-5.8-11.4-10.4-18.7-13.3c-7.4-2.9-14.8-6-22.6-7.7c-1.8-0.4-3.5-1.2-5.4-1.8c0.4-2.5,0.7-4.7,1.1-6.8
	c1.5-7.8,2.7-15.7,4.5-23.4c1.1-4.7,0.8-9.1-0.5-13.5c-0.9-3-1.5-6.2-3-8.9c-5.1-9-10.3-18-16-26.7c-17.5-26.9-35.3-53.7-53-80.5
	c-1.9-2.8-3.9-5.5-5.9-8.2c-1.8-2.5-4.1-3.1-7.3-1.5c-0.5,1.8-1.3,3.8-1.7,5.9c-1,6.2-2,12.4-2.8,18.6c-1.4,10.8-2.5,21.6-3.9,32.3
	c-1.8,13.6-4.2,27.2-7.2,40.6c-0.2,1.1-0.7,2.1-1,3.3c-1.4-0.3-2.3-0.5-3.2-0.8c-12-3.7-23.9-7.5-35.9-11.2
	c-1.3-0.4-2.7-0.6-3.8-0.9c-3.9,4-3.9,9.1-5.1,13.8c-1.2,0-2.1,0.1-3.1,0c-1.7-0.2-3.3-0.6-5-0.7c-1.3-0.1-2.2,0.8-2.6,2.1
	c-0.1,0.5-0.2,0.9-0.3,1.4c-0.5,5.5-1,11.1-1.6,16.6c-0.3,2.6-0.6,5.2-1,8c-2.4,0.4-4.4,0.7-6.3,1c-3.8,4.1-2.3,9.6-4.8,14
	c-2.4-0.1-4.4-1.1-6.3-2.8c0.6-2.1,1.2-4,1.8-5.8c9.5-31.7,17.2-63.8,20-97c0.2-2.1,0.7-4.2,1.1-6.2c1.1-0.4,1.7-0.8,2.4-0.9
	c5.5-1.1,8.9-4.6,10.9-9.6c0.7-1.8,1.4-3.6,2-5.4c3-10.5-1.6-19.9-11.7-24.2c-1.8-0.7-3.5-1.4-5.5-2.2c-1.8-9.6-5-18.6-9.2-28
	c1.5,0,2.5-0.1,3.3,0c3.1,0.5,6.1,1.3,9.2,1.7c13.3,1.6,24.8-2.2,34.2-11.9c6.6-6.8,10.3-15.1,11.9-24.3c1.1-6.5,0.9-13-1.2-19.3
	c-1.6-4.7-4-8.8-8.6-11.1c-0.6-0.3-1.1-0.9-1.5-1.1c0-3.5,0.2-6.7,0-9.8c-0.6-8.6-4.5-15.1-12.7-18.7c-2.4-1.1-4.9-2.1-7.4-2.8
	c-12.4-3.7-23.4-1.5-32.7,7.7c-3.1,3-6,6.2-9.3,9.7c-5.4-0.6-11.2-1.3-16.9-1.9c-18.1-2-36.1-2.1-54.2,0.5
	c-10.1,1.4-19.8,4.1-29,8.7c-9.7,4.8-17,11.8-21,22c-1.7,4.5-3.5,9-4.5,13.7c-3.2,15.7-3.8,31.6-1.9,47.6c0.4,3.6,1.4,7.1,3.1,10.4
	c0.6,1.3,1.1,2.6,1.8,4c-4.6,6.4-8.4,13.1-11.4,20.3c-2.9,7.1-4,14.5-3.7,22c0.3,7.7,1.7,15.3,4.1,22.7c2.5,7.4,6.5,13.9,11.1,19.9
	c-1.5,8.5-4,16.3-7.6,23.7c-0.6,1.2-1.6,2.3-2.2,3.2c-6-0.3-11.5-0.8-17.1-0.7c-5.8,0.1-11.6,0.5-17.3,1.2
	c-21.4,2.8-41.5,8.9-58.9,22.2c-1.6,1.2-3.2,2.1-5.2,2.3c-4.3,0.5-8.6,1.3-12.9,1.7c-13.5,1.1-26.8,3.2-40.1,5.8
	c-18.2,3.7-36.2,8.1-53.9,14c-23.4,7.9-45.5,18.7-68,28.7c-13,5.8-25.4,12.8-37.8,19.8c-16.7,9.3-32.3,20.3-46.5,33.1
	c-15.7,14-30.3,29.1-43.2,45.7c-6.6,8.6-13,17.4-19.2,26.3c-6.9,9.9-12,20.9-17,31.9c-4,8.8-7.5,17.8-11.5,26.6
	c-9.8,21.1-14.7,43.3-16.2,66.4c-0.1,1.2,0,2.5-0.4,3.6c-2,5.4-1.4,11-0.6,16.5c1.1,6.9,2.4,13.8,4,20.6c5,21.7,13.9,41.6,27.3,59.4
	c13.1,17.3,29.6,30.3,49.7,38.6c15.3,6.3,31.3,9.5,48,9.6c11.1,0.1,22.2-1,33.2-2.4c23.8-2.9,46.8-9.4,69.1-18.1
	c29.5-11.6,50.3-22.9,76.6-40.1c1-0.7,2-1.4,3.1-1.9c0.7-0.4,1.6-1.2,2.6,0.1c-0.1,0.8-0.1,1.7-0.3,2.6c-1.7,7.5-3.5,15-5.1,22.6
	c-2.8,13.2-4.9,26.6-6.6,40c-2.2,17-4.4,34-5.4,51.1c-0.4,7-1.1,14-1.8,20.9c-0.7,6.7-1.5,13.4-1.1,20.2c0.1,0.9-0.3,1.8-0.4,2.9
	c-1.9,0.1-3.5,0.2-5.2,0.4c-10.8,1.5-19.7,6.2-26,15.3c-3.7,5.3-5.7,11.1-4.7,17.7c0.2,1.1,0.6,2.4-1,3.4c-2.1-0.3-4.5-0.6-6.8-1
	c-4.5-0.8-9-1.7-13.5-2.5c-21.2-3.6-42.3-7.4-63.5-10.8c-12.9-2.1-25.8-3.6-38.7-5.2c-6.5-0.8-13-1.1-19.5-1.8
	c-10.6-1.1-21.2-0.7-31.8,0c-1.4,0.1-2.9,0.5-4.1,1.1c-3.8,2.1-7.6,4.2-11.2,6.7c-7.7,5.5-11.1,13.2-9.9,22.7
	c0.5,3.8,1.4,7.6,2.7,11.2c7.1,20,19.4,36,37.6,47.2c6,3.7,12.1,7,18.1,10.6c10.7,6.5,22,12.1,33.5,17.1c5.8,2.5,11.5,4.9,17.4,7.3
	c2.9,1.2,5.5,2.8,7.8,5c14.5,14.5,29.1,28.9,43.6,43.5c1.7,1.7,3.2,3.7,4.2,5.8c1.9,4,4.6,7.3,7.6,10.5
	c16.2,17.3,33.5,33.4,50.9,49.4c19.6,18,39.2,35.8,58.6,53.9c14.6,13.7,28.9,27.8,43.4,41.6c5.2,5,11,9.4,16.1,14.6
	c14.4,15,29.8,28.9,45.4,42.6c26.1,23,52.5,45.6,80.9,65.8c9.6,6.9,19.2,13.8,29.2,20.2c23.8,15.2,48.5,29,74,41.1
	c16.8,8,33.8,15.5,51.7,20.7c1.4,0.4,2.8,0.8,4.2,1c6.2,0.9,12.4,1.7,18.6,2.6c5.5,0.8,10.9,1.1,16.5,0.5
	c19.4-2.2,37.8-7.7,55.3-16.3c14.7-7.2,26.2-17.9,35-31.7c8-12.7,12.6-26.6,14.8-41.3c0.7-4.5,1.2-9,1.8-13.9
	c1.2,0.4,2.1,0.5,2.9,0.9c11,6.3,22.9,10.1,35.2,12.9c12.9,2.9,25.8,3.6,38.8,0.7c15.1-3.4,29-9.6,40.1-20.5
	c25.8-25.2,35.7-55.6,28.2-91.1C1144.4,1170.1,1138.1,1155.5,1130.4,1141.5z M800.7,156.1c0.5-0.1,1-0.4,1.4-0.3
	c5.7,2.4,9.3,7.2,8.7,12.8c-0.6,6.4-2.6,12.3-8.9,15.8c-0.4-0.6-1-1.2-1-1.7c-0.2-8.7-0.3-17.3-0.4-26
	C800.5,156.5,800.6,156.3,800.7,156.1z M1058,473.1c11.6,14.6,21.7,30.2,31.1,46.2c10.1,17.3,19.7,34.9,27.8,53.3
	c8.8,20,15.4,40.6,20.1,61.9c3,13.7,4.6,27.6,4.7,41.6c0.2,34.5-11.2,64.9-32.4,91.7c-18,22.7-40.9,38.6-68.1,48.5
	c-5.9,2.1-11.7,2.6-17.7,1.3c-8.8-1.9-17-5.1-24.3-10.6c-12.6-9.5-23.6-20.6-33.5-32.9c-12.9-16.2-22.6-34.1-30.3-53.3
	c-9-22.2-15.2-45.3-21.5-68.3c-7.4-26.7-13.9-53.7-23-80c-1.8-5.2-3.8-10.4-6-16.7c4.4,0.3,7.8,1.7,11.3,2.1
	c3.6,0.4,7.2,0.7,10.8,0.9c3.9,0.2,7.7,0.3,11.6,0.1c3.6-0.1,7.2-0.4,10.8-1c3.6-0.6,7.1-1.4,10.6-2.3c3.5-1,6.9-2.1,10.3-3.4
	c3.4-1.3,6.7-2.8,9.9-4.5c3.4-1.8,6.8-3.6,10-5.8c3-2,5.9-4.3,8.5-6.7c2.6-2.4,5-5,7.4-7.5c2.1,1.4,1.5,3.3,1.5,4.8
	c0.2,9.4,1.3,18.8,2.4,28.1c1.8,14.6,5.3,28.9,8.6,43.3c6.4,28.2,16.9,54.8,29,80.9c7.1,15.4,15.6,30,25.3,43.9
	c1.4,2,2.9,3.8,4.5,5.7c0.7,0.9,1.7,1.6,3,2.8c0.2-1.1,0.6-1.8,0.4-2.2c-1.1-3.2-2.2-6.4-3.6-9.4c-8.9-19.8-18-39.6-26.8-59.4
	c-3.1-7-5.9-14.2-8.7-21.2c1.3-1.5,2-0.5,2.7,0.1c7,6,14.7,11,23.1,14.7c2.4,1.1,5,1.9,7.5,2.7c0.9,0.3,1.9,0.2,2.7,0.3
	c1-1.4,0-2-0.6-2.5c-2.6-2.1-5.2-4.3-8-6.2c-4.2-2.9-8.6-5.4-12.6-8.5c-4.8-3.6-9.5-7.4-14.1-11.4c-5-4.4-8.3-10-9.8-16.5
	c-2.3-10.1-4.9-20.2-7.3-30.3c-3.8-16-6.6-32.2-8.2-48.5c-0.7-6.7-1.2-13.4-0.9-20.2c0.2-3.6-0.2-7.2-0.6-10.8
	c-0.5-4.6-1.1-9.1-1.9-13.6c-0.4-2.4-0.7-5-1.9-6.9c-1.8-2.8-2.5-5.7-3.1-8.8c-1.6-7.6-3.4-15.1-4.5-22.7
	c-1.3-8.9-1.4-17.8,0.7-26.6c1.9-7.9,5.6-14.8,10.8-21.5c1.4,1,2.6,1.6,3.6,2.6C1020.1,429.9,1040.1,450.5,1058,473.1z M964.4,336.7
	c7.8,3.4,15.1,7.6,21.6,13.1c0.9,0.8,1.8,1.6,2.7,2.4c8.9,7.8,11,17.7,9.2,28.9c-0.1,0.7-0.3,1.4-0.6,2.1
	c-2.7,5.7-5.4,11.3-8.1,16.9c-2.1,4.3-4.3,8.6-6.3,13c-1.9,4.2-3.6,8.4-5,12.8c-2.4,7.4-3,15.1-2.6,22.9c0.7,12.9,3.8,25.3,7.1,37.6
	c0.5,1.9,0.9,3.8,1.7,5.5c2.8,6.9,2.8,14.1,2.7,21.4c0,2.3-0.7,4.2-2.2,6c-5.1,6.5-11.1,12.1-18.3,16.3
	c-20,11.5-41.2,17.5-64.5,14.7c-5.7-0.7-11.6-0.5-17.3-0.6c-2.1,0-3.7-0.7-4.9-2.5c-0.7-1-1.4-2-2.1-3c-4.8-6.8-11.2-11-19.2-13.3
	c-7.2-2-14.3-4-21.3-6.8c-10.5-4.2-21.6-6.7-32.7-9.2c-10.6-2.3-21.2-4.7-31.4-8.6c-1.6-0.6-3.1-1.3-4.6-2.1c-0.4-0.2-0.5-0.7-1-1.4
	c1.1-2.5,3.6-3,5.7-3.5c5.9-1.3,11.8-2.5,17.8-3.3c16.8-2.3,33.7-1.7,50.6-1.3c4.3,0.1,8.7,0.4,13,0.8c7.8,0.8,15.3-1,22.9-2.7
	c-0.1-2.1-1.8-2.1-3-2.5c-9.9-3.1-20.1-5.2-30.2-7.3c-9.7-2-19.4-3.5-29.3-4.7c-7.6-1-15.1-3-22.7-4.6c-4-0.8-8-1.7-12-2.5
	c-1.2-0.2-2.4-0.3-3-1.7c1.2-1.7,3.1-2,4.9-2.4c8.5-2.1,17.2-2.3,25.9-2.2c11.8,0.1,23.7,0.7,35.5,1c3.9,0.1,7.7,0,11.6-0.3
	c6.4-0.5,12.8-1.3,19.7-2c-0.8-0.9-1.2-1.6-1.7-1.8c-17.8-6.1-35.6-12.2-53.5-18.1c-5.7-1.9-11.8-2.6-17.6-4.2
	c-8.1-2.2-16.2-4.7-24.2-7.3c-1.9-0.6-4.3-1.1-5.1-3.6c0.8-2.1,2.7-2.8,4.5-3.4c3.7-1.1,7.4-2.2,11.2-3c17.6-3.7,35.4-4.7,53.3-3.9
	c14.5,0.6,28.9,1.5,43.1,4.8c2.1,0.5,4.3,0.3,6.5,0.4c3.1,0.1,5-1.3,6-4.2c0.8-2.2,0.6-3.8-1.1-5.2c-1.5-1.2-3.1-2.3-4.7-3.4
	c-11.7-7.8-24.5-13.5-37.8-17.9c-18.8-6.3-37.5-12.6-55.9-19.7c-2.7-1-5.3-2.2-7.9-3.5c-0.7-0.4-1.2-1.3-2-2.3
	c1.2-0.6,1.9-1.3,2.8-1.5c6.8-1.9,13.8-2.3,20.8-2.2c12.8,0.1,25.5,1.7,38.1,4.1c27.6,5.3,54,14.3,80.1,24.6
	c7,2.7,13.7,6.1,19.7,10.6c1.2,0.9,2.4,1.6,3.7,2.3c0.5,0.3,1.3,0.1,1.9,0.2c0-0.6,0.4-1.5,0.1-1.9c-1.8-2.3-3.5-4.6-5.5-6.6
	c-2.6-2.5-5.4-4.8-8.4-7.4c0.1-1.2,0.1-2.7,0.2-4.1c0.2-2.5,1.3-4.5,3.7-5.8c1.7-0.9,3.2-2.2,4.4-3.7c2.9-3.6,2.9-7.5,0.1-11.3
	c-0.7-1-1.6-1.8-2.6-3c1.5-9.3,3.2-18.7,5.5-28.4C956.9,333.7,960.8,335.1,964.4,336.7z M768,478.6c2.3,0.7,4.6,1.3,7,1.7
	c7.3,1.2,14.6,2.7,22.2,5.1c-2.9,2.3-5.9,1.6-8.6,2.1c-2.8,0.5-5.7,0.9-8.6,1.4c-2.6,0.5-5.2,1-7.8,1.6c-2.8,0.7-5.5,1.6-8.5,2.5
	c-1-5.4,1.1-10.2,0.8-14.9C766.3,476.8,767,478.3,768,478.6z M766.5,464.2c0.7-8.2,1.4-16.2,2.6-24.6c20.4,8.6,41.5,12.3,62.4,16.8
	c-4.1,0.8-8.1,0.3-12.2,0.1c-7.5-0.3-14.9-0.8-22.4-0.7c-5,0.1-10.1,0.8-15.1,1.7c-5,0.9-9.8,2.5-13.6,6.3
	C768,464,767.4,464,766.5,464.2z M763.9,512.6c9.9,4.5,20.4,7.3,31,9.8c11,2.6,22,5.5,32.9,8.4c1.8,0.5,3.6,1.2,5.5,1.8
	c-0.3,1.6-1.5,0.9-2.1,1c-0.9,0.1-1.9,0-2.9-0.1c-13.5-1.2-27-1.4-40.5-0.9c-8.9,0.4-17.8,1.4-26.7,2.1c-1.6,0.1-3.2,0-5.2,0
	c1.2-4.1,2.3-7.8,3.2-11.5c0.8-3.5,1.3-7.1,2-11C762.2,512.4,763.2,512.3,763.9,512.6z M775.6,413.3c1.4-11.5,2.7-22.9,4.2-34.4
	c0.1-0.9,0.7-1.8,1-2.5c18,8.5,36.8,14.7,55.4,21.1c11.4,3.9,22.7,7.9,34,11.9c2.4,0.9,4.8,2.1,8.6,3.8c-10-1.1-18.3-2-26.7-3
	c-8.6-1-17.3-0.8-26-0.9c-8.4-0.1-16.9,0.3-25.2,1.4c-8.3,1.1-16.5,2.7-24.7,4C776,414.2,775.6,413.7,775.6,413.3z M945.4,369.8
	c0.2-0.1,0.4-0.2,0.6-0.3c0.1,0.4,0.5,0.9,0.4,1.2c-0.3,0.6-0.8,1.1-1.3,1.6C944.4,371.3,944.6,370.5,945.4,369.8z M863.1,256.4
	c5.3-16.1,8.1-32.8,10.1-49.5c1.4-11.5,2.3-23,3.5-34.5c0.2-1.7,0.5-3.3,0.7-4.7c1.6-0.8,2,0.2,2.5,0.9c3.9,6.1,7.7,12.2,11.6,18.4
	c12.8,20.4,25.6,40.9,38.4,61.3c6.8,10.8,13.6,21.6,19.3,33.1c0.4,0.8,0.7,1.7,1.2,3c-1.3,0.1-2.2,0.4-3,0.2c-2.4-0.5-4.7-1.1-7-1.9
	c-22.9-7.4-46.3-13.3-69.5-19.8c-2.7-0.8-5.5-1.4-8.6-2.7C862.7,258.2,862.8,257.3,863.1,256.4z M814.7,249c1.5-1,2.7-0.5,3.7,0.1
	c12.6,6.2,25.9,10.5,39.1,14.8c7.3,2.4,14.8,4.2,22.2,6.3c2,0.6,4.1,1.2,6.1,1.8c-23.7-1.7-46.8-6.7-70-10.8
	c-0.9-0.2-1.7-0.7-2.8-1.2C813.4,256,813.3,252.3,814.7,249z M803,263.3c0.9-0.1,1.7-0.3,2.3-0.1c14.3,4.4,29,7.1,43.7,10
	c21.3,4.2,42.8,6.9,64.3,10.1c8.8,1.3,17.6,2.7,27.1,5c-1.6,0.5-2.4,1-3.3,1.1c-6.2,0.6-12.5,1.4-18.7,1.5c-11.3,0.2-22.7,0.1-34,0
	c-15.9-0.1-31.8,0-47.7-1.4c-9.6-0.8-19.3-1.2-28.9-1.7c-1.9-0.1-3.8-0.3-5.4-0.4c-0.3-0.9-0.7-1.3-0.7-1.7
	C802.1,278.2,802.6,270.8,803,263.3z M790.5,295.1c1.3-0.2,2.5-0.6,3.6-0.5c14,0.8,27.9,1.6,41.9,2.5c14.5,0.9,28.9,0.7,43.4,0.4
	c4.3-0.1,8.7-0.5,13-0.6c2.2-0.1,4.3,0.2,6.5,0.3c3.6,0.1,7.3,0.7,10.8,0.3c11.3-1.2,22.5-2.7,33.8-4c2.8-0.3,5.4-2,9.3-1.2
	c-3.5,15.9-7.2,31.1-10.3,46.4c-3.1,15.3-6.8,30.6-8.3,46.1c-1.7,1.2-2.9,0-4.1-0.5c-22.1-9.7-44.9-17.6-68.4-23.3
	c-17.4-4.2-35-7.1-53-6.9c-7.3,0.1-14.4,0.7-21.5,2.7c-1.1,0.3-2.3,0.3-3.5,0.5c-0.3-0.9-0.7-1.6-0.6-2.3
	C785.5,335.1,788,315.2,790.5,295.1z M783.1,308.1c0,2.2,0.2,4.1,0,5.9c-1.6,12-3.3,23.9-4.9,35.9c-0.2,1.7-0.5,3.3-0.6,5
	c-0.7,9.2-2.1,18.2-3.5,27.3c-1.3,8.6-2.3,17.2-3.4,25.8c-0.3,2.9-0.3,5.8-0.4,9c-1.1,0.9-2.4,2-3.6,3.1c-4.5,4.2-5.3,8.7-2.6,14.3
	c0.5,1.1,1.2,2.1,1.8,3.1c-3.9,17.6-5.1,35.4-7.3,53.1c-1.8,13.6-4.2,27.2-6.4,40.7c-0.5,2.9-1.2,5.7-0.3,9c1,0.1,2.1,0.4,3.2,0.3
	c11.3-0.4,22.7-0.9,34-1.4c17.2-0.8,34.3,0.2,51.4,0.9c0.9,0,1.9,0.3,3.1,0.5c0,1.2,0.2,2.4,0,3.5c-2.9,12-5.9,23.9-8.7,35.8
	c-4,16.8-5.4,33.9-3.7,51c0.9,8.4,2.4,16.7,3.7,25c0.4,2.4,1,4.7,0.9,7.3c-4.7,3.9-9.9,7-15.4,9.4c-5.1,2.2-10.4,3.9-15.6,5.8
	c-1.8,0.7-3.8,0.9-5.5,1.8c-5.3,2.7-11.1,3.2-16.8,4.1c-20.6,3.1-41.3,4.7-62,5.4c-28.2,1-56.5,1.7-84.7,0.8
	c-10.6-0.3-21.2-0.8-31.8-2.1c-11.5-1.4-22.9-3.4-34.3-5.6c-16.1-3.1-32-7.2-47.4-13c-6.8-2.5-13.3-5.7-19.9-8.6
	c-0.8-0.4-1.6-1-2.2-1.4c-0.3-1.8,1-2.3,1.9-2.9c20.7-15.8,38.2-34.7,53.8-55.4c10.8-14.3,20.8-29,29.4-44.7
	c6.4-11.7,11.9-23.7,15.9-36.4c0.7-2.3,1.6-4.6,2.6-6.7c4.3-9.2,7.8-18.7,10.8-28.4c0.4-1.1,0.5-2.3,0.8-3.5
	c0.6-2.8,1.1-5.7,1.8-9.3c3,1,5.3,1.7,7.5,2.6c1.1,0.4,2.1,1,3.3,1.5c-1.1,6.7-2.9,13.1-0.4,19.4c0.3,0.4,0.6,0.7,0.9,1
	c6.1,5.4,13.2,6.5,21,4.8c11.5-2.4,22.1-6.8,31.7-13.6c0.4-0.3,0.8-0.6,1.1-0.9c11.8-9.4,15.6-21.6,12.6-36.1
	c-0.4-1.9-0.9-3.7-1.4-5.9c1.2-0.9,2.3-1.8,3.4-2.6c3.8-2.5,6.3-5.9,8.2-9.9c4.1-8.9,4.6-18.1,2-27.6c-0.8-2.8-1.7-5.5-2.7-8.6
	c0.5-0.8,1.1-1.8,1.8-2.7c7-8.5,9.5-18.3,8.4-29.1c-1-9.5-3.8-18.4-8.7-26.6c-0.5-0.8-1-1.7-1.4-2.5c-0.1-0.2,0-0.5,0-0.7
	c10.8-8.3,7.5-4.4,16.5-18.9c1.4,0.3,3.1,0.4,4.6,0.9c13.9,4.7,26.7,1.9,38.7-5.6c2.8-1.8,5.2-4.2,8.2-6.7c1.3,0.5,3,1.2,4.8,1.7
	C779.3,307.2,781.2,307.6,783.1,308.1z M791.9,149.9c2.4,14.2,2,28.4,0.9,42.6c-1.8,24.9-7,49.2-12.9,73.3
	c-2.6,10.8-5,21.6-7.6,33.3c-5.6,4.5-11.6,8.4-18.3,11.3c-10.2,4.4-20.6,4.4-30.8,0.5c-1.4-2.1-1.1-4.4-1-6.5c0.3-3.9-1.2-7-3.4-10
	c-5.2-7.1-11.5-13-19-17.6c-2.9-1.7-5.7-3.5-8.4-5.2c0.8-10.3,1.8-15,5.4-23.9c1.1-0.2,2.5-0.6,3.9-0.8c12-1.9,23.4-5.8,34.1-11.5
	c23.2-12.3,34.6-38.8,34-58.5c-0.3-10.9-3.7-20.9-9.3-30c-2.5-4.1-5.7-7.8-8.9-11.4c-3-3.4-6.4-6.5-9.8-9.7
	c-5-4.7-10.9-7.9-17.6-9.6c-9.7-2.5-19.4-3.8-29.9-2.8c0.4-1.3,0.5-2.2,1-2.8c5.1-7.3,11.5-12.8,19.7-16.5c4.3-2,8.4-1.9,12.6-0.3
	c2.5,0.9,4.9,2.1,7.3,3.2c8.3,3.9,16.6,7.9,24.8,11.9c5.9,2.8,11.9,5.4,18.1,7.2c2.6,0.7,4.2,2.1,5.3,4.4
	C786.9,129.9,790.1,139.6,791.9,149.9z M656.2,85.7c0.9-4.7,2.6-9.3,4.2-13.8c2.9-8.1,8.6-13.8,16.1-17.9c7.7-4.2,15.9-6.9,24.5-8.4
	c16.2-2.9,32.6-3.7,49-1.9c7.4,0.8,14.8,1.8,22.3,2.7c1,0.1,1.9,0.5,2.9,0.3c6.1-0.9,12.3-1.1,19.5-3.5c-5-0.9-8.7-1.6-12.9-2.4
	c0.4-1,0.6-1.8,1.1-2.5c0.5-0.8,1.3-1.4,2-2.1c12.8-12.9,29-9.3,39.3-3.2c3.3,2,5.1,5.2,5.6,8.9c1.2,8.7-0.7,16.8-5.7,24.1
	c-2.7,3.9-6.4,6.6-10.6,8.5c-4.8,2.2-9.8,4-14.7,6c-2.4,1-5.1,1.4-7.3,3.1c0.4,1.9,2,1.9,3.2,2.1c4.9,0.7,9.7-0.2,14.3-1.6
	c5.6-1.7,10.7-4.5,15.3-8.1c3.9-3,6.8-6.8,8.8-11.3c0.9-2,1.8-3.9,2.6-5.6c1.9-0.5,2.6,0.6,3.1,1.6c1.3,2.3,2.6,4.7,3.3,7.2
	c4.1,14.3-1.4,32.8-14.9,41.5c-6.3,4.1-13,6.2-20.6,5c-3.8-0.6-7.6-1-11.5-1.5c-6.3-0.7-12.3-2.4-17.9-5.4c-2.3-1.2-4.7-2.1-7.5-2.3
	c-2.3-0.1-4.6-1.3-6.8-2.3c-9-4.2-17.8-8.5-26.8-12.7c-5.2-2.5-10.6-4.6-16.2-6c-5.2-1.3-10.5-1.5-15.8-0.8
	c-8.3,1.1-14.9,5.2-20.1,11.7c-0.6,0.7-1,1.6-1.4,2.5c-0.2,0.4,0,0.9,0,2.4c7.7-5.6,15.1-9.9,24.4-9.7c-0.3,0.8-0.3,1.4-0.6,1.6
	c-9.2,4.9-15.9,12.4-21.5,21c-2.1,3.3-4.6,5.8-8.2,7.6c-5.1,2.6-9.5,6.5-13.4,10.9c-1.9,2.2-3.8,4.3-6.6,6.1c-1.4-2.7-1.8-5.3-2-7.9
	C653,114.9,653.5,100.2,656.2,85.7z M644.5,197.9c-1.9-8.5-2.6-17.2-0.4-25.8c0.2-0.9,0.4-1.9,0.7-2.8c7.5-19.4,19.8-34.5,38.4-44.3
	c7.6-4,15.7-4.6,23.8-4.9c2.5-0.1,5.2,0.9,7.7,1.8c7.4,2.9,14.5,6.5,20.9,11.3c12.4,9.4,20.3,21.7,23.6,36.9
	c1.3,6.2,1.2,12.4,0,18.7c-3.8,18.6-13.7,32.7-30.9,41.2c-9.8,4.9-20.1,8-30.9,9.6c-0.9,0.1-1.9,0.3-3.4,0.5
	c-1.8,4.9-3.6,9.4-5.1,14c-1.4,4.5-2.5,9.1-3.9,14.2c-3-1.1-5.7-2.1-8.3-3.1c-2.4-0.9-4.9-1.8-7.7-2.9c0.8-4.5,2.8-8.4,3.9-12.5
	c1.1-4.1,4.1-7.6,4.3-12.4c-1.8-1.1-3.6-2.2-5.6-3.2C656.6,226.6,648.1,214,644.5,197.9z M658.4,235.3c3.9,2.4,7.2,4.4,10.6,6.6
	c-1,6.3-3.9,11.8-5.9,18c-1.6,0-3.1,0.3-4.3-0.1c-2.9-0.8-6.2-0.7-9.1-2.4C651.2,249.6,655.2,243.1,658.4,235.3z M554.6,287.3
	c10.4-8.2,22.3-13.4,35-16.9c15-4.2,30.3-5.8,45.9-4.6c18.9,1.5,37.1,5.8,54.1,14.6c6.7,3.4,13.2,7,19.1,11.7
	c4.7,3.7,6.6,8.8,7.6,14.3c0.2,1.4,0,2.9-0.4,4.3c-1.6,5.4-4.1,10.3-8.1,14.4c-2,2-4.2,3.9-6.6,6.1c-1.5-1.4-2.9-2.6-4.3-4
	c-15.3-15.6-33.9-25.3-55.1-30c-5.1-1.2-10.5-1.4-15.8-1.9c-1.1-0.1-2.3,0.3-3.5,0.6c-0.4,0.1-0.9,0.7-0.9,1c0,0.6,0.2,1.6,0.6,1.8
	c1.2,0.7,2.6,1.3,4,1.6c16.4,3.1,31.3,9.7,45.4,18.2c8.3,5,15.7,11.2,22,18.7c7.8,9.2,11.6,19.9,11.8,31.9
	c0.1,6.4-1.4,12.4-5.3,17.5c-1.7,0.5-2.3-0.6-3-1.6c-7.6-10-17.3-17.4-28.4-23.1c-5.3-2.8-10.7-5.6-16.1-8.2
	c-9.2-4.5-18.8-7.5-28.9-9.1c-2.3-0.4-4.8-0.2-7.2-0.1c-0.5,0-1.3,0.9-1.4,1.4c-0.1,0.6,0.2,1.6,0.6,1.9c1.9,1.1,3.8,2,5.8,2.8
	c5.6,2.2,11.3,4.2,16.9,6.5c11.2,4.5,21.7,10.4,31.9,17c6.7,4.4,12.8,9.5,17.7,15.9c4.2,5.4,7.4,11.3,9,18
	c2.4,9.7,1.1,18.7-5.2,26.7c-0.6,0.7-1.4,1.2-2.1,1.9c-0.7-0.6-1.4-1-1.8-1.5c-5.6-7.2-12.7-12.4-20.6-16.8
	c-12.1-6.6-24.6-12.3-37.4-17.4c-8.6-3.4-17.5-5.3-26.4-7.5c-0.9-0.2-1.9-0.2-2.9-0.1c-0.4,0-1.1,0.4-1.1,0.7
	c-0.2,0.7-0.3,1.6,0,2.1c0.7,1,1.6,1.9,2.6,2.5c2.1,1.2,4.3,2.1,6.6,3c18.4,8,36.6,16.1,54.1,26c4.4,2.5,8.6,5.4,12.3,8.8
	c3.7,3.3,6.3,7.3,7.8,12c1,3.2,1.6,6.6,2.4,9.8c1.6,5.9,0.3,11-4.2,15.2c-2.8,2.6-5.5,5.5-8.7,7.6c-8.5,5.7-18,9.2-27.9,11.6
	c-2.1,0.5-4.3,0.7-6.4-0.1c-2.2-0.8-3.7-2.3-4.1-4.7c-0.4-2.4-0.4-4.8,0.2-7.5c1.5-0.4,3.1-0.9,4.7-1.2c3.5-0.9,7-1.7,10.5-2.6
	c1.1-0.3,2.3-0.9,2.1-2.8c-1.4-0.5-2.9-1.2-4.5-1.7c-13.2-3.9-25.9-9-38.7-14.2c-14.7-6-29.7-11.5-44.5-17.3
	c-4.3-1.7-8.7-2.5-13.2-3c-0.9,1.3,0.1,1.9,0.8,2.4c2.9,2.1,5.7,4.5,8.8,6.3c12.1,7.1,24.8,12.9,37.7,18.3c4,1.7,7.9,3.5,12.2,5.3
	c-0.5,3.8-2.1,6.9-3.1,10.3c-2.2,0-4.1,0.2-6,0c-17.8-2.6-34.8-7.8-50.6-16.6c-12.2-6.8-22.6-15.6-31.7-26.1
	c-4.5-5.2-7.5-11.2-10.8-17.1c-1-1.9-1-3.6-0.4-5.6c0.9-3,1.7-6,2.6-9c4-13.9,6.7-28.1,9.1-42.4c1.4-8.8,3.2-17.6,5.7-26.1
	c3.5-12.1,8.8-23.5,15.3-34.3C544.3,296.7,549.1,291.6,554.6,287.3z M482.9,657.7c-11.5,7.6-23.1,14.9-35.3,21.4
	c-15.5,8.4-31.5,15.7-48.1,21.7c-11.6,4.2-23.3,7.8-35.3,10.8c-9.8,2.4-19.8,4.1-29.9,5c-11.1,1.1-22.1,2.1-33.2,1.4
	c-32.4-2.1-59.6-14.9-80.4-40.3c-13.1-15.9-21.7-34.1-26.9-54c-2.4-9.4-4.2-18.8-5.6-28.4c-1.2-8.7-0.2-17.4,1.7-25.9
	c6.3-29.1,15.6-57.2,28.7-84c8.4-17.3,19.2-32.9,31-47.9c13.1-16.8,27.9-32.1,43.8-46.2c13-11.6,27.3-21.5,42.2-30.5
	c5-3,10.1-5.7,15-8.8c7.7-5,16.4-8,24.6-12.3c4.9-2.6,10-4.8,14.9-7.3c26-13,52.9-23.4,81.1-30.5c12.4-3.1,24.8-6.1,37.2-9.2
	c8.9-2.3,18.1-2.7,27.2-3.7c0.4,0,0.9,0.3,1.7,0.5c-0.4,0.9-0.7,1.7-1.2,2.5c-13.5,19.7-21.4,41.5-25,65c-1.3,8.3-2.3,16.7-3.9,25
	c-1.9,9.9-4,19.9-6.6,29.7c-1,3.9-3.2,7.5-5.3,11c-10,16.6-22.1,31.7-35.8,45.4c-4.1,4.1-8.3,8.1-12.5,12.1
	c-0.8,0.8-1.8,1.4-2.7,2.1c-1.6-1.1-0.8-2.3-0.7-3.3c0.7-7.9,1.4-15.8,2-23.8c0.2-2.8,0.1-5.8-1.6-8.6c-1.5,0.2-3,0.2-4.3,0.6
	c-7,1.8-14,3.6-21,5.4c-4.9,1.2-9.6,3.2-14,5.7c-6.3,3.5-12.4,7.3-18.2,11.7c-11.9,9.1-23.4,18.7-34.9,28.3
	c-11.5,9.6-20.4,21.2-26.1,35.1c-0.4,0.9-0.8,1.7-1.5,2.9c-5.5-0.7-10.6-2.6-15.8-4.5c-2-0.8-4-1.7-6-2.5c-1.8-0.7-3.6-1.4-5.5-1.9
	c-0.5-0.1-1.6,0.3-1.7,0.6c-0.2,0.6,0.2,1.4,0.6,1.9c0.6,0.8,1.3,1.4,2.1,1.9c3.5,2.1,7,4.2,10.6,6.2c1.7,0.9,3.5,1.4,5.7,2.2
	c-1.5,1.3-2.9,0.7-4,0.6c-4.5-0.6-9.1-1.4-13.6-2c-3.8-0.5-7.7-0.8-11.5-0.2c-0.2,1.3,0.3,2,1.3,2.3c7.4,2.4,14.9,4,22.5,5.2
	c8.1,1.3,16.3,2,24.5,1.1c1-0.1,1.9-0.1,2.9-0.3c9.4-2.1,18.9-4,28.2-6.3c18.6-4.7,36-12.6,52.1-23c28-18.1,52.2-40.5,72-67.5
	c1.3-1.8,2.5-3.6,3.7-5.4c1.1-1.6,2.2-3.2,3.1-4.5c1.6-0.4,2.1,0.6,2.4,1.4c4.7,10,11.8,18.2,19.7,25.7
	c10.6,10.3,22.5,18.9,35.4,26.2c9.5,5.4,19.7,7.6,30.5,7.8c3.1,0,6.2-0.7,9.3-1.2c0.3-0.1,0.5-0.7,1.1-1.4c-0.7-0.2-1.2-0.5-1.7-0.5
	c-5-0.4-10.1-0.5-15.1-1.2c-9.5-1.3-18-5-26.2-10c-13.5-8.2-25.8-17.8-36.9-29c-6.3-6.4-11.4-13.7-15.9-21.4c1.2-3.7,2.9-6.8,5.2-10
	c0.8,1,1.5,1.6,1.9,2.3c9.2,17.1,23,29.7,39.4,39.5c11.8,7.1,24.3,13,38,15.4c5.9,1,11.9,1.5,17.9,2.3c1.6,0.2,3.3,0.3,5.4,0.4
	c-0.4,1.9-0.6,3.6-1.2,5.1c-4.3,11-8.6,22-13.1,32.9c-2.3,5.6-5.1,10.9-7.9,16.3c-8.9,16.9-19.3,32.9-30.6,48.3
	c-9.3,12.6-19.2,24.8-30.2,36.1C510.4,637.4,497.2,648.2,482.9,657.7z M436.2,489.5c-11.4,9.8-23.4,18.2-36.4,25.2
	c-16.4,8.9-33.8,15.3-52.2,18.5c-3.8,0.7-7.5,1.3-10.9,0.9c-1.6-1.3-1.4-2.6-1-3.7c1.1-2.4,2.2-4.9,3.8-6.9
	c3.9-4.9,7.8-9.8,12.2-14.2c12.1-12.2,25.5-22.9,39.5-32.6c7.1-4.9,14.9-8.9,23.4-10.9c5.6-1.4,11.1-3.3,16.6-5c2-0.6,4-1.4,6.6-1.2
	C438.9,469.5,435,479.1,436.2,489.5z M480,882.5c5.2,15.4,10.2,30.7,15.5,46.4c-9.6,2.4-19.1,3-26.4,1.9c-0.4-1.4-1.1-3-1.3-4.6
	c-0.7-6.3-2.8-12.2-5.3-17.9c-3.6-7.9-6.1-16.2-7.7-24.7c-0.2-1.4-0.3-2.8-0.4-4.1c0.6-0.4,1-0.9,1.4-0.9
	C463.9,879.1,471.8,881,480,882.5z M446.1,848.1c4.4-6.2,10.7-9.6,17.8-11.5c2.3-0.6,4.6-1.4,6.8-0.7c0.4,0.7,0.8,1,0.9,1.5
	c2,11.8,4,23.7,6,35.5c0,0.2-0.2,0.4-0.3,0.6c-0.2,0.2-0.3,0.4-0.5,0.5c-0.2,0.1-0.5,0.1-0.7,0c-9.6-2.1-19.2-4.2-28.9-6.4
	c-0.7-0.2-1.3-0.5-2.2-0.8C441.1,860.4,441.8,854.2,446.1,848.1z M403,869.1c14.2,2.4,28.5,4.8,42.7,7.2c1.6,0.3,3.2,0.9,5.1,1.4
	c0.6,2.9,1.4,5.6,1.8,8.5c1.5,8.8,4,17.3,7.4,25.6c2.5,6,4.3,12.2,4.7,19.3c-8.2,1.5-30,0.4-45.2-2.1c-0.4-0.5-1-1-1.1-1.6
	c-3.1-13.4-8.4-26.1-12.3-39.2c-1.8-6-3.5-12-5.3-18.1C401.8,869.6,402.5,869,403,869.1z M255.4,852.7c1.4-0.2,2.9-0.1,4.3-0.2
	c16.7-0.2,33.3,0.4,49.9,2.6c15.5,2,31.1,4.2,46.6,6.3c1.2,0.2,2.3,0.6,3.5,0.9c1.2,4.7,1.3,9.3,1.8,13.8
	c1.6,12.9,3.3,25.8,6.5,38.5c0.3,1.1,0.6,2.4,2.5,2c0.7-2.6,0.1-5.2-0.5-7.7c-2.8-11.3-4-22.8-5.5-34.3c-0.5-3.6-0.9-7.2-1.4-11.1
	c1.1-0.3,2-0.7,2.8-0.6c9.5,1.5,19.1,3,28.6,4.6c0.9,0.2,1.7,0.7,2.4,1c0.3,0.5,0.5,0.7,0.5,0.9c4.1,17.4,10,34.3,16.2,51
	c0.7,1.8,1.2,3.7,1.6,5.5c0.1,0.4-0.1,0.9-0.2,1.4c-1.8,1.3-3.7,0.6-5.6,0.3c-13.3-2.3-26.6-4.9-39.6-8.7c-9-2.7-17.9-5.7-26.9-8.6
	c-1.6-0.5-3.1-1.3-4.6-2c-3.4-8.9-5.5-18.1-7-27.4c-0.9-5.5-2.4-10.8-3.7-16.2c-0.1-0.4-0.6-0.7-1.1-1.3c-0.1,5,1.5,9.6,2.1,14.2
	c0.6,4.8,1.5,9.5,2.3,14.3c0.8,4.7,2.2,9.2,3.2,13.6c-1.7,1.1-2.9,0.5-3.9,0.1c-11.2-4.4-22.5-8.8-33.7-13.2
	c-0.2-0.1-0.4-0.2-0.6-0.3c-13-7.4-26.2-14.5-38.1-23.7c-2.3-1.8-4.4-3.8-6.3-5.9C248.4,859.3,250.8,853.4,255.4,852.7z
	 M418.1,1024.9c-2.9-2.9-5.9-5.7-8.8-8.6c-9.9-9.8-19.8-19.7-29.7-29.5c-1.1-0.4-2-1-2.8-1.8c-4.7-4.6-9.9-8.5-14.6-13.1
	c-0.8-0.8-1.4-1.6-1.9-2.5c-6.1-3.7-12.1-7.6-18.1-11.6c-1.1-0.8-2.1-1.6-2.9-2.6c0,0-0.1,0-0.1-0.1c-8.2-3.5-16.6-6.3-24.3-11.1
	c-8.6-5.3-17.8-9.6-26.7-14.4c-4-2.2-8-4.5-11.8-7.1c-10.8-7.2-19.6-16.4-26-27.7c-0.7-1.2-1.1-2.5-2-4.5c5.3,0.4,7.6,4.1,11.9,5.5
	c-0.6-1.1-0.8-1.8-1.2-2.1c-3.3-2.1-6.5-4.1-9.9-6c-2.4-1.4-4.1-3.1-5.1-5.8c-1.6-4.3-3.1-8.7-3-13.3c0-1.4,0.2-2.9,0.6-4.3
	c0.2-0.6,0.8-1.3,1.4-1.5c0.5-0.1,1.5,0.2,1.8,0.7c2.8,3.3,5.6,6.6,8.2,10.1c2.8,3.8,6.2,6.7,10.2,9.1c8.9,5.3,18,10.2,27.7,14.1
	c19.9,8.2,39.9,15.9,60.2,22.8c16.9,5.7,34.3,9.7,51.9,13c5.4,1,11.1,1.1,16.3,3.3c8-0.6,15.9,0.9,23.8,1.3
	c13.3,0.7,26.5,0.2,39.8-0.5c4.7-0.2,9.4-1.5,14.7-2.3c4.3,8.8,8,18.1,12,27.6c-0.2,0.2-0.3,0.4-0.5,0.6c2.3,3.1,3.9,6.2,5.2,10
	c0.2-0.2,0.3-0.4,0.5-0.5c3.4,3.5,7,9.4,14.8,24.3c-1.2,2.6-3.7,4.2-6.1,5.6c-18.2,10.6-37.4,19-58.5,21.7
	c-8.8,1.2-17.6,2.6-26.5,3.6c-4.5,0.5-9.1,0.3-13.7,0.5C422,1027.7,419.9,1026.8,418.1,1024.9z M1108.6,1271.4
	c-17.5,14.3-37.7,19.9-60.3,16.4c-10.5-1.6-20.8-4.1-30.8-7.8c-5.2-1.9-10.3-4.1-15.2-7.6c-0.4-2.9-1-5.9-1.3-9
	c-2-17.7-7.3-34.4-15.3-50.3c-2.5-4.9-4.6-10.1-6.8-15.2c-1.6-3.5-2.9-7.1-4.6-10.6c-11.8-24.1-24.5-47.6-40.1-69.6
	c-4.2-5.9-8.2-12-12-18.1c-23.8-37.8-48.6-75-73.6-111.9c-20-29.6-40-59.2-60.2-88.7c-13.1-19.1-26.7-37.9-40.1-56.8
	c-1.4-2-2.8-3.9-4.4-6.2c7.9-8.2,12.7-18.1,15.6-28.9c0.7-2.8,1.1-5.6,0.7-9.1c-1.3,0.9-2.2,1.2-2.7,1.9c-2,3-4.1,6-5.8,9.1
	c-2.6,4.6-4.9,9.4-7.4,14.1c-1.1,2.1-2.4,4.1-3.5,5.9c-2.3,0.5-2.9-1.1-3.8-2.1c-8.4-10.9-16.8-21.8-25.2-32.7
	c-2.7-3.4-5.5-6.7-8.3-10.1c-0.5-0.6-1.2-1.2-1.9-1.8c-1,1.4-0.1,2.1,0.4,2.9c8.2,13.1,15.8,26.5,22.8,40.3c1.5,3,3.4,5.8,5.4,8.6
	c57,81.5,112.2,164.2,167.7,246.9c10.4,15.4,20.5,31,29.8,47.1c1.3,2.3,2.8,4.5,4.3,6.7c4.4,6.7,7.8,13.9,10.7,21.3
	c1.5,3.8,3.1,7.6,4.9,11.3c4.9,10.2,9.8,20.4,14.8,30.6c1.2,2.4,2.4,4.7,3.8,7c4.9,8.3,9.5,16.8,13.2,25.8
	c7.1,17.5,10.7,35.6,9.8,54.4c-0.7,15.4-4.1,30.1-11.8,43.6c-7.5,13.4-18,23.8-31.7,30.9c-16.2,8.4-33.3,14.3-51.4,16.8
	c-8.9,1.2-17.8,0.8-26.6-1.3c-8.2-1.9-16.3-4.3-24.1-7.7c-31.1-13.3-60.9-29.2-89.9-46.6c-28-16.8-54.3-36-79.7-56.5
	c-25.2-20.3-49.5-41.7-73.6-63.3c-13-11.6-25.2-24-37.6-36.2c-13.2-13.1-26.2-26.3-39.4-39.5c-3.1-3.1-6-6.2-10.1-8.1
	c-1.7-0.8-3-2.4-4.5-3.7c-13.7-12.5-27.5-25.1-41.1-37.7c-3.7-3.4-7.2-7.2-10.6-10.8c-5.8-6.1-11.6-12.3-17.3-18.5
	c-2-2.1-3.8-4.4-5.7-6.5c-1.7-1.9-3.4-3.7-5.5-6c8.7-0.7,16.4-1.1,24-2c12.5-1.5,24.8-3.5,37-6.8c13.7-3.8,26.2-9.7,36.4-19.9
	c1.8-1.8,4-3.3,6.2-5.2c1.1,1.4,2,2.5,2.8,3.7c13,20.1,27.7,39,42.3,57.9c12.2,15.9,25.6,30.8,39.7,45.1
	c13.1,13.3,27.4,25.2,42.2,36.4c23.3,17.6,47.5,34,72.5,49.1c14.1,8.5,28.7,15.9,44,21.8c8.6,3.3,16.5,8,24.3,12.8
	c4.1,2.5,8.4,4.8,12.6,7c0.7,0.4,1.7,0.4,3.4,0.8c-2.1-4.7-5.4-7-8.5-9.5c-3-2.4-6.6-3.9-10.1-7.2c6.5,0.7,12.1,1.3,17.8,1.8
	c2.4,0.2,4.8,0.2,7.2,0.1c0.3,0,0.8-0.5,0.9-0.8c0.1-0.4-0.1-1.1-0.4-1.2c-2-0.7-4-1.6-6.1-2c-7.6-1.5-15.2-2.9-22.8-4.1
	c-7-1.2-13.5-3.5-19.8-6.7c-12.5-6.3-24.5-13.5-36.3-21.1c-23.6-15.2-46.6-31-69-47.9c-21.7-16.3-41.6-34.5-59.8-54.7
	c-15.8-17.6-30-36.6-44.2-55.5c-15-19.9-28.5-40.8-40.3-62.7c-4.4-8.1-8.4-16.3-12-24.7c-8.3-19.3-15.3-39.1-21.1-59.3
	c-1.3-4.6-2-9.4-2.8-14.2c-1.5-9.8-3-19.6-4.3-29.4c-0.6-4.8-0.8-9.6-0.9-14.4c-0.2-20,0-40.1,1.5-60.1c0.8-10.6,1.9-21.2,3.4-31.7
	c2.5-18.4,5.4-36.8,8.2-55.1c0.3-2.1,0.9-4.2,1.5-6.7c1.1,0.3,2.1,0.4,2.8,0.8c19.7,11.3,41.1,17.7,63,22.9
	c13.2,3.1,26.5,5.3,39.9,6.8c7.7,0.9,15.4,1.4,23.1,1.8c29.5,1.3,58.9,0.6,88.4-0.1c14-0.4,28-1.4,41.9-2.9
	c16.3-1.7,32.4-5.2,48-10.5c4.3-1.5,8.5-3.4,12.7-5.2c1.1-0.5,2.1-1.2,3-2c0.9-0.7,1.4-1.9,2.4-2.5c4.2-2.8,8.5-5.5,12.7-8.2
	c0.2-0.1,0.4,0,0.7,0c1.5,0.8,1.4,2.4,1.8,3.8c4.2,16.6,8.4,33.2,12.7,49.8c0.5,1.9,1,3.7,1.7,5.5c4.8,11.3,9.4,22.8,15.6,33.4
	c1.3,2.3,2.2,4.8,3.3,7.2c0.7,1.5,1.3,3.2,2.1,4.6c4.9,8,9.3,16.4,15,23.9c4.5,6,8.3,12.4,12.2,18.7c20.6,33.3,43.5,65,67,96.3
	c19.9,26.4,39.7,52.9,59.3,79.6c15,20.4,28.6,41.9,40.8,64.1c17,30.9,34.2,61.6,51.3,92.5c7.4,13.4,12.9,27.4,16.5,42.4
	C1142.9,1219.1,1131.8,1252.4,1108.6,1271.4z"/>
<path id="XMLID_721_" d="M1422.8,1295.6c6.7,3.8,12.9,7.1,18.9,10.7c14,8.5,28,17.2,41.8,25.9c4.1,2.6,7.9,5.6,11.6,8.6
	c6.6,5.4,10.7,12.3,12,20.8c1.2,8.2-0.5,15.3-7.5,20.5c-1.5,1.1-2.9,2.6-4,4.1c-2.3,3.3-5.6,5.1-9.2,6.6
	c-22.6,9.2-45.6,17.1-68.7,24.7c-32.3,10.6-64.6,21.2-96.9,31.8c-5.2,1.7-10.1,1.7-15.6,0.7c-9.8-1.7-19.2-4.7-28.3-8.6
	c-3.1-1.3-6.1-2.9-8.9-4.7c-30-19.4-59.9-38.9-89.8-58.5c-7.1-4.6-13.8-9.7-20.7-14.6c-2.2-1.6-4.1-3.4-5.2-5.9
	c-1.2-3,0-4.4,2.6-4.5c1.9-0.1,3.9,0,5.8-0.1c2.4-0.1,4.8-0.2,7.2-0.7c5.6-1.1,8.7-5.8,7.2-11.3c-0.6-2.3-2-4.3-3.1-6.5
	c-1.1-2.2-0.8-3.6,1.4-4.8c4.2-2.3,8.4-4.7,12.8-6.6c7.8-3.3,15.7-6.2,23.5-9.3c0.2-1.2-0.5-1.7-1.5-2c-0.9-0.3-1.9-0.5-2.7-0.9
	c-1.9-0.9-2.6-3-1.5-4.8c0.6-1,1.5-2,2.4-2.6c1.2-0.8,2.6-1.3,4-1.7c11.5-3.5,15.2-12.5,16.2-23.3c0.3-3.9-0.6-7.7-1.7-11.4
	c-0.4-1.4-0.8-2.8-1.5-4.1c-1.6-3.3-1.9-6.4,1.2-9.2c0.8-0.8,1-2.1,1.5-3.3c8.1-18.9,17.4-37.1,27.4-55c9.2-16.4,19-32.5,27.3-49.4
	c0.4-0.9,1-1.6,1.7-2.4c1.6-1.8,3.5-2.5,5.8-1.7c31.3,10.4,63.5,18.2,94.8,28.8c8.4,2.9,16.9,5.6,25.3,8.6
	c6.3,2.3,12.5,5.1,18.8,7.5c6.6,2.6,10.5,7.5,12.5,14c3,9.8,4.1,19.9,2.1,30c-1.5,7.8-3.4,15.6-5.7,23.2
	c-3.5,11.5-7.5,22.9-11.3,34.4C1424.3,1291,1423.6,1293.1,1422.8,1295.6z M1287.3,1149.8c-0.8,1.6-1.3,2.4-1.7,3.2
	c-5.2,10.1-10.3,20.2-15.6,30.2c-12.6,23.4-25.3,46.7-37.9,70c-0.5,1-1.4,2-0.2,3.5c1.8,0.4,3.9,0.9,6.1,1.4
	c10.4,2.3,20.8,4.2,31.1,6.8c40,10.2,79,23.7,118,37c7.1,2.4,11.7,7.5,14.8,14c0.6,1.3,1.1,2.7,1.6,4c0.4,0.9,1,1.6,2.4,1.2
	c0.5-1.2,1-2.5,1.5-3.9c4.4-12.5,8.9-25,13-37.6c4.4-13.5,8.6-27.1,12.8-40.7c2.6-8.6,3.3-17.5,2.3-26.5c-0.4-3.3-0.9-6.7-1.9-9.9
	c-1.7-5-4.7-8.8-10.6-9.6c-2.4-0.3-4.6-1.3-6.9-2.1c-15.9-5-31.7-10.2-47.6-15.1c-23-7.2-46.2-13.8-69-21.8
	C1295.6,1152.5,1291.7,1151.3,1287.3,1149.8z M1421.3,1300.3c-1,2.5-2,4.7-2.8,6.9c-4.1,11.6-8.2,23.2-12.1,34.9
	c-2,5.8-5.8,10.3-10.8,13.1c-6.8,3.8-14.4,5.7-22.3,4.6c-8.4-1.2-16.7-2.3-24.8-4.8c-28.2-8.5-56.3-17-84.3-26.3
	c-12.6-4.2-25.4-7.6-38.1-11.3c-1.9-0.6-3.6-1-5.6-0.2c-11,4.3-22.1,8.4-33.1,12.6c-0.6,0.2-1.1,0.9-2,1.6c1.1,0.8,2,1.5,3,2.1
	c30.5,18.1,60.9,36.5,90.2,56.4c8.2,5.6,16.2,11.4,24.2,17.2c1.9,1.4,3.8,3,5.3,4.8c2.9,3.6,5.5,7.4,8.1,11.1
	c3.6,5.2,5,10.9,3.7,17.2c-0.2,1.1,0,2.2,0,3.9c4.8-1.9,9.1-3.5,13.3-5.3c16.2-6.8,32.8-12.8,49.5-18.4
	c34.1-11.3,68.3-22.3,102.1-34.6c8.3-3,8.3-2.9,13-10.4c0.6-1,1.3-2,1.8-3.2c0.5-1.3,1.1-2.7,1.2-4.1c0.7-10.8-3.3-19.5-12.4-25.2
	c-20.9-13.1-41.9-25.9-62.2-39.7C1424.5,1302.2,1423.1,1301.4,1421.3,1300.3z M1226.2,1300.6c1.2,0.5,1.8,0.9,2.5,1
	c10.1,1.4,19.8,4.1,29.5,7c18,5.4,35.9,11,53.9,16.5c24.9,7.5,50.2,13.8,74.8,22.3c2.3,0.8,4.2,0.4,6.1-0.8c2.1-1.3,3.8-3,4.7-5.3
	c0.7-1.8,1.3-3.7,1.5-5.5c0.6-6.5-1.4-12.3-4.7-17.9c-2.6-4.4-7-5.6-11.4-7c-35.4-11.8-70.9-23.6-106.7-34.3
	c-13.2-3.9-26.4-7.6-39.6-11.4c-2.1-0.6-4.1-1.5-6.3-0.4C1234.1,1281.2,1233.8,1284,1226.2,1300.6z M1174.3,1357.7
	c1.5,1.1,2.8,2.1,4.2,3c15.2,9.7,30.6,19.3,45.7,29.1c27.3,17.7,55.1,34.5,81.7,53.3c2.9,2.1,6.3,1.1,7.8-2c1.4-2.9,1.8-6.1,0.6-9.1
	c-2.1-5.4-4.7-10.5-9.7-14c-7.3-5.1-14.5-10.4-21.8-15.5c-21.9-15.3-44.5-29.6-67.2-43.9c-10-6.3-20.1-12.5-30.1-18.6
	c-1.4-0.8-2.9-1.4-4.7-2.3c-0.6,4,1.1,7.5,0,11.1C1179.6,1352.5,1177,1354.9,1174.3,1357.7z M1383.7,1348.9
	c-2.8-0.9-4.3-1.4-5.9-1.8c-24.6-6.9-49.2-13.5-73.7-20.7c-25.2-7.4-50-16-75.6-22c-1.8-0.4-3.7-1-5.4-1.5c-2.5,1.4-4.7,2.6-6.9,3.9
	c0.9,1.6,2.1,1.7,3.3,1.9c10.2,1.6,20.3,4,30.3,6.9c33.7,10,67.4,20.1,101.1,30.2c9.8,2.9,19.8,3.8,29.9,3.8
	C1381.2,1349.7,1381.7,1349.5,1383.7,1348.9z M1162.7,1359.9c0.4,2.1,1.7,2.4,2.6,3c7.4,4.6,14.8,9.1,22.1,13.7
	c28.4,18.2,56.9,36.4,85.2,54.9c7.8,5.1,16,8.8,24.7,11.9c0.7,0.3,1.6,0,3.7,0c-2.2-1.5-3.4-2.4-4.6-3.1c-15.7-10-31.4-19.8-47-29.9
	c-23.7-15.3-47.4-30.7-71.1-46c-1.8-1.2-3.7-2.3-5.5-3.5c-1.7-1.1-3.4-1.7-5.5-1.5C1165.9,1359.7,1164.5,1359.7,1162.7,1359.9z"/>
<path id="XMLID_718_" d="M305.8,1133.7c10.4,0.4,23.8,1.7,36,8.4c0.2,0.1,0.4,0.2,0.7,0.3c11.2,4.7,21.1,11.3,30.4,19.2
	c36.5,31.2,73.4,62,110,93.2c38.4,32.8,75,67.6,110.5,103.5c4.2,4.3,8.4,8.7,12.8,12.9c2.8,2.7,4.3,5.8,4.3,9.6
	c0.1,9.5-0.8,18.8-6,27.2c-1.3,2-2.7,4-4.1,5.9c-0.4,0.6-1,1-1.4,1.6c-1.2,1.8-2,4-3.6,5.2c-2.2,1.7-5,2.9-7.6,4.1
	c-19,8.3-38,16.6-57,24.9c-21.2,9.2-42.6,18.3-63.7,27.7c-8.4,3.7-17.1,6.7-25.8,9.4c-3.4,1-7.2,1.2-10.7,1.1
	c-8.2-0.2-16.3-1.8-24.2-4.3c-6.8-2.1-12.7-5.7-17.9-10.6c-16.3-15.4-32.5-31-49-46.3c-39.1-36.4-78.2-72.6-117.3-108.9
	c-26.7-24.8-53-50.1-78.7-75.9c-8.1-8.2-11.9-18.1-12.2-29.2c-0.3-9.3,4-20.1,16.8-25.5c38.7-16.2,77.8-31.5,117.7-44.6
	c4.6-1.5,9.1-3.1,13.7-4.6C289,1134.6,292.8,1133.9,305.8,1133.7z M311.2,1140.7c-2.9,0.2-5.8,0.1-8.7,0.5c-5.7,0.8-11.5,1-17.1,3
	c-15.4,5.6-30.9,11.1-46.4,16.5c-29.1,10.2-57.7,21.9-86.5,33.2c-2.2,0.9-4.5,1.8-6.7,2.6c-3.1,1.2-5.2,3.5-6.2,6.7
	c-1.5,4.6-2.2,9.4-1.2,14.3c1.4,6.6,4.3,12.3,8.9,17.2c2.3,2.5,4.7,4.9,7.2,7.2c18.9,18,37.7,36.1,56.8,53.8
	c40.5,37.6,81.3,75,121.9,112.5c19.9,18.4,39.3,37.2,57.7,57c4.1,4.4,8.9,7.4,14.5,9.1c6.2,1.9,12.5,3.5,18.9,5
	c7.5,1.8,14.7,0.7,21.9-2.4c33.4-14.6,66.9-28.9,100.4-43.2c12.6-5.4,25.4-10.6,38-16c2.9-1.2,5.8-2.5,8-4.9
	c4.4-4.9,8.1-10.3,9.8-16.7c2-7.8,1.6-15.2-4.7-21.5c-33.9-34.4-68.3-68.3-104.8-100c-38.7-33.6-77.6-66.8-116.5-100
	c-7.7-6.6-15.8-12.7-23.8-18.9c-3-2.4-6.3-4.4-9.7-6.4C333.2,1143.4,322.7,1140.2,311.2,1140.7z"/>
<path id="XMLID_717_" d="M774.6,161.8c-0.2,1.3-0.3,2-0.5,2.7c-0.3,1.4-2,2.7-3.1,2.4c-1.3-0.3-2.1-1.2-2.2-2.5
	c-0.3-2.1-0.6-4.3-0.6-6.4c-0.1-1.6,1.2-3,2.5-3c1.4-0.1,2.3,0.7,2.7,1.9C774,158.7,774.3,160.6,774.6,161.8z"/>
<path id="XMLID_714_" d="M684.4,137.8c3.4-3.5,8-4.2,12.4-5.1c16.3-3.7,30.6,1.4,43.3,11.2c8,6.2,12,15,12.9,25
	c1.6,17-3.9,31.8-14.3,45.1c-1.5,1.9-3.2,3.7-5.1,5.1c-13.1,10-27.7,15.6-44.5,13.4c-11.1-1.5-20.7-6.4-28.5-14.4
	c-6.1-6.2-9.4-14-10.3-22.6c-0.8-7.8-0.2-15.4,2.5-22.8c3.8-10.5,8.8-20.3,15.7-29.2c6.5-8.3,14.8-13.7,25.2-15.9
	c7.7-1.6,15.3-1.3,22.8,1.4c0.6,0.2,1,0.9,2.1,1.9c-2.2-0.3-3.6-0.6-5-0.7c-9-0.9-17.8,0.1-26.2,3.8c-0.9,0.4-1.7,0.9-2.5,1.4
	C683.8,135.8,684.2,136.8,684.4,137.8c-0.4-0.2-0.7-0.5-1.2-0.6c-0.2,0-0.5,0.3-0.7,0.5c0.2,0,0.4-0.1,0.7-0.1
	C683.5,137.6,683.9,137.7,684.4,137.8z M740.2,195.8c-1.7-1.5-3.4-2.8-4.9-4.3c-2.7-2.7-3.9-6.1-3.3-9.9c0.2-1.1,0.9-2.6,1.7-2.9
	c1.5-0.4,1.6,1.2,1.9,2.3c0.3,1.4,0.6,2.8,1.3,4.1c1.1,2.2,2.6,4.1,5.6,4.2c0.4-0.9,0.9-1.7,1.1-2.6c1.5-6.7,1.8-13.4,0.5-20.1
	c-1-5.6-3.3-10.7-7.5-14.6c-11.5-10.7-24.9-15.5-40.5-11.5c-17.5,4.4-29.4,15.9-37.5,31.5c-0.4,0.8-0.8,1.8-1,2.7
	c-2.3,7.5-2.8,15.2-1.3,22.9c1.5,7.8,5.4,14.5,11.8,19.4c12.5,9.6,26.4,12.7,41.6,8.1C724.6,220.6,734.8,210.8,740.2,195.8z"/>
<path id="XMLID_713_" d="M1475.1,1356.2c-0.1,0.7,0,1.6-0.4,1.9c-1.6,1.1-3.2,2.1-4.9,2.9c-9.4,4.9-19.4,8.4-29.5,11.3
	c-7.1,2-14.4,3.8-21.6,5.6c-1.1,0.3-2.3,0.3-3.7-0.2c1.4-0.7,2.7-1.5,4.2-2c6.7-2,13.3-3.9,20-5.8c10.2-2.9,20.1-6.3,29.9-10.4
	c2.1-0.9,4.7-1.3,6.1-3.5L1475.1,1356.2z"/>
<path id="XMLID_712_" d="M1337.4,1400.1c7.7-3.9,11.7-5.1,15.9-5C1349,1397.4,1343.4,1399.3,1337.4,1400.1z"/>
<path id="XMLID_711_" d="M1475.1,1356c0.3,0.2,0.5,0.4,0.8,0.6c0.2-1.2-0.5-0.6-0.9-0.4L1475.1,1356z"/>
<path id="XMLID_710_" d="M699.3,179.4c0.3-0.8,0.7-2.7,1.6-4.3c3.3-6,10.8-4,13,0.1c2.1,3.8,1.9,7.4-1,10.6
	c-2.3,2.6-5.2,3.2-8.5,1.9C701.3,186.3,699.4,183.6,699.3,179.4z"/>
<g id="XMLID_706_">
	<line id="XMLID_709_" class="st11" x1="272.1" y1="878.5" x2="305" y2="852.5"/>
	<path id="XMLID_708_" class="st0" d="M272.1,878.5c0,0,1.7-2,4.6-4.7c1.4-1.4,3.1-2.9,5-4.5c0.9-0.8,1.9-1.6,2.9-2.5
		c1-0.8,2-1.6,3-2.5c1-0.8,2.1-1.6,3.1-2.4c1-0.8,2.1-1.5,3-2.2c2-1.4,3.9-2.7,5.6-3.8c3.3-2.2,5.7-3.4,5.7-3.4s-1.7,2-4.6,4.7
		c-1.4,1.4-3.1,2.9-5,4.5c-0.9,0.8-1.9,1.6-2.9,2.4c-1,0.8-2,1.6-3,2.5c-1,0.8-2.1,1.6-3.1,2.4c-1,0.8-2.1,1.5-3.1,2.2
		c-2,1.4-3.9,2.7-5.6,3.8C274.5,877.3,272.1,878.5,272.1,878.5z"/>
</g>
<g id="XMLID_702_">
	<line id="XMLID_705_" class="st11" x1="302.1" y1="887.1" x2="335" y2="861.1"/>
	<path id="XMLID_704_" class="st0" d="M302.1,887.1c0,0,1.7-2,4.6-4.7c1.4-1.4,3.1-2.9,5-4.5c0.9-0.8,1.9-1.6,2.9-2.5
		c1-0.8,2-1.6,3-2.5c1-0.8,2.1-1.6,3.1-2.4c1-0.8,2.1-1.5,3-2.2c2-1.4,3.9-2.7,5.6-3.8c3.3-2.2,5.7-3.4,5.7-3.4s-1.7,2-4.6,4.7
		c-1.4,1.4-3.1,2.9-5,4.5c-0.9,0.8-1.9,1.6-2.9,2.4c-1,0.8-2,1.6-3,2.5c-1,0.8-2.1,1.6-3.1,2.4c-1,0.8-2.1,1.5-3.1,2.2
		c-2,1.4-3.9,2.7-5.6,3.8C304.5,885.9,302.1,887.1,302.1,887.1z"/>
</g>
<g id="XMLID_698_">
	<line id="XMLID_701_" class="st11" x1="328.1" y1="900.3" x2="373.2" y2="865.5"/>
	<path id="XMLID_700_" class="st0" d="M328.1,900.3c0,0,2.5-2.6,6.5-6.1c2-1.8,4.4-3.8,6.9-5.9c1.3-1,2.6-2.2,4-3.2
		c1.4-1.1,2.8-2.2,4.2-3.3c1.4-1.1,2.8-2.1,4.2-3.2c1.4-1.1,2.8-2,4.1-3c2.7-2,5.3-3.7,7.5-5.2c4.4-3,7.6-4.7,7.6-4.7
		s-2.5,2.6-6.5,6.1c-2,1.8-4.4,3.8-6.9,5.9c-1.3,1-2.6,2.2-4,3.2c-1.4,1.1-2.8,2.2-4.2,3.3c-1.4,1.1-2.8,2.1-4.2,3.2
		c-1.4,1.1-2.8,2-4.1,3c-2.7,2-5.3,3.7-7.5,5.2C331.2,898.5,328.1,900.3,328.1,900.3z"/>
</g>
<g id="XMLID_694_">
	<line id="XMLID_697_" class="st11" x1="359.3" y1="913.3" x2="404.9" y2="874.1"/>
	<path id="XMLID_696_" class="st0" d="M359.3,913.3c0,0,2.5-2.8,6.6-6.8c2-2,4.4-4.3,7-6.6c1.3-1.2,2.6-2.4,4-3.6
		c1.4-1.2,2.8-2.5,4.2-3.7c1.4-1.2,2.9-2.4,4.3-3.6c1.4-1.2,2.8-2.3,4.2-3.4c2.7-2.2,5.3-4.2,7.6-5.9c4.5-3.4,7.7-5.5,7.7-5.5
		s-2.5,2.8-6.6,6.8c-2,2-4.4,4.3-7,6.6c-1.3,1.2-2.6,2.4-4,3.6c-1.4,1.2-2.8,2.5-4.2,3.7c-1.4,1.2-2.9,2.4-4.3,3.6
		c-1.4,1.2-2.8,2.3-4.2,3.4c-2.7,2.2-5.3,4.2-7.6,5.9C362.5,911.2,359.3,913.3,359.3,913.3z"/>
</g>
<g id="XMLID_690_">
	<line id="XMLID_693_" class="st11" x1="400.8" y1="922.8" x2="451.7" y2="881.8"/>
	<path id="XMLID_692_" class="st0" d="M400.8,922.8c0,0,2.9-3,7.4-7.1c2.3-2.1,4.9-4.4,7.9-6.9c1.5-1.2,3-2.5,4.5-3.8
		c1.6-1.3,3.1-2.6,4.7-3.9c1.6-1.3,3.2-2.5,4.8-3.8c1.6-1.3,3.2-2.4,4.7-3.6c3-2.3,5.9-4.4,8.4-6.2c5-3.6,8.5-5.7,8.5-5.7
		s-2.9,3-7.4,7.1c-2.3,2.1-4.9,4.4-7.9,6.9c-1.5,1.2-3,2.5-4.5,3.8c-1.6,1.3-3.1,2.6-4.7,3.9c-1.6,1.3-3.2,2.5-4.8,3.8
		c-1.6,1.3-3.2,2.4-4.7,3.6c-3.1,2.3-5.9,4.4-8.4,6.2C404.3,920.7,400.8,922.8,400.8,922.8z"/>
</g>
<g id="XMLID_686_">
	<line id="XMLID_689_" class="st11" x1="1323.5" y1="1413.5" x2="1488" y2="1356"/>
	<path id="XMLID_688_" class="st0" d="M1323.5,1413.5c0,0,2.5-1,7-2.7c4.5-1.7,10.8-4.2,18.4-7c7.6-2.9,16.6-6.2,26.2-9.6
		c4.8-1.7,9.8-3.5,14.8-5.3c5.1-1.8,10.2-3.6,15.3-5.4c5.1-1.8,10.3-3.6,15.4-5.3c5.1-1.7,10.1-3.4,14.9-5.1
		c9.7-3.3,18.7-6.3,26.5-8.8c7.8-2.5,14.3-4.5,18.8-6c4.6-1.4,7.2-2.2,7.2-2.2s-2.5,1-7,2.7c-4.5,1.7-10.8,4.2-18.4,7.1
		c-7.6,2.9-16.6,6.2-26.2,9.6c-4.8,1.7-9.8,3.5-14.8,5.3c-5.1,1.8-10.2,3.6-15.3,5.4c-5.1,1.8-10.3,3.6-15.4,5.3
		c-5.1,1.7-10.1,3.4-14.9,5.1c-9.7,3.3-18.7,6.3-26.5,8.8c-7.8,2.5-14.3,4.5-18.8,6C1326.1,1412.7,1323.5,1413.5,1323.5,1413.5z"/>
</g>
<g id="XMLID_682_">
	<line id="XMLID_685_" class="st11" x1="1433.8" y1="1209.1" x2="1401" y2="1303"/>
	<path id="XMLID_684_" class="st0" d="M1433.8,1209.1c0,0-0.4,1.5-1.1,4.1c-0.8,2.6-1.8,6.4-3.2,10.8c-1.4,4.5-3,9.7-4.8,15.2
		c-0.9,2.8-1.8,5.6-2.8,8.5c-1,2.9-2,5.8-3,8.8c-1,2.9-2.1,5.9-3.1,8.7c-1,2.9-2.1,5.7-3.1,8.4c-2,5.5-4,10.5-5.7,14.9
		c-1.7,4.3-3.2,7.9-4.3,10.4c-1,2.5-1.7,3.9-1.7,3.9s0.4-1.5,1.1-4.1c0.8-2.6,1.8-6.4,3.2-10.8c1.4-4.5,3-9.7,4.8-15.2
		c0.9-2.8,1.8-5.6,2.8-8.5c1-2.9,2-5.8,3-8.8c1-2.9,2.1-5.9,3.1-8.7c1-2.9,2.1-5.7,3.1-8.4c2-5.5,4-10.5,5.7-14.9
		c1.7-4.3,3.2-7.9,4.3-10.4C1433.2,1210.5,1433.8,1209.1,1433.8,1209.1z"/>
</g>
<path id="XMLID_837_" class="st12" d="M381.6,990.6c-10.4,5.6-13.7,17.1-13.9,29c-0.2,17.4,12.9,32.2,27.1,42.3
	c9.7,6.9,21.4,14.2,22.9,26c0.6,4.5-0.4,9.1,0.4,13.5c1.5,7.9,8.5,13.6,15.8,16.8c7.4,3.2,15.4,4.5,22.8,7.6"/>
<g id="XMLID_840_">
	<path id="XMLID_839_" d="M1002.3,797.1c0,0,1.1,0.4,3,1.2c0.5,0.2,1,0.4,1.6,0.7c0.6,0.2,1.2,0.4,1.9,0.7c0.7,0.2,1.3,0.5,2.1,0.7
		c0.7,0.2,1.5,0.4,2.4,0.7c1.6,0.5,3.4,0.8,5.3,1.2c0.9,0.2,1.9,0.2,2.9,0.3c0.5,0.1,1,0.1,1.5,0.2c0.5,0,1,0,1.5,0c0.5,0,1,0,1.5,0
		c0.5,0,1,0,1.5-0.1c1-0.1,2.1-0.2,3.1-0.3c1-0.2,2.1-0.4,3.1-0.6c1.1-0.2,2.1-0.6,3.1-0.9c1.1-0.2,2.1-0.7,3.1-1.1
		c1-0.4,2-0.8,3-1.3c1-0.5,1.9-1,2.9-1.4c0.9-0.5,1.9-1.1,2.8-1.6c0.9-0.5,1.8-1.1,2.6-1.6c0.9-0.6,1.7-1.1,2.5-1.6
		c1.6-1.2,3.1-2.2,4.5-3.2c1.3-1.1,2.6-2.1,3.8-2.9c1.1-0.9,2.1-1.7,2.9-2.3c1.6-1.3,2.6-2,2.6-2s-0.6,1-1.7,2.8
		c-0.6,0.9-1.2,2-2.1,3.1c-0.9,1.2-1.9,2.5-3,3.8c-1.2,1.3-2.5,2.8-4,4.2c-0.8,0.7-1.6,1.4-2.4,2.1c-0.8,0.7-1.7,1.5-2.6,2.1
		c-0.9,0.7-1.9,1.3-2.9,2c-1,0.6-2.1,1.2-3.1,1.8c-1,0.6-2.2,1.1-3.3,1.6c-1.2,0.5-2.3,1-3.5,1.3c-1.2,0.3-2.4,0.8-3.6,1
		c-1.2,0.2-2.5,0.4-3.7,0.6c-2.5,0.2-5,0.2-7.3-0.1c-0.6-0.1-1.2-0.1-1.7-0.2c-0.6-0.1-1.1-0.3-1.7-0.4c-1.1-0.3-2.2-0.4-3.2-0.9
		c-1-0.4-2-0.7-2.9-1.1c-0.9-0.3-1.8-0.9-2.6-1.3c-0.8-0.4-1.6-0.8-2.3-1.3c-0.7-0.5-1.3-0.9-2-1.4c-0.6-0.4-1.2-0.8-1.7-1.2
		c-0.5-0.4-0.9-0.8-1.3-1.1C1003.1,797.9,1002.3,797.1,1002.3,797.1z"/>
</g>
<g id="XMLID_843_">
	<path id="XMLID_842_" class="st0" d="M826.3,38.6c0,0,0.1,0.4,0.4,1.1c0.2,0.7,0.7,1.7,1,3.1c0.4,1.4,0.8,3.1,1.1,5
		c0.2,2,0.4,4.3,0.1,6.8c-0.2,2.5-0.8,5.2-1.9,7.9c-1.1,2.7-2.6,5.4-4.6,7.9c-2,2.4-4.4,4.7-7.1,6.7c-2.6,2-5.5,3.6-8.5,5.1
		c-3,1.4-6.1,2.6-9.1,3.6c-3.1,1.1-6.1,1.7-9.1,2.4c-3,0.6-5.9,1.1-8.6,1.4c-2.8,0.4-5.4,0.5-7.8,0.7c-1.2,0.1-2.4,0.1-3.5,0.2
		c-1.1,0-2.1,0-3.1,0c-2,0-3.7-0.1-5.1-0.1c-2.8-0.2-4.4-0.3-4.4-0.3s1.6-0.2,4.4-0.6c1.4-0.2,3.1-0.4,5-0.7c1.9-0.3,4.1-0.7,6.4-1
		c2.3-0.4,4.9-0.9,7.5-1.4c2.7-0.5,5.4-1.2,8.3-1.9c2.8-0.8,5.7-1.6,8.6-2.6c2.9-1,5.8-2.1,8.5-3.5c2.8-1.3,5.5-2.8,7.9-4.5
		c2.4-1.7,4.7-3.6,6.6-5.7c3.8-4.2,6.1-9.1,7-13.6c0.5-2.2,0.6-4.4,0.7-6.3c0-1.9-0.1-3.6-0.2-5c-0.1-1.4-0.3-2.5-0.4-3.2
		C826.4,39,826.3,38.6,826.3,38.6z"/>
</g>
<g id="XMLID_846_">
	<path id="XMLID_845_" class="st0" d="M792.1,86.9c0,0,0.8,0.1,2,0.2c0.6,0.1,1.4,0.2,2.3,0.3c0.9,0.1,1.8,0.2,2.9,0.3
		c1.1,0.1,2.2,0.2,3.5,0.3c1.2,0.1,2.5,0.2,3.8,0.2c1.3,0.1,2.7,0,4.1,0.1c1.4-0.1,2.8,0,4.2-0.1c0.7,0,1.4-0.1,2.1-0.1
		c0.7-0.1,1.4-0.2,2-0.2c1.3-0.2,2.7-0.4,3.9-0.7c0.6-0.2,1.2-0.3,1.8-0.5c0.6-0.2,1.1-0.4,1.7-0.6c0.6-0.2,1.1-0.4,1.6-0.7
		c0.5-0.2,1-0.4,1.4-0.7c0.4-0.3,0.8-0.6,1.2-0.8c0.2-0.1,0.4-0.2,0.6-0.4c0.2-0.1,0.3-0.3,0.5-0.4c0.3-0.3,0.6-0.5,0.9-0.8
		c0.1-0.1,0.3-0.2,0.4-0.4c0.1-0.1,0.2-0.3,0.3-0.4c0.8-1,1.3-1.5,1.3-1.5s-0.2,0.7-0.6,2c-0.2,0.7-0.6,1.3-1.1,2.2
		c-0.4,0.9-1.2,1.6-2,2.5c-0.4,0.4-0.9,0.8-1.4,1.2c-0.5,0.4-1,0.8-1.6,1.1c-0.6,0.3-1.2,0.7-1.8,1c-0.6,0.3-1.3,0.5-2,0.8
		c-0.7,0.3-1.4,0.5-2.1,0.7c-0.7,0.2-1.5,0.4-2.2,0.5c-0.8,0.1-1.5,0.2-2.3,0.4c-0.8,0.1-1.5,0.1-2.3,0.2c-1.5,0.1-3.1,0-4.6,0
		c-1.5-0.1-3-0.2-4.4-0.5c-1.4-0.2-2.7-0.5-4-0.9c-1.3-0.3-2.4-0.7-3.5-1.1c-1.1-0.3-2-0.8-2.8-1.2c-0.8-0.4-1.5-0.8-2.1-1.1
		C792.7,87.3,792.1,86.9,792.1,86.9z"/>
</g>
<circle id="XMLID_847_" cx="492.9" cy="471.6" r="7.3"/>
<circle id="XMLID_848_" cx="972.1" cy="574.2" r="7.3"/>
<circle id="XMLID_849_" cx="979.4" cy="600.8" r="7.3"/>
<circle id="XMLID_850_" cx="475.3" cy="488.3" r="7.3"/>
<path id="XMLID_851_" class="st2" d="M884.7,571.2c40.7,2.5,78.3-5.7,107-27.7"/>
<polyline id="XMLID_852_" class="st8" points="732.1,316 744.8,376.4 783.1,305 "/>
<line id="XMLID_853_" class="st8" x1="729" y1="316" x2="711.2" y2="360.1"/>
<polygon id="XMLID_854_" points="1224.2,1300.3 1211.6,1306 1228.5,1315.1 1371,1352.8 1391.3,1348.5 "/>
<g id="XMLID_857_">
	<path id="XMLID_856_" d="M505.2,703.6c0,0-0.4,2.8-1.3,7.7c-0.4,2.4-1,5.4-1.5,8.8c-0.3,1.7-0.5,3.5-0.8,5.4
		c-0.3,1.9-0.7,3.9-0.9,6c-0.3,2.1-0.5,4.3-0.8,6.5c-0.2,1.1-0.3,2.3-0.5,3.4c-0.1,1.2-0.2,2.3-0.4,3.5c-0.2,2.4-0.5,4.9-0.7,7.4
		c-0.2,2.5-0.3,5.1-0.5,7.7c-0.1,2.6-0.4,5.3-0.5,8c-0.1,2.7-0.2,5.4-0.3,8.2c-0.1,2.7,0,5.5,0,8.3l0,4.2l0.1,4.2
		c0.1,2.8,0.1,5.6,0.3,8.4c0.2,2.8,0.3,5.5,0.5,8.3c0.2,2.7,0.5,5.5,0.7,8.1c0.1,1.3,0.2,2.7,0.4,4c0.2,1.3,0.3,2.6,0.5,3.9
		c0.3,2.6,0.6,5.2,0.9,7.7c0.4,2.5,0.7,5,1,7.3c0.3,2.4,0.8,4.7,1.1,6.9c0.4,2.2,0.7,4.4,1.1,6.5c0.4,2.1,0.8,4.1,1.1,6
		c0.3,1.9,0.7,3.7,1.1,5.4c0.8,3.4,1.2,6.3,1.8,8.7c1.1,4.8,1.7,7.6,1.7,7.6s-1.2-2.6-3.1-7.2c-1-2.3-2-5.1-3.2-8.4
		c-1.2-3.2-2.4-7-3.6-11.1c-1.2-4.1-2.5-8.6-3.6-13.4c-0.5-2.4-1.1-4.9-1.6-7.4c-0.6-2.5-0.9-5.1-1.4-7.8c-0.2-1.3-0.5-2.7-0.7-4
		c-0.2-1.4-0.4-2.7-0.5-4.1c-0.3-2.7-0.8-5.5-1-8.3c-0.2-2.8-0.4-5.6-0.7-8.5c-0.2-2.8-0.2-5.7-0.3-8.6l-0.1-4.3l0.1-4.3
		c0.1-2.9,0.1-5.7,0.2-8.5c0.4-5.6,0.7-11.2,1.4-16.5c0.4-2.7,0.6-5.3,1-7.8c0.4-2.5,0.9-5,1.3-7.5c0.2-1.2,0.4-2.4,0.6-3.6
		c0.3-1.2,0.5-2.3,0.8-3.4c0.5-2.2,1-4.4,1.5-6.5c1-4.2,2.2-7.9,3.2-11.3c0.9-3.4,2-6.2,2.9-8.5
		C504.2,706.2,505.2,703.6,505.2,703.6z"/>
</g>
<path id="XMLID_858_" d="M720.1,305c13,7.5,32.8,2.6,55.5-7.9l-15.5,11.7l-24,10.6l-14.3-5.6l-1.7-7.3"/>
<path id="XMLID_859_" d="M652.4,195.8c21.2,29.5,50,34.5,87.8,10.2l-20.1,18.3l-28.7,5.8l-32.1-13.4l-4.1-13.4L652.4,195.8z"/>
<g id="XMLID_860_">
	<polygon id="XMLID_861_" points="920.1,278 883.9,204.3 885,196.4 924.2,276 	"/>
</g>
<g id="XMLID_862_">
	<polygon id="XMLID_863_" points="899.6,272.2 876.5,225.1 877.8,217.9 903.6,270.2 	"/>
</g>
<path id="XMLID_864_" class="st7" d="M207.9,1048.4c103.6,20,131.2,10.8,167.3-51.9"/>
</svg>
